<svg width="362" height="25" viewBox="0 0 362 25" fill="none" xmlns="http://www.w3.org/2000/svg">
<path d="M355.255 18.181C355.919 17.9706 356.299 17.647 356.396 17.21C356.51 16.7731 356.332 16.1905 355.862 15.4623L352.998 10.9232L350.012 15.4623C349.058 16.9026 349.179 17.8088 350.376 18.181V18.5694H345.643V18.181C346.76 17.825 347.739 17.0401 348.58 15.8264L352.464 10.0736L348.702 4.12653C348.329 3.52778 347.941 3.05039 347.536 2.69438C347.148 2.33836 346.663 2.09563 346.08 1.96617V1.57779H352.488V1.96617C351.679 2.14417 351.242 2.45164 351.177 2.88857C351.129 3.30931 351.355 3.90806 351.857 4.68482L354.309 8.54433L356.858 4.68482C357.424 3.84333 357.675 3.20413 357.61 2.7672C357.561 2.33027 357.108 2.06326 356.251 1.96617V1.57779H361.251V1.96617C360.863 2.04708 360.523 2.16036 360.232 2.306C359.94 2.45164 359.649 2.67819 359.358 2.98566C359.066 3.29313 358.718 3.73814 358.314 4.32071L354.843 9.39391L359.066 16.0206C359.439 16.6194 359.819 17.0806 360.207 17.4042C360.612 17.7117 361.105 17.9706 361.688 18.181V18.5694H355.255V18.181Z" fill="white"/>
<path d="M327.233 12.598C327.233 11.2873 327.476 10.1464 327.961 9.17545C328.447 8.18832 329.126 7.41965 330 6.86945C330.874 6.31925 331.885 6.04414 333.034 6.04414C334.523 6.04414 335.713 6.52962 336.603 7.50056C337.493 8.45533 338.019 9.83084 338.18 11.6271H329.418C329.418 13.391 329.83 14.7665 330.656 15.7536C331.481 16.7246 332.638 17.21 334.127 17.21C335.583 17.21 336.7 16.6922 337.476 15.6565L337.865 15.875C336.942 17.9302 335.332 18.9577 333.034 18.9577C331.869 18.9577 330.85 18.6988 329.976 18.181C329.102 17.647 328.422 16.9026 327.937 15.9478C327.468 14.993 327.233 13.8765 327.233 12.598ZM335.68 10.7532C335.599 9.55574 335.284 8.61716 334.733 7.93749C334.199 7.25783 333.487 6.918 332.597 6.918C331.707 6.918 330.987 7.25783 330.437 7.93749C329.887 8.61716 329.563 9.55574 329.466 10.7532H335.68Z" fill="white"/>
<path d="M316.233 18.181C316.897 18.003 317.358 17.7198 317.617 17.3314C317.892 16.9268 318.03 16.32 318.03 15.5109V9.92793C318.03 9.10263 317.892 8.48769 317.617 8.08313C317.358 7.67857 316.897 7.39538 316.233 7.23355V6.84518L319.753 6.28688C319.899 6.56198 320.004 6.81281 320.069 7.03937C320.133 7.26592 320.174 7.54102 320.19 7.86467C320.562 7.29828 321.015 6.85327 321.549 6.52962C322.1 6.20597 322.698 6.04414 323.346 6.04414C324.252 6.04414 325.053 6.33543 325.749 6.918L325.894 10.292L325.482 10.3891C324.98 9.24018 324.503 8.42297 324.05 7.93749C323.596 7.45202 323.087 7.20928 322.52 7.20928C321.824 7.20928 321.282 7.53293 320.894 8.18023C320.506 8.82753 320.311 9.74183 320.311 10.9232V15.5109C320.311 16.3847 320.473 17.0078 320.797 17.38C321.12 17.7521 321.719 18.003 322.593 18.1324V18.5694H316.233V18.181Z" fill="white"/>
<path d="M302.589 14.3457V10.025C302.589 9.16736 302.452 8.53624 302.177 8.13168C301.918 7.72712 301.456 7.44393 300.793 7.2821V6.89372L304.701 6.28688L304.968 6.55389C304.903 7.007 304.871 7.50866 304.871 8.05886V14.4914C304.871 15.5918 305.106 16.4495 305.575 17.0644C306.044 17.6793 306.7 17.9868 307.541 17.9868C308.124 17.9868 308.666 17.8412 309.167 17.5499C309.669 17.2586 310.066 16.8378 310.357 16.2876C310.664 15.7374 310.818 15.082 310.818 14.3215V8.98126C310.818 8.39869 310.721 7.98604 310.527 7.7433C310.349 7.50056 309.936 7.32256 309.289 7.20928V6.84518L312.978 6.28688L313.197 6.50534C313.132 7.03937 313.1 7.58148 313.1 8.13168V15.4866C313.1 16.3119 313.229 16.9268 313.488 17.3314C313.763 17.7198 314.232 18.003 314.896 18.181V18.5694L311.376 18.8121C311.101 18.2943 310.956 17.7764 310.939 17.2586C309.92 18.3914 308.609 18.9577 307.007 18.9577C305.583 18.9577 304.491 18.5613 303.73 17.7683C302.969 16.9592 302.589 15.8183 302.589 14.3457Z" fill="white"/>
<path d="M291.027 6.43253H292.824V4.00516L294.935 3.66533L295.202 3.93234C295.138 4.38545 295.105 4.88711 295.105 5.43731V6.43253H298.965V7.30638H295.105V15.2924C295.105 16.765 295.72 17.5013 296.95 17.5013C297.678 17.5013 298.301 17.1615 298.819 16.4818L299.208 16.7003C298.56 18.2053 297.484 18.9577 295.979 18.9577C293.875 18.9577 292.824 17.7198 292.824 15.2439V7.30638H291.027V6.43253Z" fill="white"/>
<path d="M275.746 18.181C276.409 18.003 276.87 17.7198 277.129 17.3314C277.404 16.9268 277.542 16.3119 277.542 15.4866V9.97648C277.542 9.11881 277.404 8.48769 277.129 8.08313C276.87 7.67857 276.409 7.39538 275.746 7.23355V6.84518L279.265 6.28688C279.508 6.73999 279.646 7.16883 279.678 7.57339C280.714 6.55389 282.032 6.04414 283.635 6.04414C285.123 6.04414 286.264 6.44061 287.057 7.23355C287.85 8.02649 288.247 9.16736 288.247 10.6561V15.4866C288.247 16.3119 288.376 16.9268 288.635 17.3314C288.91 17.7198 289.379 18.003 290.043 18.181V18.5694H284.169V18.181C284.832 18.003 285.293 17.7198 285.552 17.3314C285.827 16.9268 285.965 16.3119 285.965 15.4866V10.5105C285.965 9.4101 285.714 8.55243 285.212 7.93749C284.711 7.32256 284.007 7.01509 283.101 7.01509C282.097 7.01509 281.296 7.3792 280.697 8.10741C280.115 8.81943 279.824 9.78229 279.824 10.996V15.4866C279.824 16.3119 279.953 16.9268 280.212 17.3314C280.487 17.7198 280.956 18.003 281.62 18.181V18.5694H275.746V18.181Z" fill="white"/>
<path d="M263.064 12.598C263.064 11.2873 263.307 10.1464 263.792 9.17545C264.278 8.18832 264.957 7.41965 265.831 6.86945C266.705 6.31925 267.716 6.04414 268.865 6.04414C270.354 6.04414 271.544 6.52962 272.434 7.50056C273.324 8.45533 273.85 9.83084 274.011 11.6271H265.249C265.249 13.391 265.661 14.7665 266.487 15.7536C267.312 16.7246 268.469 17.21 269.958 17.21C271.414 17.21 272.531 16.6922 273.307 15.6565L273.696 15.875C272.773 17.9302 271.163 18.9577 268.865 18.9577C267.7 18.9577 266.681 18.6988 265.807 18.181C264.933 17.647 264.253 16.9026 263.768 15.9478C263.299 14.993 263.064 13.8765 263.064 12.598ZM271.511 10.7532C271.43 9.55574 271.115 8.61716 270.565 7.93749C270.031 7.25783 269.319 6.918 268.428 6.918C267.538 6.918 266.818 7.25783 266.268 7.93749C265.718 8.61716 265.394 9.55574 265.297 10.7532H271.511Z" fill="white"/>
<path d="M247.102 1.57779H253.51V1.96617C252.701 2.14417 252.2 2.46782 252.005 2.93711C251.827 3.40641 251.876 3.98897 252.151 4.68482L256.375 14.9769L260.574 4.70909C260.865 3.99706 260.873 3.39023 260.598 2.88857C260.323 2.37073 259.757 2.06326 258.899 1.96617V1.57779H263.899V1.96617C263.301 2.09563 262.864 2.37073 262.589 2.79147C262.314 3.21222 261.998 3.85142 261.642 4.70909L255.719 18.8121H255.282L249.359 4.70909C249.003 3.85142 248.68 3.21222 248.389 2.79147C248.113 2.37073 247.685 2.09563 247.102 1.96617V1.57779Z" fill="white"/>
<path d="M225.75 18.181C226.413 18.003 226.874 17.7117 227.133 17.3071C227.408 16.9026 227.546 16.2795 227.546 15.4381V3.73815C227.546 2.88048 227.408 2.24936 227.133 1.8448C226.874 1.44024 226.413 1.15704 225.75 0.99522V0.606842L229.658 0L229.925 0.26701C229.86 0.720118 229.827 1.21368 229.827 1.7477V7.42775C230.831 6.50535 232.101 6.04414 233.638 6.04414C235.127 6.04414 236.268 6.44061 237.061 7.23355C237.854 8.02649 238.25 9.16736 238.25 10.6561V15.4866C238.25 16.3119 238.38 16.9268 238.639 17.3314C238.914 17.7198 239.383 18.003 240.047 18.181V18.5694H234.172V18.181C234.836 18.003 235.297 17.7198 235.556 17.3314C235.831 16.9268 235.969 16.3119 235.969 15.4866V10.5105C235.969 9.4101 235.718 8.55243 235.216 7.93749C234.715 7.32256 234.011 7.01509 233.104 7.01509C232.101 7.01509 231.3 7.3792 230.701 8.10741C230.119 8.81943 229.827 9.78229 229.827 10.996V15.5594C229.827 16.3685 229.957 16.9673 230.216 17.3557C230.491 17.7441 230.96 18.0192 231.624 18.181V18.5694H225.75V18.181Z" fill="white"/>
<path d="M215.741 6.43253H217.537V4.00516L219.649 3.66533L219.916 3.93234C219.851 4.38545 219.819 4.88711 219.819 5.43731V6.43253H223.678V7.30638H219.819V15.2924C219.819 16.765 220.434 17.5013 221.663 17.5013C222.392 17.5013 223.015 17.1615 223.533 16.4818L223.921 16.7003C223.274 18.2053 222.198 18.9577 220.693 18.9577C218.589 18.9577 217.537 17.7198 217.537 15.2439V7.30638H215.741V6.43253Z" fill="white"/>
<path d="M208.875 18.181C209.538 18.003 209.999 17.7198 210.258 17.3314C210.533 16.9268 210.671 16.3119 210.671 15.4866V9.97649C210.671 9.11882 210.533 8.4877 210.258 8.08314C209.999 7.67858 209.538 7.39538 208.875 7.23356V6.84518L212.783 6.28688L213.05 6.5539C213.017 6.81282 212.993 7.06364 212.977 7.30638C212.961 7.53294 212.952 7.78376 212.952 8.05886V15.4866C212.952 16.3119 213.082 16.9268 213.341 17.3314C213.616 17.7198 214.085 18.003 214.749 18.181V18.5694H208.875V18.181ZM210.064 2.33028C210.064 1.86099 210.21 1.4807 210.501 1.18941C210.808 0.898131 211.189 0.752487 211.642 0.752487C212.111 0.752487 212.491 0.898131 212.783 1.18941C213.074 1.4807 213.219 1.86099 213.219 2.33028C213.219 2.78339 213.074 3.16367 212.783 3.47114C212.491 3.76242 212.111 3.90807 211.642 3.90807C211.189 3.90807 210.808 3.76242 210.501 3.47114C210.21 3.16367 210.064 2.78339 210.064 2.33028Z" fill="white"/>
<path d="M186.247 6.43253H192.267V6.8209C191.603 6.88563 191.175 7.13646 190.98 7.57339C190.786 8.01031 190.843 8.59288 191.15 9.32109L193.845 15.4866L196.515 9.39391L196.078 8.42297C195.868 7.95367 195.625 7.60575 195.35 7.3792C195.091 7.15264 194.686 6.96655 194.136 6.8209V6.43253H200.156V6.8209C199.492 6.88563 199.064 7.13646 198.869 7.57339C198.675 8.01031 198.732 8.59288 199.039 9.32109L201.734 15.4866L204.428 9.32109C204.752 8.59288 204.808 8.01031 204.598 7.57339C204.404 7.13646 203.975 6.88563 203.311 6.8209V6.43253H207.729V6.8209C207.179 6.96655 206.774 7.15264 206.516 7.3792C206.257 7.60575 206.014 7.95367 205.787 8.42297L201.151 18.8121H200.714L197 10.462L193.262 18.8121H192.825L188.189 8.42297C187.979 7.95367 187.736 7.60575 187.461 7.3792C187.202 7.15264 186.797 6.96655 186.247 6.8209V6.43253Z" fill="white"/>
<path d="M170.607 6.43253H172.403V4.00516L174.515 3.66533L174.782 3.93234C174.717 4.38545 174.685 4.88711 174.685 5.43731V6.43253H178.544V7.30638H174.685V15.2924C174.685 16.765 175.3 17.5013 176.53 17.5013C177.258 17.5013 177.881 17.1615 178.399 16.4818L178.787 16.7003C178.14 18.2053 177.064 18.9577 175.559 18.9577C173.455 18.9577 172.403 17.7198 172.403 15.2439V7.30638H170.607V6.43253Z" fill="white"/>
<path d="M163.741 18.181C164.404 18.003 164.865 17.7198 165.124 17.3314C165.399 16.9268 165.537 16.3119 165.537 15.4866V9.97649C165.537 9.11882 165.399 8.4877 165.124 8.08314C164.865 7.67858 164.404 7.39538 163.741 7.23356V6.84518L167.649 6.28688L167.916 6.5539C167.883 6.81282 167.859 7.06364 167.843 7.30638C167.827 7.53294 167.819 7.78376 167.819 8.05886V15.4866C167.819 16.3119 167.948 16.9268 168.207 17.3314C168.482 17.7198 168.951 18.003 169.615 18.181V18.5694H163.741V18.181ZM164.93 2.33028C164.93 1.86099 165.076 1.4807 165.367 1.18941C165.675 0.898131 166.055 0.752487 166.508 0.752487C166.977 0.752487 167.358 0.898131 167.649 1.18941C167.94 1.4807 168.086 1.86099 168.086 2.33028C168.086 2.78339 167.94 3.16367 167.649 3.47114C167.358 3.76242 166.977 3.90807 166.508 3.90807C166.055 3.90807 165.675 3.76242 165.367 3.47114C165.076 3.16367 164.93 2.78339 164.93 2.33028Z" fill="white"/>
<path d="M148.116 18.181C148.78 18.003 149.241 17.7117 149.5 17.3071C149.775 16.9026 149.912 16.2795 149.912 15.4381V3.73815C149.912 2.88048 149.775 2.24936 149.5 1.8448C149.241 1.44024 148.78 1.15704 148.116 0.99522V0.606842L152.024 0L152.291 0.26701C152.227 0.720118 152.194 1.21368 152.194 1.7477V7.42775C153.197 6.50535 154.468 6.04414 156.005 6.04414C157.494 6.04414 158.635 6.44061 159.428 7.23355C160.221 8.02649 160.617 9.16736 160.617 10.6561V15.4866C160.617 16.3119 160.747 16.9268 161.006 17.3314C161.281 17.7198 161.75 18.003 162.413 18.181V18.5694H156.539V18.181C157.203 18.003 157.664 17.7198 157.923 17.3314C158.198 16.9268 158.335 16.3119 158.335 15.4866V10.5105C158.335 9.4101 158.085 8.55243 157.583 7.93749C157.081 7.32256 156.377 7.01509 155.471 7.01509C154.468 7.01509 153.667 7.3792 153.068 8.10741C152.485 8.81943 152.194 9.78229 152.194 10.996V15.5594C152.194 16.3685 152.324 16.9673 152.583 17.3557C152.858 17.7441 153.327 18.0192 153.99 18.181V18.5694H148.116V18.181Z" fill="white"/>
<path d="M128.917 21.1424C128.917 19.9287 129.669 18.9901 131.174 18.3266C130.754 18.1648 130.438 17.9302 130.228 17.6227C130.034 17.3152 129.936 16.9673 129.936 16.5789C129.936 16.2553 130.025 15.9235 130.204 15.5837C130.382 15.2439 130.616 14.9121 130.907 14.5885L131.344 14.103C130.713 13.7146 130.22 13.213 129.864 12.598C129.508 11.9669 129.33 11.2549 129.33 10.462C129.33 9.5881 129.548 8.81944 129.985 8.15596C130.422 7.49248 131.029 6.97464 131.806 6.60244C132.582 6.23024 133.48 6.04414 134.5 6.04414C135.341 6.04414 136.11 6.17361 136.806 6.43253H140.593V7.30638H138.287C138.724 7.69476 139.063 8.16405 139.306 8.71425C139.549 9.24827 139.67 9.83893 139.67 10.4862C139.67 11.3601 139.452 12.1287 139.015 12.7922C138.578 13.4557 137.971 13.9735 137.194 14.3457C136.434 14.7179 135.536 14.904 134.5 14.904C133.642 14.904 132.857 14.7665 132.145 14.4914L131.708 15.0011C131.45 15.2762 131.32 15.519 131.32 15.7293C131.32 16.1015 131.692 16.3281 132.437 16.409L136.782 16.7974C138.092 16.9107 139.088 17.2505 139.767 17.8169C140.447 18.3671 140.787 19.1115 140.787 20.0501C140.787 20.9077 140.512 21.6521 139.962 22.2832C139.427 22.9305 138.667 23.4241 137.68 23.7639C136.709 24.1038 135.568 24.2737 134.257 24.2737C132.59 24.2737 131.28 23.9905 130.325 23.4241C129.386 22.8739 128.917 22.1133 128.917 21.1424ZM131.587 10.2192C131.587 11.352 131.878 12.2744 132.461 12.9864C133.044 13.6823 133.796 14.0302 134.718 14.0302C135.544 14.0302 136.199 13.7308 136.685 13.1321C137.17 12.5333 137.413 11.7323 137.413 10.729C137.413 9.59619 137.121 8.68188 136.539 7.98604C135.956 7.27401 135.204 6.918 134.281 6.918C133.456 6.918 132.801 7.21737 132.315 7.81612C131.83 8.41487 131.587 9.21591 131.587 10.2192ZM130.616 20.6812C130.616 21.5712 130.972 22.2428 131.684 22.6959C132.412 23.1652 133.408 23.3998 134.67 23.3998C135.964 23.3998 136.976 23.1652 137.704 22.6959C138.448 22.2266 138.821 21.5874 138.821 20.7783C138.821 20.1633 138.578 19.7102 138.092 19.4189C137.607 19.1277 136.749 18.9254 135.519 18.8121L132.194 18.5208C131.142 19.0225 130.616 19.7426 130.616 20.6812Z" fill="white"/>
<path d="M121.759 18.181C122.423 18.003 122.884 17.7198 123.143 17.3314C123.418 16.9268 123.556 16.3119 123.556 15.4866V9.97649C123.556 9.11882 123.418 8.4877 123.143 8.08314C122.884 7.67858 122.423 7.39538 121.759 7.23356V6.84518L125.667 6.28688L125.934 6.5539C125.902 6.81282 125.878 7.06364 125.862 7.30638C125.845 7.53294 125.837 7.78376 125.837 8.05886V15.4866C125.837 16.3119 125.967 16.9268 126.226 17.3314C126.501 17.7198 126.97 18.003 127.634 18.181V18.5694H121.759V18.181ZM122.949 2.33028C122.949 1.86099 123.094 1.4807 123.386 1.18941C123.693 0.898131 124.073 0.752487 124.526 0.752487C124.996 0.752487 125.376 0.898131 125.667 1.18941C125.959 1.4807 126.104 1.86099 126.104 2.33028C126.104 2.78339 125.959 3.16367 125.667 3.47114C125.376 3.76242 124.996 3.90807 124.526 3.90807C124.073 3.90807 123.693 3.76242 123.386 3.47114C123.094 3.16367 122.949 2.78339 122.949 2.33028Z" fill="white"/>
<path d="M108.403 3.73815C108.403 2.88048 108.265 2.24936 107.99 1.8448C107.731 1.44024 107.27 1.15704 106.606 0.99522V0.606842L110.515 0L110.782 0.26701C110.717 0.720118 110.684 1.22987 110.684 1.79625V7.40347C111.655 6.49726 112.885 6.04414 114.374 6.04414C116.106 6.04414 117.481 6.60244 118.501 7.71903C119.52 8.81944 120.03 10.3325 120.03 12.2582C120.03 13.6175 119.763 14.7989 119.229 15.8022C118.711 16.8055 117.967 17.5822 116.996 18.1324C116.025 18.6826 114.851 18.9577 113.476 18.9577C112.586 18.9577 111.68 18.8364 110.757 18.5936C109.851 18.3509 109.066 18.003 108.403 17.5499V3.73815ZM117.651 12.9379C117.651 11.7566 117.489 10.7209 117.165 9.83084C116.858 8.9408 116.421 8.25305 115.855 7.76758C115.288 7.26592 114.625 7.01509 113.864 7.01509C112.942 7.01509 112.181 7.3792 111.583 8.10741C110.984 8.81943 110.684 9.73374 110.684 10.8503V14.2729C110.684 14.985 110.838 15.6322 111.146 16.2148C111.469 16.7812 111.898 17.2343 112.432 17.5741C112.966 17.914 113.565 18.0839 114.228 18.0839C115.296 18.0839 116.13 17.6308 116.729 16.7246C117.344 15.8183 117.651 14.5561 117.651 12.9379Z" fill="white"/>
<path d="M87.6128 15.7536C87.6128 14.9607 87.8636 14.2648 88.3653 13.6661C88.8669 13.0673 89.5709 12.6061 90.4771 12.2825C91.3833 11.9427 92.4352 11.7727 93.6327 11.7727C94.2314 11.7727 94.8383 11.8132 95.4532 11.8941V10.3406C95.4532 9.27255 95.2104 8.43915 94.725 7.8404C94.2557 7.22546 93.6003 6.918 92.7588 6.918C91.1567 6.918 89.8055 8.07504 88.7051 10.3891L88.2924 10.2678L88.6808 6.918C90.1373 6.33543 91.5532 6.04414 92.9287 6.04414C94.4661 6.04414 95.6474 6.43252 96.4727 7.20928C97.3142 7.96986 97.7349 9.07026 97.7349 10.5105V16.4333C97.7349 17.2748 98.0667 17.6955 98.7301 17.6955C98.9729 17.6955 99.1913 17.6065 99.3855 17.4285L99.7011 17.6712C99.1994 18.4318 98.5117 18.8121 97.6378 18.8121C96.6345 18.8121 95.9791 18.3428 95.6717 17.4042C94.7007 18.4399 93.4466 18.9577 91.9092 18.9577C90.5823 18.9577 89.5304 18.6745 88.7537 18.1082C87.9931 17.5256 87.6128 16.7407 87.6128 15.7536ZM89.9916 15.4623C89.9916 16.2553 90.2343 16.8783 90.7198 17.3314C91.2215 17.7845 91.8688 18.0111 92.6617 18.0111C93.4547 18.0111 94.1181 17.6874 94.6522 17.0401C95.1862 16.3928 95.4532 15.4219 95.4532 14.1273V12.7437C95.1943 12.7113 94.9434 12.687 94.7007 12.6709C94.4742 12.6547 94.2476 12.6466 94.021 12.6466C92.7426 12.6466 91.7474 12.8974 91.0354 13.3991C90.3395 13.8845 89.9916 14.5723 89.9916 15.4623Z" fill="white"/>
<path d="M76.9418 16.1177C76.9418 15.519 76.7153 15.0173 76.2622 14.6128C75.8091 14.2082 75.0323 13.7874 73.9319 13.3505C72.4593 12.7518 71.4155 12.153 70.8006 11.5543C70.1857 10.9393 69.8782 10.2354 69.8782 9.44246C69.8782 8.40678 70.2828 7.58148 71.0919 6.96655C71.9172 6.35161 73.0176 6.04414 74.3931 6.04414C75.0566 6.04414 75.7443 6.12506 76.4564 6.28688C77.1684 6.43252 77.8319 6.6429 78.4468 6.918L78.8352 10.1464L78.4225 10.2678C77.8723 9.18354 77.225 8.35824 76.4806 7.79185C75.7363 7.20928 74.9433 6.918 74.1018 6.918C73.4545 6.918 72.9448 7.07982 72.5726 7.40347C72.2166 7.71094 72.0386 8.12359 72.0386 8.64143C72.0386 9.17545 72.2651 9.63665 72.7182 10.025C73.1713 10.3972 73.9643 10.8099 75.097 11.263C76.5858 11.8617 77.6215 12.4443 78.2041 13.0107C78.8028 13.5771 79.1022 14.2729 79.1022 15.0982C79.1022 15.8426 78.8999 16.5061 78.4954 17.0887C78.107 17.6712 77.5568 18.1324 76.8447 18.4723C76.1489 18.7959 75.3317 18.9577 74.3931 18.9577C73.7458 18.9577 73.0581 18.8687 72.3298 18.6907C71.6016 18.5289 70.8734 18.2862 70.1452 17.9625L69.7568 14.7341L70.1695 14.6128C70.7197 15.7132 71.3913 16.5708 72.1842 17.1858C72.9933 17.7845 73.8429 18.0839 74.7329 18.0839C75.4288 18.0839 75.9709 17.9059 76.3593 17.5499C76.7477 17.1939 76.9418 16.7165 76.9418 16.1177Z" fill="white"/>
<path d="M54.2115 6.43253H60.3042V6.8209C59.6569 6.88563 59.22 7.13646 58.9934 7.57339C58.783 8.01031 58.8478 8.59288 59.1876 9.32109L62.2218 15.7536L65.3288 9.32109C65.6848 8.59288 65.7496 8.01031 65.523 7.57339C65.2965 7.13646 64.8595 6.88563 64.2122 6.8209V6.43253H68.7029V6.8209C68.1527 6.96655 67.7481 7.16074 67.4892 7.40347C67.2303 7.63003 66.9875 7.96986 66.761 8.42297L61.3965 19.249C60.7654 20.5274 60.2071 21.5308 59.7216 22.259C59.2361 23.0034 58.7668 23.5212 58.3137 23.8125C57.8606 24.1199 57.3671 24.2737 56.833 24.2737C56.1857 24.2737 55.6355 24.0714 55.1824 23.6668C54.7293 23.2785 54.3248 22.6392 53.9688 21.7492L54.3086 21.5308C54.9235 22.1457 55.7003 22.4532 56.6389 22.4532C57.448 22.4532 58.1681 22.178 58.7992 21.6278C59.4303 21.0938 60.0453 20.2119 60.644 18.982L60.9596 18.3509L56.1534 8.42297C55.943 7.96986 55.7084 7.63003 55.4494 7.40347C55.1905 7.16074 54.7779 6.96655 54.2115 6.8209V6.43253Z" fill="white"/>
<path d="M42.2656 15.7536C42.2656 14.9607 42.5165 14.2648 43.0181 13.6661C43.5198 13.0673 44.2237 12.6061 45.1299 12.2825C46.0361 11.9427 47.088 11.7727 48.2855 11.7727C48.8842 11.7727 49.4911 11.8132 50.106 11.8941V10.3406C50.106 9.27255 49.8633 8.43915 49.3778 7.8404C48.9085 7.22546 48.2531 6.918 47.4116 6.918C45.8096 6.918 44.4583 8.07504 43.3579 10.3891L42.9453 10.2678L43.3337 6.918C44.7901 6.33543 46.2061 6.04414 47.5816 6.04414C49.1189 6.04414 50.3002 6.43252 51.1255 7.20928C51.967 7.96986 52.3877 9.07026 52.3877 10.5105V16.4333C52.3877 17.2748 52.7195 17.6955 53.383 17.6955C53.6257 17.6955 53.8442 17.6065 54.0384 17.4285L54.3539 17.6712C53.8523 18.4318 53.1645 18.8121 52.2907 18.8121C51.2873 18.8121 50.632 18.3428 50.3245 17.4042C49.3535 18.4399 48.0994 18.9577 46.5621 18.9577C45.2351 18.9577 44.1832 18.6745 43.4065 18.1082C42.6459 17.5256 42.2656 16.7407 42.2656 15.7536ZM44.6444 15.4623C44.6444 16.2553 44.8872 16.8783 45.3727 17.3314C45.8743 17.7845 46.5216 18.0111 47.3145 18.0111C48.1075 18.0111 48.771 17.6874 49.305 17.0401C49.839 16.3928 50.106 15.4219 50.106 14.1273V12.7437C49.8471 12.7113 49.5963 12.687 49.3535 12.6709C49.127 12.6547 48.9004 12.6466 48.6739 12.6466C47.3955 12.6466 46.4002 12.8974 45.6882 13.3991C44.9924 13.8845 44.6444 14.5723 44.6444 15.4623Z" fill="white"/>
<path d="M19.6973 6.43253H25.7171V6.8209C25.0537 6.88563 24.6248 7.13646 24.4306 7.57339C24.2364 8.01031 24.2931 8.59288 24.6005 9.32109L27.2949 15.4866L29.965 9.39391L29.5281 8.42297C29.3177 7.95367 29.075 7.60575 28.7999 7.3792C28.541 7.15264 28.1364 6.96655 27.5862 6.8209V6.43253H33.6061V6.8209C32.9426 6.88563 32.5138 7.13646 32.3196 7.57339C32.1254 8.01031 32.182 8.59288 32.4895 9.32109L35.1839 15.4866L37.8783 9.32109C38.2019 8.59288 38.2585 8.01031 38.0482 7.57339C37.854 7.13646 37.4251 6.88563 36.7617 6.8209V6.43253H41.1795V6.8209C40.6293 6.96655 40.2247 7.15264 39.9658 7.3792C39.7069 7.60575 39.4641 7.95367 39.2376 8.42297L34.6013 18.8121H34.1644L30.4505 10.462L26.7124 18.8121H26.2754L21.6392 8.42297C21.4288 7.95367 21.1861 7.60575 20.9109 7.3792C20.652 7.15264 20.2475 6.96655 19.6973 6.8209V6.43253Z" fill="white"/>
<path d="M13.0464 18.181C13.7099 18.003 14.1711 17.7198 14.43 17.3314C14.7051 16.9268 14.8426 16.32 14.8426 15.5109V3.73815C14.8426 2.88048 14.7051 2.24936 14.43 1.8448C14.1711 1.44024 13.7099 1.15704 13.0464 0.99522V0.606842L16.9544 0L17.2215 0.26701C17.1567 0.720118 17.1244 1.22987 17.1244 1.79625V15.5109C17.1244 16.32 17.2538 16.9268 17.5127 17.3314C17.7878 17.7198 18.2571 18.003 18.9206 18.181V18.5694H13.0464V18.181Z" fill="white"/>
<path d="M0 15.7536C0 14.9607 0.250828 14.2648 0.752484 13.6661C1.25414 13.0673 1.95808 12.6061 2.86429 12.2825C3.77051 11.9427 4.82237 11.7727 6.01987 11.7727C6.61862 11.7727 7.22546 11.8132 7.8404 11.8941V10.3406C7.8404 9.27255 7.59766 8.43915 7.11219 7.8404C6.6429 7.22546 5.98751 6.918 5.14602 6.918C3.54396 6.918 2.19272 8.07504 1.09232 10.3891L0.679663 10.2678L1.06804 6.918C2.52446 6.33543 3.94043 6.04414 5.31594 6.04414C6.85327 6.04414 8.03459 6.43252 8.85989 7.20928C9.70138 7.96986 10.1221 9.07026 10.1221 10.5105V16.4333C10.1221 17.2748 10.4539 17.6955 11.1173 17.6955C11.3601 17.6955 11.5785 17.6065 11.7727 17.4285L12.0883 17.6712C11.5866 18.4318 10.8989 18.8121 10.025 18.8121C9.02172 18.8121 8.36633 18.3428 8.05886 17.4042C7.08791 18.4399 5.83377 18.9577 4.29644 18.9577C2.96948 18.9577 1.91762 18.6745 1.14086 18.1082C0.380288 17.5256 0 16.7407 0 15.7536ZM2.37882 15.4623C2.37882 16.2553 2.62156 16.8783 3.10703 17.3314C3.60869 17.7845 4.25598 18.0111 5.04892 18.0111C5.84187 18.0111 6.50535 17.6874 7.03937 17.0401C7.57339 16.3928 7.8404 15.4219 7.8404 14.1273V12.7437C7.58148 12.7113 7.33065 12.687 7.08791 12.6709C6.86136 12.6547 6.63481 12.6466 6.40825 12.6466C5.12984 12.6466 4.13462 12.8974 3.42259 13.3991C2.72674 13.8845 2.37882 14.5723 2.37882 15.4623Z" fill="white"/>
</svg>
