<svg width="269" height="46" viewBox="0 0 269 46" fill="none" xmlns="http://www.w3.org/2000/svg">
<path d="M6.13623 14.0731C6.13623 12.7766 6.42425 11.7925 7.007 11.121C7.58975 10.4428 8.43373 10.1104 9.53894 10.1104C10.6441 10.1104 11.4881 10.4494 12.0709 11.121C12.6536 11.7992 12.9416 12.7832 12.9416 14.0731C12.9416 15.363 12.6536 16.3537 12.0709 17.0252C11.4881 17.7034 10.6441 18.0358 9.53894 18.0358C8.43373 18.0358 7.58975 17.6967 7.007 17.0252C6.42425 16.347 6.13623 15.363 6.13623 14.0731ZM7.784 14.0731C7.784 15.0172 7.92466 15.7154 8.21269 16.1542C8.49401 16.593 8.9428 16.8124 9.54564 16.8124C10.1485 16.8124 10.5906 16.593 10.8786 16.1542C11.1666 15.7154 11.3073 15.0172 11.3073 14.0731C11.3073 13.129 11.1666 12.4308 10.8786 11.992C10.5973 11.5532 10.1485 11.3337 9.54564 11.3337C8.9428 11.3337 8.49401 11.5532 8.21269 11.992C7.93136 12.4308 7.784 13.129 7.784 14.0731Z" fill="white"/>
<path d="M18.3673 17.8629V13.335H16.0095V17.8629H14.5359V13.335H13.7053V12.3577L14.5359 12.3244V11.4335C14.5359 10.8218 14.7034 10.3364 15.045 9.984C15.3866 9.63161 15.8488 9.45874 16.4449 9.45874C16.8334 9.45874 17.1884 9.51858 17.5166 9.64491V10.6422C17.2554 10.5758 17.0277 10.5425 16.8267 10.5425C16.5655 10.5425 16.3645 10.6156 16.2239 10.7553C16.0832 10.8949 16.0095 11.101 16.0095 11.3803V12.2978H18.3673V11.4335C18.3673 10.8218 18.5348 10.3364 18.8764 9.984C19.2113 9.63161 19.6802 9.45874 20.2763 9.45874C20.5911 9.45874 20.9126 9.51193 21.2342 9.62496V10.6223C21.0332 10.5691 20.839 10.5492 20.6581 10.5492C20.3969 10.5492 20.1959 10.6223 20.0486 10.7619C19.9012 10.9016 19.8342 11.1077 19.8342 11.3869V12.3045H21.1672V13.335H19.8342V17.8629H18.3606H18.3673ZM22.9288 11.4268C22.6542 11.4268 22.4398 11.3537 22.2858 11.2074C22.1317 11.0611 22.058 10.8617 22.058 10.609C22.058 10.3563 22.1317 10.1569 22.2858 10.0106C22.4398 9.86432 22.6542 9.79119 22.9288 9.79119C23.2034 9.79119 23.4245 9.86432 23.5785 10.0106C23.7326 10.1569 23.813 10.3563 23.813 10.609C23.813 10.8617 23.7326 11.0611 23.5785 11.2074C23.4245 11.3537 23.2034 11.4268 22.9288 11.4268ZM22.1987 17.8629V12.4109L23.6723 12.2712V17.8629H22.1987Z" fill="white"/>
<path d="M29.2252 17.6569C28.6692 17.9095 28.0932 18.0359 27.4903 18.0359C26.633 18.0359 25.9698 17.7832 25.5077 17.2779C25.0455 16.7726 24.811 16.0479 24.811 15.0971C24.811 14.1463 25.0388 13.4082 25.5077 12.8963C25.9698 12.3843 26.633 12.125 27.497 12.125C28.0597 12.125 28.6223 12.2513 29.1917 12.504V13.5745C28.6692 13.3617 28.2003 13.262 27.7918 13.262C26.8339 13.262 26.3516 13.867 26.3516 15.0705C26.3516 15.6689 26.4722 16.121 26.72 16.4335C26.9679 16.746 27.3229 16.8923 27.7985 16.8923C28.207 16.8923 28.6826 16.7859 29.2319 16.5798V17.6502L29.2252 17.6569Z" fill="white"/>
<path d="M31.0539 11.4269C30.7792 11.4269 30.5649 11.3538 30.4108 11.2075C30.2568 11.0612 30.1831 10.8617 30.1831 10.6091C30.1831 10.3564 30.2568 10.1569 30.4108 10.0107C30.5649 9.8644 30.7792 9.79126 31.0539 9.79126C31.3285 9.79126 31.5495 9.8644 31.7036 10.0107C31.8577 10.1569 31.938 10.3564 31.938 10.6091C31.938 10.8617 31.8577 11.0612 31.7036 11.2075C31.5495 11.3538 31.3285 11.4269 31.0539 11.4269ZM30.3238 17.863V12.4109L31.7974 12.2713V17.863H30.3238Z" fill="white"/>
<path d="M36.6266 17.8962L36.5396 17.5372C35.9702 17.8696 35.4009 18.0359 34.8382 18.0359C34.2755 18.0359 33.7933 17.8763 33.445 17.5572C33.0967 17.238 32.9292 16.8125 32.9292 16.2673C32.9292 15.7221 33.1234 15.2766 33.5052 14.9641C33.887 14.6516 34.4229 14.4987 35.1128 14.4987C35.5214 14.4987 35.9367 14.5386 36.3587 14.6183V14.1862C36.3587 13.8537 36.2582 13.6077 36.064 13.4548C35.8697 13.3019 35.5616 13.2221 35.1463 13.2221C34.5904 13.2221 33.9808 13.3484 33.311 13.5878V12.5239C33.6258 12.4043 33.9674 12.3045 34.3492 12.2314C34.7243 12.1582 35.086 12.125 35.4209 12.125C36.1912 12.125 36.7807 12.2979 37.196 12.6436C37.6046 12.9894 37.8122 13.488 37.8122 14.1396V17.7699L36.6333 17.8896L36.6266 17.8962ZM35.287 16.9853C35.4477 16.9853 35.6219 16.9588 35.8161 16.9122C36.0104 16.859 36.1912 16.7992 36.3587 16.7194V15.5359C36.0238 15.4561 35.7224 15.4162 35.4544 15.4162C34.7578 15.4162 34.4028 15.6822 34.4028 16.2207C34.4028 16.4734 34.4765 16.6662 34.6239 16.7925C34.7712 16.9255 34.9923 16.9853 35.287 16.9853Z" fill="white"/>
<path d="M39.1724 17.863V9.7114L40.646 9.57178V17.863H39.1724Z" fill="white"/>
<path d="M44.9258 17.8633V10.4298C45.2808 10.3567 45.7028 10.2968 46.1851 10.2569C46.6673 10.217 47.096 10.1904 47.4711 10.1904C48.3821 10.1904 49.072 10.3567 49.5476 10.7024C50.0231 11.0415 50.2576 11.5335 50.2576 12.1851C50.2576 12.9896 49.8289 13.5481 48.9715 13.8739C49.5007 14.0069 49.9093 14.233 50.1839 14.5588C50.4585 14.8846 50.5992 15.2901 50.5992 15.7755C50.5992 16.447 50.3581 16.9657 49.8758 17.3247C49.3935 17.6837 48.7103 17.8699 47.8127 17.8699H44.9325L44.9258 17.8633ZM47.4041 11.3274C46.9553 11.3274 46.6137 11.354 46.3793 11.4005V13.4351H47.5783C47.9601 13.4351 48.2548 13.342 48.4759 13.1558C48.6969 12.9697 48.8041 12.7104 48.8041 12.3779C48.8041 12.0255 48.6902 11.7596 48.4625 11.5867C48.2347 11.4138 47.8797 11.3274 47.4108 11.3274H47.4041ZM47.7524 16.7263C48.6232 16.7263 49.0653 16.3673 49.0653 15.6425C49.0653 15.2901 48.9514 15.0175 48.7237 14.8247C48.4959 14.6319 48.1677 14.5388 47.7457 14.5388H46.3793V16.7263H47.7524Z" fill="white"/>
<path d="M55.1139 17.8962L55.0269 17.5372C54.4575 17.8696 53.8882 18.0359 53.3255 18.0359C52.7629 18.0359 52.2806 17.8763 51.9323 17.5572C51.584 17.238 51.4165 16.8125 51.4165 16.2673C51.4165 15.7221 51.6108 15.2766 51.9926 14.9641C52.3744 14.6516 52.9102 14.4987 53.6001 14.4987C54.0087 14.4987 54.424 14.5386 54.846 14.6183V14.1862C54.846 13.8537 54.7455 13.6077 54.5513 13.4548C54.357 13.3019 54.0489 13.2221 53.6336 13.2221C53.0777 13.2221 52.4681 13.3484 51.7983 13.5878V12.5239C52.1131 12.4043 52.4547 12.3045 52.8365 12.2314C53.2116 12.1582 53.5733 12.125 53.9083 12.125C54.6786 12.125 55.268 12.2979 55.6833 12.6436C56.0919 12.9894 56.2995 13.488 56.2995 14.1396V17.7699L55.1206 17.8896L55.1139 17.8962ZM53.7743 16.9853C53.935 16.9853 54.1092 16.9588 54.3035 16.9122C54.4977 16.859 54.6786 16.7992 54.846 16.7194V15.5359C54.5111 15.4561 54.2097 15.4162 53.9417 15.4162C53.2451 15.4162 52.8901 15.6822 52.8901 16.2207C52.8901 16.4734 52.9638 16.6662 53.1112 16.7925C53.2585 16.9255 53.4796 16.9853 53.7743 16.9853Z" fill="white"/>
<path d="M61.0885 17.863V14.2128C61.0885 13.887 61.0149 13.6476 60.8675 13.4947C60.7201 13.3418 60.4924 13.262 60.1776 13.262C60.0034 13.262 59.8226 13.2886 59.6283 13.3418C59.4408 13.3949 59.2733 13.4681 59.126 13.5545V17.8697H57.6523V12.3976L58.8312 12.2779L58.9183 12.637C59.4877 12.3045 60.0436 12.1383 60.5996 12.1383C61.2225 12.1383 61.7048 12.3045 62.0464 12.6303C62.388 12.9561 62.5555 13.4215 62.5555 14.0199V17.8697H61.0818L61.0885 17.863Z" fill="white"/>
<path d="M63.9355 17.863V9.7114L65.4092 9.57178V14.5983L67.345 12.2978H69.0061L66.8627 14.7912L69.1669 17.8563H67.3851L65.4092 15.2034V17.8563H63.9355V17.863Z" fill="white"/>
<path d="M76.0192 17.8962L75.9321 17.5372C75.3628 17.8696 74.7934 18.0359 74.2308 18.0359C73.6681 18.0359 73.1859 17.8763 72.8375 17.5572C72.4892 17.238 72.3218 16.8125 72.3218 16.2673C72.3218 15.7221 72.516 15.2766 72.8978 14.9641C73.2796 14.6516 73.8155 14.4987 74.5054 14.4987C74.914 14.4987 75.3293 14.5386 75.7513 14.6183V14.1862C75.7513 13.8537 75.6508 13.6077 75.4566 13.4548C75.2623 13.3019 74.9542 13.2221 74.5389 13.2221C73.9829 13.2221 73.3734 13.3484 72.7036 13.5878V12.5239C73.0184 12.4043 73.36 12.3045 73.7418 12.2314C74.1169 12.1582 74.4786 12.125 74.8135 12.125C75.5838 12.125 76.1733 12.2979 76.5886 12.6436C76.9972 12.9894 77.2048 13.488 77.2048 14.1396V17.7699L76.0259 17.8896L76.0192 17.8962ZM74.6796 16.9853C74.8403 16.9853 75.0145 16.9588 75.2087 16.9122C75.403 16.859 75.5838 16.7992 75.7513 16.7194V15.5359C75.4164 15.4561 75.1149 15.4162 74.847 15.4162C74.1504 15.4162 73.7954 15.6822 73.7954 16.2207C73.7954 16.4734 73.8691 16.6662 74.0164 16.7925C74.1638 16.9255 74.3848 16.9853 74.6796 16.9853Z" fill="white"/>
<path d="M81.9938 17.863V14.2128C81.9938 13.887 81.9201 13.6476 81.7728 13.4947C81.6254 13.3418 81.3977 13.262 81.0829 13.262C80.9087 13.262 80.7278 13.2886 80.5336 13.3418C80.346 13.3949 80.1786 13.4681 80.0312 13.5545V17.8697H78.5576V12.3976L79.7365 12.2779L79.8236 12.637C80.3929 12.3045 80.9489 12.1383 81.5048 12.1383C82.1278 12.1383 82.6101 12.3045 82.9517 12.6303C83.2933 12.9561 83.4607 13.4215 83.4607 14.0199V17.8697H81.9871L81.9938 17.863Z" fill="white"/>
<path d="M89.7438 9.57178V17.7765L88.5649 17.8962L88.4778 17.5372C88.2166 17.6901 87.942 17.8098 87.6473 17.9028C87.3525 17.9959 87.0913 18.0358 86.8502 18.0358C86.1334 18.0358 85.5775 17.7832 85.1756 17.2779C84.7737 16.7725 84.5728 16.0678 84.5728 15.1768C84.5728 14.2061 84.8139 13.4614 85.2895 12.9295C85.765 12.3976 86.4349 12.1316 87.3056 12.1316C87.6205 12.1316 87.942 12.1715 88.2769 12.2513V9.71805L89.7505 9.57843L89.7438 9.57178ZM87.2655 16.9122C87.4195 16.9122 87.587 16.8856 87.7745 16.8324C87.9621 16.7792 88.1228 16.706 88.2702 16.6196V13.2952C88.0424 13.242 87.8013 13.222 87.5468 13.222C87.0578 13.222 86.6961 13.3816 86.4617 13.6941C86.2272 14.0066 86.1067 14.492 86.1067 15.1502C86.1067 16.3271 86.4952 16.9188 87.2655 16.9188V16.9122Z" fill="white"/>
<path d="M99.2149 17.5371C98.5585 17.8696 97.8485 18.0358 97.0715 18.0358C95.9998 18.0358 95.1759 17.69 94.5865 17.0052C93.997 16.3204 93.709 15.343 93.709 14.0664C93.709 12.7898 94.0037 11.8456 94.5931 11.1475C95.1826 10.4494 96.0065 10.1036 97.0715 10.1036C97.8217 10.1036 98.5183 10.2699 99.168 10.6023V11.8058C98.8197 11.6395 98.5116 11.5199 98.237 11.4534C97.9691 11.3869 97.6676 11.3536 97.3394 11.3536C96.6897 11.3536 96.2007 11.5797 95.8725 12.0385C95.5443 12.4972 95.3768 13.1754 95.3768 14.073C95.3768 15.8882 96.0333 16.7924 97.3394 16.7924C97.6542 16.7924 97.9557 16.7592 98.237 16.686C98.525 16.6129 98.8465 16.4999 99.2015 16.3403V17.5438L99.2149 17.5371Z" fill="white"/>
<path d="M100.381 17.8631V12.3911L101.56 12.2714L101.68 12.7834C102.136 12.3712 102.645 12.165 103.201 12.165C103.375 12.165 103.556 12.1916 103.75 12.2382V13.4416C103.529 13.3884 103.341 13.3685 103.174 13.3685C102.672 13.3685 102.236 13.5081 101.861 13.7807V17.8698H100.388L100.381 17.8631Z" fill="white"/>
<path d="M109.101 17.6436C108.572 17.9029 107.983 18.0359 107.333 18.0359C106.375 18.0359 105.638 17.7832 105.129 17.2779C104.62 16.7726 104.366 16.0346 104.366 15.0638C104.366 14.4721 104.48 13.9534 104.707 13.508C104.935 13.0625 105.25 12.7234 105.652 12.484C106.054 12.2447 106.509 12.125 107.025 12.125C107.755 12.125 108.324 12.3311 108.74 12.75C109.155 13.1689 109.363 13.734 109.363 14.4588C109.363 14.7979 109.329 15.1303 109.262 15.4561H105.813C105.839 15.9614 106 16.3338 106.281 16.5798C106.563 16.8258 106.978 16.9455 107.514 16.9455C108.05 16.9455 108.592 16.8258 109.095 16.5864V17.6502L109.101 17.6436ZM107.025 13.1489C106.683 13.1489 106.402 13.2686 106.188 13.5013C105.973 13.734 105.839 14.0532 105.806 14.4588H108.01V14.2992C108.01 13.9202 107.922 13.6343 107.755 13.4415C107.588 13.2487 107.346 13.1489 107.025 13.1489Z" fill="white"/>
<path d="M115.411 9.57178V17.7765L114.232 17.8962L114.145 17.5372C113.884 17.6901 113.609 17.8098 113.315 17.9028C113.02 17.9959 112.759 18.0358 112.518 18.0358C111.801 18.0358 111.245 17.7832 110.843 17.2779C110.441 16.7725 110.24 16.0678 110.24 15.1768C110.24 14.2061 110.481 13.4614 110.957 12.9295C111.433 12.3976 112.102 12.1316 112.973 12.1316C113.288 12.1316 113.609 12.1715 113.944 12.2513V9.71805L115.418 9.57843L115.411 9.57178ZM112.933 16.9122C113.087 16.9122 113.254 16.8856 113.442 16.8324C113.63 16.7792 113.79 16.706 113.938 16.6196V13.2952C113.71 13.242 113.469 13.222 113.214 13.222C112.725 13.222 112.364 13.3816 112.129 13.6941C111.895 14.0066 111.774 14.492 111.774 15.1502C111.774 16.3271 112.163 16.9188 112.933 16.9188V16.9122Z" fill="white"/>
<path d="M117.561 11.4269C117.287 11.4269 117.072 11.3538 116.918 11.2075C116.764 11.0612 116.69 10.8617 116.69 10.6091C116.69 10.3564 116.764 10.1569 116.918 10.0107C117.072 9.8644 117.287 9.79126 117.561 9.79126C117.836 9.79126 118.057 9.8644 118.211 10.0107C118.365 10.1569 118.445 10.3564 118.445 10.6091C118.445 10.8617 118.365 11.0612 118.211 11.2075C118.057 11.3538 117.836 11.4269 117.561 11.4269ZM116.831 17.863V12.4109L118.305 12.2713V17.863H116.831Z" fill="white"/>
<path d="M121.547 13.335V16.1209C121.547 16.6594 121.808 16.932 122.324 16.932C122.511 16.932 122.746 16.8921 123.02 16.8124V17.7964C122.699 17.9427 122.331 18.0158 121.915 18.0158C121.312 18.0158 120.85 17.8629 120.542 17.5504C120.227 17.2379 120.073 16.7858 120.073 16.194V13.335H119.243V12.3576L120.147 12.3243L120.247 10.9281L121.547 10.7885V12.3044H122.987V13.335H121.547Z" fill="white"/>
<path d="M132.064 17.5371C131.407 17.8696 130.697 18.0358 129.92 18.0358C128.848 18.0358 128.025 17.69 127.435 17.0052C126.846 16.3204 126.558 15.343 126.558 14.0664C126.558 12.7898 126.852 11.8456 127.442 11.1475C128.031 10.4494 128.855 10.1036 129.92 10.1036C130.67 10.1036 131.367 10.2699 132.017 10.6023V11.8058C131.668 11.6395 131.36 11.5199 131.086 11.4534C130.818 11.3869 130.516 11.3536 130.188 11.3536C129.538 11.3536 129.049 11.5797 128.721 12.0385C128.393 12.4972 128.225 13.1754 128.225 14.073C128.225 15.8882 128.882 16.7924 130.188 16.7924C130.503 16.7924 130.804 16.7592 131.086 16.686C131.374 16.6129 131.695 16.4999 132.05 16.3403V17.5438L132.064 17.5371Z" fill="white"/>
<path d="M136.652 17.8962L136.564 17.5372C135.995 17.8696 135.426 18.0359 134.863 18.0359C134.3 18.0359 133.818 17.8763 133.47 17.5572C133.122 17.238 132.954 16.8125 132.954 16.2673C132.954 15.7221 133.148 15.2766 133.53 14.9641C133.912 14.6516 134.448 14.4987 135.138 14.4987C135.546 14.4987 135.962 14.5386 136.384 14.6183V14.1862C136.384 13.8537 136.283 13.6077 136.089 13.4548C135.895 13.3019 135.587 13.2221 135.171 13.2221C134.615 13.2221 134.006 13.3484 133.336 13.5878V12.5239C133.651 12.4043 133.992 12.3045 134.374 12.2314C134.749 12.1582 135.111 12.125 135.446 12.125C136.216 12.125 136.806 12.2979 137.221 12.6436C137.629 12.9894 137.837 13.488 137.837 14.1396V17.7699L136.658 17.8896L136.652 17.8962ZM135.312 16.9853C135.473 16.9853 135.647 16.9588 135.841 16.9122C136.035 16.859 136.216 16.7992 136.384 16.7194V15.5359C136.049 15.4561 135.747 15.4162 135.479 15.4162C134.783 15.4162 134.428 15.6822 134.428 16.2207C134.428 16.4734 134.501 16.6662 134.649 16.7925C134.796 16.9255 135.017 16.9853 135.312 16.9853Z" fill="white"/>
<path d="M139.19 17.8631V12.3911L140.369 12.2714L140.489 12.7834C140.945 12.3712 141.454 12.165 142.01 12.165C142.184 12.165 142.365 12.1916 142.559 12.2382V13.4416C142.338 13.3884 142.151 13.3685 141.983 13.3685C141.481 13.3685 141.045 13.5081 140.67 13.7807V17.8698H139.197L139.19 17.8631Z" fill="white"/>
<path d="M148.353 9.57178V17.7765L147.174 17.8962L147.087 17.5372C146.826 17.6901 146.551 17.8098 146.257 17.9028C145.962 17.9959 145.701 18.0358 145.46 18.0358C144.743 18.0358 144.187 17.7832 143.785 17.2779C143.383 16.7725 143.182 16.0678 143.182 15.1768C143.182 14.2061 143.423 13.4614 143.899 12.9295C144.374 12.3976 145.044 12.1316 145.915 12.1316C146.23 12.1316 146.551 12.1715 146.886 12.2513V9.71805L148.36 9.57843L148.353 9.57178ZM145.875 16.9122C146.029 16.9122 146.196 16.8856 146.384 16.8324C146.571 16.7792 146.732 16.706 146.88 16.6196V13.2952C146.652 13.242 146.411 13.222 146.156 13.222C145.667 13.222 145.305 13.3816 145.071 13.6941C144.837 14.0066 144.716 14.492 144.716 15.1502C144.716 16.3271 145.105 16.9188 145.875 16.9188V16.9122Z" fill="white"/>
<path d="M152.634 17.8633V10.4298C153.016 10.3567 153.438 10.2968 153.9 10.2569C154.362 10.217 154.771 10.1904 155.112 10.1904C156.09 10.1904 156.84 10.4032 157.363 10.8287C157.885 11.2543 158.146 11.8593 158.146 12.6505C158.146 13.4417 157.872 14.0401 157.323 14.479C156.773 14.9178 156.016 15.1439 155.059 15.1439H154.161V17.8633H152.634ZM155.059 11.3473C154.724 11.3473 154.422 11.3673 154.161 11.4138V13.9803H155.059C155.548 13.9803 155.923 13.8673 156.184 13.6412C156.445 13.4151 156.579 13.0893 156.579 12.6572C156.579 11.7862 156.07 11.3473 155.059 11.3473Z" fill="white"/>
<path d="M162.426 17.8962L162.339 17.5372C161.77 17.8696 161.201 18.0359 160.638 18.0359C160.075 18.0359 159.593 17.8763 159.245 17.5572C158.896 17.238 158.729 16.8125 158.729 16.2673C158.729 15.7221 158.923 15.2766 159.305 14.9641C159.687 14.6516 160.223 14.4987 160.913 14.4987C161.321 14.4987 161.737 14.5386 162.159 14.6183V14.1862C162.159 13.8537 162.058 13.6077 161.864 13.4548C161.67 13.3019 161.361 13.2221 160.946 13.2221C160.39 13.2221 159.781 13.3484 159.111 13.5878V12.5239C159.426 12.4043 159.767 12.3045 160.149 12.2314C160.524 12.1582 160.886 12.125 161.221 12.125C161.991 12.125 162.58 12.2979 162.996 12.6436C163.404 12.9894 163.612 13.488 163.612 14.1396V17.7699L162.433 17.8896L162.426 17.8962ZM161.087 16.9853C161.248 16.9853 161.422 16.9588 161.616 16.9122C161.81 16.859 161.991 16.7992 162.159 16.7194V15.5359C161.824 15.4561 161.522 15.4162 161.254 15.4162C160.558 15.4162 160.203 15.6822 160.203 16.2207C160.203 16.4734 160.276 16.6662 160.424 16.7925C160.571 16.9255 160.792 16.9853 161.087 16.9853Z" fill="white"/>
<path d="M164.972 17.8631V12.3911L166.151 12.2714L166.271 12.7834C166.727 12.3712 167.236 12.165 167.792 12.165C167.966 12.165 168.147 12.1916 168.341 12.2382V13.4416C168.12 13.3884 167.932 13.3685 167.765 13.3685C167.262 13.3685 166.827 13.5081 166.452 13.7807V17.8698H164.978L164.972 17.8631Z" fill="white"/>
<path d="M171.054 13.335V16.1209C171.054 16.6594 171.315 16.932 171.831 16.932C172.019 16.932 172.253 16.8921 172.528 16.8124V17.7964C172.206 17.9427 171.838 18.0158 171.423 18.0158C170.82 18.0158 170.358 17.8629 170.049 17.5504C169.735 17.2379 169.581 16.7858 169.581 16.194V13.335H168.75V12.3576L169.654 12.3243L169.755 10.9281L171.054 10.7885V12.3044H172.494V13.335H171.054Z" fill="white"/>
<path d="M176.948 17.863V14.2128C176.948 13.887 176.874 13.6476 176.727 13.4947C176.58 13.3418 176.352 13.262 176.037 13.262C175.863 13.262 175.682 13.2886 175.488 13.3418C175.3 13.3949 175.133 13.4681 174.985 13.5545V17.8697H173.512V12.3976L174.691 12.2779L174.778 12.637C175.347 12.3045 175.903 12.1383 176.459 12.1383C177.082 12.1383 177.564 12.3045 177.906 12.6303C178.247 12.9561 178.415 13.4215 178.415 14.0199V17.8697H176.941L176.948 17.863Z" fill="white"/>
<path d="M184.263 17.6436C183.733 17.9029 183.144 18.0359 182.494 18.0359C181.536 18.0359 180.8 17.7832 180.29 17.2779C179.781 16.7726 179.527 16.0346 179.527 15.0638C179.527 14.4721 179.641 13.9534 179.868 13.508C180.096 13.0625 180.411 12.7234 180.813 12.484C181.215 12.2447 181.67 12.125 182.186 12.125C182.916 12.125 183.486 12.3311 183.901 12.75C184.316 13.1689 184.524 13.734 184.524 14.4588C184.524 14.7979 184.49 15.1303 184.423 15.4561H180.974C181 15.9614 181.161 16.3338 181.443 16.5798C181.724 16.8258 182.139 16.9455 182.675 16.9455C183.211 16.9455 183.753 16.8258 184.256 16.5864V17.6502L184.263 17.6436ZM182.186 13.1489C181.844 13.1489 181.563 13.2686 181.349 13.5013C181.134 13.734 181 14.0532 180.967 14.4588H183.171V14.2992C183.171 13.9202 183.084 13.6343 182.916 13.4415C182.749 13.2487 182.508 13.1489 182.186 13.1489Z" fill="white"/>
<path d="M185.669 17.8631V12.3911L186.848 12.2714L186.969 12.7834C187.424 12.3712 187.933 12.165 188.489 12.165C188.664 12.165 188.844 12.1916 189.039 12.2382V13.4416C188.818 13.3884 188.63 13.3685 188.463 13.3685C187.96 13.3685 187.525 13.5081 187.15 13.7807V17.8698H185.676L185.669 17.8631Z" fill="white"/>
<path d="M195.047 18.0358C194.183 18.0358 193.52 17.7832 193.064 17.2845C192.609 16.7858 192.381 16.0478 192.381 15.0771C192.381 14.1063 192.609 13.3882 193.057 12.8829C193.506 12.3843 194.169 12.1316 195.047 12.1316C195.924 12.1316 196.581 12.3843 197.036 12.8829C197.485 13.3882 197.713 14.1196 197.713 15.0771C197.713 16.0345 197.485 16.7792 197.029 17.2845C196.574 17.7898 195.911 18.0358 195.047 18.0358ZM195.047 16.9055C195.449 16.9055 195.737 16.7659 195.911 16.48C196.085 16.1941 196.172 15.7286 196.172 15.0704C196.172 14.4122 196.085 13.9534 195.911 13.6741C195.737 13.3949 195.449 13.2486 195.047 13.2486C194.645 13.2486 194.357 13.3882 194.183 13.6741C194.009 13.96 193.921 14.4188 193.921 15.0704C193.921 15.722 194.009 16.2007 194.183 16.48C194.357 16.7592 194.645 16.9055 195.047 16.9055Z" fill="white"/>
<path d="M199.207 17.8629V13.335H198.376V12.3577L199.207 12.3244V11.4335C199.207 10.8218 199.374 10.3364 199.716 9.984C200.057 9.63161 200.519 9.45874 201.116 9.45874C201.504 9.45874 201.893 9.53188 202.281 9.67815V10.6755C201.953 10.5891 201.692 10.5425 201.497 10.5425C201.236 10.5425 201.035 10.6156 200.895 10.7553C200.754 10.8949 200.68 11.101 200.68 11.3803V12.2978H202.013V13.3284H200.68V17.8563H199.207V17.8629Z" fill="white"/>
<path d="M267.995 28.8896C268.431 28.8896 268.779 29.1954 268.779 29.6143C268.779 30.0332 268.431 30.3457 267.995 30.3457C267.56 30.3457 267.212 30.0332 267.212 29.6143C267.212 29.1954 267.56 28.8896 267.995 28.8896ZM267.995 30.5452C268.558 30.5452 269 30.1329 269 29.6143C269 29.0957 268.558 28.6835 267.995 28.6835C267.433 28.6835 266.991 29.0957 266.991 29.6143C266.991 30.1329 267.433 30.5452 267.995 30.5452ZM268.203 29.7074C268.391 29.6941 268.484 29.601 268.484 29.4215C268.484 29.1688 268.324 29.1289 268.076 29.1289H267.567V30.0997H267.788V29.7141H267.975L268.216 30.0997H268.458L268.203 29.7141V29.7074ZM267.788 29.5345V29.3018H268.029C268.129 29.3018 268.27 29.3018 268.27 29.4082C268.27 29.5146 268.196 29.5345 268.083 29.5345H267.788Z" fill="white"/>
<path d="M214.014 0H261.847C264.419 0 266.515 2.07446 266.515 4.63428V25.8642C266.515 28.4174 264.425 30.4985 261.847 30.4985H214.014C211.442 30.4985 209.346 28.424 209.346 25.8642V4.63428C209.346 2.07446 211.436 0 214.014 0Z" fill="white"/>
<path d="M264.044 2.44685C263.454 1.86175 262.677 1.5426 261.847 1.5426H248.47L256.166 14.2819L256.87 14.3683L257.278 14.9468V15.4986L257.774 15.5851L258.216 16.1968V16.722L258.712 16.8085C258.712 16.8085 259.208 17.3337 259.208 17.3603C259.208 17.3337 259.208 18.5505 259.208 18.5505C259.208 18.5505 260.293 19.5412 261.257 19.9135C261.934 20.1728 262.021 21.2499 262.403 21.835C262.932 22.6462 263.635 22.9986 263.488 23.464C263.139 24.714 261.847 26.8084 260.648 26.9281C260.648 26.9281 257.66 26.9281 255.899 26.9281V28.9427H261.833C263.548 28.9427 264.941 27.5531 264.941 25.851V4.63434C264.941 3.80988 264.62 3.03196 264.03 2.4535L264.044 2.44685Z" fill="#BC0022"/>
<path d="M243.915 1.54266H214.014C213.184 1.54266 212.4 1.86181 211.817 2.44691C211.228 3.03201 210.906 3.80329 210.906 4.62775V25.8577C210.906 26.6821 211.228 27.4601 211.817 28.0385C212.407 28.6236 213.184 28.9428 214.014 28.9428H233.439C232.95 28.1383 232.408 27.2207 232.233 26.9415H229.916C229.916 21.2433 231.872 18.0718 234.189 17.4601C234.511 17.4003 234.364 15.8311 233.955 15.3657C233.955 15.3657 232.843 15.3923 232.609 15.3391C232.314 15.2527 232.522 14.9601 232.522 14.9601L233.607 12.633L233.459 11.9947H229.447C229.387 11.9947 232.756 9.69421 232.756 9.69421C232.93 3.64371 239.173 3.17829 242.951 5.67827C245.181 7.16098 245.355 10.0665 245.181 12.1078C245.154 12.2208 244.598 12.1344 244.598 12.1344C244.598 12.1344 244.217 14.3418 245.215 14.3418H249.609C251.397 14.2819 253.125 15.4721 253.125 15.4721L253.561 13.9562L243.915 1.53601V1.54266ZM217.337 24.5811C216.158 24.5811 215.2 23.6303 215.2 22.4601C215.2 21.2899 216.158 20.3391 217.337 20.3391C218.515 20.3391 219.473 21.2899 219.473 22.4601C219.473 23.6303 218.522 24.5811 217.337 24.5811Z" fill="#041E42"/>
<path d="M9.57786 28.6143L10.3311 30.5268L11.0909 28.6143H11.6476L11.8899 31.4569H11.3856L11.235 29.4133L10.5407 31.1818H10.1149L9.40757 29.3806L9.25692 31.4569H8.75914L9.00148 28.6143H9.57786ZM7.1086 31.4569V29.0465H6.26368V28.6143H8.4906V29.0465H7.64568V31.4569H7.1086ZM12.439 33.1991L14.0895 28.2802H14.7117L13.0612 33.1991H12.439ZM17.5388 33.2973C17.0847 33.2973 16.6742 33.1882 16.3074 32.9699C15.945 32.7472 15.6634 32.4546 15.4625 32.0922C15.2617 31.7298 15.1612 31.3346 15.1612 30.9067C15.1612 30.4482 15.2704 30.0356 15.4887 29.6688C15.7114 29.302 16.0018 29.0182 16.3598 28.8173C16.7223 28.6164 17.1152 28.516 17.5388 28.516C17.9929 28.516 18.4012 28.6274 18.7636 28.8501C19.1304 29.0684 19.4142 29.3588 19.6151 29.7212C19.8159 30.0836 19.9164 30.4788 19.9164 30.9067C19.9164 31.3652 19.805 31.7778 19.5823 32.1446C19.364 32.5114 19.0736 32.7952 18.7112 32.9961C18.3531 33.1969 17.9623 33.2973 17.5388 33.2973ZM17.5388 32.924C17.923 32.924 18.2636 32.8345 18.5606 32.6555C18.8618 32.4721 19.0933 32.2275 19.2548 31.9219C19.4208 31.6162 19.5037 31.2778 19.5037 30.9067C19.5037 30.5093 19.4142 30.1578 19.2352 29.8522C19.0605 29.5421 18.8247 29.3042 18.5278 29.1382C18.2309 28.9723 17.9012 28.8894 17.5388 28.8894C17.1545 28.8894 16.8118 28.9811 16.5105 29.1644C16.2136 29.3435 15.9821 29.5858 15.8162 29.8915C15.6546 30.1971 15.5739 30.5355 15.5739 30.9067C15.5739 31.304 15.6612 31.6577 15.8358 31.9677C16.0149 32.2734 16.2529 32.5092 16.5498 32.6751C16.8467 32.841 17.1764 32.924 17.5388 32.924ZM18.3837 32.1773C18.1566 32.2996 17.9012 32.3607 17.6174 32.3607C17.2113 32.3607 16.8925 32.2319 16.6611 31.9743C16.4297 31.7167 16.314 31.3608 16.314 30.9067C16.314 30.4526 16.4297 30.0967 16.6611 29.8391C16.8969 29.5814 17.2157 29.4526 17.6174 29.4526C17.8925 29.4526 18.1435 29.5138 18.3706 29.636V30.0487C18.2571 29.9875 18.1479 29.9439 18.0431 29.9177C17.9427 29.8871 17.8313 29.8718 17.7091 29.8718C17.4515 29.8718 17.2484 29.9657 17.1 30.1535C16.9559 30.3369 16.8838 30.5879 16.8838 30.9067C16.8838 31.2298 16.9559 31.4831 17.1 31.6665C17.2484 31.8498 17.4515 31.9415 17.7091 31.9415C17.923 31.9415 18.1479 31.8826 18.3837 31.7647V32.1773ZM22.1385 33.1991C22.1472 32.8061 22.2258 32.4655 22.3743 32.1773C22.5271 31.8891 22.7826 31.5944 23.1406 31.2931L23.6908 30.8281C23.9135 30.6403 24.0729 30.4722 24.1689 30.3238C24.265 30.1753 24.313 30.0225 24.313 29.8653C24.313 29.6338 24.2279 29.4504 24.0576 29.3151C23.8917 29.1797 23.6646 29.112 23.3764 29.112C23.0009 29.112 22.6341 29.243 22.2761 29.505V29.0007C22.6297 28.7431 23.0467 28.6143 23.5271 28.6143C23.8109 28.6143 24.0598 28.6688 24.2737 28.778C24.4921 28.8828 24.6602 29.0291 24.7781 29.2168C24.896 29.4002 24.9549 29.6055 24.9549 29.8325C24.9549 30.0596 24.8938 30.2735 24.7715 30.4744C24.6536 30.6709 24.4506 30.8914 24.1624 31.1359L23.6384 31.5813C23.3939 31.7909 23.2083 31.983 23.0817 32.1577C22.955 32.3323 22.8743 32.507 22.8393 32.6817H24.3589C24.6121 32.6817 24.8305 32.6751 25.0139 32.662V33.1991H22.1385ZM27.385 32.8127C27.7256 32.8127 27.9745 32.6642 28.1317 32.3673C28.2889 32.066 28.3675 31.5944 28.3675 30.9525C28.3675 30.3107 28.2867 29.8413 28.1251 29.5443C27.968 29.2474 27.7212 29.0989 27.385 29.0989C27.0488 29.0989 26.7999 29.2474 26.6384 29.5443C26.4812 29.8413 26.4026 30.3107 26.4026 30.9525C26.4026 31.5944 26.4812 32.066 26.6384 32.3673C26.7955 32.6642 27.0444 32.8127 27.385 32.8127ZM27.385 33.2973C26.3021 33.2973 25.7607 32.5157 25.7607 30.9525C25.7607 30.1797 25.896 29.5967 26.1668 29.2037C26.4375 28.8108 26.8436 28.6143 27.385 28.6143C27.9265 28.6143 28.3326 28.8108 28.6033 29.2037C28.874 29.5967 29.0094 30.1797 29.0094 30.9525C29.0094 32.5157 28.4679 33.2973 27.385 33.2973ZM29.6538 33.1991C29.6626 32.8061 29.7412 32.4655 29.8896 32.1773C30.0425 31.8891 30.2979 31.5944 30.656 31.2931L31.2061 30.8281C31.4288 30.6403 31.5882 30.4722 31.6843 30.3238C31.7803 30.1753 31.8284 30.0225 31.8284 29.8653C31.8284 29.6338 31.7432 29.4504 31.5729 29.3151C31.407 29.1797 31.1799 29.112 30.8918 29.112C30.5162 29.112 30.1494 29.243 29.7914 29.505V29.0007C30.1451 28.7431 30.5621 28.6143 31.0424 28.6143C31.3262 28.6143 31.5751 28.6688 31.7891 28.778C32.0074 28.8828 32.1755 29.0291 32.2934 29.2168C32.4113 29.4002 32.4702 29.6055 32.4702 29.8325C32.4702 30.0596 32.4091 30.2735 32.2869 30.4744C32.169 30.6709 31.9659 30.8914 31.6777 31.1359L31.1537 31.5813C30.9092 31.7909 30.7236 31.983 30.597 32.1577C30.4704 32.3323 30.3896 32.507 30.3547 32.6817H31.8742C32.1275 32.6817 32.3458 32.6751 32.5292 32.662V33.1991H29.6538ZM36.0531 29.1251C35.599 29.147 35.2104 29.2321 34.8873 29.3806C34.5641 29.5247 34.3109 29.7277 34.1275 29.9897C33.9485 30.2473 33.8437 30.5574 33.8131 30.9198C33.9397 30.7626 34.1078 30.6381 34.3174 30.5464C34.527 30.4547 34.7454 30.4089 34.9724 30.4089C35.2388 30.4089 35.4767 30.4744 35.6863 30.6054C35.8959 30.732 36.0575 30.9045 36.171 31.1228C36.2845 31.3368 36.3413 31.5726 36.3413 31.8302C36.3413 32.1271 36.2736 32.3869 36.1383 32.6096C36.0073 32.8279 35.8261 32.9982 35.5946 33.1205C35.3632 33.2384 35.1012 33.2973 34.8087 33.2973C34.4681 33.2973 34.1755 33.2187 33.931 33.0616C33.6908 32.9 33.5074 32.6707 33.3808 32.3738C33.2586 32.0769 33.1974 31.7276 33.1974 31.3259C33.1974 30.7757 33.3088 30.3019 33.5315 29.9046C33.7542 29.5028 34.0729 29.1928 34.4877 28.9745C34.9025 28.7562 35.396 28.6361 35.968 28.6143L36.0531 29.1251ZM34.8611 30.887C34.6602 30.887 34.4637 30.9416 34.2716 31.0508C34.0795 31.1599 33.9244 31.3062 33.8066 31.4896C33.824 31.9175 33.9179 32.245 34.0882 32.4721C34.2629 32.6991 34.503 32.8127 34.8087 32.8127C35.0838 32.8127 35.3043 32.7253 35.4702 32.5507C35.6361 32.3716 35.7191 32.138 35.7191 31.8498C35.7191 31.5617 35.6405 31.3302 35.4833 31.1556C35.3261 30.9765 35.1187 30.887 34.8611 30.887ZM41.0476 32.7996L39.7704 29.5116L39.5215 33.1991H38.9189L39.2792 28.6143H39.9931L41.3096 32.007L42.6261 28.6143H43.34L43.7003 33.1991H43.0911L42.8357 29.5116L41.5651 32.7996H41.0476ZM44.8547 33.1991V28.6143H45.49V32.6751H47.5991V33.1991H44.8547ZM48.4013 33.1991V28.7125C48.6327 28.6688 48.8773 28.6339 49.1349 28.6077C49.3925 28.5815 49.6174 28.5684 49.8095 28.5684C50.3204 28.5684 50.7112 28.671 50.9819 28.8763C51.257 29.0771 51.3946 29.3675 51.3946 29.7474C51.3946 30.0006 51.3247 30.2168 51.185 30.3958C51.0496 30.5748 50.8487 30.7102 50.5824 30.8019C50.9055 30.8717 51.1544 31.0071 51.3291 31.208C51.5081 31.4045 51.5976 31.6534 51.5976 31.9546C51.5976 32.3564 51.4579 32.6642 51.1784 32.8782C50.899 33.0921 50.4994 33.1991 49.9798 33.1991H48.4013ZM49.9602 32.7144C50.2833 32.7144 50.5278 32.6467 50.6937 32.5114C50.864 32.3716 50.9492 32.1686 50.9492 31.9022C50.9492 31.6403 50.8597 31.4394 50.6806 31.2997C50.506 31.1556 50.2593 31.0835 49.9405 31.0835H49.017V32.7144H49.9602ZM49.7637 29.0531C49.5584 29.0531 49.3095 29.0749 49.017 29.1186V30.6119H49.8816C50.1566 30.6119 50.3728 30.5421 50.53 30.4023C50.6915 30.2583 50.7723 30.0661 50.7723 29.826C50.7723 29.3107 50.4361 29.0531 49.7637 29.0531ZM52.7191 33.2318C52.6012 33.2318 52.5052 33.1947 52.4309 33.1205C52.3567 33.0463 52.3196 32.9502 52.3196 32.8323C52.3196 32.7144 52.3567 32.6184 52.4309 32.5441C52.5052 32.4699 52.6012 32.4328 52.7191 32.4328C52.837 32.4328 52.9331 32.4699 53.0073 32.5441C53.0816 32.6184 53.1187 32.7144 53.1187 32.8323C53.1187 32.9502 53.0816 33.0463 53.0073 33.1205C52.9331 33.1947 52.837 33.2318 52.7191 33.2318Z" fill="white"/>
</svg>
