<svg width="585" height="25" viewBox="0 0 585 25" fill="none" xmlns="http://www.w3.org/2000/svg">
<path d="M576.371 23.1313C577.215 22.8636 577.699 22.4518 577.823 21.896C577.967 21.3401 577.74 20.5989 577.143 19.6724L573.499 13.8973L569.701 19.6724C568.486 21.5048 568.64 22.6577 570.164 23.1313V23.6254H564.142V23.1313C565.562 22.6783 566.808 21.6798 567.878 20.1356L572.82 12.8164L568.033 5.25009C567.559 4.48831 567.065 3.88095 566.55 3.428C566.056 2.97505 565.439 2.66622 564.697 2.50151V2.00739H572.851V2.50151C571.821 2.72799 571.265 3.11917 571.183 3.67506C571.121 4.21036 571.409 4.97214 572.048 5.96039L575.167 10.8708L578.409 5.96039C579.13 4.88979 579.449 4.07654 579.367 3.52065C579.305 2.96476 578.729 2.62504 577.637 2.50151V2.00739H583.999V2.50151C583.505 2.60446 583.073 2.74857 582.702 2.93387C582.332 3.11917 581.961 3.40741 581.59 3.79859C581.22 4.18978 580.777 4.75596 580.262 5.49715L575.846 11.9517L581.22 20.3827C581.693 21.1445 582.177 21.7312 582.671 22.143C583.186 22.5342 583.814 22.8636 584.555 23.1313V23.6254H576.371V23.1313Z" fill="white"/>
<path d="M540.719 16.0282C540.719 14.3605 541.028 12.909 541.645 11.6737C542.263 10.4178 543.128 9.43986 544.239 8.73985C545.351 8.03984 546.638 7.68983 548.1 7.68983C549.994 7.68983 551.507 8.30749 552.64 9.54281C553.772 10.7575 554.441 12.5076 554.647 14.7929H543.498C543.498 17.037 544.023 18.7871 545.073 20.043C546.123 21.2783 547.595 21.896 549.49 21.896C551.342 21.896 552.763 21.2371 553.751 19.9194L554.245 20.1974C553.072 22.8121 551.023 24.1195 548.1 24.1195C546.617 24.1195 545.32 23.7901 544.209 23.1313C543.097 22.4518 542.232 21.5048 541.614 20.29C541.017 19.0753 540.719 17.6547 540.719 16.0282ZM551.466 13.6811C551.363 12.1576 550.962 10.9634 550.262 10.0987C549.582 9.23398 548.676 8.80162 547.544 8.80162C546.412 8.80162 545.495 9.23398 544.795 10.0987C544.095 10.9634 543.684 12.1576 543.56 13.6811H551.466Z" fill="white"/>
<path d="M526.724 23.1313C527.568 22.9048 528.155 22.5445 528.484 22.0504C528.835 21.5357 529.009 20.7636 529.009 19.7342V12.6311C529.009 11.5811 528.835 10.7987 528.484 10.284C528.155 9.76928 527.568 9.40898 526.724 9.2031V8.70897L531.202 7.99866C531.387 8.34867 531.521 8.66779 531.604 8.95603C531.686 9.24427 531.737 9.59428 531.758 10.0061C532.232 9.28545 532.808 8.71926 533.487 8.30749C534.187 7.89572 534.949 7.68983 535.773 7.68983C536.926 7.68983 537.945 8.06043 538.83 8.80162L539.016 13.0943L538.491 13.2179C537.852 11.7561 537.245 10.7164 536.668 10.0987C536.092 9.48104 535.443 9.17221 534.723 9.17221C533.838 9.17221 533.148 9.58398 532.654 10.4075C532.16 11.2311 531.912 12.3943 531.912 13.8973V19.7342C531.912 20.8459 532.118 21.6386 532.53 22.1121C532.942 22.5857 533.704 22.9048 534.815 23.0695V23.6254H526.724V23.1313Z" fill="white"/>
<path d="M509.365 18.2518V12.7546C509.365 11.6634 509.19 10.8605 508.84 10.3458C508.511 9.83104 507.924 9.47074 507.08 9.26486V8.77073L512.052 7.99866L512.391 8.33837C512.309 8.91485 512.268 9.5531 512.268 10.2531V18.4371C512.268 19.8371 512.566 20.9283 513.164 21.7107C513.761 22.493 514.594 22.8842 515.665 22.8842C516.406 22.8842 517.096 22.6989 517.734 22.3283C518.372 21.9577 518.877 21.4224 519.247 20.7224C519.639 20.0224 519.834 19.1885 519.834 18.2209V11.4267C519.834 10.6855 519.711 10.1605 519.464 9.85163C519.237 9.5428 518.712 9.31633 517.889 9.17221V8.70896L522.583 7.99866L522.861 8.2766C522.778 8.95603 522.737 9.64574 522.737 10.3458V19.7033C522.737 20.7533 522.902 21.5356 523.231 22.0504C523.581 22.5445 524.178 22.9048 525.023 23.1313V23.6254L520.545 23.9342C520.195 23.2754 520.009 22.6165 519.989 21.9577C518.692 23.3989 517.024 24.1195 514.986 24.1195C513.174 24.1195 511.784 23.6151 510.816 22.6063C509.849 21.5768 509.365 20.1253 509.365 18.2518Z" fill="white"/>
<path d="M494.655 8.18396H496.94V5.09567L499.627 4.66331L499.967 5.00303C499.884 5.57951 499.843 6.21775 499.843 6.91776V8.18396H504.753V9.29574H499.843V19.4562C499.843 21.3298 500.625 22.2665 502.19 22.2665C503.117 22.2665 503.909 21.8342 504.568 20.9695L505.062 21.2474C504.239 23.1622 502.87 24.1195 500.955 24.1195C498.278 24.1195 496.94 22.5445 496.94 19.3944V9.29574H494.655V8.18396Z" fill="white"/>
<path d="M475.212 23.1313C476.057 22.9048 476.643 22.5445 476.973 22.0504C477.323 21.5357 477.498 20.7533 477.498 19.7033V12.6929C477.498 11.6017 477.323 10.7987 476.973 10.284C476.643 9.76928 476.057 9.40898 475.212 9.2031V8.70897L479.69 7.99866C479.999 8.57514 480.174 9.12074 480.215 9.63546C481.533 8.33838 483.211 7.68983 485.249 7.68983C487.143 7.68983 488.595 8.19425 489.604 9.2031C490.613 10.2119 491.117 11.6634 491.117 13.5576V19.7033C491.117 20.7533 491.282 21.5357 491.611 22.0504C491.961 22.5445 492.558 22.9048 493.402 23.1313V23.6254H485.929V23.1313C486.773 22.9048 487.36 22.5445 487.689 22.0504C488.039 21.5357 488.214 20.7533 488.214 19.7033V13.3723C488.214 11.9723 487.895 10.8811 487.257 10.0987C486.618 9.31633 485.723 8.92515 484.57 8.92515C483.293 8.92515 482.274 9.38839 481.513 10.3149C480.771 11.2208 480.401 12.4458 480.401 13.9899V19.7033C480.401 20.7533 480.565 21.5357 480.895 22.0504C481.245 22.5445 481.842 22.9048 482.686 23.1313V23.6254H475.212V23.1313Z" fill="white"/>
<path d="M459.078 16.0282C459.078 14.3605 459.387 12.909 460.005 11.6737C460.622 10.4178 461.487 9.43986 462.599 8.73985C463.711 8.03984 464.997 7.68983 466.459 7.68983C468.353 7.68983 469.867 8.30749 470.999 9.54281C472.131 10.7575 472.8 12.5076 473.006 14.7929H461.858C461.858 17.037 462.383 18.7871 463.433 20.043C464.483 21.2783 465.955 21.896 467.849 21.896C469.702 21.896 471.122 21.2371 472.111 19.9194L472.605 20.1974C471.431 22.8121 469.383 24.1195 466.459 24.1195C464.977 24.1195 463.68 23.7901 462.568 23.1313C461.456 22.4518 460.591 21.5048 459.974 20.29C459.377 19.0753 459.078 17.6547 459.078 16.0282ZM469.825 13.6811C469.722 12.1576 469.321 10.9634 468.621 10.0987C467.942 9.23398 467.036 8.80162 465.903 8.80162C464.771 8.80162 463.855 9.23398 463.155 10.0987C462.455 10.9634 462.043 12.1576 461.919 13.6811H469.825Z" fill="white"/>
<path d="M438.77 2.00739H446.923V2.50151C445.894 2.72799 445.255 3.13976 445.008 3.73683C444.782 4.3339 444.844 5.07508 445.194 5.96039L450.567 19.0547L455.91 5.99128C456.281 5.08538 456.291 4.31331 455.941 3.67506C455.591 3.01623 454.87 2.62504 453.779 2.50151V2.00739H460.141V2.50151C459.379 2.66622 458.823 3.01623 458.473 3.55153C458.123 4.08683 457.722 4.90008 457.269 5.99128L449.733 23.9342H449.178L441.642 5.99128C441.189 4.90008 440.777 4.08683 440.407 3.55153C440.057 3.01623 439.511 2.66622 438.77 2.50151V2.00739Z" fill="white"/>
<path d="M411.604 23.1313C412.448 22.9048 413.034 22.5342 413.364 22.0195C413.714 21.5048 413.889 20.7121 413.889 19.6415V4.75596C413.889 3.66477 413.714 2.86181 413.364 2.3471C413.034 1.83238 412.448 1.47208 411.604 1.2662V0.772072L416.576 0L416.915 0.339713C416.833 0.916193 416.792 1.54414 416.792 2.22357V9.45016C418.068 8.27661 419.685 7.68983 421.64 7.68983C423.535 7.68983 424.986 8.19425 425.995 9.20309C427.004 10.2119 427.508 11.6634 427.508 13.5576V19.7033C427.508 20.7533 427.673 21.5357 428.002 22.0504C428.352 22.5445 428.949 22.9048 429.794 23.1313V23.6254H422.32V23.1313C423.164 22.9048 423.751 22.5445 424.08 22.0504C424.43 21.5357 424.605 20.7533 424.605 19.7033V13.3723C424.605 11.9723 424.286 10.8811 423.648 10.0987C423.01 9.31633 422.114 8.92515 420.961 8.92515C419.685 8.92515 418.665 9.38839 417.904 10.3149C417.162 11.2208 416.792 12.4458 416.792 13.9899V19.7959C416.792 20.8253 416.957 21.5871 417.286 22.0812C417.636 22.5754 418.233 22.9254 419.077 23.1313V23.6254H411.604V23.1313Z" fill="white"/>
<path d="M398.87 8.18396H401.155V5.09567L403.842 4.66331L404.181 5.00303C404.099 5.57951 404.058 6.21775 404.058 6.91776V8.18396H408.968V9.29574H404.058V19.4562C404.058 21.3298 404.84 22.2665 406.405 22.2665C407.332 22.2665 408.124 21.8342 408.783 20.9695L409.277 21.2474C408.454 23.1622 407.084 24.1195 405.17 24.1195C402.493 24.1195 401.155 22.5445 401.155 19.3944V9.29574H398.87V8.18396Z" fill="white"/>
<path d="M390.134 23.1313C390.978 22.9048 391.565 22.5445 391.894 22.0504C392.244 21.5357 392.419 20.7533 392.419 19.7033V12.6929C392.419 11.6017 392.244 10.7987 391.894 10.284C391.565 9.76928 390.978 9.40898 390.134 9.20309V8.70897L395.106 7.99866L395.446 8.33837C395.404 8.66779 395.374 8.98691 395.353 9.29574C395.332 9.58398 395.322 9.9031 395.322 10.2531V19.7033C395.322 20.7533 395.487 21.5357 395.816 22.0504C396.166 22.5445 396.763 22.9048 397.607 23.1313V23.6254H390.134V23.1313ZM391.647 2.96475C391.647 2.36768 391.832 1.88385 392.203 1.51326C392.594 1.14266 393.078 0.957367 393.654 0.957367C394.251 0.957367 394.735 1.14266 395.106 1.51326C395.477 1.88385 395.662 2.36768 395.662 2.96475C395.662 3.54123 395.477 4.02506 395.106 4.41625C394.735 4.78684 394.251 4.97214 393.654 4.97214C393.078 4.97214 392.594 4.78684 392.203 4.41625C391.832 4.02506 391.647 3.54123 391.647 2.96475Z" fill="white"/>
<path d="M361.345 8.18396H369.004V8.67808C368.16 8.76044 367.614 9.07956 367.367 9.63546C367.12 10.1913 367.192 10.9325 367.584 11.859L371.012 19.7033L374.409 11.9517L373.853 10.7164C373.585 10.1193 373.276 9.67663 372.926 9.38839C372.597 9.10015 372.082 8.86338 371.382 8.67808V8.18396H379.041V8.67808C378.197 8.76044 377.651 9.07956 377.404 9.63546C377.157 10.1913 377.229 10.9325 377.62 11.859L381.048 19.7033L384.476 11.859C384.888 10.9325 384.96 10.1913 384.693 9.63546C384.446 9.07956 383.9 8.76044 383.056 8.67808V8.18396H388.677V8.67808C387.977 8.86338 387.462 9.10015 387.132 9.38839C386.803 9.67663 386.494 10.1193 386.206 10.7164L380.307 23.9342H379.751L375.026 13.3105L370.27 23.9342H369.714L363.816 10.7164C363.548 10.1193 363.239 9.67663 362.889 9.38839C362.56 9.10015 362.045 8.86338 361.345 8.67808V8.18396Z" fill="white"/>
<path d="M349.128 20.5062C349.128 19.7444 348.839 19.1062 348.263 18.5915C347.686 18.0768 346.698 17.5415 345.298 16.9856C343.425 16.2238 342.097 15.462 341.314 14.7002C340.532 13.9179 340.141 13.0223 340.141 12.0134C340.141 10.6958 340.655 9.64575 341.685 8.86339C342.735 8.08102 344.135 7.68983 345.885 7.68983C346.729 7.68983 347.604 7.79278 348.51 7.99866C349.416 8.18396 350.26 8.45161 351.042 8.80162L351.536 12.909L351.012 13.0635C350.311 11.684 349.488 10.634 348.541 9.9134C347.594 9.17221 346.585 8.80162 345.514 8.80162C344.691 8.80162 344.042 9.0075 343.569 9.41928C343.116 9.81046 342.889 10.3355 342.889 10.9943C342.889 11.6737 343.178 12.2605 343.754 12.7546C344.331 13.2282 345.339 13.7532 346.781 14.3297C348.675 15.0914 349.992 15.8326 350.734 16.5532C351.495 17.2738 351.876 18.1591 351.876 19.2091C351.876 20.1562 351.619 21.0004 351.104 21.7415C350.61 22.4827 349.91 23.0695 349.004 23.5019C348.119 23.9136 347.079 24.1195 345.885 24.1195C345.061 24.1195 344.186 24.0063 343.26 23.7798C342.333 23.5739 341.407 23.2651 340.48 22.8533L339.986 18.7459L340.511 18.5915C341.211 19.9915 342.066 21.0827 343.075 21.8651C344.104 22.6268 345.185 23.0077 346.317 23.0077C347.203 23.0077 347.892 22.7813 348.386 22.3283C348.881 21.8754 349.128 21.268 349.128 20.5062Z" fill="white"/>
<path d="M323.543 16.0282C323.543 14.3605 323.852 12.909 324.47 11.6737C325.088 10.4178 325.952 9.43986 327.064 8.73985C328.176 8.03984 329.463 7.68983 330.924 7.68983C332.819 7.68983 334.332 8.30749 335.464 9.54281C336.597 10.7575 337.266 12.5076 337.472 14.7929H326.323C326.323 17.037 326.848 18.7871 327.898 20.043C328.948 21.2783 330.42 21.896 332.314 21.896C334.167 21.896 335.588 21.2371 336.576 19.9194L337.07 20.1974C335.897 22.8121 333.848 24.1195 330.924 24.1195C329.442 24.1195 328.145 23.7901 327.033 23.1313C325.921 22.4518 325.057 21.5048 324.439 20.29C323.842 19.0753 323.543 17.6547 323.543 16.0282ZM334.291 13.6811C334.188 12.1576 333.786 10.9634 333.086 10.0987C332.407 9.23398 331.501 8.80162 330.369 8.80162C329.236 8.80162 328.32 9.23398 327.62 10.0987C326.92 10.9634 326.508 12.1576 326.385 13.6811H334.291Z" fill="white"/>
<path d="M314.34 23.1313C315.184 22.9048 315.771 22.5445 316.101 22.0504C316.451 21.5357 316.626 20.7636 316.626 19.7342V4.75596C316.626 3.66477 316.451 2.86181 316.101 2.3471C315.771 1.83238 315.184 1.47208 314.34 1.2662V0.772072L319.312 0L319.652 0.339713C319.57 0.916193 319.529 1.56473 319.529 2.28533V19.7342C319.529 20.7636 319.693 21.5357 320.023 22.0504C320.373 22.5445 320.97 22.9048 321.814 23.1313V23.6254H314.34V23.1313Z" fill="white"/>
<path d="M305.327 23.1313C306.171 22.9048 306.758 22.5445 307.087 22.0504C307.437 21.5357 307.612 20.7533 307.612 19.7033V12.6929C307.612 11.6017 307.437 10.7987 307.087 10.284C306.758 9.76928 306.171 9.40898 305.327 9.20309V8.70897L310.299 7.99866L310.639 8.33837C310.597 8.66779 310.566 8.98691 310.546 9.29574C310.525 9.58398 310.515 9.9031 310.515 10.2531V19.7033C310.515 20.7533 310.68 21.5357 311.009 22.0504C311.359 22.5445 311.956 22.9048 312.8 23.1313V23.6254H305.327V23.1313ZM306.84 2.96475C306.84 2.36768 307.025 1.88385 307.396 1.51326C307.787 1.14266 308.271 0.957367 308.847 0.957367C309.444 0.957367 309.928 1.14266 310.299 1.51326C310.669 1.88385 310.855 2.36768 310.855 2.96475C310.855 3.54123 310.669 4.02506 310.299 4.41625C309.928 4.78684 309.444 4.97214 308.847 4.97214C308.271 4.97214 307.787 4.78684 307.396 4.41625C307.025 4.02506 306.84 3.54123 306.84 2.96475Z" fill="white"/>
<path d="M275.529 23.1313C276.373 22.9048 276.96 22.5445 277.29 22.0504C277.64 21.5357 277.815 20.7533 277.815 19.7033V12.6929C277.815 11.6017 277.64 10.7987 277.29 10.284C276.96 9.76928 276.373 9.40898 275.529 9.2031V8.70897L280.007 7.99866C280.296 8.55455 280.471 9.07956 280.532 9.57369C281.788 8.31779 283.374 7.68983 285.288 7.68983C287.697 7.68983 289.344 8.57514 290.23 10.3458C291.63 8.57514 293.452 7.68983 295.696 7.68983C297.508 7.68983 298.897 8.19425 299.865 9.2031C300.853 10.2119 301.347 11.6634 301.347 13.5576V19.7033C301.347 20.7533 301.512 21.5357 301.841 22.0504C302.191 22.5445 302.789 22.9048 303.633 23.1313V23.6254H296.159V23.1313C297.003 22.9048 297.59 22.5445 297.919 22.0504C298.269 21.5357 298.444 20.7533 298.444 19.7033V13.3723C298.444 11.9723 298.136 10.8811 297.518 10.0987C296.9 9.31633 296.046 8.92515 294.955 8.92515C293.76 8.92515 292.803 9.38839 292.083 10.3149C291.383 11.2208 291.033 12.4458 291.033 13.9899V19.7033C291.033 20.7533 291.197 21.5357 291.527 22.0504C291.877 22.5445 292.474 22.9048 293.318 23.1313V23.6254H285.844V23.1313C286.688 22.9048 287.275 22.5445 287.604 22.0504C287.954 21.5357 288.13 20.7533 288.13 19.7033V13.3723C288.13 11.9723 287.821 10.8811 287.203 10.0987C286.585 9.31633 285.731 8.92515 284.64 8.92515C283.446 8.92515 282.488 9.38839 281.768 10.3149C281.068 11.2208 280.718 12.4458 280.718 13.9899V19.7033C280.718 20.7533 280.882 21.5357 281.212 22.0504C281.562 22.5445 282.159 22.9048 283.003 23.1313V23.6254H275.529V23.1313Z" fill="white"/>
<path d="M257.891 23.1313C258.735 22.8636 259.219 22.4518 259.343 21.896C259.487 21.3401 259.26 20.5989 258.663 19.6724L255.019 13.8973L251.221 19.6724C250.006 21.5048 250.16 22.6577 251.684 23.1313V23.6254H245.662V23.1313C247.082 22.6783 248.328 21.6798 249.398 20.1356L254.34 12.8164L249.553 5.25009C249.079 4.48831 248.585 3.88095 248.07 3.428C247.576 2.97505 246.959 2.66622 246.218 2.50151V2.00739H254.371V2.50151C253.341 2.72799 252.785 3.11917 252.703 3.67506C252.641 4.21036 252.929 4.97214 253.568 5.96039L256.687 10.8708L259.93 5.96039C260.65 4.88979 260.969 4.07654 260.887 3.52065C260.825 2.96476 260.249 2.62504 259.157 2.50151V2.00739H265.519V2.50151C265.025 2.60446 264.593 2.74857 264.222 2.93387C263.852 3.11917 263.481 3.40741 263.11 3.79859C262.74 4.18978 262.297 4.75596 261.782 5.49715L257.366 11.9517L262.74 20.3827C263.213 21.1445 263.697 21.7312 264.191 22.143C264.706 22.5342 265.334 22.8636 266.075 23.1313V23.6254H257.891V23.1313Z" fill="white"/>
<path d="M239.274 6.70158C239.274 5.46627 238.955 4.55008 238.317 3.95301C237.699 3.35594 236.969 3.0574 236.124 3.0574C234.869 3.0574 233.818 3.51035 232.974 4.41625C232.13 5.32215 231.358 6.76335 230.658 8.73985L230.102 8.6472L230.72 3.18093C231.873 2.74857 232.913 2.45004 233.839 2.28533C234.766 2.10003 235.641 2.00739 236.464 2.00739C238.358 2.00739 239.851 2.42945 240.942 3.27358C242.054 4.09713 242.61 5.29126 242.61 6.856C242.61 7.63836 242.352 8.52367 241.838 9.51192C241.323 10.4796 240.448 11.684 239.213 13.1252C237.998 14.5458 236.341 16.3267 234.241 18.468L231.863 20.9077H239.892C240.798 20.9077 241.488 20.6812 241.961 20.2283C242.455 19.7753 242.929 18.9518 243.382 17.7576L243.938 17.8503L243.258 23.6254H228.898L228.682 23.1313L233.252 17.5724C234.385 16.1929 235.332 14.9885 236.094 13.9591C236.876 12.9296 237.494 12.0134 237.947 11.2105C238.42 10.4075 238.76 9.64575 238.966 8.92515C239.172 8.20455 239.274 7.46336 239.274 6.70158Z" fill="white"/>
<path d="M202.636 16.3062C202.636 14.6179 202.955 13.1252 203.593 11.8281C204.231 10.5311 205.117 9.52222 206.249 8.80162C207.381 8.06043 208.678 7.68983 210.14 7.68983C211.787 7.68983 213.249 8.12219 214.526 8.98691V4.72508C214.526 3.63388 214.351 2.83093 214.001 2.31621C213.671 1.78091 213.084 1.41032 212.24 1.20443V0.710306L217.212 0L217.552 0.339713C217.47 0.916193 217.429 1.55444 217.429 2.25445V19.7033C217.429 20.7533 217.593 21.5357 217.923 22.0504C218.273 22.5445 218.87 22.9048 219.714 23.1313V23.6254L215.236 23.9342C214.927 23.3372 214.752 22.7504 214.711 22.1739C213.393 23.471 211.756 24.1195 209.801 24.1195C207.618 24.1195 205.878 23.4195 204.581 22.0195C203.284 20.6195 202.636 18.715 202.636 16.3062ZM205.662 15.3488C205.662 16.8518 205.858 18.1694 206.249 19.3018C206.661 20.4342 207.227 21.3195 207.948 21.9577C208.689 22.5754 209.533 22.8842 210.48 22.8842C211.654 22.8842 212.621 22.4313 213.383 21.5254C214.145 20.5989 214.526 19.4253 214.526 18.0047V13.6502C214.526 12.7443 214.32 11.9311 213.908 11.2105C213.517 10.4693 212.982 9.88252 212.302 9.45016C211.623 9.0178 210.861 8.80162 210.017 8.80162C208.658 8.80162 207.587 9.3781 206.805 10.5311C206.043 11.684 205.662 13.2899 205.662 15.3488Z" fill="white"/>
<path d="M186.471 16.0282C186.471 14.3605 186.78 12.909 187.397 11.6737C188.015 10.4178 188.88 9.43986 189.991 8.73985C191.103 8.03984 192.39 7.68983 193.852 7.68983C195.746 7.68983 197.259 8.30749 198.391 9.54281C199.524 10.7575 200.193 12.5076 200.399 14.7929H189.25C189.25 17.037 189.775 18.7871 190.825 20.043C191.875 21.2783 193.347 21.896 195.241 21.896C197.094 21.896 198.515 21.2371 199.503 19.9194L199.997 20.1974C198.824 22.8121 196.775 24.1195 193.852 24.1195C192.369 24.1195 191.072 23.7901 189.96 23.1313C188.849 22.4518 187.984 21.5048 187.366 20.29C186.769 19.0753 186.471 17.6547 186.471 16.0282ZM197.218 13.6811C197.115 12.1576 196.714 10.9634 196.014 10.0987C195.334 9.23398 194.428 8.80162 193.296 8.80162C192.163 8.80162 191.247 9.23398 190.547 10.0987C189.847 10.9634 189.435 12.1576 189.312 13.6811H197.218Z" fill="white"/>
<path d="M173.853 8.18396H176.138V5.09567L178.825 4.66331L179.165 5.00303C179.083 5.57951 179.041 6.21775 179.041 6.91776V8.18396H183.952V9.29574H179.041V19.4562C179.041 21.3298 179.824 22.2665 181.388 22.2665C182.315 22.2665 183.108 21.8342 183.766 20.9695L184.261 21.2474C183.437 23.1622 182.068 24.1195 180.153 24.1195C177.477 24.1195 176.138 22.5445 176.138 19.3944V9.29574H173.853V8.18396Z" fill="white"/>
<path d="M165.117 23.1313C165.961 22.9048 166.548 22.5445 166.878 22.0504C167.228 21.5357 167.403 20.7533 167.403 19.7033V12.6929C167.403 11.6017 167.228 10.7987 166.878 10.284C166.548 9.76928 165.961 9.40898 165.117 9.20309V8.70897L170.089 7.99866L170.429 8.33837C170.388 8.66779 170.357 8.98691 170.336 9.29574C170.316 9.58398 170.306 9.9031 170.306 10.2531V19.7033C170.306 20.7533 170.47 21.5357 170.8 22.0504C171.15 22.5445 171.747 22.9048 172.591 23.1313V23.6254H165.117V23.1313ZM166.63 2.96475C166.63 2.36768 166.816 1.88385 167.186 1.51326C167.578 1.14266 168.061 0.957367 168.638 0.957367C169.235 0.957367 169.719 1.14266 170.089 1.51326C170.46 1.88385 170.645 2.36768 170.645 2.96475C170.645 3.54123 170.46 4.02506 170.089 4.41625C169.719 4.78684 169.235 4.97214 168.638 4.97214C168.061 4.97214 167.578 4.78684 167.186 4.41625C166.816 4.02506 166.63 3.54123 166.63 2.96475Z" fill="white"/>
<path d="M135.32 23.1313C136.164 22.9048 136.751 22.5445 137.08 22.0504C137.43 21.5357 137.605 20.7533 137.605 19.7033V12.6929C137.605 11.6017 137.43 10.7987 137.08 10.284C136.751 9.76928 136.164 9.40898 135.32 9.2031V8.70897L139.798 7.99866C140.086 8.55455 140.261 9.07956 140.323 9.57369C141.579 8.31779 143.164 7.68983 145.079 7.68983C147.488 7.68983 149.135 8.57514 150.02 10.3458C151.42 8.57514 153.242 7.68983 155.486 7.68983C157.298 7.68983 158.688 8.19425 159.656 9.2031C160.644 10.2119 161.138 11.6634 161.138 13.5576V19.7033C161.138 20.7533 161.303 21.5357 161.632 22.0504C161.982 22.5445 162.579 22.9048 163.423 23.1313V23.6254H155.95V23.1313C156.794 22.9048 157.38 22.5445 157.71 22.0504C158.06 21.5357 158.235 20.7533 158.235 19.7033V13.3723C158.235 11.9723 157.926 10.8811 157.308 10.0987C156.691 9.31633 155.836 8.92515 154.745 8.92515C153.551 8.92515 152.594 9.38839 151.873 10.3149C151.173 11.2208 150.823 12.4458 150.823 13.9899V19.7033C150.823 20.7533 150.988 21.5357 151.317 22.0504C151.667 22.5445 152.264 22.9048 153.108 23.1313V23.6254H145.635V23.1313C146.479 22.9048 147.066 22.5445 147.395 22.0504C147.745 21.5357 147.92 20.7533 147.92 19.7033V13.3723C147.92 11.9723 147.611 10.8811 146.994 10.0987C146.376 9.31633 145.521 8.92515 144.43 8.92515C143.236 8.92515 142.279 9.38839 141.558 10.3149C140.858 11.2208 140.508 12.4458 140.508 13.9899V19.7033C140.508 20.7533 140.673 21.5357 141.002 22.0504C141.352 22.5445 141.949 22.9048 142.793 23.1313V23.6254H135.32V23.1313Z" fill="white"/>
<path d="M126.152 23.1313C126.996 22.9048 127.583 22.5445 127.912 22.0504C128.262 21.5357 128.437 20.7533 128.437 19.7033V12.6929C128.437 11.6017 128.262 10.7987 127.912 10.284C127.583 9.76928 126.996 9.40898 126.152 9.20309V8.70897L131.124 7.99866L131.464 8.33837C131.423 8.66779 131.392 8.98691 131.371 9.29574C131.35 9.58398 131.34 9.9031 131.34 10.2531V19.7033C131.34 20.7533 131.505 21.5357 131.834 22.0504C132.184 22.5445 132.781 22.9048 133.626 23.1313V23.6254H126.152V23.1313ZM127.665 2.96475C127.665 2.36768 127.85 1.88385 128.221 1.51326C128.612 1.14266 129.096 0.957367 129.672 0.957367C130.27 0.957367 130.753 1.14266 131.124 1.51326C131.495 1.88385 131.68 2.36768 131.68 2.96475C131.68 3.54123 131.495 4.02506 131.124 4.41625C130.753 4.78684 130.27 4.97214 129.672 4.97214C129.096 4.97214 128.612 4.78684 128.221 4.41625C127.85 4.02506 127.665 3.54123 127.665 2.96475Z" fill="white"/>
<path d="M116.979 23.1313C117.824 22.9048 118.41 22.5445 118.74 22.0504C119.09 21.5357 119.265 20.7636 119.265 19.7342V4.75596C119.265 3.66477 119.09 2.86181 118.74 2.3471C118.41 1.83238 117.824 1.47208 116.979 1.2662V0.772072L121.952 0L122.291 0.339713C122.209 0.916193 122.168 1.56473 122.168 2.28533V19.7342C122.168 20.7636 122.333 21.5357 122.662 22.0504C123.012 22.5445 123.609 22.9048 124.453 23.1313V23.6254H116.979V23.1313Z" fill="white"/>
<path d="M97.2593 23.1313C98.1034 22.9048 98.6902 22.5445 99.0196 22.0504C99.3696 21.5357 99.5446 20.7533 99.5446 19.7033V12.6929C99.5446 11.6017 99.3696 10.7987 99.0196 10.284C98.6902 9.76928 98.1034 9.40898 97.2593 9.2031V8.70897L101.737 7.99866C102.046 8.57514 102.221 9.12074 102.262 9.63546C103.58 8.33838 105.258 7.68983 107.296 7.68983C109.19 7.68983 110.642 8.19425 111.651 9.2031C112.66 10.2119 113.164 11.6634 113.164 13.5576V19.7033C113.164 20.7533 113.329 21.5357 113.658 22.0504C114.008 22.5445 114.605 22.9048 115.449 23.1313V23.6254H107.976V23.1313C108.82 22.9048 109.407 22.5445 109.736 22.0504C110.086 21.5357 110.261 20.7533 110.261 19.7033V13.3723C110.261 11.9723 109.942 10.8811 109.304 10.0987C108.665 9.31633 107.77 8.92515 106.617 8.92515C105.34 8.92515 104.321 9.38839 103.559 10.3149C102.818 11.2208 102.448 12.4458 102.448 13.9899V19.7033C102.448 20.7533 102.612 21.5357 102.942 22.0504C103.292 22.5445 103.889 22.9048 104.733 23.1313V23.6254H97.2593V23.1313Z" fill="white"/>
<path d="M79.9001 18.2518V12.7546C79.9001 11.6634 79.7251 10.8605 79.3751 10.3458C79.0457 9.83104 78.4589 9.47074 77.6147 9.26486V8.77073L82.5869 7.99866L82.9266 8.33837C82.8442 8.91485 82.8031 9.5531 82.8031 10.2531V18.4371C82.8031 19.8371 83.1016 20.9283 83.6987 21.7107C84.2957 22.493 85.1296 22.8842 86.2002 22.8842C86.9414 22.8842 87.6311 22.6989 88.2693 22.3283C88.9076 21.9577 89.412 21.4224 89.7826 20.7224C90.1738 20.0224 90.3694 19.1885 90.3694 18.2209V11.4267C90.3694 10.6855 90.2458 10.1605 89.9988 9.85163C89.7723 9.5428 89.2473 9.31633 88.4237 9.17221V8.70896L93.1179 7.99866L93.3959 8.2766C93.3135 8.95603 93.2724 9.64574 93.2724 10.3458V19.7033C93.2724 20.7533 93.4371 21.5356 93.7665 22.0504C94.1165 22.5445 94.7136 22.9048 95.5577 23.1313V23.6254L91.0797 23.9342C90.7297 23.2754 90.5444 22.6165 90.5238 21.9577C89.2267 23.3989 87.559 24.1195 85.5208 24.1195C83.709 24.1195 82.3192 23.6151 81.3516 22.6063C80.3839 21.5768 79.9001 20.1253 79.9001 18.2518Z" fill="white"/>
<path d="M50.4824 23.1313C51.3266 22.9048 51.9133 22.5445 52.2427 22.0504C52.5928 21.5357 52.7678 20.7533 52.7678 19.7033V12.6929C52.7678 11.6017 52.5928 10.7987 52.2427 10.284C51.9133 9.76928 51.3266 9.40898 50.4824 9.2031V8.70897L54.9604 7.99866C55.2693 8.57514 55.4443 9.12074 55.4854 9.63546C56.8031 8.33838 58.4811 7.68983 60.5194 7.68983C62.4135 7.68983 63.865 8.19425 64.8738 9.2031C65.8827 10.2119 66.3871 11.6634 66.3871 13.5576V19.7033C66.3871 20.7533 66.5518 21.5357 66.8812 22.0504C67.2312 22.5445 67.8283 22.9048 68.6724 23.1313V23.6254H61.1988V23.1313C62.0429 22.9048 62.6297 22.5445 62.9591 22.0504C63.3091 21.5357 63.4841 20.7533 63.4841 19.7033V13.3723C63.4841 11.9723 63.165 10.8811 62.5267 10.0987C61.8885 9.31633 60.9929 8.92515 59.8399 8.92515C58.5634 8.92515 57.5443 9.38839 56.7825 10.3149C56.0413 11.2208 55.6707 12.4458 55.6707 13.9899V19.7033C55.6707 20.7533 55.8355 21.5357 56.1649 22.0504C56.5149 22.5445 57.1119 22.9048 57.9561 23.1313V23.6254H50.4824V23.1313Z" fill="white"/>
<path d="M36.519 23.1313C37.3632 22.9048 37.9499 22.5445 38.2794 22.0504C38.6294 21.5357 38.8044 20.7636 38.8044 19.7342V12.6311C38.8044 11.5811 38.6294 10.7987 38.2794 10.284C37.9499 9.76928 37.3632 9.40898 36.519 9.2031V8.70897L40.9971 7.99866C41.1824 8.34867 41.3162 8.66779 41.3985 8.95603C41.4809 9.24427 41.5324 9.59428 41.5529 10.0061C42.0265 9.28545 42.603 8.71926 43.2824 8.30749C43.9824 7.89572 44.7442 7.68983 45.5677 7.68983C46.7207 7.68983 47.7398 8.06043 48.6251 8.80162L48.8104 13.0943L48.2854 13.2179C47.6472 11.7561 47.0398 10.7164 46.4633 10.0987C45.8868 9.48104 45.2383 9.17221 44.5177 9.17221C43.6324 9.17221 42.9427 9.58398 42.4486 10.4075C41.9544 11.2311 41.7074 12.3943 41.7074 13.8973V19.7342C41.7074 20.8459 41.9132 21.6386 42.325 22.1121C42.7368 22.5857 43.4986 22.9048 44.6104 23.0695V23.6254H36.519V23.1313Z" fill="white"/>
<path d="M19.7656 20.043C19.7656 19.0341 20.0847 18.1488 20.723 17.3871C21.3612 16.6253 22.2568 16.0385 23.4098 15.6267C24.5628 15.1944 25.901 14.9782 27.4246 14.9782C28.1864 14.9782 28.9584 15.0297 29.7408 15.1326V13.1561C29.7408 11.7973 29.432 10.7369 28.8143 9.97517C28.2172 9.1928 27.3834 8.80162 26.3128 8.80162C24.2745 8.80162 22.5554 10.2737 21.1554 13.2179L20.6303 13.0635L21.1245 8.80162C22.9774 8.06043 24.7789 7.68983 26.529 7.68983C28.4849 7.68983 29.9879 8.18396 31.0379 9.17221C32.1085 10.1399 32.6438 11.5399 32.6438 13.3723V20.9077C32.6438 21.9783 33.0658 22.5136 33.91 22.5136C34.2188 22.5136 34.4968 22.4004 34.7438 22.1739L35.1453 22.4827C34.507 23.4504 33.632 23.9342 32.5202 23.9342C31.2438 23.9342 30.4099 23.3372 30.0187 22.143C28.7834 23.4607 27.1878 24.1195 25.2319 24.1195C23.5436 24.1195 22.2054 23.7592 21.2171 23.0386C20.2495 22.2974 19.7656 21.2989 19.7656 20.043ZM22.7921 19.6724C22.7921 20.6812 23.101 21.4739 23.7186 22.0504C24.3569 22.6268 25.1804 22.9151 26.1893 22.9151C27.1981 22.9151 28.0422 22.5033 28.7217 21.6798C29.4011 20.8562 29.7408 19.6209 29.7408 17.9738V16.2135C29.4114 16.1723 29.0923 16.1414 28.7834 16.1209C28.4952 16.1003 28.2069 16.09 27.9187 16.09C26.2922 16.09 25.026 16.4091 24.1201 17.0473C23.2348 17.665 22.7921 18.54 22.7921 19.6724Z" fill="white"/>
<path d="M0 23.0695C0.885309 22.843 1.50297 22.4621 1.85297 21.9268C2.22357 21.3915 2.40886 20.5783 2.40886 19.4871V6.1457C2.40886 5.0545 2.22357 4.24125 1.85297 3.70595C1.50297 3.17065 0.885309 2.78976 0 2.56328V2.00739H10.7781C11.684 2.00739 12.4973 1.9868 13.2179 1.94563C13.9591 1.88386 14.7311 1.80151 15.5341 1.69856L16.2444 7.81337L15.6885 7.90602C15.215 6.69129 14.7311 5.74422 14.237 5.0648C13.7635 4.38537 13.2076 3.90154 12.5693 3.6133C11.9517 3.32506 11.1693 3.18094 10.2222 3.18094H5.49715V11.9208H8.61632C9.89281 11.9208 10.809 11.7355 11.3649 11.3649C11.9414 10.9737 12.3737 10.2531 12.662 9.2031H13.0943V15.812H12.662C12.3943 14.762 11.9723 14.0517 11.3958 13.6811C10.8193 13.2899 9.89281 13.0943 8.61632 13.0943H5.49715V19.3636C5.49715 20.4342 5.68245 21.2165 6.05304 21.7107C6.42364 22.2048 7.0207 22.4518 7.84425 22.4518H9.97517C10.9222 22.4518 11.7458 22.2871 12.4458 21.9577C13.1458 21.6077 13.7943 20.9901 14.3914 20.1048C14.9885 19.1989 15.6061 17.9224 16.2444 16.2753L16.8003 16.3988L15.9973 23.6254H0V23.0695Z" fill="white"/>
</svg>
