<svg width="338" height="25" viewBox="0 0 338 25" fill="none" xmlns="http://www.w3.org/2000/svg">
<path d="M335.238 16.1177C335.238 15.519 335.012 15.0173 334.559 14.6128C334.105 14.2082 333.329 13.7875 332.228 13.3505C330.756 12.7518 329.712 12.153 329.097 11.5543C328.482 10.9393 328.175 10.2354 328.175 9.44247C328.175 8.40679 328.579 7.58148 329.388 6.96655C330.214 6.35162 331.314 6.04415 332.689 6.04415C333.353 6.04415 334.041 6.12506 334.753 6.28689C335.465 6.43253 336.128 6.6429 336.743 6.918L337.132 10.1464L336.719 10.2678C336.169 9.18355 335.521 8.35824 334.777 7.79186C334.033 7.20929 333.24 6.918 332.398 6.918C331.751 6.918 331.241 7.07983 330.869 7.40348C330.513 7.71095 330.335 8.1236 330.335 8.64144C330.335 9.17546 330.562 9.63666 331.015 10.025C331.468 10.3972 332.261 10.8099 333.393 11.263C334.882 11.8617 335.918 12.4443 336.5 13.0107C337.099 13.5771 337.399 14.2729 337.399 15.0982C337.399 15.8426 337.196 16.5061 336.792 17.0887C336.403 17.6712 335.853 18.1324 335.141 18.4723C334.445 18.7959 333.628 18.9577 332.689 18.9577C332.042 18.9577 331.354 18.8687 330.626 18.6907C329.898 18.5289 329.17 18.2862 328.442 17.9625L328.053 14.7341L328.466 14.6128C329.016 15.7132 329.688 16.5708 330.481 17.1858C331.29 17.7845 332.139 18.0839 333.029 18.0839C333.725 18.0839 334.267 17.9059 334.656 17.5499C335.044 17.1939 335.238 16.7165 335.238 16.1177Z" fill="white"/>
<path d="M320.604 18.181C321.267 18.003 321.729 17.7198 321.988 17.3314C322.263 16.9268 322.4 16.3119 322.4 15.4866V9.97648C322.4 9.11881 322.263 8.4877 321.988 8.08314C321.729 7.67858 321.267 7.39538 320.604 7.23356V6.84518L324.512 6.28688L324.779 6.5539C324.747 6.81281 324.722 7.06364 324.706 7.30638C324.69 7.53293 324.682 7.78376 324.682 8.05886V15.4866C324.682 16.3119 324.811 16.9268 325.07 17.3314C325.345 17.7198 325.815 18.003 326.478 18.181V18.5694H320.604V18.181ZM321.793 2.33028C321.793 1.86099 321.939 1.4807 322.23 1.18941C322.538 0.898129 322.918 0.752487 323.371 0.752487C323.841 0.752487 324.221 0.898129 324.512 1.18941C324.803 1.4807 324.949 1.86099 324.949 2.33028C324.949 2.78338 324.803 3.16367 324.512 3.47114C324.221 3.76242 323.841 3.90807 323.371 3.90807C322.918 3.90807 322.538 3.76242 322.23 3.47114C321.939 3.16367 321.793 2.78338 321.793 2.33028Z" fill="white"/>
<path d="M310.443 16.1177C310.443 15.519 310.216 15.0173 309.763 14.6128C309.31 14.2082 308.533 13.7875 307.433 13.3505C305.96 12.7518 304.917 12.153 304.302 11.5543C303.687 10.9393 303.379 10.2354 303.379 9.44247C303.379 8.40679 303.784 7.58148 304.593 6.96655C305.418 6.35162 306.519 6.04415 307.894 6.04415C308.558 6.04415 309.245 6.12506 309.957 6.28689C310.669 6.43253 311.333 6.6429 311.948 6.918L312.336 10.1464L311.924 10.2678C311.373 9.18355 310.726 8.35824 309.982 7.79186C309.237 7.20929 308.444 6.918 307.603 6.918C306.956 6.918 306.446 7.07983 306.074 7.40348C305.718 7.71095 305.54 8.1236 305.54 8.64144C305.54 9.17546 305.766 9.63666 306.219 10.025C306.672 10.3972 307.465 10.8099 308.598 11.263C310.087 11.8617 311.122 12.4443 311.705 13.0107C312.304 13.5771 312.603 14.2729 312.603 15.0982C312.603 15.8426 312.401 16.5061 311.996 17.0887C311.608 17.6712 311.058 18.1324 310.346 18.4723C309.65 18.7959 308.833 18.9577 307.894 18.9577C307.247 18.9577 306.559 18.8687 305.831 18.6907C305.103 18.5289 304.374 18.2862 303.646 17.9625L303.258 14.7341L303.67 14.6128C304.221 15.7132 304.892 16.5708 305.685 17.1858C306.494 17.7845 307.344 18.0839 308.234 18.0839C308.93 18.0839 309.472 17.9059 309.86 17.5499C310.249 17.1939 310.443 16.7165 310.443 16.1177Z" fill="white"/>
<path d="M290.333 12.598C290.333 11.2873 290.576 10.1464 291.062 9.17546C291.547 8.18833 292.227 7.41966 293.101 6.86946C293.975 6.31925 294.986 6.04415 296.135 6.04415C297.624 6.04415 298.813 6.52963 299.703 7.50057C300.593 8.45534 301.119 9.83085 301.281 11.6271H292.518C292.518 13.391 292.931 14.7665 293.756 15.7536C294.581 16.7246 295.738 17.21 297.227 17.21C298.684 17.21 299.8 16.6922 300.577 15.6565L300.965 15.875C300.043 17.9302 298.433 18.9577 296.135 18.9577C294.97 18.9577 293.95 18.6988 293.076 18.181C292.203 17.647 291.523 16.9026 291.037 15.9478C290.568 14.993 290.333 13.8765 290.333 12.598ZM298.781 10.7532C298.7 9.55574 298.384 8.61716 297.834 7.9375C297.3 7.25784 296.588 6.918 295.698 6.918C294.808 6.918 294.088 7.25784 293.538 7.9375C292.987 8.61716 292.664 9.55574 292.567 10.7532H298.781Z" fill="white"/>
<path d="M283.1 18.181C283.764 18.003 284.225 17.7198 284.484 17.3314C284.759 16.9268 284.896 16.32 284.896 15.5109V3.73815C284.896 2.88048 284.759 2.24936 284.484 1.8448C284.225 1.44024 283.764 1.15705 283.1 0.995221V0.606843L287.008 0L287.275 0.267011C287.21 0.72012 287.178 1.22987 287.178 1.79625V15.5109C287.178 16.32 287.308 16.9268 287.566 17.3314C287.842 17.7198 288.311 18.003 288.974 18.181V18.5694H283.1V18.181Z" fill="white"/>
<path d="M276.016 18.181C276.679 18.003 277.14 17.7198 277.399 17.3314C277.674 16.9268 277.812 16.3119 277.812 15.4866V9.97648C277.812 9.11881 277.674 8.4877 277.399 8.08314C277.14 7.67858 276.679 7.39538 276.016 7.23356V6.84518L279.924 6.28688L280.191 6.5539C280.158 6.81281 280.134 7.06364 280.118 7.30638C280.102 7.53293 280.094 7.78376 280.094 8.05886V15.4866C280.094 16.3119 280.223 16.9268 280.482 17.3314C280.757 17.7198 281.226 18.003 281.89 18.181V18.5694H276.016V18.181ZM277.205 2.33028C277.205 1.86099 277.351 1.4807 277.642 1.18941C277.949 0.898129 278.33 0.752487 278.783 0.752487C279.252 0.752487 279.632 0.898129 279.924 1.18941C280.215 1.4807 280.361 1.86099 280.361 2.33028C280.361 2.78338 280.215 3.16367 279.924 3.47114C279.632 3.76242 279.252 3.90807 278.783 3.90807C278.33 3.90807 277.949 3.76242 277.642 3.47114C277.351 3.16367 277.205 2.78338 277.205 2.33028Z" fill="white"/>
<path d="M252.595 18.181C253.259 18.003 253.72 17.7198 253.979 17.3314C254.254 16.9269 254.391 16.3119 254.391 15.4866V9.97649C254.391 9.11882 254.254 8.4877 253.979 8.08314C253.72 7.67858 253.259 7.39539 252.595 7.23356V6.84518L256.115 6.28689C256.341 6.72381 256.479 7.13647 256.528 7.52485C257.515 6.53772 258.761 6.04415 260.266 6.04415C262.159 6.04415 263.454 6.74 264.149 8.13169C265.25 6.74 266.682 6.04415 268.446 6.04415C269.87 6.04415 270.962 6.44062 271.723 7.23356C272.5 8.0265 272.888 9.16737 272.888 10.6562V15.4866C272.888 16.3119 273.017 16.9269 273.276 17.3314C273.552 17.7198 274.021 18.003 274.684 18.181V18.5694H268.81V18.181C269.474 18.003 269.935 17.7198 270.194 17.3314C270.469 16.9269 270.606 16.3119 270.606 15.4866V10.5105C270.606 9.4101 270.364 8.55243 269.878 7.9375C269.393 7.32257 268.721 7.0151 267.863 7.0151C266.925 7.0151 266.172 7.3792 265.606 8.10741C265.056 8.81944 264.781 9.7823 264.781 10.996V15.4866C264.781 16.3119 264.91 16.9269 265.169 17.3314C265.444 17.7198 265.913 18.003 266.577 18.181V18.5694H260.703V18.181C261.366 18.003 261.827 17.7198 262.086 17.3314C262.361 16.9269 262.499 16.3119 262.499 15.4866V10.5105C262.499 9.4101 262.256 8.55243 261.771 7.9375C261.285 7.32257 260.614 7.0151 259.756 7.0151C258.817 7.0151 258.065 7.3792 257.499 8.10741C256.948 8.81944 256.673 9.7823 256.673 10.996V15.4866C256.673 16.3119 256.803 16.9269 257.062 17.3314C257.337 17.7198 257.806 18.003 258.469 18.181V18.5694H252.595V18.181Z" fill="white"/>
<path d="M238.732 18.181C239.395 17.9706 239.776 17.647 239.873 17.21C239.986 16.7731 239.808 16.1905 239.339 15.4623L236.475 10.9232L233.489 15.4623C232.534 16.9026 232.655 17.8088 233.853 18.181V18.5694H229.12V18.181C230.236 17.825 231.215 17.0401 232.057 15.8264L235.941 10.0736L232.178 4.12653C231.806 3.52778 231.418 3.05039 231.013 2.69438C230.625 2.33836 230.139 2.09563 229.557 1.96617V1.57779H235.965V1.96617C235.156 2.14418 234.719 2.45164 234.654 2.88857C234.605 3.30931 234.832 3.90806 235.334 4.68482L237.785 8.54434L240.334 4.68482C240.9 3.84333 241.151 3.20413 241.087 2.7672C241.038 2.33027 240.585 2.06326 239.727 1.96617V1.57779H244.728V1.96617C244.339 2.04708 243.999 2.16036 243.708 2.306C243.417 2.45164 243.126 2.6782 242.834 2.98566C242.543 3.29313 242.195 3.73815 241.79 4.32072L238.319 9.39391L242.543 16.0206C242.915 16.6194 243.295 17.0806 243.684 17.4042C244.088 17.7117 244.582 17.9706 245.165 18.181V18.5694H238.732V18.181Z" fill="white"/>
<path d="M224.099 5.26739C224.099 4.29644 223.848 3.57632 223.346 3.10703C222.861 2.63774 222.286 2.4031 221.623 2.4031C220.636 2.4031 219.81 2.75911 219.147 3.47114C218.484 4.18316 217.877 5.31594 217.326 6.86945L216.89 6.79663L217.375 2.50019C218.281 2.16036 219.098 1.92571 219.827 1.79625C220.555 1.65061 221.243 1.57779 221.89 1.57779C223.379 1.57779 224.552 1.90953 225.41 2.57301C226.283 3.22031 226.72 4.15889 226.72 5.38876C226.72 6.00369 226.518 6.69954 226.114 7.47629C225.709 8.23687 225.021 9.18354 224.05 10.3163C223.096 11.4329 221.793 12.8327 220.142 14.5157L218.273 16.4333H224.584C225.296 16.4333 225.838 16.2553 226.211 15.8993C226.599 15.5432 226.971 14.8959 227.327 13.9574L227.764 14.0302L227.23 18.5694H215.943L215.773 18.181L219.365 13.8117C220.255 12.7275 221 11.7808 221.599 10.9717C222.214 10.1626 222.699 9.44246 223.055 8.81135C223.427 8.18023 223.694 7.58148 223.856 7.01509C224.018 6.44871 224.099 5.86614 224.099 5.26739Z" fill="white"/>
<path d="M195.301 12.8165C195.301 11.4895 195.552 10.3163 196.054 9.29682C196.555 8.27732 197.251 7.48438 198.141 6.918C199.031 6.33543 200.051 6.04415 201.2 6.04415C202.494 6.04415 203.643 6.38398 204.647 7.06364V3.71387C204.647 2.8562 204.509 2.22509 204.234 1.82053C203.975 1.39978 203.514 1.1085 202.85 0.946674V0.558294L206.758 0L207.025 0.267011C206.961 0.72012 206.928 1.22178 206.928 1.77198V15.4866C206.928 16.3119 207.058 16.9268 207.317 17.3314C207.592 17.7198 208.061 18.003 208.725 18.181V18.5694L205.205 18.8121C204.962 18.3428 204.825 17.8816 204.792 17.4285C203.757 18.448 202.47 18.9577 200.933 18.9577C199.217 18.9577 197.85 18.4075 196.831 17.3071C195.811 16.2067 195.301 14.7098 195.301 12.8165ZM197.68 12.064C197.68 13.2453 197.834 14.281 198.141 15.171C198.465 16.0611 198.91 16.7569 199.476 17.2586C200.059 17.7441 200.722 17.9868 201.467 17.9868C202.389 17.9868 203.15 17.6308 203.749 16.9188C204.347 16.1905 204.647 15.2681 204.647 14.1516V10.729C204.647 10.0169 204.485 9.37773 204.161 8.81135C203.854 8.22878 203.433 7.76758 202.899 7.42775C202.365 7.08791 201.766 6.918 201.103 6.918C200.035 6.918 199.193 7.37111 198.578 8.27732C197.979 9.18354 197.68 10.4458 197.68 12.064Z" fill="white"/>
<path d="M182.596 12.598C182.596 11.2873 182.838 10.1464 183.324 9.17546C183.809 8.18833 184.489 7.41966 185.363 6.86946C186.237 6.31925 187.248 6.04415 188.397 6.04415C189.886 6.04415 191.075 6.52963 191.965 7.50057C192.855 8.45534 193.381 9.83085 193.543 11.6271H184.78C184.78 13.391 185.193 14.7665 186.018 15.7536C186.844 16.7246 188.001 17.21 189.489 17.21C190.946 17.21 192.062 16.6922 192.839 15.6565L193.228 15.875C192.305 17.9302 190.695 18.9577 188.397 18.9577C187.232 18.9577 186.212 18.6988 185.339 18.181C184.465 17.647 183.785 16.9026 183.3 15.9478C182.83 14.993 182.596 13.8765 182.596 12.598ZM191.043 10.7532C190.962 9.55574 190.646 8.61716 190.096 7.9375C189.562 7.25784 188.85 6.918 187.96 6.918C187.07 6.918 186.35 7.25784 185.8 7.9375C185.25 8.61716 184.926 9.55574 184.829 10.7532H191.043Z" fill="white"/>
<path d="M172.678 6.43253H174.474V4.00516L176.586 3.66533L176.853 3.93234C176.789 4.38545 176.756 4.8871 176.756 5.43731V6.43253H180.616V7.30638H176.756V15.2924C176.756 16.765 177.371 17.5013 178.601 17.5013C179.329 17.5013 179.952 17.1615 180.47 16.4818L180.858 16.7003C180.211 18.2053 179.135 18.9577 177.63 18.9577C175.526 18.9577 174.474 17.7198 174.474 15.2439V7.30638H172.678V6.43253Z" fill="white"/>
<path d="M165.812 18.181C166.475 18.003 166.937 17.7198 167.196 17.3314C167.471 16.9268 167.608 16.3119 167.608 15.4866V9.97648C167.608 9.11881 167.471 8.4877 167.196 8.08314C166.937 7.67858 166.475 7.39538 165.812 7.23356V6.84518L169.72 6.28688L169.987 6.5539C169.955 6.81281 169.93 7.06364 169.914 7.30638C169.898 7.53293 169.89 7.78376 169.89 8.05886V15.4866C169.89 16.3119 170.019 16.9268 170.278 17.3314C170.553 17.7198 171.023 18.003 171.686 18.181V18.5694H165.812V18.181ZM167.001 2.33028C167.001 1.86099 167.147 1.4807 167.438 1.18941C167.746 0.898129 168.126 0.752487 168.579 0.752487C169.048 0.752487 169.429 0.898129 169.72 1.18941C170.011 1.4807 170.157 1.86099 170.157 2.33028C170.157 2.78338 170.011 3.16367 169.72 3.47114C169.429 3.76242 169.048 3.90807 168.579 3.90807C168.126 3.90807 167.746 3.76242 167.438 3.47114C167.147 3.16367 167.001 2.78338 167.001 2.33028Z" fill="white"/>
<path d="M142.392 18.181C143.055 18.003 143.516 17.7198 143.775 17.3314C144.05 16.9269 144.188 16.3119 144.188 15.4866V9.97649C144.188 9.11882 144.05 8.4877 143.775 8.08314C143.516 7.67858 143.055 7.39539 142.392 7.23356V6.84518L145.911 6.28689C146.138 6.72381 146.275 7.13647 146.324 7.52485C147.311 6.53772 148.557 6.04415 150.062 6.04415C151.955 6.04415 153.25 6.74 153.946 8.13169C155.046 6.74 156.478 6.04415 158.242 6.04415C159.666 6.04415 160.759 6.44062 161.519 7.23356C162.296 8.0265 162.684 9.16737 162.684 10.6562V15.4866C162.684 16.3119 162.814 16.9269 163.073 17.3314C163.348 17.7198 163.817 18.003 164.481 18.181V18.5694H158.606V18.181C159.27 18.003 159.731 17.7198 159.99 17.3314C160.265 16.9269 160.403 16.3119 160.403 15.4866V10.5105C160.403 9.4101 160.16 8.55243 159.674 7.9375C159.189 7.32257 158.517 7.0151 157.66 7.0151C156.721 7.0151 155.969 7.3792 155.402 8.10741C154.852 8.81944 154.577 9.7823 154.577 10.996V15.4866C154.577 16.3119 154.706 16.9269 154.965 17.3314C155.24 17.7198 155.71 18.003 156.373 18.181V18.5694H150.499V18.181C151.162 18.003 151.624 17.7198 151.883 17.3314C152.158 16.9269 152.295 16.3119 152.295 15.4866V10.5105C152.295 9.4101 152.053 8.55243 151.567 7.9375C151.082 7.32257 150.41 7.0151 149.552 7.0151C148.614 7.0151 147.861 7.3792 147.295 8.10741C146.745 8.81944 146.47 9.7823 146.47 10.996V15.4866C146.47 16.3119 146.599 16.9269 146.858 17.3314C147.133 17.7198 147.602 18.003 148.266 18.181V18.5694H142.392V18.181Z" fill="white"/>
<path d="M135.186 18.181C135.849 18.003 136.31 17.7198 136.569 17.3314C136.844 16.9268 136.982 16.3119 136.982 15.4866V9.97648C136.982 9.11881 136.844 8.4877 136.569 8.08314C136.31 7.67858 135.849 7.39538 135.186 7.23356V6.84518L139.094 6.28688L139.361 6.5539C139.328 6.81281 139.304 7.06364 139.288 7.30638C139.272 7.53293 139.264 7.78376 139.264 8.05886V15.4866C139.264 16.3119 139.393 16.9268 139.652 17.3314C139.927 17.7198 140.396 18.003 141.06 18.181V18.5694H135.186V18.181ZM136.375 2.33028C136.375 1.86099 136.521 1.4807 136.812 1.18941C137.119 0.898129 137.5 0.752487 137.953 0.752487C138.422 0.752487 138.802 0.898129 139.094 1.18941C139.385 1.4807 139.531 1.86099 139.531 2.33028C139.531 2.78338 139.385 3.16367 139.094 3.47114C138.802 3.76242 138.422 3.90807 137.953 3.90807C137.5 3.90807 137.119 3.76242 136.812 3.47114C136.521 3.16367 136.375 2.78338 136.375 2.33028Z" fill="white"/>
<path d="M127.977 18.181C128.64 18.003 129.101 17.7198 129.36 17.3314C129.635 16.9268 129.773 16.32 129.773 15.5109V3.73815C129.773 2.88048 129.635 2.24936 129.36 1.8448C129.101 1.44024 128.64 1.15705 127.977 0.995221V0.606843L131.885 0L132.152 0.267011C132.087 0.72012 132.055 1.22987 132.055 1.79625V15.5109C132.055 16.32 132.184 16.9268 132.443 17.3314C132.718 17.7198 133.187 18.003 133.851 18.181V18.5694H127.977V18.181Z" fill="white"/>
<path d="M112.476 18.181C113.14 18.003 113.601 17.7198 113.86 17.3314C114.135 16.9269 114.272 16.3119 114.272 15.4866V9.97649C114.272 9.11882 114.135 8.4877 113.86 8.08314C113.601 7.67858 113.14 7.39539 112.476 7.23356V6.84518L115.996 6.28689C116.238 6.74 116.376 7.16883 116.408 7.57339C117.444 6.5539 118.763 6.04415 120.365 6.04415C121.854 6.04415 122.995 6.44062 123.788 7.23356C124.581 8.0265 124.977 9.16737 124.977 10.6562V15.4866C124.977 16.3119 125.106 16.9269 125.365 17.3314C125.64 17.7198 126.11 18.003 126.773 18.181V18.5694H120.899V18.181C121.563 18.003 122.024 17.7198 122.283 17.3314C122.558 16.9269 122.695 16.3119 122.695 15.4866V10.5105C122.695 9.4101 122.444 8.55243 121.943 7.9375C121.441 7.32257 120.737 7.0151 119.831 7.0151C118.828 7.0151 118.027 7.3792 117.428 8.10741C116.845 8.81944 116.554 9.7823 116.554 10.996V15.4866C116.554 16.3119 116.684 16.9269 116.942 17.3314C117.218 17.7198 117.687 18.003 118.35 18.181V18.5694H112.476V18.181Z" fill="white"/>
<path d="M98.8324 14.3457V10.025C98.8324 9.16737 98.6948 8.53625 98.4197 8.13169C98.1608 7.72713 97.6996 7.44393 97.0361 7.28211V6.89373L100.944 6.28689L101.211 6.5539C101.146 7.00701 101.114 7.50866 101.114 8.05887V14.4914C101.114 15.5918 101.349 16.4495 101.818 17.0644C102.287 17.6793 102.943 17.9868 103.784 17.9868C104.367 17.9868 104.909 17.8412 105.411 17.5499C105.912 17.2586 106.309 16.8378 106.6 16.2876C106.907 15.7374 107.061 15.0821 107.061 14.3215V8.98127C107.061 8.3987 106.964 7.98605 106.77 7.74331C106.592 7.50057 106.179 7.32257 105.532 7.20929V6.84518L109.222 6.28689L109.44 6.50535C109.375 7.03937 109.343 7.58148 109.343 8.13169V15.4866C109.343 16.3119 109.472 16.9269 109.731 17.3314C110.006 17.7198 110.476 18.003 111.139 18.181V18.5694L107.619 18.8121C107.344 18.2943 107.199 17.7764 107.183 17.2586C106.163 18.3914 104.852 18.9577 103.25 18.9577C101.826 18.9577 100.734 18.5613 99.9733 17.7683C99.2127 16.9592 98.8324 15.8184 98.8324 14.3457Z" fill="white"/>
<path d="M78.0796 21.1424C78.0796 19.9287 78.8321 18.9901 80.337 18.3266C79.9163 18.1648 79.6007 17.9302 79.3904 17.6227C79.1962 17.3152 79.0991 16.9673 79.0991 16.5789C79.0991 16.2553 79.1881 15.9235 79.3661 15.5837C79.5441 15.2439 79.7787 14.9121 80.07 14.5885L80.507 14.103C79.8758 13.7146 79.3823 13.213 79.0263 12.598C78.6702 11.9669 78.4922 11.2549 78.4922 10.462C78.4922 9.58811 78.7107 8.81944 79.1476 8.15596C79.5846 7.49248 80.1914 6.97464 80.9682 6.60245C81.7449 6.23025 82.643 6.04415 83.6625 6.04415C84.504 6.04415 85.2727 6.17361 85.9685 6.43253H89.7552V7.30638H87.4492C87.8862 7.69476 88.226 8.16405 88.4687 8.71426C88.7115 9.24828 88.8328 9.83894 88.8328 10.4862C88.8328 11.3601 88.6144 12.1288 88.1774 12.7922C87.7405 13.4557 87.1337 13.9736 86.3569 14.3457C85.5963 14.7179 84.6982 14.904 83.6625 14.904C82.8049 14.904 82.02 14.7665 81.308 14.4914L80.8711 15.0011C80.6121 15.2762 80.4827 15.519 80.4827 15.7293C80.4827 16.1015 80.8549 16.3281 81.5993 16.409L85.9443 16.7974C87.255 16.9107 88.2503 17.2505 88.9299 17.8169C89.6096 18.3671 89.9494 19.1115 89.9494 20.0501C89.9494 20.9077 89.6743 21.6521 89.1241 22.2832C88.5901 22.9305 87.8295 23.4241 86.8424 23.7639C85.8714 24.1038 84.7306 24.2737 83.4198 24.2737C81.753 24.2737 80.4422 23.9905 79.4875 23.4241C78.5489 22.8739 78.0796 22.1133 78.0796 21.1424ZM80.7497 10.2192C80.7497 11.352 81.041 12.2744 81.6235 12.9864C82.2061 13.6823 82.9586 14.0302 83.881 14.0302C84.7063 14.0302 85.3617 13.7308 85.8472 13.1321C86.3326 12.5333 86.5754 11.7323 86.5754 10.729C86.5754 9.5962 86.2841 8.68189 85.7015 7.98605C85.119 7.27402 84.3665 6.918 83.4441 6.918C82.6188 6.918 81.9634 7.21738 81.4779 7.81613C80.9924 8.41488 80.7497 9.21591 80.7497 10.2192ZM79.7787 20.6812C79.7787 21.5712 80.1348 22.2428 80.8468 22.6959C81.575 23.1652 82.5702 23.3998 83.8325 23.3998C85.127 23.3998 86.1385 23.1652 86.8667 22.6959C87.6111 22.2266 87.9832 21.5874 87.9832 20.7783C87.9832 20.1633 87.7405 19.7102 87.255 19.4189C86.7696 19.1277 85.9119 18.9254 84.682 18.8121L81.3565 18.5208C80.3047 19.0225 79.7787 19.7426 79.7787 20.6812Z" fill="white"/>
<path d="M62.5068 18.181C63.1703 18.003 63.6315 17.7198 63.8904 17.3314C64.1655 16.9269 64.3031 16.3119 64.3031 15.4866V9.97649C64.3031 9.11882 64.1655 8.4877 63.8904 8.08314C63.6315 7.67858 63.1703 7.39539 62.5068 7.23356V6.84518L66.0265 6.28689C66.2693 6.74 66.4068 7.16883 66.4392 7.57339C67.4749 6.5539 68.7937 6.04415 70.3958 6.04415C71.8846 6.04415 73.0254 6.44062 73.8184 7.23356C74.6113 8.0265 75.0078 9.16737 75.0078 10.6562V15.4866C75.0078 16.3119 75.1372 16.9269 75.3962 17.3314C75.6713 17.7198 76.1405 18.003 76.804 18.181V18.5694H70.9298V18.181C71.5933 18.003 72.0545 17.7198 72.3134 17.3314C72.5885 16.9269 72.7261 16.3119 72.7261 15.4866V10.5105C72.7261 9.4101 72.4752 8.55243 71.9736 7.9375C71.4719 7.32257 70.768 7.0151 69.8618 7.0151C68.8584 7.0151 68.0574 7.3792 67.4587 8.10741C66.8761 8.81944 66.5848 9.7823 66.5848 10.996V15.4866C66.5848 16.3119 66.7143 16.9269 66.9732 17.3314C67.2483 17.7198 67.7176 18.003 68.3811 18.181V18.5694H62.5068V18.181Z" fill="white"/>
<path d="M55.3003 18.181C55.9638 18.003 56.425 17.7198 56.6839 17.3314C56.959 16.9268 57.0965 16.3119 57.0965 15.4866V9.97648C57.0965 9.11881 56.959 8.4877 56.6839 8.08314C56.425 7.67858 55.9638 7.39538 55.3003 7.23356V6.84518L59.2084 6.28688L59.4754 6.5539C59.443 6.81281 59.4187 7.06364 59.4025 7.30638C59.3864 7.53293 59.3783 7.78376 59.3783 8.05886V15.4866C59.3783 16.3119 59.5077 16.9268 59.7667 17.3314C60.0418 17.7198 60.511 18.003 61.1745 18.181V18.5694H55.3003V18.181ZM56.4897 2.33028C56.4897 1.86099 56.6353 1.4807 56.9266 1.18941C57.2341 0.898129 57.6144 0.752487 58.0675 0.752487C58.5368 0.752487 58.9171 0.898129 59.2084 1.18941C59.4996 1.4807 59.6453 1.86099 59.6453 2.33028C59.6453 2.78338 59.4996 3.16367 59.2084 3.47114C58.9171 3.76242 58.5368 3.90807 58.0675 3.90807C57.6144 3.90807 57.2341 3.76242 56.9266 3.47114C56.6353 3.16367 56.4897 2.78338 56.4897 2.33028Z" fill="white"/>
<path d="M39.6787 18.181C40.3422 18.003 40.8034 17.7198 41.0623 17.3314C41.3374 16.9269 41.475 16.3119 41.475 15.4866V9.97649C41.475 9.11882 41.3374 8.4877 41.0623 8.08314C40.8034 7.67858 40.3422 7.39539 39.6787 7.23356V6.84518L43.1984 6.28689C43.4411 6.74 43.5787 7.16883 43.611 7.57339C44.6467 6.5539 45.9656 6.04415 47.5677 6.04415C49.0564 6.04415 50.1973 6.44062 50.9902 7.23356C51.7832 8.0265 52.1797 9.16737 52.1797 10.6562V15.4866C52.1797 16.3119 52.3091 16.9269 52.568 17.3314C52.8431 17.7198 53.3124 18.003 53.9759 18.181V18.5694H48.1017V18.181C48.7652 18.003 49.2264 17.7198 49.4853 17.3314C49.7604 16.9269 49.8979 16.3119 49.8979 15.4866V10.5105C49.8979 9.4101 49.6471 8.55243 49.1454 7.9375C48.6438 7.32257 47.9399 7.0151 47.0336 7.0151C46.0303 7.0151 45.2293 7.3792 44.6305 8.10741C44.048 8.81944 43.7567 9.7823 43.7567 10.996V15.4866C43.7567 16.3119 43.8861 16.9269 44.1451 17.3314C44.4202 17.7198 44.8895 18.003 45.5529 18.181V18.5694H39.6787V18.181Z" fill="white"/>
<path d="M28.7036 18.181C29.3671 18.003 29.8283 17.7198 30.0872 17.3314C30.3623 16.9269 30.4999 16.32 30.4999 15.5109V9.92794C30.4999 9.10264 30.3623 8.4877 30.0872 8.08314C29.8283 7.67858 29.3671 7.39539 28.7036 7.23356V6.84518L32.2233 6.28689C32.3689 6.56199 32.4741 6.81282 32.5389 7.03937C32.6036 7.26593 32.644 7.54103 32.6602 7.86468C33.0324 7.29829 33.4855 6.85328 34.0195 6.52963C34.5697 6.20598 35.1685 6.04415 35.8158 6.04415C36.722 6.04415 37.523 6.33544 38.2189 6.918L38.3645 10.292L37.9519 10.3891C37.4502 9.24019 36.9728 8.42297 36.5197 7.9375C36.0666 7.45203 35.5569 7.20929 34.9905 7.20929C34.2946 7.20929 33.7525 7.53294 33.3642 8.18023C32.9758 8.82753 32.7816 9.74184 32.7816 10.9232V15.5109C32.7816 16.3847 32.9434 17.0078 33.2671 17.38C33.5907 17.7522 34.1895 18.003 35.0633 18.1324V18.5694H28.7036V18.181Z" fill="white"/>
<path d="M15.5356 15.7536C15.5356 14.9607 15.7865 14.2648 16.2881 13.6661C16.7898 13.0673 17.4937 12.6061 18.3999 12.2825C19.3062 11.9427 20.358 11.7727 21.5555 11.7727C22.1543 11.7727 22.7611 11.8132 23.376 11.8941V10.3406C23.376 9.27255 23.1333 8.43915 22.6478 7.8404C22.1785 7.22547 21.5232 6.918 20.6817 6.918C19.0796 6.918 17.7284 8.07505 16.628 10.3891L16.2153 10.2678L16.6037 6.918C18.0601 6.33544 19.4761 6.04415 20.8516 6.04415C22.3889 6.04415 23.5702 6.43253 24.3955 7.20929C25.237 7.96986 25.6578 9.07027 25.6578 10.5105V16.4333C25.6578 17.2748 25.9895 17.6955 26.653 17.6955C26.8957 17.6955 27.1142 17.6065 27.3084 17.4285L27.6239 17.6712C27.1223 18.4318 26.4345 18.8121 25.5607 18.8121C24.5574 18.8121 23.902 18.3428 23.5945 17.4042C22.6236 18.4399 21.3694 18.9577 19.8321 18.9577C18.5051 18.9577 17.4533 18.6746 16.6765 18.1082C15.9159 17.5256 15.5356 16.7408 15.5356 15.7536ZM17.9145 15.4623C17.9145 16.2553 18.1572 16.8783 18.6427 17.3314C19.1443 17.7845 19.7916 18.0111 20.5846 18.0111C21.3775 18.0111 22.041 17.6874 22.575 17.0401C23.109 16.3928 23.376 15.4219 23.376 14.1273V12.7437C23.1171 12.7113 22.8663 12.687 22.6236 12.6709C22.397 12.6547 22.1704 12.6466 21.9439 12.6466C20.6655 12.6466 19.6703 12.8974 18.9582 13.3991C18.2624 13.8845 17.9145 14.5723 17.9145 15.4623Z" fill="white"/>
<path d="M0 18.1324C0.695845 17.9544 1.18132 17.6551 1.45642 17.2343C1.7477 16.8136 1.89335 16.1744 1.89335 15.3167V4.83046C1.89335 3.97279 1.7477 3.33359 1.45642 2.91284C1.18132 2.4921 0.695845 2.19272 0 2.01471V1.57779H8.47151C9.18354 1.57779 9.82275 1.56161 10.3891 1.52924C10.9717 1.48069 11.5785 1.41596 12.2097 1.33505L12.768 6.14124L12.331 6.21406C11.9588 5.2593 11.5785 4.5149 11.1902 3.98088C10.818 3.44686 10.381 3.06657 9.87939 2.84002C9.39391 2.61347 8.77898 2.50019 8.03459 2.50019H4.32071V9.36964H6.77236C7.77567 9.36964 8.49579 9.224 8.93271 8.93271C9.38582 8.62525 9.72565 8.05886 9.95221 7.23356H10.292V12.4281H9.95221C9.74184 11.6028 9.4101 11.0445 8.95699 10.7532C8.50388 10.4458 7.77567 10.292 6.77236 10.292H4.32071V15.2196C4.32071 16.0611 4.46636 16.676 4.75764 17.0644C5.04892 17.4528 5.51822 17.647 6.16551 17.647H7.8404C8.58479 17.647 9.23209 17.5175 9.78229 17.2586C10.3325 16.9835 10.8422 16.498 11.3115 15.8022C11.7808 15.0901 12.2663 14.0868 12.768 12.7922L13.2049 12.8893L12.5738 18.5694H0V18.1324Z" fill="white"/>
</svg>
