<svg width="330" height="60" viewBox="0 0 330 60" fill="none" xmlns="http://www.w3.org/2000/svg">
<path d="M227.52 51.394C228.906 52.0007 230.293 52.304 231.68 52.304C232.685 52.304 233.448 52.1133 233.968 51.732C234.505 51.3507 234.774 50.8047 234.774 50.094C234.774 49.626 234.626 49.2447 234.332 48.95C234.037 48.6553 233.552 48.404 232.876 48.196L231.108 47.65C229.929 47.286 229.071 46.818 228.534 46.246C227.996 45.674 227.728 44.946 227.728 44.062C227.728 42.8833 228.187 41.9473 229.106 41.254C230.024 40.5607 231.264 40.214 232.824 40.214C234.141 40.214 235.398 40.474 236.594 40.994V42.866C235.276 42.3633 234.072 42.112 232.98 42.112C232.096 42.112 231.402 42.2853 230.9 42.632C230.414 42.9613 230.172 43.412 230.172 43.984C230.172 44.4 230.302 44.7293 230.562 44.972C230.822 45.1973 231.307 45.4227 232.018 45.648L233.994 46.246C236.143 46.8873 237.218 48.1613 237.218 50.068C237.218 51.4027 236.758 52.4253 235.84 53.136C234.921 53.8467 233.595 54.202 231.862 54.202C230.25 54.202 228.898 53.9333 227.806 53.396L227.52 51.394Z" fill="white"/>
<path d="M222.514 53.864L222.358 52.954C220.936 53.786 219.524 54.202 218.12 54.202C216.716 54.202 215.624 53.8207 214.844 53.058C214.064 52.2953 213.674 51.2293 213.674 49.86V40.604H216.118V49.496C216.118 51.3507 217.01 52.278 218.796 52.278C219.298 52.278 219.844 52.2 220.434 52.044C221.023 51.8707 221.56 51.6453 222.046 51.368V40.604H224.49V53.656L222.514 53.864Z" fill="white"/>
<path d="M207.431 53.812V34.286L209.875 34V53.812H207.431Z" fill="white"/>
<path d="M192.281 53.812V36.002C193.096 35.8287 194.006 35.69 195.011 35.586C196.034 35.482 196.909 35.43 197.637 35.43C199.787 35.43 201.459 35.9327 202.655 36.938C203.869 37.9433 204.475 39.3387 204.475 41.124C204.475 42.9093 203.843 44.322 202.577 45.362C201.329 46.3847 199.613 46.896 197.429 46.896H194.777V53.812H192.281ZM197.481 37.38C196.684 37.38 195.783 37.4667 194.777 37.64V44.946H197.403C198.825 44.946 199.917 44.6167 200.679 43.958C201.459 43.2993 201.849 42.3633 201.849 41.15C201.849 39.9193 201.477 38.9833 200.731 38.342C200.003 37.7007 198.92 37.38 197.481 37.38Z" fill="white"/>
<path d="M170.742 53.812V34.286L173.186 34V41.28C174.521 40.5693 175.829 40.214 177.112 40.214C178.551 40.214 179.66 40.5953 180.44 41.358C181.237 42.1033 181.636 43.1693 181.636 44.556V53.812H179.192V44.92C179.192 43.0653 178.273 42.138 176.436 42.138C175.951 42.138 175.405 42.2247 174.798 42.398C174.209 42.554 173.671 42.7707 173.186 43.048V53.812H170.742Z" fill="white"/>
<path d="M158 51.394C159.387 52.0007 160.773 52.304 162.16 52.304C163.165 52.304 163.928 52.1133 164.448 51.732C164.985 51.3507 165.254 50.8047 165.254 50.094C165.254 49.626 165.107 49.2447 164.812 48.95C164.517 48.6553 164.032 48.404 163.356 48.196L161.588 47.65C160.409 47.286 159.551 46.818 159.014 46.246C158.477 45.674 158.208 44.946 158.208 44.062C158.208 42.8833 158.667 41.9473 159.586 41.254C160.505 40.5607 161.744 40.214 163.304 40.214C164.621 40.214 165.878 40.474 167.074 40.994V42.866C165.757 42.3633 164.552 42.112 163.46 42.112C162.576 42.112 161.883 42.2853 161.38 42.632C160.895 42.9613 160.652 43.412 160.652 43.984C160.652 44.4 160.782 44.7293 161.042 44.972C161.302 45.1973 161.787 45.4227 162.498 45.648L164.474 46.246C166.623 46.8873 167.698 48.1613 167.698 50.068C167.698 51.4027 167.239 52.4253 166.32 53.136C165.401 53.8467 164.075 54.202 162.342 54.202C160.73 54.202 159.378 53.9333 158.286 53.396L158 51.394Z" fill="white"/>
<path d="M153.134 53.864L152.978 52.954C151.522 53.786 150.109 54.202 148.74 54.202C147.37 54.202 146.278 53.838 145.464 53.11C144.666 52.3647 144.268 51.368 144.268 50.12C144.268 48.82 144.718 47.8147 145.62 47.104C146.521 46.376 147.786 46.012 149.416 46.012C150.369 46.012 151.47 46.1247 152.718 46.35V44.972C152.718 44.0187 152.44 43.308 151.886 42.84C151.348 42.372 150.516 42.138 149.39 42.138C148.072 42.138 146.634 42.4413 145.074 43.048V41.15C145.802 40.8553 146.59 40.63 147.44 40.474C148.289 40.3007 149.095 40.214 149.858 40.214C151.574 40.214 152.874 40.6127 153.758 41.41C154.659 42.2073 155.11 43.3773 155.11 44.92V53.656L153.134 53.864ZM149.364 52.304C149.866 52.304 150.43 52.2173 151.054 52.044C151.678 51.8707 152.232 51.6453 152.718 51.368V48.04C151.903 47.832 150.941 47.728 149.832 47.728C148.792 47.728 148.02 47.9273 147.518 48.326C147.032 48.7073 146.79 49.288 146.79 50.068C146.79 51.5587 147.648 52.304 149.364 52.304Z" fill="white"/>
<path d="M141.773 53.058C140.3 53.8207 138.679 54.202 136.911 54.202C134.484 54.202 132.604 53.37 131.269 51.706C129.934 50.042 129.267 47.7106 129.267 44.712C129.267 41.7306 129.934 39.408 131.269 37.744C132.621 36.0627 134.502 35.222 136.911 35.222C138.592 35.222 140.187 35.6033 141.695 36.366V38.42C140.898 38.0213 140.161 37.744 139.485 37.588C138.809 37.4147 138.09 37.328 137.327 37.328C133.756 37.328 131.971 39.7893 131.971 44.712C131.971 49.6346 133.756 52.096 137.327 52.096C138.107 52.096 138.844 52.0093 139.537 51.836C140.248 51.6626 140.993 51.3853 141.773 51.004V53.058Z" fill="white"/>
<path d="M110.338 53.812V34.286L112.782 34V46.272L118.216 40.604H121.024L115.122 46.74L121.31 53.812H118.346L112.782 47.338V53.812H110.338Z" fill="white"/>
<path d="M100.842 53.812V40.76L102.818 40.552L103.026 41.748C104.17 40.7773 105.392 40.292 106.692 40.292C107.09 40.292 107.489 40.3527 107.888 40.474V42.476C107.472 42.372 107.047 42.32 106.614 42.32C105.366 42.32 104.256 42.71 103.286 43.49V53.812H100.842Z" fill="white"/>
<path d="M95.0655 53.864L94.9095 52.954C93.4535 53.786 92.0408 54.202 90.6715 54.202C89.3021 54.202 88.2101 53.838 87.3955 53.11C86.5981 52.3647 86.1995 51.368 86.1995 50.12C86.1995 48.82 86.6501 47.8147 87.5515 47.104C88.4528 46.376 89.7181 46.012 91.3475 46.012C92.3008 46.012 93.4015 46.1247 94.6495 46.35V44.972C94.6495 44.0187 94.3721 43.308 93.8175 42.84C93.2801 42.372 92.4481 42.138 91.3215 42.138C90.0041 42.138 88.5655 42.4413 87.0055 43.048V41.15C87.7335 40.8553 88.5221 40.63 89.3715 40.474C90.2208 40.3007 91.0268 40.214 91.7895 40.214C93.5055 40.214 94.8055 40.6127 95.6895 41.41C96.5908 42.2073 97.0415 43.3773 97.0415 44.92V53.656L95.0655 53.864ZM91.2955 52.304C91.7981 52.304 92.3615 52.2173 92.9855 52.044C93.6095 51.8707 94.1641 51.6453 94.6495 51.368V48.04C93.8348 47.832 92.8728 47.728 91.7635 47.728C90.7235 47.728 89.9521 47.9273 89.4495 48.326C88.9641 48.7073 88.7215 49.288 88.7215 50.068C88.7215 51.5587 89.5795 52.304 91.2955 52.304Z" fill="white"/>
<path d="M72.2009 59.688V40.76L74.1769 40.552L74.3329 41.462C75.7023 40.63 77.0283 40.214 78.3109 40.214C80.0096 40.214 81.3356 40.8207 82.2889 42.034C83.2596 43.23 83.7449 44.8853 83.7449 47C83.7449 49.288 83.1816 51.0647 82.0549 52.33C80.9283 53.578 79.3423 54.202 77.2969 54.202C76.3089 54.202 75.4249 54.0807 74.6449 53.838V59.402L72.2009 59.688ZM77.7389 42.138C77.2709 42.138 76.7509 42.2247 76.1789 42.398C75.6243 42.554 75.1129 42.7707 74.6449 43.048V51.992C75.3729 52.2 76.1443 52.304 76.9589 52.304C78.3803 52.304 79.4376 51.8707 80.1309 51.004C80.8416 50.1373 81.1969 48.82 81.1969 47.052C81.1969 45.44 80.9023 44.218 80.3129 43.386C79.7409 42.554 78.8829 42.138 77.7389 42.138Z" fill="white"/>
<path d="M56.9941 50.9C58.7621 51.7493 60.5128 52.174 62.2461 52.174C63.6328 52.174 64.7075 51.8793 65.4701 51.29C66.2328 50.7007 66.6141 49.86 66.6141 48.768C66.6141 47.9707 66.3715 47.3207 65.8861 46.818C65.4008 46.3153 64.5861 45.882 63.4421 45.518L61.7261 44.972C60.1835 44.4867 59.0655 43.88 58.3721 43.152C57.6961 42.4067 57.3581 41.4707 57.3581 40.344C57.3581 38.784 57.9388 37.5447 59.1001 36.626C60.2615 35.69 61.8215 35.222 63.7801 35.222C65.4095 35.222 66.9781 35.56 68.4861 36.236V38.238C66.8915 37.5793 65.4008 37.25 64.0141 37.25C62.7661 37.25 61.7781 37.5187 61.0501 38.056C60.3395 38.576 59.9841 39.2953 59.9841 40.214C59.9841 40.89 60.1835 41.4273 60.5821 41.826C60.9981 42.2247 61.7088 42.5887 62.7141 42.918L64.4301 43.464C66.1461 44.0187 67.3768 44.712 68.1221 45.544C68.8675 46.3587 69.2401 47.4247 69.2401 48.742C69.2401 50.458 68.6421 51.8013 67.4461 52.772C66.2501 53.7253 64.5948 54.202 62.4801 54.202C60.5561 54.202 58.8488 53.838 57.3581 53.11L56.9941 50.9Z" fill="white"/>
<path d="M36.781 53.812V34.286L39.225 34V41.28C40.5597 40.5693 41.8683 40.214 43.151 40.214C44.5897 40.214 45.699 40.5953 46.479 41.358C47.2763 42.1033 47.675 43.1693 47.675 44.556V53.812H45.231V44.92C45.231 43.0653 44.3123 42.138 42.475 42.138C41.9897 42.138 41.4437 42.2247 40.837 42.398C40.2477 42.554 39.7103 42.7707 39.225 43.048V53.812H36.781Z" fill="white"/>
<path d="M30.3512 42.372V49.964C30.3512 50.744 30.5245 51.3247 30.8712 51.706C31.2178 52.07 31.7465 52.252 32.4572 52.252C32.9945 52.252 33.5665 52.1567 34.1732 51.966V53.708C33.4452 53.9853 32.6912 54.124 31.9112 54.124C30.5938 54.124 29.5972 53.7773 28.9212 53.084C28.2452 52.3907 27.9072 51.3767 27.9072 50.042V42.372H25.9312V40.708L28.0112 40.63L28.1932 37.328L30.3512 37.094V40.604H34.0432V42.372H30.3512Z" fill="white"/>
<path d="M20.9628 53.812V40.812L23.4068 40.526V53.812H20.9628ZM22.1848 37.9C21.6821 37.9 21.2834 37.77 20.9888 37.51C20.7114 37.2327 20.5728 36.86 20.5728 36.392C20.5728 35.924 20.7114 35.56 20.9888 35.3C21.2834 35.0227 21.6821 34.884 22.1848 34.884C22.6874 34.884 23.0774 35.0227 23.3548 35.3C23.6494 35.56 23.7968 35.924 23.7968 36.392C23.7968 36.86 23.6494 37.2327 23.3548 37.51C23.0774 37.77 22.6874 37.9 22.1848 37.9Z" fill="white"/>
<path d="M12.454 53.812L9.36 43.178L6.37 53.812H4.134L0 40.604H2.47L5.304 50.848L8.112 40.604H10.686L13.546 50.848L16.354 40.604H18.746L14.69 53.812H12.454Z" fill="white"/>
<path d="M318.461 19.812V0.286L320.905 0V12.272L326.339 6.604H329.147L323.245 12.74L329.433 19.812H326.469L320.905 13.338V19.812H318.461Z" fill="white"/>
<path d="M315.451 19.344C314.255 19.916 312.929 20.202 311.473 20.202C309.567 20.202 308.093 19.5953 307.053 18.382C306.013 17.1687 305.493 15.4527 305.493 13.234C305.493 10.998 306.013 9.27332 307.053 8.05999C308.111 6.82932 309.593 6.21399 311.499 6.21399C312.834 6.21399 314.125 6.49999 315.373 7.07199V8.94399C314.177 8.42399 313.033 8.16399 311.941 8.16399C310.659 8.16399 309.688 8.58865 309.029 9.43799C308.371 10.2873 308.041 11.544 308.041 13.208C308.041 14.8547 308.371 16.1113 309.029 16.978C309.688 17.8273 310.659 18.252 311.941 18.252C313.033 18.252 314.203 17.992 315.451 17.472V19.344Z" fill="white"/>
<path d="M300.497 19.864L300.341 18.954C298.885 19.786 297.473 20.202 296.103 20.202C294.734 20.202 293.642 19.838 292.827 19.11C292.03 18.3647 291.631 17.368 291.631 16.12C291.631 14.82 292.082 13.8147 292.983 13.104C293.885 12.376 295.15 12.012 296.779 12.012C297.733 12.012 298.833 12.1247 300.081 12.35V10.972C300.081 10.0187 299.804 9.30799 299.249 8.83999C298.712 8.37199 297.88 8.13799 296.753 8.13799C295.436 8.13799 293.997 8.44132 292.437 9.04799V7.14999C293.165 6.85532 293.954 6.62999 294.803 6.47399C295.653 6.30066 296.459 6.21399 297.221 6.21399C298.937 6.21399 300.237 6.61266 301.121 7.40999C302.023 8.20732 302.473 9.37732 302.473 10.92V19.656L300.497 19.864ZM296.727 18.304C297.23 18.304 297.793 18.2173 298.417 18.044C299.041 17.8707 299.596 17.6453 300.081 17.368V14.04C299.267 13.832 298.305 13.728 297.195 13.728C296.155 13.728 295.384 13.9273 294.881 14.326C294.396 14.7073 294.153 15.288 294.153 16.068C294.153 17.5587 295.011 18.304 296.727 18.304Z" fill="white"/>
<path d="M280.077 7.254C281.377 6.56067 282.599 6.214 283.743 6.214C285.441 6.214 286.767 6.82067 287.721 8.034C288.691 9.23 289.177 10.8853 289.177 13C289.177 15.3227 288.587 17.108 287.409 18.356C286.23 19.5867 284.549 20.202 282.365 20.202C280.805 20.202 279.227 19.9767 277.633 19.526V0.286L280.077 0V7.254ZM283.171 8.138C282.703 8.138 282.183 8.22467 281.611 8.398C281.056 8.554 280.545 8.77067 280.077 9.048V17.992C280.805 18.2 281.576 18.304 282.391 18.304C283.812 18.304 284.869 17.8707 285.563 17.004C286.273 16.1373 286.629 14.82 286.629 13.052C286.629 11.44 286.334 10.218 285.745 9.386C285.173 8.554 284.315 8.138 283.171 8.138Z" fill="white"/>
<path d="M256.432 19.812V0.286L258.876 0V7.28C260.21 6.56933 261.519 6.214 262.802 6.214C264.24 6.214 265.35 6.59533 266.13 7.358C266.927 8.10333 267.326 9.16933 267.326 10.556V19.812H264.882V10.92C264.882 9.06533 263.963 8.138 262.126 8.138C261.64 8.138 261.094 8.22467 260.488 8.398C259.898 8.554 259.361 8.77067 258.876 9.048V19.812H256.432Z" fill="white"/>
<path d="M243.689 17.394C245.076 18.0007 246.463 18.304 247.849 18.304C248.855 18.304 249.617 18.1133 250.137 17.732C250.675 17.3507 250.943 16.8047 250.943 16.094C250.943 15.626 250.796 15.2447 250.501 14.95C250.207 14.6553 249.721 14.404 249.045 14.196L247.277 13.65C246.099 13.286 245.241 12.818 244.703 12.246C244.166 11.674 243.897 10.946 243.897 10.062C243.897 8.88332 244.357 7.94732 245.275 7.25399C246.194 6.56066 247.433 6.21399 248.993 6.21399C250.311 6.21399 251.567 6.47399 252.763 6.99399V8.86599C251.446 8.36332 250.241 8.11199 249.149 8.11199C248.265 8.11199 247.572 8.28532 247.069 8.63199C246.584 8.96132 246.341 9.41199 246.341 9.98399C246.341 10.4 246.471 10.7293 246.731 10.972C246.991 11.1973 247.477 11.4227 248.187 11.648L250.163 12.246C252.313 12.8873 253.387 14.1613 253.387 16.068C253.387 17.4027 252.928 18.4253 252.009 19.136C251.091 19.8467 249.765 20.202 248.031 20.202C246.419 20.202 245.067 19.9333 243.975 19.396L243.689 17.394Z" fill="white"/>
<path d="M238.824 19.864L238.668 18.954C237.212 19.786 235.799 20.202 234.43 20.202C233.06 20.202 231.968 19.838 231.154 19.11C230.356 18.3647 229.958 17.368 229.958 16.12C229.958 14.82 230.408 13.8147 231.31 13.104C232.211 12.376 233.476 12.012 235.106 12.012C236.059 12.012 237.16 12.1247 238.408 12.35V10.972C238.408 10.0187 238.13 9.30799 237.576 8.83999C237.038 8.37199 236.206 8.13799 235.08 8.13799C233.762 8.13799 232.324 8.44132 230.764 9.04799V7.14999C231.492 6.85532 232.28 6.62999 233.13 6.47399C233.979 6.30066 234.785 6.21399 235.548 6.21399C237.264 6.21399 238.564 6.61266 239.448 7.40999C240.349 8.20732 240.8 9.37732 240.8 10.92V19.656L238.824 19.864ZM235.054 18.304C235.556 18.304 236.12 18.2173 236.744 18.044C237.368 17.8707 237.922 17.6453 238.408 17.368V14.04C237.593 13.832 236.631 13.728 235.522 13.728C234.482 13.728 233.71 13.9273 233.208 14.326C232.722 14.7073 232.48 15.288 232.48 16.068C232.48 17.5587 233.338 18.304 235.054 18.304Z" fill="white"/>
<path d="M227.676 19.344C226.48 19.916 225.154 20.202 223.698 20.202C221.791 20.202 220.318 19.5953 219.278 18.382C218.238 17.1687 217.718 15.4527 217.718 13.234C217.718 10.998 218.238 9.27332 219.278 8.05999C220.335 6.82932 221.817 6.21399 223.724 6.21399C225.059 6.21399 226.35 6.49999 227.598 7.07199V8.94399C226.402 8.42399 225.258 8.16399 224.166 8.16399C222.883 8.16399 221.913 8.58865 221.254 9.43799C220.595 10.2873 220.266 11.544 220.266 13.208C220.266 14.8547 220.595 16.1113 221.254 16.978C221.913 17.8273 222.883 18.252 224.166 18.252C225.258 18.252 226.428 17.992 227.676 17.472V19.344Z" fill="white"/>
<path d="M192.293 19.812L201.627 2.002H203.785L194.451 19.812H192.293ZM191.253 11.752C192.016 11.752 192.57 11.4227 192.917 10.764C193.264 10.088 193.437 9.00467 193.437 7.51401C193.437 6.02334 193.264 4.94867 192.917 4.29001C192.57 3.61401 192.016 3.276 191.253 3.276C190.49 3.276 189.936 3.61401 189.589 4.29001C189.242 4.94867 189.069 6.02334 189.069 7.51401C189.069 9.00467 189.242 10.088 189.589 10.764C189.936 11.4227 190.49 11.752 191.253 11.752ZM191.253 13.286C189.849 13.286 188.774 12.792 188.029 11.804C187.284 10.7987 186.911 9.36867 186.911 7.51401C186.911 5.65934 187.284 4.23801 188.029 3.25001C188.774 2.24467 189.849 1.742 191.253 1.742C192.657 1.742 193.732 2.24467 194.477 3.25001C195.222 4.23801 195.595 5.65934 195.595 7.51401C195.595 9.36867 195.222 10.7987 194.477 11.804C193.732 12.792 192.657 13.286 191.253 13.286ZM204.825 18.538C205.588 18.538 206.142 18.2087 206.489 17.55C206.836 16.874 207.009 15.7907 207.009 14.3C207.009 12.8093 206.836 11.7347 206.489 11.076C206.142 10.4 205.588 10.062 204.825 10.062C204.062 10.062 203.508 10.4 203.161 11.076C202.814 11.7347 202.641 12.8093 202.641 14.3C202.641 15.7907 202.814 16.874 203.161 17.55C203.508 18.2087 204.062 18.538 204.825 18.538ZM204.825 20.072C203.421 20.072 202.346 19.578 201.601 18.59C200.856 17.5847 200.483 16.1547 200.483 14.3C200.483 12.4453 200.856 11.024 201.601 10.036C202.346 9.03067 203.421 8.52801 204.825 8.52801C206.229 8.52801 207.304 9.03067 208.049 10.036C208.794 11.024 209.167 12.4453 209.167 14.3C209.167 16.1547 208.794 17.5847 208.049 18.59C207.304 19.578 206.229 20.072 204.825 20.072Z" fill="white"/>
<path d="M173.651 19.812C173.685 18.252 173.997 16.9 174.587 15.756C175.193 14.612 176.207 13.442 177.629 12.246L179.813 10.4C180.697 9.65467 181.329 8.98733 181.711 8.398C182.092 7.80867 182.283 7.202 182.283 6.578C182.283 5.65933 181.945 4.93133 181.269 4.394C180.61 3.85667 179.709 3.588 178.565 3.588C177.074 3.588 175.618 4.108 174.197 5.148V3.146C175.601 2.12333 177.256 1.612 179.163 1.612C180.289 1.612 181.277 1.82867 182.127 2.262C182.993 2.678 183.661 3.25867 184.129 4.004C184.597 4.732 184.831 5.54667 184.831 6.448C184.831 7.34933 184.588 8.19867 184.103 8.996C183.635 9.776 182.829 10.6513 181.685 11.622L179.605 13.39C178.634 14.222 177.897 14.9847 177.395 15.678C176.892 16.3713 176.571 17.0647 176.433 17.758H182.465C183.47 17.758 184.337 17.732 185.065 17.68V19.812H173.651Z" fill="white"/>
<path d="M164.592 0V19.656L162.616 19.864L162.46 18.954C161.091 19.786 159.765 20.202 158.482 20.202C156.783 20.202 155.449 19.604 154.478 18.408C153.525 17.1947 153.048 15.5307 153.048 13.416C153.048 11.128 153.611 9.36 154.738 8.112C155.865 6.84667 157.451 6.214 159.496 6.214C160.484 6.214 161.368 6.33533 162.148 6.578V0.286L164.592 0ZM159.054 18.278C159.522 18.278 160.033 18.2 160.588 18.044C161.16 17.8707 161.68 17.6453 162.148 17.368V8.424C161.42 8.216 160.649 8.112 159.834 8.112C158.413 8.112 157.347 8.54533 156.636 9.412C155.943 10.2787 155.596 11.596 155.596 13.364C155.596 14.976 155.882 16.198 156.454 17.03C157.043 17.862 157.91 18.278 159.054 18.278Z" fill="white"/>
<path d="M150.047 19.318C148.851 19.9073 147.516 20.202 146.043 20.202C143.893 20.202 142.255 19.604 141.129 18.408C140.002 17.212 139.439 15.4613 139.439 13.156C139.439 11.7347 139.69 10.504 140.193 9.46399C140.695 8.40665 141.397 7.60065 142.299 7.04599C143.2 6.49132 144.231 6.21399 145.393 6.21399C147.022 6.21399 148.305 6.69932 149.241 7.66999C150.177 8.64066 150.645 9.98399 150.645 11.7C150.645 12.376 150.584 13.0433 150.463 13.702H141.857C141.909 16.77 143.399 18.304 146.329 18.304C147.594 18.304 148.833 18.0267 150.047 17.472V19.318ZM145.393 8.00799C144.387 8.00799 143.564 8.36332 142.923 9.07399C142.299 9.78465 141.943 10.7467 141.857 11.96H148.383C148.4 11.8733 148.409 11.7867 148.409 11.7C148.409 11.6133 148.409 11.5267 148.409 11.44C148.409 10.3653 148.14 9.52465 147.603 8.91799C147.083 8.31132 146.346 8.00799 145.393 8.00799Z" fill="white"/>
<path d="M133.789 8.37199V15.964C133.789 16.744 133.962 17.3247 134.309 17.706C134.655 18.07 135.184 18.252 135.895 18.252C136.432 18.252 137.004 18.1567 137.611 17.966V19.708C136.883 19.9853 136.129 20.124 135.349 20.124C134.031 20.124 133.035 19.7773 132.359 19.084C131.683 18.3907 131.345 17.3767 131.345 16.042V8.37199H129.369V6.70799L131.449 6.62999L131.631 3.32799L133.789 3.09399V6.60399H137.481V8.37199H133.789Z" fill="white"/>
<path d="M124.4 19.812V6.812L126.844 6.526V19.812H124.4ZM125.622 3.9C125.12 3.9 124.721 3.77 124.426 3.51C124.149 3.23267 124.01 2.86 124.01 2.392C124.01 1.924 124.149 1.56 124.426 1.3C124.721 1.02267 125.12 0.884003 125.622 0.884003C126.125 0.884003 126.515 1.02267 126.792 1.3C127.087 1.56 127.234 1.924 127.234 2.392C127.234 2.86 127.087 3.23267 126.792 3.51C126.515 3.77 126.125 3.9 125.622 3.9Z" fill="white"/>
<path d="M118.164 19.812V10.634C118.164 8.96999 117.358 8.13799 115.746 8.13799C114.776 8.13799 113.753 8.45866 112.678 9.09999C112.765 9.48132 112.808 9.86265 112.808 10.244V19.812H110.364V10.634C110.364 8.96999 109.558 8.13799 107.946 8.13799C106.993 8.13799 106.014 8.44132 105.008 9.04799V19.812H102.564V6.75999L104.54 6.55199L104.696 7.46199C106.031 6.62999 107.34 6.21399 108.622 6.21399C110.113 6.21399 111.24 6.69066 112.002 7.64399C113.562 6.69066 115.036 6.21399 116.422 6.21399C117.722 6.21399 118.745 6.56932 119.49 7.27999C120.236 7.99066 120.608 8.97865 120.608 10.244V19.812H118.164Z" fill="white"/>
<path d="M96.1659 19.812V6.812L98.6099 6.526V19.812H96.1659ZM97.3879 3.9C96.8852 3.9 96.4865 3.77 96.1919 3.51C95.9145 3.23267 95.7759 2.86 95.7759 2.392C95.7759 1.924 95.9145 1.56 96.1919 1.3C96.4865 1.02267 96.8852 0.884003 97.3879 0.884003C97.8905 0.884003 98.2806 1.02267 98.5579 1.3C98.8526 1.56 98.9999 1.924 98.9999 2.392C98.9999 2.86 98.8526 3.23267 98.5579 3.51C98.2806 3.77 97.8905 3.9 97.3879 3.9Z" fill="white"/>
<path d="M89.7676 19.812V0.286L92.2116 0V19.812H89.7676Z" fill="white"/>
<path d="M83.5164 19.812V10.92C83.5164 9.06532 82.5977 8.13799 80.7604 8.13799C80.2751 8.13799 79.7291 8.22465 79.1224 8.39799C78.5331 8.55399 77.9957 8.77066 77.5104 9.04799V19.812H75.0664V6.75999L77.0424 6.55199L77.1984 7.46199C78.6197 6.62999 80.0324 6.21399 81.4364 6.21399C82.8751 6.21399 83.9844 6.59532 84.7644 7.35799C85.5617 8.10332 85.9604 9.16932 85.9604 10.556V19.812H83.5164Z" fill="white"/>
<path d="M69.1508 19.864L68.9948 18.954C67.5735 19.786 66.1608 20.202 64.7568 20.202C63.3528 20.202 62.2608 19.8207 61.4808 19.058C60.7008 18.2953 60.3108 17.2293 60.3108 15.86V6.604H62.7548V15.496C62.7548 17.3507 63.6475 18.278 65.4328 18.278C65.9355 18.278 66.4815 18.2 67.0708 18.044C67.6601 17.8707 68.1975 17.6453 68.6828 17.368V6.604H71.1268V19.656L69.1508 19.864Z" fill="white"/>
<path d="M47.7156 19.812V10.92C47.7156 9.06532 46.797 8.13799 44.9596 8.13799C44.4743 8.13799 43.9283 8.22465 43.3216 8.39799C42.7323 8.55399 42.195 8.77066 41.7096 9.04799V19.812H39.2656V6.75999L41.2416 6.55199L41.3976 7.46199C42.819 6.62999 44.2316 6.21399 45.6356 6.21399C47.0743 6.21399 48.1836 6.59532 48.9636 7.35799C49.761 8.10332 50.1596 9.16932 50.1596 10.556V19.812H47.7156Z" fill="white"/>
<path d="M29.7695 19.812V6.75999L31.7455 6.55199L31.9535 7.74799C33.0975 6.77733 34.3195 6.29199 35.6195 6.29199C36.0182 6.29199 36.4169 6.35266 36.8155 6.47399V8.47599C36.3995 8.37199 35.9749 8.31999 35.5415 8.31999C34.2935 8.31999 33.1842 8.70999 32.2135 9.48999V19.812H29.7695Z" fill="white"/>
<path d="M23.9934 19.864L23.8374 18.954C22.3814 19.786 20.9688 20.202 19.5994 20.202C18.2301 20.202 17.1381 19.838 16.3234 19.11C15.5261 18.3647 15.1274 17.368 15.1274 16.12C15.1274 14.82 15.5781 13.8147 16.4794 13.104C17.3808 12.376 18.6461 12.012 20.2754 12.012C21.2288 12.012 22.3294 12.1247 23.5774 12.35V10.972C23.5774 10.0187 23.3001 9.30799 22.7454 8.83999C22.2081 8.37199 21.3761 8.13799 20.2494 8.13799C18.9321 8.13799 17.4934 8.44132 15.9334 9.04799V7.14999C16.6614 6.85532 17.4501 6.62999 18.2994 6.47399C19.1488 6.30066 19.9548 6.21399 20.7174 6.21399C22.4334 6.21399 23.7334 6.61266 24.6174 7.40999C25.5188 8.20732 25.9694 9.37732 25.9694 10.92V19.656L23.9934 19.864ZM20.2234 18.304C20.7261 18.304 21.2894 18.2173 21.9134 18.044C22.5374 17.8707 23.0921 17.6453 23.5774 17.368V14.04C22.7628 13.832 21.8008 13.728 20.6914 13.728C19.6514 13.728 18.8801 13.9273 18.3774 14.326C17.8921 14.7073 17.6494 15.288 17.6494 16.068C17.6494 17.5587 18.5074 18.304 20.2234 18.304Z" fill="white"/>
<path d="M4.522 11.622V17.732H13.102V19.812H2V1.612H13.05V3.692H4.522V9.542H11.958V11.622H4.522Z" fill="white"/>
</svg>
