<svg width="181" height="16" viewBox="0 0 181 16" fill="none" xmlns="http://www.w3.org/2000/svg">
<path d="M179.308 12.3172C179.028 12.3172 178.801 12.2291 178.624 12.053C178.448 11.8769 178.36 11.6491 178.36 11.3694C178.36 11.0897 178.448 10.8619 178.624 10.6858C178.801 10.5097 179.028 10.4217 179.308 10.4217C179.588 10.4217 179.816 10.5097 179.992 10.6858C180.168 10.8619 180.256 11.0897 180.256 11.3694C180.256 11.6491 180.168 11.8769 179.992 12.053C179.816 12.2291 179.588 12.3172 179.308 12.3172Z" fill="white"/>
<path d="M171.119 10.7945C171.948 11.1571 172.776 11.3383 173.605 11.3383C174.206 11.3383 174.661 11.2244 174.972 10.9965C175.293 10.7687 175.454 10.4424 175.454 10.0177C175.454 9.73805 175.366 9.51017 175.19 9.33409C175.013 9.15801 174.723 9.00781 174.319 8.88352L173.263 8.55725C172.559 8.33973 172.046 8.06007 171.725 7.71826C171.404 7.37645 171.243 6.94141 171.243 6.41316C171.243 5.70882 171.518 5.1495 172.067 4.73518C172.616 4.32087 173.356 4.11371 174.288 4.11371C175.076 4.11371 175.827 4.26908 176.541 4.57981V5.69847C175.754 5.39809 175.034 5.2479 174.382 5.2479C173.853 5.2479 173.439 5.35148 173.139 5.55864C172.849 5.75544 172.704 6.02474 172.704 6.36655C172.704 6.61514 172.781 6.81194 172.937 6.95695C173.092 7.0916 173.382 7.22626 173.807 7.36091L174.988 7.71826C176.272 8.1015 176.914 8.8628 176.914 10.0022C176.914 10.7997 176.64 11.4108 176.091 11.8355C175.542 12.2602 174.749 12.4725 173.714 12.4725C172.75 12.4725 171.942 12.312 171.29 11.9909L171.119 10.7945Z" fill="white"/>
<path d="M168.128 12.2705L168.035 11.7268C167.185 12.2239 166.341 12.4725 165.502 12.4725C164.663 12.4725 164.01 12.2446 163.544 11.7889C163.078 11.3332 162.845 10.6961 162.845 9.87787V4.34676H164.306V9.66035C164.306 10.7686 164.839 11.3228 165.906 11.3228C166.206 11.3228 166.533 11.2762 166.885 11.183C167.237 11.0794 167.558 10.9447 167.848 10.779V4.34676H169.309V12.1463L168.128 12.2705Z" fill="white"/>
<path d="M159.115 12.2395V0.571304L160.575 0.400398V12.2395H159.115Z" fill="white"/>
<path d="M150.062 12.2395V1.59673C150.548 1.49315 151.092 1.41029 151.693 1.34814C152.304 1.286 152.827 1.25492 153.262 1.25492C154.546 1.25492 155.546 1.5553 156.261 2.15606C156.986 2.75682 157.348 3.59063 157.348 4.65749C157.348 5.72435 156.97 6.56852 156.214 7.18999C155.468 7.80111 154.443 8.10667 153.138 8.10667H151.553V12.2395H150.062ZM153.169 2.42019C152.692 2.42019 152.154 2.47198 151.553 2.57555V6.94141H153.122C153.972 6.94141 154.624 6.74461 155.08 6.35101C155.546 5.95741 155.779 5.39808 155.779 4.67303C155.779 3.93762 155.556 3.37829 155.111 2.99505C154.676 2.61181 154.029 2.42019 153.169 2.42019Z" fill="white"/>
<path d="M137.19 12.2395V0.571304L138.651 0.400398V4.75072C139.448 4.32604 140.23 4.1137 140.997 4.1137C141.857 4.1137 142.52 4.34158 142.986 4.79733C143.462 5.24271 143.7 5.87973 143.7 6.70836V12.2395H142.24V6.92587C142.24 5.81758 141.691 5.26343 140.593 5.26343C140.303 5.26343 139.977 5.31522 139.614 5.4188C139.262 5.51202 138.941 5.64149 138.651 5.80722V12.2395H137.19Z" fill="white"/>
<path d="M129.576 10.7945C130.405 11.1571 131.233 11.3383 132.062 11.3383C132.663 11.3383 133.118 11.2244 133.429 10.9965C133.75 10.7687 133.911 10.4424 133.911 10.0177C133.911 9.73805 133.823 9.51017 133.647 9.33409C133.47 9.15801 133.18 9.00781 132.777 8.88352L131.72 8.55725C131.016 8.33973 130.503 8.06007 130.182 7.71826C129.861 7.37645 129.7 6.94141 129.7 6.41316C129.7 5.70882 129.975 5.1495 130.524 4.73518C131.073 4.32087 131.813 4.11371 132.745 4.11371C133.533 4.11371 134.284 4.26908 134.998 4.57981V5.69847C134.211 5.39809 133.491 5.2479 132.839 5.2479C132.31 5.2479 131.896 5.35148 131.596 5.55864C131.306 5.75544 131.161 6.02474 131.161 6.36655C131.161 6.61514 131.238 6.81194 131.394 6.95695C131.549 7.0916 131.839 7.22626 132.264 7.36091L133.445 7.71826C134.729 8.1015 135.371 8.8628 135.371 10.0022C135.371 10.7997 135.097 11.4108 134.548 11.8355C133.999 12.2602 133.206 12.4725 132.171 12.4725C131.207 12.4725 130.399 12.312 129.747 11.9909L129.576 10.7945Z" fill="white"/>
<path d="M126.668 12.2706L126.575 11.7268C125.705 12.2239 124.861 12.4725 124.042 12.4725C123.224 12.4725 122.572 12.255 122.085 11.82C121.608 11.3746 121.37 10.779 121.37 10.0332C121.37 9.2564 121.639 8.65565 122.178 8.23097C122.717 7.79594 123.473 7.57842 124.446 7.57842C125.016 7.57842 125.674 7.64575 126.42 7.7804V6.95695C126.42 6.38727 126.254 5.96259 125.922 5.68293C125.601 5.40327 125.104 5.26344 124.431 5.26344C123.644 5.26344 122.784 5.4447 121.852 5.80722V4.67303C122.287 4.49695 122.758 4.3623 123.266 4.26908C123.773 4.1655 124.255 4.11371 124.711 4.11371C125.736 4.11371 126.513 4.35194 127.041 4.8284C127.58 5.30487 127.849 6.00402 127.849 6.92588V12.1463L126.668 12.2706ZM124.415 11.3383C124.716 11.3383 125.052 11.2865 125.425 11.183C125.798 11.0794 126.13 10.9447 126.42 10.779V8.7903C125.933 8.666 125.358 8.60386 124.695 8.60386C124.074 8.60386 123.613 8.72297 123.312 8.9612C123.022 9.18908 122.877 9.53607 122.877 10.0022C122.877 10.893 123.39 11.3383 124.415 11.3383Z" fill="white"/>
<path d="M119.879 11.7889C118.999 12.2447 118.03 12.4725 116.974 12.4725C115.524 12.4725 114.4 11.9753 113.602 10.981C112.805 9.98663 112.406 8.59349 112.406 6.80158C112.406 5.02002 112.805 3.63206 113.602 2.6377C114.41 1.63299 115.534 1.13063 116.974 1.13063C117.979 1.13063 118.931 1.35851 119.833 1.81425V3.04166C119.356 2.80343 118.916 2.6377 118.512 2.54448C118.108 2.4409 117.678 2.38911 117.222 2.38911C115.089 2.38911 114.022 3.85994 114.022 6.80158C114.022 9.74322 115.089 11.214 117.222 11.214C117.689 11.214 118.129 11.1623 118.543 11.0587C118.968 10.9551 119.413 10.7894 119.879 10.5615V11.7889Z" fill="white"/>
<path d="M101.094 12.2395V0.571304L102.555 0.400398V7.73379L105.802 4.34676H107.48L103.953 8.01345L107.651 12.2395H105.88L102.555 8.3708V12.2395H101.094Z" fill="white"/>
<path d="M95.4199 12.2395V4.43997L96.6007 4.31568L96.725 5.03037C97.4086 4.45033 98.1389 4.16031 98.9157 4.16031C99.1539 4.16031 99.3922 4.19656 99.6304 4.26907V5.4654C99.3818 5.40326 99.128 5.37218 98.8691 5.37218C98.1233 5.37218 97.4604 5.60524 96.8804 6.07134V12.2395H95.4199Z" fill="white"/>
<path d="M91.9682 12.2706L91.875 11.7268C91.0049 12.2239 90.1608 12.4725 89.3425 12.4725C88.5242 12.4725 87.8717 12.255 87.3849 11.82C86.9084 11.3746 86.6702 10.779 86.6702 10.0332C86.6702 9.2564 86.9395 8.65565 87.4781 8.23097C88.0167 7.79594 88.7728 7.57842 89.7465 7.57842C90.3161 7.57842 90.9739 7.64575 91.7196 7.7804V6.95695C91.7196 6.38727 91.5539 5.96259 91.2225 5.68293C90.9014 5.40327 90.4042 5.26344 89.7309 5.26344C88.9437 5.26344 88.084 5.4447 87.1518 5.80722V4.67303C87.5868 4.49695 88.0581 4.3623 88.5657 4.26908C89.0732 4.1655 89.5548 4.11371 90.0106 4.11371C91.036 4.11371 91.8129 4.35194 92.3411 4.8284C92.8797 5.30487 93.149 6.00402 93.149 6.92588V12.1463L91.9682 12.2706ZM89.7154 11.3383C90.0158 11.3383 90.3524 11.2865 90.7253 11.183C91.0982 11.0794 91.4296 10.9447 91.7196 10.779V8.7903C91.2328 8.666 90.658 8.60386 89.9951 8.60386C89.3736 8.60386 88.9127 8.72297 88.6123 8.9612C88.3223 9.18908 88.1772 9.53607 88.1772 10.0022C88.1772 10.893 88.69 11.3383 89.7154 11.3383Z" fill="white"/>
<path d="M78.3052 15.7508V4.43998L79.486 4.31569L79.5792 4.85948C80.3975 4.3623 81.1898 4.11371 81.9563 4.11371C82.9714 4.11371 83.7638 4.47624 84.3335 5.20129C84.9135 5.91598 85.2035 6.90516 85.2035 8.16882C85.2035 9.53607 84.8669 10.5977 84.1936 11.3539C83.5204 12.0996 82.5726 12.4725 81.3504 12.4725C80.76 12.4725 80.2317 12.4 79.7656 12.255V15.5799L78.3052 15.7508ZM81.6145 5.26344C81.3349 5.26344 81.0241 5.31522 80.6823 5.4188C80.3509 5.51202 80.0453 5.6415 79.7656 5.80722V11.1519C80.2007 11.2762 80.6616 11.3383 81.1484 11.3383C81.9978 11.3383 82.6296 11.0794 83.0439 10.5615C83.4686 10.0436 83.6809 9.2564 83.6809 8.1999C83.6809 7.23661 83.5048 6.50638 83.1527 6.0092C82.8109 5.51202 82.2981 5.26344 81.6145 5.26344Z" fill="white"/>
<path d="M69.218 10.4993C70.2745 11.0069 71.3207 11.2607 72.3565 11.2607C73.1851 11.2607 73.8273 11.0846 74.283 10.7324C74.7388 10.3802 74.9667 9.87787 74.9667 9.22532C74.9667 8.74886 74.8216 8.36044 74.5316 8.06006C74.2416 7.75968 73.7548 7.50074 73.0712 7.28322L72.0457 6.95695C71.1239 6.66693 70.4558 6.3044 70.0415 5.86937C69.6375 5.42398 69.4355 4.86465 69.4355 4.19139C69.4355 3.25918 69.7825 2.51859 70.4765 1.96962C71.1705 1.41029 72.1027 1.13063 73.2731 1.13063C74.2468 1.13063 75.1842 1.33261 76.0853 1.73657V2.9329C75.1324 2.5393 74.2416 2.3425 73.413 2.3425C72.6672 2.3425 72.0768 2.50305 71.6418 2.82415C71.2171 3.13488 71.0048 3.56474 71.0048 4.1137C71.0048 4.51766 71.1239 4.83876 71.3621 5.07699C71.6107 5.31522 72.0354 5.53274 72.6361 5.72954L73.6616 6.05581C74.687 6.38726 75.4224 6.80158 75.8678 7.29876C76.3132 7.78558 76.5359 8.42259 76.5359 9.20979C76.5359 10.2352 76.1785 11.038 75.4638 11.618C74.7491 12.1877 73.76 12.4725 72.4963 12.4725C71.3466 12.4725 70.3263 12.255 69.4355 11.82L69.218 10.4993Z" fill="white"/>
<path d="M57.1392 12.2395V0.571304L58.5996 0.400398V4.75072C59.3972 4.32604 60.1792 4.1137 60.9457 4.1137C61.8054 4.1137 62.4683 4.34158 62.9344 4.79733C63.4109 5.24271 63.6491 5.87973 63.6491 6.70836V12.2395H62.1886V6.92587C62.1886 5.81758 61.6397 5.26343 60.5417 5.26343C60.2517 5.26343 59.9254 5.31522 59.5629 5.4188C59.2107 5.51202 58.8896 5.64149 58.5996 5.80722V12.2395H57.1392Z" fill="white"/>
<path d="M53.2968 5.40326V9.94002C53.2968 10.4061 53.4004 10.7531 53.6075 10.981C53.8147 11.1985 54.1306 11.3073 54.5553 11.3073C54.8764 11.3073 55.2182 11.2503 55.5807 11.1364V12.1773C55.1457 12.3431 54.6951 12.4259 54.229 12.4259C53.4418 12.4259 52.8462 12.2188 52.4423 11.8044C52.0383 11.3901 51.8363 10.7842 51.8363 9.98663V5.40326H50.6555V4.40891L51.8985 4.36229L52.0072 2.38911L53.2968 2.24928V4.34676H55.503V5.40326H53.2968Z" fill="white"/>
<path d="M47.6867 12.2395V4.47105L49.1471 4.30014V12.2395H47.6867ZM48.4169 2.73092C48.1165 2.73092 47.8783 2.65324 47.7022 2.49787C47.5365 2.33215 47.4536 2.10945 47.4536 1.82979C47.4536 1.55012 47.5365 1.33261 47.7022 1.17724C47.8783 1.01151 48.1165 0.92865 48.4169 0.92865C48.7173 0.92865 48.9503 1.01151 49.1161 1.17724C49.2921 1.33261 49.3802 1.55012 49.3802 1.82979C49.3802 2.10945 49.2921 2.33215 49.1161 2.49787C48.9503 2.65324 48.7173 2.73092 48.4169 2.73092Z" fill="white"/>
<path d="M42.6021 12.2395L40.7532 5.8849L38.9664 12.2395H37.6303L35.1599 4.34676H36.6359L38.3294 10.4683L40.0074 4.34676H41.5456L43.2546 10.4683L44.9326 4.34676H46.362L43.9382 12.2395H42.6021Z" fill="white"/>
<path d="M24.5786 12.2395V0.571304L26.0391 0.400398V7.73379L29.2863 4.34676H30.9643L27.4374 8.01345L31.1352 12.2395H29.364L26.0391 8.3708V12.2395H24.5786Z" fill="white"/>
<path d="M22.7802 11.9598C22.0655 12.3016 21.2731 12.4725 20.4031 12.4725C19.2637 12.4725 18.3833 12.11 17.7618 11.385C17.1403 10.6599 16.8296 9.63447 16.8296 8.30866C16.8296 6.97249 17.1403 5.94188 17.7618 5.21682C18.3936 4.48141 19.2792 4.11371 20.4186 4.11371C21.2162 4.11371 21.9878 4.28461 22.7336 4.62642V5.74508C22.0189 5.43434 21.3353 5.27897 20.6827 5.27897C19.9162 5.27897 19.3362 5.53274 18.9426 6.04028C18.549 6.54781 18.3522 7.29876 18.3522 8.29312C18.3522 9.27712 18.549 10.0281 18.9426 10.546C19.3362 11.0535 19.9162 11.3073 20.6827 11.3073C21.3353 11.3073 22.0344 11.1519 22.7802 10.8412V11.9598Z" fill="white"/>
<path d="M13.844 12.2706L13.7507 11.7268C12.8807 12.2239 12.0365 12.4725 11.2182 12.4725C10.4 12.4725 9.74741 12.255 9.26059 11.82C8.78413 11.3746 8.5459 10.779 8.5459 10.0332C8.5459 9.2564 8.8152 8.65565 9.35381 8.23097C9.89242 7.79594 10.6486 7.57842 11.6222 7.57842C12.1919 7.57842 12.8496 7.64575 13.5954 7.7804V6.95695C13.5954 6.38727 13.4296 5.96259 13.0982 5.68293C12.7771 5.40327 12.2799 5.26344 11.6067 5.26344C10.8195 5.26344 9.95975 5.4447 9.02754 5.80722V4.67303C9.46257 4.49695 9.93386 4.3623 10.4414 4.26908C10.9489 4.1655 11.4306 4.11371 11.8863 4.11371C12.9118 4.11371 13.6886 4.35194 14.2168 4.8284C14.7555 5.30487 15.0248 6.00402 15.0248 6.92588V12.1463L13.844 12.2706ZM11.5911 11.3383C11.8915 11.3383 12.2281 11.2865 12.601 11.183C12.9739 11.0794 13.3054 10.9447 13.5954 10.779V8.7903C13.1086 8.666 12.5337 8.60386 11.8708 8.60386C11.2493 8.60386 10.7884 8.72297 10.488 8.9612C10.198 9.18908 10.053 9.53607 10.053 10.0022C10.053 10.893 10.5657 11.3383 11.5911 11.3383Z" fill="white"/>
<path d="M1.64137 4.73518C2.41821 4.32086 3.14845 4.1137 3.83207 4.1137C4.84714 4.1137 5.63952 4.47623 6.2092 5.20128C6.78925 5.91598 7.07927 6.90516 7.07927 8.16882C7.07927 9.55678 6.7271 10.6236 6.02276 11.3694C5.31842 12.1048 4.31371 12.4725 3.00861 12.4725C2.0764 12.4725 1.13383 12.3379 0.180908 12.0686V0.571304L1.64137 0.400398V4.73518ZM3.49026 5.26343C3.21059 5.26343 2.89986 5.31522 2.55805 5.4188C2.22659 5.51202 1.92103 5.64149 1.64137 5.80722V11.1519C2.0764 11.2762 2.53733 11.3383 3.02415 11.3383C3.8735 11.3383 4.50533 11.0794 4.91965 10.5615C5.34432 10.0436 5.55666 9.2564 5.55666 8.19989C5.55666 7.23661 5.38057 6.50638 5.0284 6.0092C4.68659 5.51202 4.17388 5.26343 3.49026 5.26343Z" fill="white"/>
</svg>
