<svg width="97" height="16" viewBox="0 0 97 16" fill="none" xmlns="http://www.w3.org/2000/svg">
<path d="M95.4622 8.94566L95.2758 1.36368L96.7984 1.20831L96.612 8.94566H95.4622ZM96.0371 12.3172C95.7574 12.3172 95.5296 12.2291 95.3535 12.053C95.1774 11.8769 95.0894 11.6491 95.0894 11.3694C95.0894 11.0897 95.1774 10.8619 95.3535 10.6858C95.5296 10.5097 95.7574 10.4217 96.0371 10.4217C96.3168 10.4217 96.5446 10.5097 96.7207 10.6858C96.8968 10.8619 96.9848 11.0897 96.9848 11.3694C96.9848 11.6491 96.8968 11.8769 96.7207 12.053C96.5446 12.2291 96.3168 12.3172 96.0371 12.3172Z" fill="white"/>
<path d="M87.2732 10.7946C88.1018 11.1571 88.9305 11.3383 89.7591 11.3383C90.3598 11.3383 90.8156 11.2244 91.1263 10.9965C91.4474 10.7687 91.608 10.4424 91.608 10.0177C91.608 9.73804 91.5199 9.51018 91.3438 9.33409C91.1678 9.15801 90.8777 9.00782 90.4738 8.88352L89.4173 8.55724C88.7129 8.33973 88.2002 8.06006 87.8791 7.71825C87.558 7.37644 87.3975 6.94142 87.3975 6.41316C87.3975 5.70883 87.672 5.1495 88.2209 4.73518C88.7699 4.32087 89.5105 4.11371 90.4427 4.11371C91.2299 4.11371 91.9809 4.26908 92.6956 4.57982V5.69847C91.9084 5.39809 91.1885 5.2479 90.5359 5.2479C90.0077 5.2479 89.5934 5.35148 89.293 5.55864C89.003 5.75544 88.858 6.02474 88.858 6.36655C88.858 6.61514 88.9356 6.81194 89.091 6.95695C89.2464 7.09161 89.5364 7.22626 89.9611 7.36091L91.1419 7.71825C92.4262 8.1015 93.0684 8.86281 93.0684 10.0022C93.0684 10.7997 92.794 11.4108 92.245 11.8355C91.696 12.2602 90.9036 12.4725 89.8679 12.4725C88.9046 12.4725 88.0966 12.312 87.4441 11.9909L87.2732 10.7946Z" fill="white"/>
<path d="M80.2026 10.7946C81.0313 11.1571 81.8599 11.3383 82.6885 11.3383C83.2893 11.3383 83.745 11.2244 84.0558 10.9965C84.3769 10.7687 84.5374 10.4424 84.5374 10.0177C84.5374 9.73804 84.4494 9.51018 84.2733 9.33409C84.0972 9.15801 83.8072 9.00782 83.4032 8.88352L82.3467 8.55724C81.6424 8.33973 81.1297 8.06006 80.8086 7.71825C80.4875 7.37644 80.3269 6.94142 80.3269 6.41316C80.3269 5.70883 80.6014 5.1495 81.1504 4.73518C81.6994 4.32087 82.4399 4.11371 83.3722 4.11371C84.1594 4.11371 84.9103 4.26908 85.625 4.57982V5.69847C84.8378 5.39809 84.1179 5.2479 83.4654 5.2479C82.9371 5.2479 82.5228 5.35148 82.2224 5.55864C81.9324 5.75544 81.7874 6.02474 81.7874 6.36655C81.7874 6.61514 81.8651 6.81194 82.0204 6.95695C82.1758 7.09161 82.4658 7.22626 82.8905 7.36091L84.0713 7.71825C85.3557 8.1015 85.9979 8.86281 85.9979 10.0022C85.9979 10.7997 85.7234 11.4108 85.1744 11.8355C84.6255 12.2602 83.8331 12.4725 82.7973 12.4725C81.834 12.4725 81.0261 12.312 80.3735 11.9909L80.2026 10.7946Z" fill="white"/>
<path d="M78.4867 11.9443C77.772 12.2965 76.9745 12.4725 76.0941 12.4725C74.8097 12.4725 73.8309 12.1152 73.1576 11.4005C72.4843 10.6858 72.1477 9.63965 72.1477 8.26205C72.1477 7.4127 72.2979 6.67729 72.5983 6.05582C72.8987 5.42399 73.3181 4.94234 73.8568 4.61089C74.3954 4.27943 75.0117 4.11371 75.7056 4.11371C76.6793 4.11371 77.4458 4.40373 78.0051 4.98377C78.5644 5.56381 78.8441 6.36655 78.8441 7.39198C78.8441 7.79594 78.8078 8.19472 78.7353 8.58832H73.5926C73.6237 10.4217 74.5145 11.3383 76.265 11.3383C77.0211 11.3383 77.7617 11.1726 78.4867 10.8412V11.9443ZM75.7056 5.18575C75.1049 5.18575 74.6129 5.39809 74.2296 5.82276C73.8568 6.24744 73.6444 6.8223 73.5926 7.54736H77.4924C77.5027 7.49557 77.5079 7.44377 77.5079 7.39198C77.5079 7.34019 77.5079 7.28841 77.5079 7.23662C77.5079 6.59443 77.3474 6.09206 77.0263 5.72954C76.7155 5.36701 76.2753 5.18575 75.7056 5.18575Z" fill="white"/>
<path d="M68.8783 12.2395V6.92588C68.8783 5.81759 68.3294 5.26344 67.2314 5.26344C66.9414 5.26344 66.6151 5.31523 66.2526 5.41881C65.9004 5.51203 65.5793 5.6415 65.2893 5.80723V12.2395H63.8289V4.43999L65.0097 4.31569L65.1029 4.85948C65.9522 4.3623 66.7964 4.11371 67.6354 4.11371C68.4951 4.11371 69.158 4.34159 69.6241 4.79733C70.1006 5.24272 70.3388 5.87973 70.3388 6.70837V12.2395H68.8783Z" fill="white"/>
<path d="M60.0053 12.2395V4.47105L61.4657 4.30015V12.2395H60.0053ZM60.7355 2.73093C60.4351 2.73093 60.1969 2.65324 60.0208 2.49787C59.8551 2.33215 59.7722 2.10945 59.7722 1.82979C59.7722 1.55012 59.8551 1.33261 60.0208 1.17724C60.1969 1.01151 60.4351 0.92865 60.7355 0.92865C61.0359 0.92865 61.2689 1.01151 61.4347 1.17724C61.6107 1.33261 61.6988 1.55012 61.6988 1.82979C61.6988 2.10945 61.6107 2.33215 61.4347 2.49787C61.2689 2.65324 61.0359 2.73093 60.7355 2.73093Z" fill="white"/>
<path d="M52.3911 10.7946C53.2197 11.1571 54.0484 11.3383 54.877 11.3383C55.4778 11.3383 55.9335 11.2244 56.2443 10.9965C56.5653 10.7687 56.7259 10.4424 56.7259 10.0177C56.7259 9.73804 56.6379 9.51018 56.4618 9.33409C56.2857 9.15801 55.9957 9.00782 55.5917 8.88352L54.5352 8.55724C53.8309 8.33973 53.3181 8.06006 52.9971 7.71825C52.676 7.37644 52.5154 6.94142 52.5154 6.41316C52.5154 5.70883 52.7899 5.1495 53.3389 4.73518C53.8878 4.32087 54.6284 4.11371 55.5606 4.11371C56.3478 4.11371 57.0988 4.26908 57.8135 4.57982V5.69847C57.0263 5.39809 56.3064 5.2479 55.6539 5.2479C55.1256 5.2479 54.7113 5.35148 54.4109 5.55864C54.1209 5.75544 53.9759 6.02474 53.9759 6.36655C53.9759 6.61514 54.0536 6.81194 54.2089 6.95695C54.3643 7.09161 54.6543 7.22626 55.079 7.36091L56.2598 7.71825C57.5442 8.1015 58.1864 8.86281 58.1864 10.0022C58.1864 10.7997 57.9119 11.4108 57.3629 11.8355C56.8139 12.2602 56.0216 12.4725 54.9858 12.4725C54.0225 12.4725 53.2146 12.312 52.562 11.9909L52.3911 10.7946Z" fill="white"/>
<path d="M49.4 12.2705L49.3067 11.7268C48.4574 12.2239 47.6132 12.4725 46.7742 12.4725C45.9352 12.4725 45.2827 12.2446 44.8166 11.7889C44.3505 11.3332 44.1174 10.6961 44.1174 9.87787V4.34676H45.5779V9.66035C45.5779 10.7686 46.1113 11.3228 47.1782 11.3228C47.4786 11.3228 47.8048 11.2762 48.157 11.183C48.5092 11.0794 48.8303 10.9447 49.1203 10.779V4.34676H50.5808V12.1462L49.4 12.2705Z" fill="white"/>
<path d="M36.8709 4.73517C37.6477 4.32085 38.3779 4.11369 39.0616 4.11369C40.0766 4.11369 40.869 4.47622 41.4387 5.20127C42.0187 5.91597 42.3088 6.90515 42.3088 8.16881C42.3088 9.55677 41.9566 10.6236 41.2523 11.3694C40.5479 12.1048 39.5432 12.4725 38.2381 12.4725C37.3059 12.4725 36.3633 12.3379 35.4104 12.0686V0.571297L36.8709 0.400391V4.73517ZM38.7197 5.26342C38.4401 5.26342 38.1293 5.31521 37.7875 5.41879C37.4561 5.51201 37.1505 5.64149 36.8709 5.80721V11.1519C37.3059 11.2762 37.7668 11.3383 38.2536 11.3383C39.103 11.3383 39.7348 11.0794 40.1491 10.5615C40.5738 10.0436 40.7861 9.25639 40.7861 8.19988C40.7861 7.2366 40.6101 6.50637 40.2579 6.00919C39.9161 5.51201 39.4034 5.26342 38.7197 5.26342Z" fill="white"/>
<path d="M25.8516 12.2395V4.43997L27.0324 4.31567L27.1567 5.03036C27.8403 4.45032 28.5705 4.16031 29.3474 4.16031C29.5856 4.16031 29.8238 4.19656 30.062 4.26907V5.4654C29.8135 5.40325 29.5597 5.37218 29.3007 5.37218C28.555 5.37218 27.8921 5.60523 27.312 6.07133V12.2395H25.8516Z" fill="white"/>
<path d="M22.3167 12.2705L22.2235 11.7268C21.3741 12.2239 20.53 12.4725 19.691 12.4725C18.852 12.4725 18.1994 12.2446 17.7333 11.7889C17.2672 11.3332 17.0342 10.6961 17.0342 9.87787V4.34676H18.4946V9.66035C18.4946 10.7686 19.0281 11.3228 20.0949 11.3228C20.3953 11.3228 20.7216 11.2762 21.0738 11.183C21.4259 11.0794 21.747 10.9447 22.037 10.779V4.34676H23.4975V12.1462L22.3167 12.2705Z" fill="white"/>
<path d="M11.6474 11.3228C12.3724 11.3228 12.8955 11.0846 13.2166 10.6081C13.548 10.1316 13.7138 9.35998 13.7138 8.29312C13.7138 7.22626 13.548 6.4546 13.2166 5.97813C12.8955 5.50167 12.3724 5.26344 11.6474 5.26344C10.9223 5.26344 10.3941 5.50167 10.0626 5.97813C9.74151 6.4546 9.58096 7.22626 9.58096 8.29312C9.58096 9.35998 9.74151 10.1316 10.0626 10.6081C10.3941 11.0846 10.9223 11.3228 11.6474 11.3228ZM11.6474 12.4725C10.4666 12.4725 9.5706 12.1204 8.95949 11.416C8.35873 10.7013 8.05835 9.66036 8.05835 8.29312C8.05835 6.92588 8.35873 5.89009 8.95949 5.18575C9.5706 4.47106 10.4666 4.11371 11.6474 4.11371C12.8282 4.11371 13.7189 4.47106 14.3197 5.18575C14.9308 5.89009 15.2364 6.92588 15.2364 8.29312C15.2364 9.66036 14.9308 10.7013 14.3197 11.416C13.7189 12.1204 12.8282 12.4725 11.6474 12.4725Z" fill="white"/>
<path d="M0.24863 14.5079C0.745809 14.425 1.15495 14.3059 1.47604 14.1505C1.80749 13.9951 2.09751 13.7724 2.3461 13.4824C2.59469 13.1924 2.83293 12.804 3.0608 12.3172L0.0932617 4.34676H1.64695L3.77549 10.6702L5.90404 4.34676H7.39558L4.5368 11.9443C4.22606 12.7729 3.90497 13.4358 3.57351 13.933C3.24206 14.4405 2.84846 14.8341 2.39271 15.1138C1.93697 15.4038 1.33621 15.6265 0.590441 15.7819L0.24863 14.5079Z" fill="white"/>
</svg>
