<svg width="309" height="53" viewBox="0 0 309 53" fill="none" xmlns="http://www.w3.org/2000/svg">
<path d="M7.02637 16.1148C7.02637 14.6302 7.35618 13.5034 8.02347 12.7344C8.69076 11.9578 9.65719 11.5771 10.9227 11.5771C12.1883 11.5771 13.1547 11.9654 13.822 12.7344C14.4893 13.511 14.8191 14.6378 14.8191 16.1148C14.8191 17.5918 14.4893 18.7262 13.822 19.4952C13.1547 20.2718 12.1883 20.6525 10.9227 20.6525C9.65719 20.6525 8.69076 20.2642 8.02347 19.4952C7.35618 18.7186 7.02637 17.5918 7.02637 16.1148ZM8.91319 16.1148C8.91319 17.1959 9.07426 17.9953 9.40408 18.4978C9.72622 19.0003 10.2401 19.2516 10.9304 19.2516C11.6207 19.2516 12.1269 19.0003 12.4567 18.4978C12.7866 17.9953 12.9476 17.1959 12.9476 16.1148C12.9476 15.0337 12.7866 14.2343 12.4567 13.7318C12.1346 13.2293 11.6207 12.978 10.9304 12.978C10.2401 12.978 9.72622 13.2293 9.40408 13.7318C9.08193 14.2343 8.91319 15.0337 8.91319 16.1148Z" fill="white"/>
<path d="M21.0317 20.4545V15.2697H18.3318V20.4545H16.6444V15.2697H15.6934V14.1505L16.6444 14.1125V13.0923C16.6444 12.3918 16.8362 11.836 17.2274 11.4325C17.6185 11.029 18.1478 10.8311 18.8304 10.8311C19.2753 10.8311 19.6818 10.8996 20.0576 11.0442V12.1863C19.7585 12.1101 19.4977 12.0721 19.2676 12.0721C18.9685 12.0721 18.7384 12.1558 18.5773 12.3157C18.4162 12.4756 18.3318 12.7116 18.3318 13.0314V14.082H21.0317V13.0923C21.0317 12.3918 21.2234 11.836 21.6146 11.4325C21.9981 11.029 22.535 10.8311 23.2177 10.8311C23.5781 10.8311 23.9463 10.892 24.3145 11.0214V12.1634C24.0844 12.1025 23.8619 12.0797 23.6548 12.0797C23.3557 12.0797 23.1256 12.1634 22.9569 12.3233C22.7881 12.4832 22.7114 12.7192 22.7114 13.039V14.0896H24.2378V15.2697H22.7114V20.4545H21.024H21.0317ZM26.255 13.0847C25.9405 13.0847 25.6951 13.0009 25.5187 12.8334C25.3423 12.6659 25.2579 12.4375 25.2579 12.1482C25.2579 11.8589 25.3423 11.6305 25.5187 11.463C25.6951 11.2955 25.9405 11.2117 26.255 11.2117C26.5695 11.2117 26.8226 11.2955 26.999 11.463C27.1754 11.6305 27.2674 11.8589 27.2674 12.1482C27.2674 12.4375 27.1754 12.6659 26.999 12.8334C26.8226 13.0009 26.5695 13.0847 26.255 13.0847ZM25.419 20.4545V14.2115L27.1064 14.0516V20.4545H25.419Z" fill="white"/>
<path d="M33.4647 20.2185C32.8281 20.5078 32.1685 20.6525 31.4782 20.6525C30.4964 20.6525 29.7371 20.3631 29.2078 19.7845C28.6786 19.2059 28.4102 18.376 28.4102 17.2873C28.4102 16.1985 28.6709 15.3534 29.2078 14.7672C29.7371 14.181 30.4964 13.884 31.4858 13.884C32.1301 13.884 32.7744 14.0287 33.4264 14.318V15.5438C32.8281 15.3001 32.2912 15.1859 31.8233 15.1859C30.7265 15.1859 30.1743 15.8788 30.1743 17.2568C30.1743 17.942 30.3123 18.4598 30.5961 18.8176C30.8799 19.1754 31.2864 19.3429 31.831 19.3429C32.2989 19.3429 32.8434 19.2211 33.4724 18.9851V20.2109L33.4647 20.2185Z" fill="white"/>
<path d="M35.5591 13.0848C35.2446 13.0848 34.9992 13.0011 34.8228 12.8336C34.6464 12.6661 34.562 12.4377 34.562 12.1484C34.562 11.8591 34.6464 11.6307 34.8228 11.4632C34.9992 11.2957 35.2446 11.2119 35.5591 11.2119C35.8736 11.2119 36.1267 11.2957 36.3031 11.4632C36.4795 11.6307 36.5716 11.8591 36.5716 12.1484C36.5716 12.4377 36.4795 12.6661 36.3031 12.8336C36.1267 13.0011 35.8736 13.0848 35.5591 13.0848ZM34.7231 20.4547V14.2116L36.4105 14.0518V20.4547H34.7231Z" fill="white"/>
<path d="M41.9404 20.4926L41.8407 20.0814C41.1887 20.4621 40.5368 20.6525 39.8925 20.6525C39.2482 20.6525 38.696 20.4697 38.2971 20.1043C37.8983 19.7388 37.7065 19.2516 37.7065 18.6273C37.7065 18.0029 37.929 17.4928 38.3662 17.135C38.8034 16.7772 39.417 16.6021 40.207 16.6021C40.6748 16.6021 41.1504 16.6477 41.6336 16.7391V16.2442C41.6336 15.8635 41.5185 15.5818 41.2961 15.4067C41.0737 15.2316 40.7209 15.1403 40.2453 15.1403C39.6087 15.1403 38.9107 15.2849 38.1437 15.559V14.3408C38.5042 14.2038 38.8954 14.0896 39.3326 14.0058C39.7621 13.9221 40.1763 13.884 40.5598 13.884C41.4418 13.884 42.1168 14.082 42.5923 14.4779C43.0602 14.8738 43.298 15.4448 43.298 16.1909V20.3479L41.9481 20.485L41.9404 20.4926ZM40.4064 19.4495C40.5905 19.4495 40.7899 19.4191 41.0123 19.3658C41.2348 19.3049 41.4418 19.2363 41.6336 19.145V17.7898C41.2501 17.6984 40.9049 17.6527 40.5981 17.6527C39.8005 17.6527 39.3939 17.9573 39.3939 18.574C39.3939 18.8633 39.4783 19.0841 39.6471 19.2287C39.8158 19.381 40.0689 19.4495 40.4064 19.4495Z" fill="white"/>
<path d="M44.8555 20.4545V11.1203L46.5429 10.9604V20.4545H44.8555Z" fill="white"/>
<path d="M51.4434 20.4549V11.943C51.8499 11.8593 52.3331 11.7908 52.8853 11.7451C53.4376 11.6994 53.9284 11.6689 54.358 11.6689C55.4011 11.6689 56.1911 11.8593 56.7357 12.2552C57.2802 12.6435 57.5487 13.2069 57.5487 13.953C57.5487 14.8742 57.0578 15.5138 56.0761 15.8868C56.682 16.0391 57.1499 16.298 57.4643 16.671C57.7788 17.0441 57.9399 17.5085 57.9399 18.0643C57.9399 18.8333 57.6638 19.4271 57.1115 19.8383C56.5593 20.2494 55.7769 20.4626 54.7491 20.4626H51.451L51.4434 20.4549ZM54.2813 12.9709C53.7674 12.9709 53.3762 13.0013 53.1078 13.0546V15.3843H54.4807C54.9179 15.3843 55.2554 15.2778 55.5085 15.0646C55.7616 14.8514 55.8843 14.5545 55.8843 14.1738C55.8843 13.7703 55.7539 13.4657 55.4931 13.2678C55.2324 13.0698 54.8258 12.9709 54.2889 12.9709H54.2813ZM54.6801 19.153C55.6772 19.153 56.1834 18.7419 56.1834 17.912C56.1834 17.5085 56.053 17.1964 55.7923 16.9756C55.5315 16.7548 55.1557 16.6482 54.6724 16.6482H53.1078V19.153H54.6801Z" fill="white"/>
<path d="M63.1093 20.4926L63.0096 20.0814C62.3577 20.4621 61.7057 20.6525 61.0614 20.6525C60.4172 20.6525 59.8649 20.4697 59.4661 20.1043C59.0672 19.7388 58.8755 19.2516 58.8755 18.6273C58.8755 18.0029 59.0979 17.4928 59.5351 17.135C59.9723 16.7772 60.5859 16.6021 61.3759 16.6021C61.8438 16.6021 62.3193 16.6477 62.8025 16.7391V16.2442C62.8025 15.8635 62.6875 15.5818 62.4651 15.4067C62.2426 15.2316 61.8898 15.1403 61.4143 15.1403C60.7777 15.1403 60.0797 15.2849 59.3127 15.559V14.3408C59.6732 14.2038 60.0643 14.0896 60.5015 14.0058C60.9311 13.9221 61.3452 13.884 61.7287 13.884C62.6108 13.884 63.2858 14.082 63.7613 14.4779C64.2292 14.8738 64.4669 15.4448 64.4669 16.1909V20.3479L63.117 20.485L63.1093 20.4926ZM61.5753 19.4495C61.7594 19.4495 61.9588 19.4191 62.1813 19.3658C62.4037 19.3049 62.6108 19.2363 62.8025 19.145V17.7898C62.419 17.6984 62.0739 17.6527 61.7671 17.6527C60.9694 17.6527 60.5629 17.9573 60.5629 18.574C60.5629 18.8633 60.6473 19.0841 60.816 19.2287C60.9847 19.381 61.2379 19.4495 61.5753 19.4495Z" fill="white"/>
<path d="M69.9508 20.4547V16.2748C69.9508 15.9018 69.8665 15.6277 69.6977 15.4526C69.529 15.2775 69.2682 15.1861 68.9077 15.1861C68.7083 15.1861 68.5012 15.2166 68.2788 15.2775C68.064 15.3384 67.8723 15.4221 67.7035 15.5211V20.4623H66.0161V14.1963L67.366 14.0593L67.4657 14.4704C68.1177 14.0898 68.7543 13.8994 69.3909 13.8994C70.1042 13.8994 70.6565 14.0898 71.0476 14.4628C71.4388 14.8359 71.6306 15.3688 71.6306 16.054V20.4623H69.9432L69.9508 20.4547Z" fill="white"/>
<path d="M73.2109 20.4545V11.1203L74.8983 10.9604V16.7163L77.115 14.082H79.0171L76.5627 16.9371L79.2012 20.4469H77.161L74.8983 17.4091V20.4469H73.2109V20.4545Z" fill="white"/>
<path d="M87.0478 20.4926L86.9481 20.0814C86.2962 20.4621 85.6442 20.6525 84.9999 20.6525C84.3556 20.6525 83.8034 20.4697 83.4046 20.1043C83.0057 19.7388 82.814 19.2516 82.814 18.6273C82.814 18.0029 83.0364 17.4928 83.4736 17.135C83.9108 16.7772 84.5244 16.6021 85.3144 16.6021C85.7823 16.6021 86.2578 16.6477 86.741 16.7391V16.2442C86.741 15.8635 86.626 15.5818 86.4035 15.4067C86.1811 15.2316 85.8283 15.1403 85.3527 15.1403C84.7161 15.1403 84.0182 15.2849 83.2512 15.559V14.3408C83.6116 14.2038 84.0028 14.0896 84.44 14.0058C84.8695 13.9221 85.2837 13.884 85.6672 13.884C86.5493 13.884 87.2242 14.082 87.6998 14.4779C88.1676 14.8738 88.4054 15.4448 88.4054 16.1909V20.3479L87.0555 20.485L87.0478 20.4926ZM85.5138 19.4495C85.6979 19.4495 85.8973 19.4191 86.1197 19.3658C86.3422 19.3049 86.5493 19.2363 86.741 19.145V17.7898C86.3575 17.6984 86.0124 17.6527 85.7056 17.6527C84.9079 17.6527 84.5014 17.9573 84.5014 18.574C84.5014 18.8633 84.5857 19.0841 84.7545 19.2287C84.9232 19.381 85.1763 19.4495 85.5138 19.4495Z" fill="white"/>
<path d="M93.8898 20.4547V16.2748C93.8898 15.9018 93.8054 15.6277 93.6367 15.4526C93.4679 15.2775 93.2072 15.1861 92.8467 15.1861C92.6473 15.1861 92.4402 15.2166 92.2177 15.2775C92.003 15.3384 91.8112 15.4221 91.6425 15.5211V20.4623H89.9551V14.1963L91.305 14.0593L91.4047 14.4704C92.0567 14.0898 92.6933 13.8994 93.3299 13.8994C94.0432 13.8994 94.5954 14.0898 94.9866 14.4628C95.3778 14.8359 95.5695 15.3688 95.5695 16.054V20.4623H93.8821L93.8898 20.4547Z" fill="white"/>
<path d="M102.764 10.9604V20.3555L101.414 20.4926L101.314 20.0814C101.015 20.2566 100.7 20.3936 100.363 20.5002C100.025 20.6068 99.7262 20.6525 99.4501 20.6525C98.6294 20.6525 97.9928 20.3631 97.5326 19.7845C97.0724 19.2059 96.8423 18.3989 96.8423 17.3786C96.8423 16.2671 97.1184 15.4144 97.663 14.8053C98.2075 14.1962 98.9746 13.8917 99.9717 13.8917C100.332 13.8917 100.7 13.9373 101.084 14.0287V11.1279L102.771 10.9681L102.764 10.9604ZM99.9256 19.3658C100.102 19.3658 100.294 19.3353 100.509 19.2744C100.723 19.2135 100.907 19.1298 101.076 19.0308V15.224C100.815 15.1631 100.539 15.1403 100.248 15.1403C99.6879 15.1403 99.2737 15.323 99.0052 15.6808C98.7368 16.0387 98.5987 16.5945 98.5987 17.3482C98.5987 18.6958 99.0436 19.3734 99.9256 19.3734V19.3658Z" fill="white"/>
<path d="M113.609 20.0815C112.857 20.4622 112.044 20.6525 111.155 20.6525C109.927 20.6525 108.984 20.2566 108.309 19.4724C107.634 18.6882 107.304 17.569 107.304 16.1072C107.304 14.6454 107.642 13.5643 108.317 12.7649C108.992 11.9655 109.935 11.5696 111.155 11.5696C112.014 11.5696 112.811 11.7599 113.555 12.1406V13.5186C113.156 13.3283 112.804 13.1913 112.489 13.1151C112.182 13.039 111.837 13.0009 111.461 13.0009C110.717 13.0009 110.157 13.2598 109.782 13.7851C109.406 14.3104 109.214 15.087 109.214 16.1149C109.214 18.1933 109.966 19.2288 111.461 19.2288C111.822 19.2288 112.167 19.1907 112.489 19.107C112.819 19.0232 113.187 18.8938 113.594 18.7111V20.0891L113.609 20.0815Z" fill="white"/>
<path d="M114.944 20.4547V14.1888L116.294 14.0517L116.432 14.638C116.954 14.166 117.537 13.9299 118.173 13.9299C118.373 13.9299 118.58 13.9604 118.802 14.0137V15.3917C118.549 15.3308 118.334 15.308 118.143 15.308C117.567 15.308 117.069 15.4679 116.639 15.78V20.4623H114.952L114.944 20.4547Z" fill="white"/>
<path d="M124.93 20.2033C124.324 20.5002 123.649 20.6525 122.905 20.6525C121.808 20.6525 120.965 20.3631 120.382 19.7845C119.799 19.2059 119.507 18.3608 119.507 17.2492C119.507 16.5716 119.638 15.9778 119.899 15.4676C120.159 14.9575 120.52 14.5693 120.98 14.2952C121.44 14.0211 121.962 13.884 122.552 13.884C123.388 13.884 124.04 14.1201 124.516 14.5997C124.991 15.0794 125.229 15.7265 125.229 16.5564C125.229 16.9447 125.191 17.3253 125.114 17.6984H121.164C121.195 18.277 121.379 18.7034 121.701 18.9851C122.023 19.2668 122.499 19.4038 123.112 19.4038C123.726 19.4038 124.347 19.2668 124.922 18.9927V20.2109L124.93 20.2033ZM122.552 15.0565C122.161 15.0565 121.839 15.1936 121.594 15.46C121.348 15.7265 121.195 16.092 121.156 16.5564H123.68V16.3737C123.68 15.9397 123.58 15.6123 123.388 15.3915C123.197 15.1707 122.92 15.0565 122.552 15.0565Z" fill="white"/>
<path d="M132.155 10.9604V20.3555L130.805 20.4926L130.706 20.0814C130.406 20.2566 130.092 20.3936 129.754 20.5002C129.417 20.6068 129.118 20.6525 128.842 20.6525C128.021 20.6525 127.384 20.3631 126.924 19.7845C126.464 19.2059 126.234 18.3989 126.234 17.3786C126.234 16.2671 126.51 15.4144 127.055 14.8053C127.599 14.1962 128.366 13.8917 129.363 13.8917C129.724 13.8917 130.092 13.9373 130.475 14.0287V11.1279L132.163 10.9681L132.155 10.9604ZM129.317 19.3658C129.494 19.3658 129.685 19.3353 129.9 19.2744C130.115 19.2135 130.299 19.1298 130.468 19.0308V15.224C130.207 15.1631 129.931 15.1403 129.639 15.1403C129.079 15.1403 128.665 15.323 128.397 15.6808C128.128 16.0387 127.99 16.5945 127.99 17.3482C127.99 18.6958 128.435 19.3734 129.317 19.3734V19.3658Z" fill="white"/>
<path d="M134.617 13.0848C134.303 13.0848 134.057 13.0011 133.881 12.8336C133.704 12.6661 133.62 12.4377 133.62 12.1484C133.62 11.8591 133.704 11.6307 133.881 11.4632C134.057 11.2957 134.303 11.2119 134.617 11.2119C134.932 11.2119 135.185 11.2957 135.361 11.4632C135.538 11.6307 135.63 11.8591 135.63 12.1484C135.63 12.4377 135.538 12.6661 135.361 12.8336C135.185 13.0011 134.932 13.0848 134.617 13.0848ZM133.781 20.4547V14.2116L135.469 14.0518V20.4547H133.781Z" fill="white"/>
<path d="M139.181 15.2697V18.4598C139.181 19.0765 139.48 19.3887 140.071 19.3887C140.285 19.3887 140.554 19.343 140.868 19.2516V20.3784C140.5 20.5459 140.078 20.6297 139.603 20.6297C138.913 20.6297 138.383 20.4545 138.03 20.0967C137.67 19.7389 137.494 19.2212 137.494 18.5436V15.2697H136.542V14.1506L137.578 14.1125L137.693 12.5136L139.181 12.3538V14.0896H140.83V15.2697H139.181Z" fill="white"/>
<path d="M151.223 20.0815C150.472 20.4622 149.659 20.6525 148.769 20.6525C147.542 20.6525 146.598 20.2566 145.923 19.4724C145.248 18.6882 144.918 17.569 144.918 16.1072C144.918 14.6454 145.256 13.5643 145.931 12.7649C146.606 11.9655 147.549 11.5696 148.769 11.5696C149.628 11.5696 150.426 11.7599 151.17 12.1406V13.5186C150.771 13.3283 150.418 13.1913 150.103 13.1151C149.797 13.039 149.451 13.0009 149.076 13.0009C148.332 13.0009 147.772 13.2598 147.396 13.7851C147.02 14.3104 146.828 15.087 146.828 16.1149C146.828 18.1933 147.58 19.2288 149.076 19.2288C149.436 19.2288 149.781 19.1907 150.103 19.107C150.433 19.0232 150.801 18.8938 151.208 18.7111V20.0891L151.223 20.0815Z" fill="white"/>
<path d="M156.477 20.4926L156.377 20.0814C155.725 20.4621 155.073 20.6525 154.429 20.6525C153.785 20.6525 153.233 20.4697 152.834 20.1043C152.435 19.7388 152.243 19.2516 152.243 18.6273C152.243 18.0029 152.466 17.4928 152.903 17.135C153.34 16.7772 153.954 16.6021 154.744 16.6021C155.211 16.6021 155.687 16.6477 156.17 16.7391V16.2442C156.17 15.8635 156.055 15.5818 155.833 15.4067C155.61 15.2316 155.257 15.1403 154.782 15.1403C154.145 15.1403 153.447 15.2849 152.68 15.559V14.3408C153.041 14.2038 153.432 14.0896 153.869 14.0058C154.299 13.9221 154.713 13.884 155.096 13.884C155.978 13.884 156.653 14.082 157.129 14.4779C157.597 14.8738 157.835 15.4448 157.835 16.1909V20.3479L156.485 20.485L156.477 20.4926ZM154.943 19.4495C155.127 19.4495 155.327 19.4191 155.549 19.3658C155.771 19.3049 155.978 19.2363 156.17 19.145V17.7898C155.787 17.6984 155.442 17.6527 155.135 17.6527C154.337 17.6527 153.931 17.9573 153.931 18.574C153.931 18.8633 154.015 19.0841 154.184 19.2287C154.352 19.381 154.606 19.4495 154.943 19.4495Z" fill="white"/>
<path d="M159.384 20.4547V14.1888L160.734 14.0517L160.872 14.638C161.393 14.166 161.976 13.9299 162.613 13.9299C162.812 13.9299 163.019 13.9604 163.242 14.0137V15.3917C162.989 15.3308 162.774 15.308 162.582 15.308C162.007 15.308 161.508 15.4679 161.079 15.78V20.4623H159.391L159.384 20.4547Z" fill="white"/>
<path d="M169.876 10.9604V20.3555L168.526 20.4926L168.427 20.0814C168.128 20.2566 167.813 20.3936 167.476 20.5002C167.138 20.6068 166.839 20.6525 166.563 20.6525C165.742 20.6525 165.106 20.3631 164.645 19.7845C164.185 19.2059 163.955 18.3989 163.955 17.3786C163.955 16.2671 164.231 15.4144 164.776 14.8053C165.32 14.1962 166.087 13.8917 167.084 13.8917C167.445 13.8917 167.813 13.9373 168.197 14.0287V11.1279L169.884 10.9681L169.876 10.9604ZM167.038 19.3658C167.215 19.3658 167.407 19.3353 167.621 19.2744C167.836 19.2135 168.02 19.1298 168.189 19.0308V15.224C167.928 15.1631 167.652 15.1403 167.361 15.1403C166.801 15.1403 166.386 15.323 166.118 15.6808C165.85 16.0387 165.712 16.5945 165.712 17.3482C165.712 18.6958 166.156 19.3734 167.038 19.3734V19.3658Z" fill="white"/>
<path d="M174.777 20.4549V11.943C175.215 11.8593 175.698 11.7908 176.227 11.7451C176.756 11.6994 177.224 11.6689 177.615 11.6689C178.735 11.6689 179.594 11.9126 180.192 12.3998C180.791 12.8871 181.09 13.5799 181.09 14.4859C181.09 15.392 180.775 16.0772 180.146 16.5797C179.517 17.0822 178.651 17.341 177.554 17.341H176.526V20.4549H174.777ZM177.554 12.9937C177.17 12.9937 176.825 13.0165 176.526 13.0698V16.0087H177.554C178.114 16.0087 178.543 15.8792 178.842 15.6204C179.142 15.3615 179.295 14.9884 179.295 14.4936C179.295 13.4962 178.712 12.9937 177.554 12.9937Z" fill="white"/>
<path d="M185.991 20.4926L185.891 20.0814C185.24 20.4621 184.588 20.6525 183.943 20.6525C183.299 20.6525 182.747 20.4697 182.348 20.1043C181.949 19.7388 181.757 19.2516 181.757 18.6273C181.757 18.0029 181.98 17.4928 182.417 17.135C182.854 16.7772 183.468 16.6021 184.258 16.6021C184.726 16.6021 185.201 16.6477 185.684 16.7391V16.2442C185.684 15.8635 185.569 15.5818 185.347 15.4067C185.124 15.2316 184.772 15.1403 184.296 15.1403C183.659 15.1403 182.962 15.2849 182.195 15.559V14.3408C182.555 14.2038 182.946 14.0896 183.383 14.0058C183.813 13.9221 184.227 13.884 184.611 13.884C185.493 13.884 186.168 14.082 186.643 14.4779C187.111 14.8738 187.349 15.4448 187.349 16.1909V20.3479L185.999 20.485L185.991 20.4926ZM184.457 19.4495C184.641 19.4495 184.841 19.4191 185.063 19.3658C185.286 19.3049 185.493 19.2363 185.684 19.145V17.7898C185.301 17.6984 184.956 17.6527 184.649 17.6527C183.851 17.6527 183.445 17.9573 183.445 18.574C183.445 18.8633 183.529 19.0841 183.698 19.2287C183.867 19.381 184.12 19.4495 184.457 19.4495Z" fill="white"/>
<path d="M188.905 20.4547V14.1888L190.255 14.0517L190.393 14.638C190.915 14.166 191.498 13.9299 192.134 13.9299C192.334 13.9299 192.541 13.9604 192.763 14.0137V15.3917C192.51 15.3308 192.295 15.308 192.104 15.308C191.528 15.308 191.03 15.4679 190.6 15.78V20.4623H188.913L188.905 20.4547Z" fill="white"/>
<path d="M195.87 15.2697V18.4598C195.87 19.0765 196.17 19.3887 196.76 19.3887C196.975 19.3887 197.243 19.343 197.558 19.2516V20.3784C197.19 20.5459 196.768 20.6297 196.292 20.6297C195.602 20.6297 195.073 20.4545 194.72 20.0967C194.359 19.7389 194.183 19.2212 194.183 18.5436V15.2697H193.232V14.1506L194.267 14.1125L194.382 12.5136L195.87 12.3538V14.0896H197.519V15.2697H195.87Z" fill="white"/>
<path d="M202.62 20.4547V16.2748C202.62 15.9018 202.535 15.6277 202.367 15.4526C202.198 15.2775 201.937 15.1861 201.577 15.1861C201.377 15.1861 201.17 15.2166 200.948 15.2775C200.733 15.3384 200.541 15.4221 200.372 15.5211V20.4623H198.685V14.1963L200.035 14.0593L200.135 14.4704C200.787 14.0898 201.423 13.8994 202.06 13.8994C202.773 13.8994 203.325 14.0898 203.717 14.4628C204.108 14.8359 204.3 15.3688 204.3 16.054V20.4623H202.612L202.62 20.4547Z" fill="white"/>
<path d="M210.995 20.2033C210.39 20.5002 209.715 20.6525 208.971 20.6525C207.874 20.6525 207.03 20.3631 206.447 19.7845C205.864 19.2059 205.573 18.3608 205.573 17.2492C205.573 16.5716 205.703 15.9778 205.964 15.4676C206.225 14.9575 206.585 14.5693 207.045 14.2952C207.506 14.0211 208.027 13.884 208.618 13.884C209.454 13.884 210.106 14.1201 210.581 14.5997C211.057 15.0794 211.295 15.7265 211.295 16.5564C211.295 16.9447 211.256 17.3253 211.18 17.6984H207.229C207.26 18.277 207.444 18.7034 207.766 18.9851C208.089 19.2668 208.564 19.4038 209.178 19.4038C209.791 19.4038 210.413 19.2668 210.988 18.9927V20.2109L210.995 20.2033ZM208.618 15.0565C208.227 15.0565 207.904 15.1936 207.659 15.46C207.414 15.7265 207.26 16.092 207.222 16.5564H209.745V16.3737C209.745 15.9397 209.646 15.6123 209.454 15.3915C209.262 15.1707 208.986 15.0565 208.618 15.0565Z" fill="white"/>
<path d="M212.606 20.4547V14.1888L213.956 14.0517L214.094 14.638C214.616 14.166 215.198 13.9299 215.835 13.9299C216.034 13.9299 216.242 13.9604 216.464 14.0137V15.3917C216.211 15.3308 215.996 15.308 215.804 15.308C215.229 15.308 214.731 15.4679 214.301 15.78V20.4623H212.614L212.606 20.4547Z" fill="white"/>
<path d="M223.344 20.6527C222.355 20.6527 221.595 20.3633 221.074 19.7923C220.552 19.2213 220.292 18.3762 220.292 17.2646C220.292 16.1531 220.552 15.3308 221.066 14.7522C221.58 14.1812 222.339 13.8918 223.344 13.8918C224.349 13.8918 225.101 14.1812 225.622 14.7522C226.136 15.3308 226.397 16.1683 226.397 17.2646C226.397 18.361 226.136 19.2137 225.615 19.7923C225.093 20.371 224.334 20.6527 223.344 20.6527ZM223.344 19.3584C223.804 19.3584 224.134 19.1985 224.334 18.8711C224.533 18.5437 224.633 18.0108 224.633 17.257C224.633 16.5033 224.533 15.978 224.334 15.6582C224.134 15.3384 223.804 15.1709 223.344 15.1709C222.884 15.1709 222.554 15.3308 222.355 15.6582C222.155 15.9856 222.056 16.5109 222.056 17.257C222.056 18.0031 222.155 18.5513 222.355 18.8711C222.554 19.1909 222.884 19.3584 223.344 19.3584Z" fill="white"/>
<path d="M228.107 20.4545V15.2697H227.156V14.1505L228.107 14.1125V13.0923C228.107 12.3918 228.299 11.836 228.69 11.4325C229.081 11.029 229.611 10.8311 230.293 10.8311C230.738 10.8311 231.183 10.9148 231.628 11.0823V12.2243C231.252 12.1254 230.953 12.0721 230.73 12.0721C230.431 12.0721 230.201 12.1558 230.04 12.3157C229.879 12.4756 229.795 12.7116 229.795 13.0314V14.082H231.321V15.2621H229.795V20.4469H228.107V20.4545Z" fill="white"/>
<path d="M306.876 33.081C307.375 33.081 307.773 33.4312 307.773 33.9109C307.773 34.3905 307.375 34.7484 306.876 34.7484C306.378 34.7484 305.979 34.3905 305.979 33.9109C305.979 33.4312 306.378 33.081 306.876 33.081ZM306.876 34.9768C307.52 34.9768 308.027 34.5047 308.027 33.9109C308.027 33.317 307.52 32.845 306.876 32.845C306.232 32.845 305.726 33.317 305.726 33.9109C305.726 34.5047 306.232 34.9768 306.876 34.9768ZM307.114 34.0175C307.329 34.0022 307.436 33.8956 307.436 33.6901C307.436 33.4008 307.252 33.3551 306.968 33.3551H306.385V34.4667H306.638V34.0251H306.853L307.129 34.4667H307.405L307.114 34.0251V34.0175ZM306.638 33.8195V33.553H306.914C307.029 33.553 307.191 33.553 307.191 33.6748C307.191 33.7967 307.106 33.8195 306.976 33.8195H306.638Z" fill="white"/>
<path d="M245.063 0H299.835C302.78 0 305.181 2.37542 305.181 5.30662V29.6166C305.181 32.5402 302.788 34.9232 299.835 34.9232H245.063C242.118 34.9232 239.717 32.5478 239.717 29.6166V5.30662C239.717 2.37542 242.11 0 245.063 0Z" fill="white"/>
<path d="M302.35 2.8018C301.675 2.13181 300.786 1.76636 299.835 1.76636H284.518L293.33 16.3539L294.136 16.4528L294.604 17.1152V17.7471L295.171 17.8461L295.677 18.5466V19.148L296.245 19.247C296.245 19.247 296.813 19.8485 296.813 19.8789C296.813 19.8485 296.813 21.2417 296.813 21.2417C296.813 21.2417 298.055 22.3762 299.16 22.8025C299.934 23.0994 300.034 24.3328 300.471 25.0028C301.077 25.9317 301.883 26.3352 301.714 26.8681C301.315 28.2995 299.835 30.6977 298.462 30.8348C298.462 30.8348 295.041 30.8348 293.024 30.8348V33.1417H299.819C301.783 33.1417 303.378 31.5504 303.378 29.6014V5.30664C303.378 4.36257 303.01 3.47179 302.335 2.80941L302.35 2.8018Z" fill="#BC0022"/>
<path d="M279.302 1.7664H245.063C244.112 1.7664 243.215 2.13185 242.548 2.80184C241.873 3.47183 241.504 4.355 241.504 5.29908V29.609C241.504 30.5531 241.873 31.4439 242.548 32.1063C243.222 32.7763 244.112 33.1417 245.063 33.1417H267.306C266.746 32.2205 266.125 31.1698 265.926 30.85H263.272C263.272 24.3253 265.512 20.6936 268.165 19.9932C268.534 19.9247 268.365 18.1279 267.897 17.5949C267.897 17.5949 266.624 17.6254 266.355 17.5645C266.018 17.4655 266.256 17.1305 266.256 17.1305L267.498 14.4658L267.329 13.7349H262.735C262.666 13.7349 266.524 11.1006 266.524 11.1006C266.723 4.17228 273.872 3.63933 278.198 6.50201C280.752 8.19983 280.951 11.5269 280.752 13.8643C280.721 13.9937 280.085 13.8947 280.085 13.8947C280.085 13.8947 279.647 16.4224 280.79 16.4224H285.822C287.87 16.3539 289.849 17.7167 289.849 17.7167L290.347 15.9808L279.302 1.75879V1.7664ZM248.868 28.1473C247.518 28.1473 246.421 27.0585 246.421 25.7185C246.421 24.3786 247.518 23.2898 248.868 23.2898C250.218 23.2898 251.314 24.3786 251.314 25.7185C251.314 27.0585 250.225 28.1473 248.868 28.1473Z" fill="#041E42"/>
<path d="M10.9675 32.75L11.83 34.94L12.7 32.75H13.3375L13.615 36.005H13.0375L12.865 33.665L12.07 35.69H11.5825L10.7725 33.6275L10.6 36.005H10.03L10.3075 32.75H10.9675ZM8.14 36.005V33.245H7.1725V32.75H9.7225V33.245H8.755V36.005H8.14ZM14.2437 38L16.1337 32.3675H16.8462L14.9562 38H14.2437ZM20.0834 38.1125C19.5634 38.1125 19.0934 37.9875 18.6734 37.7375C18.2584 37.4825 17.9359 37.1475 17.7059 36.7325C17.4759 36.3175 17.3609 35.865 17.3609 35.375C17.3609 34.85 17.4859 34.3775 17.7359 33.9575C17.9909 33.5375 18.3234 33.2125 18.7334 32.9825C19.1484 32.7525 19.5984 32.6375 20.0834 32.6375C20.6034 32.6375 21.0709 32.765 21.4859 33.02C21.9059 33.27 22.2309 33.6025 22.4609 34.0175C22.6909 34.4325 22.8059 34.885 22.8059 35.375C22.8059 35.9 22.6784 36.3725 22.4234 36.7925C22.1734 37.2125 21.8409 37.5375 21.4259 37.7675C21.0159 37.9975 20.5684 38.1125 20.0834 38.1125ZM20.0834 37.685C20.5234 37.685 20.9134 37.5825 21.2534 37.3775C21.5984 37.1675 21.8634 36.8875 22.0484 36.5375C22.2384 36.1875 22.3334 35.8 22.3334 35.375C22.3334 34.92 22.2309 34.5175 22.0259 34.1675C21.8259 33.8125 21.5559 33.54 21.2159 33.35C20.8759 33.16 20.4984 33.065 20.0834 33.065C19.6434 33.065 19.2509 33.17 18.9059 33.38C18.5659 33.585 18.3009 33.8625 18.1109 34.2125C17.9259 34.5625 17.8334 34.95 17.8334 35.375C17.8334 35.83 17.9334 36.235 18.1334 36.59C18.3384 36.94 18.6109 37.21 18.9509 37.4C19.2909 37.59 19.6684 37.685 20.0834 37.685ZM21.0509 36.83C20.7909 36.97 20.4984 37.04 20.1734 37.04C19.7084 37.04 19.3434 36.8925 19.0784 36.5975C18.8134 36.3025 18.6809 35.895 18.6809 35.375C18.6809 34.855 18.8134 34.4475 19.0784 34.1525C19.3484 33.8575 19.7134 33.71 20.1734 33.71C20.4884 33.71 20.7759 33.78 21.0359 33.92V34.3925C20.9059 34.3225 20.7809 34.2725 20.6609 34.2425C20.5459 34.2075 20.4184 34.19 20.2784 34.19C19.9834 34.19 19.7509 34.2975 19.5809 34.5125C19.4159 34.7225 19.3334 35.01 19.3334 35.375C19.3334 35.745 19.4159 36.035 19.5809 36.245C19.7509 36.455 19.9834 36.56 20.2784 36.56C20.5234 36.56 20.7809 36.4925 21.0509 36.3575V36.83ZM25.3504 38C25.3604 37.55 25.4504 37.16 25.6204 36.83C25.7954 36.5 26.0879 36.1625 26.4979 35.8175L27.1279 35.285C27.3829 35.07 27.5654 34.8775 27.6754 34.7075C27.7854 34.5375 27.8404 34.3625 27.8404 34.1825C27.8404 33.9175 27.7429 33.7075 27.5479 33.5525C27.3579 33.3975 27.0979 33.32 26.7679 33.32C26.3379 33.32 25.9179 33.47 25.5079 33.77V33.1925C25.9129 32.8975 26.3904 32.75 26.9404 32.75C27.2654 32.75 27.5504 32.8125 27.7954 32.9375C28.0454 33.0575 28.2379 33.225 28.3729 33.44C28.5079 33.65 28.5754 33.885 28.5754 34.145C28.5754 34.405 28.5054 34.65 28.3654 34.88C28.2304 35.105 27.9979 35.3575 27.6679 35.6375L27.0679 36.1475C26.7879 36.3875 26.5754 36.6075 26.4304 36.8075C26.2854 37.0075 26.1929 37.2075 26.1529 37.4075H27.8929C28.1829 37.4075 28.4329 37.4 28.6429 37.385V38H25.3504ZM31.3581 37.5575C31.7481 37.5575 32.0331 37.3875 32.2131 37.0475C32.3931 36.7025 32.4831 36.1625 32.4831 35.4275C32.4831 34.6925 32.3906 34.155 32.2056 33.815C32.0256 33.475 31.7431 33.305 31.3581 33.305C30.9731 33.305 30.6881 33.475 30.5031 33.815C30.3231 34.155 30.2331 34.6925 30.2331 35.4275C30.2331 36.1625 30.3231 36.7025 30.5031 37.0475C30.6831 37.3875 30.9681 37.5575 31.3581 37.5575ZM31.3581 38.1125C30.1181 38.1125 29.4981 37.2175 29.4981 35.4275C29.4981 34.5425 29.6531 33.875 29.9631 33.425C30.2731 32.975 30.7381 32.75 31.3581 32.75C31.9781 32.75 32.4431 32.975 32.7531 33.425C33.0631 33.875 33.2181 34.5425 33.2181 35.4275C33.2181 37.2175 32.5981 38.1125 31.3581 38.1125ZM33.9561 38C33.9661 37.55 34.0561 37.16 34.2261 36.83C34.4011 36.5 34.6936 36.1625 35.1036 35.8175L35.7336 35.285C35.9886 35.07 36.1711 34.8775 36.2811 34.7075C36.3911 34.5375 36.4461 34.3625 36.4461 34.1825C36.4461 33.9175 36.3486 33.7075 36.1536 33.5525C35.9636 33.3975 35.7036 33.32 35.3736 33.32C34.9436 33.32 34.5236 33.47 34.1136 33.77V33.1925C34.5186 32.8975 34.9961 32.75 35.5461 32.75C35.8711 32.75 36.1561 32.8125 36.4011 32.9375C36.6511 33.0575 36.8436 33.225 36.9786 33.44C37.1136 33.65 37.1811 33.885 37.1811 34.145C37.1811 34.405 37.1111 34.65 36.9711 34.88C36.8361 35.105 36.6036 35.3575 36.2736 35.6375L35.6736 36.1475C35.3936 36.3875 35.1811 36.6075 35.0361 36.8075C34.8911 37.0075 34.7986 37.2075 34.7586 37.4075H36.4986C36.7886 37.4075 37.0386 37.4 37.2486 37.385V38H33.9561ZM41.2838 33.335C40.7638 33.36 40.3188 33.4575 39.9488 33.6275C39.5788 33.7925 39.2888 34.025 39.0788 34.325C38.8738 34.62 38.7538 34.975 38.7188 35.39C38.8638 35.21 39.0563 35.0675 39.2963 34.9625C39.5363 34.8575 39.7863 34.805 40.0463 34.805C40.3513 34.805 40.6238 34.88 40.8638 35.03C41.1038 35.175 41.2888 35.3725 41.4188 35.6225C41.5488 35.8675 41.6138 36.1375 41.6138 36.4325C41.6138 36.7725 41.5363 37.07 41.3813 37.325C41.2313 37.575 41.0238 37.77 40.7588 37.91C40.4938 38.045 40.1938 38.1125 39.8588 38.1125C39.4688 38.1125 39.1338 38.0225 38.8538 37.8425C38.5788 37.6575 38.3688 37.395 38.2238 37.055C38.0838 36.715 38.0138 36.315 38.0138 35.855C38.0138 35.225 38.1413 34.6825 38.3963 34.2275C38.6513 33.7675 39.0163 33.4125 39.4913 33.1625C39.9663 32.9125 40.5313 32.775 41.1863 32.75L41.2838 33.335ZM39.9188 35.3525C39.6888 35.3525 39.4638 35.415 39.2438 35.54C39.0238 35.665 38.8463 35.8325 38.7113 36.0425C38.7313 36.5325 38.8388 36.9075 39.0338 37.1675C39.2338 37.4275 39.5088 37.5575 39.8588 37.5575C40.1738 37.5575 40.4263 37.4575 40.6163 37.2575C40.8063 37.0525 40.9013 36.785 40.9013 36.455C40.9013 36.125 40.8113 35.86 40.6313 35.66C40.4513 35.455 40.2138 35.3525 39.9188 35.3525ZM47.0029 37.5425L45.5404 33.7775L45.2554 38H44.5654L44.9779 32.75H45.7954L47.3029 36.635L48.8104 32.75H49.6279L50.0404 38H49.3429L49.0504 33.7775L47.5954 37.5425H47.0029ZM51.3623 38V32.75H52.0898V37.4H54.5048V38H51.3623ZM55.4235 38V32.8625C55.6885 32.8125 55.9685 32.7725 56.2635 32.7425C56.5585 32.7125 56.816 32.6975 57.036 32.6975C57.621 32.6975 58.0685 32.815 58.3785 33.05C58.6935 33.28 58.851 33.6125 58.851 34.0475C58.851 34.3375 58.771 34.585 58.611 34.79C58.456 34.995 58.226 35.15 57.921 35.255C58.291 35.335 58.576 35.49 58.776 35.72C58.981 35.945 59.0835 36.23 59.0835 36.575C59.0835 37.035 58.9235 37.3875 58.6035 37.6325C58.2835 37.8775 57.826 38 57.231 38H55.4235ZM57.2085 37.445C57.5785 37.445 57.8585 37.3675 58.0485 37.2125C58.2435 37.0525 58.341 36.82 58.341 36.515C58.341 36.215 58.2385 35.985 58.0335 35.825C57.8335 35.66 57.551 35.5775 57.186 35.5775H56.1285V37.445H57.2085ZM56.9835 33.2525C56.7485 33.2525 56.4635 33.2775 56.1285 33.3275V35.0375H57.1185C57.4335 35.0375 57.681 34.9575 57.861 34.7975C58.046 34.6325 58.1385 34.4125 58.1385 34.1375C58.1385 33.5475 57.7535 33.2525 56.9835 33.2525ZM60.3677 38.0375C60.2327 38.0375 60.1227 37.995 60.0377 37.91C59.9527 37.825 59.9102 37.715 59.9102 37.58C59.9102 37.445 59.9527 37.335 60.0377 37.25C60.1227 37.165 60.2327 37.1225 60.3677 37.1225C60.5027 37.1225 60.6127 37.165 60.6977 37.25C60.7827 37.335 60.8252 37.445 60.8252 37.58C60.8252 37.715 60.7827 37.825 60.6977 37.91C60.6127 37.995 60.5027 38.0375 60.3677 38.0375Z" fill="white"/>
</svg>
