<svg width="777" height="34" viewBox="0 0 777 34" fill="none" xmlns="http://www.w3.org/2000/svg">
<path d="M766.085 29V9.92401L768.973 9.62001L769.277 11.368C770.949 9.94934 772.735 9.24001 774.635 9.24001C775.218 9.24001 775.8 9.32867 776.383 9.50601V12.432C775.775 12.28 775.154 12.204 774.521 12.204C772.697 12.204 771.076 12.774 769.657 13.914V29H766.085Z" fill="white"/>
<path d="M760.559 28.278C758.811 29.1393 756.86 29.57 754.707 29.57C751.565 29.57 749.171 28.696 747.525 26.948C745.878 25.2 745.055 22.6413 745.055 19.272C745.055 17.1947 745.422 15.396 746.157 13.876C746.891 12.3307 747.917 11.1527 749.235 10.342C750.552 9.53134 752.059 9.12601 753.757 9.12601C756.138 9.12601 758.013 9.83534 759.381 11.254C760.749 12.6727 761.433 14.636 761.433 17.144C761.433 18.132 761.344 19.1073 761.167 20.07H748.589C748.665 24.554 750.843 26.796 755.125 26.796C756.974 26.796 758.785 26.3907 760.559 25.58V28.278ZM753.757 11.748C752.287 11.748 751.084 12.2673 750.147 13.306C749.235 14.3447 748.715 15.7507 748.589 17.524H758.127C758.152 17.3973 758.165 17.2707 758.165 17.144C758.165 17.0173 758.165 16.8907 758.165 16.764C758.165 15.1933 757.772 13.9647 756.987 13.078C756.227 12.1913 755.15 11.748 753.757 11.748Z" fill="white"/>
<path d="M732.756 29L725.574 9.69601H729.374L734.542 25.086L739.786 9.69601H743.434L736.176 29H732.756Z" fill="white"/>
<path d="M718.882 29V0.462006L722.454 0.0440063V29H718.882Z" fill="white"/>
<path d="M709.53 29V10L713.102 9.582V29H709.53ZM711.316 5.744C710.582 5.744 709.999 5.554 709.568 5.174C709.163 4.76867 708.96 4.224 708.96 3.54C708.96 2.856 709.163 2.324 709.568 1.944C709.999 1.53867 710.582 1.336 711.316 1.336C712.051 1.336 712.621 1.53867 713.026 1.944C713.457 2.324 713.672 2.856 713.672 3.54C713.672 4.224 713.457 4.76867 713.026 5.174C712.621 5.554 712.051 5.744 711.316 5.744Z" fill="white"/>
<path d="M690.907 25.466C692.934 26.3527 694.961 26.796 696.987 26.796C698.457 26.796 699.571 26.5173 700.331 25.96C701.117 25.4027 701.509 24.6047 701.509 23.566C701.509 22.882 701.294 22.3247 700.863 21.894C700.433 21.4633 699.723 21.096 698.735 20.792L696.151 19.994C694.429 19.462 693.175 18.778 692.389 17.942C691.604 17.106 691.211 16.042 691.211 14.75C691.211 13.0273 691.883 11.6593 693.225 10.646C694.568 9.63267 696.379 9.12601 698.659 9.12601C700.585 9.12601 702.421 9.50601 704.169 10.266V13.002C702.244 12.2673 700.483 11.9 698.887 11.9C697.595 11.9 696.582 12.1533 695.847 12.66C695.138 13.1413 694.783 13.8 694.783 14.636C694.783 15.244 694.973 15.7253 695.353 16.08C695.733 16.4093 696.443 16.7387 697.481 17.068L700.369 17.942C703.511 18.8793 705.081 20.7413 705.081 23.528C705.081 25.4787 704.41 26.9733 703.067 28.012C701.725 29.0507 699.787 29.57 697.253 29.57C694.897 29.57 692.921 29.1773 691.325 28.392L690.907 25.466Z" fill="white"/>
<path d="M673.312 29V0.462006L676.884 0.0440063V17.98L684.826 9.69601H688.93L680.304 18.664L689.348 29H685.016L676.884 19.538V29H673.312Z" fill="white"/>
<path d="M668.913 28.316C667.165 29.152 665.227 29.57 663.099 29.57C660.313 29.57 658.159 28.6833 656.639 26.91C655.119 25.1367 654.359 22.6287 654.359 19.386C654.359 16.118 655.119 13.5973 656.639 11.824C658.185 10.0253 660.351 9.12601 663.137 9.12601C665.088 9.12601 666.975 9.54401 668.799 10.38V13.116C667.051 12.356 665.379 11.976 663.783 11.976C661.909 11.976 660.49 12.5967 659.527 13.838C658.565 15.0793 658.083 16.916 658.083 19.348C658.083 21.7547 658.565 23.5913 659.527 24.858C660.49 26.0993 661.909 26.72 663.783 26.72C665.379 26.72 667.089 26.34 668.913 25.58V28.316Z" fill="white"/>
<path d="M646.148 29V10L649.72 9.582V29H646.148ZM647.934 5.744C647.199 5.744 646.616 5.554 646.186 5.174C645.78 4.76867 645.578 4.224 645.578 3.54C645.578 2.856 645.78 2.324 646.186 1.944C646.616 1.53867 647.199 1.336 647.934 1.336C648.668 1.336 649.238 1.53867 649.644 1.944C650.074 2.324 650.29 2.856 650.29 3.54C650.29 4.224 650.074 4.76867 649.644 5.174C649.238 5.554 648.668 5.744 647.934 5.744Z" fill="white"/>
<path d="M637.502 29.076L637.274 27.746C635.196 28.962 633.132 29.57 631.08 29.57C629.028 29.57 627.432 29.0127 626.292 27.898C625.152 26.7833 624.582 25.2253 624.582 23.224V9.69601H628.154V22.692C628.154 25.4027 629.458 26.758 632.068 26.758C632.802 26.758 633.6 26.644 634.462 26.416C635.323 26.1627 636.108 25.8334 636.818 25.428V9.69601H640.39V28.772L637.502 29.076Z" fill="white"/>
<path d="M605.884 29.456C602.945 28.5694 600.766 26.9987 599.348 24.744C597.929 22.4894 597.22 19.4747 597.22 15.7C597.22 11.216 598.182 7.78335 600.108 5.40202C602.058 3.02068 604.858 1.83002 608.506 1.83002C612.154 1.83002 614.94 3.02068 616.866 5.40202C618.816 7.78335 619.792 11.216 619.792 15.7C619.792 19.2214 619.158 22.1094 617.892 24.364C616.65 26.5934 614.826 28.088 612.42 28.848L620.286 30.178L618.994 33.446L605.884 29.456ZM608.506 26.606C611.014 26.606 612.863 25.7194 614.054 23.946C615.27 22.1474 615.878 19.3987 615.878 15.7C615.878 12.052 615.27 9.34135 614.054 7.56802C612.863 5.76935 611.014 4.87002 608.506 4.87002C605.998 4.87002 604.136 5.76935 602.92 7.56802C601.729 9.34135 601.134 12.052 601.134 15.7C601.134 19.3987 601.729 22.1474 602.92 23.946C604.136 25.7194 605.998 26.606 608.506 26.606Z" fill="white"/>
<path d="M566.993 29V0.462006L570.565 0.0440063V10.684C572.516 9.64534 574.428 9.12601 576.303 9.12601C578.406 9.12601 580.027 9.68334 581.167 10.798C582.333 11.8873 582.915 13.4453 582.915 15.472V29H579.343V16.004C579.343 13.2933 578.001 11.938 575.315 11.938C574.606 11.938 573.808 12.0647 572.921 12.318C572.06 12.546 571.275 12.8627 570.565 13.268V29H566.993Z" fill="white"/>
<path d="M557.596 12.28V23.376C557.596 24.516 557.849 25.3647 558.356 25.922C558.862 26.454 559.635 26.72 560.674 26.72C561.459 26.72 562.295 26.5807 563.182 26.302V28.848C562.118 29.2533 561.016 29.456 559.876 29.456C557.95 29.456 556.494 28.9493 555.506 27.936C554.518 26.9227 554.024 25.4407 554.024 23.49V12.28H551.136V9.84801L554.176 9.73401L554.442 4.90801L557.596 4.56601V9.69601H562.992V12.28H557.596Z" fill="white"/>
<path d="M543.874 29V10L547.446 9.582V29H543.874ZM545.66 5.744C544.926 5.744 544.343 5.554 543.912 5.174C543.507 4.76867 543.304 4.224 543.304 3.54C543.304 2.856 543.507 2.324 543.912 1.944C544.343 1.53867 544.926 1.336 545.66 1.336C546.395 1.336 546.965 1.53867 547.37 1.944C547.801 2.324 548.016 2.856 548.016 3.54C548.016 4.224 547.801 4.76867 547.37 5.174C546.965 5.554 546.395 5.744 545.66 5.744Z" fill="white"/>
<path d="M531.438 29L526.916 13.458L522.546 29H519.278L513.236 9.69601H516.846L520.988 24.668L525.092 9.69601H528.854L533.034 24.668L537.138 9.69601H540.634L534.706 29H531.438Z" fill="white"/>
<path d="M487.356 29V0.462006L490.928 0.0440063V17.98L498.87 9.69601H502.974L494.348 18.664L503.392 29H499.06L490.928 19.538V29H487.356Z" fill="white"/>
<path d="M482.958 28.316C481.21 29.152 479.272 29.57 477.144 29.57C474.358 29.57 472.204 28.6833 470.684 26.91C469.164 25.1367 468.404 22.6287 468.404 19.386C468.404 16.118 469.164 13.5973 470.684 11.824C472.23 10.0253 474.396 9.12601 477.182 9.12601C479.133 9.12601 481.02 9.54401 482.844 10.38V13.116C481.096 12.356 479.424 11.976 477.828 11.976C475.954 11.976 474.535 12.5967 473.572 13.838C472.61 15.0793 472.128 16.916 472.128 19.348C472.128 21.7547 472.61 23.5913 473.572 24.858C474.535 26.0993 475.954 26.72 477.828 26.72C479.424 26.72 481.134 26.34 482.958 25.58V28.316Z" fill="white"/>
<path d="M461.102 29.076L460.874 27.746C458.746 28.962 456.681 29.57 454.68 29.57C452.679 29.57 451.083 29.038 449.892 27.974C448.727 26.8847 448.144 25.428 448.144 23.604C448.144 21.704 448.803 20.2347 450.12 19.196C451.437 18.132 453.287 17.6 455.668 17.6C457.061 17.6 458.67 17.7647 460.494 18.094V16.08C460.494 14.6867 460.089 13.648 459.278 12.964C458.493 12.28 457.277 11.938 455.63 11.938C453.705 11.938 451.602 12.3813 449.322 13.268V10.494C450.386 10.0633 451.539 9.73401 452.78 9.50601C454.021 9.25268 455.199 9.12601 456.314 9.12601C458.822 9.12601 460.722 9.70867 462.014 10.874C463.331 12.0393 463.99 13.7493 463.99 16.004V28.772L461.102 29.076ZM455.592 26.796C456.327 26.796 457.15 26.6693 458.062 26.416C458.974 26.1627 459.785 25.8333 460.494 25.428V20.564C459.303 20.26 457.897 20.108 456.276 20.108C454.756 20.108 453.629 20.3993 452.894 20.982C452.185 21.5393 451.83 22.388 451.83 23.528C451.83 25.7067 453.084 26.796 455.592 26.796Z" fill="white"/>
<path d="M431.257 10.646C433.157 9.63267 434.943 9.12601 436.615 9.12601C439.097 9.12601 441.035 10.0127 442.429 11.786C443.847 13.534 444.557 15.9533 444.557 19.044C444.557 22.4387 443.695 25.048 441.973 26.872C440.25 28.6707 437.793 29.57 434.601 29.57C432.321 29.57 430.015 29.2407 427.685 28.582V0.462006L431.257 0.0440063V10.646ZM435.779 11.938C435.095 11.938 434.335 12.0647 433.499 12.318C432.688 12.546 431.941 12.8627 431.257 13.268V26.34C432.321 26.644 433.448 26.796 434.639 26.796C436.716 26.796 438.261 26.1627 439.275 24.896C440.313 23.6293 440.833 21.704 440.833 19.12C440.833 16.764 440.402 14.978 439.541 13.762C438.705 12.546 437.451 11.938 435.779 11.938Z" fill="white"/>
<path d="M396.698 29V0.462006L400.27 0.0440063V10.684C402.221 9.64534 404.134 9.12601 406.008 9.12601C408.111 9.12601 409.732 9.68334 410.872 10.798C412.038 11.8873 412.62 13.4453 412.62 15.472V29H409.048V16.004C409.048 13.2933 407.706 11.938 405.02 11.938C404.311 11.938 403.513 12.0647 402.626 12.318C401.765 12.546 400.98 12.8627 400.27 13.268V29H396.698Z" fill="white"/>
<path d="M378.075 25.466C380.102 26.3527 382.129 26.796 384.155 26.796C385.625 26.796 386.739 26.5173 387.499 25.96C388.285 25.4027 388.677 24.6047 388.677 23.566C388.677 22.882 388.462 22.3247 388.031 21.894C387.601 21.4633 386.891 21.096 385.903 20.792L383.319 19.994C381.597 19.462 380.343 18.778 379.557 17.942C378.772 17.106 378.379 16.042 378.379 14.75C378.379 13.0273 379.051 11.6593 380.393 10.646C381.736 9.63267 383.547 9.12601 385.827 9.12601C387.753 9.12601 389.589 9.50601 391.337 10.266V13.002C389.412 12.2673 387.651 11.9 386.055 11.9C384.763 11.9 383.75 12.1533 383.015 12.66C382.306 13.1413 381.951 13.8 381.951 14.636C381.951 15.244 382.141 15.7253 382.521 16.08C382.901 16.4093 383.611 16.7387 384.649 17.068L387.537 17.942C390.679 18.8793 392.249 20.7413 392.249 23.528C392.249 25.4787 391.578 26.9733 390.235 28.012C388.893 29.0507 386.955 29.57 384.421 29.57C382.065 29.57 380.089 29.1773 378.493 28.392L378.075 25.466Z" fill="white"/>
<path d="M370.963 29.076L370.735 27.746C368.607 28.962 366.543 29.57 364.541 29.57C362.54 29.57 360.944 29.038 359.753 27.974C358.588 26.8847 358.005 25.428 358.005 23.604C358.005 21.704 358.664 20.2347 359.981 19.196C361.299 18.132 363.148 17.6 365.529 17.6C366.923 17.6 368.531 17.7647 370.355 18.094V16.08C370.355 14.6867 369.95 13.648 369.139 12.964C368.354 12.28 367.138 11.938 365.491 11.938C363.566 11.938 361.463 12.3813 359.183 13.268V10.494C360.247 10.0633 361.4 9.73401 362.641 9.50601C363.883 9.25268 365.061 9.12601 366.175 9.12601C368.683 9.12601 370.583 9.70867 371.875 10.874C373.193 12.0393 373.851 13.7493 373.851 16.004V28.772L370.963 29.076ZM365.453 26.796C366.188 26.796 367.011 26.6693 367.923 26.416C368.835 26.1627 369.646 25.8333 370.355 25.428V20.564C369.165 20.26 367.759 20.108 366.137 20.108C364.617 20.108 363.49 20.3993 362.755 20.982C362.046 21.5393 361.691 22.388 361.691 23.528C361.691 25.7067 362.945 26.796 365.453 26.796Z" fill="white"/>
<path d="M354.671 28.316C352.923 29.152 350.985 29.57 348.857 29.57C346.071 29.57 343.917 28.6833 342.397 26.91C340.877 25.1367 340.117 22.6287 340.117 19.386C340.117 16.118 340.877 13.5973 342.397 11.824C343.943 10.0253 346.109 9.12601 348.895 9.12601C350.846 9.12601 352.733 9.54401 354.557 10.38V13.116C352.809 12.356 351.137 11.976 349.541 11.976C347.667 11.976 346.248 12.5967 345.285 13.838C344.323 15.0793 343.841 16.916 343.841 19.348C343.841 21.7547 344.323 23.5913 345.285 24.858C346.248 26.0993 347.667 26.72 349.541 26.72C351.137 26.72 352.847 26.34 354.671 25.58V28.316Z" fill="white"/>
<path d="M302.958 29L316.6 2.97H319.754L306.112 29H302.958ZM301.438 17.22C302.552 17.22 303.363 16.7387 303.87 15.776C304.376 14.788 304.63 13.2047 304.63 11.026C304.63 8.84733 304.376 7.27666 303.87 6.314C303.363 5.326 302.552 4.832 301.438 4.832C300.323 4.832 299.512 5.326 299.006 6.314C298.499 7.27666 298.246 8.84733 298.246 11.026C298.246 13.2047 298.499 14.788 299.006 15.776C299.512 16.7387 300.323 17.22 301.438 17.22ZM301.438 19.462C299.386 19.462 297.815 18.74 296.726 17.296C295.636 15.8267 295.092 13.7367 295.092 11.026C295.092 8.31533 295.636 6.238 296.726 4.794C297.815 3.32466 299.386 2.59 301.438 2.59C303.49 2.59 305.06 3.32466 306.15 4.794C307.239 6.238 307.784 8.31533 307.784 11.026C307.784 13.7367 307.239 15.8267 306.15 17.296C305.06 18.74 303.49 19.462 301.438 19.462ZM321.274 27.138C322.388 27.138 323.199 26.6567 323.706 25.694C324.212 24.706 324.466 23.1227 324.466 20.944C324.466 18.7653 324.212 17.1947 323.706 16.232C323.199 15.244 322.388 14.75 321.274 14.75C320.159 14.75 319.348 15.244 318.842 16.232C318.335 17.1947 318.082 18.7653 318.082 20.944C318.082 23.1227 318.335 24.706 318.842 25.694C319.348 26.6567 320.159 27.138 321.274 27.138ZM321.274 29.38C319.222 29.38 317.651 28.658 316.562 27.214C315.472 25.7447 314.928 23.6547 314.928 20.944C314.928 18.2333 315.472 16.156 316.562 14.712C317.651 13.2427 319.222 12.508 321.274 12.508C323.326 12.508 324.896 13.2427 325.986 14.712C327.075 16.156 327.62 18.2333 327.62 20.944C327.62 23.6547 327.075 25.7447 325.986 27.214C324.896 28.658 323.326 29.38 321.274 29.38Z" fill="white"/>
<path d="M275.022 25.086C277.327 26.1753 279.595 26.72 281.824 26.72C283.927 26.72 285.548 26.2133 286.688 25.2C287.828 24.1613 288.398 22.7047 288.398 20.83C288.398 19.1327 287.917 17.8153 286.954 16.878C286.017 15.9407 284.674 15.472 282.926 15.472C282.014 15.472 281.089 15.5987 280.152 15.852C279.24 16.08 278.442 16.4093 277.758 16.84L276.01 15.662L277.226 2.96999H286.992C288.36 2.96999 289.614 2.91933 290.754 2.81799V5.97199H280.152L279.43 13.762C280.063 13.4833 280.785 13.2553 281.596 13.078C282.407 12.9007 283.192 12.812 283.952 12.812C286.435 12.812 288.411 13.5467 289.88 15.016C291.375 16.4853 292.122 18.436 292.122 20.868C292.122 22.6667 291.704 24.2247 290.868 25.542C290.057 26.834 288.905 27.8347 287.41 28.544C285.941 29.228 284.243 29.57 282.318 29.57C281.077 29.57 279.848 29.4433 278.632 29.19C277.416 28.9367 276.365 28.5947 275.478 28.164L275.022 25.086Z" fill="white"/>
<path d="M269.224 29.19C268.54 29.19 267.982 28.9747 267.552 28.544C267.121 28.1133 266.906 27.556 266.906 26.872C266.906 26.188 267.121 25.6307 267.552 25.2C267.982 24.7693 268.54 24.554 269.224 24.554C269.908 24.554 270.465 24.7693 270.896 25.2C271.326 25.6307 271.542 26.188 271.542 26.872C271.542 27.556 271.326 28.1133 270.896 28.544C270.465 28.9747 269.908 29.19 269.224 29.19Z" fill="white"/>
<path d="M257.982 29V6.77L251.636 10.912L250.914 7.948L258.552 2.97H261.554V29H257.982Z" fill="white"/>
<path d="M238.017 0.0440063V28.772L235.129 29.076L234.901 27.746C232.899 28.962 230.961 29.57 229.087 29.57C226.604 29.57 224.653 28.696 223.235 26.948C221.841 25.1747 221.145 22.7427 221.145 19.652C221.145 16.308 221.968 13.724 223.615 11.9C225.261 10.0507 227.579 9.12601 230.569 9.12601C232.013 9.12601 233.305 9.30334 234.445 9.65801V0.462006L238.017 0.0440063ZM229.923 26.758C230.607 26.758 231.354 26.644 232.165 26.416C233.001 26.1627 233.761 25.8333 234.445 25.428V12.356C233.381 12.052 232.253 11.9 231.063 11.9C228.985 11.9 227.427 12.5333 226.389 13.8C225.375 15.0667 224.869 16.992 224.869 19.576C224.869 21.932 225.287 23.718 226.123 24.934C226.984 26.15 228.251 26.758 229.923 26.758Z" fill="white"/>
<path d="M216.758 28.278C215.01 29.1393 213.059 29.57 210.906 29.57C207.765 29.57 205.371 28.696 203.724 26.948C202.077 25.2 201.254 22.6413 201.254 19.272C201.254 17.1947 201.621 15.396 202.356 13.876C203.091 12.3307 204.117 11.1527 205.434 10.342C206.751 9.53134 208.259 9.12601 209.956 9.12601C212.337 9.12601 214.212 9.83534 215.58 11.254C216.948 12.6727 217.632 14.636 217.632 17.144C217.632 18.132 217.543 19.1073 217.366 20.07H204.788C204.864 24.554 207.043 26.796 211.324 26.796C213.173 26.796 214.985 26.3907 216.758 25.58V28.278ZM209.956 11.748C208.487 11.748 207.283 12.2673 206.346 13.306C205.434 14.3447 204.915 15.7507 204.788 17.524H214.326C214.351 17.3973 214.364 17.2707 214.364 17.144C214.364 17.0173 214.364 16.8907 214.364 16.764C214.364 15.1933 213.971 13.9647 213.186 13.078C212.426 12.1913 211.349 11.748 209.956 11.748Z" fill="white"/>
<path d="M192.996 12.28V23.376C192.996 24.516 193.249 25.3647 193.756 25.922C194.263 26.454 195.035 26.72 196.074 26.72C196.859 26.72 197.695 26.5807 198.582 26.302V28.848C197.518 29.2533 196.416 29.456 195.276 29.456C193.351 29.456 191.894 28.9493 190.906 27.936C189.918 26.9227 189.424 25.4407 189.424 23.49V12.28H186.536V9.84801L189.576 9.73401L189.842 4.90801L192.996 4.56601V9.69601H198.392V12.28H192.996Z" fill="white"/>
<path d="M179.275 29V10L182.847 9.582V29H179.275ZM181.061 5.744C180.326 5.744 179.743 5.554 179.313 5.174C178.907 4.76867 178.705 4.224 178.705 3.54C178.705 2.856 178.907 2.324 179.313 1.944C179.743 1.53867 180.326 1.336 181.061 1.336C181.795 1.336 182.365 1.53867 182.771 1.944C183.201 2.324 183.417 2.856 183.417 3.54C183.417 4.224 183.201 4.76867 182.771 5.174C182.365 5.554 181.795 5.744 181.061 5.744Z" fill="white"/>
<path d="M170.16 29V15.586C170.16 13.154 168.982 11.938 166.626 11.938C165.208 11.938 163.713 12.4067 162.142 13.344C162.269 13.9013 162.332 14.4587 162.332 15.016V29H158.76V15.586C158.76 13.154 157.582 11.938 155.226 11.938C153.833 11.938 152.402 12.3813 150.932 13.268V29H147.36V9.92401L150.248 9.62001L150.476 10.95C152.427 9.73401 154.34 9.12601 156.214 9.12601C158.393 9.12601 160.04 9.82267 161.154 11.216C163.434 9.82267 165.588 9.12601 167.614 9.12601C169.514 9.12601 171.009 9.64534 172.098 10.684C173.188 11.7227 173.732 13.1667 173.732 15.016V29H170.16Z" fill="white"/>
<path d="M138.009 29V10L141.581 9.582V29H138.009ZM139.795 5.744C139.06 5.744 138.478 5.554 138.047 5.174C137.642 4.76867 137.439 4.224 137.439 3.54C137.439 2.856 137.642 2.324 138.047 1.944C138.478 1.53867 139.06 1.336 139.795 1.336C140.53 1.336 141.1 1.53867 141.505 1.944C141.936 2.324 142.151 2.856 142.151 3.54C142.151 4.224 141.936 4.76867 141.505 5.174C141.1 5.554 140.53 5.744 139.795 5.744Z" fill="white"/>
<path d="M128.657 29V0.462006L132.229 0.0440063V29H128.657Z" fill="white"/>
<path d="M119.521 29V16.004C119.521 13.2933 118.178 11.938 115.493 11.938C114.784 11.938 113.986 12.0647 113.099 12.318C112.238 12.546 111.452 12.8627 110.743 13.268V29H107.171V9.92401L110.059 9.62001L110.287 10.95C112.364 9.73401 114.429 9.12601 116.481 9.12601C118.584 9.12601 120.205 9.68334 121.345 10.798C122.51 11.8873 123.093 13.4453 123.093 15.472V29H119.521Z" fill="white"/>
<path d="M98.525 29.076L98.297 27.746C96.2196 28.962 94.155 29.57 92.103 29.57C90.051 29.57 88.455 29.0127 87.315 27.898C86.175 26.7833 85.605 25.2253 85.605 23.224V9.69601H89.177V22.692C89.177 25.4027 90.4816 26.758 93.091 26.758C93.8256 26.758 94.6236 26.644 95.485 26.416C96.3463 26.1627 97.1316 25.8334 97.841 25.428V9.69601H101.413V28.772L98.525 29.076Z" fill="white"/>
<path d="M67.1967 29V16.004C67.1967 13.2933 65.854 11.938 63.1687 11.938C62.4593 11.938 61.6613 12.0647 60.7747 12.318C59.9133 12.546 59.128 12.8627 58.4187 13.268V29H54.8467V9.92401L57.7347 9.62001L57.9627 10.95C60.04 9.73401 62.1047 9.12601 64.1567 9.12601C66.2593 9.12601 67.8807 9.68334 69.0207 10.798C70.186 11.8873 70.7687 13.4453 70.7687 15.472V29H67.1967Z" fill="white"/>
<path d="M40.9678 29V9.92401L43.8558 9.62001L44.1598 11.368C45.8318 9.94934 47.6178 9.24001 49.5178 9.24001C50.1004 9.24001 50.6831 9.32867 51.2658 9.50601V12.432C50.6578 12.28 50.0371 12.204 49.4038 12.204C47.5798 12.204 45.9584 12.774 44.5398 13.914V29H40.9678Z" fill="white"/>
<path d="M32.5259 29.076L32.2979 27.746C30.1699 28.962 28.1052 29.57 26.1039 29.57C24.1025 29.57 22.5065 29.038 21.3159 27.974C20.1505 26.8847 19.5679 25.428 19.5679 23.604C19.5679 21.704 20.2265 20.2347 21.5439 19.196C22.8612 18.132 24.7105 17.6 27.0919 17.6C28.4852 17.6 30.0939 17.7647 31.9179 18.094V16.08C31.9179 14.6867 31.5125 13.648 30.7019 12.964C29.9165 12.28 28.7005 11.938 27.0539 11.938C25.1285 11.938 23.0259 12.3813 20.7459 13.268V10.494C21.8099 10.0633 22.9625 9.73401 24.2039 9.50601C25.4452 9.25268 26.6232 9.12601 27.7379 9.12601C30.2459 9.12601 32.1459 9.70867 33.4379 10.874C34.7552 12.0393 35.4139 13.7493 35.4139 16.004V28.772L32.5259 29.076ZM27.0159 26.796C27.7505 26.796 28.5739 26.6693 29.4859 26.416C30.3979 26.1627 31.2085 25.8333 31.9179 25.428V20.564C30.7272 20.26 29.3212 20.108 27.6999 20.108C26.1799 20.108 25.0525 20.3993 24.3179 20.982C23.6085 21.5393 23.2539 22.388 23.2539 23.528C23.2539 25.7067 24.5079 26.796 27.0159 26.796Z" fill="white"/>
<path d="M4.06784 17.03V25.96H16.6078V29H0.381836V2.39999H16.5318V5.44H4.06784V13.99H14.9358V17.03H4.06784Z" fill="white"/>
</svg>
