<svg width="183" height="18" viewBox="0 0 183 18" fill="none" xmlns="http://www.w3.org/2000/svg">
<path d="M180.79 12.4167L180.519 1.39969L182.732 1.17393L182.461 12.4167H180.79ZM181.625 17.3156C181.219 17.3156 180.888 17.1877 180.632 16.9318C180.376 16.676 180.248 16.3448 180.248 15.9385C180.248 15.5321 180.376 15.201 180.632 14.9451C180.888 14.6893 181.219 14.5614 181.625 14.5614C182.032 14.5614 182.363 14.6893 182.619 14.9451C182.875 15.201 183.003 15.5321 183.003 15.9385C183.003 16.3448 182.875 16.676 182.619 16.9318C182.363 17.1877 182.032 17.3156 181.625 17.3156Z" fill="white"/>
<path d="M174.527 17.2027V9.48181C174.527 7.87141 173.729 7.0662 172.134 7.0662C171.713 7.0662 171.239 7.14146 170.712 7.29196C170.2 7.42742 169.733 7.61555 169.312 7.85636V17.2027H167.19V5.86969L168.906 5.68908L169.041 6.47924C170.275 5.75681 171.502 5.3956 172.721 5.3956C173.97 5.3956 174.933 5.72671 175.611 6.38893C176.303 7.0361 176.649 7.96171 176.649 9.16575V17.2027H174.527Z" fill="white"/>
<path d="M162.053 17.2479L161.918 16.4577C160.684 17.1802 159.457 17.5414 158.238 17.5414C157.019 17.5414 156.071 17.2103 155.394 16.548C154.716 15.8858 154.378 14.9602 154.378 13.7712V5.73425H156.5V13.4552C156.5 15.0656 157.275 15.8708 158.825 15.8708C159.262 15.8708 159.736 15.803 160.247 15.6676C160.759 15.5171 161.226 15.3214 161.647 15.0806V5.73425H163.769V17.0673L162.053 17.2479Z" fill="white"/>
<path d="M146.268 17.2027V5.8697L147.983 5.68909L148.164 6.72758C149.157 5.88475 150.218 5.46333 151.347 5.46333C151.693 5.46333 152.039 5.51601 152.386 5.62136V7.3597C152.024 7.2694 151.656 7.22424 151.279 7.22424C150.196 7.22424 149.233 7.56288 148.39 8.24015V17.2027H146.268Z" fill="white"/>
<path d="M137.34 16.7738C136.302 17.2855 135.143 17.5414 133.864 17.5414C131.997 17.5414 130.575 17.0221 129.597 15.9836C128.619 14.9451 128.129 13.425 128.129 11.4233C128.129 10.1892 128.348 9.1206 128.784 8.21757C129.221 7.29949 129.83 6.59964 130.613 6.11802C131.395 5.63641 132.291 5.3956 133.299 5.3956C134.714 5.3956 135.828 5.81702 136.64 6.65984C137.453 7.50267 137.86 8.66908 137.86 10.1591C137.86 10.7461 137.807 11.3255 137.702 11.8974H130.229C130.274 14.5614 131.568 15.8933 134.112 15.8933C135.211 15.8933 136.287 15.6525 137.34 15.1709V16.7738ZM133.299 6.95333C132.426 6.95333 131.711 7.26186 131.155 7.87893C130.613 8.496 130.304 9.33131 130.229 10.3848H135.895C135.911 10.3096 135.918 10.2343 135.918 10.1591C135.918 10.0838 135.918 10.0086 135.918 9.93333C135.918 9.0002 135.685 8.27024 135.218 7.74348C134.767 7.21671 134.127 6.95333 133.299 6.95333Z" fill="white"/>
<path d="M123.392 17.2027V9.23348C123.392 7.78863 122.692 7.0662 121.293 7.0662C120.45 7.0662 119.562 7.34464 118.629 7.90151C118.704 8.23262 118.742 8.56373 118.742 8.89484V17.2027H116.619V9.23348C116.619 7.78863 115.92 7.0662 114.52 7.0662C113.692 7.0662 112.842 7.32959 111.969 7.85636V17.2027H109.847V5.86969L111.562 5.68908L111.698 6.47924C112.857 5.75681 113.993 5.3956 115.107 5.3956C116.401 5.3956 117.379 5.80949 118.042 6.63727C119.396 5.80949 120.676 5.3956 121.88 5.3956C123.008 5.3956 123.896 5.70413 124.543 6.32121C125.191 6.93828 125.514 7.79615 125.514 8.89484V17.2027H123.392Z" fill="white"/>
<path d="M101.884 15.8708C102.937 15.8708 103.698 15.5246 104.164 14.8323C104.646 14.1399 104.887 13.0187 104.887 11.4685C104.887 9.91828 104.646 8.79701 104.164 8.10469C103.698 7.41237 102.937 7.0662 101.884 7.0662C100.83 7.0662 100.063 7.41237 99.5812 8.10469C99.1147 8.79701 98.8814 9.91828 98.8814 11.4685C98.8814 13.0187 99.1147 14.1399 99.5812 14.8323C100.063 15.5246 100.83 15.8708 101.884 15.8708ZM101.884 17.5414C100.168 17.5414 98.8663 17.0296 97.9783 16.0062C97.1054 14.9677 96.6689 13.4551 96.6689 11.4685C96.6689 9.48181 97.1054 7.97676 97.9783 6.95333C98.8663 5.91484 100.168 5.3956 101.884 5.3956C103.6 5.3956 104.894 5.91484 105.767 6.95333C106.655 7.97676 107.099 9.48181 107.099 11.4685C107.099 13.4551 106.655 14.9677 105.767 16.0062C104.894 17.0296 103.6 17.5414 101.884 17.5414Z" fill="white"/>
<path d="M84.5811 17.2027V0.248333L86.7032 0V6.32121C87.8621 5.70414 88.9984 5.39561 90.1121 5.39561C91.3613 5.39561 92.3245 5.72672 93.0018 6.38894C93.6941 7.03611 94.0403 7.96172 94.0403 9.16576V17.2027H91.9182V9.48182C91.9182 7.87142 91.1205 7.06621 89.5251 7.06621C89.1037 7.06621 88.6296 7.14146 88.1029 7.29197C87.5912 7.42742 87.1246 7.61556 86.7032 7.85637V17.2027H84.5811Z" fill="white"/>
<path d="M73.922 17.2479L73.7865 16.4577C72.5223 17.1801 71.2957 17.5414 70.1067 17.5414C68.9177 17.5414 67.9695 17.2253 67.2621 16.5932C66.5698 15.946 66.2236 15.0806 66.2236 13.997C66.2236 12.8682 66.6149 11.9952 67.3976 11.3782C68.1802 10.7461 69.2789 10.43 70.6936 10.43C71.5214 10.43 72.4771 10.5278 73.5608 10.7235V9.52696C73.5608 8.69918 73.3199 8.08211 72.8383 7.67575C72.3718 7.26939 71.6493 7.0662 70.6711 7.0662C69.5272 7.0662 68.278 7.32959 66.9235 7.85636V6.20833C67.5556 5.95247 68.2404 5.75681 68.9779 5.62136C69.7153 5.47085 70.4152 5.3956 71.0774 5.3956C72.5674 5.3956 73.6962 5.74176 74.4638 6.43409C75.2464 7.12641 75.6377 8.14232 75.6377 9.48181V17.0673L73.922 17.2479ZM70.6485 15.8933C71.0849 15.8933 71.5741 15.8181 72.1159 15.6676C72.6577 15.5171 73.1393 15.3214 73.5608 15.0806V12.1909C72.8534 12.0103 72.0181 11.92 71.0548 11.92C70.1518 11.92 69.4821 12.0931 69.0456 12.4392C68.6242 12.7703 68.4135 13.2745 68.4135 13.9518C68.4135 15.2462 69.1585 15.8933 70.6485 15.8933Z" fill="white"/>
<path d="M50.1477 15.1032C51.3517 15.6299 52.5558 15.8933 53.7598 15.8933C54.6328 15.8933 55.295 15.7278 55.7465 15.3967C56.2131 15.0655 56.4463 14.5915 56.4463 13.9744C56.4463 13.568 56.3184 13.2369 56.0626 12.9811C55.8067 12.7252 55.3853 12.507 54.7983 12.3264L53.2632 11.8523C52.2397 11.5362 51.4947 11.1298 51.0282 10.6332C50.5616 10.1365 50.3283 9.50439 50.3283 8.73681C50.3283 7.71338 50.7271 6.90065 51.5248 6.29863C52.3225 5.69661 53.3986 5.3956 54.7532 5.3956C55.897 5.3956 56.9882 5.62136 58.0266 6.07287V7.69833C56.8828 7.26186 55.8368 7.04363 54.8886 7.04363C54.121 7.04363 53.519 7.19413 53.0826 7.49514C52.6611 7.7811 52.4504 8.17242 52.4504 8.66908C52.4504 9.03029 52.5633 9.31626 52.7891 9.52696C53.0148 9.72262 53.4362 9.91828 54.0533 10.1139L55.7691 10.6332C57.6353 11.19 58.5685 12.2963 58.5685 13.9518C58.5685 15.1107 58.1696 15.9987 57.3719 16.6157C56.5743 17.2328 55.4229 17.5414 53.9179 17.5414C52.5182 17.5414 51.3442 17.3081 50.396 16.8415L50.1477 15.1032Z" fill="white"/>
<path d="M45.3999 6.99849C45.8665 6.47172 46.2427 5.8998 46.5287 5.28273C46.8146 4.65061 46.9652 4.05611 46.9802 3.49924C46.6792 3.42399 46.4384 3.27349 46.2578 3.04773C46.0922 2.80692 46.0094 2.52849 46.0094 2.21243C46.0094 1.82111 46.1374 1.49753 46.3932 1.24167C46.6641 0.98581 46.9953 0.85788 47.3866 0.85788C47.7929 0.85788 48.1165 1.00839 48.3573 1.30939C48.6132 1.61041 48.7411 2.02429 48.7411 2.55106C48.7411 3.09288 48.6132 3.67985 48.3573 4.31197C48.1015 4.92904 47.7628 5.50849 47.3414 6.0503C46.9351 6.59212 46.4911 7.04364 46.0094 7.40485L45.3999 6.99849Z" fill="white"/>
<path d="M40.9455 7.2694V13.8615C40.9455 14.5388 41.0961 15.043 41.3971 15.3741C41.6981 15.6902 42.1571 15.8482 42.7742 15.8482C43.2407 15.8482 43.7374 15.7654 44.2642 15.5999V17.1124C43.6321 17.3532 42.9774 17.4736 42.3001 17.4736C41.1563 17.4736 40.2909 17.1726 39.7039 16.5706C39.1169 15.9686 38.8234 15.0881 38.8234 13.9293V7.2694H37.1077V5.82455L38.9137 5.75683L39.0718 2.88971L40.9455 2.68652V5.73425H44.1513V7.2694H40.9455Z" fill="white"/>
<path d="M33.3341 17.2479L33.1986 16.4577C31.9344 17.1801 30.7078 17.5414 29.5188 17.5414C28.3298 17.5414 27.3816 17.2253 26.6742 16.5932C25.9819 15.946 25.6357 15.0806 25.6357 13.997C25.6357 12.8682 26.0271 11.9952 26.8097 11.3782C27.5923 10.7461 28.691 10.43 30.1057 10.43C30.9335 10.43 31.8892 10.5278 32.9729 10.7235V9.52696C32.9729 8.69918 32.7321 8.08211 32.2504 7.67575C31.7839 7.26939 31.0614 7.0662 30.0832 7.0662C28.9393 7.0662 27.6901 7.32959 26.3356 7.85636V6.20833C26.9677 5.95247 27.6525 5.75681 28.39 5.62136C29.1275 5.47085 29.8273 5.3956 30.4895 5.3956C31.9795 5.3956 33.1083 5.74176 33.8759 6.43409C34.6585 7.12641 35.0498 8.14232 35.0498 9.48181V17.0673L33.3341 17.2479ZM30.0606 15.8933C30.4971 15.8933 30.9862 15.8181 31.528 15.6676C32.0698 15.5171 32.5514 15.3214 32.9729 15.0806V12.1909C32.2655 12.0103 31.4302 11.92 30.467 11.92C29.5639 11.92 28.8942 12.0931 28.4577 12.4392C28.0363 12.7703 27.8256 13.2745 27.8256 13.9518C27.8256 15.2462 28.5706 15.8933 30.0606 15.8933Z" fill="white"/>
<path d="M13.5027 17.2027V0.248333L15.6248 0V6.32121C16.7837 5.70414 17.92 5.39561 19.0337 5.39561C20.2829 5.39561 21.2462 5.72672 21.9234 6.38894C22.6158 7.03611 22.9619 7.96172 22.9619 9.16576V17.2027H20.8398V9.48182C20.8398 7.87142 20.0421 7.06621 18.4468 7.06621C18.0254 7.06621 17.5513 7.14146 17.0245 7.29197C16.5128 7.42742 16.0462 7.61556 15.6248 7.85637V17.2027H13.5027Z" fill="white"/>
<path d="M4.62803 17.2027V3.20575H0V1.39969H11.4459V3.20575H6.81788V17.2027H4.62803Z" fill="white"/>
</svg>
