<svg width="474" height="20" viewBox="0 0 474 20" fill="none" xmlns="http://www.w3.org/2000/svg">
<path d="M466.578 18.725C467.262 18.5083 467.653 18.175 467.753 17.725C467.87 17.275 467.687 16.675 467.203 15.925L464.253 11.25L461.178 15.925C460.195 17.4083 460.32 18.3417 461.553 18.725V19.125H456.678V18.725C457.828 18.3583 458.837 17.55 459.703 16.3L463.703 10.375L459.828 4.25C459.445 3.63333 459.045 3.14167 458.628 2.775C458.228 2.40833 457.728 2.15833 457.128 2.025V1.625H463.728V2.025C462.895 2.20833 462.445 2.525 462.378 2.975C462.328 3.40833 462.562 4.025 463.078 4.825L465.603 8.8L468.228 4.825C468.812 3.95833 469.07 3.3 469.003 2.85C468.953 2.4 468.487 2.125 467.603 2.025V1.625H472.753V2.025C472.353 2.10833 472.003 2.225 471.703 2.375C471.403 2.525 471.103 2.75833 470.803 3.075C470.503 3.39167 470.145 3.85 469.728 4.45L466.153 9.675L470.503 16.5C470.887 17.1167 471.278 17.5917 471.678 17.925C472.095 18.2417 472.603 18.5083 473.203 18.725V19.125H466.578V18.725Z" fill="white"/>
<path d="M437.717 12.975C437.717 11.625 437.967 10.45 438.467 9.45001C438.967 8.43334 439.667 7.64167 440.567 7.07501C441.467 6.50834 442.509 6.22501 443.692 6.22501C445.226 6.22501 446.451 6.72501 447.367 7.72501C448.284 8.70834 448.826 10.125 448.992 11.975H439.967C439.967 13.7917 440.392 15.2083 441.242 16.225C442.092 17.225 443.284 17.725 444.817 17.725C446.317 17.725 447.467 17.1917 448.267 16.125L448.667 16.35C447.717 18.4667 446.059 19.525 443.692 19.525C442.492 19.525 441.442 19.2583 440.542 18.725C439.642 18.175 438.942 17.4083 438.442 16.425C437.959 15.4417 437.717 14.2917 437.717 12.975ZM446.417 11.075C446.334 9.84167 446.009 8.87501 445.442 8.17501C444.892 7.47501 444.159 7.12501 443.242 7.12501C442.326 7.12501 441.584 7.47501 441.017 8.17501C440.451 8.87501 440.117 9.84167 440.017 11.075H446.417Z" fill="white"/>
<path d="M426.389 18.725C427.072 18.5417 427.547 18.25 427.814 17.85C428.097 17.4333 428.239 16.8083 428.239 15.975V10.225C428.239 9.37501 428.097 8.74167 427.814 8.32501C427.547 7.90834 427.072 7.61667 426.389 7.45001V7.05001L430.014 6.47501C430.164 6.75834 430.272 7.01667 430.339 7.25001C430.405 7.48334 430.447 7.76667 430.464 8.10001C430.847 7.51667 431.314 7.05834 431.864 6.72501C432.43 6.39167 433.047 6.22501 433.714 6.22501C434.647 6.22501 435.472 6.52501 436.189 7.12501L436.339 10.6L435.914 10.7C435.397 9.51667 434.905 8.67501 434.439 8.17501C433.972 7.67501 433.447 7.42501 432.864 7.42501C432.147 7.42501 431.589 7.75834 431.189 8.42501C430.789 9.09167 430.589 10.0333 430.589 11.25V15.975C430.589 16.875 430.755 17.5167 431.089 17.9C431.422 18.2833 432.039 18.5417 432.939 18.675V19.125H426.389V18.725Z" fill="white"/>
<path d="M412.336 14.775V10.325C412.336 9.44167 412.195 8.79167 411.911 8.37501C411.645 7.95834 411.17 7.66667 410.486 7.50001V7.10001L414.511 6.47501L414.786 6.75001C414.72 7.21667 414.686 7.73334 414.686 8.30001V14.925C414.686 16.0583 414.928 16.9417 415.411 17.575C415.895 18.2083 416.57 18.525 417.436 18.525C418.036 18.525 418.595 18.375 419.111 18.075C419.628 17.775 420.036 17.3417 420.336 16.775C420.653 16.2083 420.811 15.5333 420.811 14.75V9.25001C420.811 8.65001 420.711 8.22501 420.511 7.97501C420.328 7.72501 419.903 7.54167 419.236 7.42501V7.05001L423.036 6.47501L423.261 6.70001C423.195 7.25001 423.161 7.80834 423.161 8.37501V15.95C423.161 16.8 423.295 17.4333 423.561 17.85C423.845 18.25 424.328 18.5417 425.011 18.725V19.125L421.386 19.375C421.103 18.8417 420.953 18.3083 420.936 17.775C419.886 18.9417 418.536 19.525 416.886 19.525C415.42 19.525 414.295 19.1167 413.511 18.3C412.728 17.4667 412.336 16.2917 412.336 14.775Z" fill="white"/>
<path d="M400.428 6.62499H402.278V4.12499L404.453 3.77499L404.728 4.04999C404.662 4.51666 404.628 5.03333 404.628 5.59999V6.62499H408.603V7.52499H404.628V15.75C404.628 17.2667 405.262 18.025 406.528 18.025C407.278 18.025 407.92 17.675 408.453 16.975L408.853 17.2C408.187 18.75 407.078 19.525 405.528 19.525C403.362 19.525 402.278 18.25 402.278 15.7V7.52499H400.428V6.62499Z" fill="white"/>
<path d="M384.689 18.725C385.373 18.5417 385.848 18.25 386.114 17.85C386.398 17.4333 386.539 16.8 386.539 15.95V10.275C386.539 9.39167 386.398 8.74167 386.114 8.32501C385.848 7.90834 385.373 7.61667 384.689 7.45001V7.05001L388.314 6.47501C388.564 6.94167 388.706 7.38334 388.739 7.80001C389.806 6.75001 391.164 6.22501 392.814 6.22501C394.348 6.22501 395.523 6.63334 396.339 7.45001C397.156 8.26667 397.564 9.44167 397.564 10.975V15.95C397.564 16.8 397.698 17.4333 397.964 17.85C398.248 18.25 398.731 18.5417 399.414 18.725V19.125H393.364V18.725C394.048 18.5417 394.523 18.25 394.789 17.85C395.073 17.4333 395.214 16.8 395.214 15.95V10.825C395.214 9.69167 394.956 8.80834 394.439 8.17501C393.923 7.54167 393.198 7.22501 392.264 7.22501C391.231 7.22501 390.406 7.60001 389.789 8.35001C389.189 9.08334 388.889 10.075 388.889 11.325V15.95C388.889 16.8 389.023 17.4333 389.289 17.85C389.573 18.25 390.056 18.5417 390.739 18.725V19.125H384.689V18.725Z" fill="white"/>
<path d="M371.628 12.975C371.628 11.625 371.878 10.45 372.378 9.45001C372.878 8.43334 373.578 7.64167 374.478 7.07501C375.378 6.50834 376.42 6.22501 377.603 6.22501C379.137 6.22501 380.362 6.72501 381.278 7.72501C382.195 8.70834 382.737 10.125 382.903 11.975H373.878C373.878 13.7917 374.303 15.2083 375.153 16.225C376.003 17.225 377.195 17.725 378.728 17.725C380.228 17.725 381.378 17.1917 382.178 16.125L382.578 16.35C381.628 18.4667 379.97 19.525 377.603 19.525C376.403 19.525 375.353 19.2583 374.453 18.725C373.553 18.175 372.853 17.4083 372.353 16.425C371.87 15.4417 371.628 14.2917 371.628 12.975ZM380.328 11.075C380.245 9.84167 379.92 8.87501 379.353 8.17501C378.803 7.47501 378.07 7.12501 377.153 7.12501C376.237 7.12501 375.495 7.47501 374.928 8.17501C374.362 8.87501 374.028 9.84167 373.928 11.075H380.328Z" fill="white"/>
<path d="M355.189 1.625H361.789V2.025C360.956 2.20833 360.439 2.54167 360.239 3.025C360.056 3.50833 360.106 4.10833 360.389 4.825L364.739 15.425L369.064 4.85C369.364 4.11667 369.372 3.49167 369.089 2.975C368.806 2.44167 368.222 2.125 367.339 2.025V1.625H372.489V2.025C371.872 2.15833 371.422 2.44167 371.139 2.875C370.856 3.30833 370.531 3.96667 370.164 4.85L364.064 19.375H363.614L357.514 4.85C357.147 3.96667 356.814 3.30833 356.514 2.875C356.231 2.44167 355.789 2.15833 355.189 2.025V1.625Z" fill="white"/>
<path d="M333.197 18.725C333.881 18.5417 334.356 18.2417 334.622 17.825C334.906 17.4083 335.047 16.7667 335.047 15.9V3.85C335.047 2.96667 334.906 2.31667 334.622 1.9C334.356 1.48333 333.881 1.19167 333.197 1.025V0.625001L337.222 0L337.497 0.275001C337.431 0.741667 337.397 1.25 337.397 1.8V7.65C338.431 6.7 339.739 6.225 341.322 6.225C342.856 6.225 344.031 6.63333 344.847 7.45C345.664 8.26667 346.072 9.44167 346.072 10.975V15.95C346.072 16.8 346.206 17.4333 346.472 17.85C346.756 18.25 347.239 18.5417 347.922 18.725V19.125H341.872V18.725C342.556 18.5417 343.031 18.25 343.297 17.85C343.581 17.4333 343.722 16.8 343.722 15.95V10.825C343.722 9.69167 343.464 8.80833 342.947 8.175C342.431 7.54167 341.706 7.225 340.772 7.225C339.739 7.225 338.914 7.6 338.297 8.35C337.697 9.08333 337.397 10.075 337.397 11.325V16.025C337.397 16.8583 337.531 17.475 337.797 17.875C338.081 18.275 338.564 18.5583 339.247 18.725V19.125H333.197V18.725Z" fill="white"/>
<path d="M322.889 6.62499H324.739V4.12499L326.914 3.77499L327.189 4.04999C327.123 4.51666 327.089 5.03333 327.089 5.59999V6.62499H331.064V7.52499H327.089V15.75C327.089 17.2667 327.722 18.025 328.989 18.025C329.739 18.025 330.381 17.675 330.914 16.975L331.314 17.2C330.648 18.75 329.539 19.525 327.989 19.525C325.822 19.525 324.739 18.25 324.739 15.7V7.52499H322.889V6.62499Z" fill="white"/>
<path d="M315.817 18.725C316.501 18.5417 316.976 18.25 317.242 17.85C317.526 17.4333 317.667 16.8 317.667 15.95V10.275C317.667 9.39166 317.526 8.74166 317.242 8.32499C316.976 7.90833 316.501 7.61666 315.817 7.44999V7.04999L319.842 6.47499L320.117 6.74999C320.084 7.01666 320.059 7.27499 320.042 7.52499C320.026 7.75833 320.017 8.01666 320.017 8.29999V15.95C320.017 16.8 320.151 17.4333 320.417 17.85C320.701 18.25 321.184 18.5417 321.867 18.725V19.125H315.817V18.725ZM317.042 2.39999C317.042 1.91666 317.192 1.52499 317.492 1.22499C317.809 0.924994 318.201 0.774994 318.667 0.774994C319.151 0.774994 319.542 0.924994 319.842 1.22499C320.142 1.52499 320.292 1.91666 320.292 2.39999C320.292 2.86666 320.142 3.25833 319.842 3.57499C319.542 3.87499 319.151 4.02499 318.667 4.02499C318.201 4.02499 317.809 3.87499 317.492 3.57499C317.192 3.25833 317.042 2.86666 317.042 2.39999Z" fill="white"/>
<path d="M292.513 6.625H298.713V7.025C298.03 7.09167 297.588 7.35 297.388 7.8C297.188 8.25 297.246 8.85 297.563 9.6L300.338 15.95L303.088 9.675L302.638 8.675C302.421 8.19167 302.171 7.83333 301.888 7.6C301.621 7.36667 301.205 7.175 300.638 7.025V6.625H306.838V7.025C306.155 7.09167 305.713 7.35 305.513 7.8C305.313 8.25 305.371 8.85 305.688 9.6L308.463 15.95L311.238 9.6C311.571 8.85 311.63 8.25 311.413 7.8C311.213 7.35 310.771 7.09167 310.088 7.025V6.625H314.638V7.025C314.071 7.175 313.655 7.36667 313.388 7.6C313.121 7.83333 312.871 8.19167 312.638 8.675L307.863 19.375H307.413L303.588 10.775L299.738 19.375H299.288L294.513 8.675C294.296 8.19167 294.046 7.83333 293.763 7.6C293.496 7.36667 293.08 7.175 292.513 7.025V6.625Z" fill="white"/>
<path d="M282.623 16.6C282.623 15.9833 282.389 15.4667 281.923 15.05C281.456 14.6333 280.656 14.2 279.523 13.75C278.006 13.1333 276.931 12.5167 276.298 11.9C275.664 11.2667 275.348 10.5417 275.348 9.72501C275.348 8.65834 275.764 7.80834 276.598 7.17501C277.448 6.54167 278.581 6.22501 279.998 6.22501C280.681 6.22501 281.389 6.30834 282.123 6.47501C282.856 6.62501 283.539 6.84167 284.173 7.12501L284.573 10.45L284.148 10.575C283.581 9.45834 282.914 8.60834 282.148 8.02501C281.381 7.42501 280.564 7.12501 279.698 7.12501C279.031 7.12501 278.506 7.29167 278.123 7.62501C277.756 7.94167 277.573 8.36667 277.573 8.90001C277.573 9.45001 277.806 9.92501 278.273 10.325C278.739 10.7083 279.556 11.1333 280.723 11.6C282.256 12.2167 283.323 12.8167 283.923 13.4C284.539 13.9833 284.848 14.7 284.848 15.55C284.848 16.3167 284.639 17 284.223 17.6C283.823 18.2 283.256 18.675 282.523 19.025C281.806 19.3583 280.964 19.525 279.998 19.525C279.331 19.525 278.623 19.4333 277.873 19.25C277.123 19.0833 276.373 18.8333 275.623 18.5L275.223 15.175L275.648 15.05C276.214 16.1833 276.906 17.0667 277.723 17.7C278.556 18.3167 279.431 18.625 280.348 18.625C281.064 18.625 281.623 18.4417 282.023 18.075C282.423 17.7083 282.623 17.2167 282.623 16.6Z" fill="white"/>
<path d="M261.912 12.975C261.912 11.625 262.162 10.45 262.662 9.45001C263.162 8.43334 263.862 7.64167 264.762 7.07501C265.662 6.50834 266.703 6.22501 267.887 6.22501C269.42 6.22501 270.645 6.72501 271.562 7.72501C272.478 8.70834 273.02 10.125 273.187 11.975H264.162C264.162 13.7917 264.587 15.2083 265.437 16.225C266.287 17.225 267.478 17.725 269.012 17.725C270.512 17.725 271.662 17.1917 272.462 16.125L272.862 16.35C271.912 18.4667 270.253 19.525 267.887 19.525C266.687 19.525 265.637 19.2583 264.737 18.725C263.837 18.175 263.137 17.4083 262.637 16.425C262.153 15.4417 261.912 14.2917 261.912 12.975ZM270.612 11.075C270.528 9.84167 270.203 8.87501 269.637 8.17501C269.087 7.47501 268.353 7.12501 267.437 7.12501C266.52 7.12501 265.778 7.47501 265.212 8.17501C264.645 8.87501 264.312 9.84167 264.212 11.075H270.612Z" fill="white"/>
<path d="M254.462 18.725C255.145 18.5417 255.62 18.25 255.887 17.85C256.17 17.4333 256.312 16.8083 256.312 15.975V3.85C256.312 2.96667 256.17 2.31667 255.887 1.9C255.62 1.48333 255.145 1.19167 254.462 1.025V0.625001L258.487 0L258.762 0.275001C258.695 0.741667 258.662 1.26667 258.662 1.85V15.975C258.662 16.8083 258.795 17.4333 259.062 17.85C259.345 18.25 259.829 18.5417 260.512 18.725V19.125H254.462V18.725Z" fill="white"/>
<path d="M247.165 18.725C247.848 18.5417 248.323 18.25 248.59 17.85C248.873 17.4333 249.015 16.8 249.015 15.95V10.275C249.015 9.39166 248.873 8.74166 248.59 8.32499C248.323 7.90833 247.848 7.61666 247.165 7.44999V7.04999L251.19 6.47499L251.465 6.74999C251.432 7.01666 251.407 7.27499 251.39 7.52499C251.373 7.75833 251.365 8.01666 251.365 8.29999V15.95C251.365 16.8 251.498 17.4333 251.765 17.85C252.048 18.25 252.532 18.5417 253.215 18.725V19.125H247.165V18.725ZM248.39 2.39999C248.39 1.91666 248.54 1.52499 248.84 1.22499C249.157 0.924994 249.548 0.774994 250.015 0.774994C250.498 0.774994 250.89 0.924994 251.19 1.22499C251.49 1.52499 251.64 1.91666 251.64 2.39999C251.64 2.86666 251.49 3.25833 251.19 3.57499C250.89 3.87499 250.498 4.02499 250.015 4.02499C249.548 4.02499 249.157 3.87499 248.84 3.57499C248.54 3.25833 248.39 2.86666 248.39 2.39999Z" fill="white"/>
<path d="M223.044 18.725C223.727 18.5417 224.202 18.25 224.469 17.85C224.752 17.4333 224.894 16.8 224.894 15.95V10.275C224.894 9.39167 224.752 8.74167 224.469 8.32501C224.202 7.90834 223.727 7.61667 223.044 7.45001V7.05001L226.669 6.47501C226.902 6.92501 227.044 7.35001 227.094 7.75001C228.111 6.73334 229.394 6.22501 230.944 6.22501C232.894 6.22501 234.227 6.94167 234.944 8.37501C236.077 6.94167 237.552 6.22501 239.369 6.22501C240.836 6.22501 241.961 6.63334 242.744 7.45001C243.544 8.26667 243.944 9.44167 243.944 10.975V15.95C243.944 16.8 244.077 17.4333 244.344 17.85C244.627 18.25 245.111 18.5417 245.794 18.725V19.125H239.744V18.725C240.427 18.5417 240.902 18.25 241.169 17.85C241.452 17.4333 241.594 16.8 241.594 15.95V10.825C241.594 9.69167 241.344 8.80834 240.844 8.17501C240.344 7.54167 239.652 7.22501 238.769 7.22501C237.802 7.22501 237.027 7.60001 236.444 8.35001C235.877 9.08334 235.594 10.075 235.594 11.325V15.95C235.594 16.8 235.727 17.4333 235.994 17.85C236.277 18.25 236.761 18.5417 237.444 18.725V19.125H231.394V18.725C232.077 18.5417 232.552 18.25 232.819 17.85C233.102 17.4333 233.244 16.8 233.244 15.95V10.825C233.244 9.69167 232.994 8.80834 232.494 8.17501C231.994 7.54167 231.302 7.22501 230.419 7.22501C229.452 7.22501 228.677 7.60001 228.094 8.35001C227.527 9.08334 227.244 10.075 227.244 11.325V15.95C227.244 16.8 227.377 17.4333 227.644 17.85C227.927 18.25 228.411 18.5417 229.094 18.725V19.125H223.044V18.725Z" fill="white"/>
<path d="M208.766 18.725C209.449 18.5083 209.841 18.175 209.941 17.725C210.057 17.275 209.874 16.675 209.391 15.925L206.441 11.25L203.366 15.925C202.382 17.4083 202.507 18.3417 203.741 18.725V19.125H198.866V18.725C200.016 18.3583 201.024 17.55 201.891 16.3L205.891 10.375L202.016 4.25C201.632 3.63333 201.232 3.14167 200.816 2.775C200.416 2.40833 199.916 2.15833 199.316 2.025V1.625H205.916V2.025C205.082 2.20833 204.632 2.525 204.566 2.975C204.516 3.40833 204.749 4.025 205.266 4.825L207.791 8.8L210.416 4.825C210.999 3.95833 211.257 3.3 211.191 2.85C211.141 2.4 210.674 2.125 209.791 2.025V1.625H214.941V2.025C214.541 2.10833 214.191 2.225 213.891 2.375C213.591 2.525 213.291 2.75833 212.991 3.075C212.691 3.39167 212.332 3.85 211.916 4.45L208.341 9.675L212.691 16.5C213.074 17.1167 213.466 17.5917 213.866 17.925C214.282 18.2417 214.791 18.5083 215.391 18.725V19.125H208.766V18.725Z" fill="white"/>
<path d="M193.695 5.425C193.695 4.425 193.437 3.68333 192.92 3.2C192.42 2.71667 191.828 2.475 191.145 2.475C190.128 2.475 189.278 2.84167 188.595 3.575C187.912 4.30833 187.287 5.475 186.72 7.075L186.27 7L186.77 2.575C187.703 2.225 188.545 1.98333 189.295 1.85C190.045 1.7 190.753 1.625 191.42 1.625C192.953 1.625 194.162 1.96667 195.045 2.65C195.945 3.31667 196.395 4.28333 196.395 5.55C196.395 6.18333 196.187 6.9 195.77 7.7C195.353 8.48333 194.645 9.45833 193.645 10.625C192.662 11.775 191.32 13.2167 189.62 14.95L187.695 16.925H194.195C194.928 16.925 195.487 16.7417 195.87 16.375C196.27 16.0083 196.653 15.3417 197.02 14.375L197.47 14.45L196.92 19.125H185.295L185.12 18.725L188.82 14.225C189.737 13.1083 190.503 12.1333 191.12 11.3C191.753 10.4667 192.253 9.725 192.62 9.075C193.003 8.425 193.278 7.80833 193.445 7.225C193.612 6.64167 193.695 6.04167 193.695 5.425Z" fill="white"/>
<path d="M164.036 13.2C164.036 11.8333 164.294 10.625 164.811 9.575C165.327 8.525 166.044 7.70833 166.961 7.125C167.877 6.525 168.927 6.225 170.111 6.225C171.444 6.225 172.627 6.575 173.661 7.275V3.825C173.661 2.94167 173.519 2.29167 173.236 1.875C172.969 1.44167 172.494 1.14167 171.811 0.975001V0.575L175.836 0L176.111 0.275001C176.044 0.741667 176.011 1.25833 176.011 1.825V15.95C176.011 16.8 176.144 17.4333 176.411 17.85C176.694 18.25 177.177 18.5417 177.861 18.725V19.125L174.236 19.375C173.986 18.8917 173.844 18.4167 173.811 17.95C172.744 19 171.419 19.525 169.836 19.525C168.069 19.525 166.661 18.9583 165.611 17.825C164.561 16.6917 164.036 15.15 164.036 13.2ZM166.486 12.425C166.486 13.6417 166.644 14.7083 166.961 15.625C167.294 16.5417 167.752 17.2583 168.336 17.775C168.936 18.275 169.619 18.525 170.386 18.525C171.336 18.525 172.119 18.1583 172.736 17.425C173.352 16.675 173.661 15.725 173.661 14.575V11.05C173.661 10.3167 173.494 9.65833 173.161 9.075C172.844 8.475 172.411 8 171.861 7.65C171.311 7.3 170.694 7.125 170.011 7.125C168.911 7.125 168.044 7.59167 167.411 8.525C166.794 9.45833 166.486 10.7583 166.486 12.425Z" fill="white"/>
<path d="M150.95 12.975C150.95 11.625 151.2 10.45 151.7 9.45001C152.2 8.43334 152.9 7.64167 153.8 7.07501C154.7 6.50834 155.741 6.22501 156.925 6.22501C158.458 6.22501 159.683 6.72501 160.6 7.72501C161.516 8.70834 162.058 10.125 162.225 11.975H153.2C153.2 13.7917 153.625 15.2083 154.475 16.225C155.325 17.225 156.516 17.725 158.05 17.725C159.55 17.725 160.7 17.1917 161.5 16.125L161.9 16.35C160.95 18.4667 159.291 19.525 156.925 19.525C155.725 19.525 154.675 19.2583 153.775 18.725C152.875 18.175 152.175 17.4083 151.675 16.425C151.191 15.4417 150.95 14.2917 150.95 12.975ZM159.65 11.075C159.566 9.84167 159.241 8.87501 158.675 8.17501C158.125 7.47501 157.391 7.12501 156.475 7.12501C155.558 7.12501 154.816 7.47501 154.25 8.17501C153.683 8.87501 153.35 9.84167 153.25 11.075H159.65Z" fill="white"/>
<path d="M140.736 6.62499H142.586V4.12499L144.761 3.77499L145.036 4.04999C144.969 4.51666 144.936 5.03333 144.936 5.59999V6.62499H148.911V7.52499H144.936V15.75C144.936 17.2667 145.569 18.025 146.836 18.025C147.586 18.025 148.228 17.675 148.761 16.975L149.161 17.2C148.494 18.75 147.386 19.525 145.836 19.525C143.669 19.525 142.586 18.25 142.586 15.7V7.52499H140.736V6.62499Z" fill="white"/>
<path d="M133.664 18.725C134.347 18.5417 134.822 18.25 135.089 17.85C135.372 17.4333 135.514 16.8 135.514 15.95V10.275C135.514 9.39166 135.372 8.74166 135.089 8.32499C134.822 7.90833 134.347 7.61666 133.664 7.44999V7.04999L137.689 6.47499L137.964 6.74999C137.931 7.01666 137.906 7.27499 137.889 7.52499C137.872 7.75833 137.864 8.01666 137.864 8.29999V15.95C137.864 16.8 137.997 17.4333 138.264 17.85C138.547 18.25 139.031 18.5417 139.714 18.725V19.125H133.664V18.725ZM134.889 2.39999C134.889 1.91666 135.039 1.52499 135.339 1.22499C135.656 0.924994 136.047 0.774994 136.514 0.774994C136.997 0.774994 137.389 0.924994 137.689 1.22499C137.989 1.52499 138.139 1.91666 138.139 2.39999C138.139 2.86666 137.989 3.25833 137.689 3.57499C137.389 3.87499 136.997 4.02499 136.514 4.02499C136.047 4.02499 135.656 3.87499 135.339 3.57499C135.039 3.25833 134.889 2.86666 134.889 2.39999Z" fill="white"/>
<path d="M109.543 18.725C110.226 18.5417 110.701 18.25 110.968 17.85C111.251 17.4333 111.393 16.8 111.393 15.95V10.275C111.393 9.39167 111.251 8.74167 110.968 8.32501C110.701 7.90834 110.226 7.61667 109.543 7.45001V7.05001L113.168 6.47501C113.401 6.92501 113.543 7.35001 113.593 7.75001C114.61 6.73334 115.893 6.22501 117.443 6.22501C119.393 6.22501 120.726 6.94167 121.443 8.37501C122.576 6.94167 124.051 6.22501 125.868 6.22501C127.335 6.22501 128.46 6.63334 129.243 7.45001C130.043 8.26667 130.443 9.44167 130.443 10.975V15.95C130.443 16.8 130.576 17.4333 130.843 17.85C131.126 18.25 131.61 18.5417 132.293 18.725V19.125H126.243V18.725C126.926 18.5417 127.401 18.25 127.668 17.85C127.951 17.4333 128.093 16.8 128.093 15.95V10.825C128.093 9.69167 127.843 8.80834 127.343 8.17501C126.843 7.54167 126.151 7.22501 125.268 7.22501C124.301 7.22501 123.526 7.60001 122.943 8.35001C122.376 9.08334 122.093 10.075 122.093 11.325V15.95C122.093 16.8 122.226 17.4333 122.493 17.85C122.776 18.25 123.26 18.5417 123.943 18.725V19.125H117.893V18.725C118.576 18.5417 119.051 18.25 119.318 17.85C119.601 17.4333 119.743 16.8 119.743 15.95V10.825C119.743 9.69167 119.493 8.80834 118.993 8.17501C118.493 7.54167 117.801 7.22501 116.918 7.22501C115.951 7.22501 115.176 7.60001 114.593 8.35001C114.026 9.08334 113.743 10.075 113.743 11.325V15.95C113.743 16.8 113.876 17.4333 114.143 17.85C114.426 18.25 114.91 18.5417 115.593 18.725V19.125H109.543V18.725Z" fill="white"/>
<path d="M102.121 18.725C102.804 18.5417 103.279 18.25 103.546 17.85C103.829 17.4333 103.971 16.8 103.971 15.95V10.275C103.971 9.39166 103.829 8.74166 103.546 8.32499C103.279 7.90833 102.804 7.61666 102.121 7.44999V7.04999L106.146 6.47499L106.421 6.74999C106.388 7.01666 106.363 7.27499 106.346 7.52499C106.329 7.75833 106.321 8.01666 106.321 8.29999V15.95C106.321 16.8 106.454 17.4333 106.721 17.85C107.004 18.25 107.488 18.5417 108.171 18.725V19.125H102.121V18.725ZM103.346 2.39999C103.346 1.91666 103.496 1.52499 103.796 1.22499C104.113 0.924994 104.504 0.774994 104.971 0.774994C105.454 0.774994 105.846 0.924994 106.146 1.22499C106.446 1.52499 106.596 1.91666 106.596 2.39999C106.596 2.86666 106.446 3.25833 106.146 3.57499C105.846 3.87499 105.454 4.02499 104.971 4.02499C104.504 4.02499 104.113 3.87499 103.796 3.57499C103.496 3.25833 103.346 2.86666 103.346 2.39999Z" fill="white"/>
<path d="M94.6963 18.725C95.3796 18.5417 95.8546 18.25 96.1213 17.85C96.4046 17.4333 96.5463 16.8083 96.5463 15.975V3.85C96.5463 2.96667 96.4046 2.31667 96.1213 1.9C95.8546 1.48333 95.3796 1.19167 94.6963 1.025V0.625001L98.7213 0L98.9963 0.275001C98.9296 0.741667 98.8963 1.26667 98.8963 1.85V15.975C98.8963 16.8083 99.0296 17.4333 99.2963 17.85C99.5796 18.25 100.063 18.5417 100.746 18.725V19.125H94.6963V18.725Z" fill="white"/>
<path d="M78.7324 18.725C79.4158 18.5417 79.8908 18.25 80.1574 17.85C80.4408 17.4333 80.5824 16.8 80.5824 15.95V10.275C80.5824 9.39167 80.4408 8.74167 80.1574 8.32501C79.8908 7.90834 79.4158 7.61667 78.7324 7.45001V7.05001L82.3574 6.47501C82.6074 6.94167 82.7491 7.38334 82.7824 7.80001C83.8491 6.75001 85.2074 6.22501 86.8574 6.22501C88.3908 6.22501 89.5658 6.63334 90.3824 7.45001C91.1991 8.26667 91.6074 9.44167 91.6074 10.975V15.95C91.6074 16.8 91.7408 17.4333 92.0074 17.85C92.2908 18.25 92.7741 18.5417 93.4574 18.725V19.125H87.4074V18.725C88.0908 18.5417 88.5658 18.25 88.8324 17.85C89.1158 17.4333 89.2574 16.8 89.2574 15.95V10.825C89.2574 9.69167 88.9991 8.80834 88.4824 8.17501C87.9658 7.54167 87.2408 7.22501 86.3074 7.22501C85.2741 7.22501 84.4491 7.60001 83.8324 8.35001C83.2324 9.08334 82.9324 10.075 82.9324 11.325V15.95C82.9324 16.8 83.0658 17.4333 83.3324 17.85C83.6158 18.25 84.0991 18.5417 84.7824 18.725V19.125H78.7324V18.725Z" fill="white"/>
<path d="M64.6801 14.775V10.325C64.6801 9.44167 64.5384 8.79167 64.2551 8.37501C63.9884 7.95834 63.5134 7.66667 62.8301 7.50001V7.10001L66.8551 6.47501L67.1301 6.75001C67.0634 7.21667 67.0301 7.73334 67.0301 8.30001V14.925C67.0301 16.0583 67.2717 16.9417 67.7551 17.575C68.2384 18.2083 68.9134 18.525 69.7801 18.525C70.3801 18.525 70.9384 18.375 71.4551 18.075C71.9717 17.775 72.3801 17.3417 72.6801 16.775C72.9967 16.2083 73.1551 15.5333 73.1551 14.75V9.25001C73.1551 8.65001 73.0551 8.22501 72.8551 7.97501C72.6717 7.72501 72.2467 7.54167 71.5801 7.42501V7.05001L75.3801 6.47501L75.6051 6.70001C75.5384 7.25001 75.5051 7.80834 75.5051 8.37501V15.95C75.5051 16.8 75.6384 17.4333 75.9051 17.85C76.1884 18.25 76.6717 18.5417 77.3551 18.725V19.125L73.7301 19.375C73.4467 18.8417 73.2967 18.3083 73.2801 17.775C72.2301 18.9417 70.8801 19.525 69.2301 19.525C67.7634 19.525 66.6384 19.1167 65.8551 18.3C65.0717 17.4667 64.6801 16.2917 64.6801 14.775Z" fill="white"/>
<path d="M40.8662 18.725C41.5495 18.5417 42.0245 18.25 42.2912 17.85C42.5745 17.4333 42.7162 16.8 42.7162 15.95V10.275C42.7162 9.39167 42.5745 8.74167 42.2912 8.32501C42.0245 7.90834 41.5495 7.61667 40.8662 7.45001V7.05001L44.4912 6.47501C44.7412 6.94167 44.8829 7.38334 44.9162 7.80001C45.9829 6.75001 47.3412 6.22501 48.9912 6.22501C50.5245 6.22501 51.6995 6.63334 52.5162 7.45001C53.3329 8.26667 53.7412 9.44167 53.7412 10.975V15.95C53.7412 16.8 53.8745 17.4333 54.1412 17.85C54.4245 18.25 54.9079 18.5417 55.5912 18.725V19.125H49.5412V18.725C50.2245 18.5417 50.6995 18.25 50.9662 17.85C51.2495 17.4333 51.3912 16.8 51.3912 15.95V10.825C51.3912 9.69167 51.1329 8.80834 50.6162 8.17501C50.0995 7.54167 49.3745 7.22501 48.4412 7.22501C47.4079 7.22501 46.5829 7.60001 45.9662 8.35001C45.3662 9.08334 45.0662 10.075 45.0662 11.325V15.95C45.0662 16.8 45.1995 17.4333 45.4662 17.85C45.7495 18.25 46.2329 18.5417 46.9162 18.725V19.125H40.8662V18.725Z" fill="white"/>
<path d="M29.5625 18.725C30.2458 18.5417 30.7208 18.25 30.9875 17.85C31.2708 17.4333 31.4125 16.8083 31.4125 15.975V10.225C31.4125 9.37501 31.2708 8.74167 30.9875 8.32501C30.7208 7.90834 30.2458 7.61667 29.5625 7.45001V7.05001L33.1875 6.47501C33.3375 6.75834 33.4458 7.01667 33.5125 7.25001C33.5792 7.48334 33.6208 7.76667 33.6375 8.10001C34.0208 7.51667 34.4875 7.05834 35.0375 6.72501C35.6042 6.39167 36.2208 6.22501 36.8875 6.22501C37.8208 6.22501 38.6458 6.52501 39.3625 7.12501L39.5125 10.6L39.0875 10.7C38.5708 9.51667 38.0792 8.67501 37.6125 8.17501C37.1458 7.67501 36.6208 7.42501 36.0375 7.42501C35.3208 7.42501 34.7625 7.75834 34.3625 8.42501C33.9625 9.09167 33.7625 10.0333 33.7625 11.25V15.975C33.7625 16.875 33.9292 17.5167 34.2625 17.9C34.5958 18.2833 35.2125 18.5417 36.1125 18.675V19.125H29.5625V18.725Z" fill="white"/>
<path d="M16.0005 16.225C16.0005 15.4083 16.2588 14.6917 16.7755 14.075C17.2922 13.4583 18.0172 12.9833 18.9505 12.65C19.8838 12.3 20.9672 12.125 22.2005 12.125C22.8172 12.125 23.4422 12.1667 24.0755 12.25V10.65C24.0755 9.55001 23.8255 8.69167 23.3255 8.07501C22.8422 7.44167 22.1672 7.12501 21.3005 7.12501C19.6505 7.12501 18.2588 8.31667 17.1255 10.7L16.7005 10.575L17.1005 7.12501C18.6005 6.52501 20.0588 6.22501 21.4755 6.22501C23.0588 6.22501 24.2755 6.62501 25.1255 7.42501C25.9922 8.20834 26.4255 9.34167 26.4255 10.825V16.925C26.4255 17.7917 26.7672 18.225 27.4505 18.225C27.7005 18.225 27.9255 18.1333 28.1255 17.95L28.4505 18.2C27.9338 18.9833 27.2255 19.375 26.3255 19.375C25.2922 19.375 24.6172 18.8917 24.3005 17.925C23.3005 18.9917 22.0088 19.525 20.4255 19.525C19.0588 19.525 17.9755 19.2333 17.1755 18.65C16.3922 18.05 16.0005 17.2417 16.0005 16.225ZM18.4505 15.925C18.4505 16.7417 18.7005 17.3833 19.2005 17.85C19.7172 18.3167 20.3838 18.55 21.2005 18.55C22.0172 18.55 22.7005 18.2167 23.2505 17.55C23.8005 16.8833 24.0755 15.8833 24.0755 14.55V13.125C23.8088 13.0917 23.5505 13.0667 23.3005 13.05C23.0672 13.0333 22.8338 13.025 22.6005 13.025C21.2838 13.025 20.2588 13.2833 19.5255 13.8C18.8088 14.3 18.4505 15.0083 18.4505 15.925Z" fill="white"/>
<path d="M0 18.675C0.716667 18.4917 1.21667 18.1833 1.5 17.75C1.8 17.3167 1.95 16.6583 1.95 15.775V4.975C1.95 4.09167 1.8 3.43333 1.5 3C1.21667 2.56667 0.716667 2.25833 0 2.075V1.625H8.725C9.45833 1.625 10.1167 1.60833 10.7 1.575C11.3 1.525 11.925 1.45833 12.575 1.375L13.15 6.325L12.7 6.4C12.3167 5.41667 11.925 4.65 11.525 4.1C11.1417 3.55 10.6917 3.15833 10.175 2.925C9.675 2.69167 9.04167 2.575 8.275 2.575H4.45V9.65H6.975C8.00833 9.65 8.75 9.5 9.2 9.2C9.66667 8.88333 10.0167 8.3 10.25 7.45H10.6V12.8H10.25C10.0333 11.95 9.69167 11.375 9.225 11.075C8.75833 10.7583 8.00833 10.6 6.975 10.6H4.45V15.675C4.45 16.5417 4.6 17.175 4.9 17.575C5.2 17.975 5.68333 18.175 6.35 18.175H8.075C8.84167 18.175 9.50833 18.0417 10.075 17.775C10.6417 17.4917 11.1667 16.9917 11.65 16.275C12.1333 15.5417 12.6333 14.5083 13.15 13.175L13.6 13.275L12.95 19.125H0V18.675Z" fill="white"/>
</svg>
