<svg width="195" height="14" viewBox="0 0 195 14" fill="none" xmlns="http://www.w3.org/2000/svg">
<path d="M193.018 9.27999C193.018 8.93525 192.887 8.64641 192.626 8.41348C192.366 8.18055 191.918 7.9383 191.285 7.68674C190.437 7.342 189.836 6.99726 189.482 6.65252C189.128 6.29847 188.951 5.89316 188.951 5.43662C188.951 4.84031 189.184 4.36514 189.65 4.01108C190.125 3.65702 190.758 3.48 191.55 3.48C191.932 3.48 192.328 3.52658 192.738 3.61975C193.148 3.70361 193.53 3.82473 193.884 3.98313L194.108 5.84192L193.87 5.9118C193.553 5.28754 193.181 4.81236 192.752 4.48626C192.324 4.15084 191.867 3.98313 191.383 3.98313C191.01 3.98313 190.716 4.0763 190.502 4.26265C190.297 4.43967 190.195 4.67726 190.195 4.97542C190.195 5.28289 190.325 5.54843 190.586 5.77204C190.847 5.98634 191.303 6.22393 191.956 6.48481C192.813 6.82955 193.409 7.16497 193.744 7.49107C194.089 7.81718 194.262 8.21782 194.262 8.693C194.262 9.12159 194.145 9.5036 193.912 9.83902C193.689 10.1744 193.372 10.44 192.962 10.6356C192.561 10.822 192.091 10.9152 191.55 10.9152C191.178 10.9152 190.782 10.8639 190.362 10.7614C189.943 10.6683 189.524 10.5285 189.104 10.3422L188.881 8.48336L189.118 8.41348C189.435 9.04706 189.822 9.54087 190.278 9.89493C190.744 10.2397 191.233 10.412 191.746 10.412C192.147 10.412 192.459 10.3095 192.682 10.1046C192.906 9.89958 193.018 9.62473 193.018 9.27999Z" fill="white"/>
<path d="M184.592 10.4679C184.974 10.3655 185.239 10.2024 185.388 9.97879C185.547 9.74585 185.626 9.3918 185.626 8.91662V5.74409C185.626 5.25028 185.547 4.88691 185.388 4.65397C185.239 4.42104 184.974 4.25799 184.592 4.16482V3.9412L186.842 3.61976L186.996 3.77349C186.977 3.92257 186.963 4.06699 186.954 4.20675C186.944 4.33719 186.94 4.48161 186.94 4.64V8.91662C186.94 9.3918 187.014 9.74585 187.163 9.97879C187.322 10.2024 187.592 10.3655 187.974 10.4679V10.6916H184.592V10.4679ZM185.277 1.34169C185.277 1.07149 185.36 0.852535 185.528 0.684824C185.705 0.517113 185.924 0.433258 186.185 0.433258C186.455 0.433258 186.674 0.517113 186.842 0.684824C187.01 0.852535 187.093 1.07149 187.093 1.34169C187.093 1.60257 187.01 1.82153 186.842 1.99856C186.674 2.16627 186.455 2.25012 186.185 2.25012C185.924 2.25012 185.705 2.16627 185.528 1.99856C185.36 1.82153 185.277 1.60257 185.277 1.34169Z" fill="white"/>
<path d="M178.741 9.27999C178.741 8.93525 178.611 8.64641 178.35 8.41348C178.089 8.18055 177.642 7.9383 177.008 7.68674C176.16 7.342 175.559 6.99726 175.205 6.65252C174.851 6.29847 174.674 5.89316 174.674 5.43662C174.674 4.84031 174.907 4.36514 175.373 4.01108C175.848 3.65702 176.482 3.48 177.274 3.48C177.656 3.48 178.052 3.52658 178.462 3.61975C178.872 3.70361 179.254 3.82473 179.608 3.98313L179.831 5.84192L179.594 5.9118C179.277 5.28754 178.904 4.81236 178.476 4.48626C178.047 4.15084 177.591 3.98313 177.106 3.98313C176.733 3.98313 176.44 4.0763 176.226 4.26265C176.021 4.43967 175.918 4.67726 175.918 4.97542C175.918 5.28289 176.049 5.54843 176.31 5.77204C176.57 5.98634 177.027 6.22393 177.679 6.48481C178.536 6.82955 179.133 7.16497 179.468 7.49107C179.813 7.81718 179.985 8.21782 179.985 8.693C179.985 9.12159 179.869 9.5036 179.636 9.83902C179.412 10.1744 179.095 10.44 178.685 10.6356C178.285 10.822 177.814 10.9152 177.274 10.9152C176.901 10.9152 176.505 10.8639 176.086 10.7614C175.667 10.6683 175.247 10.5285 174.828 10.3422L174.604 8.48336L174.842 8.41348C175.159 9.04706 175.546 9.54087 176.002 9.89493C176.468 10.2397 176.957 10.412 177.47 10.412C177.87 10.412 178.182 10.3095 178.406 10.1046C178.63 9.89958 178.741 9.62473 178.741 9.27999Z" fill="white"/>
<path d="M167.163 7.25348C167.163 6.49879 167.303 5.84192 167.583 5.28288C167.862 4.71453 168.253 4.27196 168.757 3.95518C169.26 3.63839 169.842 3.48 170.504 3.48C171.361 3.48 172.046 3.75951 172.558 4.31855C173.07 4.86827 173.373 5.66023 173.466 6.69445H168.421C168.421 7.71003 168.659 8.502 169.134 9.07035C169.609 9.62938 170.275 9.9089 171.132 9.9089C171.971 9.9089 172.614 9.61075 173.061 9.01444L173.285 9.14023C172.754 10.3235 171.827 10.9152 170.504 10.9152C169.833 10.9152 169.246 10.7661 168.743 10.4679C168.239 10.1605 167.848 9.73187 167.569 9.18216C167.298 8.63244 167.163 7.98955 167.163 7.25348ZM172.027 6.19132C171.98 5.50184 171.799 4.96144 171.482 4.57011C171.174 4.17879 170.764 3.98313 170.252 3.98313C169.74 3.98313 169.325 4.17879 169.008 4.57011C168.691 4.96144 168.505 5.50184 168.449 6.19132H172.027Z" fill="white"/>
<path d="M162.999 10.4679C163.381 10.3654 163.646 10.2024 163.795 9.97878C163.954 9.74585 164.033 9.39645 164.033 8.93059V2.15229C164.033 1.65847 163.954 1.2951 163.795 1.06217C163.646 0.829235 163.381 0.666184 162.999 0.573011V0.349397L165.249 0L165.402 0.153735C165.365 0.414618 165.346 0.708111 165.346 1.03421V8.93059C165.346 9.39645 165.421 9.74585 165.57 9.97878C165.728 10.2024 165.999 10.3654 166.381 10.4679V10.6915H162.999V10.4679Z" fill="white"/>
<path d="M158.919 10.4679C159.301 10.3655 159.567 10.2024 159.716 9.97879C159.874 9.74585 159.954 9.3918 159.954 8.91662V5.74409C159.954 5.25028 159.874 4.88691 159.716 4.65397C159.567 4.42104 159.301 4.25799 158.919 4.16482V3.9412L161.17 3.61976L161.323 3.77349C161.305 3.92257 161.291 4.06699 161.281 4.20675C161.272 4.33719 161.267 4.48161 161.267 4.64V8.91662C161.267 9.3918 161.342 9.74585 161.491 9.97879C161.649 10.2024 161.92 10.3655 162.302 10.4679V10.6916H158.919V10.4679ZM159.604 1.34169C159.604 1.07149 159.688 0.852535 159.856 0.684824C160.033 0.517113 160.252 0.433258 160.513 0.433258C160.783 0.433258 161.002 0.517113 161.17 0.684824C161.337 0.852535 161.421 1.07149 161.421 1.34169C161.421 1.60257 161.337 1.82153 161.17 1.99856C161.002 2.16627 160.783 2.25012 160.513 2.25012C160.252 2.25012 160.033 2.16627 159.856 1.99856C159.688 1.82153 159.604 1.60257 159.604 1.34169Z" fill="white"/>
<path d="M145.435 10.4679C145.817 10.3654 146.082 10.2024 146.231 9.97878C146.39 9.74585 146.469 9.39179 146.469 8.91661V5.74409C146.469 5.25027 146.39 4.8869 146.231 4.65397C146.082 4.42104 145.817 4.25799 145.435 4.16481V3.9412L147.461 3.61975C147.592 3.87132 147.671 4.10891 147.699 4.33252C148.267 3.76417 148.985 3.48 149.851 3.48C150.941 3.48 151.687 3.88064 152.087 4.68192C152.721 3.88064 153.545 3.48 154.561 3.48C155.381 3.48 156.01 3.70827 156.448 4.16481C156.895 4.62136 157.119 5.27823 157.119 6.13541V8.91661C157.119 9.39179 157.193 9.74585 157.342 9.97878C157.501 10.2024 157.771 10.3654 158.153 10.4679V10.6916H154.771V10.4679C155.153 10.3654 155.418 10.2024 155.567 9.97878C155.726 9.74585 155.805 9.39179 155.805 8.91661V6.05156C155.805 5.41798 155.665 4.92417 155.386 4.57011C155.106 4.21606 154.719 4.03903 154.226 4.03903C153.685 4.03903 153.252 4.24867 152.926 4.66795C152.609 5.07791 152.451 5.63228 152.451 6.33108V8.91661C152.451 9.39179 152.525 9.74585 152.674 9.97878C152.833 10.2024 153.103 10.3654 153.485 10.4679V10.6916H150.103V10.4679C150.485 10.3654 150.75 10.2024 150.899 9.97878C151.058 9.74585 151.137 9.39179 151.137 8.91661V6.05156C151.137 5.41798 150.997 4.92417 150.718 4.57011C150.438 4.21606 150.052 4.03903 149.558 4.03903C149.017 4.03903 148.584 4.24867 148.258 4.66795C147.941 5.07791 147.783 5.63228 147.783 6.33108V8.91661C147.783 9.39179 147.857 9.74585 148.006 9.97878C148.165 10.2024 148.435 10.3654 148.817 10.4679V10.6916H145.435V10.4679Z" fill="white"/>
<path d="M137.453 10.4679C137.835 10.3468 138.054 10.1605 138.11 9.9089C138.175 9.65733 138.073 9.32191 137.802 8.90264L136.153 6.28915L134.434 8.90264C133.884 9.73187 133.954 10.2536 134.644 10.4679V10.6915H131.918V10.4679C132.561 10.263 133.125 9.81107 133.61 9.11228L135.846 5.79999L133.679 2.3759C133.465 2.03116 133.242 1.7563 133.009 1.55132C132.785 1.34634 132.505 1.20658 132.17 1.13205V0.908432H135.86V1.13205C135.394 1.23454 135.142 1.41156 135.105 1.66313C135.077 1.90538 135.207 2.25012 135.496 2.69735L136.908 4.91951L138.375 2.69735C138.701 2.21285 138.846 1.84482 138.809 1.59325C138.781 1.34168 138.52 1.18795 138.026 1.13205V0.908432H140.905V1.13205C140.681 1.17863 140.486 1.24385 140.318 1.32771C140.15 1.41156 139.983 1.54201 139.815 1.71903C139.647 1.89606 139.447 2.15229 139.214 2.48771L137.215 5.40867L139.647 9.22408C139.861 9.56882 140.08 9.83436 140.304 10.0207C140.537 10.1977 140.821 10.3468 141.157 10.4679V10.6915H137.453V10.4679Z" fill="white"/>
<path d="M129.028 3.03277C129.028 2.47373 128.883 2.05911 128.595 1.78891C128.315 1.51871 127.984 1.38361 127.602 1.38361C127.034 1.38361 126.559 1.58859 126.177 1.99855C125.795 2.40851 125.445 3.06072 125.129 3.95517L124.877 3.91325L125.157 1.43952C125.678 1.24385 126.149 1.10875 126.568 1.03421C126.987 0.95036 127.383 0.908432 127.756 0.908432C128.613 0.908432 129.289 1.09944 129.783 1.48144C130.286 1.85413 130.537 2.39453 130.537 3.10265C130.537 3.4567 130.421 3.85734 130.188 4.30457C129.955 4.74248 129.559 5.28754 129 5.93975C128.45 6.58264 127.7 7.38858 126.75 8.35758L125.674 9.46167H129.307C129.717 9.46167 130.029 9.35918 130.244 9.1542C130.467 8.94922 130.682 8.57653 130.887 8.03613L131.138 8.07806L130.831 10.6915H124.332L124.234 10.4679L126.303 7.95228C126.815 7.32802 127.244 6.78296 127.588 6.3171C127.942 5.85124 128.222 5.43662 128.427 5.07325C128.641 4.70987 128.795 4.36513 128.888 4.03903C128.981 3.71293 129.028 3.3775 129.028 3.03277Z" fill="white"/>
<path d="M112.447 7.37927C112.447 6.61525 112.592 5.93975 112.881 5.35276C113.169 4.76578 113.57 4.30923 114.082 3.98313C114.595 3.6477 115.182 3.47999 115.843 3.47999C116.589 3.47999 117.25 3.67566 117.828 4.06698V2.13831C117.828 1.6445 117.749 1.28112 117.59 1.04819C117.441 0.805943 117.176 0.638232 116.794 0.54506V0.321445L119.044 0L119.198 0.153735C119.16 0.414618 119.142 0.703453 119.142 1.02024V8.91661C119.142 9.39179 119.216 9.74585 119.365 9.97878C119.524 10.2024 119.794 10.3654 120.176 10.4679V10.6915L118.149 10.8313C118.01 10.5611 117.93 10.2956 117.912 10.0347C117.316 10.6217 116.575 10.9152 115.69 10.9152C114.702 10.9152 113.915 10.5984 113.328 9.9648C112.741 9.33123 112.447 8.46938 112.447 7.37927ZM113.817 6.94601C113.817 7.62617 113.905 8.22248 114.082 8.73493C114.269 9.24738 114.525 9.64802 114.851 9.93685C115.187 10.2164 115.569 10.3561 115.997 10.3561C116.528 10.3561 116.966 10.1511 117.311 9.74119C117.656 9.32191 117.828 8.79083 117.828 8.14794V6.17734C117.828 5.76738 117.735 5.39935 117.548 5.07325C117.371 4.73782 117.129 4.47228 116.822 4.27662C116.514 4.08096 116.17 3.98313 115.788 3.98313C115.173 3.98313 114.688 4.24401 114.334 4.76578C113.989 5.28754 113.817 6.01429 113.817 6.94601Z" fill="white"/>
<path d="M105.132 7.25348C105.132 6.49879 105.271 5.84192 105.551 5.28288C105.83 4.71453 106.222 4.27196 106.725 3.95518C107.228 3.63839 107.81 3.48 108.472 3.48C109.329 3.48 110.014 3.75951 110.526 4.31855C111.039 4.86827 111.342 5.66023 111.435 6.69445H106.389C106.389 7.71003 106.627 8.502 107.102 9.07035C107.577 9.62938 108.244 9.9089 109.101 9.9089C109.939 9.9089 110.582 9.61075 111.029 9.01444L111.253 9.14023C110.722 10.3235 109.795 10.9152 108.472 10.9152C107.801 10.9152 107.214 10.7661 106.711 10.4679C106.208 10.1605 105.816 9.73187 105.537 9.18216C105.267 8.63244 105.132 7.98955 105.132 7.25348ZM109.995 6.19132C109.949 5.50184 109.767 4.96144 109.45 4.57011C109.143 4.17879 108.733 3.98313 108.22 3.98313C107.708 3.98313 107.293 4.17879 106.976 4.57011C106.66 4.96144 106.473 5.50184 106.417 6.19132H109.995Z" fill="white"/>
<path d="M99.4219 3.70361H100.456V2.30602L101.672 2.11036L101.826 2.26409C101.788 2.52498 101.77 2.81381 101.77 3.1306V3.70361H103.992V4.20674H101.77V8.80481C101.77 9.65268 102.124 10.0766 102.832 10.0766C103.251 10.0766 103.61 9.88095 103.908 9.48962L104.132 9.61541C103.759 10.4819 103.139 10.9152 102.273 10.9152C101.062 10.9152 100.456 10.2024 100.456 8.77685V4.20674H99.4219V3.70361Z" fill="white"/>
<path d="M95.4683 10.4679C95.8503 10.3655 96.1158 10.2024 96.2649 9.97879C96.4233 9.74585 96.5025 9.3918 96.5025 8.91662V5.74409C96.5025 5.25028 96.4233 4.88691 96.2649 4.65397C96.1158 4.42104 95.8503 4.25799 95.4683 4.16482V3.9412L97.7184 3.61976L97.8721 3.77349C97.8535 3.92257 97.8395 4.06699 97.8302 4.20675C97.8209 4.33719 97.8162 4.48161 97.8162 4.64V8.91662C97.8162 9.3918 97.8907 9.74585 98.0398 9.97879C98.1982 10.2024 98.4684 10.3655 98.8504 10.4679V10.6916H95.4683V10.4679ZM96.1531 1.34169C96.1531 1.07149 96.2369 0.852535 96.4046 0.684824C96.5817 0.517113 96.8006 0.433258 97.0615 0.433258C97.3317 0.433258 97.5507 0.517113 97.7184 0.684824C97.8861 0.852535 97.9699 1.07149 97.9699 1.34169C97.9699 1.60257 97.8861 1.82153 97.7184 1.99856C97.5507 2.16627 97.3317 2.25012 97.0615 2.25012C96.8006 2.25012 96.5817 2.16627 96.4046 1.99856C96.2369 1.82153 96.1531 1.60257 96.1531 1.34169Z" fill="white"/>
<path d="M81.9839 10.4679C82.3659 10.3654 82.6314 10.2024 82.7805 9.97878C82.9389 9.74585 83.0181 9.39179 83.0181 8.91661V5.74409C83.0181 5.25027 82.9389 4.8869 82.7805 4.65397C82.6314 4.42104 82.3659 4.25799 81.9839 4.16481V3.9412L84.0104 3.61975C84.1408 3.87132 84.22 4.10891 84.248 4.33252C84.8163 3.76417 85.5338 3.48 86.4003 3.48C87.4904 3.48 88.2358 3.88064 88.6364 4.68192C89.27 3.88064 90.0946 3.48 91.1101 3.48C91.9301 3.48 92.559 3.70827 92.9969 4.16481C93.4441 4.62136 93.6677 5.27823 93.6677 6.13541V8.91661C93.6677 9.39179 93.7423 9.74585 93.8913 9.97878C94.0497 10.2024 94.3199 10.3654 94.7019 10.4679V10.6916H91.3198V10.4679C91.7018 10.3654 91.9673 10.2024 92.1164 9.97878C92.2748 9.74585 92.354 9.39179 92.354 8.91661V6.05156C92.354 5.41798 92.2142 4.92417 91.9347 4.57011C91.6552 4.21606 91.2685 4.03903 90.7747 4.03903C90.2343 4.03903 89.8011 4.24867 89.475 4.66795C89.1582 5.07791 88.9998 5.63228 88.9998 6.33108V8.91661C88.9998 9.39179 89.0743 9.74585 89.2234 9.97878C89.3818 10.2024 89.652 10.3654 90.034 10.4679V10.6916H86.6518V10.4679C87.0338 10.3654 87.2994 10.2024 87.4485 9.97878C87.6068 9.74585 87.686 9.39179 87.686 8.91661V6.05156C87.686 5.41798 87.5463 4.92417 87.2668 4.57011C86.9873 4.21606 86.6006 4.03903 86.1068 4.03903C85.5664 4.03903 85.1331 4.24867 84.807 4.66795C84.4902 5.07791 84.3318 5.63228 84.3318 6.33108V8.91661C84.3318 9.39179 84.4064 9.74585 84.5554 9.97878C84.7138 10.2024 84.984 10.3654 85.3661 10.4679V10.6916H81.9839V10.4679Z" fill="white"/>
<path d="M77.8347 10.4679C78.2167 10.3655 78.4823 10.2024 78.6313 9.97879C78.7897 9.74585 78.8689 9.3918 78.8689 8.91662V5.74409C78.8689 5.25028 78.7897 4.88691 78.6313 4.65397C78.4823 4.42104 78.2167 4.25799 77.8347 4.16482V3.9412L80.0848 3.61976L80.2386 3.77349C80.2199 3.92257 80.206 4.06699 80.1966 4.20675C80.1873 4.33719 80.1827 4.48161 80.1827 4.64V8.91662C80.1827 9.3918 80.2572 9.74585 80.4063 9.97879C80.5647 10.2024 80.8349 10.3655 81.2169 10.4679V10.6916H77.8347V10.4679ZM78.5195 1.34169C78.5195 1.07149 78.6034 0.852535 78.7711 0.684824C78.9481 0.517113 79.1671 0.433258 79.428 0.433258C79.6982 0.433258 79.9171 0.517113 80.0848 0.684824C80.2525 0.852535 80.3364 1.07149 80.3364 1.34169C80.3364 1.60257 80.2525 1.82153 80.0848 1.99856C79.9171 2.16627 79.6982 2.25012 79.428 2.25012C79.1671 2.25012 78.9481 2.16627 78.7711 1.99856C78.6034 1.82153 78.5195 1.60257 78.5195 1.34169Z" fill="white"/>
<path d="M73.6841 10.4679C74.0661 10.3654 74.3316 10.2024 74.4807 9.97878C74.6391 9.74585 74.7183 9.39645 74.7183 8.93059V2.15229C74.7183 1.65847 74.6391 1.2951 74.4807 1.06217C74.3316 0.829235 74.0661 0.666184 73.6841 0.573011V0.349397L75.9342 0L76.0879 0.153735C76.0507 0.414618 76.032 0.708111 76.032 1.03421V8.93059C76.032 9.39645 76.1066 9.74585 76.2556 9.97878C76.414 10.2024 76.6842 10.3654 77.0662 10.4679V10.6915H73.6841V10.4679Z" fill="white"/>
<path d="M64.7598 10.4679C65.1418 10.3654 65.4073 10.2024 65.5564 9.97878C65.7148 9.74585 65.794 9.39179 65.794 8.91661V5.74409C65.794 5.25027 65.7148 4.8869 65.5564 4.65397C65.4073 4.42104 65.1418 4.25799 64.7598 4.16481V3.9412L66.7863 3.61975C66.926 3.88064 67.0052 4.12755 67.0239 4.36048C67.6202 3.77349 68.3795 3.48 69.3019 3.48C70.1591 3.48 70.816 3.70827 71.2725 4.16481C71.7291 4.62136 71.9573 5.27823 71.9573 6.13541V8.91661C71.9573 9.39179 72.0319 9.74585 72.181 9.97878C72.3393 10.2024 72.6095 10.3654 72.9916 10.4679V10.6916H69.6094V10.4679C69.9914 10.3654 70.2569 10.2024 70.406 9.97878C70.5644 9.74585 70.6436 9.39179 70.6436 8.91661V6.05156C70.6436 5.41798 70.4992 4.92417 70.2104 4.57011C69.9215 4.21606 69.5162 4.03903 68.9945 4.03903C68.4168 4.03903 67.9556 4.24867 67.6108 4.66795C67.2754 5.07791 67.1077 5.63228 67.1077 6.33108V8.91661C67.1077 9.39179 67.1822 9.74585 67.3313 9.97878C67.4897 10.2024 67.7599 10.3654 68.1419 10.4679V10.6916H64.7598V10.4679Z" fill="white"/>
<path d="M56.9038 8.25975V5.77204C56.9038 5.27823 56.8246 4.91486 56.6663 4.68193C56.5172 4.44899 56.2516 4.28594 55.8696 4.19277V3.96916L58.1197 3.61976L58.2735 3.77349C58.2362 4.03438 58.2176 4.32321 58.2176 4.64V8.34361C58.2176 8.97718 58.3527 9.47099 58.6229 9.82505C58.8931 10.1791 59.2704 10.3561 59.7549 10.3561C60.0903 10.3561 60.4025 10.2723 60.6913 10.1046C60.9801 9.93686 61.2084 9.69461 61.3761 9.37782C61.5532 9.06104 61.6417 8.68369 61.6417 8.24578V5.17108C61.6417 4.83566 61.5858 4.59807 61.474 4.45831C61.3715 4.31855 61.1339 4.21606 60.7612 4.15084V3.9412L62.8855 3.61976L63.0113 3.74554C62.974 4.05301 62.9554 4.36514 62.9554 4.68193V8.91662C62.9554 9.3918 63.0299 9.74585 63.179 9.97879C63.3374 10.2024 63.6076 10.3655 63.9896 10.4679V10.6916L61.9631 10.8313C61.8047 10.5332 61.7209 10.235 61.7115 9.93686C61.1246 10.5891 60.3699 10.9152 59.4475 10.9152C58.6275 10.9152 57.9986 10.6869 57.5607 10.2304C57.1228 9.76449 56.9038 9.10762 56.9038 8.25975Z" fill="white"/>
<path d="M44.9553 12.173C44.9553 11.4742 45.3886 10.9338 46.2551 10.5518C46.0128 10.4586 45.8311 10.3235 45.71 10.1465C45.5982 9.96946 45.5423 9.76914 45.5423 9.54553C45.5423 9.35918 45.5936 9.16818 45.696 8.97252C45.7985 8.77685 45.9336 8.58585 46.1013 8.39951L46.3529 8.11999C45.9895 7.89637 45.7054 7.60754 45.5004 7.25348C45.2954 6.89011 45.1929 6.48015 45.1929 6.02361C45.1929 5.52048 45.3187 5.07791 45.5703 4.6959C45.8218 4.31389 46.1712 4.01574 46.6185 3.80144C47.0657 3.58714 47.5828 3.48 48.1698 3.48C48.6543 3.48 49.0968 3.55453 49.4975 3.70361H51.6777V4.20674H50.35C50.6016 4.43036 50.7972 4.70056 50.937 5.01734C51.0768 5.32481 51.1466 5.66489 51.1466 6.03758C51.1466 6.54071 51.0209 6.98328 50.7693 7.36529C50.5177 7.7473 50.1683 8.04545 49.7211 8.25975C49.2832 8.47404 48.7661 8.58119 48.1698 8.58119C47.676 8.58119 47.2241 8.502 46.8141 8.3436L46.5625 8.6371C46.4135 8.79549 46.3389 8.93525 46.3389 9.05637C46.3389 9.27067 46.5532 9.40111 46.9818 9.4477L49.4835 9.67131C50.2382 9.73653 50.8112 9.93219 51.2025 10.2583C51.5939 10.5751 51.7895 11.0037 51.7895 11.5441C51.7895 12.0379 51.6311 12.4665 51.3143 12.8299C51.0069 13.2026 50.569 13.4867 50.0006 13.6824C49.4416 13.8781 48.7847 13.9759 48.03 13.9759C47.0703 13.9759 46.3156 13.8128 45.7659 13.4867C45.2255 13.1699 44.9553 12.732 44.9553 12.173ZM46.4927 5.88385C46.4927 6.53606 46.6604 7.06714 46.9958 7.4771C47.3312 7.87774 47.7645 8.07806 48.2956 8.07806C48.7707 8.07806 49.1481 7.90569 49.4276 7.56095C49.7071 7.21622 49.8469 6.75501 49.8469 6.17734C49.8469 5.52513 49.6792 4.99871 49.3438 4.59807C49.0083 4.18811 48.5751 3.98313 48.044 3.98313C47.5688 3.98313 47.1915 4.1555 46.9119 4.50024C46.6324 4.84497 46.4927 5.30618 46.4927 5.88385ZM45.9336 11.9075C45.9336 12.4199 46.1386 12.8066 46.5486 13.0675C46.9678 13.3377 47.5409 13.4728 48.2676 13.4728C49.013 13.4728 49.5953 13.3377 50.0146 13.0675C50.4432 12.7973 50.6575 12.4292 50.6575 11.9634C50.6575 11.6093 50.5177 11.3484 50.2382 11.1807C49.9587 11.013 49.4649 10.8965 48.7568 10.8313L46.8421 10.6636C46.2364 10.9524 45.9336 11.3671 45.9336 11.9075Z" fill="white"/>
<path d="M35.989 10.4679C36.371 10.3654 36.6366 10.2024 36.7856 9.97878C36.944 9.74585 37.0232 9.39179 37.0232 8.91661V5.74409C37.0232 5.25027 36.944 4.8869 36.7856 4.65397C36.6366 4.42104 36.371 4.25799 35.989 4.16481V3.9412L38.0155 3.61975C38.1553 3.88064 38.2345 4.12755 38.2531 4.36048C38.8494 3.77349 39.6088 3.48 40.5312 3.48C41.3884 3.48 42.0452 3.70827 42.5018 4.16481C42.9583 4.62136 43.1866 5.27823 43.1866 6.13541V8.91661C43.1866 9.39179 43.2611 9.74585 43.4102 9.97878C43.5686 10.2024 43.8388 10.3654 44.2208 10.4679V10.6916H40.8386V10.4679C41.2207 10.3654 41.4862 10.2024 41.6353 9.97878C41.7937 9.74585 41.8729 9.39179 41.8729 8.91661V6.05156C41.8729 5.41798 41.7284 4.92417 41.4396 4.57011C41.1508 4.21606 40.7455 4.03903 40.2237 4.03903C39.646 4.03903 39.1848 4.24867 38.8401 4.66795C38.5047 5.07791 38.337 5.63228 38.337 6.33108V8.91661C38.337 9.39179 38.4115 9.74585 38.5606 9.97878C38.719 10.2024 38.9892 10.3654 39.3712 10.4679V10.6916H35.989V10.4679Z" fill="white"/>
<path d="M31.8398 10.4679C32.2219 10.3655 32.4874 10.2024 32.6365 9.97879C32.7949 9.74585 32.8741 9.3918 32.8741 8.91662V5.74409C32.8741 5.25028 32.7949 4.88691 32.6365 4.65397C32.4874 4.42104 32.2219 4.25799 31.8398 4.16482V3.9412L34.09 3.61976L34.2437 3.77349C34.2251 3.92257 34.2111 4.06699 34.2018 4.20675C34.1924 4.33719 34.1878 4.48161 34.1878 4.64V8.91662C34.1878 9.3918 34.2623 9.74585 34.4114 9.97879C34.5698 10.2024 34.84 10.3655 35.222 10.4679V10.6916H31.8398V10.4679ZM32.5247 1.34169C32.5247 1.07149 32.6085 0.852535 32.7762 0.684824C32.9533 0.517113 33.1722 0.433258 33.4331 0.433258C33.7033 0.433258 33.9223 0.517113 34.09 0.684824C34.2577 0.852535 34.3415 1.07149 34.3415 1.34169C34.3415 1.60257 34.2577 1.82153 34.09 1.99856C33.9223 2.16627 33.7033 2.25012 33.4331 2.25012C33.1722 2.25012 32.9533 2.16627 32.7762 1.99856C32.6085 1.82153 32.5247 1.60257 32.5247 1.34169Z" fill="white"/>
<path d="M22.8457 10.4679C23.2277 10.3654 23.4933 10.2024 23.6423 9.97878C23.8007 9.74585 23.8799 9.39179 23.8799 8.91661V5.74409C23.8799 5.25027 23.8007 4.8869 23.6423 4.65397C23.4933 4.42104 23.2277 4.25799 22.8457 4.16481V3.9412L24.8722 3.61975C25.012 3.88064 25.0912 4.12755 25.1098 4.36048C25.7061 3.77349 26.4655 3.48 27.3879 3.48C28.2451 3.48 28.9019 3.70827 29.3585 4.16481C29.815 4.62136 30.0433 5.27823 30.0433 6.13541V8.91661C30.0433 9.39179 30.1178 9.74585 30.2669 9.97878C30.4253 10.2024 30.6955 10.3654 31.0775 10.4679V10.6916H27.6953V10.4679C28.0773 10.3654 28.3429 10.2024 28.492 9.97878C28.6504 9.74585 28.7295 9.39179 28.7295 8.91661V6.05156C28.7295 5.41798 28.5851 4.92417 28.2963 4.57011C28.0075 4.21606 27.6022 4.03903 27.0804 4.03903C26.5027 4.03903 26.0415 4.24867 25.6968 4.66795C25.3614 5.07791 25.1937 5.63228 25.1937 6.33108V8.91661C25.1937 9.39179 25.2682 9.74585 25.4173 9.97878C25.5757 10.2024 25.8459 10.3654 26.2279 10.4679V10.6916H22.8457V10.4679Z" fill="white"/>
<path d="M16.5264 10.4679C16.9084 10.3654 17.1739 10.2024 17.323 9.97878C17.4814 9.74585 17.5606 9.39645 17.5606 8.93059V5.71614C17.5606 5.24096 17.4814 4.8869 17.323 4.65397C17.1739 4.42104 16.9084 4.25799 16.5264 4.16481V3.9412L18.5529 3.61975C18.6367 3.77815 18.6973 3.92257 18.7346 4.05301C18.7718 4.18345 18.7951 4.34184 18.8044 4.52819C19.0187 4.20208 19.2796 3.94586 19.5871 3.75951C19.9039 3.57317 20.2486 3.48 20.6213 3.48C21.1431 3.48 21.6043 3.64771 22.0049 3.98313L22.0888 5.92578L21.8512 5.98168C21.5623 5.32015 21.2875 4.84963 21.0266 4.57011C20.7657 4.2906 20.4722 4.15084 20.1461 4.15084C19.7455 4.15084 19.4334 4.33718 19.2097 4.70987C18.9861 5.08256 18.8743 5.60899 18.8743 6.28915V8.93059C18.8743 9.43372 18.9675 9.79244 19.1538 10.0067C19.3402 10.221 19.6849 10.3654 20.188 10.44V10.6916H16.5264V10.4679Z" fill="white"/>
<path d="M8.94482 9.07035C8.94482 8.6138 9.08924 8.21316 9.37808 7.86842C9.66691 7.52368 10.0722 7.25814 10.594 7.0718C11.1157 6.87614 11.7214 6.7783 12.4108 6.7783C12.7556 6.7783 13.105 6.8016 13.459 6.84818V5.95373C13.459 5.33879 13.3193 4.85895 13.0398 4.51421C12.7696 4.16016 12.3922 3.98313 11.9077 3.98313C10.9853 3.98313 10.2073 4.64931 9.57374 5.98168L9.33615 5.9118L9.55976 3.98313C10.3983 3.64771 11.2136 3.48 12.0055 3.48C12.8907 3.48 13.5708 3.70361 14.046 4.15084C14.5305 4.58875 14.7728 5.22232 14.7728 6.05156V9.46167C14.7728 9.94617 14.9638 10.1884 15.3458 10.1884C15.4855 10.1884 15.6113 10.1372 15.7231 10.0347L15.9048 10.1744C15.616 10.6124 15.22 10.8313 14.7169 10.8313C14.1392 10.8313 13.7618 10.5611 13.5848 10.0207C13.0258 10.617 12.3037 10.9152 11.4186 10.9152C10.6545 10.9152 10.0489 10.7521 9.60169 10.426C9.16378 10.0906 8.94482 9.6387 8.94482 9.07035ZM10.3145 8.90264C10.3145 9.35918 10.4542 9.7179 10.7337 9.97878C11.0226 10.2397 11.3953 10.3701 11.8518 10.3701C12.3084 10.3701 12.6904 10.1838 12.9978 9.81107C13.3053 9.43838 13.459 8.87934 13.459 8.13396V7.33734C13.31 7.3187 13.1655 7.30473 13.0258 7.29541C12.8953 7.28609 12.7649 7.28144 12.6345 7.28144C11.8984 7.28144 11.3254 7.42585 10.9154 7.71469C10.5148 7.99421 10.3145 8.39019 10.3145 8.90264Z" fill="white"/>
<path d="M0 10.44C0.400642 10.3375 0.68016 10.1651 0.838553 9.92288C1.00626 9.68063 1.09012 9.3126 1.09012 8.81878V2.7812C1.09012 2.28739 1.00626 1.91936 0.838553 1.67711C0.68016 1.43486 0.400642 1.26249 0 1.16V0.908435H4.87758C5.28754 0.908435 5.65557 0.899118 5.98168 0.880484C6.3171 0.852532 6.6665 0.815263 7.02987 0.768677L7.35131 3.5359L7.09975 3.57783C6.88545 3.02811 6.6665 2.59952 6.44288 2.29205C6.22858 1.98458 5.97702 1.76562 5.68818 1.63518C5.40867 1.50474 5.05461 1.43952 4.62602 1.43952H2.48771V5.39469H3.89927C4.47694 5.39469 4.89156 5.31084 5.14312 5.14313C5.40401 4.9661 5.59967 4.64 5.73011 4.16482H5.92577V7.15565H5.73011C5.60899 6.68047 5.41798 6.35903 5.1571 6.19132C4.89622 6.01429 4.47694 5.92578 3.89927 5.92578H2.48771V8.76288C2.48771 9.24738 2.57156 9.60143 2.73927 9.82505C2.90698 10.0487 3.17718 10.1605 3.54987 10.1605H4.51421C4.9428 10.1605 5.31549 10.0859 5.63228 9.93686C5.94907 9.77846 6.24256 9.49895 6.51276 9.0983C6.78296 8.68834 7.06248 8.11067 7.35131 7.36529L7.60288 7.4212L7.23951 10.6916H0V10.44Z" fill="white"/>
</svg>
