<svg width="294" height="26" viewBox="0 0 294 26" fill="none" xmlns="http://www.w3.org/2000/svg">
<path d="M281.964 21.6249C283.662 22.3681 285.361 22.7396 287.06 22.7396C288.291 22.7396 289.225 22.5061 289.862 22.039C290.52 21.5719 290.85 20.903 290.85 20.0325C290.85 19.4593 290.669 18.9922 290.308 18.6312C289.947 18.2703 289.353 17.9624 288.525 17.7076L286.359 17.0388C284.915 16.5929 283.864 16.0197 283.206 15.319C282.548 14.6183 282.219 13.7266 282.219 12.6437C282.219 11.2 282.781 10.0534 283.907 9.20413C285.032 8.35485 286.55 7.93021 288.461 7.93021C290.075 7.93021 291.614 8.24869 293.079 8.88565V11.1787C291.465 10.563 289.99 10.2551 288.652 10.2551C287.569 10.2551 286.72 10.4674 286.104 10.8921C285.51 11.2955 285.212 11.8475 285.212 12.5482C285.212 13.0578 285.372 13.4612 285.69 13.7584C286.009 14.0344 286.603 14.3105 287.474 14.5865L289.894 15.319C292.527 16.1046 293.843 17.6651 293.843 20.0007C293.843 21.6356 293.281 22.8882 292.155 23.7588C291.03 24.6293 289.406 25.0645 287.283 25.0645C285.308 25.0645 283.652 24.7354 282.314 24.0772L281.964 21.6249Z" fill="white"/>
<path d="M275.44 24.5868V13.3444C275.44 11.3061 274.453 10.287 272.478 10.287C271.289 10.287 270.036 10.6798 268.72 11.4654C268.826 11.9325 268.879 12.3996 268.879 12.8667V24.5868H265.885V13.3444C265.885 11.3061 264.898 10.287 262.924 10.287C261.756 10.287 260.556 10.6585 259.325 11.4017V24.5868H256.331V8.59902L258.752 8.34423L258.943 9.45892C260.577 8.43978 262.181 7.93021 263.752 7.93021C265.578 7.93021 266.958 8.51409 267.892 9.68186C269.803 8.51409 271.608 7.93021 273.306 7.93021C274.899 7.93021 276.151 8.36547 277.064 9.23598C277.977 10.1065 278.434 11.3167 278.434 12.8667V24.5868H275.44Z" fill="white"/>
<path d="M249.085 24.6505L248.894 23.5358C247.153 24.555 245.422 25.0645 243.702 25.0645C241.983 25.0645 240.645 24.5974 239.69 23.6632C238.734 22.729 238.256 21.4232 238.256 19.7459V8.40793H241.25V19.3C241.25 21.5719 242.344 22.7078 244.53 22.7078C245.146 22.7078 245.815 22.6122 246.537 22.4211C247.259 22.2088 247.917 21.9328 248.511 21.5931V8.40793H251.505V24.3957L249.085 24.6505Z" fill="white"/>
<path d="M230.809 24.5868V13.3444C230.809 11.3061 229.822 10.287 227.847 10.287C226.658 10.287 225.406 10.6798 224.089 11.4654C224.195 11.9325 224.248 12.3996 224.248 12.8667V24.5868H221.255V13.3444C221.255 11.3061 220.267 10.287 218.293 10.287C217.125 10.287 215.925 10.6585 214.694 11.4017V24.5868H211.7V8.59902L214.121 8.34423L214.312 9.45892C215.947 8.43978 217.55 7.93021 219.121 7.93021C220.947 7.93021 222.327 8.51409 223.261 9.68186C225.172 8.51409 226.977 7.93021 228.675 7.93021C230.268 7.93021 231.52 8.36547 232.433 9.23598C233.346 10.1065 233.803 11.3167 233.803 12.8667V24.5868H230.809Z" fill="white"/>
<path d="M203.863 24.5868V8.66271L206.856 8.31238V24.5868H203.863ZM205.359 5.09571C204.744 5.09571 204.255 4.93647 203.894 4.61799C203.555 4.27828 203.385 3.82179 203.385 3.24852C203.385 2.67525 203.555 2.22938 203.894 1.91089C204.255 1.57118 204.744 1.40132 205.359 1.40132C205.975 1.40132 206.453 1.57118 206.793 1.91089C207.153 2.22938 207.334 2.67525 207.334 3.24852C207.334 3.82179 207.153 4.27828 206.793 4.61799C206.453 4.93647 205.975 5.09571 205.359 5.09571Z" fill="white"/>
<path d="M196.205 24.5868V13.6947C196.205 11.4229 195.08 10.287 192.829 10.287C192.235 10.287 191.566 10.3931 190.823 10.6055C190.101 10.7965 189.443 11.0619 188.848 11.4017V24.5868H185.854V8.59902L188.275 8.34423L188.466 9.45892C190.207 8.43978 191.937 7.93021 193.657 7.93021C195.42 7.93021 196.778 8.39731 197.734 9.33153C198.711 10.2445 199.199 11.5503 199.199 13.2489V24.5868H196.205Z" fill="white"/>
<path d="M178.017 24.5868V8.66271L181.011 8.31238V24.5868H178.017ZM179.514 5.09571C178.898 5.09571 178.41 4.93647 178.049 4.61799C177.709 4.27828 177.539 3.82179 177.539 3.24852C177.539 2.67525 177.709 2.22938 178.049 1.91089C178.41 1.57118 178.898 1.40132 179.514 1.40132C180.129 1.40132 180.607 1.57118 180.947 1.91089C181.308 2.22938 181.488 2.67525 181.488 3.24852C181.488 3.82179 181.308 4.27828 180.947 4.61799C180.607 4.93647 180.129 5.09571 179.514 5.09571Z" fill="white"/>
<path d="M170.378 24.5868V13.3444C170.378 11.3061 169.391 10.287 167.417 10.287C166.228 10.287 164.975 10.6798 163.658 11.4654C163.765 11.9325 163.818 12.3996 163.818 12.8667V24.5868H160.824V13.3444C160.824 11.3061 159.837 10.287 157.862 10.287C156.694 10.287 155.495 10.6585 154.263 11.4017V24.5868H151.27V8.59902L153.69 8.34423L153.881 9.45892C155.516 8.43978 157.119 7.93021 158.69 7.93021C160.516 7.93021 161.896 8.51409 162.83 9.68186C164.741 8.51409 166.546 7.93021 168.245 7.93021C169.837 7.93021 171.09 8.36547 172.003 9.23598C172.916 10.1065 173.372 11.3167 173.372 12.8667V24.5868H170.378Z" fill="white"/>
<path d="M131.675 24.5868V8.59903L134.096 8.34424L134.351 9.80926C135.752 8.62026 137.249 8.02576 138.841 8.02576C139.329 8.02576 139.818 8.10007 140.306 8.2487V10.701C139.797 10.5736 139.276 10.5099 138.746 10.5099C137.217 10.5099 135.858 10.9876 134.669 11.9431V24.5868H131.675Z" fill="white"/>
<path d="M120.442 22.7078C121.928 22.7078 123 22.2194 123.659 21.2428C124.338 20.2661 124.678 18.6843 124.678 16.4974C124.678 14.3105 124.338 12.7287 123.659 11.752C123 10.7753 121.928 10.287 120.442 10.287C118.956 10.287 117.873 10.7753 117.193 11.752C116.535 12.7287 116.206 14.3105 116.206 16.4974C116.206 18.6843 116.535 20.2661 117.193 21.2428C117.873 22.2194 118.956 22.7078 120.442 22.7078ZM120.442 25.0645C118.021 25.0645 116.185 24.3427 114.932 22.8989C113.701 21.4338 113.085 19.3 113.085 16.4974C113.085 13.6947 113.701 11.5715 114.932 10.1277C116.185 8.66271 118.021 7.93021 120.442 7.93021C122.862 7.93021 124.688 8.66271 125.92 10.1277C127.172 11.5715 127.799 13.6947 127.799 16.4974C127.799 19.3 127.172 21.4338 125.92 22.8989C124.688 24.3427 122.862 25.0645 120.442 25.0645Z" fill="white"/>
<path d="M90.4702 21.6249C92.1688 22.3681 93.8674 22.7396 95.5659 22.7396C96.7974 22.7396 97.7316 22.5061 98.3686 22.039C99.0268 21.5719 99.3559 20.903 99.3559 20.0325C99.3559 19.4593 99.1754 18.9922 98.8144 18.6312C98.4535 18.2703 97.859 17.9624 97.0309 17.7076L94.8653 17.0388C93.4215 16.5929 92.3705 16.0197 91.7123 15.319C91.0541 14.6183 90.725 13.7266 90.725 12.6437C90.725 11.2 91.2877 10.0534 92.413 9.20413C93.5383 8.35485 95.0564 7.93021 96.9672 7.93021C98.5809 7.93021 100.12 8.24869 101.585 8.88565V11.1787C99.9716 10.563 98.496 10.2551 97.1583 10.2551C96.0755 10.2551 95.2262 10.4674 94.6105 10.8921C94.016 11.2955 93.7187 11.8475 93.7187 12.5482C93.7187 13.0578 93.878 13.4612 94.1965 13.7584C94.5149 14.0344 95.1094 14.3105 95.98 14.5865L98.4004 15.319C101.033 16.1046 102.35 17.6651 102.35 20.0007C102.35 21.6356 101.787 22.8882 100.662 23.7588C99.5363 24.6293 97.9121 25.0645 95.7889 25.0645C93.8143 25.0645 92.1582 24.7354 90.8205 24.0772L90.4702 21.6249Z" fill="white"/>
<path d="M86.9531 23.9817C85.488 24.7036 83.8532 25.0645 82.0484 25.0645C79.4156 25.0645 77.4092 24.332 76.0291 22.867C74.649 21.402 73.959 19.2576 73.959 16.4337C73.959 14.6926 74.2669 13.1852 74.8826 11.9112C75.4983 10.6161 76.3582 9.62878 77.4623 8.94935C78.5664 8.26992 79.8297 7.93021 81.2522 7.93021C83.248 7.93021 84.8192 8.52471 85.9658 9.71371C87.1123 10.9027 87.6856 12.5482 87.6856 14.6502C87.6856 15.4782 87.6112 16.2957 87.4626 17.1025H76.9209C76.9846 20.8606 78.8105 22.7396 82.3988 22.7396C83.9487 22.7396 85.4668 22.3999 86.9531 21.7205V23.9817ZM81.2522 10.1277C80.0208 10.1277 79.0122 10.563 78.2266 11.4335C77.4623 12.304 77.027 13.4824 76.9209 14.9687H84.9148C84.936 14.8625 84.9466 14.7563 84.9466 14.6502C84.9466 14.544 84.9466 14.4379 84.9466 14.3317C84.9466 13.0153 84.6175 11.9855 83.9593 11.2424C83.3224 10.4993 82.42 10.1277 81.2522 10.1277Z" fill="white"/>
<path d="M70.2826 23.9817C68.8176 24.7036 67.1828 25.0645 65.378 25.0645C62.7452 25.0645 60.7388 24.332 59.3587 22.867C57.9786 21.402 57.2886 19.2576 57.2886 16.4337C57.2886 14.6926 57.5964 13.1852 58.2122 11.9112C58.8279 10.6161 59.6878 9.62878 60.7919 8.94935C61.8959 8.26992 63.1593 7.93021 64.5818 7.93021C66.5776 7.93021 68.1488 8.52471 69.2953 9.71371C70.4419 10.9027 71.0152 12.5482 71.0152 14.6502C71.0152 15.4782 70.9408 16.2957 70.7922 17.1025H60.2505C60.3142 20.8606 62.1401 22.7396 65.7283 22.7396C67.2783 22.7396 68.7964 22.3999 70.2826 21.7205V23.9817ZM64.5818 10.1277C63.3503 10.1277 62.3418 10.563 61.5562 11.4335C60.7919 12.304 60.3566 13.4824 60.2505 14.9687H68.2444C68.2656 14.8625 68.2762 14.7563 68.2762 14.6502C68.2762 14.544 68.2762 14.4379 68.2762 14.3317C68.2762 13.0153 67.9471 11.9855 67.2889 11.2424C66.6519 10.4993 65.7496 10.1277 64.5818 10.1277Z" fill="white"/>
<path d="M48.1202 24.5868V10.5736H45.6997V8.53532L48.1202 8.43978V5.2868C48.1202 3.60946 48.5554 2.3143 49.4259 1.40132C50.2965 0.467107 51.5385 0 53.1522 0C54.0864 0 55.0418 0.169857 56.0185 0.509571V2.6434C55.148 2.40985 54.4049 2.29307 53.7892 2.29307C52.0057 2.29307 51.1139 3.2379 51.1139 5.12756V8.40793H55.2223V10.5736H51.1139V24.5868H48.1202Z" fill="white"/>
<path d="M28.2564 22.7078C29.7426 22.7078 30.8148 22.2194 31.473 21.2428C32.1525 20.2661 32.4922 18.6843 32.4922 16.4974C32.4922 14.3105 32.1525 12.7287 31.473 11.752C30.8148 10.7753 29.7426 10.287 28.2564 10.287C26.7701 10.287 25.6873 10.7753 25.0078 11.752C24.3496 12.7287 24.0205 14.3105 24.0205 16.4974C24.0205 18.6843 24.3496 20.2661 25.0078 21.2428C25.6873 22.2194 26.7701 22.7078 28.2564 22.7078ZM28.2564 25.0645C25.8359 25.0645 23.9993 24.3427 22.7466 22.8989C21.5151 21.4338 20.8994 19.3 20.8994 16.4974C20.8994 13.6947 21.5151 11.5715 22.7466 10.1277C23.9993 8.66271 25.8359 7.93021 28.2564 7.93021C30.6768 7.93021 32.5028 8.66271 33.7342 10.1277C34.9869 11.5715 35.6133 13.6947 35.6133 16.4974C35.6133 19.3 34.9869 21.4338 33.7342 22.8989C32.5028 24.3427 30.6768 25.0645 28.2564 25.0645Z" fill="white"/>
<path d="M13.7584 24.5868L2.96188 7.42064V24.5868H0V2.29308H2.83449L13.631 19.4593V2.29308H16.5929V24.5868H13.7584Z" fill="white"/>
</svg>
