<svg width="259" height="25" viewBox="0 0 259 25" fill="none" xmlns="http://www.w3.org/2000/svg">
<path d="M255.046 17.5165L254.663 1.97459L257.785 1.65611L257.402 17.5165H255.046ZM256.224 24.4276C255.651 24.4276 255.184 24.2471 254.823 23.8862C254.462 23.5252 254.281 23.0581 254.281 22.4848C254.281 21.9116 254.462 21.4445 254.823 21.0835C255.184 20.7226 255.651 20.5421 256.224 20.5421C256.797 20.5421 257.264 20.7226 257.625 21.0835C257.986 21.4445 258.167 21.9116 258.167 22.4848C258.167 23.0581 257.986 23.5252 257.625 23.8862C257.264 24.2471 256.797 24.4276 256.224 24.4276Z" fill="white"/>
<path d="M246.21 24.2684V13.3763C246.21 11.1044 245.085 9.96851 242.834 9.96851C242.24 9.96851 241.571 10.0747 240.828 10.287C240.106 10.4781 239.448 10.7435 238.853 11.0832V24.2684H235.859V8.28056L238.28 8.02576L238.471 9.14046C240.212 8.12131 241.942 7.61174 243.662 7.61174C245.424 7.61174 246.783 8.07885 247.739 9.01306C248.715 9.92604 249.204 11.2318 249.204 12.9304V24.2684H246.21Z" fill="white"/>
<path d="M228.613 24.332L228.422 23.2174C226.681 24.2365 224.951 24.7461 223.231 24.7461C221.511 24.7461 220.173 24.279 219.218 23.3448C218.262 22.4105 217.785 21.1048 217.785 19.4274V8.08946H220.778V18.9816C220.778 21.2534 221.872 22.3893 224.059 22.3893C224.675 22.3893 225.343 22.2938 226.065 22.1027C226.787 21.8904 227.445 21.6143 228.04 21.2746V8.08946H231.034V24.0773L228.613 24.332Z" fill="white"/>
<path d="M206.344 24.2683V8.28053L208.764 8.02574L209.019 9.49076C210.42 8.30176 211.917 7.70726 213.51 7.70726C213.998 7.70726 214.486 7.78157 214.975 7.9302V10.3825C214.465 10.2551 213.945 10.1914 213.414 10.1914C211.885 10.1914 210.526 10.6691 209.337 11.6246V24.2683H206.344Z" fill="white"/>
<path d="M193.749 23.6632C192.284 24.3851 190.65 24.7461 188.845 24.7461C186.212 24.7461 184.206 24.0136 182.826 22.5486C181.445 21.0835 180.755 18.9391 180.755 16.1152C180.755 14.3742 181.063 12.8667 181.679 11.5928C182.295 10.2976 183.155 9.31031 184.259 8.63088C185.363 7.95145 186.626 7.61174 188.049 7.61174C190.044 7.61174 191.616 8.20624 192.762 9.39524C193.909 10.5842 194.482 12.2297 194.482 14.3317C194.482 15.1598 194.408 15.9772 194.259 16.784H183.717C183.781 20.5421 185.607 22.4212 189.195 22.4212C190.745 22.4212 192.263 22.0815 193.749 21.402V23.6632ZM188.049 9.80927C186.817 9.80927 185.809 10.2445 185.023 11.115C184.259 11.9856 183.823 13.1639 183.717 14.6502H191.711C191.732 14.544 191.743 14.4379 191.743 14.3317C191.743 14.2256 191.743 14.1194 191.743 14.0132C191.743 12.6968 191.414 11.6671 190.756 10.924C190.119 10.1808 189.216 9.80927 188.049 9.80927Z" fill="white"/>
<path d="M174.072 24.2684V13.0259C174.072 10.9877 173.085 9.96851 171.11 9.96851C169.921 9.96851 168.669 10.3613 167.352 11.1469C167.458 11.614 167.512 12.0811 167.512 12.5482V24.2684H164.518V13.0259C164.518 10.9877 163.531 9.96851 161.556 9.96851C160.388 9.96851 159.189 10.3401 157.957 11.0832V24.2684H154.963V8.28056L157.384 8.02576L157.575 9.14046C159.21 8.12131 160.813 7.61174 162.384 7.61174C164.21 7.61174 165.59 8.19563 166.524 9.3634C168.435 8.19563 170.24 7.61174 171.938 7.61174C173.531 7.61174 174.784 8.047 175.697 8.91752C176.61 9.78804 177.066 10.9983 177.066 12.5482V24.2684H174.072Z" fill="white"/>
<path d="M143.73 22.3893C145.216 22.3893 146.288 21.901 146.947 20.9243C147.626 19.9476 147.966 18.3658 147.966 16.1789C147.966 13.992 147.626 12.4102 146.947 11.4335C146.288 10.4568 145.216 9.96851 143.73 9.96851C142.244 9.96851 141.161 10.4568 140.481 11.4335C139.823 12.4102 139.494 13.992 139.494 16.1789C139.494 18.3658 139.823 19.9476 140.481 20.9243C141.161 21.901 142.244 22.3893 143.73 22.3893ZM143.73 24.7461C141.31 24.7461 139.473 24.0242 138.22 22.5804C136.989 21.1154 136.373 18.9816 136.373 16.1789C136.373 13.3763 136.989 11.2531 138.22 9.80927C139.473 8.34425 141.31 7.61174 143.73 7.61174C146.15 7.61174 147.976 8.34425 149.208 9.80927C150.461 11.2531 151.087 13.3763 151.087 16.1789C151.087 18.9816 150.461 21.1154 149.208 22.5804C147.976 24.0242 146.15 24.7461 143.73 24.7461Z" fill="white"/>
<path d="M119.321 24.2683V0.350334L122.315 0V8.9175C123.949 8.04699 125.552 7.61172 127.124 7.61172C128.886 7.61172 130.245 8.07883 131.2 9.01305C132.177 9.92603 132.665 11.2318 132.665 12.9304V24.2683H129.671V13.3763C129.671 11.1044 128.546 9.96849 126.296 9.96849C125.701 9.96849 125.032 10.0747 124.289 10.287C123.567 10.4781 122.909 10.7435 122.315 11.0832V24.2683H119.321Z" fill="white"/>
<path d="M104.284 24.332L104.092 23.2174C102.309 24.2365 100.579 24.7461 98.9012 24.7461C97.2239 24.7461 95.8863 24.3002 94.8884 23.4084C93.9117 22.4955 93.4233 21.2746 93.4233 19.7459C93.4233 18.1535 93.9754 16.922 95.0794 16.0515C96.1835 15.1598 97.7335 14.7139 99.7293 14.7139C100.897 14.7139 102.245 14.8519 103.774 15.1279V13.44C103.774 12.2722 103.434 11.4017 102.755 10.8284C102.097 10.2551 101.078 9.96851 99.6974 9.96851C98.0838 9.96851 96.3215 10.3401 94.4106 11.0832V8.75828C95.3024 8.39733 96.2684 8.12131 97.3088 7.93022C98.3492 7.7179 99.3365 7.61174 100.271 7.61174C102.373 7.61174 103.965 8.10008 105.048 9.07676C106.152 10.0534 106.704 11.4866 106.704 13.3763V24.0773L104.284 24.332ZM99.6656 22.4212C100.281 22.4212 100.971 22.315 101.736 22.1027C102.5 21.8904 103.18 21.6143 103.774 21.2746V17.1981C102.776 16.9433 101.598 16.8159 100.239 16.8159C98.9649 16.8159 98.0201 17.06 97.4044 17.5484C96.8099 18.0155 96.5126 18.7268 96.5126 19.6822C96.5126 21.5082 97.5636 22.4212 99.6656 22.4212Z" fill="white"/>
<path d="M70.7446 21.3065C72.4432 22.0496 74.1418 22.4212 75.8403 22.4212C77.0718 22.4212 78.006 22.1876 78.643 21.7205C79.3012 21.2534 79.6303 20.5846 79.6303 19.7141C79.6303 19.1408 79.4498 18.6737 79.0889 18.3127C78.7279 17.9518 78.1334 17.6439 77.3054 17.3891L75.1397 16.7203C73.6959 16.2745 72.6449 15.7012 71.9867 15.0005C71.3285 14.2999 70.9994 13.4081 70.9994 12.3253C70.9994 10.8815 71.5621 9.73496 72.6874 8.88567C73.8127 8.03639 75.3308 7.61174 77.2417 7.61174C78.8553 7.61174 80.3946 7.93022 81.8596 8.56718V10.8603C80.246 10.2445 78.7704 9.93666 77.4328 9.93666C76.3499 9.93666 75.5006 10.149 74.8849 10.5736C74.2904 10.977 73.9931 11.5291 73.9931 12.2297C73.9931 12.7393 74.1524 13.1427 74.4709 13.44C74.7894 13.716 75.3839 13.992 76.2544 14.268L78.6748 15.0005C81.3076 15.7861 82.624 17.3467 82.624 19.6822C82.624 21.3171 82.0614 22.5698 80.9361 23.4403C79.8108 24.3108 78.1865 24.7461 76.0633 24.7461C74.0887 24.7461 72.4326 24.417 71.095 23.7588L70.7446 21.3065Z" fill="white"/>
<path d="M64.0469 9.87295C64.7051 9.12982 65.2359 8.323 65.6393 7.45248C66.0427 6.56073 66.255 5.72207 66.2763 4.93648C65.8516 4.83032 65.5119 4.618 65.2571 4.29951C65.0236 3.9598 64.9068 3.567 64.9068 3.12112C64.9068 2.56909 65.0873 2.1126 65.4482 1.75166C65.8304 1.39071 66.2975 1.21024 66.8495 1.21024C67.4228 1.21024 67.8793 1.42256 68.219 1.8472C68.5799 2.27184 68.7604 2.85573 68.7604 3.59885C68.7604 4.36321 68.5799 5.19126 68.219 6.08301C67.858 6.95353 67.3803 7.77097 66.7858 8.53532C66.2126 9.29968 65.5862 9.93665 64.9068 10.4462L64.0469 9.87295Z" fill="white"/>
<path d="M57.7628 10.2551V19.5548C57.7628 20.5102 57.9752 21.2215 58.3998 21.6886C58.8244 22.1345 59.472 22.3574 60.3425 22.3574C61.0007 22.3574 61.7014 22.2407 62.4445 22.0071V24.1409C61.5528 24.4807 60.6292 24.6505 59.6737 24.6505C58.0601 24.6505 56.8392 24.2259 56.0112 23.3766C55.1831 22.5273 54.7691 21.2852 54.7691 19.6503V10.2551H52.3486V8.21684L54.8965 8.12129L55.1194 4.07657L57.7628 3.78993V8.08944H62.2853V10.2551H57.7628Z" fill="white"/>
<path d="M47.0253 24.332L46.8342 23.2174C45.0507 24.2365 43.3203 24.7461 41.6429 24.7461C39.9656 24.7461 38.628 24.3002 37.6301 23.4084C36.6534 22.4955 36.165 21.2746 36.165 19.7459C36.165 18.1535 36.7171 16.922 37.8211 16.0515C38.9252 15.1598 40.4752 14.7139 42.471 14.7139C43.6388 14.7139 44.987 14.8519 46.5157 15.1279V13.44C46.5157 12.2722 46.176 11.4017 45.4966 10.8284C44.8384 10.2551 43.8192 9.96851 42.4391 9.96851C40.8255 9.96851 39.0632 10.3401 37.1523 11.0832V8.75828C38.0441 8.39733 39.0101 8.12131 40.0505 7.93022C41.0909 7.7179 42.0782 7.61174 43.0124 7.61174C45.1144 7.61174 46.7068 8.10008 47.7896 9.07676C48.8937 10.0534 49.4457 11.4866 49.4457 13.3763V24.0773L47.0253 24.332ZM42.4073 22.4212C43.023 22.4212 43.7131 22.315 44.4774 22.1027C45.2418 21.8904 45.9212 21.6143 46.5157 21.2746V17.1981C45.5178 16.9433 44.3394 16.8159 42.9806 16.8159C41.7066 16.8159 40.7618 17.06 40.1461 17.5484C39.5516 18.0155 39.2543 18.7268 39.2543 19.6822C39.2543 21.5082 40.3053 22.4212 42.4073 22.4212Z" fill="white"/>
<path d="M19.0488 24.2683V0.350334L22.0426 0V8.9175C23.6774 8.04699 25.2805 7.61172 26.8516 7.61172C28.6139 7.61172 29.9728 8.07883 30.9282 9.01305C31.9049 9.92603 32.3932 11.2318 32.3932 12.9304V24.2683H29.3995V13.3763C29.3995 11.1044 28.2742 9.96849 26.0236 9.96849C25.4291 9.96849 24.7603 10.0747 24.0171 10.287C23.2953 10.4781 22.6371 10.7435 22.0426 11.0832V24.2683H19.0488Z" fill="white"/>
<path d="M6.52888 24.2683V4.52245H0V1.97459H16.147V4.52245H9.61816V24.2683H6.52888Z" fill="white"/>
</svg>
