<svg width="215" height="14" viewBox="0 0 215 14" fill="none" xmlns="http://www.w3.org/2000/svg">
<path d="M207.612 13V0.23299L209.21 0.04599V8.06999L212.763 4.36399H214.599L210.74 8.37599L214.786 13H212.848L209.21 8.76699V13H207.612Z" fill="white"/>
<path d="M205.645 12.694C204.863 13.068 203.996 13.255 203.044 13.255C201.797 13.255 200.834 12.8583 200.154 12.065C199.474 11.2717 199.134 10.1497 199.134 8.69899C199.134 7.23699 199.474 6.10933 200.154 5.31599C200.845 4.51133 201.814 4.10899 203.061 4.10899C203.933 4.10899 204.778 4.29599 205.594 4.66999V5.89399C204.812 5.55399 204.064 5.38399 203.35 5.38399C202.511 5.38399 201.876 5.66166 201.446 6.21699C201.015 6.77233 200.8 7.59399 200.8 8.68199C200.8 9.75866 201.015 10.5803 201.446 11.147C201.876 11.7023 202.511 11.98 203.35 11.98C204.064 11.98 204.829 11.81 205.645 11.47V12.694Z" fill="white"/>
<path d="M195.867 13.034L195.765 12.439C194.813 12.983 193.889 13.255 192.994 13.255C192.099 13.255 191.385 13.017 190.852 12.541C190.331 12.0537 190.07 11.402 190.07 10.586C190.07 9.73599 190.365 9.07866 190.954 8.61399C191.543 8.13799 192.371 7.89999 193.436 7.89999C194.059 7.89999 194.779 7.97366 195.595 8.12099V7.21999C195.595 6.59666 195.414 6.13199 195.051 5.82599C194.7 5.51999 194.156 5.36699 193.419 5.36699C192.558 5.36699 191.617 5.56533 190.597 5.96199V4.72099C191.073 4.52833 191.589 4.38099 192.144 4.27899C192.699 4.16566 193.226 4.10899 193.725 4.10899C194.847 4.10899 195.697 4.36966 196.275 4.89099C196.864 5.41233 197.159 6.17733 197.159 7.18599V12.898L195.867 13.034ZM193.402 12.014C193.731 12.014 194.099 11.9573 194.507 11.844C194.915 11.7307 195.278 11.5833 195.595 11.402V9.22599C195.062 9.08999 194.433 9.02199 193.708 9.02199C193.028 9.02199 192.524 9.15233 192.195 9.41299C191.878 9.66233 191.719 10.042 191.719 10.552C191.719 11.5267 192.28 12.014 193.402 12.014Z" fill="white"/>
<path d="M182.515 4.78899C183.365 4.33566 184.164 4.10899 184.912 4.10899C186.023 4.10899 186.89 4.50566 187.513 5.29899C188.148 6.08099 188.465 7.16332 188.465 8.54599C188.465 10.0647 188.08 11.232 187.309 12.048C186.538 12.8527 185.439 13.255 184.011 13.255C182.991 13.255 181.96 13.1077 180.917 12.813V0.23299L182.515 0.04599V4.78899ZM184.538 5.36699C184.232 5.36699 183.892 5.42366 183.518 5.53699C183.155 5.63899 182.821 5.78066 182.515 5.96199V11.81C182.991 11.946 183.495 12.014 184.028 12.014C184.957 12.014 185.649 11.7307 186.102 11.164C186.567 10.5973 186.799 9.73599 186.799 8.57999C186.799 7.52599 186.606 6.72699 186.221 6.18299C185.847 5.63899 185.286 5.36699 184.538 5.36699Z" fill="white"/>
<path d="M167.055 13V0.23299L168.653 0.04599V4.80599C169.525 4.34132 170.381 4.10899 171.22 4.10899C172.16 4.10899 172.886 4.35832 173.396 4.85699C173.917 5.34432 174.178 6.04132 174.178 6.94799V13H172.58V7.18599C172.58 5.97332 171.979 5.36699 170.778 5.36699C170.46 5.36699 170.103 5.42366 169.707 5.53699C169.321 5.63899 168.97 5.78066 168.653 5.96199V13H167.055Z" fill="white"/>
<path d="M158.723 11.419C159.63 11.8157 160.537 12.014 161.443 12.014C162.101 12.014 162.599 11.8893 162.939 11.64C163.291 11.3907 163.466 11.0337 163.466 10.569C163.466 10.263 163.37 10.0137 163.177 9.82099C162.985 9.62833 162.667 9.46399 162.225 9.32799L161.069 8.97099C160.299 8.73299 159.738 8.42699 159.386 8.05299C159.035 7.67899 158.859 7.20299 158.859 6.62499C158.859 5.85433 159.16 5.24233 159.76 4.78899C160.361 4.33566 161.171 4.10899 162.191 4.10899C163.053 4.10899 163.874 4.27899 164.656 4.61899V5.84299C163.795 5.51433 163.007 5.34999 162.293 5.34999C161.715 5.34999 161.262 5.46333 160.933 5.68999C160.616 5.90533 160.457 6.19999 160.457 6.57399C160.457 6.84599 160.542 7.06133 160.712 7.21999C160.882 7.36733 161.2 7.51466 161.664 7.66199L162.956 8.05299C164.362 8.47233 165.064 9.30533 165.064 10.552C165.064 11.4247 164.764 12.0933 164.163 12.558C163.563 13.0227 162.696 13.255 161.562 13.255C160.508 13.255 159.624 13.0793 158.91 12.728L158.723 11.419Z" fill="white"/>
<path d="M155.542 13.034L155.44 12.439C154.488 12.983 153.564 13.255 152.669 13.255C151.774 13.255 151.06 13.017 150.527 12.541C150.006 12.0537 149.745 11.402 149.745 10.586C149.745 9.73599 150.04 9.07866 150.629 8.61399C151.218 8.13799 152.046 7.89999 153.111 7.89999C153.734 7.89999 154.454 7.97366 155.27 8.12099V7.21999C155.27 6.59666 155.089 6.13199 154.726 5.82599C154.375 5.51999 153.831 5.36699 153.094 5.36699C152.233 5.36699 151.292 5.56533 150.272 5.96199V4.72099C150.748 4.52833 151.264 4.38099 151.819 4.27899C152.374 4.16566 152.901 4.10899 153.4 4.10899C154.522 4.10899 155.372 4.36966 155.95 4.89099C156.539 5.41233 156.834 6.17733 156.834 7.18599V12.898L155.542 13.034ZM153.077 12.014C153.406 12.014 153.774 11.9573 154.182 11.844C154.59 11.7307 154.953 11.5833 155.27 11.402V9.22599C154.737 9.08999 154.108 9.02199 153.383 9.02199C152.703 9.02199 152.199 9.15233 151.87 9.41299C151.553 9.66233 151.394 10.042 151.394 10.552C151.394 11.5267 151.955 12.014 153.077 12.014Z" fill="white"/>
<path d="M148.253 12.694C147.471 13.068 146.604 13.255 145.652 13.255C144.405 13.255 143.442 12.8583 142.762 12.065C142.082 11.2717 141.742 10.1497 141.742 8.69899C141.742 7.23699 142.082 6.10933 142.762 5.31599C143.453 4.51133 144.422 4.10899 145.669 4.10899C146.542 4.10899 147.386 4.29599 148.202 4.66999V5.89399C147.42 5.55399 146.672 5.38399 145.958 5.38399C145.119 5.38399 144.485 5.66166 144.054 6.21699C143.623 6.77233 143.408 7.59399 143.408 8.68199C143.408 9.75866 143.623 10.5803 144.054 11.147C144.485 11.7023 145.119 11.98 145.958 11.98C146.672 11.98 147.437 11.81 148.253 11.47V12.694Z" fill="white"/>
<path d="M125.118 13L131.221 1.355H132.632L126.529 13H125.118ZM124.438 7.73C124.937 7.73 125.299 7.51467 125.526 7.084C125.753 6.642 125.866 5.93366 125.866 4.959C125.866 3.98433 125.753 3.28166 125.526 2.851C125.299 2.409 124.937 2.188 124.438 2.188C123.939 2.188 123.577 2.409 123.35 2.851C123.123 3.28166 123.01 3.98433 123.01 4.959C123.01 5.93366 123.123 6.642 123.35 7.084C123.577 7.51467 123.939 7.73 124.438 7.73ZM124.438 8.733C123.52 8.733 122.817 8.41 122.33 7.764C121.843 7.10667 121.599 6.17166 121.599 4.959C121.599 3.74633 121.843 2.817 122.33 2.171C122.817 1.51366 123.52 1.185 124.438 1.185C125.356 1.185 126.059 1.51366 126.546 2.171C127.033 2.817 127.277 3.74633 127.277 4.959C127.277 6.17166 127.033 7.10667 126.546 7.764C126.059 8.41 125.356 8.733 124.438 8.733ZM133.312 12.167C133.811 12.167 134.173 11.9517 134.4 11.521C134.627 11.079 134.74 10.3707 134.74 9.396C134.74 8.42133 134.627 7.71866 134.4 7.288C134.173 6.846 133.811 6.625 133.312 6.625C132.813 6.625 132.451 6.846 132.224 7.288C131.997 7.71866 131.884 8.42133 131.884 9.396C131.884 10.3707 131.997 11.079 132.224 11.521C132.451 11.9517 132.813 12.167 133.312 12.167ZM133.312 13.17C132.394 13.17 131.691 12.847 131.204 12.201C130.717 11.5437 130.473 10.6087 130.473 9.396C130.473 8.18333 130.717 7.254 131.204 6.608C131.691 5.95067 132.394 5.622 133.312 5.622C134.23 5.622 134.933 5.95067 135.42 6.608C135.907 7.254 136.151 8.18333 136.151 9.396C136.151 10.6087 135.907 11.5437 135.42 12.201C134.933 12.847 134.23 13.17 133.312 13.17Z" fill="white"/>
<path d="M112.627 11.249C113.659 11.7363 114.673 11.98 115.67 11.98C116.554 11.98 117.251 11.7817 117.761 11.385C118.283 10.977 118.543 10.433 118.543 9.75299C118.543 9.08432 118.311 8.55732 117.846 8.17199C117.382 7.77532 116.747 7.57699 115.942 7.57699H114.837V6.30199H115.857C116.583 6.30199 117.155 6.12632 117.574 5.77499C117.994 5.42366 118.203 4.94199 118.203 4.32999C118.203 3.72932 117.982 3.25332 117.54 2.90199C117.098 2.55066 116.492 2.37499 115.721 2.37499C114.837 2.37499 113.948 2.55632 113.052 2.91899V1.67799C113.868 1.29266 114.826 1.09999 115.925 1.09999C117.104 1.09999 118.056 1.38899 118.781 1.96699C119.507 2.54499 119.869 3.29866 119.869 4.22799C119.869 4.85132 119.694 5.39532 119.342 5.85999C118.991 6.32466 118.492 6.67032 117.846 6.89699C118.606 7.11232 119.189 7.47499 119.597 7.98499C120.005 8.49499 120.209 9.11266 120.209 9.83799C120.209 10.5293 120.022 11.1357 119.648 11.657C119.286 12.167 118.776 12.5637 118.118 12.847C117.472 13.119 116.73 13.255 115.891 13.255C115.325 13.255 114.769 13.1983 114.225 13.085C113.681 12.9717 113.217 12.8187 112.831 12.626L112.627 11.249Z" fill="white"/>
<path d="M106.823 0.04599V12.898L105.531 13.034L105.429 12.439C104.534 12.983 103.667 13.255 102.828 13.255C101.717 13.255 100.845 12.864 100.21 12.082C99.5868 11.2887 99.2751 10.2007 99.2751 8.81799C99.2751 7.32199 99.6435 6.16599 100.38 5.34999C101.117 4.52266 102.154 4.10899 103.491 4.10899C104.137 4.10899 104.715 4.18832 105.225 4.34699V0.23299L106.823 0.04599ZM103.202 11.997C103.508 11.997 103.842 11.946 104.205 11.844C104.579 11.7307 104.919 11.5833 105.225 11.402V5.55399C104.749 5.41799 104.245 5.34999 103.712 5.34999C102.783 5.34999 102.086 5.63332 101.621 6.19999C101.168 6.76666 100.941 7.62799 100.941 8.78399C100.941 9.83799 101.128 10.637 101.502 11.181C101.887 11.725 102.454 11.997 103.202 11.997Z" fill="white"/>
<path d="M97.3127 12.677C96.5307 13.0623 95.658 13.255 94.6947 13.255C93.2894 13.255 92.2184 12.864 91.4817 12.082C90.745 11.3 90.3767 10.1553 90.3767 8.64799C90.3767 7.71866 90.541 6.91399 90.8697 6.23399C91.1984 5.54266 91.6574 5.01566 92.2467 4.65299C92.836 4.29033 93.5104 4.10899 94.2697 4.10899C95.335 4.10899 96.1737 4.42633 96.7857 5.06099C97.3977 5.69566 97.7037 6.57399 97.7037 7.69599C97.7037 8.13799 97.664 8.57433 97.5847 9.00499H91.9577C91.9917 11.011 92.9664 12.014 94.8817 12.014C95.709 12.014 96.5194 11.8327 97.3127 11.47V12.677ZM94.2697 5.28199C93.6124 5.28199 93.074 5.51433 92.6547 5.97899C92.2467 6.44366 92.0144 7.07266 91.9577 7.86599H96.2247C96.236 7.80933 96.2417 7.75266 96.2417 7.69599C96.2417 7.63933 96.2417 7.58266 96.2417 7.52599C96.2417 6.82333 96.066 6.27366 95.7147 5.87699C95.3747 5.48033 94.893 5.28199 94.2697 5.28199Z" fill="white"/>
<path d="M86.6827 5.52V10.484C86.6827 10.994 86.7961 11.3737 87.0227 11.623C87.2494 11.861 87.5951 11.98 88.0597 11.98C88.4111 11.98 88.7851 11.9177 89.1817 11.793V12.932C88.7057 13.1133 88.2127 13.204 87.7027 13.204C86.8414 13.204 86.1897 12.9773 85.7477 12.524C85.3057 12.0707 85.0847 11.4077 85.0847 10.535V5.52H83.7927V4.432L85.1527 4.381L85.2717 2.222L86.6827 2.069V4.364H89.0967V5.52H86.6827Z" fill="white"/>
<path d="M80.5441 13V4.49999L82.1421 4.31299V13H80.5441ZM81.3431 2.59599C81.0144 2.59599 80.7537 2.51099 80.5611 2.34099C80.3797 2.15966 80.2891 1.91599 80.2891 1.60999C80.2891 1.30399 80.3797 1.06599 80.5611 0.895994C80.7537 0.71466 81.0144 0.623993 81.3431 0.623993C81.6717 0.623993 81.9267 0.71466 82.1081 0.895994C82.3007 1.06599 82.3971 1.30399 82.3971 1.60999C82.3971 1.91599 82.3007 2.15966 82.1081 2.34099C81.9267 2.51099 81.6717 2.59599 81.3431 2.59599Z" fill="white"/>
<path d="M76.4666 13V6.99899C76.4666 5.91099 75.9396 5.36699 74.8856 5.36699C74.2509 5.36699 73.5823 5.57666 72.8796 5.99599C72.9363 6.24533 72.9646 6.49466 72.9646 6.74399V13H71.3666V6.99899C71.3666 5.91099 70.8396 5.36699 69.7856 5.36699C69.1623 5.36699 68.5219 5.56533 67.8646 5.96199V13H66.2666V4.46599L67.5586 4.32999L67.6606 4.92499C68.5333 4.38099 69.3889 4.10899 70.2276 4.10899C71.2023 4.10899 71.9389 4.42066 72.4376 5.04399C73.4576 4.42066 74.4209 4.10899 75.3276 4.10899C76.1776 4.10899 76.8463 4.34133 77.3336 4.80599C77.8209 5.27066 78.0646 5.91666 78.0646 6.74399V13H76.4666Z" fill="white"/>
<path d="M62.0831 13V4.49999L63.6811 4.31299V13H62.0831ZM62.8821 2.59599C62.5535 2.59599 62.2928 2.51099 62.1001 2.34099C61.9188 2.15966 61.8281 1.91599 61.8281 1.60999C61.8281 1.30399 61.9188 1.06599 62.1001 0.895994C62.2928 0.71466 62.5535 0.623993 62.8821 0.623993C63.2108 0.623993 63.4658 0.71466 63.6471 0.895994C63.8398 1.06599 63.9361 1.30399 63.9361 1.60999C63.9361 1.91599 63.8398 2.15966 63.6471 2.34099C63.4658 2.51099 63.2108 2.59599 62.8821 2.59599Z" fill="white"/>
<path d="M57.8994 13V0.23299L59.4974 0.04599V13H57.8994Z" fill="white"/>
<path d="M53.8121 13V7.18599C53.8121 5.97333 53.2114 5.36699 52.0101 5.36699C51.6928 5.36699 51.3358 5.42366 50.9391 5.53699C50.5538 5.63899 50.2024 5.78066 49.8851 5.96199V13H48.2871V4.46599L49.5791 4.32999L49.6811 4.92499C50.6104 4.38099 51.5341 4.10899 52.4521 4.10899C53.3928 4.10899 54.1181 4.35833 54.6281 4.85699C55.1494 5.34433 55.4101 6.04133 55.4101 6.94799V13H53.8121Z" fill="white"/>
<path d="M44.4194 13.034L44.3174 12.439C43.3881 12.983 42.4644 13.255 41.5464 13.255C40.6284 13.255 39.9144 13.0057 39.4044 12.507C38.8944 12.0083 38.6394 11.3113 38.6394 10.416V4.36398H40.2374V10.178C40.2374 11.3907 40.8211 11.997 41.9884 11.997C42.3171 11.997 42.6741 11.946 43.0594 11.844C43.4447 11.7307 43.7961 11.5833 44.1134 11.402V4.36398H45.7114V12.898L44.4194 13.034Z" fill="white"/>
<path d="M30.4039 13V7.18599C30.4039 5.97333 29.8032 5.36699 28.6019 5.36699C28.2846 5.36699 27.9276 5.42366 27.5309 5.53699C27.1456 5.63899 26.7942 5.78066 26.4769 5.96199V13H24.8789V4.46599L26.1709 4.32999L26.2729 4.92499C27.2022 4.38099 28.1259 4.10899 29.0439 4.10899C29.9846 4.10899 30.7099 4.35833 31.2199 4.85699C31.7412 5.34433 32.0019 6.04133 32.0019 6.94799V13H30.4039Z" fill="white"/>
<path d="M18.6699 13V4.46599L19.9619 4.32999L20.0979 5.11199C20.8459 4.47732 21.6449 4.15999 22.4949 4.15999C22.7556 4.15999 23.0163 4.19966 23.2769 4.27899V5.58799C23.0049 5.51999 22.7273 5.48599 22.4439 5.48599C21.6279 5.48599 20.9026 5.74099 20.2679 6.25099V13H18.6699Z" fill="white"/>
<path d="M14.8934 13.034L14.7914 12.439C13.8394 12.983 12.9158 13.255 12.0204 13.255C11.1251 13.255 10.4111 13.017 9.87844 12.541C9.3571 12.0537 9.09644 11.402 9.09644 10.586C9.09644 9.73599 9.3911 9.07866 9.98044 8.61399C10.5698 8.13799 11.3971 7.89999 12.4624 7.89999C13.0858 7.89999 13.8054 7.97366 14.6214 8.12099V7.21999C14.6214 6.59666 14.4401 6.13199 14.0774 5.82599C13.7261 5.51999 13.1821 5.36699 12.4454 5.36699C11.5841 5.36699 10.6434 5.56533 9.62344 5.96199V4.72099C10.0994 4.52833 10.6151 4.38099 11.1704 4.27899C11.7258 4.16566 12.2528 4.10899 12.7514 4.10899C13.8734 4.10899 14.7234 4.36966 15.3014 4.89099C15.8908 5.41233 16.1854 6.17733 16.1854 7.18599V12.898L14.8934 13.034ZM12.4284 12.014C12.7571 12.014 13.1254 11.9573 13.5334 11.844C13.9414 11.7307 14.3041 11.5833 14.6214 11.402V9.22599C14.0888 9.08999 13.4598 9.02199 12.7344 9.02199C12.0544 9.02199 11.5501 9.15233 11.2214 9.41299C10.9041 9.66233 10.7454 10.042 10.7454 10.552C10.7454 11.5267 11.3064 12.014 12.4284 12.014Z" fill="white"/>
<path d="M2.16218 7.64499V11.64H7.77218V13H0.513184V1.09999H7.73818V2.45999H2.16218V6.28499H7.02418V7.64499H2.16218Z" fill="white"/>
</svg>
