<svg width="79" height="14" viewBox="0 0 79 14" fill="none" xmlns="http://www.w3.org/2000/svg">
<path d="M73.9072 13V4.466L75.1992 4.33L75.3352 5.112C76.0832 4.47734 76.8822 4.16 77.7322 4.16C77.9929 4.16 78.2536 4.19967 78.5142 4.279V5.58801C78.2422 5.52 77.9646 5.486 77.6812 5.486C76.8652 5.486 76.1399 5.741 75.5052 6.251V13H73.9072Z" fill="white"/>
<path d="M67.9111 11.997C68.7045 11.997 69.2768 11.7363 69.6281 11.215C69.9908 10.6937 70.1721 9.84934 70.1721 8.68201C70.1721 7.51467 69.9908 6.67034 69.6281 6.14901C69.2768 5.62767 68.7045 5.36701 67.9111 5.36701C67.1178 5.36701 66.5398 5.62767 66.1771 6.14901C65.8258 6.67034 65.6501 7.51467 65.6501 8.68201C65.6501 9.84934 65.8258 10.6937 66.1771 11.215C66.5398 11.7363 67.1178 11.997 67.9111 11.997ZM67.9111 13.255C66.6191 13.255 65.6388 12.8697 64.9701 12.099C64.3128 11.317 63.9841 10.178 63.9841 8.68201C63.9841 7.18601 64.3128 6.05267 64.9701 5.28201C65.6388 4.50001 66.6191 4.10901 67.9111 4.10901C69.2031 4.10901 70.1778 4.50001 70.8351 5.28201C71.5038 6.05267 71.8381 7.18601 71.8381 8.68201C71.8381 10.178 71.5038 11.317 70.8351 12.099C70.1778 12.8697 69.2031 13.255 67.9111 13.255Z" fill="white"/>
<path d="M58.482 13L55.269 4.36398H56.969L59.281 11.249L61.627 4.36398H63.259L60.012 13H58.482Z" fill="white"/>
<path d="M52.6825 13.034L52.5805 12.439C51.6285 12.983 50.7048 13.255 49.8095 13.255C48.9142 13.255 48.2002 13.017 47.6675 12.541C47.1462 12.0537 46.8855 11.402 46.8855 10.586C46.8855 9.73601 47.1802 9.07867 47.7695 8.61401C48.3588 8.13801 49.1862 7.90001 50.2515 7.90001C50.8748 7.90001 51.5945 7.97367 52.4105 8.12101V7.22001C52.4105 6.59668 52.2292 6.13201 51.8665 5.82601C51.5152 5.52001 50.9712 5.36701 50.2345 5.36701C49.3732 5.36701 48.4325 5.56534 47.4125 5.96201V4.72101C47.8885 4.52834 48.4042 4.38101 48.9595 4.27901C49.5148 4.16567 50.0418 4.10901 50.5405 4.10901C51.6625 4.10901 52.5125 4.36967 53.0905 4.89101C53.6798 5.41234 53.9745 6.17734 53.9745 7.18601V12.898L52.6825 13.034ZM50.2175 12.014C50.5462 12.014 50.9145 11.9573 51.3225 11.844C51.7305 11.7307 52.0932 11.5833 52.4105 11.402V9.22601C51.8778 9.09001 51.2488 9.02201 50.5235 9.02201C49.8435 9.02201 49.3392 9.15234 49.0105 9.41301C48.6932 9.66234 48.5345 10.042 48.5345 10.552C48.5345 11.5267 49.0955 12.014 50.2175 12.014Z" fill="white"/>
<path d="M37.4185 11.096C38.5745 11.6513 39.7191 11.929 40.8525 11.929C41.7591 11.929 42.4618 11.7363 42.9605 11.351C43.4591 10.9657 43.7085 10.416 43.7085 9.702C43.7085 9.18067 43.5498 8.75566 43.2325 8.427C42.9151 8.09833 42.3825 7.815 41.6345 7.577L40.5125 7.22C39.5038 6.90267 38.7728 6.506 38.3195 6.03C37.8775 5.54267 37.6565 4.93067 37.6565 4.194C37.6565 3.174 38.0361 2.36367 38.7955 1.763C39.5548 1.151 40.5748 0.845001 41.8555 0.845001C42.9208 0.845001 43.9465 1.066 44.9325 1.508V2.817C43.8898 2.38633 42.9151 2.171 42.0085 2.171C41.1925 2.171 40.5465 2.34666 40.0705 2.698C39.6058 3.038 39.3735 3.50833 39.3735 4.109C39.3735 4.551 39.5038 4.90233 39.7645 5.163C40.0365 5.42366 40.5011 5.66167 41.1585 5.877L42.2805 6.234C43.4025 6.59667 44.2071 7.05 44.6945 7.594C45.1818 8.12666 45.4255 8.82367 45.4255 9.685C45.4255 10.807 45.0345 11.6853 44.2525 12.32C43.4705 12.9433 42.3881 13.255 41.0055 13.255C39.7475 13.255 38.6311 13.017 37.6565 12.541L37.4185 11.096Z" fill="white"/>
<path d="M24.2021 13V0.232986L25.8001 0.04599V4.80599C26.6728 4.34132 27.5285 4.10899 28.3671 4.10899C29.3078 4.10899 30.0331 4.35832 30.5431 4.85699C31.0645 5.34432 31.3251 6.04132 31.3251 6.94799V13H29.7271V7.18599C29.7271 5.97332 29.1265 5.36699 27.9251 5.36699C27.6078 5.36699 27.2508 5.42365 26.8541 5.53699C26.4688 5.63899 26.1175 5.78065 25.8001 5.96199V13H24.2021Z" fill="white"/>
<path d="M19.9982 5.52V10.484C19.9982 10.994 20.1115 11.3737 20.3382 11.623C20.5648 11.861 20.9105 11.98 21.3752 11.98C21.7265 11.98 22.1005 11.9177 22.4972 11.793V12.932C22.0212 13.1133 21.5282 13.204 21.0182 13.204C20.1568 13.204 19.5052 12.9773 19.0632 12.524C18.6212 12.0707 18.4002 11.4077 18.4002 10.535V5.52H17.1082V4.432L18.4682 4.381L18.5872 2.222L19.9982 2.069V4.364H22.4122V5.52H19.9982Z" fill="white"/>
<path d="M13.8595 13V4.49999L15.4575 4.31299V13H13.8595ZM14.6585 2.59599C14.3298 2.59599 14.0692 2.51099 13.8765 2.34099C13.6952 2.15966 13.6045 1.91599 13.6045 1.60999C13.6045 1.30399 13.6952 1.06599 13.8765 0.895992C14.0692 0.714659 14.3298 0.623993 14.6585 0.623993C14.9872 0.623993 15.2422 0.714659 15.4235 0.895992C15.6162 1.06599 15.7125 1.30399 15.7125 1.60999C15.7125 1.91599 15.6162 2.15966 15.4235 2.34099C15.2422 2.51099 14.9872 2.59599 14.6585 2.59599Z" fill="white"/>
<path d="M8.29608 13L6.27308 6.04699L4.31808 13H2.85608L0.153076 4.36398H1.76808L3.62108 11.062L5.45708 4.36398H7.14008L9.01008 11.062L10.8461 4.36398H12.4101L9.75808 13H8.29608Z" fill="white"/>
</svg>
