<svg width="202" height="20" viewBox="0 0 202 20" fill="none" xmlns="http://www.w3.org/2000/svg">
<g clip-path="url(#clip0_4924_6012)">
<path d="M3.162 -12.355V-8.36H8.772V-7H1.513V-18.9H8.738V-17.54H3.162V-13.715H8.024V-12.355H3.162ZM15.8933 -6.966L15.7913 -7.561C14.8393 -7.017 13.9156 -6.745 13.0203 -6.745C12.1249 -6.745 11.4109 -6.983 10.8783 -7.459C10.3569 -7.94633 10.0963 -8.598 10.0963 -9.414C10.0963 -10.264 10.3909 -10.9213 10.9803 -11.386C11.5696 -11.862 12.3969 -12.1 13.4623 -12.1C14.0856 -12.1 14.8053 -12.0263 15.6213 -11.879V-12.78C15.6213 -13.4033 15.4399 -13.868 15.0773 -14.174C14.7259 -14.48 14.1819 -14.633 13.4453 -14.633C12.5839 -14.633 11.6433 -14.4347 10.6233 -14.038V-15.279C11.0993 -15.4717 11.6149 -15.619 12.1703 -15.721C12.7256 -15.8343 13.2526 -15.891 13.7513 -15.891C14.8733 -15.891 15.7233 -15.6303 16.3013 -15.109C16.8906 -14.5877 17.1853 -13.8227 17.1853 -12.814V-7.102L15.8933 -6.966ZM13.4283 -7.986C13.7569 -7.986 14.1253 -8.04267 14.5333 -8.156C14.9413 -8.26933 15.3039 -8.41667 15.6213 -8.598V-10.774C15.0886 -10.91 14.4596 -10.978 13.7343 -10.978C13.0543 -10.978 12.5499 -10.8477 12.2213 -10.587C11.9039 -10.3377 11.7453 -9.958 11.7453 -9.448C11.7453 -8.47333 12.3063 -7.986 13.4283 -7.986ZM19.6699 -7V-15.534L20.9619 -15.67L21.0979 -14.888C21.8459 -15.5227 22.6449 -15.84 23.4949 -15.84C23.7556 -15.84 24.0163 -15.8003 24.2769 -15.721V-14.412C24.0049 -14.48 23.7273 -14.514 23.4439 -14.514C22.6279 -14.514 21.9026 -14.259 21.2679 -13.749V-7H19.6699ZM31.4039 -7V-12.814C31.4039 -14.0267 30.8032 -14.633 29.6019 -14.633C29.2846 -14.633 28.9276 -14.5763 28.5309 -14.463C28.1456 -14.361 27.7942 -14.2193 27.4769 -14.038V-7H25.8789V-15.534L27.1709 -15.67L27.2729 -15.075C28.2022 -15.619 29.1259 -15.891 30.0439 -15.891C30.9846 -15.891 31.7099 -15.6417 32.2199 -15.143C32.7412 -14.6557 33.0019 -13.9587 33.0019 -13.052V-7H31.4039ZM45.4192 -6.966L45.3172 -7.561C44.3879 -7.017 43.4642 -6.745 42.5462 -6.745C41.6282 -6.745 40.9142 -6.99433 40.4042 -7.493C39.8942 -7.99167 39.6392 -8.68867 39.6392 -9.584V-15.636H41.2372V-9.822C41.2372 -8.60933 41.8209 -8.003 42.9882 -8.003C43.3169 -8.003 43.6739 -8.054 44.0592 -8.156C44.4446 -8.26933 44.7959 -8.41667 45.1132 -8.598V-15.636H46.7112V-7.102L45.4192 -6.966ZM54.8121 -7V-12.814C54.8121 -14.0267 54.2115 -14.633 53.0101 -14.633C52.6928 -14.633 52.3358 -14.5763 51.9391 -14.463C51.5538 -14.361 51.2025 -14.2193 50.8851 -14.038V-7H49.2871V-15.534L50.5791 -15.67L50.6811 -15.075C51.6105 -15.619 52.5341 -15.891 53.4521 -15.891C54.3928 -15.891 55.1181 -15.6417 55.6281 -15.143C56.1495 -14.6557 56.4101 -13.9587 56.4101 -13.052V-7H54.8121ZM58.8994 -7V-19.767L60.4974 -19.954V-7H58.8994ZM63.083 -7V-15.5L64.681 -15.687V-7H63.083ZM63.882 -17.404C63.5533 -17.404 63.2927 -17.489 63.1 -17.659C62.9187 -17.8403 62.828 -18.084 62.828 -18.39C62.828 -18.696 62.9187 -18.934 63.1 -19.104C63.2927 -19.2853 63.5533 -19.376 63.882 -19.376C64.2107 -19.376 64.4657 -19.2853 64.647 -19.104C64.8397 -18.934 64.936 -18.696 64.936 -18.39C64.936 -18.084 64.8397 -17.8403 64.647 -17.659C64.4657 -17.489 64.2107 -17.404 63.882 -17.404ZM77.4666 -7V-13.001C77.4666 -14.089 76.9396 -14.633 75.8856 -14.633C75.2509 -14.633 74.5823 -14.4233 73.8796 -14.004C73.9363 -13.7547 73.9646 -13.5053 73.9646 -13.256V-7H72.3666V-13.001C72.3666 -14.089 71.8396 -14.633 70.7856 -14.633C70.1623 -14.633 69.5219 -14.4347 68.8646 -14.038V-7H67.2666V-15.534L68.5586 -15.67L68.6606 -15.075C69.5333 -15.619 70.3889 -15.891 71.2276 -15.891C72.2023 -15.891 72.9389 -15.5793 73.4376 -14.956C74.4576 -15.5793 75.4209 -15.891 76.3276 -15.891C77.1776 -15.891 77.8463 -15.6587 78.3336 -15.194C78.8209 -14.7293 79.0646 -14.0833 79.0646 -13.256V-7H77.4666ZM81.544 -7V-15.5L83.142 -15.687V-7H81.544ZM82.343 -17.404C82.0143 -17.404 81.7536 -17.489 81.561 -17.659C81.3796 -17.8403 81.289 -18.084 81.289 -18.39C81.289 -18.696 81.3796 -18.934 81.561 -19.104C81.7536 -19.2853 82.0143 -19.376 82.343 -19.376C82.6716 -19.376 82.9266 -19.2853 83.108 -19.104C83.3006 -18.934 83.397 -18.696 83.397 -18.39C83.397 -18.084 83.3006 -17.8403 83.108 -17.659C82.9266 -17.489 82.6716 -17.404 82.343 -17.404ZM87.6825 -14.48V-9.516C87.6825 -9.006 87.7959 -8.62633 88.0225 -8.377C88.2492 -8.139 88.5949 -8.02 89.0595 -8.02C89.4109 -8.02 89.7849 -8.08233 90.1815 -8.207V-7.068C89.7055 -6.88667 89.2125 -6.796 88.7025 -6.796C87.8412 -6.796 87.1895 -7.02267 86.7475 -7.476C86.3055 -7.92933 86.0845 -8.59233 86.0845 -9.465V-14.48H84.7925V-15.568L86.1525 -15.619L86.2715 -17.778L87.6825 -17.931V-15.636H90.0965V-14.48H87.6825ZM98.3127 -7.323C97.5307 -6.93767 96.6581 -6.745 95.6947 -6.745C94.2894 -6.745 93.2184 -7.136 92.4817 -7.918C91.7451 -8.7 91.3767 -9.84467 91.3767 -11.352C91.3767 -12.2813 91.5411 -13.086 91.8697 -13.766C92.1984 -14.4573 92.6574 -14.9843 93.2467 -15.347C93.8361 -15.7097 94.5104 -15.891 95.2697 -15.891C96.3351 -15.891 97.1737 -15.5737 97.7857 -14.939C98.3977 -14.3043 98.7037 -13.426 98.7037 -12.304C98.7037 -11.862 98.6641 -11.4257 98.5847 -10.995H92.9577C92.9917 -8.989 93.9664 -7.986 95.8817 -7.986C96.7091 -7.986 97.5194 -8.16733 98.3127 -8.53V-7.323ZM95.2697 -14.718C94.6124 -14.718 94.0741 -14.4857 93.6547 -14.021C93.2467 -13.5563 93.0144 -12.9273 92.9577 -12.134H97.2247C97.2361 -12.1907 97.2417 -12.2473 97.2417 -12.304C97.2417 -12.3607 97.2417 -12.4173 97.2417 -12.474C97.2417 -13.1767 97.0661 -13.7263 96.7147 -14.123C96.3747 -14.5197 95.8931 -14.718 95.2697 -14.718ZM107.823 -19.954V-7.102L106.531 -6.966L106.429 -7.561C105.534 -7.017 104.667 -6.745 103.828 -6.745C102.717 -6.745 101.845 -7.136 101.21 -7.918C100.587 -8.71133 100.275 -9.79933 100.275 -11.182C100.275 -12.678 100.643 -13.834 101.38 -14.65C102.117 -15.4773 103.154 -15.891 104.491 -15.891C105.137 -15.891 105.715 -15.8117 106.225 -15.653V-19.767L107.823 -19.954ZM104.202 -8.003C104.508 -8.003 104.842 -8.054 105.205 -8.156C105.579 -8.26933 105.919 -8.41667 106.225 -8.598V-14.446C105.749 -14.582 105.245 -14.65 104.712 -14.65C103.783 -14.65 103.086 -14.3667 102.621 -13.8C102.168 -13.2333 101.941 -12.372 101.941 -11.216C101.941 -10.162 102.128 -9.363 102.502 -8.819C102.887 -8.275 103.454 -8.003 104.202 -8.003ZM113.627 -8.751C114.658 -8.26367 115.673 -8.02 116.67 -8.02C117.554 -8.02 118.251 -8.21833 118.761 -8.615C119.282 -9.023 119.543 -9.567 119.543 -10.247C119.543 -10.9157 119.311 -11.4427 118.846 -11.828C118.381 -12.2247 117.747 -12.423 116.942 -12.423H115.837V-13.698H116.857C117.582 -13.698 118.155 -13.8737 118.574 -14.225C118.993 -14.5763 119.203 -15.058 119.203 -15.67C119.203 -16.2707 118.982 -16.7467 118.54 -17.098C118.098 -17.4493 117.492 -17.625 116.721 -17.625C115.837 -17.625 114.947 -17.4437 114.052 -17.081V-18.322C114.868 -18.7073 115.826 -18.9 116.925 -18.9C118.104 -18.9 119.056 -18.611 119.781 -18.033C120.506 -17.455 120.869 -16.7013 120.869 -15.772C120.869 -15.1487 120.693 -14.6047 120.342 -14.14C119.991 -13.6753 119.492 -13.3297 118.846 -13.103C119.605 -12.8877 120.189 -12.525 120.597 -12.015C121.005 -11.505 121.209 -10.8873 121.209 -10.162C121.209 -9.47067 121.022 -8.86433 120.648 -8.343C120.285 -7.833 119.775 -7.43633 119.118 -7.153C118.472 -6.881 117.73 -6.745 116.891 -6.745C116.324 -6.745 115.769 -6.80167 115.225 -6.915C114.681 -7.02833 114.216 -7.18133 113.831 -7.374L113.627 -8.751ZM126.118 -7L132.221 -18.645H133.632L127.529 -7H126.118ZM125.438 -12.27C125.937 -12.27 126.299 -12.4853 126.526 -12.916C126.753 -13.358 126.866 -14.0663 126.866 -15.041C126.866 -16.0157 126.753 -16.7183 126.526 -17.149C126.299 -17.591 125.937 -17.812 125.438 -17.812C124.939 -17.812 124.577 -17.591 124.35 -17.149C124.123 -16.7183 124.01 -16.0157 124.01 -15.041C124.01 -14.0663 124.123 -13.358 124.35 -12.916C124.577 -12.4853 124.939 -12.27 125.438 -12.27ZM125.438 -11.267C124.52 -11.267 123.817 -11.59 123.33 -12.236C122.843 -12.8933 122.599 -13.8283 122.599 -15.041C122.599 -16.2537 122.843 -17.183 123.33 -17.829C123.817 -18.4863 124.52 -18.815 125.438 -18.815C126.356 -18.815 127.059 -18.4863 127.546 -17.829C128.033 -17.183 128.277 -16.2537 128.277 -15.041C128.277 -13.8283 128.033 -12.8933 127.546 -12.236C127.059 -11.59 126.356 -11.267 125.438 -11.267ZM134.312 -7.833C134.811 -7.833 135.173 -8.04833 135.4 -8.479C135.627 -8.921 135.74 -9.62933 135.74 -10.604C135.74 -11.5787 135.627 -12.2813 135.4 -12.712C135.173 -13.154 134.811 -13.375 134.312 -13.375C133.813 -13.375 133.451 -13.154 133.224 -12.712C132.997 -12.2813 132.884 -11.5787 132.884 -10.604C132.884 -9.62933 132.997 -8.921 133.224 -8.479C133.451 -8.04833 133.813 -7.833 134.312 -7.833ZM134.312 -6.83C133.394 -6.83 132.691 -7.153 132.204 -7.799C131.717 -8.45633 131.473 -9.39133 131.473 -10.604C131.473 -11.8167 131.717 -12.746 132.204 -13.392C132.691 -14.0493 133.394 -14.378 134.312 -14.378C135.23 -14.378 135.933 -14.0493 136.42 -13.392C136.907 -12.746 137.151 -11.8167 137.151 -10.604C137.151 -9.39133 136.907 -8.45633 136.42 -7.799C135.933 -7.153 135.23 -6.83 134.312 -6.83ZM149.253 -7.306C148.471 -6.932 147.604 -6.745 146.652 -6.745C145.405 -6.745 144.442 -7.14167 143.762 -7.935C143.082 -8.72833 142.742 -9.85033 142.742 -11.301C142.742 -12.763 143.082 -13.8907 143.762 -14.684C144.453 -15.4887 145.422 -15.891 146.669 -15.891C147.542 -15.891 148.386 -15.704 149.202 -15.33V-14.106C148.42 -14.446 147.672 -14.616 146.958 -14.616C146.119 -14.616 145.485 -14.3383 145.054 -13.783C144.623 -13.2277 144.408 -12.406 144.408 -11.318C144.408 -10.2413 144.623 -9.41967 145.054 -8.853C145.485 -8.29767 146.119 -8.02 146.958 -8.02C147.672 -8.02 148.437 -8.19 149.253 -8.53V-7.306ZM156.542 -6.966L156.44 -7.561C155.488 -7.017 154.564 -6.745 153.669 -6.745C152.773 -6.745 152.059 -6.983 151.527 -7.459C151.005 -7.94633 150.745 -8.598 150.745 -9.414C150.745 -10.264 151.039 -10.9213 151.629 -11.386C152.218 -11.862 153.045 -12.1 154.111 -12.1C154.734 -12.1 155.454 -12.0263 156.27 -11.879V-12.78C156.27 -13.4033 156.088 -13.868 155.726 -14.174C155.374 -14.48 154.83 -14.633 154.094 -14.633C153.232 -14.633 152.292 -14.4347 151.272 -14.038V-15.279C151.748 -15.4717 152.263 -15.619 152.819 -15.721C153.374 -15.8343 153.901 -15.891 154.4 -15.891C155.522 -15.891 156.372 -15.6303 156.95 -15.109C157.539 -14.5877 157.834 -13.8227 157.834 -12.814V-7.102L156.542 -6.966ZM154.077 -7.986C154.405 -7.986 154.774 -8.04267 155.182 -8.156C155.59 -8.26933 155.952 -8.41667 156.27 -8.598V-10.774C155.737 -10.91 155.108 -10.978 154.383 -10.978C153.703 -10.978 153.198 -10.8477 152.87 -10.587C152.552 -10.3377 152.394 -9.958 152.394 -9.448C152.394 -8.47333 152.955 -7.986 154.077 -7.986ZM159.723 -8.581C160.63 -8.18433 161.537 -7.986 162.443 -7.986C163.101 -7.986 163.599 -8.11067 163.939 -8.36C164.291 -8.60933 164.466 -8.96633 164.466 -9.431C164.466 -9.737 164.37 -9.98633 164.177 -10.179C163.985 -10.3717 163.667 -10.536 163.225 -10.672L162.069 -11.029C161.299 -11.267 160.738 -11.573 160.386 -11.947C160.035 -12.321 159.859 -12.797 159.859 -13.375C159.859 -14.1457 160.16 -14.7577 160.76 -15.211C161.361 -15.6643 162.171 -15.891 163.191 -15.891C164.053 -15.891 164.874 -15.721 165.656 -15.381V-14.157C164.795 -14.4857 164.007 -14.65 163.293 -14.65C162.715 -14.65 162.262 -14.5367 161.933 -14.31C161.616 -14.0947 161.457 -13.8 161.457 -13.426C161.457 -13.154 161.542 -12.9387 161.712 -12.78C161.882 -12.6327 162.2 -12.4853 162.664 -12.338L163.956 -11.947C165.362 -11.5277 166.064 -10.6947 166.064 -9.448C166.064 -8.57533 165.764 -7.90667 165.163 -7.442C164.563 -6.97733 163.696 -6.745 162.562 -6.745C161.508 -6.745 160.624 -6.92067 159.91 -7.272L159.723 -8.581ZM168.055 -7V-19.767L169.653 -19.954V-15.194C170.525 -15.6587 171.381 -15.891 172.22 -15.891C173.16 -15.891 173.886 -15.6417 174.396 -15.143C174.917 -14.6557 175.178 -13.9587 175.178 -13.052V-7H173.58V-12.814C173.58 -14.0267 172.979 -14.633 171.778 -14.633C171.46 -14.633 171.103 -14.5763 170.707 -14.463C170.321 -14.361 169.97 -14.2193 169.653 -14.038V-7H168.055ZM183.515 -15.211C184.365 -15.6643 185.164 -15.891 185.912 -15.891C187.023 -15.891 187.89 -15.4943 188.513 -14.701C189.148 -13.919 189.465 -12.8367 189.465 -11.454C189.465 -9.93533 189.08 -8.768 188.309 -7.952C187.538 -7.14733 186.439 -6.745 185.011 -6.745C183.991 -6.745 182.96 -6.89233 181.917 -7.187V-19.767L183.515 -19.954V-15.211ZM185.538 -14.633C185.232 -14.633 184.892 -14.5763 184.518 -14.463C184.155 -14.361 183.821 -14.2193 183.515 -14.038V-8.19C183.991 -8.054 184.495 -7.986 185.028 -7.986C185.957 -7.986 186.649 -8.26933 187.102 -8.836C187.567 -9.40267 187.799 -10.264 187.799 -11.42C187.799 -12.474 187.606 -13.273 187.221 -13.817C186.847 -14.361 186.286 -14.633 185.538 -14.633ZM196.867 -6.966L196.765 -7.561C195.813 -7.017 194.889 -6.745 193.994 -6.745C193.099 -6.745 192.385 -6.983 191.852 -7.459C191.331 -7.94633 191.07 -8.598 191.07 -9.414C191.07 -10.264 191.365 -10.9213 191.954 -11.386C192.543 -11.862 193.371 -12.1 194.436 -12.1C195.059 -12.1 195.779 -12.0263 196.595 -11.879V-12.78C196.595 -13.4033 196.414 -13.868 196.051 -14.174C195.7 -14.48 195.156 -14.633 194.419 -14.633C193.558 -14.633 192.617 -14.4347 191.597 -14.038V-15.279C192.073 -15.4717 192.589 -15.619 193.144 -15.721C193.699 -15.8343 194.226 -15.891 194.725 -15.891C195.847 -15.891 196.697 -15.6303 197.275 -15.109C197.864 -14.5877 198.159 -13.8227 198.159 -12.814V-7.102L196.867 -6.966ZM194.402 -7.986C194.731 -7.986 195.099 -8.04267 195.507 -8.156C195.915 -8.26933 196.278 -8.41667 196.595 -8.598V-10.774C196.062 -10.91 195.433 -10.978 194.708 -10.978C194.028 -10.978 193.524 -10.8477 193.195 -10.587C192.878 -10.3377 192.719 -9.958 192.719 -9.448C192.719 -8.47333 193.28 -7.986 194.402 -7.986ZM206.645 -7.306C205.863 -6.932 204.996 -6.745 204.044 -6.745C202.797 -6.745 201.834 -7.14167 201.154 -7.935C200.474 -8.72833 200.134 -9.85033 200.134 -11.301C200.134 -12.763 200.474 -13.8907 201.154 -14.684C201.845 -15.4887 202.814 -15.891 204.061 -15.891C204.933 -15.891 205.778 -15.704 206.594 -15.33V-14.106C205.812 -14.446 205.064 -14.616 204.35 -14.616C203.511 -14.616 202.876 -14.3383 202.446 -13.783C202.015 -13.2277 201.8 -12.406 201.8 -11.318C201.8 -10.2413 202.015 -9.41967 202.446 -8.853C202.876 -8.29767 203.511 -8.02 204.35 -8.02C205.064 -8.02 205.829 -8.19 206.645 -8.53V-7.306ZM208.612 -7V-19.767L210.21 -19.954V-11.93L213.763 -15.636H215.599L211.74 -11.624L215.786 -7H213.848L210.21 -11.233V-7H208.612ZM4.709 13.997C5.50233 13.997 6.07467 13.7363 6.426 13.215C6.78867 12.6937 6.97 11.8493 6.97 10.682C6.97 9.51467 6.78867 8.67033 6.426 8.149C6.07467 7.62767 5.50233 7.367 4.709 7.367C3.91567 7.367 3.33767 7.62767 2.975 8.149C2.62367 8.67033 2.448 9.51467 2.448 10.682C2.448 11.8493 2.62367 12.6937 2.975 13.215C3.33767 13.7363 3.91567 13.997 4.709 13.997ZM4.709 15.255C3.417 15.255 2.43667 14.8697 1.768 14.099C1.11067 13.317 0.782 12.178 0.782 10.682C0.782 9.186 1.11067 8.05267 1.768 7.282C2.43667 6.5 3.417 6.109 4.709 6.109C6.001 6.109 6.97567 6.5 7.633 7.282C8.30167 8.05267 8.636 9.186 8.636 10.682C8.636 12.178 8.30167 13.317 7.633 14.099C6.97567 14.8697 6.001 15.255 4.709 15.255ZM16.2301 15V9.186C16.2301 7.97333 15.6294 7.367 14.4281 7.367C14.1108 7.367 13.7538 7.42367 13.3571 7.537C12.9718 7.639 12.6204 7.78067 12.3031 7.962V15H10.7051V6.466L11.9971 6.33L12.0991 6.925C13.0284 6.381 13.9521 6.109 14.8701 6.109C15.8108 6.109 16.5361 6.35833 17.0461 6.857C17.5674 7.34433 17.8281 8.04133 17.8281 8.948V15H16.2301ZM24.9244 15V7.52H23.6324V6.432L24.9244 6.381V4.698C24.9244 3.80267 25.1567 3.11133 25.6214 2.624C26.0861 2.12533 26.7491 1.876 27.6104 1.876C28.1091 1.876 28.6191 1.96667 29.1404 2.148V3.287C28.6757 3.16233 28.2791 3.1 27.9504 3.1C26.9984 3.1 26.5224 3.60433 26.5224 4.613V6.364H28.7154V7.52H26.5224V15H24.9244ZM33.7451 13.997C34.5385 13.997 35.1108 13.7363 35.4621 13.215C35.8248 12.6937 36.0061 11.8493 36.0061 10.682C36.0061 9.51467 35.8248 8.67033 35.4621 8.149C35.1108 7.62767 34.5385 7.367 33.7451 7.367C32.9518 7.367 32.3738 7.62767 32.0111 8.149C31.6598 8.67033 31.4841 9.51467 31.4841 10.682C31.4841 11.8493 31.6598 12.6937 32.0111 13.215C32.3738 13.7363 32.9518 13.997 33.7451 13.997ZM33.7451 15.255C32.4531 15.255 31.4728 14.8697 30.8041 14.099C30.1468 13.317 29.8181 12.178 29.8181 10.682C29.8181 9.186 30.1468 8.05267 30.8041 7.282C31.4728 6.5 32.4531 6.109 33.7451 6.109C35.0371 6.109 36.0118 6.5 36.6691 7.282C37.3378 8.05267 37.6721 9.186 37.6721 10.682C37.6721 12.178 37.3378 13.317 36.6691 14.099C36.0118 14.8697 35.0371 15.255 33.7451 15.255ZM43.1582 13.997C43.9516 13.997 44.5239 13.7363 44.8752 13.215C45.2379 12.6937 45.4192 11.8493 45.4192 10.682C45.4192 9.51467 45.2379 8.67033 44.8752 8.149C44.5239 7.62767 43.9516 7.367 43.1582 7.367C42.3649 7.367 41.7869 7.62767 41.4242 8.149C41.0729 8.67033 40.8972 9.51467 40.8972 10.682C40.8972 11.8493 41.0729 12.6937 41.4242 13.215C41.7869 13.7363 42.3649 13.997 43.1582 13.997ZM43.1582 15.255C41.8662 15.255 40.8859 14.8697 40.2172 14.099C39.5599 13.317 39.2312 12.178 39.2312 10.682C39.2312 9.186 39.5599 8.05267 40.2172 7.282C40.8859 6.5 41.8662 6.109 43.1582 6.109C44.4502 6.109 45.4249 6.5 46.0822 7.282C46.7509 8.05267 47.0852 9.186 47.0852 10.682C47.0852 12.178 46.7509 13.317 46.0822 14.099C45.4249 14.8697 44.4502 15.255 43.1582 15.255ZM56.1923 2.046V14.898L54.9003 15.034L54.7983 14.439C53.903 14.983 53.036 15.255 52.1973 15.255C51.0866 15.255 50.214 14.864 49.5793 14.082C48.956 13.2887 48.6443 12.2007 48.6443 10.818C48.6443 9.322 49.0126 8.166 49.7493 7.35C50.486 6.52267 51.523 6.109 52.8603 6.109C53.5063 6.109 54.0843 6.18833 54.5943 6.347V2.233L56.1923 2.046ZM52.5713 13.997C52.8773 13.997 53.2116 13.946 53.5743 13.844C53.9483 13.7307 54.2883 13.5833 54.5943 13.402V7.554C54.1183 7.418 53.614 7.35 53.0813 7.35C52.152 7.35 51.455 7.63333 50.9903 8.2C50.537 8.76667 50.3103 9.628 50.3103 10.784C50.3103 11.838 50.4973 12.637 50.8713 13.181C51.2566 13.725 51.8233 13.997 52.5713 13.997ZM68.3542 15.034L68.2522 14.439C67.3002 14.983 66.3765 15.255 65.4812 15.255C64.5859 15.255 63.8719 15.017 63.3392 14.541C62.8179 14.0537 62.5572 13.402 62.5572 12.586C62.5572 11.736 62.8519 11.0787 63.4412 10.614C64.0305 10.138 64.8579 9.9 65.9232 9.9C66.5465 9.9 67.2662 9.97367 68.0822 10.121V9.22C68.0822 8.59667 67.9009 8.132 67.5382 7.826C67.1869 7.52 66.6429 7.367 65.9062 7.367C65.0449 7.367 64.1042 7.56533 63.0842 7.962V6.721C63.5602 6.52833 64.0759 6.381 64.6312 6.279C65.1865 6.16567 65.7135 6.109 66.2122 6.109C67.3342 6.109 68.1842 6.36967 68.7622 6.891C69.3515 7.41233 69.6462 8.17733 69.6462 9.186V14.898L68.3542 15.034ZM65.8892 14.014C66.2179 14.014 66.5862 13.9573 66.9942 13.844C67.4022 13.7307 67.7649 13.5833 68.0822 13.402V11.226C67.5495 11.09 66.9205 11.022 66.1952 11.022C65.5152 11.022 65.0109 11.1523 64.6822 11.413C64.3649 11.6623 64.2062 12.042 64.2062 12.552C64.2062 13.5267 64.7672 14.014 65.8892 14.014ZM77.6559 15V9.186C77.6559 7.97333 77.0552 7.367 75.8539 7.367C75.5365 7.367 75.1795 7.42367 74.7829 7.537C74.3975 7.639 74.0462 7.78067 73.7289 7.962V15H72.1309V6.466L73.4229 6.33L73.5249 6.925C74.4542 6.381 75.3779 6.109 76.2959 6.109C77.2365 6.109 77.9619 6.35833 78.4719 6.857C78.9932 7.34433 79.2539 8.04133 79.2539 8.948V15H77.6559ZM88.7812 2.046V14.898L87.4892 15.034L87.3872 14.439C86.4918 14.983 85.6248 15.255 84.7862 15.255C83.6755 15.255 82.8028 14.864 82.1682 14.082C81.5448 13.2887 81.2332 12.2007 81.2332 10.818C81.2332 9.322 81.6015 8.166 82.3382 7.35C83.0748 6.52267 84.1118 6.109 85.4492 6.109C86.0952 6.109 86.6732 6.18833 87.1832 6.347V2.233L88.7812 2.046ZM85.1602 13.997C85.4662 13.997 85.8005 13.946 86.1632 13.844C86.5372 13.7307 86.8772 13.5833 87.1832 13.402V7.554C86.7072 7.418 86.2028 7.35 85.6702 7.35C84.7408 7.35 84.0438 7.63333 83.5792 8.2C83.1258 8.76667 82.8992 9.628 82.8992 10.784C82.8992 11.838 83.0862 12.637 83.4602 13.181C83.8455 13.725 84.4122 13.997 85.1602 13.997ZM95.9791 15V7.52H94.6871V6.432L95.9791 6.381V4.698C95.9791 3.80267 96.2114 3.11133 96.6761 2.624C97.1407 2.12533 97.8037 1.876 98.6651 1.876C99.1637 1.876 99.6737 1.96667 100.195 2.148V3.287C99.7304 3.16233 99.3337 3.1 99.0051 3.1C98.0531 3.1 97.5771 3.60433 97.5771 4.613V6.364H99.7701V7.52H97.5771V15H95.9791ZM107.227 15.034L107.125 14.439C106.196 14.983 105.272 15.255 104.354 15.255C103.436 15.255 102.722 15.0057 102.212 14.507C101.702 14.0083 101.447 13.3113 101.447 12.416V6.364H103.045V12.178C103.045 13.3907 103.629 13.997 104.796 13.997C105.125 13.997 105.482 13.946 105.867 13.844C106.252 13.7307 106.604 13.5833 106.921 13.402V6.364H108.519V14.898L107.227 15.034ZM116.62 15V9.186C116.62 7.97333 116.019 7.367 114.818 7.367C114.5 7.367 114.143 7.42367 113.747 7.537C113.361 7.639 113.01 7.78067 112.693 7.962V15H111.095V6.466L112.387 6.33L112.489 6.925C113.418 6.381 114.342 6.109 115.26 6.109C116.2 6.109 116.926 6.35833 117.436 6.857C117.957 7.34433 118.218 8.04133 118.218 8.948V15H116.62ZM131.961 15L129.938 8.047L127.983 15H126.521L123.818 6.364H125.433L127.286 13.062L129.122 6.364H130.805L132.675 13.062L134.511 6.364H136.075L133.423 15H131.961ZM137.524 15V6.5L139.122 6.313V15H137.524ZM138.323 4.596C137.995 4.596 137.734 4.511 137.541 4.341C137.36 4.15967 137.269 3.916 137.269 3.61C137.269 3.304 137.36 3.066 137.541 2.896C137.734 2.71467 137.995 2.624 138.323 2.624C138.652 2.624 138.907 2.71467 139.088 2.896C139.281 3.066 139.377 3.304 139.377 3.61C139.377 3.916 139.281 4.15967 139.088 4.341C138.907 4.511 138.652 4.596 138.323 4.596ZM143.663 7.52V12.484C143.663 12.994 143.776 13.3737 144.003 13.623C144.23 13.861 144.575 13.98 145.04 13.98C145.391 13.98 145.765 13.9177 146.162 13.793V14.932C145.686 15.1133 145.193 15.204 144.683 15.204C143.822 15.204 143.17 14.9773 142.728 14.524C142.286 14.0707 142.065 13.4077 142.065 12.535V7.52H140.773V6.432L142.133 6.381L142.252 4.222L143.663 4.069V6.364H146.077V7.52H143.663ZM147.867 15V2.233L149.465 2.046V6.806C150.338 6.34133 151.194 6.109 152.032 6.109C152.973 6.109 153.698 6.35833 154.208 6.857C154.73 7.34433 154.99 8.04133 154.99 8.948V15H153.392V9.186C153.392 7.97333 152.792 7.367 151.59 7.367C151.273 7.367 150.916 7.42367 150.519 7.537C150.134 7.639 149.783 7.78067 149.465 7.962V15H147.867ZM161.084 13.096C162.24 13.6513 163.384 13.929 164.518 13.929C165.424 13.929 166.127 13.7363 166.626 13.351C167.124 12.9657 167.374 12.416 167.374 11.702C167.374 11.1807 167.215 10.7557 166.898 10.427C166.58 10.0983 166.048 9.815 165.3 9.577L164.178 9.22C163.169 8.90267 162.438 8.506 161.985 8.03C161.543 7.54267 161.322 6.93067 161.322 6.194C161.322 5.174 161.701 4.36367 162.461 3.763C163.22 3.151 164.24 2.845 165.521 2.845C166.586 2.845 167.612 3.066 168.598 3.508V4.817C167.555 4.38633 166.58 4.171 165.674 4.171C164.858 4.171 164.212 4.34667 163.736 4.698C163.271 5.038 163.039 5.50833 163.039 6.109C163.039 6.551 163.169 6.90233 163.43 7.163C163.702 7.42367 164.166 7.66167 164.824 7.877L165.946 8.234C167.068 8.59667 167.872 9.05 168.36 9.594C168.847 10.1267 169.091 10.8237 169.091 11.685C169.091 12.807 168.7 13.6853 167.918 14.32C167.136 14.9433 166.053 15.255 164.671 15.255C163.413 15.255 162.296 15.017 161.322 14.541L161.084 13.096ZM176.347 15.034L176.245 14.439C175.293 14.983 174.37 15.255 173.474 15.255C172.579 15.255 171.865 15.017 171.332 14.541C170.811 14.0537 170.55 13.402 170.55 12.586C170.55 11.736 170.845 11.0787 171.434 10.614C172.024 10.138 172.851 9.9 173.916 9.9C174.54 9.9 175.259 9.97367 176.075 10.121V9.22C176.075 8.59667 175.894 8.132 175.531 7.826C175.18 7.52 174.636 7.367 173.899 7.367C173.038 7.367 172.097 7.56533 171.077 7.962V6.721C171.553 6.52833 172.069 6.381 172.624 6.279C173.18 6.16567 173.707 6.109 174.205 6.109C175.327 6.109 176.177 6.36967 176.755 6.891C177.345 7.41233 177.639 8.17733 177.639 9.186V14.898L176.347 15.034ZM173.882 14.014C174.211 14.014 174.579 13.9573 174.987 13.844C175.395 13.7307 175.758 13.5833 176.075 13.402V11.226C175.543 11.09 174.914 11.022 174.188 11.022C173.508 11.022 173.004 11.1523 172.675 11.413C172.358 11.6623 172.199 12.042 172.199 12.552C172.199 13.5267 172.76 14.014 173.882 14.014ZM182.147 15L178.934 6.364H180.634L182.946 13.249L185.292 6.364H186.924L183.677 15H182.147ZM191.576 13.997C192.37 13.997 192.942 13.7363 193.293 13.215C193.656 12.6937 193.837 11.8493 193.837 10.682C193.837 9.51467 193.656 8.67033 193.293 8.149C192.942 7.62767 192.37 7.367 191.576 7.367C190.783 7.367 190.205 7.62767 189.842 8.149C189.491 8.67033 189.315 9.51467 189.315 10.682C189.315 11.8493 189.491 12.6937 189.842 13.215C190.205 13.7363 190.783 13.997 191.576 13.997ZM191.576 15.255C190.284 15.255 189.304 14.8697 188.635 14.099C187.978 13.317 187.649 12.178 187.649 10.682C187.649 9.186 187.978 8.05267 188.635 7.282C189.304 6.5 190.284 6.109 191.576 6.109C192.868 6.109 193.843 6.5 194.5 7.282C195.169 8.05267 195.503 9.186 195.503 10.682C195.503 12.178 195.169 13.317 194.5 14.099C193.843 14.8697 192.868 15.255 191.576 15.255ZM197.572 15V6.466L198.864 6.33L199 7.112C199.748 6.47733 200.547 6.16 201.397 6.16C201.658 6.16 201.919 6.19967 202.179 6.279V7.588C201.907 7.52 201.63 7.486 201.346 7.486C200.53 7.486 199.805 7.741 199.17 8.251V15H197.572Z" fill="white"/>
</g>
<defs>
<clipPath id="clip0_4924_6012">
<rect width="202" height="20" fill="white"/>
</clipPath>
</defs>
</svg>
