<svg width="379" height="179" viewBox="0 0 379 179" fill="none" xmlns="http://www.w3.org/2000/svg">
<path d="M0.896211 23.904C1.81354 23.6693 2.45354 23.2746 2.81621 22.72C3.20021 22.1653 3.39221 21.3226 3.39221 20.192V6.36798C3.39221 5.23731 3.20021 4.39465 2.81621 3.83998C2.45354 3.28531 1.81354 2.89065 0.896211 2.65598V2.07998H12.0642C13.0029 2.07998 13.8455 2.05865 14.5922 2.01598C15.3602 1.95198 16.1602 1.86665 16.9922 1.75998L17.7282 8.09598L17.1522 8.19198C16.6615 6.93331 16.1602 5.95198 15.6482 5.24798C15.1575 4.54398 14.5815 4.04265 13.9202 3.74398C13.2802 3.44531 12.4695 3.29598 11.4882 3.29598H6.59221V12.352H9.82421C11.1469 12.352 12.0962 12.16 12.6722 11.776C13.2695 11.3706 13.7175 10.624 14.0162 9.53598H14.4642V16.384H14.0162C13.7389 15.296 13.3015 14.56 12.7042 14.176C12.1069 13.7706 11.1469 13.568 9.82421 13.568H6.59221V20.064C6.59221 21.1733 6.78421 21.984 7.16821 22.496C7.55221 23.008 8.17088 23.264 9.02421 23.264H11.2322C12.2135 23.264 13.0669 23.0933 13.7922 22.752C14.5175 22.3893 15.1895 21.7493 15.8082 20.832C16.4269 19.8933 17.0669 18.5706 17.7282 16.864L18.3042 16.992L17.4722 24.48H0.896211V23.904ZM21.377 20.768C21.377 19.7226 21.7076 18.8053 22.369 18.016C23.0303 17.2266 23.9583 16.6186 25.153 16.192C26.3476 15.744 27.7343 15.52 29.313 15.52C30.1023 15.52 30.9023 15.5733 31.713 15.68V13.632C31.713 12.224 31.393 11.1253 30.753 10.336C30.1343 9.52531 29.2703 9.11998 28.161 9.11998C26.049 9.11998 24.2676 10.6453 22.817 13.696L22.273 13.536L22.785 9.11998C24.705 8.35198 26.5716 7.96798 28.385 7.96798C30.4116 7.96798 31.969 8.47998 33.057 9.50398C34.1663 10.5066 34.721 11.9573 34.721 13.856V21.664C34.721 22.7733 35.1583 23.328 36.033 23.328C36.353 23.328 36.641 23.2106 36.897 22.976L37.313 23.296C36.6516 24.2986 35.745 24.8 34.593 24.8C33.2703 24.8 32.4063 24.1813 32.001 22.944C30.721 24.3093 29.0676 24.992 27.041 24.992C25.2916 24.992 23.905 24.6186 22.881 23.872C21.8783 23.104 21.377 22.0693 21.377 20.768ZM24.513 20.384C24.513 21.4293 24.833 22.2506 25.473 22.848C26.1343 23.4453 26.9876 23.744 28.033 23.744C29.0783 23.744 29.953 23.3173 30.657 22.464C31.361 21.6106 31.713 20.3306 31.713 18.624V16.8C31.3716 16.7573 31.041 16.7253 30.721 16.704C30.4223 16.6826 30.1236 16.672 29.825 16.672C28.1396 16.672 26.8276 17.0026 25.889 17.664C24.9716 18.304 24.513 19.2106 24.513 20.384ZM38.7362 23.968C39.6109 23.7333 40.2189 23.36 40.5602 22.848C40.9229 22.3146 41.1042 21.5146 41.1042 20.448V13.088C41.1042 12 40.9229 11.1893 40.5602 10.656C40.2189 10.1226 39.6109 9.74931 38.7362 9.53598V9.02398L43.3762 8.28798C43.5682 8.65065 43.7069 8.98131 43.7922 9.27998C43.8775 9.57865 43.9309 9.94131 43.9522 10.368C44.4429 9.62131 45.0402 9.03465 45.7442 8.60798C46.4695 8.18131 47.2589 7.96798 48.1122 7.96798C49.3069 7.96798 50.3629 8.35198 51.2802 9.11998L51.4722 13.568L50.9282 13.696C50.2669 12.1813 49.6375 11.104 49.0402 10.464C48.4429 9.82398 47.7709 9.50398 47.0242 9.50398C46.1069 9.50398 45.3922 9.93065 44.8802 10.784C44.3682 11.6373 44.1122 12.8426 44.1122 14.4V20.448C44.1122 21.6 44.3255 22.4213 44.7522 22.912C45.1789 23.4026 45.9682 23.7333 47.1202 23.904V24.48H38.7362V23.968ZM53.205 23.968C54.0796 23.7333 54.6876 23.36 55.029 22.848C55.3916 22.3146 55.573 21.504 55.573 20.416V13.152C55.573 12.0213 55.3916 11.1893 55.029 10.656C54.6876 10.1226 54.0796 9.74931 53.205 9.53598V9.02398L57.845 8.28798C58.165 8.88531 58.3463 9.45065 58.389 9.98398C59.7543 8.63998 61.493 7.96798 63.605 7.96798C65.5676 7.96798 67.0716 8.49065 68.117 9.53598C69.1623 10.5813 69.685 12.0853 69.685 14.048V20.416C69.685 21.504 69.8556 22.3146 70.197 22.848C70.5596 23.36 71.1783 23.7333 72.053 23.968V24.48H64.309V23.968C65.1836 23.7333 65.7916 23.36 66.133 22.848C66.4956 22.3146 66.677 21.504 66.677 20.416V13.856C66.677 12.4053 66.3463 11.2746 65.685 10.464C65.0236 9.65331 64.0956 9.24798 62.901 9.24798C61.5783 9.24798 60.5223 9.72798 59.733 10.688C58.965 11.6266 58.581 12.896 58.581 14.496V20.416C58.581 21.504 58.7516 22.3146 59.093 22.848C59.4556 23.36 60.0743 23.7333 60.949 23.968V24.48H53.205V23.968ZM83.6867 18.912V13.216C83.6867 12.0853 83.5054 11.2533 83.1427 10.72C82.8014 10.1866 82.1934 9.81331 81.3187 9.59998V9.08798L86.4707 8.28798L86.8227 8.63998C86.7374 9.23731 86.6947 9.89865 86.6947 10.624V19.104C86.6947 20.5546 87.004 21.6853 87.6227 22.496C88.2414 23.3066 89.1054 23.712 90.2147 23.712C90.9827 23.712 91.6974 23.52 92.3587 23.136C93.02 22.752 93.5427 22.1973 93.9267 21.472C94.332 20.7466 94.5347 19.8826 94.5347 18.88V11.84C94.5347 11.072 94.4067 10.528 94.1507 10.208C93.916 9.88798 93.372 9.65331 92.5187 9.50398V9.02398L97.3827 8.28798L97.6707 8.57598C97.5854 9.27998 97.5427 9.99465 97.5427 10.72V20.416C97.5427 21.504 97.7134 22.3146 98.0547 22.848C98.4174 23.36 99.036 23.7333 99.9107 23.968V24.48L95.2707 24.8C94.908 24.1173 94.716 23.4346 94.6947 22.752C93.3507 24.2453 91.6227 24.992 89.5107 24.992C87.6334 24.992 86.1934 24.4693 85.1907 23.424C84.188 22.3573 83.6867 20.8533 83.6867 18.912ZM101.674 23.968C102.548 23.7333 103.156 23.36 103.498 22.848C103.86 22.3146 104.042 21.504 104.042 20.416V13.152C104.042 12.0213 103.86 11.1893 103.498 10.656C103.156 10.1226 102.548 9.74931 101.674 9.53598V9.02398L106.314 8.28798C106.634 8.88531 106.815 9.45065 106.858 9.98398C108.223 8.63998 109.962 7.96798 112.074 7.96798C114.036 7.96798 115.54 8.49065 116.586 9.53598C117.631 10.5813 118.154 12.0853 118.154 14.048V20.416C118.154 21.504 118.324 22.3146 118.666 22.848C119.028 23.36 119.647 23.7333 120.522 23.968V24.48H112.778V23.968C113.652 23.7333 114.26 23.36 114.602 22.848C114.964 22.3146 115.146 21.504 115.146 20.416V13.856C115.146 12.4053 114.815 11.2746 114.154 10.464C113.492 9.65331 112.564 9.24798 111.37 9.24798C110.047 9.24798 108.991 9.72798 108.202 10.688C107.434 11.6266 107.05 12.896 107.05 14.496V20.416C107.05 21.504 107.22 22.3146 107.562 22.848C107.924 23.36 108.543 23.7333 109.418 23.968V24.48H101.674V23.968ZM122.107 23.968C122.982 23.7333 123.59 23.36 123.931 22.848C124.294 22.3146 124.475 21.5146 124.475 20.448V4.92798C124.475 3.79731 124.294 2.96531 123.931 2.43198C123.59 1.89865 122.982 1.52531 122.107 1.31198V0.79998L127.259 -2.09808e-05L127.611 0.35198C127.526 0.949313 127.483 1.62131 127.483 2.36798V20.448C127.483 21.5146 127.654 22.3146 127.995 22.848C128.358 23.36 128.977 23.7333 129.851 23.968V24.48H122.107V23.968ZM131.611 23.968C132.486 23.7333 133.094 23.36 133.435 22.848C133.798 22.3146 133.979 21.504 133.979 20.416V13.152C133.979 12.0213 133.798 11.1893 133.435 10.656C133.094 10.1226 132.486 9.74931 131.611 9.53598V9.02398L136.763 8.28798L137.115 8.63998C137.073 8.98131 137.041 9.31198 137.019 9.63198C136.998 9.93065 136.987 10.2613 136.987 10.624V20.416C136.987 21.504 137.158 22.3146 137.499 22.848C137.862 23.36 138.481 23.7333 139.355 23.968V24.48H131.611V23.968ZM133.179 3.07198C133.179 2.45331 133.371 1.95198 133.755 1.56798C134.161 1.18398 134.662 0.99198 135.259 0.99198C135.878 0.99198 136.379 1.18398 136.763 1.56798C137.147 1.95198 137.339 2.45331 137.339 3.07198C137.339 3.66931 137.147 4.17065 136.763 4.57598C136.379 4.95998 135.878 5.15198 135.259 5.15198C134.662 5.15198 134.161 4.95998 133.755 4.57598C133.371 4.17065 133.179 3.66931 133.179 3.07198ZM141.111 23.968C141.986 23.7333 142.594 23.36 142.935 22.848C143.298 22.3146 143.479 21.504 143.479 20.416V13.152C143.479 12.0213 143.298 11.1893 142.935 10.656C142.594 10.1226 141.986 9.74931 141.111 9.53598V9.02398L145.751 8.28798C146.05 8.86398 146.231 9.40798 146.295 9.91998C147.597 8.61865 149.239 7.96798 151.223 7.96798C153.719 7.96798 155.426 8.88531 156.343 10.72C157.794 8.88531 159.682 7.96798 162.007 7.96798C163.885 7.96798 165.325 8.49065 166.327 9.53598C167.351 10.5813 167.863 12.0853 167.863 14.048V20.416C167.863 21.504 168.034 22.3146 168.375 22.848C168.738 23.36 169.357 23.7333 170.231 23.968V24.48H162.487V23.968C163.362 23.7333 163.97 23.36 164.311 22.848C164.674 22.3146 164.855 21.504 164.855 20.416V13.856C164.855 12.4053 164.535 11.2746 163.895 10.464C163.255 9.65331 162.37 9.24798 161.239 9.24798C160.002 9.24798 159.01 9.72798 158.263 10.688C157.538 11.6266 157.175 12.896 157.175 14.496V20.416C157.175 21.504 157.346 22.3146 157.687 22.848C158.05 23.36 158.669 23.7333 159.543 23.968V24.48H151.799V23.968C152.674 23.7333 153.282 23.36 153.623 22.848C153.986 22.3146 154.167 21.504 154.167 20.416V13.856C154.167 12.4053 153.847 11.2746 153.207 10.464C152.567 9.65331 151.682 9.24798 150.551 9.24798C149.314 9.24798 148.322 9.72798 147.575 10.688C146.85 11.6266 146.487 12.896 146.487 14.496V20.416C146.487 21.504 146.658 22.3146 146.999 22.848C147.362 23.36 147.981 23.7333 148.855 23.968V24.48H141.111V23.968ZM171.986 23.968C172.861 23.7333 173.469 23.36 173.81 22.848C174.173 22.3146 174.354 21.504 174.354 20.416V13.152C174.354 12.0213 174.173 11.1893 173.81 10.656C173.469 10.1226 172.861 9.74931 171.986 9.53598V9.02398L177.138 8.28798L177.49 8.63998C177.448 8.98131 177.416 9.31198 177.394 9.63198C177.373 9.93065 177.362 10.2613 177.362 10.624V20.416C177.362 21.504 177.533 22.3146 177.874 22.848C178.237 23.36 178.856 23.7333 179.73 23.968V24.48H171.986V23.968ZM173.554 3.07198C173.554 2.45331 173.746 1.95198 174.13 1.56798C174.536 1.18398 175.037 0.99198 175.634 0.99198C176.253 0.99198 176.754 1.18398 177.138 1.56798C177.522 1.95198 177.714 2.45331 177.714 3.07198C177.714 3.66931 177.522 4.17065 177.138 4.57598C176.754 4.95998 176.253 5.15198 175.634 5.15198C175.037 5.15198 174.536 4.95998 174.13 4.57598C173.746 4.17065 173.554 3.66931 173.554 3.07198ZM181.038 8.47998H183.406V5.27998L186.19 4.83198L186.542 5.18398C186.457 5.78131 186.414 6.44265 186.414 7.16798V8.47998H191.502V9.63198H186.414V20.16C186.414 22.1013 187.225 23.072 188.846 23.072C189.806 23.072 190.628 22.624 191.31 21.728L191.822 22.016C190.969 24 189.55 24.992 187.566 24.992C184.793 24.992 183.406 23.36 183.406 20.096V9.63198H181.038V8.47998ZM194.112 16.608C194.112 14.88 194.432 13.376 195.072 12.096C195.712 10.7946 196.608 9.78131 197.76 9.05598C198.912 8.33065 200.245 7.96798 201.76 7.96798C203.723 7.96798 205.291 8.60798 206.464 9.88798C207.637 11.1466 208.331 12.96 208.544 15.328H196.992C196.992 17.6533 197.536 19.4666 198.624 20.768C199.712 22.048 201.237 22.688 203.2 22.688C205.12 22.688 206.592 22.0053 207.616 20.64L208.128 20.928C206.912 23.6373 204.789 24.992 201.76 24.992C200.224 24.992 198.88 24.6506 197.728 23.968C196.576 23.264 195.68 22.2826 195.04 21.024C194.421 19.7653 194.112 18.2933 194.112 16.608ZM205.248 14.176C205.141 12.5973 204.725 11.36 204 10.464C203.296 9.56798 202.357 9.11998 201.184 9.11998C200.011 9.11998 199.061 9.56798 198.336 10.464C197.611 11.36 197.184 12.5973 197.056 14.176H205.248ZM210.862 16.896C210.862 15.1466 211.193 13.6 211.854 12.256C212.515 10.912 213.433 9.86665 214.606 9.11998C215.779 8.35198 217.123 7.96798 218.638 7.96798C220.345 7.96798 221.859 8.41598 223.182 9.31198V4.89598C223.182 3.76531 223.001 2.93331 222.638 2.39998C222.297 1.84531 221.689 1.46131 220.814 1.24798V0.735979L225.966 -2.09808e-05L226.318 0.35198C226.233 0.949313 226.19 1.61065 226.19 2.33598V20.416C226.19 21.504 226.361 22.3146 226.702 22.848C227.065 23.36 227.683 23.7333 228.558 23.968V24.48L223.918 24.8C223.598 24.1813 223.417 23.5733 223.374 22.976C222.009 24.32 220.313 24.992 218.286 24.992C216.025 24.992 214.222 24.2666 212.878 22.816C211.534 21.3653 210.862 19.392 210.862 16.896ZM213.998 15.904C213.998 17.4613 214.201 18.8266 214.606 20C215.033 21.1733 215.619 22.0906 216.366 22.752C217.134 23.392 218.009 23.712 218.99 23.712C220.206 23.712 221.209 23.2426 221.998 22.304C222.787 21.344 223.182 20.128 223.182 18.656V14.144C223.182 13.2053 222.969 12.3626 222.542 11.616C222.137 10.848 221.582 10.24 220.878 9.79198C220.174 9.34398 219.385 9.11998 218.51 9.11998C217.102 9.11998 215.993 9.71731 215.182 10.912C214.393 12.1066 213.998 13.7706 213.998 15.904ZM248.826 6.94398C248.826 5.66398 248.495 4.71465 247.834 4.09598C247.194 3.47731 246.437 3.16798 245.562 3.16798C244.261 3.16798 243.173 3.63731 242.298 4.57598C241.423 5.51465 240.623 7.00798 239.898 9.05598L239.322 8.95998L239.962 3.29598C241.157 2.84798 242.234 2.53865 243.194 2.36798C244.154 2.17598 245.061 2.07998 245.914 2.07998C247.877 2.07998 249.423 2.51731 250.554 3.39198C251.706 4.24531 252.282 5.48265 252.282 7.10398C252.282 7.91465 252.015 8.83198 251.482 9.85598C250.949 10.8586 250.042 12.1066 248.762 13.6C247.503 15.072 245.786 16.9173 243.61 19.136L241.146 21.664H249.466C250.405 21.664 251.119 21.4293 251.61 20.96C252.122 20.4906 252.613 19.6373 253.082 18.4L253.658 18.496L252.954 24.48H238.074L237.85 23.968L242.586 18.208C243.759 16.7786 244.741 15.5306 245.53 14.464C246.341 13.3973 246.981 12.448 247.45 11.616C247.941 10.784 248.293 9.99465 248.506 9.24798C248.719 8.50131 248.826 7.73331 248.826 6.94398ZM268.116 23.968C268.991 23.6906 269.492 23.264 269.62 22.688C269.77 22.112 269.535 21.344 268.916 20.384L265.14 14.4L261.204 20.384C259.946 22.2826 260.106 23.4773 261.684 23.968V24.48H255.444V23.968C256.916 23.4986 258.207 22.464 259.316 20.864L264.436 13.28L259.476 5.43998C258.986 4.65065 258.474 4.02131 257.94 3.55198C257.428 3.08265 256.788 2.76265 256.02 2.59198V2.07998H264.468V2.59198C263.402 2.82665 262.826 3.23198 262.74 3.80798C262.676 4.36265 262.975 5.15198 263.636 6.17598L266.868 11.264L270.228 6.17598C270.975 5.06665 271.306 4.22398 271.22 3.64798C271.156 3.07198 270.559 2.71998 269.428 2.59198V2.07998H276.02V2.59198C275.508 2.69865 275.06 2.84798 274.676 3.03998C274.292 3.23198 273.908 3.53065 273.524 3.93598C273.14 4.34131 272.682 4.92798 272.148 5.69598L267.572 12.384L273.14 21.12C273.631 21.9093 274.132 22.5173 274.644 22.944C275.178 23.3493 275.828 23.6906 276.596 23.968V24.48H268.116V23.968ZM286.392 23.968C287.267 23.7333 287.875 23.36 288.216 22.848C288.579 22.3146 288.76 21.504 288.76 20.416V13.152C288.76 12.0213 288.579 11.1893 288.216 10.656C287.875 10.1226 287.267 9.74931 286.392 9.53598V9.02398L291.032 8.28798C291.331 8.86398 291.512 9.40798 291.576 9.91998C292.878 8.61865 294.52 7.96798 296.504 7.96798C299 7.96798 300.707 8.88531 301.624 10.72C303.075 8.88531 304.963 7.96798 307.288 7.96798C309.166 7.96798 310.606 8.49065 311.608 9.53598C312.632 10.5813 313.144 12.0853 313.144 14.048V20.416C313.144 21.504 313.315 22.3146 313.656 22.848C314.019 23.36 314.638 23.7333 315.512 23.968V24.48H307.768V23.968C308.643 23.7333 309.251 23.36 309.592 22.848C309.955 22.3146 310.136 21.504 310.136 20.416V13.856C310.136 12.4053 309.816 11.2746 309.176 10.464C308.536 9.65331 307.651 9.24798 306.52 9.24798C305.283 9.24798 304.291 9.72798 303.544 10.688C302.819 11.6266 302.456 12.896 302.456 14.496V20.416C302.456 21.504 302.627 22.3146 302.968 22.848C303.331 23.36 303.95 23.7333 304.824 23.968V24.48H297.08V23.968C297.955 23.7333 298.563 23.36 298.904 22.848C299.267 22.3146 299.448 21.504 299.448 20.416V13.856C299.448 12.4053 299.128 11.2746 298.488 10.464C297.848 9.65331 296.963 9.24798 295.832 9.24798C294.595 9.24798 293.603 9.72798 292.856 10.688C292.131 11.6266 291.768 12.896 291.768 14.496V20.416C291.768 21.504 291.939 22.3146 292.28 22.848C292.643 23.36 293.262 23.7333 294.136 23.968V24.48H286.392V23.968ZM317.267 23.968C318.142 23.7333 318.75 23.36 319.091 22.848C319.454 22.3146 319.635 21.504 319.635 20.416V13.152C319.635 12.0213 319.454 11.1893 319.091 10.656C318.75 10.1226 318.142 9.74931 317.267 9.53598V9.02398L322.419 8.28798L322.771 8.63998C322.729 8.98131 322.697 9.31198 322.675 9.63198C322.654 9.93065 322.643 10.2613 322.643 10.624V20.416C322.643 21.504 322.814 22.3146 323.155 22.848C323.518 23.36 324.137 23.7333 325.011 23.968V24.48H317.267V23.968ZM318.835 3.07198C318.835 2.45331 319.027 1.95198 319.411 1.56798C319.817 1.18398 320.318 0.99198 320.915 0.99198C321.534 0.99198 322.035 1.18398 322.419 1.56798C322.803 1.95198 322.995 2.45331 322.995 3.07198C322.995 3.66931 322.803 4.17065 322.419 4.57598C322.035 4.95998 321.534 5.15198 320.915 5.15198C320.318 5.15198 319.817 4.95998 319.411 4.57598C319.027 4.17065 318.835 3.66931 318.835 3.07198ZM326.607 23.968C327.482 23.7333 328.09 23.36 328.431 22.848C328.794 22.3146 328.975 21.5146 328.975 20.448V4.92798C328.975 3.79731 328.794 2.96531 328.431 2.43198C328.09 1.89865 327.482 1.52531 326.607 1.31198V0.79998L331.759 -2.09808e-05L332.111 0.35198C332.026 0.949313 331.983 1.62131 331.983 2.36798V20.448C331.983 21.5146 332.154 22.3146 332.495 22.848C332.858 23.36 333.477 23.7333 334.351 23.968V24.48H326.607V23.968ZM336.143 16.608C336.143 14.88 336.463 13.376 337.103 12.096C337.743 10.7946 338.639 9.78131 339.791 9.05598C340.943 8.33065 342.277 7.96798 343.791 7.96798C345.754 7.96798 347.322 8.60798 348.495 9.88798C349.669 11.1466 350.362 12.96 350.575 15.328H339.023C339.023 17.6533 339.567 19.4666 340.655 20.768C341.743 22.048 343.269 22.688 345.231 22.688C347.151 22.688 348.623 22.0053 349.647 20.64L350.159 20.928C348.943 23.6373 346.821 24.992 343.791 24.992C342.255 24.992 340.911 24.6506 339.759 23.968C338.607 23.264 337.711 22.2826 337.071 21.024C336.453 19.7653 336.143 18.2933 336.143 16.608ZM347.279 14.176C347.173 12.5973 346.757 11.36 346.031 10.464C345.327 9.56798 344.389 9.11998 343.215 9.11998C342.042 9.11998 341.093 9.56798 340.367 10.464C339.642 11.36 339.215 12.5973 339.087 14.176H347.279ZM362.653 21.248C362.653 20.4586 362.355 19.7973 361.757 19.264C361.16 18.7306 360.136 18.176 358.685 17.6C356.744 16.8106 355.368 16.0213 354.557 15.232C353.747 14.4213 353.341 13.4933 353.341 12.448C353.341 11.0826 353.875 9.99465 354.941 9.18398C356.029 8.37331 357.48 7.96798 359.293 7.96798C360.168 7.96798 361.075 8.07465 362.013 8.28798C362.952 8.47998 363.827 8.75731 364.637 9.11998L365.149 13.376L364.605 13.536C363.88 12.1066 363.027 11.0186 362.045 10.272C361.064 9.50398 360.019 9.11998 358.909 9.11998C358.056 9.11998 357.384 9.33331 356.893 9.75998C356.424 10.1653 356.189 10.7093 356.189 11.392C356.189 12.096 356.488 12.704 357.085 13.216C357.683 13.7066 358.728 14.2506 360.221 14.848C362.184 15.6373 363.549 16.4053 364.317 17.152C365.107 17.8986 365.501 18.816 365.501 19.904C365.501 20.8853 365.235 21.76 364.701 22.528C364.189 23.296 363.464 23.904 362.525 24.352C361.608 24.7786 360.531 24.992 359.293 24.992C358.44 24.992 357.533 24.8746 356.573 24.64C355.613 24.4266 354.653 24.1066 353.693 23.68L353.181 19.424L353.725 19.264C354.451 20.7146 355.336 21.8453 356.381 22.656C357.448 23.4453 358.568 23.84 359.741 23.84C360.659 23.84 361.373 23.6053 361.885 23.136C362.397 22.6666 362.653 22.0373 362.653 21.248ZM0.000210941 50.48H7.93621V50.992C7.06154 51.0773 6.49621 51.408 6.24021 51.984C5.98421 52.56 6.05888 53.328 6.46421 54.288L10.0162 62.416L13.5362 54.384L12.9602 53.104C12.6829 52.4853 12.3629 52.0266 12.0002 51.728C11.6589 51.4293 11.1255 51.184 10.4002 50.992V50.48H18.3362V50.992C17.4615 51.0773 16.8962 51.408 16.6402 51.984C16.3842 52.56 16.4589 53.328 16.8642 54.288L20.4162 62.416L23.9682 54.288C24.3949 53.328 24.4695 52.56 24.1922 51.984C23.9362 51.408 23.3709 51.0773 22.4962 50.992V50.48H28.3202V50.992C27.5949 51.184 27.0615 51.4293 26.7202 51.728C26.3789 52.0266 26.0589 52.4853 25.7602 53.104L19.6482 66.8H19.0722L14.1762 55.792L9.24821 66.8H8.67221L2.56021 53.104C2.28288 52.4853 1.96288 52.0266 1.60021 51.728C1.25888 51.4293 0.725544 51.184 0.000210941 50.992V50.48ZM29.83 65.968C30.7046 65.7333 31.3126 65.36 31.654 64.848C32.0166 64.3146 32.198 63.504 32.198 62.416V55.152C32.198 54.0213 32.0166 53.1893 31.654 52.656C31.3126 52.1226 30.7046 51.7493 29.83 51.536V51.024L34.982 50.288L35.334 50.64C35.2913 50.9813 35.2593 51.312 35.238 51.632C35.2166 51.9306 35.206 52.2613 35.206 52.624V62.416C35.206 63.504 35.3766 64.3146 35.718 64.848C36.0806 65.36 36.6993 65.7333 37.574 65.968V66.48H29.83V65.968ZM31.398 45.072C31.398 44.4533 31.59 43.952 31.974 43.568C32.3793 43.184 32.8806 42.992 33.478 42.992C34.0966 42.992 34.598 43.184 34.982 43.568C35.366 43.952 35.558 44.4533 35.558 45.072C35.558 45.6693 35.366 46.1706 34.982 46.576C34.598 46.96 34.0966 47.152 33.478 47.152C32.8806 47.152 32.3793 46.96 31.974 46.576C31.59 46.1706 31.398 45.6693 31.398 45.072ZM38.882 50.48H41.25V47.28L44.034 46.832L44.386 47.184C44.3006 47.7813 44.258 48.4426 44.258 49.168V50.48H49.346V51.632H44.258V62.16C44.258 64.1013 45.0686 65.072 46.69 65.072C47.65 65.072 48.4713 64.624 49.154 63.728L49.666 64.016C48.8126 66 47.394 66.992 45.41 66.992C42.6366 66.992 41.25 65.36 41.25 62.096V51.632H38.882V50.48ZM52.0762 65.968C52.9509 65.7333 53.5589 65.3493 53.9002 64.816C54.2629 64.2826 54.4442 63.4613 54.4442 62.352V46.928C54.4442 45.7973 54.2629 44.9653 53.9002 44.432C53.5589 43.8986 52.9509 43.5253 52.0762 43.312V42.8L57.2282 42L57.5802 42.352C57.4949 42.9493 57.4522 43.6 57.4522 44.304V51.792C58.7749 50.576 60.4495 49.968 62.4762 49.968C64.4389 49.968 65.9429 50.4906 66.9882 51.536C68.0335 52.5813 68.5562 54.0853 68.5562 56.048V62.416C68.5562 63.504 68.7269 64.3146 69.0682 64.848C69.4309 65.36 70.0495 65.7333 70.9242 65.968V66.48H63.1802V65.968C64.0549 65.7333 64.6629 65.36 65.0042 64.848C65.3669 64.3146 65.5482 63.504 65.5482 62.416V55.856C65.5482 54.4053 65.2175 53.2746 64.5562 52.464C63.8949 51.6533 62.9669 51.248 61.7722 51.248C60.4495 51.248 59.3935 51.728 58.6042 52.688C57.8362 53.6266 57.4522 54.896 57.4522 56.496V62.512C57.4522 63.5786 57.6229 64.368 57.9642 64.88C58.3269 65.392 58.9455 65.7546 59.8202 65.968V66.48H52.0762V65.968ZM80.2257 44.08H88.6737V44.592C87.607 44.8266 86.9457 45.2533 86.6897 45.872C86.455 46.4906 86.519 47.2586 86.8817 48.176L92.4497 61.744L97.9857 48.208C98.3697 47.2693 98.3804 46.4693 98.0177 45.808C97.655 45.1253 96.9084 44.72 95.7777 44.592V44.08H102.37V44.592C101.58 44.7626 101.004 45.1253 100.642 45.68C100.279 46.2346 99.863 47.0773 99.3937 48.208L91.5857 66.8H91.0097L83.2017 48.208C82.7324 47.0773 82.3057 46.2346 81.9217 45.68C81.559 45.1253 80.9937 44.7626 80.2257 44.592V44.08ZM101.268 58.608C101.268 56.88 101.588 55.376 102.228 54.096C102.868 52.7946 103.764 51.7813 104.916 51.056C106.068 50.3306 107.402 49.968 108.916 49.968C110.879 49.968 112.447 50.608 113.62 51.888C114.794 53.1466 115.487 54.96 115.7 57.328H104.148C104.148 59.6533 104.692 61.4666 105.78 62.768C106.868 64.048 108.394 64.688 110.356 64.688C112.276 64.688 113.748 64.0053 114.772 62.64L115.284 62.928C114.068 65.6373 111.946 66.992 108.916 66.992C107.38 66.992 106.036 66.6506 104.884 65.968C103.732 65.264 102.836 64.2826 102.196 63.024C101.578 61.7653 101.268 60.2933 101.268 58.608ZM112.404 56.176C112.298 54.5973 111.882 53.36 111.156 52.464C110.452 51.568 109.514 51.12 108.34 51.12C107.167 51.12 106.218 51.568 105.492 52.464C104.767 53.36 104.34 54.5973 104.212 56.176H112.404ZM117.986 65.968C118.861 65.7333 119.469 65.36 119.81 64.848C120.173 64.3146 120.354 63.504 120.354 62.416V55.152C120.354 54.0213 120.173 53.1893 119.81 52.656C119.469 52.1226 118.861 51.7493 117.986 51.536V51.024L122.626 50.288C122.946 50.8853 123.128 51.4506 123.17 51.984C124.536 50.64 126.274 49.968 128.386 49.968C130.349 49.968 131.853 50.4906 132.898 51.536C133.944 52.5813 134.466 54.0853 134.466 56.048V62.416C134.466 63.504 134.637 64.3146 134.978 64.848C135.341 65.36 135.96 65.7333 136.834 65.968V66.48H129.09V65.968C129.965 65.7333 130.573 65.36 130.914 64.848C131.277 64.3146 131.458 63.504 131.458 62.416V55.856C131.458 54.4053 131.128 53.2746 130.466 52.464C129.805 51.6533 128.877 51.248 127.682 51.248C126.36 51.248 125.304 51.728 124.514 52.688C123.746 53.6266 123.362 54.896 123.362 56.496V62.416C123.362 63.504 123.533 64.3146 123.874 64.848C124.237 65.36 124.856 65.7333 125.73 65.968V66.48H117.986V65.968ZM138.132 50.48H140.5V47.28L143.284 46.832L143.636 47.184C143.551 47.7813 143.508 48.4426 143.508 49.168V50.48H148.596V51.632H143.508V62.16C143.508 64.1013 144.319 65.072 145.94 65.072C146.9 65.072 147.721 64.624 148.404 63.728L148.916 64.016C148.063 66 146.644 66.992 144.66 66.992C141.887 66.992 140.5 65.36 140.5 62.096V51.632H138.132V50.48ZM153.374 60.912V55.216C153.374 54.0853 153.193 53.2533 152.83 52.72C152.489 52.1866 151.881 51.8133 151.006 51.6V51.088L156.158 50.288L156.51 50.64C156.425 51.2373 156.382 51.8986 156.382 52.624V61.104C156.382 62.5546 156.692 63.6853 157.31 64.496C157.929 65.3066 158.793 65.712 159.902 65.712C160.67 65.712 161.385 65.52 162.046 65.136C162.708 64.752 163.23 64.1973 163.614 63.472C164.02 62.7466 164.222 61.8826 164.222 60.88V53.84C164.222 53.072 164.094 52.528 163.838 52.208C163.604 51.888 163.06 51.6533 162.206 51.504V51.024L167.07 50.288L167.358 50.576C167.273 51.28 167.23 51.9946 167.23 52.72V62.416C167.23 63.504 167.401 64.3146 167.742 64.848C168.105 65.36 168.724 65.7333 169.598 65.968V66.48L164.958 66.8C164.596 66.1173 164.404 65.4346 164.382 64.752C163.038 66.2453 161.31 66.992 159.198 66.992C157.321 66.992 155.881 66.4693 154.878 65.424C153.876 64.3573 153.374 62.8533 153.374 60.912ZM171.361 65.968C172.236 65.7333 172.844 65.36 173.185 64.848C173.548 64.3146 173.729 63.5146 173.729 62.448V55.088C173.729 54 173.548 53.1893 173.185 52.656C172.844 52.1226 172.236 51.7493 171.361 51.536V51.024L176.001 50.288C176.193 50.6506 176.332 50.9813 176.417 51.28C176.503 51.5786 176.556 51.9413 176.577 52.368C177.068 51.6213 177.665 51.0346 178.369 50.608C179.095 50.1813 179.884 49.968 180.737 49.968C181.932 49.968 182.988 50.352 183.905 51.12L184.097 55.568L183.553 55.696C182.892 54.1813 182.263 53.104 181.665 52.464C181.068 51.824 180.396 51.504 179.649 51.504C178.732 51.504 178.017 51.9306 177.505 52.784C176.993 53.6373 176.737 54.8426 176.737 56.4V62.448C176.737 63.6 176.951 64.4213 177.377 64.912C177.804 65.4026 178.593 65.7333 179.745 65.904V66.48H171.361V65.968ZM185.862 58.608C185.862 56.88 186.182 55.376 186.822 54.096C187.462 52.7946 188.358 51.7813 189.51 51.056C190.662 50.3306 191.995 49.968 193.51 49.968C195.473 49.968 197.041 50.608 198.214 51.888C199.387 53.1466 200.081 54.96 200.294 57.328H188.742C188.742 59.6533 189.286 61.4666 190.374 62.768C191.462 64.048 192.987 64.688 194.95 64.688C196.87 64.688 198.342 64.0053 199.366 62.64L199.878 62.928C198.662 65.6373 196.539 66.992 193.51 66.992C191.974 66.992 190.63 66.6506 189.478 65.968C188.326 65.264 187.43 64.2826 186.79 63.024C186.171 61.7653 185.862 60.2933 185.862 58.608ZM196.998 56.176C196.891 54.5973 196.475 53.36 195.75 52.464C195.046 51.568 194.107 51.12 192.934 51.12C191.761 51.12 190.811 51.568 190.086 52.464C189.361 53.36 188.934 54.5973 188.806 56.176H196.998ZM222.804 65.968C223.679 65.6906 224.18 65.264 224.308 64.688C224.457 64.112 224.223 63.344 223.604 62.384L219.828 56.4L215.892 62.384C214.633 64.2826 214.793 65.4773 216.372 65.968V66.48H210.132V65.968C211.604 65.4986 212.895 64.464 214.004 62.864L219.124 55.28L214.164 47.44C213.673 46.6506 213.161 46.0213 212.628 45.552C212.116 45.0826 211.476 44.7626 210.708 44.592V44.08H219.156V44.592C218.089 44.8266 217.513 45.232 217.428 45.808C217.364 46.3626 217.663 47.152 218.324 48.176L221.556 53.264L224.916 48.176C225.663 47.0666 225.993 46.224 225.908 45.648C225.844 45.072 225.247 44.72 224.116 44.592V44.08H230.708V44.592C230.196 44.6986 229.748 44.848 229.364 45.04C228.98 45.232 228.596 45.5306 228.212 45.936C227.828 46.3413 227.369 46.928 226.836 47.696L222.26 54.384L227.828 63.12C228.319 63.9093 228.82 64.5173 229.332 64.944C229.865 65.3493 230.516 65.6906 231.284 65.968V66.48H222.804V65.968ZM241.24 65.904C242.157 65.6693 242.797 65.2746 243.16 64.72C243.544 64.1653 243.736 63.3226 243.736 62.192V48.368C243.736 47.2373 243.544 46.3946 243.16 45.84C242.797 45.2853 242.157 44.8906 241.24 44.656V44.08H249.272C252.131 44.08 254.349 44.56 255.928 45.52C257.507 46.48 258.296 47.824 258.296 49.552C258.296 50.7893 257.88 51.8346 257.048 52.688C256.216 53.5413 255.021 54.1706 253.464 54.576C255.448 54.896 256.984 55.5573 258.072 56.56C259.16 57.5413 259.704 58.8 259.704 60.336C259.704 62.2773 258.84 63.792 257.112 64.88C255.384 65.9466 252.963 66.48 249.848 66.48H241.24V65.904ZM246.936 62.064C246.936 63.1733 247.128 63.984 247.512 64.496C247.896 65.008 248.515 65.264 249.368 65.264H250.328C252.163 65.264 253.613 64.88 254.68 64.112C255.768 63.344 256.312 62.2133 256.312 60.72C256.312 59.1413 255.725 57.8826 254.552 56.944C253.379 55.984 251.811 55.504 249.848 55.504H246.936V62.064ZM255 50.096C255 48.6453 254.413 47.4826 253.24 46.608C252.067 45.7333 250.499 45.296 248.536 45.296H246.936V54.288H248.408C250.563 54.288 252.195 53.936 253.304 53.232C254.435 52.5066 255 51.4613 255 50.096ZM263.187 60.912V55.216C263.187 54.0853 263.005 53.2533 262.643 52.72C262.301 52.1866 261.693 51.8133 260.819 51.6V51.088L265.971 50.288L266.323 50.64C266.237 51.2373 266.195 51.8986 266.195 52.624V61.104C266.195 62.5546 266.504 63.6853 267.123 64.496C267.741 65.3066 268.605 65.712 269.715 65.712C270.483 65.712 271.197 65.52 271.859 65.136C272.52 64.752 273.043 64.1973 273.427 63.472C273.832 62.7466 274.035 61.8826 274.035 60.88V53.84C274.035 53.072 273.907 52.528 273.651 52.208C273.416 51.888 272.872 51.6533 272.019 51.504V51.024L276.883 50.288L277.171 50.576C277.085 51.28 277.043 51.9946 277.043 52.72V62.416C277.043 63.504 277.213 64.3146 277.555 64.848C277.917 65.36 278.536 65.7333 279.411 65.968V66.48L274.771 66.8C274.408 66.1173 274.216 65.4346 274.195 64.752C272.851 66.2453 271.123 66.992 269.011 66.992C267.133 66.992 265.693 66.4693 264.691 65.424C263.688 64.3573 263.187 62.8533 263.187 60.912ZM290.966 63.248C290.966 62.4586 290.667 61.7973 290.07 61.264C289.472 60.7306 288.448 60.176 286.998 59.6C285.056 58.8106 283.68 58.0213 282.87 57.232C282.059 56.4213 281.654 55.4933 281.654 54.448C281.654 53.0826 282.187 51.9946 283.254 51.184C284.342 50.3733 285.792 49.968 287.606 49.968C288.48 49.968 289.387 50.0746 290.326 50.288C291.264 50.48 292.139 50.7573 292.95 51.12L293.462 55.376L292.918 55.536C292.192 54.1066 291.339 53.0186 290.358 52.272C289.376 51.504 288.331 51.12 287.222 51.12C286.368 51.12 285.696 51.3333 285.206 51.76C284.736 52.1653 284.502 52.7093 284.502 53.392C284.502 54.096 284.8 54.704 285.398 55.216C285.995 55.7066 287.04 56.2506 288.534 56.848C290.496 57.6373 291.862 58.4053 292.63 59.152C293.419 59.8986 293.814 60.816 293.814 61.904C293.814 62.8853 293.547 63.76 293.014 64.528C292.502 65.296 291.776 65.904 290.838 66.352C289.92 66.7786 288.843 66.992 287.606 66.992C286.752 66.992 285.846 66.8746 284.886 66.64C283.926 66.4266 282.966 66.1066 282.006 65.68L281.494 61.424L282.038 61.264C282.763 62.7146 283.648 63.8453 284.694 64.656C285.76 65.4453 286.88 65.84 288.054 65.84C288.971 65.84 289.686 65.6053 290.198 65.136C290.71 64.6666 290.966 64.0373 290.966 63.248ZM296.361 65.968C297.236 65.7333 297.844 65.36 298.185 64.848C298.548 64.3146 298.729 63.504 298.729 62.416V55.152C298.729 54.0213 298.548 53.1893 298.185 52.656C297.844 52.1226 297.236 51.7493 296.361 51.536V51.024L301.513 50.288L301.865 50.64C301.823 50.9813 301.791 51.312 301.769 51.632C301.748 51.9306 301.737 52.2613 301.737 52.624V62.416C301.737 63.504 301.908 64.3146 302.249 64.848C302.612 65.36 303.231 65.7333 304.105 65.968V66.48H296.361V65.968ZM297.929 45.072C297.929 44.4533 298.121 43.952 298.505 43.568C298.911 43.184 299.412 42.992 300.009 42.992C300.628 42.992 301.129 43.184 301.513 43.568C301.897 43.952 302.089 44.4533 302.089 45.072C302.089 45.6693 301.897 46.1706 301.513 46.576C301.129 46.96 300.628 47.152 300.009 47.152C299.412 47.152 298.911 46.96 298.505 46.576C298.121 46.1706 297.929 45.6693 297.929 45.072ZM305.861 65.968C306.736 65.7333 307.344 65.36 307.685 64.848C308.048 64.3146 308.229 63.504 308.229 62.416V55.152C308.229 54.0213 308.048 53.1893 307.685 52.656C307.344 52.1226 306.736 51.7493 305.861 51.536V51.024L310.501 50.288C310.821 50.8853 311.003 51.4506 311.045 51.984C312.411 50.64 314.149 49.968 316.261 49.968C318.224 49.968 319.728 50.4906 320.773 51.536C321.819 52.5813 322.341 54.0853 322.341 56.048V62.416C322.341 63.504 322.512 64.3146 322.853 64.848C323.216 65.36 323.835 65.7333 324.709 65.968V66.48H316.965V65.968C317.84 65.7333 318.448 65.36 318.789 64.848C319.152 64.3146 319.333 63.504 319.333 62.416V55.856C319.333 54.4053 319.003 53.2746 318.341 52.464C317.68 51.6533 316.752 51.248 315.557 51.248C314.235 51.248 313.179 51.728 312.389 52.688C311.621 53.6266 311.237 54.896 311.237 56.496V62.416C311.237 63.504 311.408 64.3146 311.749 64.848C312.112 65.36 312.731 65.7333 313.605 65.968V66.48H305.861V65.968ZM326.487 58.608C326.487 56.88 326.807 55.376 327.447 54.096C328.087 52.7946 328.983 51.7813 330.135 51.056C331.287 50.3306 332.62 49.968 334.135 49.968C336.098 49.968 337.666 50.608 338.839 51.888C340.012 53.1466 340.706 54.96 340.919 57.328H329.367C329.367 59.6533 329.911 61.4666 330.999 62.768C332.087 64.048 333.612 64.688 335.575 64.688C337.495 64.688 338.967 64.0053 339.991 62.64L340.503 62.928C339.287 65.6373 337.164 66.992 334.135 66.992C332.599 66.992 331.255 66.6506 330.103 65.968C328.951 65.264 328.055 64.2826 327.415 63.024C326.796 61.7653 326.487 60.2933 326.487 58.608ZM337.623 56.176C337.516 54.5973 337.1 53.36 336.375 52.464C335.671 51.568 334.732 51.12 333.559 51.12C332.386 51.12 331.436 51.568 330.711 52.464C329.986 53.36 329.559 54.5973 329.431 56.176H337.623ZM352.997 63.248C352.997 62.4586 352.698 61.7973 352.101 61.264C351.504 60.7306 350.48 60.176 349.029 59.6C347.088 58.8106 345.712 58.0213 344.901 57.232C344.09 56.4213 343.685 55.4933 343.685 54.448C343.685 53.0826 344.218 51.9946 345.285 51.184C346.373 50.3733 347.824 49.968 349.637 49.968C350.512 49.968 351.418 50.0746 352.357 50.288C353.296 50.48 354.17 50.7573 354.981 51.12L355.493 55.376L354.949 55.536C354.224 54.1066 353.37 53.0186 352.389 52.272C351.408 51.504 350.362 51.12 349.253 51.12C348.4 51.12 347.728 51.3333 347.237 51.76C346.768 52.1653 346.533 52.7093 346.533 53.392C346.533 54.096 346.832 54.704 347.429 55.216C348.026 55.7066 349.072 56.2506 350.565 56.848C352.528 57.6373 353.893 58.4053 354.661 59.152C355.45 59.8986 355.845 60.816 355.845 61.904C355.845 62.8853 355.578 63.76 355.045 64.528C354.533 65.296 353.808 65.904 352.869 66.352C351.952 66.7786 350.874 66.992 349.637 66.992C348.784 66.992 347.877 66.8746 346.917 66.64C345.957 66.4266 344.997 66.1066 344.037 65.68L343.525 61.424L344.069 61.264C344.794 62.7146 345.68 63.8453 346.725 64.656C347.792 65.4453 348.912 65.84 350.085 65.84C351.002 65.84 351.717 65.6053 352.229 65.136C352.741 64.6666 352.997 64.0373 352.997 63.248ZM368.184 63.248C368.184 62.4586 367.886 61.7973 367.288 61.264C366.691 60.7306 365.667 60.176 364.216 59.6C362.275 58.8106 360.899 58.0213 360.088 57.232C359.278 56.4213 358.872 55.4933 358.872 54.448C358.872 53.0826 359.406 51.9946 360.472 51.184C361.56 50.3733 363.011 49.968 364.824 49.968C365.699 49.968 366.606 50.0746 367.544 50.288C368.483 50.48 369.358 50.7573 370.168 51.12L370.68 55.376L370.136 55.536C369.411 54.1066 368.558 53.0186 367.576 52.272C366.595 51.504 365.55 51.12 364.44 51.12C363.587 51.12 362.915 51.3333 362.424 51.76C361.955 52.1653 361.72 52.7093 361.72 53.392C361.72 54.096 362.019 54.704 362.616 55.216C363.214 55.7066 364.259 56.2506 365.752 56.848C367.715 57.6373 369.08 58.4053 369.848 59.152C370.638 59.8986 371.032 60.816 371.032 61.904C371.032 62.8853 370.766 63.76 370.232 64.528C369.72 65.296 368.995 65.904 368.056 66.352C367.139 66.7786 366.062 66.992 364.824 66.992C363.971 66.992 363.064 66.8746 362.104 66.64C361.144 66.4266 360.184 66.1066 359.224 65.68L358.712 61.424L359.256 61.264C359.982 62.7146 360.867 63.8453 361.912 64.656C362.979 65.4453 364.099 65.84 365.272 65.84C366.19 65.84 366.904 65.6053 367.416 65.136C367.928 64.6666 368.184 64.0373 368.184 63.248ZM374.252 64.592C374.252 63.952 374.455 63.4293 374.86 63.024C375.287 62.5973 375.82 62.384 376.46 62.384C377.1 62.384 377.623 62.5973 378.028 63.024C378.455 63.4293 378.668 63.952 378.668 64.592C378.668 65.232 378.455 65.7653 378.028 66.192C377.623 66.5973 377.1 66.8 376.46 66.8C375.82 66.8 375.287 66.5973 374.86 66.192C374.455 65.7653 374.252 65.232 374.252 64.592ZM0.896211 128.904C1.81354 128.669 2.45354 128.275 2.81621 127.72C3.20021 127.165 3.39221 126.323 3.39221 125.192V111.368C3.39221 110.237 3.20021 109.395 2.81621 108.84C2.45354 108.285 1.81354 107.891 0.896211 107.656V107.08H9.15221V107.656C8.23488 107.891 7.58421 108.285 7.20021 108.84C6.83754 109.395 6.65621 110.237 6.65621 111.368V125.192C6.65621 126.323 6.83754 127.165 7.20021 127.72C7.58421 128.275 8.23488 128.669 9.15221 128.904V129.48H0.896211V128.904ZM11.1007 113.48H13.4687V110.28L16.2527 109.832L16.6047 110.184C16.5194 110.781 16.4767 111.443 16.4767 112.168V113.48H21.5647V114.632H16.4767V125.16C16.4767 127.101 17.2874 128.072 18.9087 128.072C19.8687 128.072 20.69 127.624 21.3727 126.728L21.8847 127.016C21.0314 129 19.6127 129.992 17.6287 129.992C14.8554 129.992 13.4687 128.36 13.4687 125.096V114.632H11.1007V113.48ZM27.751 112.008C27.751 111.219 27.527 110.611 27.079 110.184C26.631 109.757 25.991 109.544 25.159 109.544C25.0096 108.755 25.1376 108.093 25.543 107.56C25.9696 107.027 26.5776 106.76 27.367 106.76C28.2203 106.76 28.8923 107.069 29.383 107.688C29.895 108.307 30.151 109.139 30.151 110.184C30.151 111.443 29.7563 112.616 28.967 113.704C28.199 114.792 27.1216 115.699 25.735 116.424L25.447 115.848C26.1936 115.336 26.759 114.76 27.143 114.12C27.5483 113.459 27.751 112.755 27.751 112.008ZM42.247 126.248C42.247 125.459 41.9483 124.797 41.351 124.264C40.7536 123.731 39.7296 123.176 38.279 122.6C36.3376 121.811 34.9616 121.021 34.151 120.232C33.3403 119.421 32.935 118.493 32.935 117.448C32.935 116.083 33.4683 114.995 34.535 114.184C35.623 113.373 37.0736 112.968 38.887 112.968C39.7616 112.968 40.6683 113.075 41.607 113.288C42.5456 113.48 43.4203 113.757 44.231 114.12L44.743 118.376L44.199 118.536C43.4736 117.107 42.6203 116.019 41.639 115.272C40.6576 114.504 39.6123 114.12 38.503 114.12C37.6496 114.12 36.9776 114.333 36.487 114.76C36.0176 115.165 35.783 115.709 35.783 116.392C35.783 117.096 36.0816 117.704 36.679 118.216C37.2763 118.707 38.3216 119.251 39.815 119.848C41.7776 120.637 43.143 121.405 43.911 122.152C44.7003 122.899 45.095 123.816 45.095 124.904C45.095 125.885 44.8283 126.76 44.295 127.528C43.783 128.296 43.0576 128.904 42.119 129.352C41.2016 129.779 40.1243 129.992 38.887 129.992C38.0336 129.992 37.127 129.875 36.167 129.64C35.207 129.427 34.247 129.107 33.287 128.68L32.775 124.424L33.319 124.264C34.0443 125.715 34.9296 126.845 35.975 127.656C37.0416 128.445 38.1616 128.84 39.335 128.84C40.2523 128.84 40.967 128.605 41.479 128.136C41.991 127.667 42.247 127.037 42.247 126.248ZM56.3145 125.768C56.3145 124.723 56.6451 123.805 57.3065 123.016C57.9678 122.227 58.8958 121.619 60.0905 121.192C61.2851 120.744 62.6718 120.52 64.2505 120.52C65.0398 120.52 65.8398 120.573 66.6505 120.68V118.632C66.6505 117.224 66.3305 116.125 65.6905 115.336C65.0718 114.525 64.2078 114.12 63.0985 114.12C60.9865 114.12 59.2051 115.645 57.7545 118.696L57.2105 118.536L57.7225 114.12C59.6425 113.352 61.5091 112.968 63.3225 112.968C65.3491 112.968 66.9065 113.48 67.9945 114.504C69.1038 115.507 69.6585 116.957 69.6585 118.856V126.664C69.6585 127.773 70.0958 128.328 70.9705 128.328C71.2905 128.328 71.5785 128.211 71.8345 127.976L72.2505 128.296C71.5891 129.299 70.6825 129.8 69.5305 129.8C68.2078 129.8 67.3438 129.181 66.9385 127.944C65.6585 129.309 64.0051 129.992 61.9785 129.992C60.2291 129.992 58.8425 129.619 57.8185 128.872C56.8158 128.104 56.3145 127.069 56.3145 125.768ZM59.4505 125.384C59.4505 126.429 59.7705 127.251 60.4105 127.848C61.0718 128.445 61.9251 128.744 62.9705 128.744C64.0158 128.744 64.8905 128.317 65.5945 127.464C66.2985 126.611 66.6505 125.331 66.6505 123.624V121.8C66.3091 121.757 65.9785 121.725 65.6585 121.704C65.3598 121.683 65.0611 121.672 64.7625 121.672C63.0771 121.672 61.7651 122.003 60.8265 122.664C59.9091 123.304 59.4505 124.211 59.4505 125.384ZM81.6097 132.872C81.6097 131.272 82.6017 130.035 84.5857 129.16C84.031 128.947 83.615 128.637 83.3377 128.232C83.0817 127.827 82.9537 127.368 82.9537 126.856C82.9537 126.429 83.071 125.992 83.3057 125.544C83.5404 125.096 83.8497 124.659 84.2337 124.232L84.8097 123.592C83.9777 123.08 83.327 122.419 82.8577 121.608C82.3884 120.776 82.1537 119.837 82.1537 118.792C82.1537 117.64 82.4417 116.627 83.0177 115.752C83.5937 114.877 84.3937 114.195 85.4177 113.704C86.4417 113.213 87.6257 112.968 88.9697 112.968C90.079 112.968 91.0924 113.139 92.0097 113.48H97.0017V114.632H93.9617C94.5377 115.144 94.9857 115.763 95.3057 116.488C95.6257 117.192 95.7857 117.971 95.7857 118.824C95.7857 119.976 95.4977 120.989 94.9217 121.864C94.3457 122.739 93.5457 123.421 92.5217 123.912C91.519 124.403 90.335 124.648 88.9697 124.648C87.839 124.648 86.8044 124.467 85.8657 124.104L85.2897 124.776C84.9484 125.139 84.7777 125.459 84.7777 125.736C84.7777 126.227 85.2684 126.525 86.2497 126.632L91.9777 127.144C93.7057 127.293 95.0177 127.741 95.9137 128.488C96.8097 129.213 97.2577 130.195 97.2577 131.432C97.2577 132.563 96.895 133.544 96.1697 134.376C95.4657 135.229 94.463 135.88 93.1617 136.328C91.8817 136.776 90.3777 137 88.6497 137C86.4524 137 84.7244 136.627 83.4657 135.88C82.2284 135.155 81.6097 134.152 81.6097 132.872ZM85.1297 118.472C85.1297 119.965 85.5137 121.181 86.2817 122.12C87.0497 123.037 88.0417 123.496 89.2577 123.496C90.3457 123.496 91.2097 123.101 91.8497 122.312C92.4897 121.523 92.8097 120.467 92.8097 119.144C92.8097 117.651 92.4257 116.445 91.6577 115.528C90.8897 114.589 89.8977 114.12 88.6817 114.12C87.5937 114.12 86.7297 114.515 86.0897 115.304C85.4497 116.093 85.1297 117.149 85.1297 118.472ZM83.8497 132.264C83.8497 133.437 84.319 134.323 85.2577 134.92C86.2177 135.539 87.5297 135.848 89.1937 135.848C90.9004 135.848 92.2337 135.539 93.1937 134.92C94.175 134.301 94.6657 133.459 94.6657 132.392C94.6657 131.581 94.3457 130.984 93.7057 130.6C93.0657 130.216 91.935 129.949 90.3137 129.8L85.9297 129.416C84.543 130.077 83.8497 131.027 83.8497 132.264ZM99.08 128.968C99.9546 128.733 100.563 128.36 100.904 127.848C101.267 127.315 101.448 126.515 101.448 125.448V118.088C101.448 117 101.267 116.189 100.904 115.656C100.563 115.123 99.9546 114.749 99.08 114.536V114.024L103.72 113.288C103.912 113.651 104.051 113.981 104.136 114.28C104.221 114.579 104.275 114.941 104.296 115.368C104.787 114.621 105.384 114.035 106.088 113.608C106.813 113.181 107.603 112.968 108.456 112.968C109.651 112.968 110.707 113.352 111.624 114.12L111.816 118.568L111.272 118.696C110.611 117.181 109.981 116.104 109.384 115.464C108.787 114.824 108.115 114.504 107.368 114.504C106.451 114.504 105.736 114.931 105.224 115.784C104.712 116.637 104.456 117.843 104.456 119.4V125.448C104.456 126.6 104.669 127.421 105.096 127.912C105.523 128.403 106.312 128.733 107.464 128.904V129.48H99.08V128.968ZM113.581 121.608C113.581 119.88 113.901 118.376 114.541 117.096C115.181 115.795 116.077 114.781 117.229 114.056C118.381 113.331 119.714 112.968 121.229 112.968C123.191 112.968 124.759 113.608 125.933 114.888C127.106 116.147 127.799 117.96 128.013 120.328H116.461C116.461 122.653 117.005 124.467 118.093 125.768C119.181 127.048 120.706 127.688 122.669 127.688C124.589 127.688 126.061 127.005 127.085 125.64L127.597 125.928C126.381 128.637 124.258 129.992 121.229 129.992C119.693 129.992 118.349 129.651 117.197 128.968C116.045 128.264 115.149 127.283 114.509 126.024C113.89 124.765 113.581 123.293 113.581 121.608ZM124.717 119.176C124.61 117.597 124.194 116.36 123.469 115.464C122.765 114.568 121.826 114.12 120.653 114.12C119.479 114.12 118.53 114.568 117.805 115.464C117.079 116.36 116.653 117.597 116.525 119.176H124.717ZM130.971 125.768C130.971 124.723 131.301 123.805 131.963 123.016C132.624 122.227 133.552 121.619 134.747 121.192C135.941 120.744 137.328 120.52 138.907 120.52C139.696 120.52 140.496 120.573 141.307 120.68V118.632C141.307 117.224 140.987 116.125 140.347 115.336C139.728 114.525 138.864 114.12 137.755 114.12C135.643 114.12 133.861 115.645 132.411 118.696L131.867 118.536L132.379 114.12C134.299 113.352 136.165 112.968 137.979 112.968C140.005 112.968 141.563 113.48 142.651 114.504C143.76 115.507 144.315 116.957 144.315 118.856V126.664C144.315 127.773 144.752 128.328 145.627 128.328C145.947 128.328 146.235 128.211 146.491 127.976L146.907 128.296C146.245 129.299 145.339 129.8 144.187 129.8C142.864 129.8 142 129.181 141.595 127.944C140.315 129.309 138.661 129.992 136.635 129.992C134.885 129.992 133.499 129.619 132.475 128.872C131.472 128.104 130.971 127.069 130.971 125.768ZM134.107 125.384C134.107 126.429 134.427 127.251 135.067 127.848C135.728 128.445 136.581 128.744 137.627 128.744C138.672 128.744 139.547 128.317 140.251 127.464C140.955 126.611 141.307 125.331 141.307 123.624V121.8C140.965 121.757 140.635 121.725 140.315 121.704C140.016 121.683 139.717 121.672 139.419 121.672C137.733 121.672 136.421 122.003 135.483 122.664C134.565 123.304 134.107 124.211 134.107 125.384ZM147.882 113.48H150.25V110.28L153.034 109.832L153.386 110.184C153.301 110.781 153.258 111.443 153.258 112.168V113.48H158.346V114.632H153.258V125.16C153.258 127.101 154.069 128.072 155.69 128.072C156.65 128.072 157.471 127.624 158.154 126.728L158.666 127.016C157.813 129 156.394 129.992 154.41 129.992C151.637 129.992 150.25 128.36 150.25 125.096V114.632H147.882V113.48ZM169.268 121.576C169.268 119.827 169.599 118.312 170.26 117.032C170.943 115.731 171.892 114.728 173.108 114.024C174.346 113.32 175.796 112.968 177.46 112.968C178.996 112.968 180.66 113.288 182.452 113.928L182.932 118.6L182.388 118.728C181.151 115.635 179.391 114.088 177.108 114.088C175.615 114.088 174.41 114.675 173.492 115.848C172.596 117.021 172.148 118.589 172.148 120.552C172.148 122.728 172.724 124.467 173.876 125.768C175.028 127.048 176.564 127.688 178.484 127.688C180.298 127.688 181.727 127.005 182.772 125.64L183.284 125.928C182.068 128.637 179.946 129.992 176.916 129.992C175.38 129.992 174.036 129.651 172.884 128.968C171.732 128.264 170.836 127.283 170.196 126.024C169.578 124.744 169.268 123.261 169.268 121.576ZM186.471 125.768C186.471 124.723 186.801 123.805 187.463 123.016C188.124 122.227 189.052 121.619 190.247 121.192C191.441 120.744 192.828 120.52 194.407 120.52C195.196 120.52 195.996 120.573 196.807 120.68V118.632C196.807 117.224 196.487 116.125 195.847 115.336C195.228 114.525 194.364 114.12 193.255 114.12C191.143 114.12 189.361 115.645 187.911 118.696L187.367 118.536L187.879 114.12C189.799 113.352 191.665 112.968 193.479 112.968C195.505 112.968 197.063 113.48 198.151 114.504C199.26 115.507 199.815 116.957 199.815 118.856V126.664C199.815 127.773 200.252 128.328 201.127 128.328C201.447 128.328 201.735 128.211 201.991 127.976L202.407 128.296C201.745 129.299 200.839 129.8 199.687 129.8C198.364 129.8 197.5 129.181 197.095 127.944C195.815 129.309 194.161 129.992 192.135 129.992C190.385 129.992 188.999 129.619 187.975 128.872C186.972 128.104 186.471 127.069 186.471 125.768ZM189.607 125.384C189.607 126.429 189.927 127.251 190.567 127.848C191.228 128.445 192.081 128.744 193.127 128.744C194.172 128.744 195.047 128.317 195.751 127.464C196.455 126.611 196.807 125.331 196.807 123.624V121.8C196.465 121.757 196.135 121.725 195.815 121.704C195.516 121.683 195.217 121.672 194.919 121.672C193.233 121.672 191.921 122.003 190.983 122.664C190.065 123.304 189.607 124.211 189.607 125.384ZM203.382 113.48H205.75V110.28L208.534 109.832L208.886 110.184C208.801 110.781 208.758 111.443 208.758 112.168V113.48H213.846V114.632H208.758V125.16C208.758 127.101 209.569 128.072 211.19 128.072C212.15 128.072 212.971 127.624 213.654 126.728L214.166 127.016C213.313 129 211.894 129.992 209.91 129.992C207.137 129.992 205.75 128.36 205.75 125.096V114.632H203.382V113.48ZM216.456 121.576C216.456 119.827 216.786 118.312 217.448 117.032C218.13 115.731 219.08 114.728 220.296 114.024C221.533 113.32 222.984 112.968 224.648 112.968C226.184 112.968 227.848 113.288 229.64 113.928L230.12 118.6L229.576 118.728C228.338 115.635 226.578 114.088 224.296 114.088C222.802 114.088 221.597 114.675 220.68 115.848C219.784 117.021 219.336 118.589 219.336 120.552C219.336 122.728 219.912 124.467 221.064 125.768C222.216 127.048 223.752 127.688 225.672 127.688C227.485 127.688 228.914 127.005 229.96 125.64L230.472 125.928C229.256 128.637 227.133 129.992 224.104 129.992C222.568 129.992 221.224 129.651 220.072 128.968C218.92 128.264 218.024 127.283 217.384 126.024C216.765 124.744 216.456 123.261 216.456 121.576ZM232.826 128.968C233.701 128.733 234.309 128.349 234.65 127.816C235.013 127.283 235.194 126.461 235.194 125.352V109.928C235.194 108.797 235.013 107.965 234.65 107.432C234.309 106.899 233.701 106.525 232.826 106.312V105.8L237.978 105L238.33 105.352C238.245 105.949 238.202 106.6 238.202 107.304V114.792C239.525 113.576 241.2 112.968 243.226 112.968C245.189 112.968 246.693 113.491 247.738 114.536C248.784 115.581 249.306 117.085 249.306 119.048V125.416C249.306 126.504 249.477 127.315 249.818 127.848C250.181 128.36 250.8 128.733 251.674 128.968V129.48H243.93V128.968C244.805 128.733 245.413 128.36 245.754 127.848C246.117 127.315 246.298 126.504 246.298 125.416V118.856C246.298 117.405 245.968 116.275 245.306 115.464C244.645 114.653 243.717 114.248 242.522 114.248C241.2 114.248 240.144 114.728 239.354 115.688C238.586 116.627 238.202 117.896 238.202 119.496V125.512C238.202 126.579 238.373 127.368 238.714 127.88C239.077 128.392 239.696 128.755 240.57 128.968V129.48H232.826V128.968ZM0.736211 155.48H3.10421V152.664C3.10421 150.765 3.60554 149.315 4.60821 148.312C5.61088 147.288 7.05088 146.776 8.92821 146.776C9.61088 146.776 10.2722 146.84 10.9122 146.968C11.5522 147.096 12.2029 147.256 12.8642 147.448L13.3762 151.96L12.8322 152.12C12.2562 151.032 11.7549 150.189 11.3282 149.592C10.9015 148.973 10.4855 148.547 10.0802 148.312C9.67488 148.056 9.21621 147.928 8.70421 147.928C6.97621 147.928 6.11221 149.112 6.11221 151.48V155.48H10.4002V156.632H6.11221V167.448C6.11221 168.6 6.32554 169.421 6.75221 169.912C7.17888 170.403 7.96821 170.733 9.12021 170.904V171.48H0.736211V170.968C1.61088 170.733 2.21888 170.36 2.56021 169.848C2.92288 169.315 3.10421 168.515 3.10421 167.448V156.632H0.736211V155.48ZM12.8307 163.48C12.8307 161.795 13.1614 160.312 13.8227 159.032C14.484 157.752 15.4014 156.76 16.5747 156.056C17.748 155.331 19.1134 154.968 20.6707 154.968C22.228 154.968 23.5827 155.331 24.7347 156.056C25.908 156.76 26.8254 157.752 27.4867 159.032C28.148 160.312 28.4787 161.795 28.4787 163.48C28.4787 165.165 28.148 166.648 27.4867 167.928C26.8254 169.208 25.908 170.211 24.7347 170.936C23.5827 171.64 22.228 171.992 20.6707 171.992C19.1134 171.992 17.748 171.64 16.5747 170.936C15.4014 170.211 14.484 169.208 13.8227 167.928C13.1614 166.648 12.8307 165.165 12.8307 163.48ZM15.9667 162.68C15.9667 164.237 16.1907 165.635 16.6387 166.872C17.0867 168.088 17.7054 169.059 18.4947 169.784C19.284 170.488 20.18 170.84 21.1827 170.84C22.4414 170.84 23.444 170.253 24.1907 169.08C24.9587 167.885 25.3427 166.285 25.3427 164.28C25.3427 162.723 25.1187 161.336 24.6707 160.12C24.2227 158.883 23.604 157.912 22.8147 157.208C22.0254 156.483 21.1294 156.12 20.1267 156.12C18.868 156.12 17.8547 156.717 17.0867 157.912C16.34 159.085 15.9667 160.675 15.9667 162.68ZM30.7362 170.968C31.6109 170.733 32.2189 170.36 32.5602 169.848C32.9229 169.315 33.1042 168.515 33.1042 167.448V160.088C33.1042 159 32.9229 158.189 32.5602 157.656C32.2189 157.123 31.6109 156.749 30.7362 156.536V156.024L35.3762 155.288C35.5682 155.651 35.7069 155.981 35.7922 156.28C35.8775 156.579 35.9309 156.941 35.9522 157.368C36.4429 156.621 37.0402 156.035 37.7442 155.608C38.4695 155.181 39.2589 154.968 40.1122 154.968C41.3069 154.968 42.3629 155.352 43.2802 156.12L43.4722 160.568L42.9282 160.696C42.2669 159.181 41.6375 158.104 41.0402 157.464C40.4429 156.824 39.7709 156.504 39.0242 156.504C38.1069 156.504 37.3922 156.931 36.8802 157.784C36.3682 158.637 36.1122 159.843 36.1122 161.4V167.448C36.1122 168.6 36.3255 169.421 36.7522 169.912C37.1789 170.403 37.9682 170.733 39.1202 170.904V171.48H30.7362V170.968ZM52.469 155.48H60.501V155.992C59.6476 156.077 59.0716 156.408 58.773 156.984C58.4956 157.56 58.581 158.328 59.029 159.288L63.029 167.768L67.125 159.288C67.5943 158.328 67.6796 157.56 67.381 156.984C67.0823 156.408 66.5063 156.077 65.653 155.992V155.48H71.573V155.992C70.8476 156.184 70.3143 156.44 69.973 156.76C69.6316 157.059 69.3116 157.507 69.013 158.104L61.941 172.376C61.109 174.061 60.373 175.384 59.733 176.344C59.093 177.325 58.4743 178.008 57.877 178.392C57.2796 178.797 56.629 179 55.925 179C55.0716 179 54.3463 178.733 53.749 178.2C53.1516 177.688 52.6183 176.845 52.149 175.672L52.597 175.384C53.4076 176.195 54.4316 176.6 55.669 176.6C56.7356 176.6 57.685 176.237 58.517 175.512C59.349 174.808 60.1596 173.645 60.949 172.024L61.365 171.192L55.029 158.104C54.7516 157.507 54.4423 157.059 54.101 156.76C53.7596 156.44 53.2156 156.184 52.469 155.992V155.48ZM72.2682 163.48C72.2682 161.795 72.5989 160.312 73.2602 159.032C73.9215 157.752 74.8389 156.76 76.0122 156.056C77.1855 155.331 78.5509 154.968 80.1082 154.968C81.6655 154.968 83.0202 155.331 84.1722 156.056C85.3455 156.76 86.2629 157.752 86.9242 159.032C87.5855 160.312 87.9162 161.795 87.9162 163.48C87.9162 165.165 87.5855 166.648 86.9242 167.928C86.2629 169.208 85.3455 170.211 84.1722 170.936C83.0202 171.64 81.6655 171.992 80.1082 171.992C78.5509 171.992 77.1855 171.64 76.0122 170.936C74.8389 170.211 73.9215 169.208 73.2602 167.928C72.5989 166.648 72.2682 165.165 72.2682 163.48ZM75.4042 162.68C75.4042 164.237 75.6282 165.635 76.0762 166.872C76.5242 168.088 77.1429 169.059 77.9322 169.784C78.7215 170.488 79.6175 170.84 80.6202 170.84C81.8789 170.84 82.8815 170.253 83.6282 169.08C84.3962 167.885 84.7802 166.285 84.7802 164.28C84.7802 162.723 84.5562 161.336 84.1082 160.12C83.6602 158.883 83.0415 157.912 82.2522 157.208C81.4629 156.483 80.5669 156.12 79.5642 156.12C78.3055 156.12 77.2922 156.717 76.5242 157.912C75.7775 159.085 75.4042 160.675 75.4042 162.68ZM92.0617 165.912V160.216C92.0617 159.085 91.8804 158.253 91.5177 157.72C91.1764 157.187 90.5684 156.813 89.6937 156.6V156.088L94.8457 155.288L95.1977 155.64C95.1124 156.237 95.0697 156.899 95.0697 157.624V166.104C95.0697 167.555 95.379 168.685 95.9977 169.496C96.6164 170.307 97.4804 170.712 98.5897 170.712C99.3577 170.712 100.072 170.52 100.734 170.136C101.395 169.752 101.918 169.197 102.302 168.472C102.707 167.747 102.91 166.883 102.91 165.88V158.84C102.91 158.072 102.782 157.528 102.526 157.208C102.291 156.888 101.747 156.653 100.894 156.504V156.024L105.758 155.288L106.046 155.576C105.96 156.28 105.918 156.995 105.918 157.72V167.416C105.918 168.504 106.088 169.315 106.43 169.848C106.792 170.36 107.411 170.733 108.286 170.968V171.48L103.646 171.8C103.283 171.117 103.091 170.435 103.07 169.752C101.726 171.245 99.9977 171.992 97.8857 171.992C96.0084 171.992 94.5684 171.469 93.5657 170.424C92.563 169.357 92.0617 167.853 92.0617 165.912ZM110.049 170.968C110.923 170.733 111.531 170.36 111.873 169.848C112.235 169.315 112.417 168.515 112.417 167.448V160.088C112.417 159 112.235 158.189 111.873 157.656C111.531 157.123 110.923 156.749 110.049 156.536V156.024L114.689 155.288C114.881 155.651 115.019 155.981 115.105 156.28C115.19 156.579 115.243 156.941 115.265 157.368C115.755 156.621 116.353 156.035 117.057 155.608C117.782 155.181 118.571 154.968 119.425 154.968C120.619 154.968 121.675 155.352 122.593 156.12L122.785 160.568L122.241 160.696C121.579 159.181 120.95 158.104 120.353 157.464C119.755 156.824 119.083 156.504 118.337 156.504C117.419 156.504 116.705 156.931 116.193 157.784C115.681 158.637 115.425 159.843 115.425 161.4V167.448C115.425 168.6 115.638 169.421 116.065 169.912C116.491 170.403 117.281 170.733 118.433 170.904V171.48H110.049V170.968ZM134.565 151.928C134.565 150.797 134.384 149.965 134.021 149.432C133.68 148.899 133.072 148.525 132.197 148.312V147.8L137.349 147L137.701 147.352C137.616 147.949 137.573 148.621 137.573 149.368V156.76C138.853 155.565 140.475 154.968 142.437 154.968C144.72 154.968 146.533 155.704 147.877 157.176C149.221 158.627 149.893 160.621 149.893 163.16C149.893 164.952 149.541 166.509 148.837 167.832C148.155 169.155 147.173 170.179 145.893 170.904C144.613 171.629 143.067 171.992 141.253 171.992C140.08 171.992 138.885 171.832 137.669 171.512C136.475 171.192 135.44 170.733 134.565 170.136V151.928ZM146.757 164.056C146.757 162.499 146.544 161.133 146.117 159.96C145.712 158.787 145.136 157.88 144.389 157.24C143.643 156.579 142.768 156.248 141.765 156.248C140.549 156.248 139.547 156.728 138.757 157.688C137.968 158.627 137.573 159.832 137.573 161.304V165.816C137.573 166.755 137.776 167.608 138.181 168.376C138.608 169.123 139.173 169.72 139.877 170.168C140.581 170.616 141.371 170.84 142.245 170.84C143.653 170.84 144.752 170.243 145.541 169.048C146.352 167.853 146.757 166.189 146.757 164.056ZM154.062 165.912V160.216C154.062 159.085 153.88 158.253 153.518 157.72C153.176 157.187 152.568 156.813 151.694 156.6V156.088L156.846 155.288L157.198 155.64C157.112 156.237 157.07 156.899 157.07 157.624V166.104C157.07 167.555 157.379 168.685 157.998 169.496C158.616 170.307 159.48 170.712 160.59 170.712C161.358 170.712 162.072 170.52 162.734 170.136C163.395 169.752 163.918 169.197 164.302 168.472C164.707 167.747 164.91 166.883 164.91 165.88V158.84C164.91 158.072 164.782 157.528 164.526 157.208C164.291 156.888 163.747 156.653 162.894 156.504V156.024L167.758 155.288L168.046 155.576C167.96 156.28 167.918 156.995 167.918 157.72V167.416C167.918 168.504 168.088 169.315 168.43 169.848C168.792 170.36 169.411 170.733 170.286 170.968V171.48L165.646 171.8C165.283 171.117 165.091 170.435 165.07 169.752C163.726 171.245 161.998 171.992 159.886 171.992C158.008 171.992 156.568 171.469 155.566 170.424C154.563 169.357 154.062 167.853 154.062 165.912ZM181.841 168.248C181.841 167.459 181.542 166.797 180.945 166.264C180.347 165.731 179.323 165.176 177.873 164.6C175.931 163.811 174.555 163.021 173.745 162.232C172.934 161.421 172.529 160.493 172.529 159.448C172.529 158.083 173.062 156.995 174.129 156.184C175.217 155.373 176.667 154.968 178.481 154.968C179.355 154.968 180.262 155.075 181.201 155.288C182.139 155.48 183.014 155.757 183.825 156.12L184.337 160.376L183.793 160.536C183.067 159.107 182.214 158.019 181.233 157.272C180.251 156.504 179.206 156.12 178.097 156.12C177.243 156.12 176.571 156.333 176.081 156.76C175.611 157.165 175.377 157.709 175.377 158.392C175.377 159.096 175.675 159.704 176.273 160.216C176.87 160.707 177.915 161.251 179.409 161.848C181.371 162.637 182.737 163.405 183.505 164.152C184.294 164.899 184.689 165.816 184.689 166.904C184.689 167.885 184.422 168.76 183.889 169.528C183.377 170.296 182.651 170.904 181.713 171.352C180.795 171.779 179.718 171.992 178.481 171.992C177.627 171.992 176.721 171.875 175.761 171.64C174.801 171.427 173.841 171.107 172.881 170.68L172.369 166.424L172.913 166.264C173.638 167.715 174.523 168.845 175.569 169.656C176.635 170.445 177.755 170.84 178.929 170.84C179.846 170.84 180.561 170.605 181.073 170.136C181.585 169.667 181.841 169.037 181.841 168.248ZM187.236 170.968C188.111 170.733 188.719 170.36 189.06 169.848C189.423 169.315 189.604 168.504 189.604 167.416V160.152C189.604 159.021 189.423 158.189 189.06 157.656C188.719 157.123 188.111 156.749 187.236 156.536V156.024L192.388 155.288L192.74 155.64C192.698 155.981 192.666 156.312 192.644 156.632C192.623 156.931 192.612 157.261 192.612 157.624V167.416C192.612 168.504 192.783 169.315 193.124 169.848C193.487 170.36 194.106 170.733 194.98 170.968V171.48H187.236V170.968ZM188.804 150.072C188.804 149.453 188.996 148.952 189.38 148.568C189.786 148.184 190.287 147.992 190.884 147.992C191.503 147.992 192.004 148.184 192.388 148.568C192.772 148.952 192.964 149.453 192.964 150.072C192.964 150.669 192.772 151.171 192.388 151.576C192.004 151.96 191.503 152.152 190.884 152.152C190.287 152.152 189.786 151.96 189.38 151.576C188.996 151.171 188.804 150.669 188.804 150.072ZM196.736 170.968C197.611 170.733 198.219 170.36 198.56 169.848C198.923 169.315 199.104 168.504 199.104 167.416V160.152C199.104 159.021 198.923 158.189 198.56 157.656C198.219 157.123 197.611 156.749 196.736 156.536V156.024L201.376 155.288C201.696 155.885 201.878 156.451 201.92 156.984C203.286 155.64 205.024 154.968 207.136 154.968C209.099 154.968 210.603 155.491 211.648 156.536C212.694 157.581 213.216 159.085 213.216 161.048V167.416C213.216 168.504 213.387 169.315 213.728 169.848C214.091 170.36 214.71 170.733 215.584 170.968V171.48H207.84V170.968C208.715 170.733 209.323 170.36 209.664 169.848C210.027 169.315 210.208 168.504 210.208 167.416V160.856C210.208 159.405 209.878 158.275 209.216 157.464C208.555 156.653 207.627 156.248 206.432 156.248C205.11 156.248 204.054 156.728 203.264 157.688C202.496 158.627 202.112 159.896 202.112 161.496V167.416C202.112 168.504 202.283 169.315 202.624 169.848C202.987 170.36 203.606 170.733 204.48 170.968V171.48H196.736V170.968ZM217.362 163.608C217.362 161.88 217.682 160.376 218.322 159.096C218.962 157.795 219.858 156.781 221.01 156.056C222.162 155.331 223.495 154.968 225.01 154.968C226.973 154.968 228.541 155.608 229.714 156.888C230.887 158.147 231.581 159.96 231.794 162.328H220.242C220.242 164.653 220.786 166.467 221.874 167.768C222.962 169.048 224.487 169.688 226.45 169.688C228.37 169.688 229.842 169.005 230.866 167.64L231.378 167.928C230.162 170.637 228.039 171.992 225.01 171.992C223.474 171.992 222.13 171.651 220.978 170.968C219.826 170.264 218.93 169.283 218.29 168.024C217.671 166.765 217.362 165.293 217.362 163.608ZM228.498 161.176C228.391 159.597 227.975 158.36 227.25 157.464C226.546 156.568 225.607 156.12 224.434 156.12C223.261 156.12 222.311 156.568 221.586 157.464C220.861 158.36 220.434 159.597 220.306 161.176H228.498ZM243.872 168.248C243.872 167.459 243.573 166.797 242.976 166.264C242.379 165.731 241.355 165.176 239.904 164.6C237.963 163.811 236.587 163.021 235.776 162.232C234.965 161.421 234.56 160.493 234.56 159.448C234.56 158.083 235.093 156.995 236.16 156.184C237.248 155.373 238.699 154.968 240.512 154.968C241.387 154.968 242.293 155.075 243.232 155.288C244.171 155.48 245.045 155.757 245.856 156.12L246.368 160.376L245.824 160.536C245.099 159.107 244.245 158.019 243.264 157.272C242.283 156.504 241.237 156.12 240.128 156.12C239.275 156.12 238.603 156.333 238.112 156.76C237.643 157.165 237.408 157.709 237.408 158.392C237.408 159.096 237.707 159.704 238.304 160.216C238.901 160.707 239.947 161.251 241.44 161.848C243.403 162.637 244.768 163.405 245.536 164.152C246.325 164.899 246.72 165.816 246.72 166.904C246.72 167.885 246.453 168.76 245.92 169.528C245.408 170.296 244.683 170.904 243.744 171.352C242.827 171.779 241.749 171.992 240.512 171.992C239.659 171.992 238.752 171.875 237.792 171.64C236.832 171.427 235.872 171.107 234.912 170.68L234.4 166.424L234.944 166.264C235.669 167.715 236.555 168.845 237.6 169.656C238.667 170.445 239.787 170.84 240.96 170.84C241.877 170.84 242.592 170.605 243.104 170.136C243.616 169.667 243.872 169.037 243.872 168.248ZM259.059 168.248C259.059 167.459 258.761 166.797 258.163 166.264C257.566 165.731 256.542 165.176 255.091 164.6C253.15 163.811 251.774 163.021 250.963 162.232C250.153 161.421 249.747 160.493 249.747 159.448C249.747 158.083 250.281 156.995 251.347 156.184C252.435 155.373 253.886 154.968 255.699 154.968C256.574 154.968 257.481 155.075 258.419 155.288C259.358 155.48 260.233 155.757 261.043 156.12L261.555 160.376L261.011 160.536C260.286 159.107 259.433 158.019 258.451 157.272C257.47 156.504 256.425 156.12 255.315 156.12C254.462 156.12 253.79 156.333 253.299 156.76C252.83 157.165 252.595 157.709 252.595 158.392C252.595 159.096 252.894 159.704 253.491 160.216C254.089 160.707 255.134 161.251 256.627 161.848C258.59 162.637 259.955 163.405 260.723 164.152C261.513 164.899 261.907 165.816 261.907 166.904C261.907 167.885 261.641 168.76 261.107 169.528C260.595 170.296 259.87 170.904 258.931 171.352C258.014 171.779 256.937 171.992 255.699 171.992C254.846 171.992 253.939 171.875 252.979 171.64C252.019 171.427 251.059 171.107 250.099 170.68L249.587 166.424L250.131 166.264C250.857 167.715 251.742 168.845 252.787 169.656C253.854 170.445 254.974 170.84 256.147 170.84C257.065 170.84 257.779 170.605 258.291 170.136C258.803 169.667 259.059 169.037 259.059 168.248ZM265.895 151.96C265.746 150.893 265.863 150.051 266.247 149.432C266.631 148.813 267.25 148.504 268.103 148.504C268.956 148.504 269.575 148.813 269.959 149.432C270.364 150.051 270.482 150.893 270.311 151.96L268.423 164.888H267.783L265.895 151.96ZM265.927 169.592C265.927 168.952 266.13 168.429 266.535 168.024C266.962 167.597 267.495 167.384 268.135 167.384C268.775 167.384 269.298 167.597 269.703 168.024C270.13 168.429 270.343 168.952 270.343 169.592C270.343 170.232 270.13 170.765 269.703 171.192C269.298 171.597 268.775 171.8 268.135 171.8C267.495 171.8 266.962 171.597 266.535 171.192C266.13 170.765 265.927 170.232 265.927 169.592Z" fill="white"/>
</svg>
