<svg width="140" height="16" viewBox="0 0 140 16" fill="none" xmlns="http://www.w3.org/2000/svg">
<path d="M135.062 11.9944V4.19495L136.243 4.07065L136.368 4.78535C137.051 4.2053 137.781 3.91528 138.558 3.91528C138.797 3.91528 139.035 3.95153 139.273 4.02404V5.22038C139.024 5.15823 138.771 5.12716 138.512 5.12716C137.766 5.12716 137.103 5.36021 136.523 5.82632V11.9944H135.062Z" fill="white"/>
<path d="M129.583 11.0778C130.308 11.0778 130.831 10.8395 131.152 10.3631C131.483 9.88662 131.649 9.11495 131.649 8.04809C131.649 6.98123 131.483 6.20956 131.152 5.7331C130.831 5.25664 130.308 5.01841 129.583 5.01841C128.858 5.01841 128.329 5.25664 127.998 5.7331C127.677 6.20956 127.516 6.98123 127.516 8.04809C127.516 9.11495 127.677 9.88662 127.998 10.3631C128.329 10.8395 128.858 11.0778 129.583 11.0778ZM129.583 12.2275C128.402 12.2275 127.506 11.8753 126.895 11.171C126.294 10.4563 125.994 9.41533 125.994 8.04809C125.994 6.68085 126.294 5.64506 126.895 4.94072C127.506 4.22603 128.402 3.86868 129.583 3.86868C130.763 3.86868 131.654 4.22603 132.255 4.94072C132.866 5.64506 133.172 6.68085 133.172 8.04809C133.172 9.41533 132.866 10.4563 132.255 11.171C131.654 11.8753 130.763 12.2275 129.583 12.2275Z" fill="white"/>
<path d="M121.521 11.9944V5.15823H120.34V4.16387L121.521 4.11726V2.57912C121.521 1.76084 121.733 1.12901 122.158 0.68362C122.583 0.227873 123.189 0 123.976 0C124.432 0 124.898 0.0828625 125.374 0.248589V1.28956C124.95 1.17562 124.587 1.11865 124.287 1.11865C123.417 1.11865 122.982 1.57958 122.982 2.50143V4.10173H124.986V5.15823H122.982V11.9944H121.521Z" fill="white"/>
<path d="M108.883 14.2628C109.38 14.18 109.789 14.0608 110.11 13.9055C110.442 13.7501 110.732 13.5274 110.98 13.2374C111.229 12.9474 111.467 12.5589 111.695 12.0721L108.728 4.10173H110.281L112.41 10.4252L114.538 4.10173H116.03L113.171 11.6992C112.86 12.5279 112.539 13.1908 112.208 13.688C111.876 14.1955 111.483 14.5891 111.027 14.8688C110.571 15.1588 109.97 15.3815 109.225 15.5368L108.883 14.2628Z" fill="white"/>
<path d="M106.364 12.0255L106.271 11.4817C105.4 11.9789 104.556 12.2275 103.738 12.2275C102.92 12.2275 102.267 12.01 101.78 11.575C101.304 11.1296 101.066 10.534 101.066 9.78822C101.066 9.01138 101.335 8.41062 101.874 7.98594C102.412 7.55091 103.168 7.3334 104.142 7.3334C104.712 7.3334 105.369 7.40072 106.115 7.53538V6.71192C106.115 6.14224 105.949 5.71756 105.618 5.4379C105.297 5.15824 104.8 5.01841 104.126 5.01841C103.339 5.01841 102.48 5.19967 101.547 5.56219V4.42801C101.982 4.25192 102.454 4.11727 102.961 4.02405C103.469 3.92047 103.95 3.86868 104.406 3.86868C105.432 3.86868 106.208 4.10691 106.737 4.58337C107.275 5.05984 107.545 5.759 107.545 6.68085V11.9012L106.364 12.0255ZM104.111 11.0933C104.411 11.0933 104.748 11.0415 105.121 10.9379C105.494 10.8344 105.825 10.6997 106.115 10.534V8.54527C105.628 8.42097 105.053 8.35883 104.391 8.35883C103.769 8.35883 103.308 8.47794 103.008 8.71618C102.718 8.94405 102.573 9.29104 102.573 9.75714C102.573 10.6479 103.085 11.0933 104.111 11.0933Z" fill="white"/>
<path d="M97.677 11.9944V0.326267L99.1375 0.155365V11.9944H97.677Z" fill="white"/>
<path d="M88.877 15.5058V4.19495L90.0578 4.07066L90.151 4.61445C90.9692 4.11727 91.7616 3.86868 92.5281 3.86868C93.5432 3.86868 94.3356 4.23121 94.9053 4.95626C95.4853 5.67096 95.7753 6.66013 95.7753 7.9238C95.7753 9.29104 95.4387 10.3527 94.7654 11.1089C94.0922 11.8546 93.1444 12.2275 91.9222 12.2275C91.3318 12.2275 90.8035 12.155 90.3374 12.01V15.3349L88.877 15.5058ZM92.1863 5.01841C91.9066 5.01841 91.5959 5.0702 91.2541 5.17377C90.9226 5.267 90.6171 5.39647 90.3374 5.56219V10.9069C90.7724 11.0312 91.2334 11.0933 91.7202 11.0933C92.5695 11.0933 93.2014 10.8344 93.6157 10.3165C94.0404 9.79858 94.2527 9.01138 94.2527 7.95487C94.2527 6.99159 94.0766 6.26135 93.7244 5.76418C93.3826 5.267 92.8699 5.01841 92.1863 5.01841Z" fill="white"/>
<path d="M77.3784 10.5495C78.207 10.9121 79.0357 11.0933 79.8643 11.0933C80.4651 11.0933 80.9208 10.9794 81.2316 10.7515C81.5527 10.5236 81.7132 10.1974 81.7132 9.77268C81.7132 9.49302 81.6252 9.26515 81.4491 9.08906C81.273 8.91298 80.983 8.76279 80.579 8.63849L79.5225 8.31222C78.8182 8.0947 78.3055 7.81504 77.9844 7.47323C77.6633 7.13142 77.5027 6.69639 77.5027 6.16813C77.5027 5.4638 77.7772 4.90447 78.3262 4.49015C78.8751 4.07584 79.6157 3.86868 80.5479 3.86868C81.3351 3.86868 82.0861 4.02405 82.8008 4.33479V5.45344C82.0136 5.15306 81.2937 5.00287 80.6412 5.00287C80.1129 5.00287 79.6986 5.10645 79.3982 5.31361C79.1082 5.51041 78.9632 5.77971 78.9632 6.12152C78.9632 6.37011 79.0409 6.56691 79.1962 6.71192C79.3516 6.84657 79.6416 6.98123 80.0663 7.11588L81.2471 7.47323C82.5315 7.85647 83.1737 8.61778 83.1737 9.75714C83.1737 10.5547 82.8992 11.1658 82.3502 11.5905C81.8012 12.0152 81.0089 12.2275 79.9731 12.2275C79.0098 12.2275 78.2019 12.067 77.5493 11.7459L77.3784 10.5495Z" fill="white"/>
<path d="M74.3873 12.0255L74.294 11.4817C73.4447 11.9789 72.6005 12.2275 71.7615 12.2275C70.9225 12.2275 70.27 11.9996 69.8039 11.5439C69.3378 11.0881 69.1047 10.4511 69.1047 9.63285V4.10173H70.5652V9.41533C70.5652 10.5236 71.0986 11.0778 72.1655 11.0778C72.4659 11.0778 72.7921 11.0312 73.1443 10.9379C73.4965 10.8344 73.8176 10.6997 74.1076 10.534V4.10173H75.5681V11.9012L74.3873 12.0255Z" fill="white"/>
<path d="M63.7179 11.0778C64.443 11.0778 64.966 10.8395 65.2871 10.3631C65.6186 9.88662 65.7843 9.11495 65.7843 8.04809C65.7843 6.98123 65.6186 6.20956 65.2871 5.7331C64.966 5.25664 64.443 5.01841 63.7179 5.01841C62.9929 5.01841 62.4646 5.25664 62.1332 5.7331C61.8121 6.20956 61.6515 6.98123 61.6515 8.04809C61.6515 9.11495 61.8121 9.88662 62.1332 10.3631C62.4646 10.8395 62.9929 11.0778 63.7179 11.0778ZM63.7179 12.2275C62.5371 12.2275 61.6412 11.8753 61.03 11.171C60.4293 10.4563 60.1289 9.41533 60.1289 8.04809C60.1289 6.68085 60.4293 5.64506 61.03 4.94072C61.6412 4.22603 62.5371 3.86868 63.7179 3.86868C64.8987 3.86868 65.7895 4.22603 66.3903 4.94072C67.0014 5.64506 67.3069 6.68085 67.3069 8.04809C67.3069 9.41533 67.0014 10.4563 66.3903 11.171C65.7895 11.8753 64.8987 12.2275 63.7179 12.2275Z" fill="white"/>
<path d="M56.7714 11.9944V4.22602L58.2318 4.05512V11.9944H56.7714ZM57.5016 2.4859C57.2012 2.4859 56.963 2.40821 56.7869 2.25285C56.6212 2.08712 56.5383 1.86443 56.5383 1.58476C56.5383 1.3051 56.6212 1.08758 56.7869 0.932213C56.963 0.766486 57.2012 0.683624 57.5016 0.683624C57.802 0.683624 58.035 0.766486 58.2008 0.932213C58.3769 1.08758 58.4649 1.3051 58.4649 1.58476C58.4649 1.86443 58.3769 2.08712 58.2008 2.25285C58.035 2.40821 57.802 2.4859 57.5016 2.4859Z" fill="white"/>
<path d="M51.0969 11.9944V4.19495L52.2777 4.07065L52.402 4.78535C53.0856 4.2053 53.8159 3.91528 54.5927 3.91528C54.8309 3.91528 55.0692 3.95153 55.3074 4.02404V5.22038C55.0588 5.15823 54.805 5.12716 54.5461 5.12716C53.8003 5.12716 53.1374 5.36021 52.5574 5.82632V11.9944H51.0969Z" fill="white"/>
<path d="M48.8373 11.6993C48.1226 12.0514 47.3251 12.2275 46.4446 12.2275C45.1603 12.2275 44.1814 11.8702 43.5082 11.1555C42.8349 10.4408 42.4983 9.39462 42.4983 8.01702C42.4983 7.16767 42.6485 6.43226 42.9489 5.81079C43.2492 5.17896 43.6687 4.69731 44.2073 4.36586C44.746 4.03441 45.3622 3.86868 46.0562 3.86868C47.0299 3.86868 47.7964 4.1587 48.3557 4.73874C48.915 5.31878 49.1947 6.12152 49.1947 7.14695C49.1947 7.55091 49.1584 7.94969 49.0859 8.34329H43.9432C43.9743 10.1766 44.8651 11.0933 46.6156 11.0933C47.3717 11.0933 48.1123 10.9276 48.8373 10.5961V11.6993ZM46.0562 4.94072C45.4555 4.94072 44.9635 5.15306 44.5802 5.57773C44.2073 6.00241 43.995 6.57727 43.9432 7.30232H47.843C47.8533 7.25053 47.8585 7.19874 47.8585 7.14695C47.8585 7.09516 47.8585 7.04337 47.8585 6.99158C47.8585 6.3494 47.698 5.84704 47.3769 5.48451C47.0661 5.12199 46.6259 4.94072 46.0562 4.94072Z" fill="white"/>
<path d="M35.3501 10.5495C36.1787 10.9121 37.0074 11.0933 37.836 11.0933C38.4368 11.0933 38.8925 10.9794 39.2032 10.7515C39.5243 10.5236 39.6849 10.1974 39.6849 9.77268C39.6849 9.49302 39.5968 9.26515 39.4208 9.08906C39.2447 8.91298 38.9546 8.76279 38.5507 8.63849L37.4942 8.31222C36.7898 8.0947 36.2771 7.81504 35.956 7.47323C35.6349 7.13142 35.4744 6.69639 35.4744 6.16813C35.4744 5.4638 35.7489 4.90447 36.2978 4.49015C36.8468 4.07584 37.5874 3.86868 38.5196 3.86868C39.3068 3.86868 40.0578 4.02405 40.7725 4.33479V5.45344C39.9853 5.15306 39.2654 5.00287 38.6128 5.00287C38.0846 5.00287 37.6703 5.10645 37.3699 5.31361C37.0799 5.51041 36.9349 5.77971 36.9349 6.12152C36.9349 6.37011 37.0125 6.56691 37.1679 6.71192C37.3233 6.84657 37.6133 6.98123 38.038 7.11588L39.2188 7.47323C40.5032 7.85647 41.1453 8.61778 41.1453 9.75714C41.1453 10.5547 40.8709 11.1658 40.3219 11.5905C39.7729 12.0152 38.9805 12.2275 37.9448 12.2275C36.9815 12.2275 36.1736 12.067 35.521 11.7459L35.3501 10.5495Z" fill="white"/>
<path d="M28.5581 12.0255L28.4649 11.4817C27.5948 11.9789 26.7506 12.2275 25.9323 12.2275C25.1141 12.2275 24.4615 12.01 23.9747 11.575C23.4982 11.1296 23.26 10.534 23.26 9.78822C23.26 9.01138 23.5293 8.41062 24.0679 7.98594C24.6065 7.55091 25.3627 7.3334 26.3363 7.3334C26.906 7.3334 27.5637 7.40072 28.3095 7.53538V6.71192C28.3095 6.14224 28.1438 5.71756 27.8123 5.4379C27.4912 5.15824 26.994 5.01841 26.3208 5.01841C25.5336 5.01841 24.6739 5.19967 23.7417 5.56219V4.42801C24.1767 4.25192 24.648 4.11727 25.1555 4.02405C25.663 3.92047 26.1447 3.86868 26.6004 3.86868C27.6259 3.86868 28.4027 4.10691 28.931 4.58337C29.4696 5.05984 29.7389 5.759 29.7389 6.68085V11.9012L28.5581 12.0255ZM26.3052 11.0933C26.6056 11.0933 26.9422 11.0415 27.3151 10.9379C27.688 10.8344 28.0195 10.6997 28.3095 10.534V8.54527C27.8227 8.42097 27.2478 8.35883 26.5849 8.35883C25.9634 8.35883 25.5025 8.47794 25.2021 8.71618C24.9121 8.94405 24.7671 9.29104 24.7671 9.75714C24.7671 10.6479 25.2798 11.0933 26.3052 11.0933Z" fill="white"/>
<path d="M12.1965 10.5495C13.0252 10.9121 13.8538 11.0933 14.6824 11.0933C15.2832 11.0933 15.7389 10.9794 16.0497 10.7515C16.3708 10.5236 16.5313 10.1974 16.5313 9.77268C16.5313 9.49302 16.4433 9.26515 16.2672 9.08906C16.0911 8.91298 15.8011 8.76279 15.3971 8.63849L14.3406 8.31222C13.6363 8.0947 13.1236 7.81504 12.8025 7.47323C12.4814 7.13142 12.3208 6.69639 12.3208 6.16813C12.3208 5.4638 12.5953 4.90447 13.1443 4.49015C13.6932 4.07584 14.4338 3.86868 15.366 3.86868C16.1532 3.86868 16.9042 4.02405 17.6189 4.33479V5.45344C16.8317 5.15306 16.1118 5.00287 15.4593 5.00287C14.931 5.00287 14.5167 5.10645 14.2163 5.31361C13.9263 5.51041 13.7813 5.77971 13.7813 6.12152C13.7813 6.37011 13.859 6.56691 14.0143 6.71192C14.1697 6.84657 14.4597 6.98123 14.8844 7.11588L16.0652 7.47323C17.3496 7.85647 17.9918 8.61778 17.9918 9.75714C17.9918 10.5547 17.7173 11.1658 17.1683 11.5905C16.6194 12.0152 15.827 12.2275 14.7912 12.2275C13.8279 12.2275 13.02 12.067 12.3674 11.7459L12.1965 10.5495Z" fill="white"/>
<path d="M8.92896 4.9718C9.25005 4.60927 9.509 4.21567 9.7058 3.791C9.9026 3.35596 10.0062 2.94683 10.0165 2.56359C9.80938 2.5118 9.64365 2.40822 9.51935 2.25285C9.40542 2.08712 9.34845 1.8955 9.34845 1.67799C9.34845 1.40868 9.43649 1.18599 9.61258 1.0099C9.79902 0.833819 10.0269 0.745773 10.2962 0.745773C10.5759 0.745773 10.7986 0.849353 10.9643 1.05651C11.1404 1.26367 11.2284 1.54851 11.2284 1.91104C11.2284 2.28392 11.1404 2.68788 10.9643 3.12291C10.7882 3.54759 10.5551 3.94636 10.2651 4.31925C9.98546 4.69213 9.6799 5.00287 9.34845 5.25146L8.92896 4.9718Z" fill="white"/>
<path d="M5.86343 5.15823V9.69499C5.86343 10.1611 5.96701 10.5081 6.17417 10.736C6.38133 10.9535 6.69724 11.0622 7.12192 11.0622C7.44301 11.0622 7.78482 11.0053 8.14735 10.8913V11.9323C7.71232 12.098 7.26175 12.1809 6.79564 12.1809C6.00844 12.1809 5.41286 11.9737 5.0089 11.5594C4.60495 11.1451 4.40297 10.5392 4.40297 9.7416V5.15823H3.22217V4.16388L4.46512 4.11727L4.57387 2.14409L5.86343 2.00426V4.10173H8.06966V5.15823H5.86343Z" fill="white"/>
<path d="M0 11.9944V1.11865H1.50707V11.9944H0Z" fill="white"/>
</svg>
