<svg width="159" height="13" viewBox="0 0 159 13" fill="none" xmlns="http://www.w3.org/2000/svg">
<path d="M152.424 12.2395V0.571303L153.884 0.400398V4.75071C154.682 4.32604 155.464 4.1137 156.23 4.1137C157.09 4.1137 157.753 4.34158 158.219 4.79732C158.695 5.24271 158.934 5.87973 158.934 6.70836V12.2395H157.473V6.92587C157.473 5.81758 156.924 5.26343 155.826 5.26343C155.536 5.26343 155.21 5.31522 154.847 5.4188C154.495 5.51202 154.174 5.64149 153.884 5.80722V12.2395H152.424Z" fill="white"/>
<path d="M144.809 10.7945C145.638 11.1571 146.467 11.3383 147.295 11.3383C147.896 11.3383 148.352 11.2244 148.662 10.9965C148.984 10.7686 149.144 10.4424 149.144 10.0177C149.144 9.73804 149.056 9.51016 148.88 9.33408C148.704 9.158 148.414 9.00781 148.01 8.88351L146.953 8.55724C146.249 8.33972 145.736 8.06006 145.415 7.71825C145.094 7.37644 144.934 6.94141 144.934 6.41315C144.934 5.70882 145.208 5.14949 145.757 4.73517C146.306 4.32086 147.047 4.1137 147.979 4.1137C148.766 4.1137 149.517 4.26907 150.232 4.57981V5.69846C149.444 5.39808 148.725 5.24789 148.072 5.24789C147.544 5.24789 147.129 5.35147 146.829 5.55863C146.539 5.75543 146.394 6.02473 146.394 6.36654C146.394 6.61513 146.472 6.81193 146.627 6.95694C146.783 7.0916 147.073 7.22625 147.497 7.3609L148.678 7.71825C149.962 8.10149 150.605 8.8628 150.605 10.0022C150.605 10.7997 150.33 11.4108 149.781 11.8355C149.232 12.2602 148.44 12.4725 147.404 12.4725C146.441 12.4725 145.633 12.312 144.98 11.9909L144.809 10.7945Z" fill="white"/>
<path d="M141.902 12.2705L141.808 11.7268C140.938 12.2239 140.094 12.4725 139.276 12.4725C138.458 12.4725 137.805 12.255 137.318 11.82C136.842 11.3746 136.604 10.779 136.604 10.0332C136.604 9.2564 136.873 8.65564 137.411 8.23096C137.95 7.79593 138.706 7.57842 139.68 7.57842C140.249 7.57842 140.907 7.64574 141.653 7.7804V6.95694C141.653 6.38726 141.487 5.96258 141.156 5.68292C140.835 5.40326 140.338 5.26343 139.664 5.26343C138.877 5.26343 138.017 5.44469 137.085 5.80722V4.67303C137.52 4.49694 137.991 4.36229 138.499 4.26907C139.007 4.16549 139.488 4.1137 139.944 4.1137C140.969 4.1137 141.746 4.35193 142.274 4.82839C142.813 5.30486 143.082 6.00402 143.082 6.92587V12.1462L141.902 12.2705ZM139.649 11.3383C139.949 11.3383 140.286 11.2865 140.659 11.183C141.032 11.0794 141.363 10.9447 141.653 10.779V8.79029C141.166 8.666 140.591 8.60385 139.928 8.60385C139.307 8.60385 138.846 8.72296 138.546 8.9612C138.256 9.18907 138.111 9.53606 138.111 10.0022C138.111 10.8929 138.623 11.3383 139.649 11.3383Z" fill="white"/>
<path d="M135.24 11.9598C134.525 12.3016 133.733 12.4725 132.863 12.4725C131.724 12.4725 130.843 12.11 130.222 11.3849C129.6 10.6599 129.29 9.63446 129.29 8.30865C129.29 6.97248 129.6 5.94187 130.222 5.21682C130.854 4.48141 131.739 4.1137 132.879 4.1137C133.676 4.1137 134.448 4.28461 135.194 4.62642V5.74507C134.479 5.43433 133.795 5.27896 133.143 5.27896C132.376 5.27896 131.796 5.53273 131.403 6.04027C131.009 6.54781 130.812 7.29875 130.812 8.29311C130.812 9.27711 131.009 10.0281 131.403 10.546C131.796 11.0535 132.376 11.3073 133.143 11.3073C133.795 11.3073 134.494 11.1519 135.24 10.8412V11.9598Z" fill="white"/>
<path d="M114.096 12.2395L119.674 1.59674H120.964L115.386 12.2395H114.096ZM113.475 7.42305C113.931 7.42305 114.262 7.22625 114.469 6.83265C114.677 6.4287 114.78 5.78133 114.78 4.89055C114.78 3.99977 114.677 3.35758 114.469 2.96398C114.262 2.56002 113.931 2.35804 113.475 2.35804C113.019 2.35804 112.688 2.56002 112.481 2.96398C112.274 3.35758 112.17 3.99977 112.17 4.89055C112.17 5.78133 112.274 6.4287 112.481 6.83265C112.688 7.22625 113.019 7.42305 113.475 7.42305ZM113.475 8.33973C112.636 8.33973 111.994 8.04453 111.548 7.45413C111.103 6.85337 110.88 5.99884 110.88 4.89055C110.88 3.78225 111.103 2.93291 111.548 2.34251C111.994 1.74175 112.636 1.44137 113.475 1.44137C114.314 1.44137 114.956 1.74175 115.402 2.34251C115.847 2.93291 116.07 3.78225 116.07 4.89055C116.07 5.99884 115.847 6.85337 115.402 7.45413C114.956 8.04453 114.314 8.33973 113.475 8.33973ZM121.585 11.4782C122.041 11.4782 122.372 11.2814 122.58 10.8878C122.787 10.4838 122.89 9.83644 122.89 8.94566C122.89 8.05488 122.787 7.41269 122.58 7.01909C122.372 6.61514 122.041 6.41316 121.585 6.41316C121.13 6.41316 120.798 6.61514 120.591 7.01909C120.384 7.41269 120.28 8.05488 120.28 8.94566C120.28 9.83644 120.384 10.4838 120.591 10.8878C120.798 11.2814 121.13 11.4782 121.585 11.4782ZM121.585 12.3948C120.746 12.3948 120.104 12.0996 119.659 11.5092C119.213 10.9085 118.991 10.054 118.991 8.94566C118.991 7.83737 119.213 6.98802 119.659 6.39762C120.104 5.79686 120.746 5.49648 121.585 5.49648C122.424 5.49648 123.066 5.79686 123.512 6.39762C123.957 6.98802 124.18 7.83737 124.18 8.94566C124.18 10.054 123.957 10.9085 123.512 11.5092C123.066 12.0996 122.424 12.3948 121.585 12.3948Z" fill="white"/>
<path d="M102.956 12.2395C102.977 11.3073 103.163 10.4993 103.516 9.81572C103.878 9.1321 104.484 8.43294 105.333 7.71825L106.639 6.61513C107.167 6.16974 107.545 5.77096 107.773 5.41879C108.001 5.06663 108.115 4.7041 108.115 4.33122C108.115 3.78225 107.913 3.34722 107.509 3.02612C107.115 2.70503 106.576 2.54448 105.893 2.54448C105.002 2.54448 104.132 2.85522 103.283 3.47669V2.28035C104.122 1.66924 105.111 1.36368 106.25 1.36368C106.923 1.36368 107.514 1.49315 108.021 1.7521C108.539 2.00069 108.938 2.34768 109.218 2.79307C109.497 3.2281 109.637 3.71492 109.637 4.25353C109.637 4.79214 109.492 5.29968 109.202 5.77614C108.922 6.24225 108.441 6.76532 107.757 7.34536L106.514 8.40187C105.934 8.89905 105.494 9.35479 105.194 9.76911C104.893 10.1834 104.702 10.5977 104.619 11.0121H108.223C108.824 11.0121 109.342 10.9965 109.777 10.9654V12.2395H102.956Z" fill="white"/>
<path d="M97.5431 0.400398V12.1463L96.3623 12.2705L96.2691 11.7268C95.4508 12.2239 94.6585 12.4725 93.892 12.4725C92.8769 12.4725 92.0793 12.1152 91.4993 11.4005C90.9296 10.6754 90.6448 9.68107 90.6448 8.41741C90.6448 7.05017 90.9814 5.99366 91.6547 5.24789C92.3279 4.49177 93.2757 4.1137 94.4979 4.1137C95.0883 4.1137 95.6166 4.18621 96.0827 4.33122V0.571303L97.5431 0.400398ZM94.2338 11.3228C94.5135 11.3228 94.819 11.2762 95.1505 11.183C95.4923 11.0794 95.803 10.9447 96.0827 10.779V5.43433C95.6476 5.31004 95.1867 5.24789 94.6999 5.24789C93.8506 5.24789 93.2135 5.50684 92.7889 6.02474C92.3745 6.54263 92.1674 7.32983 92.1674 8.38634C92.1674 9.34962 92.3383 10.0799 92.6801 10.577C93.0323 11.0742 93.5502 11.3228 94.2338 11.3228Z" fill="white"/>
<path d="M88.8512 11.9443C88.1365 12.2964 87.339 12.4725 86.4586 12.4725C85.1742 12.4725 84.1954 12.1152 83.5221 11.4005C82.8488 10.6858 82.5122 9.63964 82.5122 8.26204C82.5122 7.41269 82.6624 6.67728 82.9628 6.05581C83.2632 5.42397 83.6826 4.94233 84.2213 4.61088C84.7599 4.27943 85.3762 4.1137 86.0701 4.1137C87.0438 4.1137 87.8103 4.40372 88.3696 4.98376C88.9289 5.56381 89.2086 6.36654 89.2086 7.39197C89.2086 7.79593 89.1723 8.19471 89.0998 8.58831H83.9571C83.9882 10.4217 84.879 11.3383 86.6295 11.3383C87.3856 11.3383 88.1262 11.1726 88.8512 10.8412V11.9443ZM86.0701 5.18574C85.4694 5.18574 84.9774 5.39808 84.5941 5.82275C84.2213 6.24743 84.0089 6.82229 83.9571 7.54734H87.8569C87.8672 7.49555 87.8724 7.44376 87.8724 7.39197C87.8724 7.34019 87.8724 7.2884 87.8724 7.23661C87.8724 6.59442 87.7119 6.09206 87.3908 5.72953C87.08 5.36701 86.6398 5.18574 86.0701 5.18574Z" fill="white"/>
<path d="M79.1359 5.40326V9.94002C79.1359 10.4061 79.2395 10.7531 79.4466 10.981C79.6538 11.1985 79.9697 11.3073 80.3944 11.3073C80.7155 11.3073 81.0573 11.2503 81.4198 11.1364V12.1773C80.9848 12.3431 80.5342 12.4259 80.0681 12.4259C79.2809 12.4259 78.6853 12.2188 78.2814 11.8044C77.8774 11.3901 77.6754 10.7842 77.6754 9.98663V5.40326H76.4946V4.4089L77.7376 4.36229L77.8463 2.38911L79.1359 2.24928V4.34676H81.3421V5.40326H79.1359Z" fill="white"/>
<path d="M73.5255 12.2395V4.47105L74.986 4.30014V12.2395H73.5255ZM74.2558 2.73092C73.9554 2.73092 73.7172 2.65324 73.5411 2.49787C73.3753 2.33215 73.2925 2.10945 73.2925 1.82979C73.2925 1.55012 73.3753 1.33261 73.5411 1.17724C73.7172 1.01151 73.9554 0.92865 74.2558 0.92865C74.5561 0.92865 74.7892 1.01151 74.9549 1.17724C75.131 1.33261 75.219 1.55012 75.219 1.82979C75.219 2.10945 75.131 2.33215 74.9549 2.49787C74.7892 2.65324 74.5561 2.73092 74.2558 2.73092Z" fill="white"/>
<path d="M69.7992 12.2395V6.75496C69.7992 5.76061 69.3175 5.26343 68.3542 5.26343C67.7742 5.26343 67.1631 5.45505 66.5209 5.83829C66.5727 6.06616 66.5986 6.29404 66.5986 6.52191V12.2395H65.1381V6.75496C65.1381 5.76061 64.6565 5.26343 63.6932 5.26343C63.1235 5.26343 62.5383 5.44469 61.9375 5.80722V12.2395H60.4771V4.43997L61.6578 4.31568L61.7511 4.85947C62.5486 4.36229 63.3306 4.1137 64.0971 4.1137C64.9879 4.1137 65.6612 4.39854 66.1169 4.96823C67.0491 4.39854 67.9296 4.1137 68.7582 4.1137C69.535 4.1137 70.1461 4.32604 70.5915 4.75071C71.0369 5.17539 71.2596 5.76578 71.2596 6.52191V12.2395H69.7992Z" fill="white"/>
<path d="M56.6537 12.2395V4.47105L58.1142 4.30014V12.2395H56.6537ZM57.3839 2.73092C57.0836 2.73092 56.8453 2.65324 56.6692 2.49787C56.5035 2.33215 56.4207 2.10945 56.4207 1.82979C56.4207 1.55012 56.5035 1.33261 56.6692 1.17724C56.8453 1.01151 57.0836 0.92865 57.3839 0.92865C57.6843 0.92865 57.9174 1.01151 58.0831 1.17724C58.2592 1.33261 58.3472 1.55012 58.3472 1.82979C58.3472 2.10945 58.2592 2.33215 58.0831 2.49787C57.9174 2.65324 57.6843 2.73092 57.3839 2.73092Z" fill="white"/>
<path d="M52.8301 12.2395V0.571303L54.2905 0.400398V12.2395H52.8301Z" fill="white"/>
<path d="M49.0946 12.2395V6.92587C49.0946 5.81757 48.5457 5.26343 47.4477 5.26343C47.1577 5.26343 46.8314 5.31522 46.4689 5.4188C46.1167 5.51202 45.7956 5.64149 45.5056 5.80722V12.2395H44.0452V4.43997L45.226 4.31568L45.3192 4.85947C46.1685 4.36229 47.0127 4.1137 47.8517 4.1137C48.7114 4.1137 49.3743 4.34157 49.8404 4.79732C50.3169 5.24271 50.5551 5.87972 50.5551 6.70835V12.2395H49.0946Z" fill="white"/>
<path d="M40.5101 12.2705L40.4168 11.7268C39.5675 12.2239 38.7233 12.4725 37.8843 12.4725C37.0454 12.4725 36.3928 12.2447 35.9267 11.7889C35.4606 11.3332 35.2275 10.6961 35.2275 9.87787V4.34676H36.688V9.66036C36.688 10.7687 37.2214 11.3228 38.2883 11.3228C38.5887 11.3228 38.915 11.2762 39.2671 11.183C39.6193 11.0794 39.9404 10.9447 40.2304 10.779V4.34676H41.6909V12.1463L40.5101 12.2705Z" fill="white"/>
<path d="M27.7011 12.2395V6.92587C27.7011 5.81757 27.1521 5.26343 26.0542 5.26343C25.7642 5.26343 25.4379 5.31522 25.0754 5.4188C24.7232 5.51202 24.4021 5.64149 24.1121 5.80722V12.2395H22.6516V4.43997L23.8324 4.31568L23.9256 4.85947C24.775 4.36229 25.6191 4.1137 26.4581 4.1137C27.3178 4.1137 27.9807 4.34157 28.4469 4.79732C28.9233 5.24271 29.1615 5.87972 29.1615 6.70835V12.2395H27.7011Z" fill="white"/>
<path d="M16.9771 12.2395V4.43997L18.1579 4.31568L18.2821 5.03037C18.9658 4.45033 19.696 4.16031 20.4728 4.16031C20.7111 4.16031 20.9493 4.19656 21.1875 4.26907V5.4654C20.9389 5.40326 20.6852 5.37218 20.4262 5.37218C19.6805 5.37218 19.0176 5.60524 18.4375 6.07134V12.2395H16.9771Z" fill="white"/>
<path d="M13.5254 12.2705L13.4321 11.7268C12.5621 12.2239 11.7179 12.4725 10.8996 12.4725C10.0814 12.4725 9.42881 12.255 8.94199 11.82C8.46553 11.3746 8.22729 10.779 8.22729 10.0332C8.22729 9.2564 8.4966 8.65564 9.03521 8.23096C9.57382 7.79593 10.3299 7.57842 11.3036 7.57842C11.8733 7.57842 12.531 7.64574 13.2768 7.7804V6.95694C13.2768 6.38726 13.111 5.96258 12.7796 5.68292C12.4585 5.40326 11.9613 5.26343 11.2881 5.26343C10.5009 5.26343 9.64115 5.44469 8.70894 5.80722V4.67303C9.14397 4.49694 9.61525 4.36229 10.1228 4.26907C10.6303 4.16549 11.112 4.1137 11.5677 4.1137C12.5931 4.1137 13.37 4.35193 13.8982 4.82839C14.4369 5.30486 14.7062 6.00402 14.7062 6.92587V12.1462L13.5254 12.2705ZM11.2725 11.3383C11.5729 11.3383 11.9095 11.2865 12.2824 11.183C12.6553 11.0794 12.9867 10.9447 13.2768 10.779V8.79029C12.7899 8.666 12.2151 8.60385 11.5522 8.60385C10.9307 8.60385 10.4698 8.72296 10.1694 8.9612C9.87938 9.18907 9.73437 9.53606 9.73437 10.0022C9.73437 10.8929 10.2471 11.3383 11.2725 11.3383Z" fill="white"/>
<path d="M1.88989 7.34536V10.9965H7.01704V12.2395H0.382812V1.36368H6.98597V2.60663H1.88989V6.10242H6.33342V7.34536H1.88989Z" fill="white"/>
</svg>
