<svg width="264" height="47" viewBox="0 0 264 47" fill="none" xmlns="http://www.w3.org/2000/svg">
<path d="M260.247 36.3825C259.183 36.3825 258.292 36.0208 257.572 35.2972C256.853 34.5736 256.493 33.6771 256.493 32.6074C256.493 31.5064 256.853 30.6098 257.572 29.9177C258.292 29.1941 259.183 28.8323 260.247 28.8323C261.341 28.8323 262.233 29.1941 262.921 29.9177C263.64 30.6098 264 31.5064 264 32.6074C264 33.6771 263.64 34.5736 262.921 35.2972C262.233 36.0208 261.341 36.3825 260.247 36.3825Z" fill="#013D5B"/>
<path d="M246.801 16.3745V28.502C246.801 30.8615 247.912 32.0412 250.132 32.0412C250.946 32.0412 251.946 31.8681 253.135 31.5221V35.8163C251.759 36.4455 250.179 36.7601 248.396 36.7601C245.8 36.7601 243.83 36.0837 242.485 34.7309C241.14 33.3782 240.467 31.412 240.467 28.8323V16.3745H236.902V12.1275L240.796 11.9859L241.218 5.8986L246.801 5.28514V11.8916H252.994V16.3745H246.801Z" fill="#013D5B"/>
<path d="M228.039 36.241L227.664 34.6838C225.224 36.1309 222.784 36.8544 220.345 36.8544C217.842 36.8544 215.841 36.1623 214.339 34.7781C212.869 33.3939 212.134 31.5221 212.134 29.1627C212.134 26.7403 212.947 24.8528 214.574 23.5C216.232 22.1473 218.546 21.4709 221.518 21.4709C223.269 21.4709 225.052 21.6439 226.866 21.99V20.1024C226.866 18.6553 226.444 17.6014 225.599 16.9408C224.755 16.2487 223.441 15.9026 221.658 15.9026C219.281 15.9026 216.654 16.4374 213.776 17.507V12.8825C215.121 12.3477 216.607 11.923 218.233 11.6084C219.86 11.2938 221.392 11.1366 222.831 11.1366C226.147 11.1366 228.68 11.8916 230.432 13.4016C232.215 14.9117 233.106 17.0823 233.106 19.9137V35.7219L228.039 36.241ZM222.268 32.2771C222.956 32.2771 223.707 32.167 224.52 31.9468C225.365 31.7266 226.147 31.4435 226.866 31.0974V25.9538C225.427 25.6078 224.129 25.4348 222.972 25.4348C219.969 25.4348 218.468 26.5987 218.468 28.9267C218.468 30.0278 218.781 30.8615 219.406 31.4277C220.063 31.994 221.017 32.2771 222.268 32.2771Z" fill="#013D5B"/>
<path d="M192.518 12.8353C193.55 12.3005 194.598 11.8916 195.661 11.6084C196.756 11.2938 197.741 11.1365 198.617 11.1365C201.683 11.1365 204.075 12.2376 205.796 14.4398C207.547 16.6419 208.423 19.6934 208.423 23.5944C208.423 27.9043 207.313 31.1918 205.092 33.4568C202.902 35.7219 199.712 36.8544 195.521 36.8544C194.176 36.8544 192.643 36.7443 190.923 36.5241C189.234 36.3354 187.654 36.068 186.184 35.7219V0.613454L192.518 0V12.8353ZM196.834 16.0442C196.178 16.0442 195.443 16.17 194.629 16.4217C193.847 16.6419 193.144 16.9408 192.518 17.3183V31.8052C193.519 32.0255 194.551 32.1356 195.615 32.1356C197.71 32.1356 199.258 31.4592 200.259 30.1064C201.292 28.7222 201.808 26.5987 201.808 23.736C201.808 18.6081 200.15 16.0442 196.834 16.0442Z" fill="#013D5B"/>
<path d="M163.871 16.3745V28.502C163.871 30.8615 164.982 32.0412 167.203 32.0412C168.016 32.0412 169.017 31.8681 170.205 31.5221V35.8163C168.829 36.4455 167.249 36.7601 165.467 36.7601C162.871 36.7601 160.9 36.0837 159.555 34.7309C158.21 33.3782 157.538 31.412 157.538 28.8323V16.3745H153.972V12.1275L157.866 11.9859L158.288 5.8986L163.871 5.28514V11.8916H170.065V16.3745H163.871Z" fill="#013D5B"/>
<path d="M145.109 36.241L144.734 34.6838C142.294 36.1309 139.855 36.8544 137.415 36.8544C134.913 36.8544 132.911 36.1623 131.41 34.7781C129.939 33.3939 129.204 31.5221 129.204 29.1627C129.204 26.7403 130.018 24.8528 131.644 23.5C133.302 22.1473 135.616 21.4709 138.588 21.4709C140.339 21.4709 142.122 21.6439 143.936 21.99V20.1024C143.936 18.6553 143.514 17.6014 142.67 16.9408C141.825 16.2487 140.511 15.9026 138.729 15.9026C136.351 15.9026 133.724 16.4374 130.847 17.507V12.8825C132.191 12.3477 133.677 11.923 135.304 11.6084C136.93 11.2938 138.463 11.1366 139.902 11.1366C143.217 11.1366 145.751 11.8916 147.502 13.4016C149.285 14.9117 150.176 17.0823 150.176 19.9137V35.7219L145.109 36.241ZM139.339 32.2771C140.027 32.2771 140.777 32.167 141.591 31.9468C142.435 31.7266 143.217 31.4435 143.936 31.0974V25.9538C142.498 25.6078 141.2 25.4348 140.042 25.4348C137.04 25.4348 135.538 26.5987 135.538 28.9267C135.538 30.0278 135.851 30.8615 136.477 31.4277C137.133 31.994 138.087 32.2771 139.339 32.2771Z" fill="#013D5B"/>
<path d="M92.716 41.5733C94.9368 41.2902 96.6258 40.7711 97.7831 40.0161C98.9716 39.2925 99.9882 38.1757 100.833 36.6657L91.8246 11.8916H98.393L103.835 29.5873L109.043 11.8916H115.471L107.401 34.5894C106.463 37.2634 105.462 39.4026 104.398 41.007C103.335 42.6429 102.021 43.917 100.457 44.8293C98.9247 45.7731 96.8134 46.4967 94.1235 47L92.716 41.5733Z" fill="#013D5B"/>
<path d="M75.2141 36.0994V12.2691L80.2812 11.75L80.7973 13.9679C82.7678 12.1747 84.9416 11.2781 87.3187 11.2781C88.0694 11.2781 88.8514 11.3882 89.6646 11.6085V16.8464C88.7263 16.6262 87.8974 16.5161 87.178 16.5161C85.0198 16.5161 83.1431 17.1138 81.5479 18.3093V36.0994H75.2141Z" fill="#013D5B"/>
<path d="M69.1577 35.1556C66.8744 36.2882 64.3409 36.8544 61.5572 36.8544C57.4284 36.8544 54.2694 35.7534 52.0799 33.5512C49.8904 31.3491 48.7957 28.1402 48.7957 23.9247C48.7957 21.3451 49.2805 19.0957 50.2501 17.1767C51.251 15.2263 52.6116 13.7319 54.3319 12.6938C56.0522 11.6556 58.0227 11.1366 60.2435 11.1366C63.3713 11.1366 65.8266 12.0489 67.6095 13.8735C69.3923 15.6667 70.2837 18.1362 70.2837 21.2821C70.2837 22.7607 70.143 24.2078 69.8615 25.6235H55.0357C55.1608 27.8256 55.8333 29.4615 57.0531 30.5311C58.273 31.5693 60.0402 32.0884 62.3547 32.0884C64.7319 32.0884 66.9995 31.5693 69.1577 30.5311V35.1556ZM60.2435 15.5723C58.7734 15.5723 57.5692 16.0914 56.6309 17.1295C55.6925 18.1362 55.1451 19.5204 54.9888 21.2821H64.466V20.5743C64.466 18.9384 64.1063 17.6958 63.3869 16.8464C62.6675 15.997 61.6197 15.5723 60.2435 15.5723Z" fill="#013D5B"/>
<path d="M32.3769 36.0994L23.5565 11.8916H30.1249L35.4265 29.257L40.7751 11.8916H47.2027L38.3354 36.0994H32.3769Z" fill="#013D5B"/>
<path d="M20.3621 35.1556C18.0788 36.2882 15.5452 36.8544 12.7615 36.8544C8.63276 36.8544 5.47367 35.7534 3.2842 33.5512C1.09473 31.3491 0 28.1402 0 23.9247C0 21.3451 0.484811 19.0957 1.45443 17.1767C2.45533 15.2263 3.81593 13.7319 5.53623 12.6938C7.25652 11.6556 9.22704 11.1366 11.4478 11.1366C14.5756 11.1366 17.0309 12.0489 18.8138 13.8735C20.5966 15.6667 21.4881 18.1362 21.4881 21.2821C21.4881 22.7607 21.3473 24.2078 21.0658 25.6235H6.23998C6.3651 27.8256 7.03758 29.4615 8.25742 30.5311C9.47727 31.5693 11.2445 32.0884 13.5591 32.0884C15.9362 32.0884 18.2039 31.5693 20.3621 30.5311V35.1556ZM11.4478 15.5723C9.97772 15.5723 8.77351 16.0914 7.83517 17.1295C6.89682 18.1362 6.34946 19.5204 6.19307 21.2821H15.6703V20.5743C15.6703 18.9384 15.3106 17.6958 14.5912 16.8464C13.8718 15.997 12.824 15.5723 11.4478 15.5723Z" fill="#013D5B"/>
</svg>
