<svg width="46" height="29" viewBox="0 0 46 29" fill="none" xmlns="http://www.w3.org/2000/svg">
<path fill-rule="evenodd" clip-rule="evenodd" d="M10.771 10.3482H17.001C22.5975 10.3482 26.1877 13.8328 26.1877 19.3236C26.1877 24.8145 22.2807 28.2991 15.9451 28.2991H10.8766V10.3482H10.771ZM16.5786 14.4663H15.6283V24.1809C18.7961 24.1809 21.2248 22.9138 21.2248 19.218C21.2248 15.5223 19.2185 14.4663 16.5786 14.4663Z" fill="white"/>
<path fill-rule="evenodd" clip-rule="evenodd" d="M45.4053 15.5223V10.7706C44.1381 10.2426 42.7654 9.92581 41.4983 9.92581C36.3242 9.92581 32.2061 13.9384 32.2061 19.2181C32.2061 24.4977 36.3242 28.2991 41.3927 28.2991C46.4612 28.2991 44.4549 27.8767 45.4053 27.1376V22.3859C43.927 23.3362 42.9766 23.653 41.6039 23.653C38.9641 23.653 36.9578 21.7523 36.9578 18.9013C36.9578 16.0502 38.9641 14.044 41.6039 14.044C44.2437 14.044 44.0325 14.5719 45.4053 15.4167V15.5223Z" fill="white"/>
<path fill-rule="evenodd" clip-rule="evenodd" d="M0 6.75799V7.60274H3.48459V6.75799C2.53425 6.75799 2.32306 6.54681 2.32306 5.91324V1.5839L4.32934 7.60274H5.17409L7.39156 1.5839V5.80765C7.39156 6.33562 6.96918 6.6524 6.23003 6.75799V7.60274H10.2426V6.75799C9.08105 6.75799 9.08105 6.75799 9.08105 6.01884V1.79509C9.08105 1.16153 9.08105 0.844749 10.2426 0.844749V0H6.86359L5.0685 4.85731L3.48459 0H0V0.844749C0.950343 0.844749 1.16153 0.844749 1.16153 1.6895V5.70206C1.16153 6.44121 1.16153 6.6524 0 6.6524V6.75799Z" fill="white"/>
<path fill-rule="evenodd" clip-rule="evenodd" d="M16.6842 6.75801V7.60276H19.852V6.75801C19.1129 6.75801 19.1129 6.75801 19.1129 5.59648V4.64614C19.1129 3.80139 19.5352 3.06224 20.2744 3.06224C21.0135 3.06224 21.1191 3.48461 21.1191 4.11817V6.01886C21.1191 6.65242 21.1191 6.75801 20.2744 6.75801V7.60276H23.1254V6.75801C22.4919 6.75801 22.3863 6.75801 22.3863 6.01886V4.64614C22.3863 3.6958 22.8086 2.95664 23.6534 2.95664C24.4981 2.95664 24.3925 3.37902 24.3925 4.11817V6.12445C24.3925 6.65242 24.3925 6.75801 23.6534 6.75801V7.60276H26.8212V6.75801C25.8709 6.75801 25.7653 6.75801 25.7653 6.23005V4.01258C25.7653 2.74545 25.4485 2.0063 24.1814 2.0063C22.9142 2.0063 23.0198 2.32308 22.3863 2.95664C22.2807 2.63986 22.0695 2.42867 21.7527 2.21749C21.4359 2.0063 21.1191 1.90071 20.8024 2.0063C19.9576 2.0063 19.4296 2.42867 19.0073 3.06224V2.21749H16.5786V2.95664C17.529 2.95664 17.6346 2.95664 17.6346 3.80139V5.59648C17.6346 6.33564 17.3178 6.75801 16.5786 6.75801H16.6842Z" fill="white"/>
<path fill-rule="evenodd" clip-rule="evenodd" d="M0.105469 10.3482V28.2991H4.96278V21.4355H9.71449V17.3174H5.06837V14.5719H10.1369V10.4538H0.105469V10.3482Z" fill="white"/>
<path fill-rule="evenodd" clip-rule="evenodd" d="M27.2433 0H29.4608V2.74543C30.0943 2.21747 30.4111 2.00628 31.0447 2.00628C32.3118 2.00628 33.1565 3.16781 33.1565 4.85731C33.1565 6.54681 32.3118 7.81393 30.8335 7.81393C29.3552 7.81393 30.1999 7.81393 29.8831 7.60274C29.5663 7.60274 29.3552 7.28596 29.144 7.07477L28.7216 7.70834H28.088V1.79509C28.088 0.950343 28.088 0.844749 27.1377 0.844749V0.105594L27.2433 0ZM31.7838 4.85731C31.7838 3.59018 31.3614 2.95662 30.7279 2.95662C30.0943 2.95662 29.5663 3.59018 29.5663 4.9629C29.5663 6.33562 29.9887 6.86359 30.7279 6.86359C31.467 6.86359 31.8894 6.23003 31.8894 4.85731H31.7838Z" fill="white"/>
<path fill-rule="evenodd" clip-rule="evenodd" d="M40.1255 6.758V7.60275H43.6101V6.758C42.6597 6.758 42.5541 6.758 42.5541 6.01885V4.85732C42.5541 3.80138 42.8709 2.74544 43.8213 2.74544H44.138C44.138 2.74544 43.8213 2.74544 43.7157 3.06222C43.7157 3.16782 43.6101 3.379 43.5045 3.4846V3.80138C43.5045 3.80138 43.5045 4.01257 43.7157 4.01257C43.7157 4.01257 43.7157 4.01257 43.9269 4.01257H44.2436C44.7716 4.01257 45.0884 3.59019 45.0884 3.06222V2.53426C45.0884 2.42866 44.9828 2.21747 44.8772 2.11188C44.7716 2.00629 44.666 1.90069 44.4548 1.7951C44.2436 1.68951 44.138 1.7951 44.0325 1.7951C43.5045 1.7951 43.0821 2.11188 42.5541 2.63985V1.90069H40.1255V2.63985C40.9702 2.63985 41.1814 2.63985 41.1814 3.379V5.59647C41.1814 6.33563 41.1814 6.44122 40.1255 6.44122V6.65241V6.758Z" fill="white"/>
<path fill-rule="evenodd" clip-rule="evenodd" d="M35.6907 5.0685C35.6907 6.12444 36.2187 6.86359 37.0634 6.86359C37.9082 6.86359 38.225 6.44122 38.3306 5.70206H39.2809C39.0697 7.07478 38.225 7.81394 36.9578 7.81394C35.6907 7.81394 34.2124 6.86359 34.2124 5.0685C34.2124 3.27341 35.2683 2.11188 36.7466 2.11188C38.225 2.11188 39.1753 3.27341 39.1753 5.0685H35.5851H35.6907ZM36.8522 2.95663C36.2187 2.95663 35.7963 3.379 35.7963 4.22375H37.8026C37.8026 3.379 37.4858 2.95663 36.8522 2.95663Z" fill="white"/>
<path fill-rule="evenodd" clip-rule="evenodd" d="M12.3543 5.0685C12.3543 6.12444 12.8823 6.86359 13.727 6.86359C14.5718 6.86359 14.8885 6.44122 14.9941 5.70206H15.9445C15.7333 7.07478 14.8885 7.81394 13.6214 7.81394C12.3543 7.81394 10.876 6.86359 10.876 5.0685C10.876 3.27341 11.9319 2.11188 13.5158 2.11188C15.0997 2.11188 15.9445 3.27341 15.9445 5.0685H12.3543ZM13.4102 2.95663C12.7767 2.95663 12.3543 3.379 12.3543 4.22375H14.3606C14.3606 3.379 14.0438 2.95663 13.4102 2.95663Z" fill="white"/>
<path fill-rule="evenodd" clip-rule="evenodd" d="M26.7148 28.2991H31.5722V10.3482H26.7148V28.2991Z" fill="white"/>
</svg>
