<svg width="721" height="39" viewBox="0 0 721 39" fill="none" xmlns="http://www.w3.org/2000/svg">
<path d="M705.889 25.802C707.915 26.6887 709.942 27.132 711.969 27.132C713.438 27.132 714.553 26.8533 715.313 26.296C716.098 25.7387 716.491 24.9407 716.491 23.902C716.491 23.218 716.275 22.6607 715.845 22.23C715.414 21.7993 714.705 21.432 713.717 21.128L711.133 20.33C709.41 19.798 708.156 19.114 707.371 18.278C706.585 17.442 706.193 16.378 706.193 15.086C706.193 13.3633 706.864 11.9953 708.207 10.982C709.549 9.96867 711.361 9.46201 713.641 9.46201C715.566 9.46201 717.403 9.84201 719.151 10.602V13.338C717.225 12.6033 715.465 12.236 713.869 12.236C712.577 12.236 711.563 12.4893 710.829 12.996C710.119 13.4773 709.765 14.136 709.765 14.972C709.765 15.58 709.955 16.0613 710.335 16.416C710.715 16.7453 711.424 17.0747 712.463 17.404L715.351 18.278C718.492 19.2153 720.063 21.0773 720.063 23.864C720.063 25.8147 719.391 27.3093 718.049 28.348C716.706 29.3867 714.768 29.906 712.235 29.906C709.879 29.906 707.903 29.5133 706.307 28.728L705.889 25.802Z" fill="white"/>
<path d="M697.821 12.616V23.712C697.821 24.852 698.075 25.7007 698.581 26.258C699.088 26.79 699.861 27.056 700.899 27.056C701.685 27.056 702.521 26.9167 703.407 26.638V29.184C702.343 29.5893 701.241 29.792 700.101 29.792C698.176 29.792 696.719 29.2853 695.731 28.272C694.743 27.2587 694.249 25.7767 694.249 23.826V12.616H691.361V10.184L694.401 10.07L694.667 5.24401L697.821 4.90201V10.032H703.217V12.616H697.821Z" fill="white"/>
<path d="M684.315 29.336V16.34C684.315 13.6293 682.972 12.274 680.287 12.274C679.578 12.274 678.779 12.4007 677.893 12.654C677.031 12.882 676.246 13.1987 675.537 13.604V29.336H671.965V10.26L674.853 9.95601L675.081 11.286C677.158 10.07 679.223 9.46201 681.275 9.46201C683.378 9.46201 684.999 10.0193 686.139 11.134C687.304 12.2233 687.887 13.7813 687.887 15.808V29.336H684.315Z" fill="white"/>
<path d="M663.319 29.412L663.091 28.082C661.014 29.298 658.949 29.906 656.897 29.906C654.845 29.906 653.249 29.3486 652.109 28.234C650.969 27.1193 650.399 25.5613 650.399 23.56V10.032H653.971V23.028C653.971 25.7386 655.276 27.094 657.885 27.094C658.62 27.094 659.418 26.98 660.279 26.752C661.14 26.4986 661.926 26.1693 662.635 25.764V10.032H666.207V29.108L663.319 29.412Z" fill="white"/>
<path d="M637.224 27.094C638.998 27.094 640.277 26.5113 641.062 25.346C641.873 24.1806 642.278 22.2933 642.278 19.684C642.278 17.0746 641.873 15.1873 641.062 14.022C640.277 12.8566 638.998 12.274 637.224 12.274C635.451 12.274 634.159 12.8566 633.348 14.022C632.563 15.1873 632.17 17.0746 632.17 19.684C632.17 22.2933 632.563 24.1806 633.348 25.346C634.159 26.5113 635.451 27.094 637.224 27.094ZM637.224 29.906C634.336 29.906 632.145 29.0446 630.65 27.322C629.181 25.574 628.446 23.028 628.446 19.684C628.446 16.34 629.181 13.8066 630.65 12.084C632.145 10.336 634.336 9.46198 637.224 9.46198C640.112 9.46198 642.291 10.336 643.76 12.084C645.255 13.8066 646.002 16.34 646.002 19.684C646.002 23.028 645.255 25.574 643.76 27.322C642.291 29.0446 640.112 29.906 637.224 29.906Z" fill="white"/>
<path d="M625.559 28.652C623.811 29.488 621.873 29.906 619.745 29.906C616.958 29.906 614.805 29.0193 613.285 27.246C611.765 25.4726 611.005 22.9646 611.005 19.722C611.005 16.454 611.765 13.9333 613.285 12.16C614.83 10.3613 616.996 9.46198 619.783 9.46198C621.734 9.46198 623.621 9.87998 625.445 10.716V13.452C623.697 12.692 622.025 12.312 620.429 12.312C618.554 12.312 617.136 12.9326 616.173 14.174C615.21 15.4153 614.729 17.252 614.729 19.684C614.729 22.0906 615.21 23.9273 616.173 25.194C617.136 26.4353 618.554 27.056 620.429 27.056C622.025 27.056 623.735 26.676 625.559 25.916V28.652Z" fill="white"/>
<path d="M608.117 28.652C606.369 29.488 604.431 29.906 602.303 29.906C599.517 29.906 597.364 29.0193 595.844 27.246C594.324 25.4726 593.563 22.9646 593.563 19.722C593.563 16.454 594.324 13.9333 595.844 12.16C597.389 10.3613 599.555 9.46198 602.341 9.46198C604.292 9.46198 606.179 9.87998 608.003 10.716V13.452C606.255 12.692 604.583 12.312 602.987 12.312C601.113 12.312 599.694 12.9326 598.732 14.174C597.769 15.4153 597.287 17.252 597.287 19.684C597.287 22.0906 597.769 23.9273 598.732 25.194C599.694 26.4353 601.113 27.056 602.987 27.056C604.583 27.056 606.293 26.676 608.117 25.916V28.652Z" fill="white"/>
<path d="M586.261 29.412L586.033 28.082C583.905 29.298 581.841 29.906 579.839 29.906C577.838 29.906 576.242 29.374 575.051 28.31C573.886 27.2207 573.303 25.764 573.303 23.94C573.303 22.04 573.962 20.5707 575.279 19.532C576.597 18.468 578.446 17.936 580.827 17.936C582.221 17.936 583.829 18.1007 585.653 18.43V16.416C585.653 15.0227 585.248 13.984 584.437 13.3C583.652 12.616 582.436 12.274 580.789 12.274C578.864 12.274 576.761 12.7173 574.481 13.604V10.83C575.545 10.3993 576.698 10.07 577.939 9.84201C579.181 9.58867 580.359 9.46201 581.473 9.46201C583.981 9.46201 585.881 10.0447 587.173 11.21C588.491 12.3753 589.149 14.0853 589.149 16.34V29.108L586.261 29.412ZM580.751 27.132C581.486 27.132 582.309 27.0053 583.221 26.752C584.133 26.4987 584.944 26.1693 585.653 25.764V20.9C584.463 20.596 583.057 20.444 581.435 20.444C579.915 20.444 578.788 20.7353 578.053 21.318C577.344 21.8753 576.989 22.724 576.989 23.864C576.989 26.0427 578.243 27.132 580.751 27.132Z" fill="white"/>
<path d="M549.994 38.304C547.613 38.304 545.624 37.8986 544.028 37.088L543.61 34.162C545.637 35.0486 547.663 35.492 549.69 35.492C553.566 35.492 555.504 33.744 555.504 30.248V28.044C553.604 29.0573 551.818 29.564 550.146 29.564C547.663 29.564 545.713 28.7153 544.294 27.018C542.901 25.3206 542.204 22.9773 542.204 19.988C542.204 16.5933 543.065 13.9966 544.788 12.198C546.511 10.374 548.968 9.46198 552.16 9.46198C553.173 9.46198 554.288 9.58864 555.504 9.84198C556.745 10.07 557.936 10.3866 559.076 10.792V29.792C559.076 32.528 558.291 34.6306 556.72 36.1C555.149 37.5693 552.907 38.304 549.994 38.304ZM550.982 26.752C551.666 26.752 552.413 26.638 553.224 26.41C554.06 26.1566 554.82 25.8273 555.504 25.422V12.692C554.44 12.388 553.313 12.236 552.122 12.236C550.045 12.236 548.487 12.8693 547.448 14.136C546.435 15.4026 545.928 17.328 545.928 19.912C545.928 22.1666 546.346 23.8766 547.182 25.042C548.043 26.182 549.31 26.752 550.982 26.752Z" fill="white"/>
<path d="M534.207 29.336V16.34C534.207 13.6293 532.865 12.274 530.179 12.274C529.47 12.274 528.672 12.4007 527.785 12.654C526.924 12.882 526.139 13.1987 525.429 13.604V29.336H521.857V10.26L524.745 9.95601L524.973 11.286C527.051 10.07 529.115 9.46201 531.167 9.46201C533.27 9.46201 534.891 10.0193 536.031 11.134C537.197 12.2233 537.779 13.7813 537.779 15.808V29.336H534.207Z" fill="white"/>
<path d="M512.506 29.336V10.336L516.078 9.918V29.336H512.506ZM514.292 6.08C513.557 6.08 512.975 5.89 512.544 5.51C512.139 5.10466 511.936 4.56 511.936 3.876C511.936 3.192 512.139 2.66 512.544 2.28C512.975 1.87466 513.557 1.672 514.292 1.672C515.027 1.672 515.597 1.87466 516.002 2.28C516.433 2.66 516.648 3.192 516.648 3.876C516.648 4.56 516.433 5.10466 516.002 5.51C515.597 5.89 515.027 6.08 514.292 6.08Z" fill="white"/>
<path d="M493.58 29.336V0.798004L497.152 0.380005V18.316L505.094 10.032H509.198L500.572 19L509.616 29.336H505.284L497.152 19.874V29.336H493.58Z" fill="white"/>
<path d="M489.182 28.652C487.434 29.488 485.496 29.906 483.368 29.906C480.581 29.906 478.428 29.0193 476.908 27.246C475.388 25.4726 474.628 22.9646 474.628 19.722C474.628 16.454 475.388 13.9333 476.908 12.16C478.453 10.3613 480.619 9.46198 483.406 9.46198C485.357 9.46198 487.244 9.87998 489.068 10.716V13.452C487.32 12.692 485.648 12.312 484.052 12.312C482.177 12.312 480.759 12.9326 479.796 14.174C478.833 15.4153 478.352 17.252 478.352 19.684C478.352 22.0906 478.833 23.9273 479.796 25.194C480.759 26.4353 482.177 27.056 484.052 27.056C485.648 27.056 487.358 26.676 489.182 25.916V28.652Z" fill="white"/>
<path d="M470.241 28.614C468.493 29.4753 466.543 29.906 464.389 29.906C461.248 29.906 458.854 29.032 457.207 27.284C455.561 25.536 454.737 22.9773 454.737 19.608C454.737 17.5306 455.105 15.732 455.839 14.212C456.574 12.6666 457.6 11.4886 458.917 10.678C460.235 9.86731 461.742 9.46198 463.439 9.46198C465.821 9.46198 467.695 10.1713 469.063 11.59C470.431 13.0086 471.115 14.972 471.115 17.48C471.115 18.468 471.027 19.4433 470.849 20.406H458.271C458.347 24.89 460.526 27.132 464.807 27.132C466.657 27.132 468.468 26.7266 470.241 25.916V28.614ZM463.439 12.084C461.97 12.084 460.767 12.6033 459.829 13.642C458.917 14.6806 458.398 16.0866 458.271 17.86H467.809C467.835 17.7333 467.847 17.6066 467.847 17.48C467.847 17.3533 467.847 17.2266 467.847 17.1C467.847 15.5293 467.455 14.3006 466.669 13.414C465.909 12.5273 464.833 12.084 463.439 12.084Z" fill="white"/>
<path d="M434.391 29.336V0.798004L437.963 0.380005V11.02C439.913 9.98134 441.826 9.46201 443.701 9.46201C445.803 9.46201 447.425 10.0193 448.565 11.134C449.73 12.2233 450.313 13.7813 450.313 15.808V29.336H446.741V16.34C446.741 13.6293 445.398 12.274 442.713 12.274C442.003 12.274 441.205 12.4007 440.319 12.654C439.457 12.882 438.672 13.1987 437.963 13.604V29.336H434.391Z" fill="white"/>
<path d="M429.992 28.652C428.244 29.488 426.306 29.906 424.178 29.906C421.392 29.906 419.239 29.0193 417.719 27.246C416.199 25.4726 415.438 22.9646 415.438 19.722C415.438 16.454 416.199 13.9333 417.719 12.16C419.264 10.3613 421.43 9.46198 424.216 9.46198C426.167 9.46198 428.054 9.87998 429.878 10.716V13.452C428.13 12.692 426.458 12.312 424.862 12.312C422.988 12.312 421.569 12.9326 420.607 14.174C419.644 15.4153 419.163 17.252 419.163 19.684C419.163 22.0906 419.644 23.9273 420.607 25.194C421.569 26.4353 422.988 27.056 424.862 27.056C426.458 27.056 428.168 26.676 429.992 25.916V28.652Z" fill="white"/>
<path d="M397.942 29.336V16.34C397.942 13.6293 396.599 12.274 393.914 12.274C393.204 12.274 392.406 12.4007 391.52 12.654C390.658 12.882 389.873 13.1987 389.164 13.604V29.336H385.592V10.26L388.48 9.95601L388.708 11.286C390.785 10.07 392.85 9.46201 394.902 9.46201C397.004 9.46201 398.626 10.0193 399.766 11.134C400.931 12.2233 401.514 13.7813 401.514 15.808V29.336H397.942Z" fill="white"/>
<path d="M372.189 27.094C373.962 27.094 375.242 26.5113 376.027 25.346C376.838 24.1806 377.243 22.2933 377.243 19.684C377.243 17.0746 376.838 15.1873 376.027 14.022C375.242 12.8566 373.962 12.274 372.189 12.274C370.416 12.274 369.124 12.8566 368.313 14.022C367.528 15.1873 367.135 17.0746 367.135 19.684C367.135 22.2933 367.528 24.1806 368.313 25.346C369.124 26.5113 370.416 27.094 372.189 27.094ZM372.189 29.906C369.301 29.906 367.11 29.0446 365.615 27.322C364.146 25.574 363.411 23.028 363.411 19.684C363.411 16.34 364.146 13.8066 365.615 12.084C367.11 10.336 369.301 9.46198 372.189 9.46198C375.077 9.46198 377.256 10.336 378.725 12.084C380.22 13.8066 380.967 16.34 380.967 19.684C380.967 23.028 380.22 25.574 378.725 27.322C377.256 29.0446 375.077 29.906 372.189 29.906Z" fill="white"/>
<path d="M336.428 25.802C338.454 26.6887 340.481 27.132 342.508 27.132C343.977 27.132 345.092 26.8533 345.852 26.296C346.637 25.7387 347.03 24.9407 347.03 23.902C347.03 23.218 346.814 22.6607 346.384 22.23C345.953 21.7993 345.244 21.432 344.256 21.128L341.672 20.33C339.949 19.798 338.695 19.114 337.91 18.278C337.124 17.442 336.732 16.378 336.732 15.086C336.732 13.3633 337.403 11.9953 338.746 10.982C340.088 9.96867 341.9 9.46201 344.18 9.46201C346.105 9.46201 347.942 9.84201 349.69 10.602V13.338C347.764 12.6033 346.004 12.236 344.408 12.236C343.116 12.236 342.102 12.4893 341.368 12.996C340.658 13.4773 340.304 14.136 340.304 14.972C340.304 15.58 340.494 16.0613 340.874 16.416C341.254 16.7453 341.963 17.0747 343.002 17.404L345.89 18.278C349.031 19.2153 350.602 21.0773 350.602 23.864C350.602 25.8147 349.93 27.3093 348.588 28.348C347.245 29.3867 345.307 29.906 342.774 29.906C340.418 29.906 338.442 29.5133 336.846 28.728L336.428 25.802Z" fill="white"/>
<path d="M328.644 29.336V15.922C328.644 13.49 327.466 12.274 325.11 12.274C323.691 12.274 322.196 12.7427 320.626 13.68C320.752 14.2373 320.816 14.7947 320.816 15.352V29.336H317.244V15.922C317.244 13.49 316.066 12.274 313.71 12.274C312.316 12.274 310.885 12.7173 309.416 13.604V29.336H305.844V10.26L308.732 9.95601L308.96 11.286C310.91 10.07 312.823 9.46201 314.698 9.46201C316.876 9.46201 318.523 10.1587 319.638 11.552C321.918 10.1587 324.071 9.46201 326.098 9.46201C327.998 9.46201 329.492 9.98134 330.582 11.02C331.671 12.0587 332.216 13.5027 332.216 15.352V29.336H328.644Z" fill="white"/>
<path d="M297.198 29.412L296.97 28.082C294.892 29.298 292.828 29.906 290.776 29.906C288.724 29.906 287.128 29.3486 285.988 28.234C284.848 27.1193 284.278 25.5613 284.278 23.56V10.032H287.85V23.028C287.85 25.7386 289.154 27.094 291.764 27.094C292.498 27.094 293.297 26.98 294.158 26.752C295.019 26.4986 295.804 26.1693 296.514 25.764V10.032H300.086V29.108L297.198 29.412Z" fill="white"/>
<path d="M275.392 29.336V15.922C275.392 13.49 274.214 12.274 271.858 12.274C270.439 12.274 268.944 12.7427 267.374 13.68C267.5 14.2373 267.564 14.7947 267.564 15.352V29.336H263.992V15.922C263.992 13.49 262.814 12.274 260.458 12.274C259.064 12.274 257.633 12.7173 256.164 13.604V29.336H252.592V10.26L255.48 9.95601L255.708 11.286C257.658 10.07 259.571 9.46201 261.446 9.46201C263.624 9.46201 265.271 10.1587 266.386 11.552C268.666 10.1587 270.819 9.46201 272.846 9.46201C274.746 9.46201 276.24 9.98134 277.33 11.02C278.419 12.0587 278.964 13.5027 278.964 15.352V29.336H275.392Z" fill="white"/>
<path d="M243.24 29.336V10.336L246.812 9.918V29.336H243.24ZM245.026 6.08C244.292 6.08 243.709 5.89 243.278 5.51C242.873 5.10466 242.67 4.56 242.67 3.876C242.67 3.192 242.873 2.66 243.278 2.28C243.709 1.87466 244.292 1.672 245.026 1.672C245.761 1.672 246.331 1.87466 246.736 2.28C247.167 2.66 247.382 3.192 247.382 3.876C247.382 4.56 247.167 5.10466 246.736 5.51C246.331 5.89 245.761 6.08 245.026 6.08Z" fill="white"/>
<path d="M234.104 29.336V16.34C234.104 13.6293 232.761 12.274 230.076 12.274C229.367 12.274 228.569 12.4007 227.682 12.654C226.821 12.882 226.035 13.1987 225.326 13.604V29.336H221.754V10.26L224.642 9.95601L224.87 11.286C226.947 10.07 229.012 9.46201 231.064 9.46201C233.167 9.46201 234.788 10.0193 235.928 11.134C237.093 12.2233 237.676 13.7813 237.676 15.808V29.336H234.104Z" fill="white"/>
<path d="M212.403 29.336V10.336L215.975 9.918V29.336H212.403ZM214.189 6.08C213.454 6.08 212.871 5.89 212.441 5.51C212.035 5.10466 211.833 4.56 211.833 3.876C211.833 3.192 212.035 2.66 212.441 2.28C212.871 1.87466 213.454 1.672 214.189 1.672C214.923 1.672 215.493 1.87466 215.899 2.28C216.329 2.66 216.545 3.192 216.545 3.876C216.545 4.56 216.329 5.10466 215.899 5.51C215.493 5.89 214.923 6.08 214.189 6.08Z" fill="white"/>
<path d="M203.288 29.336V15.922C203.288 13.49 202.11 12.274 199.754 12.274C198.336 12.274 196.841 12.7427 195.27 13.68C195.397 14.2373 195.46 14.7947 195.46 15.352V29.336H191.888V15.922C191.888 13.49 190.71 12.274 188.354 12.274C186.961 12.274 185.53 12.7173 184.06 13.604V29.336H180.488V10.26L183.376 9.95601L183.604 11.286C185.555 10.07 187.468 9.46201 189.342 9.46201C191.521 9.46201 193.168 10.1587 194.282 11.552C196.562 10.1587 198.716 9.46201 200.742 9.46201C202.642 9.46201 204.137 9.98134 205.226 11.02C206.316 12.0587 206.86 13.5027 206.86 15.352V29.336H203.288Z" fill="white"/>
<path d="M157.109 29.336V10.26L159.997 9.95599L160.301 11.704C161.973 10.2853 163.759 9.57599 165.659 9.57599C166.242 9.57599 166.825 9.66466 167.407 9.84199V12.768C166.799 12.616 166.179 12.54 165.545 12.54C163.721 12.54 162.1 13.11 160.681 14.25V29.336H157.109Z" fill="white"/>
<path d="M143.707 27.094C145.48 27.094 146.759 26.5113 147.545 25.346C148.355 24.1807 148.761 22.2933 148.761 19.684C148.761 17.0747 148.355 15.1873 147.545 14.022C146.759 12.8567 145.48 12.274 143.707 12.274C141.933 12.274 140.641 12.8567 139.831 14.022C139.045 15.1873 138.653 17.0747 138.653 19.684C138.653 22.2933 139.045 24.1807 139.831 25.346C140.641 26.5113 141.933 27.094 143.707 27.094ZM143.707 29.906C140.819 29.906 138.627 29.0447 137.133 27.322C135.663 25.574 134.929 23.028 134.929 19.684C134.929 16.34 135.663 13.8067 137.133 12.084C138.627 10.336 140.819 9.46201 143.707 9.46201C146.595 9.46201 148.773 10.336 150.243 12.084C151.737 13.8067 152.485 16.34 152.485 19.684C152.485 23.028 151.737 25.574 150.243 27.322C148.773 29.0447 146.595 29.906 143.707 29.906Z" fill="white"/>
<path d="M107.945 25.802C109.972 26.6887 111.999 27.132 114.025 27.132C115.495 27.132 116.609 26.8533 117.369 26.296C118.155 25.7387 118.547 24.9407 118.547 23.902C118.547 23.218 118.332 22.6607 117.901 22.23C117.471 21.7993 116.761 21.432 115.773 21.128L113.189 20.33C111.467 19.798 110.213 19.114 109.427 18.278C108.642 17.442 108.249 16.378 108.249 15.086C108.249 13.3633 108.921 11.9953 110.263 10.982C111.606 9.96867 113.417 9.46201 115.697 9.46201C117.623 9.46201 119.459 9.84201 121.207 10.602V13.338C119.282 12.6033 117.521 12.236 115.925 12.236C114.633 12.236 113.62 12.4893 112.885 12.996C112.176 13.4773 111.821 14.136 111.821 14.972C111.821 15.58 112.011 16.0613 112.391 16.416C112.771 16.7453 113.481 17.0747 114.519 17.404L117.407 18.278C120.549 19.2153 122.119 21.0773 122.119 23.864C122.119 25.8147 121.448 27.3093 120.105 28.348C118.763 29.3867 116.825 29.906 114.291 29.906C111.935 29.906 109.959 29.5133 108.363 28.728L107.945 25.802Z" fill="white"/>
<path d="M103.749 28.614C102.001 29.4753 100.05 29.906 97.8971 29.906C94.7558 29.906 92.3618 29.032 90.7151 27.284C89.0685 25.536 88.2451 22.9773 88.2451 19.608C88.2451 17.5307 88.6124 15.732 89.3471 14.212C90.0818 12.6667 91.1078 11.4887 92.4251 10.678C93.7425 9.86734 95.2498 9.46201 96.9471 9.46201C99.3284 9.46201 101.203 10.1713 102.571 11.59C103.939 13.0087 104.623 14.972 104.623 17.48C104.623 18.468 104.534 19.4433 104.357 20.406H91.7791C91.8551 24.89 94.0338 27.132 98.3151 27.132C100.164 27.132 101.976 26.7267 103.749 25.916V28.614ZM96.9471 12.084C95.4778 12.084 94.2745 12.6033 93.3371 13.642C92.4251 14.6807 91.9058 16.0867 91.7791 17.86H101.317C101.342 17.7333 101.355 17.6067 101.355 17.48C101.355 17.3533 101.355 17.2267 101.355 17.1C101.355 15.5293 100.962 14.3007 100.177 13.414C99.4171 12.5273 98.3404 12.084 96.9471 12.084Z" fill="white"/>
<path d="M83.8585 28.614C82.1105 29.4753 80.1598 29.906 78.0065 29.906C74.8652 29.906 72.4712 29.032 70.8245 27.284C69.1778 25.536 68.3545 22.9773 68.3545 19.608C68.3545 17.5307 68.7218 15.732 69.4565 14.212C70.1912 12.6667 71.2172 11.4887 72.5345 10.678C73.8518 9.86734 75.3592 9.46201 77.0565 9.46201C79.4378 9.46201 81.3125 10.1713 82.6805 11.59C84.0485 13.0087 84.7325 14.972 84.7325 17.48C84.7325 18.468 84.6438 19.4433 84.4665 20.406H71.8885C71.9645 24.89 74.1432 27.132 78.4245 27.132C80.2738 27.132 82.0852 26.7267 83.8585 25.916V28.614ZM77.0565 12.084C75.5872 12.084 74.3838 12.6033 73.4465 13.642C72.5345 14.6807 72.0152 16.0867 71.8885 17.86H81.4265C81.4518 17.7333 81.4645 17.6067 81.4645 17.48C81.4645 17.3533 81.4645 17.2267 81.4645 17.1C81.4645 15.5293 81.0718 14.3007 80.2865 13.414C79.5265 12.5273 78.4498 12.084 77.0565 12.084Z" fill="white"/>
<path d="M57.4153 29.336V12.616H54.5273V10.184L57.4153 10.07V6.308C57.4153 4.30667 57.9347 2.76133 58.9733 1.672C60.012 0.557333 61.494 0 63.4193 0C64.534 0 65.674 0.202666 66.8393 0.607999V3.154C65.8007 2.87533 64.914 2.736 64.1793 2.736C62.0513 2.736 60.9873 3.86333 60.9873 6.118V10.032H65.8893V12.616H60.9873V29.336H57.4153Z" fill="white"/>
<path d="M33.7145 27.094C35.4879 27.094 36.7672 26.5113 37.5525 25.346C38.3632 24.1807 38.7685 22.2933 38.7685 19.684C38.7685 17.0747 38.3632 15.1873 37.5525 14.022C36.7672 12.8567 35.4879 12.274 33.7145 12.274C31.9412 12.274 30.6492 12.8567 29.8385 14.022C29.0532 15.1873 28.6605 17.0747 28.6605 19.684C28.6605 22.2933 29.0532 24.1807 29.8385 25.346C30.6492 26.5113 31.9412 27.094 33.7145 27.094ZM33.7145 29.906C30.8265 29.906 28.6352 29.0447 27.1405 27.322C25.6712 25.574 24.9365 23.028 24.9365 19.684C24.9365 16.34 25.6712 13.8067 27.1405 12.084C28.6352 10.336 30.8265 9.46201 33.7145 9.46201C36.6025 9.46201 38.7812 10.336 40.2505 12.084C41.7452 13.8067 42.4925 16.34 42.4925 19.684C42.4925 23.028 41.7452 25.574 40.2505 27.322C38.7812 29.0447 36.6025 29.906 33.7145 29.906Z" fill="white"/>
<path d="M16.416 29.336L3.534 8.85399V29.336H0V2.73599H3.382L16.264 23.218V2.73599H19.798V29.336H16.416Z" fill="white"/>
</svg>
