<svg width="372" height="63" viewBox="0 0 372 63" fill="none" xmlns="http://www.w3.org/2000/svg">
<path d="M8.48584 19.4615C8.48584 17.6685 8.88415 16.3077 9.69003 15.379C10.4959 14.4412 11.663 13.9814 13.1914 13.9814C14.7198 13.9814 15.887 14.4504 16.6929 15.379C17.4987 16.3169 17.897 17.6777 17.897 19.4615C17.897 21.2453 17.4987 22.6153 16.6929 23.544C15.887 24.4819 14.7198 24.9416 13.1914 24.9416C11.663 24.9416 10.4959 24.4727 9.69003 23.544C8.88415 22.6061 8.48584 21.2453 8.48584 19.4615ZM10.7645 19.4615C10.7645 20.7672 10.9591 21.7326 11.3574 22.3395C11.7464 22.9463 12.367 23.2498 13.2007 23.2498C14.0344 23.2498 14.6457 22.9463 15.044 22.3395C15.4424 21.7326 15.6369 20.7672 15.6369 19.4615C15.6369 18.1559 15.4424 17.1904 15.044 16.5836C14.655 15.9767 14.0344 15.6733 13.2007 15.6733C12.367 15.6733 11.7464 15.9767 11.3574 16.5836C10.9683 17.1904 10.7645 18.1559 10.7645 19.4615Z" fill="white"/>
<path d="M25.4002 24.7027V18.4411H22.1396V24.7027H20.1017V18.4411H18.9531V17.0895L20.1017 17.0435V15.8114C20.1017 14.9655 20.3333 14.2943 20.8057 13.807C21.2781 13.3196 21.9173 13.0806 22.7417 13.0806C23.2789 13.0806 23.7699 13.1633 24.2238 13.338V14.7172C23.8625 14.6253 23.5476 14.5793 23.2697 14.5793C22.9084 14.5793 22.6305 14.6805 22.436 14.8735C22.2415 15.0666 22.1396 15.3517 22.1396 15.7379V17.0067H25.4002V15.8114C25.4002 14.9655 25.6317 14.2943 26.1042 13.807C26.5673 13.3196 27.2157 13.0806 28.0401 13.0806C28.4755 13.0806 28.9201 13.1541 29.3647 13.3104V14.6896C29.0868 14.6161 28.8182 14.5885 28.5681 14.5885C28.2069 14.5885 27.929 14.6897 27.7252 14.8827C27.5214 15.0758 27.4288 15.3609 27.4288 15.747V17.0159H29.2721V18.4411H27.4288V24.7027H25.3909H25.4002ZM31.7083 15.8022C31.3285 15.8022 31.0321 15.7011 30.819 15.4988C30.606 15.2965 30.5041 15.0207 30.5041 14.6713C30.5041 14.3219 30.606 14.046 30.819 13.8437C31.0321 13.6414 31.3285 13.5403 31.7083 13.5403C32.0881 13.5403 32.3937 13.6414 32.6068 13.8437C32.8198 14.046 32.931 14.3219 32.931 14.6713C32.931 15.0207 32.8198 15.2965 32.6068 15.4988C32.3937 15.7011 32.0881 15.8022 31.7083 15.8022ZM30.6986 24.7027V17.163L32.7365 16.97V24.7027H30.6986Z" fill="white"/>
<path d="M40.4154 24.4176C39.6465 24.767 38.8499 24.9417 38.0162 24.9417C36.8306 24.9417 35.9135 24.5923 35.2744 23.8935C34.6352 23.1947 34.311 22.1925 34.311 20.8776C34.311 19.5628 34.626 18.5422 35.2744 17.8342C35.9135 17.1262 36.8306 16.7676 38.0255 16.7676C38.8036 16.7676 39.5817 16.9423 40.369 17.2917V18.772C39.6465 18.4778 38.9981 18.3399 38.4331 18.3399C37.1085 18.3399 36.4415 19.1766 36.4415 20.8409C36.4415 21.6684 36.6083 22.2936 36.951 22.7258C37.2937 23.1579 37.7847 23.3602 38.4423 23.3602C39.0074 23.3602 39.6651 23.2131 40.4246 22.9281V24.4084L40.4154 24.4176Z" fill="white"/>
<path d="M42.9444 15.8023C42.5646 15.8023 42.2682 15.7012 42.0552 15.4989C41.8421 15.2966 41.7402 15.0208 41.7402 14.6714C41.7402 14.322 41.8421 14.0461 42.0552 13.8438C42.2682 13.6415 42.5646 13.5404 42.9444 13.5404C43.3242 13.5404 43.6299 13.6415 43.8429 13.8438C44.056 14.0461 44.1671 14.322 44.1671 14.6714C44.1671 15.0208 44.056 15.2966 43.8429 15.4989C43.6299 15.7012 43.3242 15.8023 42.9444 15.8023ZM41.9348 24.7028V17.1631L43.9726 16.9701V24.7028H41.9348Z" fill="white"/>
<path d="M50.6508 24.7486L50.5304 24.2521C49.743 24.7119 48.9556 24.9417 48.1776 24.9417C47.3995 24.9417 46.7325 24.721 46.2508 24.2797C45.7692 23.8383 45.5376 23.2499 45.5376 22.4959C45.5376 21.7419 45.8062 21.1259 46.3342 20.6937C46.8622 20.2616 47.6032 20.0501 48.5573 20.0501C49.1224 20.0501 49.6967 20.1053 50.2803 20.2156V19.618C50.2803 19.1582 50.1413 18.818 49.8727 18.6065C49.6041 18.3951 49.178 18.2847 48.6037 18.2847C47.8348 18.2847 46.9919 18.4594 46.0656 18.7904V17.3193C46.5009 17.1538 46.9734 17.0158 47.5014 16.9147C48.0201 16.8136 48.5203 16.7676 48.9834 16.7676C50.0487 16.7676 50.8638 17.0066 51.4381 17.4848C52.0032 17.9629 52.2903 18.6525 52.2903 19.5536V24.5739L50.66 24.7394L50.6508 24.7486ZM48.7982 23.4889C49.0205 23.4889 49.2613 23.4522 49.53 23.3878C49.7986 23.3142 50.0487 23.2315 50.2803 23.1212V21.4845C49.8171 21.3742 49.4003 21.319 49.0297 21.319C48.0664 21.319 47.5755 21.6868 47.5755 22.4316C47.5755 22.781 47.6773 23.0476 47.8811 23.2223C48.0849 23.4062 48.3906 23.4889 48.7982 23.4889Z" fill="white"/>
<path d="M54.1714 24.7027V13.4299L56.2092 13.2368V24.7027H54.1714Z" fill="white"/>
<path d="M62.1274 24.703V14.4233C62.6184 14.3222 63.202 14.2394 63.8689 14.1842C64.5358 14.1291 65.1287 14.0923 65.6474 14.0923C66.9071 14.0923 67.8612 14.3222 68.5189 14.8003C69.1766 15.2692 69.5008 15.9496 69.5008 16.8507C69.5008 17.9633 68.908 18.7356 67.7223 19.1862C68.4541 19.3701 69.0191 19.6827 69.3989 20.1332C69.7787 20.5838 69.9732 21.1447 69.9732 21.8159C69.9732 22.7446 69.6397 23.4617 68.9728 23.9583C68.3059 24.4548 67.361 24.7122 66.1198 24.7122H62.1367L62.1274 24.703ZM65.5548 15.6646C64.9341 15.6646 64.4617 15.7014 64.1375 15.7657V18.5793H65.7956C66.3236 18.5793 66.7312 18.4506 67.0368 18.1931C67.3425 17.9357 67.4907 17.5771 67.4907 17.1174C67.4907 16.63 67.3332 16.2622 67.0183 16.0232C66.7034 15.7841 66.2124 15.6646 65.564 15.6646H65.5548ZM66.0364 23.1307C67.2406 23.1307 67.852 22.6342 67.852 21.632C67.852 21.1447 67.6945 20.7677 67.3796 20.501C67.0646 20.2344 66.6107 20.1057 66.0272 20.1057H64.1375V23.1307H66.0364Z" fill="white"/>
<path d="M76.2167 24.7486L76.0963 24.2521C75.3089 24.7119 74.5216 24.9417 73.7435 24.9417C72.9654 24.9417 72.2984 24.721 71.8168 24.2797C71.3351 23.8383 71.1035 23.2499 71.1035 22.4959C71.1035 21.7419 71.3721 21.1259 71.9001 20.6937C72.4281 20.2616 73.1692 20.0501 74.1233 20.0501C74.6883 20.0501 75.2626 20.1053 75.8462 20.2156V19.618C75.8462 19.1582 75.7072 18.818 75.4386 18.6065C75.17 18.3951 74.7439 18.2847 74.1696 18.2847C73.4007 18.2847 72.5578 18.4594 71.6315 18.7904V17.3193C72.0669 17.1538 72.5393 17.0158 73.0673 16.9147C73.586 16.8136 74.0862 16.7676 74.5494 16.7676C75.6146 16.7676 76.4297 17.0066 77.004 17.4848C77.5691 17.9629 77.8562 18.6525 77.8562 19.5536V24.5739L76.226 24.7394L76.2167 24.7486ZM74.3641 23.4889C74.5864 23.4889 74.8272 23.4522 75.0959 23.3878C75.3645 23.3142 75.6146 23.2315 75.8462 23.1212V21.4845C75.383 21.3742 74.9662 21.319 74.5957 21.319C73.6323 21.319 73.1414 21.6868 73.1414 22.4316C73.1414 22.781 73.2433 23.0476 73.4471 23.2223C73.6508 23.4062 73.9565 23.4889 74.3641 23.4889Z" fill="white"/>
<path d="M84.479 24.7027V19.6548C84.479 19.2042 84.3771 18.8732 84.1733 18.6617C83.9695 18.4503 83.6546 18.3399 83.2192 18.3399C82.9784 18.3399 82.7283 18.3767 82.4596 18.4503C82.2003 18.5238 81.9687 18.625 81.7649 18.7445V24.7119H79.7271V17.1446L81.3573 16.9791L81.4778 17.4756C82.2651 17.0159 83.0339 16.786 83.8028 16.786C84.6642 16.786 85.3312 17.0159 85.8036 17.4664C86.276 17.917 86.5076 18.5606 86.5076 19.3881V24.7119H84.4697L84.479 24.7027Z" fill="white"/>
<path d="M88.4165 24.7027V13.4299L90.4544 13.2368V20.1881L93.1314 17.0067H95.4286L92.4644 20.4547L95.6509 24.6935H93.187L90.4544 21.0248V24.6935H88.4165V24.7027Z" fill="white"/>
<path d="M105.127 24.7486L105.006 24.2521C104.219 24.7119 103.432 24.9417 102.654 24.9417C101.876 24.9417 101.209 24.721 100.727 24.2797C100.245 23.8383 100.014 23.2499 100.014 22.4959C100.014 21.7419 100.282 21.1259 100.81 20.6937C101.338 20.2616 102.079 20.0501 103.033 20.0501C103.598 20.0501 104.173 20.1053 104.756 20.2156V19.618C104.756 19.1582 104.617 18.818 104.349 18.6065C104.08 18.3951 103.654 18.2847 103.08 18.2847C102.311 18.2847 101.468 18.4594 100.542 18.7904V17.3193C100.977 17.1538 101.449 17.0158 101.977 16.9147C102.496 16.8136 102.996 16.7676 103.46 16.7676C104.525 16.7676 105.34 17.0066 105.914 17.4848C106.479 17.9629 106.766 18.6525 106.766 19.5536V24.5739L105.136 24.7394L105.127 24.7486ZM103.274 23.4889C103.497 23.4889 103.737 23.4522 104.006 23.3878C104.275 23.3142 104.525 23.2315 104.756 23.1212V21.4845C104.293 21.3742 103.876 21.319 103.506 21.319C102.542 21.319 102.052 21.6868 102.052 22.4316C102.052 22.781 102.153 23.0476 102.357 23.2223C102.561 23.4062 102.867 23.4889 103.274 23.4889Z" fill="white"/>
<path d="M113.39 24.7027V19.6548C113.39 19.2042 113.288 18.8732 113.084 18.6617C112.88 18.4503 112.565 18.3399 112.13 18.3399C111.889 18.3399 111.639 18.3767 111.37 18.4503C111.111 18.5238 110.879 18.625 110.676 18.7445V24.7119H108.638V17.1446L110.268 16.9791L110.388 17.4756C111.176 17.0159 111.945 16.786 112.713 16.786C113.575 16.786 114.242 17.0159 114.714 17.4664C115.187 17.917 115.418 18.5606 115.418 19.3881V24.7119H113.38L113.39 24.7027Z" fill="white"/>
<path d="M124.107 13.2368V24.5831L122.476 24.7487L122.356 24.2521C121.995 24.4636 121.615 24.6291 121.207 24.7578C120.8 24.8866 120.438 24.9417 120.105 24.9417C119.114 24.9417 118.345 24.5923 117.789 23.8935C117.233 23.1947 116.956 22.2201 116.956 20.988C116.956 19.6456 117.289 18.6158 117.947 17.8802C118.604 17.1446 119.531 16.7768 120.735 16.7768C121.17 16.7768 121.615 16.832 122.078 16.9423V13.4391L124.116 13.246L124.107 13.2368ZM120.679 23.3878C120.892 23.3878 121.124 23.3511 121.383 23.2775C121.643 23.2039 121.865 23.1028 122.069 22.9833V18.3859C121.754 18.3123 121.42 18.2847 121.068 18.2847C120.392 18.2847 119.892 18.5054 119.568 18.9376C119.244 19.3697 119.077 20.0409 119.077 20.9512C119.077 22.5787 119.614 23.397 120.679 23.397V23.3878Z" fill="white"/>
<path d="M137.205 24.252C136.297 24.7118 135.315 24.9416 134.24 24.9416C132.758 24.9416 131.619 24.4635 130.804 23.5164C129.989 22.5694 129.59 21.2178 129.59 19.4524C129.59 17.687 129.998 16.3813 130.813 15.4159C131.628 14.4504 132.768 13.9723 134.24 13.9723C135.278 13.9723 136.241 14.2022 137.14 14.6619V16.3261C136.658 16.0963 136.232 15.9308 135.852 15.8388C135.482 15.7469 135.065 15.7009 134.611 15.7009C133.712 15.7009 133.036 16.0135 132.582 16.648C132.128 17.2824 131.897 18.2203 131.897 19.4616C131.897 21.9717 132.805 23.2222 134.611 23.2222C135.046 23.2222 135.463 23.1762 135.852 23.0751C136.25 22.974 136.695 22.8176 137.186 22.597V24.2612L137.205 24.252Z" fill="white"/>
<path d="M138.817 24.7028V17.1355L140.447 16.97L140.614 17.678C141.244 17.1079 141.948 16.8229 142.717 16.8229C142.957 16.8229 143.208 16.8597 143.476 16.924V18.5883C143.171 18.5147 142.911 18.4871 142.68 18.4871C141.985 18.4871 141.383 18.6802 140.864 19.0572V24.712H138.826L138.817 24.7028Z" fill="white"/>
<path d="M150.877 24.3992C150.145 24.7578 149.33 24.9417 148.431 24.9417C147.107 24.9417 146.088 24.5923 145.384 23.8935C144.68 23.1947 144.328 22.1741 144.328 20.8317C144.328 20.0133 144.485 19.2961 144.8 18.6801C145.115 18.064 145.55 17.5951 146.106 17.2641C146.662 16.9331 147.292 16.7676 148.005 16.7676C149.015 16.7676 149.802 17.0526 150.376 17.6319C150.951 18.2112 151.238 18.9927 151.238 19.9949C151.238 20.4639 151.192 20.9236 151.099 21.3742H146.328C146.366 22.073 146.588 22.5879 146.977 22.9281C147.366 23.2683 147.94 23.4338 148.681 23.4338C149.422 23.4338 150.173 23.2683 150.867 22.9373V24.4084L150.877 24.3992ZM148.005 18.1836C147.533 18.1836 147.144 18.3491 146.847 18.6709C146.551 18.9927 146.366 19.4341 146.319 19.9949H149.367V19.7743C149.367 19.2502 149.246 18.8548 149.015 18.5881C148.783 18.3215 148.45 18.1836 148.005 18.1836Z" fill="white"/>
<path d="M159.602 13.2368V24.5831L157.972 24.7487L157.852 24.2521C157.49 24.4636 157.11 24.6291 156.703 24.7578C156.295 24.8866 155.934 24.9417 155.601 24.9417C154.609 24.9417 153.841 24.5923 153.285 23.8935C152.729 23.1947 152.451 22.2201 152.451 20.988C152.451 19.6456 152.785 18.6158 153.442 17.8802C154.1 17.1446 155.026 16.7768 156.23 16.7768C156.666 16.7768 157.11 16.832 157.574 16.9423V13.4391L159.611 13.246L159.602 13.2368ZM156.175 23.3878C156.388 23.3878 156.62 23.3511 156.879 23.2775C157.138 23.2039 157.361 23.1028 157.564 22.9833V18.3859C157.249 18.3123 156.916 18.2847 156.564 18.2847C155.888 18.2847 155.388 18.5054 155.063 18.9376C154.739 19.3697 154.572 20.0409 154.572 20.9512C154.572 22.5787 155.11 23.397 156.175 23.397V23.3878Z" fill="white"/>
<path d="M162.576 15.8023C162.196 15.8023 161.9 15.7012 161.687 15.4989C161.473 15.2966 161.372 15.0208 161.372 14.6714C161.372 14.322 161.473 14.0461 161.687 13.8438C161.9 13.6415 162.196 13.5404 162.576 13.5404C162.956 13.5404 163.261 13.6415 163.474 13.8438C163.687 14.0461 163.798 14.322 163.798 14.6714C163.798 15.0208 163.687 15.2966 163.474 15.4989C163.261 15.7012 162.956 15.8023 162.576 15.8023ZM161.566 24.7028V17.1631L163.604 16.9701V24.7028H161.566Z" fill="white"/>
<path d="M168.087 18.441V22.2936C168.087 23.0384 168.449 23.4154 169.162 23.4154C169.421 23.4154 169.745 23.3602 170.125 23.2499V24.6107C169.681 24.813 169.171 24.9141 168.597 24.9141C167.763 24.9141 167.124 24.7027 166.698 24.2705C166.263 23.8383 166.049 23.2131 166.049 22.3948V18.441H164.901V17.0894L166.151 17.0434L166.29 15.1125L168.087 14.9194V17.0158H170.079V18.441H168.087Z" fill="white"/>
<path d="M182.631 24.252C181.723 24.7118 180.741 24.9416 179.667 24.9416C178.185 24.9416 177.045 24.4635 176.23 23.5164C175.415 22.5694 175.017 21.2178 175.017 19.4524C175.017 17.687 175.424 16.3813 176.239 15.4159C177.054 14.4504 178.194 13.9723 179.667 13.9723C180.704 13.9723 181.667 14.2022 182.566 14.6619V16.3261C182.084 16.0963 181.658 15.9308 181.278 15.8388C180.908 15.7469 180.491 15.7009 180.037 15.7009C179.139 15.7009 178.462 16.0135 178.009 16.648C177.555 17.2824 177.323 18.2203 177.323 19.4616C177.323 21.9717 178.231 23.2222 180.037 23.2222C180.473 23.2222 180.889 23.1762 181.278 23.0751C181.677 22.974 182.121 22.8176 182.612 22.597V24.2612L182.631 24.252Z" fill="white"/>
<path d="M188.975 24.7486L188.855 24.2521C188.068 24.7119 187.28 24.9417 186.502 24.9417C185.724 24.9417 185.057 24.721 184.576 24.2797C184.094 23.8383 183.862 23.2499 183.862 22.4959C183.862 21.7419 184.131 21.1259 184.659 20.6937C185.187 20.2616 185.928 20.0501 186.882 20.0501C187.447 20.0501 188.021 20.1053 188.605 20.2156V19.618C188.605 19.1582 188.466 18.818 188.197 18.6065C187.929 18.3951 187.503 18.2847 186.928 18.2847C186.16 18.2847 185.317 18.4594 184.39 18.7904V17.3193C184.826 17.1538 185.298 17.0158 185.826 16.9147C186.345 16.8136 186.845 16.7676 187.308 16.7676C188.373 16.7676 189.189 17.0066 189.763 17.4848C190.328 17.9629 190.615 18.6525 190.615 19.5536V24.5739L188.985 24.7394L188.975 24.7486ZM187.123 23.4889C187.345 23.4889 187.586 23.4522 187.855 23.3878C188.123 23.3142 188.373 23.2315 188.605 23.1212V21.4845C188.142 21.3742 187.725 21.319 187.354 21.319C186.391 21.319 185.9 21.6868 185.9 22.4316C185.9 22.781 186.002 23.0476 186.206 23.2223C186.41 23.4062 186.715 23.4889 187.123 23.4889Z" fill="white"/>
<path d="M192.486 24.7028V17.1355L194.116 16.97L194.283 17.678C194.913 17.1079 195.617 16.8229 196.386 16.8229C196.626 16.8229 196.877 16.8597 197.145 16.924V18.5883C196.839 18.5147 196.58 18.4871 196.349 18.4871C195.654 18.4871 195.052 18.6802 194.533 19.0572V24.712H192.495L192.486 24.7028Z" fill="white"/>
<path d="M205.158 13.2368V24.5831L203.528 24.7487L203.407 24.2521C203.046 24.4636 202.666 24.6291 202.259 24.7578C201.851 24.8866 201.49 24.9417 201.156 24.9417C200.165 24.9417 199.396 24.5923 198.841 23.8935C198.285 23.1947 198.007 22.2201 198.007 20.988C198.007 19.6456 198.34 18.6158 198.998 17.8802C199.656 17.1446 200.582 16.7768 201.786 16.7768C202.221 16.7768 202.666 16.832 203.129 16.9423V13.4391L205.167 13.246L205.158 13.2368ZM201.731 23.3878C201.944 23.3878 202.175 23.3511 202.435 23.2775C202.694 23.2039 202.916 23.1028 203.12 22.9833V18.3859C202.805 18.3123 202.472 18.2847 202.12 18.2847C201.443 18.2847 200.943 18.5054 200.619 18.9376C200.295 19.3697 200.128 20.0409 200.128 20.9512C200.128 22.5787 200.665 23.397 201.731 23.397V23.3878Z" fill="white"/>
<path d="M211.077 24.703V14.4233C211.605 14.3222 212.189 14.2394 212.828 14.1842C213.467 14.1291 214.032 14.0923 214.504 14.0923C215.857 14.0923 216.894 14.3865 217.617 14.975C218.339 15.5634 218.701 16.4002 218.701 17.4943C218.701 18.5885 218.321 19.4161 217.561 20.0229C216.802 20.6298 215.755 20.9424 214.43 20.9424H213.189V24.703H211.077ZM214.43 15.6922C213.967 15.6922 213.55 15.7198 213.189 15.7841V19.3333H214.43C215.107 19.3333 215.625 19.177 215.987 18.8644C216.348 18.5517 216.533 18.1012 216.533 17.5035C216.533 16.299 215.829 15.6922 214.43 15.6922Z" fill="white"/>
<path d="M224.62 24.7486L224.499 24.2521C223.712 24.7119 222.924 24.9417 222.146 24.9417C221.368 24.9417 220.701 24.721 220.22 24.2797C219.738 23.8383 219.506 23.2499 219.506 22.4959C219.506 21.7419 219.775 21.1259 220.303 20.6937C220.831 20.2616 221.572 20.0501 222.526 20.0501C223.091 20.0501 223.665 20.1053 224.249 20.2156V19.618C224.249 19.1582 224.11 18.818 223.841 18.6065C223.573 18.3951 223.147 18.2847 222.572 18.2847C221.804 18.2847 220.961 18.4594 220.034 18.7904V17.3193C220.47 17.1538 220.942 17.0158 221.47 16.9147C221.989 16.8136 222.489 16.7676 222.952 16.7676C224.017 16.7676 224.833 17.0066 225.407 17.4848C225.972 17.9629 226.259 18.6525 226.259 19.5536V24.5739L224.629 24.7394L224.62 24.7486ZM222.767 23.4889C222.989 23.4889 223.23 23.4522 223.499 23.3878C223.767 23.3142 224.017 23.2315 224.249 23.1212V21.4845C223.786 21.3742 223.369 21.319 222.999 21.319C222.035 21.319 221.544 21.6868 221.544 22.4316C221.544 22.781 221.646 23.0476 221.85 23.2223C222.054 23.4062 222.359 23.4889 222.767 23.4889Z" fill="white"/>
<path d="M228.139 24.7028V17.1355L229.769 16.97L229.936 17.678C230.566 17.1079 231.27 16.8229 232.039 16.8229C232.28 16.8229 232.53 16.8597 232.798 16.924V18.5883C232.493 18.5147 232.233 18.4871 232.002 18.4871C231.307 18.4871 230.705 18.6802 230.186 19.0572V24.712H228.148L228.139 24.7028Z" fill="white"/>
<path d="M236.551 18.441V22.2936C236.551 23.0384 236.912 23.4154 237.625 23.4154C237.885 23.4154 238.209 23.3602 238.589 23.2499V24.6107C238.144 24.813 237.634 24.9141 237.06 24.9141C236.227 24.9141 235.587 24.7027 235.161 24.2705C234.726 23.8383 234.513 23.2131 234.513 22.3948V18.441H233.364V17.0894L234.615 17.0434L234.754 15.1125L236.551 14.9194V17.0158H238.542V18.441H236.551Z" fill="white"/>
<path d="M244.702 24.7027V19.6548C244.702 19.2042 244.6 18.8732 244.396 18.6617C244.192 18.4503 243.877 18.3399 243.442 18.3399C243.201 18.3399 242.951 18.3767 242.682 18.4503C242.423 18.5238 242.191 18.625 241.988 18.7445V24.7119H239.95V17.1446L241.58 16.9791L241.7 17.4756C242.488 17.0159 243.257 16.786 244.025 16.786C244.887 16.786 245.554 17.0159 246.026 17.4664C246.499 17.917 246.73 18.5606 246.73 19.3881V24.7119H244.692L244.702 24.7027Z" fill="white"/>
<path d="M254.817 24.3992C254.085 24.7578 253.27 24.9417 252.371 24.9417C251.046 24.9417 250.028 24.5923 249.324 23.8935C248.62 23.1947 248.268 22.1741 248.268 20.8317C248.268 20.0133 248.425 19.2961 248.74 18.6801C249.055 18.064 249.49 17.5951 250.046 17.2641C250.602 16.9331 251.232 16.7676 251.945 16.7676C252.955 16.7676 253.742 17.0526 254.316 17.6319C254.891 18.2112 255.178 18.9927 255.178 19.9949C255.178 20.4639 255.131 20.9236 255.039 21.3742H250.268C250.305 22.073 250.528 22.5879 250.917 22.9281C251.306 23.2683 251.88 23.4338 252.621 23.4338C253.362 23.4338 254.113 23.2683 254.807 22.9373V24.4084L254.817 24.3992ZM251.945 18.1836C251.473 18.1836 251.084 18.3491 250.787 18.6709C250.491 18.9927 250.305 19.4341 250.259 19.9949H253.307V19.7743C253.307 19.2502 253.186 18.8548 252.955 18.5881C252.723 18.3215 252.39 18.1836 251.945 18.1836Z" fill="white"/>
<path d="M256.762 24.7028V17.1355L258.392 16.97L258.559 17.678C259.189 17.1079 259.893 16.8229 260.661 16.8229C260.902 16.8229 261.152 16.8597 261.421 16.924V18.5883C261.115 18.5147 260.856 18.4871 260.624 18.4871C259.93 18.4871 259.328 18.6802 258.809 19.0572V24.712H256.771L256.762 24.7028Z" fill="white"/>
<path d="M269.73 24.9418C268.535 24.9418 267.618 24.5924 266.988 23.9028C266.358 23.2132 266.043 22.1926 266.043 20.8501C266.043 19.5077 266.358 18.5147 266.979 17.8159C267.6 17.1263 268.517 16.7769 269.73 16.7769C270.944 16.7769 271.851 17.1263 272.481 17.8159C273.102 18.5147 273.417 19.5261 273.417 20.8501C273.417 22.1742 273.102 23.204 272.472 23.9028C271.842 24.6016 270.925 24.9418 269.73 24.9418ZM269.73 23.3787C270.286 23.3787 270.684 23.1856 270.925 22.7902C271.166 22.3949 271.286 21.7512 271.286 20.8409C271.286 19.9307 271.166 19.2962 270.925 18.91C270.684 18.5239 270.286 18.3216 269.73 18.3216C269.174 18.3216 268.776 18.5147 268.535 18.91C268.294 19.3054 268.174 19.9399 268.174 20.8409C268.174 21.742 268.294 22.404 268.535 22.7902C268.776 23.1764 269.174 23.3787 269.73 23.3787Z" fill="white"/>
<path d="M275.483 24.7027V18.4411H274.334V17.0895L275.483 17.0435V15.8114C275.483 14.9655 275.714 14.2943 276.187 13.807C276.659 13.3196 277.298 13.0806 278.123 13.0806C278.66 13.0806 279.197 13.1817 279.734 13.384V14.7632C279.28 14.6437 278.919 14.5793 278.651 14.5793C278.289 14.5793 278.011 14.6805 277.817 14.8735C277.622 15.0666 277.52 15.3517 277.52 15.7379V17.0067H279.364V18.4319H277.52V24.6935H275.483V24.7027Z" fill="white"/>
<path d="M370.611 39.9514C371.213 39.9514 371.694 40.3744 371.694 40.9536C371.694 41.5329 371.213 41.9651 370.611 41.9651C370.009 41.9651 369.527 41.5329 369.527 40.9536C369.527 40.3744 370.009 39.9514 370.611 39.9514ZM370.611 42.2409C371.389 42.2409 372 41.6708 372 40.9536C372 40.2365 371.389 39.6664 370.611 39.6664C369.833 39.6664 369.221 40.2365 369.221 40.9536C369.221 41.6708 369.833 42.2409 370.611 42.2409ZM370.898 41.0824C371.157 41.064 371.287 40.9353 371.287 40.687C371.287 40.3376 371.065 40.2824 370.722 40.2824H370.018V41.6249H370.323V41.0916H370.583L370.916 41.6249H371.25L370.898 41.0916V41.0824ZM370.323 40.8433V40.5215H370.657C370.796 40.5215 370.99 40.5215 370.99 40.6686C370.99 40.8157 370.889 40.8433 370.731 40.8433H370.323Z" fill="white"/>
<path d="M295.96 0H362.107C365.664 0 368.564 2.86876 368.564 6.40875V35.7676C368.564 39.2984 365.674 42.1764 362.107 42.1764H295.96C292.403 42.1764 289.504 39.3076 289.504 35.7676V6.40875C289.504 2.86876 292.394 0 295.96 0Z" fill="white"/>
<path d="M365.145 3.38367C364.33 2.57453 363.256 2.13318 362.107 2.13318H343.609L354.252 19.7503L355.225 19.8699L355.79 20.6698V21.433L356.475 21.5525L357.087 22.3984V23.1248L357.772 23.2443C357.772 23.2443 358.457 23.9707 358.457 24.0075C358.457 23.9707 358.457 25.6534 358.457 25.6534C358.457 25.6534 359.958 27.0234 361.292 27.5383C362.228 27.8969 362.348 29.3864 362.876 30.1956C363.608 31.3173 364.58 31.8047 364.377 32.4483C363.895 34.1769 362.107 37.0733 360.449 37.2388C360.449 37.2388 356.318 37.2388 353.882 37.2388V40.0248H362.089C364.46 40.0248 366.387 38.1031 366.387 35.7492V6.40874C366.387 5.26859 365.942 4.1928 365.127 3.39286L365.145 3.38367Z" fill="#BC0022"/>
<path d="M337.31 2.13334H295.96C294.812 2.13334 293.728 2.57469 292.922 3.38383C292.107 4.19297 291.662 5.25956 291.662 6.39971V35.7586C291.662 36.8987 292.107 37.9745 292.922 38.7745C293.737 39.5836 294.812 40.0249 295.96 40.0249H322.823C322.147 38.9124 321.396 37.6435 321.156 37.2573H317.951C317.951 29.3774 320.655 24.9915 323.86 24.1456C324.305 24.0628 324.101 21.8929 323.536 21.2492C323.536 21.2492 321.998 21.286 321.674 21.2125C321.267 21.0929 321.554 20.6884 321.554 20.6884L323.054 17.4702L322.851 16.5875H317.302C317.219 16.5875 321.878 13.4061 321.878 13.4061C322.119 5.03888 330.752 4.39525 335.976 7.85248C339.061 9.90291 339.302 13.921 339.061 16.7438C339.024 16.9001 338.255 16.7806 338.255 16.7806C338.255 16.7806 337.727 19.8333 339.107 19.8333H345.184C347.657 19.7505 350.047 21.3964 350.047 21.3964L350.649 19.3L337.31 2.12415V2.13334ZM300.555 33.9932C298.924 33.9932 297.6 32.6783 297.6 31.0601C297.6 29.4418 298.924 28.1269 300.555 28.1269C302.185 28.1269 303.509 29.4418 303.509 31.0601C303.509 32.6783 302.194 33.9932 300.555 33.9932Z" fill="#041E42"/>
<path d="M13.2451 38.8902L14.2867 41.5351L15.3374 38.8902H16.1073L16.4425 42.8213H15.745L15.5367 39.9953L14.5766 42.4408H13.9878L13.0096 39.95L12.8013 42.8213H12.1129L12.448 38.8902H13.2451ZM9.83038 42.8213V39.488H8.66194V38.8902H11.7415V39.488H10.5731V42.8213H9.83038ZM17.2018 45.2306L19.4843 38.4283H20.3448L18.0622 45.2306H17.2018ZM24.2543 45.3665C23.6263 45.3665 23.0587 45.2155 22.5514 44.9136C22.0502 44.6056 21.6608 44.201 21.383 43.6998C21.1052 43.1987 20.9663 42.6522 20.9663 42.0604C20.9663 41.4264 21.1173 40.8557 21.4192 40.3485C21.7272 39.8413 22.1287 39.4488 22.6239 39.171C23.1251 38.8932 23.6686 38.7544 24.2543 38.7544C24.8823 38.7544 25.4469 38.9083 25.9481 39.2163C26.4553 39.5182 26.8478 39.9198 27.1256 40.421C27.4033 40.9222 27.5422 41.4686 27.5422 42.0604C27.5422 42.6944 27.3882 43.2651 27.0803 43.7723C26.7783 44.2795 26.3768 44.672 25.8756 44.9498C25.3804 45.2276 24.84 45.3665 24.2543 45.3665ZM24.2543 44.8502C24.7857 44.8502 25.2567 44.7264 25.6673 44.4788C26.0839 44.2252 26.404 43.887 26.6274 43.4643C26.8568 43.0417 26.9716 42.5737 26.9716 42.0604C26.9716 41.5109 26.8478 41.0248 26.6002 40.6021C26.3587 40.1734 26.0326 39.8443 25.622 39.6148C25.2114 39.3854 24.7555 39.2706 24.2543 39.2706C23.7229 39.2706 23.2489 39.3975 22.8322 39.6511C22.4216 39.8986 22.1016 40.2338 21.8721 40.6565C21.6487 41.0792 21.537 41.5471 21.537 42.0604C21.537 42.6099 21.6577 43.099 21.8993 43.5278C22.1469 43.9504 22.476 44.2765 22.8866 44.506C23.2972 44.7354 23.7531 44.8502 24.2543 44.8502ZM25.4227 43.8176C25.1087 43.9867 24.7555 44.0712 24.363 44.0712C23.8014 44.0712 23.3606 43.8931 23.0406 43.5368C22.7205 43.1805 22.5605 42.6884 22.5605 42.0604C22.5605 41.4324 22.7205 40.9403 23.0406 40.584C23.3666 40.2277 23.8074 40.0496 24.363 40.0496C24.7434 40.0496 25.0906 40.1341 25.4046 40.3032V40.8739C25.2476 40.7893 25.0966 40.7289 24.9517 40.6927C24.8128 40.6504 24.6589 40.6293 24.4898 40.6293C24.1335 40.6293 23.8527 40.7591 23.6474 41.0188C23.4481 41.2724 23.3485 41.6196 23.3485 42.0604C23.3485 42.5073 23.4481 42.8575 23.6474 43.1111C23.8527 43.3647 24.1335 43.4915 24.4898 43.4915C24.7857 43.4915 25.0966 43.41 25.4227 43.247V43.8176ZM30.6152 45.2306C30.6273 44.6871 30.736 44.2161 30.9413 43.8176C31.1527 43.4191 31.5059 43.0115 32.0011 42.5948L32.7619 41.9517C33.0699 41.6921 33.2903 41.4596 33.4231 41.2543C33.556 41.049 33.6224 40.8376 33.6224 40.6202C33.6224 40.3002 33.5046 40.0466 33.2691 39.8594C33.0397 39.6722 32.7257 39.5786 32.3271 39.5786C31.8078 39.5786 31.3006 39.7598 30.8054 40.1221V39.4246C31.2946 39.0684 31.8712 38.8902 32.5355 38.8902C32.928 38.8902 33.2721 38.9657 33.568 39.1167C33.87 39.2616 34.1024 39.4639 34.2655 39.7235C34.4285 39.9771 34.51 40.261 34.51 40.575C34.51 40.889 34.4255 41.1848 34.2564 41.4626C34.0934 41.7343 33.8126 42.0393 33.4141 42.3774L32.6894 42.9933C32.3513 43.2832 32.0947 43.5489 31.9195 43.7904C31.7444 44.032 31.6327 44.2735 31.5844 44.515H33.6858C34.036 44.515 34.3379 44.506 34.5915 44.4879V45.2306H30.6152ZM37.8706 44.6962C38.3416 44.6962 38.6858 44.4909 38.9032 44.0803C39.1206 43.6636 39.2293 43.0115 39.2293 42.1238C39.2293 41.2362 39.1176 40.587 38.8942 40.1764C38.6768 39.7658 38.3356 39.5605 37.8706 39.5605C37.4057 39.5605 37.0615 39.7658 36.8381 40.1764C36.6207 40.587 36.512 41.2362 36.512 42.1238C36.512 43.0115 36.6207 43.6636 36.8381 44.0803C37.0554 44.4909 37.3996 44.6962 37.8706 44.6962ZM37.8706 45.3665C36.3731 45.3665 35.6243 44.2856 35.6243 42.1238C35.6243 41.055 35.8115 40.2489 36.1859 39.7054C36.5603 39.162 37.1219 38.8902 37.8706 38.8902C38.6194 38.8902 39.181 39.162 39.5554 39.7054C39.9297 40.2489 40.1169 41.055 40.1169 42.1238C40.1169 44.2856 39.3682 45.3665 37.8706 45.3665ZM41.0082 45.2306C41.0203 44.6871 41.129 44.2161 41.3343 43.8176C41.5456 43.4191 41.8989 43.0115 42.394 42.5948L43.1549 41.9517C43.4628 41.6921 43.6832 41.4596 43.8161 41.2543C43.9489 41.049 44.0153 40.8376 44.0153 40.6202C44.0153 40.3002 43.8976 40.0466 43.6621 39.8594C43.4326 39.6722 43.1186 39.5786 42.7201 39.5786C42.2008 39.5786 41.6936 39.7598 41.1984 40.1221V39.4246C41.6875 39.0684 42.2642 38.8902 42.9284 38.8902C43.3209 38.8902 43.6651 38.9657 43.961 39.1167C44.2629 39.2616 44.4954 39.4639 44.6584 39.7235C44.8215 39.9771 44.903 40.261 44.903 40.575C44.903 40.889 44.8185 41.1848 44.6494 41.4626C44.4863 41.7343 44.2055 42.0393 43.807 42.3774L43.0824 42.9933C42.7442 43.2832 42.4876 43.5489 42.3125 43.7904C42.1374 44.032 42.0257 44.2735 41.9774 44.515H44.0787C44.429 44.515 44.7309 44.506 44.9845 44.4879V45.2306H41.0082ZM49.8577 39.5967C49.2297 39.6269 48.6923 39.7447 48.2455 39.95C47.7986 40.1492 47.4484 40.43 47.1948 40.7923C46.9472 41.1486 46.8023 41.5773 46.76 42.0785C46.9351 41.8611 47.1676 41.689 47.4575 41.5622C47.7473 41.4354 48.0492 41.372 48.3632 41.372C48.7316 41.372 49.0607 41.4626 49.3505 41.6438C49.6404 41.8189 49.8638 42.0574 50.0208 42.3593C50.1778 42.6552 50.2563 42.9813 50.2563 43.3375C50.2563 43.7482 50.1627 44.1074 49.9755 44.4154C49.7943 44.7173 49.5437 44.9528 49.2237 45.1219C48.9037 45.2849 48.5414 45.3665 48.1368 45.3665C47.6658 45.3665 47.2612 45.2578 46.9231 45.0404C46.5909 44.817 46.3373 44.4999 46.1622 44.0893C45.9931 43.6787 45.9086 43.1956 45.9086 42.6401C45.9086 41.8793 46.0626 41.2241 46.3705 40.6746C46.6785 40.119 47.1193 39.6903 47.693 39.3884C48.2666 39.0865 48.949 38.9204 49.74 38.8902L49.8577 39.5967ZM48.2092 42.0332C47.9315 42.0332 47.6597 42.1087 47.3941 42.2597C47.1284 42.4106 46.914 42.6129 46.751 42.8665C46.7751 43.4583 46.9049 43.9112 47.1404 44.2252C47.382 44.5392 47.7141 44.6962 48.1368 44.6962C48.5172 44.6962 48.8221 44.5754 49.0516 44.3339C49.2811 44.0863 49.3958 43.7632 49.3958 43.3647C49.3958 42.9662 49.2871 42.6461 49.0697 42.4046C48.8523 42.157 48.5655 42.0332 48.2092 42.0332ZM56.7646 44.6781L54.9984 40.1311L54.6542 45.2306H53.8209L54.3191 38.8902H55.3064L57.1269 43.5821L58.9475 38.8902H59.9348L60.433 45.2306H59.5906L59.2374 40.1311L57.4802 44.6781H56.7646ZM62.0295 45.2306V38.8902H62.9081V44.506H65.8246V45.2306H62.0295ZM66.9341 45.2306V39.0261C67.2541 38.9657 67.5922 38.9174 67.9485 38.8812C68.3048 38.8449 68.6158 38.8268 68.8815 38.8268C69.5879 38.8268 70.1284 38.9687 70.5028 39.2525C70.8832 39.5303 71.0734 39.9319 71.0734 40.4572C71.0734 40.8074 70.9768 41.1063 70.7836 41.3539C70.5964 41.6015 70.3186 41.7887 69.9503 41.9155C70.3971 42.0121 70.7413 42.1993 70.9828 42.4771C71.2304 42.7488 71.3542 43.093 71.3542 43.5096C71.3542 44.0652 71.161 44.4909 70.7745 44.7868C70.388 45.0826 69.8355 45.2306 69.117 45.2306H66.9341ZM69.0898 44.5603C69.5366 44.5603 69.8748 44.4667 70.1042 44.2795C70.3397 44.0863 70.4575 43.8055 70.4575 43.4372C70.4575 43.0749 70.3337 42.7971 70.0861 42.6039C69.8446 42.4046 69.5034 42.305 69.0626 42.305H67.7855V44.5603H69.0898ZM68.818 39.4971C68.5342 39.4971 68.19 39.5273 67.7855 39.5877V41.6528H68.9811C69.3615 41.6528 69.6604 41.5562 69.8778 41.363C70.1012 41.1637 70.2129 40.898 70.2129 40.5659C70.2129 39.8534 69.748 39.4971 68.818 39.4971ZM72.9052 45.2759C72.7421 45.2759 72.6093 45.2246 72.5066 45.1219C72.404 45.0192 72.3527 44.8864 72.3527 44.7234C72.3527 44.5603 72.404 44.4275 72.5066 44.3248C72.6093 44.2222 72.7421 44.1708 72.9052 44.1708C73.0682 44.1708 73.2011 44.2222 73.3037 44.3248C73.4064 44.4275 73.4577 44.5603 73.4577 44.7234C73.4577 44.8864 73.4064 45.0192 73.3037 45.1219C73.2011 45.2246 73.0682 45.2759 72.9052 45.2759Z" fill="white"/>
</svg>
