<svg width="386" height="66" viewBox="0 0 386 66" fill="none" xmlns="http://www.w3.org/2000/svg">
<path d="M8.78662 20.152C8.78662 18.2955 9.19906 16.8863 10.0335 15.9247C10.868 14.9536 12.0766 14.4775 13.6592 14.4775C15.2418 14.4775 16.4503 14.9631 17.2848 15.9247C18.1193 16.8959 18.5317 18.305 18.5317 20.152C18.5317 21.9991 18.1193 23.4177 17.2848 24.3794C16.4503 25.3505 15.2418 25.8265 13.6592 25.8265C12.0766 25.8265 10.868 25.341 10.0335 24.3794C9.19906 23.4082 8.78662 21.9991 8.78662 20.152ZM11.1462 20.152C11.1462 21.504 11.3476 22.5037 11.76 23.1321C12.1629 23.7605 12.8055 24.0747 13.6688 24.0747C14.532 24.0747 15.1651 23.7605 15.5775 23.1321C15.9899 22.5037 16.1914 21.504 16.1914 20.152C16.1914 18.8001 15.9899 17.8004 15.5775 17.172C15.1747 16.5436 14.532 16.2294 13.6688 16.2294C12.8055 16.2294 12.1629 16.5436 11.76 17.172C11.3572 17.8004 11.1462 18.8001 11.1462 20.152Z" fill="white"/>
<path d="M26.3013 25.5792V19.0954H22.925V25.5792H20.8149V19.0954H19.6255V17.6958L20.8149 17.6482V16.3724C20.8149 15.4965 21.0546 14.8014 21.5438 14.2968C22.033 13.7922 22.6948 13.5447 23.5485 13.5447C24.1048 13.5447 24.6131 13.6304 25.0831 13.8113V15.2394C24.7091 15.1442 24.3829 15.0966 24.0952 15.0966C23.7211 15.0966 23.4334 15.2013 23.2319 15.4013C23.0305 15.6012 22.925 15.8964 22.925 16.2962V17.6101H26.3013V16.3724C26.3013 15.4965 26.5411 14.8014 27.0302 14.2968C27.5098 13.7922 28.1812 13.5447 29.0349 13.5447C29.4857 13.5447 29.9461 13.6208 30.4065 13.7827V15.2108C30.1187 15.1347 29.8406 15.1061 29.5816 15.1061C29.2075 15.1061 28.9198 15.2108 28.7088 15.4108C28.4978 15.6107 28.4018 15.9059 28.4018 16.3058V17.6197H30.3106V19.0954H28.4018V25.5792H26.2917H26.3013ZM32.8332 16.3629C32.4399 16.3629 32.133 16.2582 31.9124 16.0487C31.6918 15.8392 31.5863 15.5536 31.5863 15.1918C31.5863 14.83 31.6918 14.5444 31.9124 14.3349C32.133 14.1255 32.4399 14.0207 32.8332 14.0207C33.2264 14.0207 33.543 14.1255 33.7636 14.3349C33.9842 14.5444 34.0993 14.83 34.0993 15.1918C34.0993 15.5536 33.9842 15.8392 33.7636 16.0487C33.543 16.2582 33.2264 16.3629 32.8332 16.3629ZM31.7877 25.5792V17.772L33.8979 17.5721V25.5792H31.7877Z" fill="white"/>
<path d="M41.8487 25.284C41.0526 25.6458 40.2277 25.8267 39.3645 25.8267C38.1368 25.8267 37.1872 25.4649 36.5254 24.7413C35.8635 24.0177 35.5278 22.9799 35.5278 21.6184C35.5278 20.2569 35.8539 19.2001 36.5254 18.467C37.1872 17.7339 38.1368 17.3625 39.3741 17.3625C40.1798 17.3625 40.9855 17.5434 41.8008 17.9052V19.4381C41.0526 19.1335 40.3812 18.9906 39.7961 18.9906C38.4245 18.9906 37.7339 19.857 37.7339 21.5803C37.7339 22.4372 37.9066 23.0847 38.2615 23.5321C38.6163 23.9796 39.1247 24.1891 39.8057 24.1891C40.3908 24.1891 41.0718 24.0368 41.8583 23.7416V25.2745L41.8487 25.284Z" fill="white"/>
<path d="M44.4676 16.3629C44.0744 16.3629 43.7674 16.2582 43.5468 16.0487C43.3262 15.8393 43.2207 15.5536 43.2207 15.1918C43.2207 14.83 43.3262 14.5444 43.5468 14.3349C43.7674 14.1255 44.0744 14.0208 44.4676 14.0208C44.8609 14.0208 45.1774 14.1255 45.398 14.3349C45.6186 14.5444 45.7337 14.83 45.7337 15.1918C45.7337 15.5536 45.6186 15.8393 45.398 16.0487C45.1774 16.2582 44.8609 16.3629 44.4676 16.3629ZM43.4221 25.5792V17.772L45.5323 17.5721V25.5792H43.4221Z" fill="white"/>
<path d="M52.4479 25.6268L52.3232 25.1126C51.5079 25.5887 50.6926 25.8267 49.8869 25.8267C49.0812 25.8267 48.3906 25.5982 47.8919 25.1412C47.3931 24.6842 47.1533 24.0748 47.1533 23.2941C47.1533 22.5134 47.4315 21.8755 47.9782 21.428C48.5249 20.9805 49.2923 20.7615 50.2802 20.7615C50.8653 20.7615 51.46 20.8187 52.0642 20.9329V20.3141C52.0642 19.838 51.9204 19.4857 51.6422 19.2667C51.3641 19.0478 50.9228 18.9335 50.3282 18.9335C49.532 18.9335 48.6592 19.1144 47.7 19.4572V17.9338C48.1509 17.7624 48.64 17.6196 49.1867 17.5149C49.7239 17.4102 50.2418 17.3625 50.7214 17.3625C51.8244 17.3625 52.6685 17.6101 53.2632 18.1052C53.8483 18.6003 54.1456 19.3144 54.1456 20.2474V25.4459L52.4575 25.6172L52.4479 25.6268ZM50.5296 24.3224C50.7598 24.3224 51.0092 24.2843 51.2873 24.2177C51.5655 24.1415 51.8244 24.0558 52.0642 23.9415V22.2468C51.5847 22.1326 51.153 22.0754 50.7694 22.0754C49.7718 22.0754 49.2635 22.4563 49.2635 23.2275C49.2635 23.5893 49.369 23.8654 49.58 24.0463C49.791 24.2367 50.1075 24.3224 50.5296 24.3224Z" fill="white"/>
<path d="M56.0933 25.5791V13.9064L58.2034 13.7064V25.5791H56.0933Z" fill="white"/>
<path d="M64.3315 25.5795V14.935C64.8399 14.8303 65.4442 14.7446 66.1348 14.6875C66.8254 14.6304 67.4392 14.5923 67.9764 14.5923C69.2808 14.5923 70.2688 14.8303 70.9498 15.3254C71.6308 15.811 71.9665 16.5155 71.9665 17.4486C71.9665 18.6006 71.3526 19.4004 70.1249 19.8669C70.8826 20.0573 71.4677 20.381 71.861 20.8476C72.2542 21.3141 72.4557 21.8949 72.4557 22.5899C72.4557 23.5515 72.1104 24.2942 71.4198 24.8083C70.7292 25.3224 69.7508 25.589 68.4655 25.589H64.3411L64.3315 25.5795ZM67.8805 16.2204C67.2378 16.2204 66.7486 16.2585 66.4129 16.3251V19.2385H68.1298C68.6766 19.2385 69.0986 19.1052 69.4151 18.8386C69.7316 18.5721 69.8851 18.2007 69.8851 17.7247C69.8851 17.2201 69.722 16.8392 69.3959 16.5917C69.0698 16.3441 68.5615 16.2204 67.89 16.2204H67.8805ZM68.3792 23.9514C69.6261 23.9514 70.2592 23.4373 70.2592 22.3995C70.2592 21.8949 70.0961 21.5045 69.77 21.2284C69.4439 20.9523 68.9739 20.819 68.3696 20.819H66.4129V23.9514H68.3792Z" fill="white"/>
<path d="M78.9206 25.6268L78.7959 25.1126C77.9806 25.5887 77.1653 25.8267 76.3596 25.8267C75.5539 25.8267 74.8633 25.5982 74.3645 25.1412C73.8658 24.6842 73.626 24.0748 73.626 23.2941C73.626 22.5134 73.9041 21.8755 74.4509 21.428C74.9976 20.9805 75.7649 20.7615 76.7529 20.7615C77.3379 20.7615 77.9326 20.8187 78.5369 20.9329V20.3141C78.5369 19.838 78.393 19.4857 78.1149 19.2667C77.8367 19.0478 77.3955 18.9335 76.8008 18.9335C76.0047 18.9335 75.1319 19.1144 74.1727 19.4572V17.9338C74.6235 17.7624 75.1127 17.6196 75.6594 17.5149C76.1965 17.4102 76.7145 17.3625 77.1941 17.3625C78.2971 17.3625 79.1412 17.6101 79.7359 18.1052C80.3209 18.6003 80.6183 19.3144 80.6183 20.2474V25.4459L78.9302 25.6172L78.9206 25.6268ZM77.0022 24.3224C77.2324 24.3224 77.4818 24.2843 77.76 24.2177C78.0381 24.1415 78.2971 24.0558 78.5369 23.9415V22.2468C78.0573 22.1326 77.6257 22.0754 77.242 22.0754C76.2445 22.0754 75.7361 22.4563 75.7361 23.2275C75.7361 23.5893 75.8416 23.8654 76.0527 24.0463C76.2637 24.2367 76.5802 24.3224 77.0022 24.3224Z" fill="white"/>
<path d="M87.4762 25.5792V20.3521C87.4762 19.8856 87.3707 19.5429 87.1596 19.3239C86.9486 19.1049 86.6225 18.9906 86.1717 18.9906C85.9223 18.9906 85.6634 19.0287 85.3852 19.1049C85.1166 19.1811 84.8768 19.2858 84.6658 19.4096V25.5887H82.5557V17.7529L84.2438 17.5815L84.3685 18.0957C85.1838 17.6196 85.9799 17.3816 86.776 17.3816C87.668 17.3816 88.3586 17.6196 88.8478 18.0861C89.337 18.5527 89.5767 19.2191 89.5767 20.076V25.5887H87.4666L87.4762 25.5792Z" fill="white"/>
<path d="M91.5532 25.5791V13.9064L93.6634 13.7064V20.9043L96.4354 17.61H98.8141L95.7448 21.1804L99.0443 25.5696H96.4929L93.6634 21.7707V25.5696H91.5532V25.5791Z" fill="white"/>
<path d="M108.857 25.6268L108.732 25.1126C107.917 25.5887 107.101 25.8267 106.296 25.8267C105.49 25.8267 104.799 25.5982 104.301 25.1412C103.802 24.6842 103.562 24.0748 103.562 23.2941C103.562 22.5134 103.84 21.8755 104.387 21.428C104.934 20.9805 105.701 20.7615 106.689 20.7615C107.274 20.7615 107.869 20.8187 108.473 20.9329V20.3141C108.473 19.838 108.329 19.4857 108.051 19.2667C107.773 19.0478 107.332 18.9335 106.737 18.9335C105.941 18.9335 105.068 19.1144 104.109 19.4572V17.9338C104.56 17.7624 105.049 17.6196 105.595 17.5149C106.133 17.4102 106.651 17.3625 107.13 17.3625C108.233 17.3625 109.077 17.6101 109.672 18.1052C110.257 18.6003 110.554 19.3144 110.554 20.2474V25.4459L108.866 25.6172L108.857 25.6268ZM106.938 24.3224C107.168 24.3224 107.418 24.2843 107.696 24.2177C107.974 24.1415 108.233 24.0558 108.473 23.9415V22.2468C107.993 22.1326 107.562 22.0754 107.178 22.0754C106.181 22.0754 105.672 22.4563 105.672 23.2275C105.672 23.5893 105.778 23.8654 105.989 24.0463C106.2 24.2367 106.516 24.3224 106.938 24.3224Z" fill="white"/>
<path d="M117.412 25.5792V20.3521C117.412 19.8856 117.307 19.5429 117.096 19.3239C116.885 19.1049 116.559 18.9906 116.108 18.9906C115.858 18.9906 115.599 19.0287 115.321 19.1049C115.053 19.1811 114.813 19.2858 114.602 19.4096V25.5887H112.492V17.7529L114.18 17.5815L114.305 18.0957C115.12 17.6196 115.916 17.3816 116.712 17.3816C117.604 17.3816 118.295 17.6196 118.784 18.0861C119.273 18.5527 119.513 19.2191 119.513 20.076V25.5887H117.403L117.412 25.5792Z" fill="white"/>
<path d="M128.509 13.7064V25.4553L126.821 25.6267L126.696 25.1126C126.322 25.3315 125.929 25.5029 125.507 25.6362C125.085 25.7695 124.711 25.8266 124.366 25.8266C123.339 25.8266 122.543 25.4648 121.968 24.7412C121.392 24.0176 121.104 23.0084 121.104 21.7326C121.104 20.3425 121.45 19.2762 122.131 18.5145C122.812 17.7528 123.771 17.372 125.018 17.372C125.469 17.372 125.929 17.4291 126.409 17.5434V13.9159L128.519 13.7159L128.509 13.7064ZM124.96 24.2176C125.181 24.2176 125.421 24.1795 125.689 24.1033C125.958 24.0272 126.188 23.9224 126.399 23.7987V19.0382C126.073 18.962 125.728 18.9334 125.363 18.9334C124.663 18.9334 124.145 19.1619 123.809 19.6094C123.474 20.0569 123.301 20.7519 123.301 21.6945C123.301 23.3797 123.857 24.2271 124.96 24.2271V24.2176Z" fill="white"/>
<path d="M142.072 25.1125C141.132 25.5885 140.116 25.8265 139.003 25.8265C137.468 25.8265 136.289 25.3315 135.444 24.3508C134.6 23.3701 134.188 21.9705 134.188 20.1425C134.188 18.3145 134.61 16.9625 135.454 15.9628C136.298 14.9631 137.478 14.468 139.003 14.468C140.077 14.468 141.075 14.706 142.005 15.1821V16.9054C141.506 16.6674 141.065 16.496 140.672 16.4008C140.288 16.3056 139.857 16.258 139.387 16.258C138.456 16.258 137.756 16.5817 137.286 17.2386C136.816 17.8956 136.576 18.8667 136.576 20.152C136.576 22.7513 137.516 24.0461 139.387 24.0461C139.837 24.0461 140.269 23.9985 140.672 23.8938C141.084 23.7891 141.545 23.6272 142.053 23.3987V25.122L142.072 25.1125Z" fill="white"/>
<path d="M143.742 25.5793V17.7435L145.43 17.5721L145.602 18.3053C146.255 17.715 146.984 17.4198 147.78 17.4198C148.029 17.4198 148.288 17.4579 148.566 17.5245V19.2478C148.25 19.1717 147.981 19.1431 147.741 19.1431C147.022 19.1431 146.399 19.343 145.861 19.7334V25.5888H143.751L143.742 25.5793Z" fill="white"/>
<path d="M156.229 25.265C155.471 25.6363 154.627 25.8267 153.697 25.8267C152.325 25.8267 151.27 25.4649 150.541 24.7413C149.812 24.0177 149.448 22.9609 149.448 21.5708C149.448 20.7235 149.611 19.9808 149.937 19.3429C150.263 18.705 150.714 18.2194 151.289 17.8767C151.865 17.5339 152.517 17.3625 153.256 17.3625C154.301 17.3625 155.116 17.6577 155.711 18.2575C156.306 18.8573 156.603 19.6666 156.603 20.7044C156.603 21.19 156.555 21.666 156.459 22.1326H151.52C151.558 22.8562 151.788 23.3893 152.191 23.7416C152.594 24.0939 153.189 24.2653 153.956 24.2653C154.723 24.2653 155.5 24.0939 156.219 23.7511V25.2745L156.229 25.265ZM153.256 18.8288C152.766 18.8288 152.364 19.0002 152.057 19.3334C151.75 19.6666 151.558 20.1236 151.51 20.7044H154.666V20.4759C154.666 19.9332 154.541 19.5238 154.301 19.2477C154.061 18.9716 153.716 18.8288 153.256 18.8288Z" fill="white"/>
<path d="M165.265 13.7064V25.4553L163.576 25.6267L163.452 25.1126C163.078 25.3315 162.684 25.5029 162.262 25.6362C161.84 25.7695 161.466 25.8266 161.121 25.8266C160.095 25.8266 159.299 25.4648 158.723 24.7412C158.148 24.0176 157.86 23.0084 157.86 21.7326C157.86 20.3425 158.205 19.2762 158.886 18.5145C159.567 17.7528 160.526 17.372 161.773 17.372C162.224 17.372 162.684 17.4291 163.164 17.5434V13.9159L165.274 13.7159L165.265 13.7064ZM161.716 24.2176C161.936 24.2176 162.176 24.1795 162.445 24.1033C162.713 24.0272 162.943 23.9224 163.154 23.7987V19.0382C162.828 18.962 162.483 18.9334 162.119 18.9334C161.418 18.9334 160.9 19.1619 160.565 19.6094C160.229 20.0569 160.056 20.7519 160.056 21.6945C160.056 23.3797 160.613 24.2271 161.716 24.2271V24.2176Z" fill="white"/>
<path d="M168.344 16.3629C167.95 16.3629 167.643 16.2582 167.423 16.0487C167.202 15.8393 167.097 15.5536 167.097 15.1918C167.097 14.83 167.202 14.5444 167.423 14.3349C167.643 14.1255 167.95 14.0208 168.344 14.0208C168.737 14.0208 169.053 14.1255 169.274 14.3349C169.495 14.5444 169.61 14.83 169.61 15.1918C169.61 15.5536 169.495 15.8393 169.274 16.0487C169.053 16.2582 168.737 16.3629 168.344 16.3629ZM167.298 25.5792V17.772L169.408 17.5721V25.5792H167.298Z" fill="white"/>
<path d="M174.051 19.0953V23.0846C174.051 23.8558 174.425 24.2461 175.163 24.2461C175.432 24.2461 175.767 24.189 176.161 24.0747V25.4838C175.7 25.6933 175.173 25.798 174.578 25.798C173.715 25.798 173.053 25.5791 172.612 25.1316C172.161 24.6841 171.94 24.0367 171.94 23.1893V19.0953H170.751V17.6957L172.046 17.6481L172.19 15.6487L174.051 15.4487V17.6195H176.113V19.0953H174.051Z" fill="white"/>
<path d="M189.11 25.1125C188.17 25.5885 187.153 25.8265 186.041 25.8265C184.506 25.8265 183.326 25.3315 182.482 24.3508C181.638 23.3701 181.226 21.9705 181.226 20.1425C181.226 18.3145 181.648 16.9625 182.492 15.9628C183.336 14.9631 184.516 14.468 186.041 14.468C187.115 14.468 188.112 14.706 189.043 15.1821V16.9054C188.544 16.6674 188.103 16.496 187.71 16.4008C187.326 16.3056 186.894 16.258 186.424 16.258C185.494 16.258 184.794 16.5817 184.324 17.2386C183.854 17.8956 183.614 18.8667 183.614 20.152C183.614 22.7513 184.554 24.0461 186.424 24.0461C186.875 24.0461 187.307 23.9985 187.71 23.8938C188.122 23.7891 188.582 23.6272 189.091 23.3987V25.122L189.11 25.1125Z" fill="white"/>
<path d="M195.68 25.6268L195.555 25.1126C194.74 25.5887 193.925 25.8267 193.119 25.8267C192.313 25.8267 191.623 25.5982 191.124 25.1412C190.625 24.6842 190.385 24.0748 190.385 23.2941C190.385 22.5134 190.663 21.8755 191.21 21.428C191.757 20.9805 192.524 20.7615 193.512 20.7615C194.097 20.7615 194.692 20.8187 195.296 20.9329V20.3141C195.296 19.838 195.152 19.4857 194.874 19.2667C194.596 19.0478 194.155 18.9335 193.56 18.9335C192.764 18.9335 191.891 19.1144 190.932 19.4572V17.9338C191.383 17.7624 191.872 17.6196 192.419 17.5149C192.956 17.4102 193.474 17.3625 193.953 17.3625C195.056 17.3625 195.9 17.6101 196.495 18.1052C197.08 18.6003 197.378 19.3144 197.378 20.2474V25.4459L195.689 25.6172L195.68 25.6268ZM193.762 24.3224C193.992 24.3224 194.241 24.2843 194.519 24.2177C194.797 24.1415 195.056 24.0558 195.296 23.9415V22.2468C194.817 22.1326 194.385 22.0754 194.001 22.0754C193.004 22.0754 192.495 22.4563 192.495 23.2275C192.495 23.5893 192.601 23.8654 192.812 24.0463C193.023 24.2367 193.339 24.3224 193.762 24.3224Z" fill="white"/>
<path d="M199.315 25.5793V17.7435L201.003 17.5721L201.176 18.3053C201.828 17.715 202.557 17.4198 203.353 17.4198C203.602 17.4198 203.861 17.4579 204.14 17.5245V19.2478C203.823 19.1717 203.554 19.1431 203.315 19.1431C202.595 19.1431 201.972 19.343 201.435 19.7334V25.5888H199.325L199.315 25.5793Z" fill="white"/>
<path d="M212.436 13.7064V25.4553L210.748 25.6267L210.623 25.1126C210.249 25.3315 209.856 25.5029 209.434 25.6362C209.012 25.7695 208.638 25.8266 208.292 25.8266C207.266 25.8266 206.47 25.4648 205.894 24.7412C205.319 24.0176 205.031 23.0084 205.031 21.7326C205.031 20.3425 205.377 19.2762 206.058 18.5145C206.739 17.7528 207.698 17.372 208.945 17.372C209.395 17.372 209.856 17.4291 210.335 17.5434V13.9159L212.446 13.7159L212.436 13.7064ZM208.887 24.2176C209.108 24.2176 209.347 24.1795 209.616 24.1033C209.885 24.0272 210.115 23.9224 210.326 23.7987V19.0382C210 18.962 209.654 18.9334 209.29 18.9334C208.59 18.9334 208.072 19.1619 207.736 19.6094C207.4 20.0569 207.228 20.7519 207.228 21.6945C207.228 23.3797 207.784 24.2271 208.887 24.2271V24.2176Z" fill="white"/>
<path d="M218.565 25.5795V14.935C219.112 14.8303 219.716 14.7446 220.378 14.6875C221.04 14.6304 221.625 14.5923 222.114 14.5923C223.515 14.5923 224.589 14.897 225.337 15.5063C226.085 16.1156 226.459 16.9821 226.459 18.115C226.459 19.248 226.066 20.1049 225.28 20.7333C224.493 21.3617 223.409 21.6854 222.038 21.6854H220.752V25.5795H218.565ZM222.038 16.2489C221.558 16.2489 221.126 16.2775 220.752 16.3441V20.0192H222.038C222.738 20.0192 223.275 19.8574 223.649 19.5337C224.023 19.21 224.215 18.7434 224.215 18.1246C224.215 16.8773 223.486 16.2489 222.038 16.2489Z" fill="white"/>
<path d="M232.589 25.6268L232.464 25.1126C231.649 25.5887 230.833 25.8267 230.028 25.8267C229.222 25.8267 228.531 25.5982 228.033 25.1412C227.534 24.6842 227.294 24.0748 227.294 23.2941C227.294 22.5134 227.572 21.8755 228.119 21.428C228.666 20.9805 229.433 20.7615 230.421 20.7615C231.006 20.7615 231.601 20.8187 232.205 20.9329V20.3141C232.205 19.838 232.061 19.4857 231.783 19.2667C231.505 19.0478 231.063 18.9335 230.469 18.9335C229.673 18.9335 228.8 19.1144 227.841 19.4572V17.9338C228.291 17.7624 228.781 17.6196 229.327 17.5149C229.865 17.4102 230.382 17.3625 230.862 17.3625C231.965 17.3625 232.809 17.6101 233.404 18.1052C233.989 18.6003 234.286 19.3144 234.286 20.2474V25.4459L232.598 25.6172L232.589 25.6268ZM230.67 24.3224C230.9 24.3224 231.15 24.2843 231.428 24.2177C231.706 24.1415 231.965 24.0558 232.205 23.9415V22.2468C231.725 22.1326 231.294 22.0754 230.91 22.0754C229.912 22.0754 229.404 22.4563 229.404 23.2275C229.404 23.5893 229.51 23.8654 229.721 24.0463C229.932 24.2367 230.248 24.3224 230.67 24.3224Z" fill="white"/>
<path d="M236.233 25.5793V17.7435L237.921 17.5721L238.094 18.3053C238.746 17.715 239.475 17.4198 240.271 17.4198C240.52 17.4198 240.779 17.4579 241.058 17.5245V19.2478C240.741 19.1717 240.472 19.1431 240.233 19.1431C239.513 19.1431 238.89 19.343 238.353 19.7334V25.5888H236.242L236.233 25.5793Z" fill="white"/>
<path d="M244.943 19.0953V23.0846C244.943 23.8558 245.317 24.2461 246.055 24.2461C246.324 24.2461 246.659 24.189 247.053 24.0747V25.4838C246.592 25.6933 246.065 25.798 245.47 25.798C244.607 25.798 243.945 25.5791 243.504 25.1316C243.053 24.6841 242.832 24.0367 242.832 23.1893V19.0953H241.643V17.6957L242.938 17.6481L243.082 15.6487L244.943 15.4487V17.6195H247.005V19.0953H244.943Z" fill="white"/>
<path d="M253.383 25.5792V20.3521C253.383 19.8856 253.277 19.5429 253.066 19.3239C252.855 19.1049 252.529 18.9906 252.078 18.9906C251.829 18.9906 251.57 19.0287 251.292 19.1049C251.023 19.1811 250.784 19.2858 250.573 19.4096V25.5887H248.462V17.7529L250.151 17.5815L250.275 18.0957C251.091 17.6196 251.887 17.3816 252.683 17.3816C253.575 17.3816 254.265 17.6196 254.755 18.0861C255.244 18.5527 255.483 19.2191 255.483 20.076V25.5887H253.373L253.383 25.5792Z" fill="white"/>
<path d="M263.857 25.265C263.099 25.6363 262.255 25.8267 261.325 25.8267C259.953 25.8267 258.898 25.4649 258.169 24.7413C257.44 24.0177 257.076 22.9609 257.076 21.5708C257.076 20.7235 257.239 19.9808 257.565 19.3429C257.891 18.705 258.342 18.2194 258.917 17.8767C259.493 17.5339 260.145 17.3625 260.884 17.3625C261.929 17.3625 262.744 17.6577 263.339 18.2575C263.934 18.8573 264.231 19.6666 264.231 20.7044C264.231 21.19 264.183 21.666 264.087 22.1326H259.147C259.186 22.8562 259.416 23.3893 259.819 23.7416C260.222 24.0939 260.816 24.2653 261.584 24.2653C262.351 24.2653 263.128 24.0939 263.847 23.7511V25.2745L263.857 25.265ZM260.884 18.8288C260.394 18.8288 259.992 19.0002 259.685 19.3334C259.378 19.6666 259.186 20.1236 259.138 20.7044H262.294V20.4759C262.294 19.9332 262.169 19.5238 261.929 19.2477C261.689 18.9716 261.344 18.8288 260.884 18.8288Z" fill="white"/>
<path d="M265.871 25.5793V17.7435L267.559 17.5721L267.732 18.3053C268.384 17.715 269.113 17.4198 269.909 17.4198C270.159 17.4198 270.418 17.4579 270.696 17.5245V19.2478C270.379 19.1717 270.111 19.1431 269.871 19.1431C269.151 19.1431 268.528 19.343 267.991 19.7334V25.5888H265.881L265.871 25.5793Z" fill="white"/>
<path d="M279.3 25.8267C278.063 25.8267 277.113 25.4649 276.461 24.7508C275.809 24.0368 275.482 22.9799 275.482 21.5899C275.482 20.1998 275.809 19.1715 276.451 18.4479C277.094 17.7339 278.043 17.3721 279.3 17.3721C280.556 17.3721 281.496 17.7339 282.149 18.4479C282.791 19.1715 283.117 20.2188 283.117 21.5899C283.117 22.9609 282.791 24.0272 282.139 24.7508C281.487 25.4744 280.537 25.8267 279.3 25.8267ZM279.3 24.2081C279.875 24.2081 280.288 24.0082 280.537 23.5988C280.787 23.1894 280.911 22.5229 280.911 21.5803C280.911 20.6378 280.787 19.9808 280.537 19.5809C280.288 19.1811 279.875 18.9716 279.3 18.9716C278.724 18.9716 278.312 19.1715 278.063 19.5809C277.813 19.9903 277.689 20.6473 277.689 21.5803C277.689 22.5134 277.813 23.1989 278.063 23.5988C278.312 23.9987 278.724 24.2081 279.3 24.2081Z" fill="white"/>
<path d="M285.256 25.5792V19.0954H284.066V17.6958L285.256 17.6482V16.3724C285.256 15.4965 285.496 14.8014 285.985 14.2968C286.474 13.7922 287.136 13.5447 287.989 13.5447C288.546 13.5447 289.102 13.6494 289.658 13.8589V15.287C289.188 15.1632 288.814 15.0966 288.536 15.0966C288.162 15.0966 287.874 15.2013 287.673 15.4013C287.471 15.6012 287.366 15.8964 287.366 16.2962V17.6101H289.275V19.0859H287.366V25.5697H285.256V25.5792Z" fill="white"/>
<path d="M383.759 41.3688C384.383 41.3688 384.881 41.8067 384.881 42.4065C384.881 43.0064 384.383 43.4539 383.759 43.4539C383.136 43.4539 382.637 43.0064 382.637 42.4065C382.637 41.8067 383.136 41.3688 383.759 41.3688ZM383.759 43.7395C384.565 43.7395 385.198 43.1492 385.198 42.4065C385.198 41.6639 384.565 41.0736 383.759 41.0736C382.953 41.0736 382.32 41.6639 382.32 42.4065C382.32 43.1492 382.953 43.7395 383.759 43.7395ZM384.056 42.5398C384.325 42.5208 384.459 42.3875 384.459 42.1304C384.459 41.7686 384.229 41.7115 383.874 41.7115H383.145V43.1016H383.462V42.5494H383.73L384.076 43.1016H384.421L384.056 42.5494V42.5398ZM383.462 42.2923V41.9591H383.807C383.951 41.9591 384.152 41.9591 384.152 42.1114C384.152 42.2637 384.047 42.2923 383.884 42.2923H383.462Z" fill="white"/>
<path d="M306.46 0H374.954C378.637 0 381.64 2.97054 381.64 6.63612V37.0366C381.64 40.6927 378.647 43.6727 374.954 43.6727H306.46C302.777 43.6727 299.775 40.7022 299.775 37.0366V6.63612C299.775 2.97054 302.767 0 306.46 0Z" fill="white"/>
<path d="M378.1 3.50372C377.256 2.66587 376.143 2.20886 374.954 2.20886H355.799L366.82 20.4511L367.827 20.5748L368.412 21.4032V22.1934L369.122 22.3172L369.755 23.1931V23.9453L370.465 24.069C370.465 24.069 371.175 24.8212 371.175 24.8593C371.175 24.8212 371.175 26.5635 371.175 26.5635C371.175 26.5635 372.729 27.9821 374.11 28.5153C375.079 28.8866 375.203 30.429 375.75 31.2669C376.508 32.4284 377.515 32.9331 377.304 33.5995C376.805 35.3895 374.954 38.3886 373.237 38.56C373.237 38.56 368.959 38.56 366.436 38.56V41.4448H374.935C377.39 41.4448 379.385 39.4549 379.385 37.0176V6.63612C379.385 5.45551 378.925 4.34156 378.081 3.51324L378.1 3.50372Z" fill="#BC0022"/>
<path d="M349.277 2.20911H306.46C305.271 2.20911 304.149 2.66611 303.314 3.50396C302.47 4.3418 302.01 5.44624 302.01 6.62684V37.0273C302.01 38.2079 302.47 39.3219 303.314 40.1502C304.158 40.988 305.271 41.4451 306.46 41.4451H334.276C333.576 40.293 332.799 38.9791 332.55 38.5792H329.231C329.231 30.4198 332.032 25.8783 335.35 25.0023C335.811 24.9166 335.6 22.6697 335.015 22.0032C335.015 22.0032 333.422 22.0413 333.087 21.9651C332.665 21.8414 332.962 21.4224 332.962 21.4224L334.516 18.0901L334.305 17.1761H328.559C328.473 17.1761 333.298 13.8818 333.298 13.8818C333.547 5.21774 342.487 4.55127 347.896 8.13115C351.09 10.2543 351.34 14.415 351.09 17.3379C351.052 17.4998 350.256 17.376 350.256 17.376C350.256 17.376 349.709 20.537 351.138 20.537H357.43C359.991 20.4513 362.466 22.1556 362.466 22.1556L363.089 19.9848L349.277 2.19958V2.20911ZM311.218 35.1993C309.53 35.1993 308.158 33.8378 308.158 32.1621C308.158 30.4864 309.53 29.1249 311.218 29.1249C312.906 29.1249 314.277 30.4864 314.277 32.1621C314.277 33.8378 312.915 35.1993 311.218 35.1993Z" fill="#041E42"/>
<path d="M13.7154 39.9508L14.794 42.6895L15.882 39.9508H16.6792L17.0262 44.0213H16.304L16.0883 41.095L15.0941 43.6274H14.4845L13.4716 41.0481L13.2558 44.0213H12.543L12.8901 39.9508H13.7154ZM10.1795 44.0213V40.5698H8.96962V39.9508H12.1585V40.5698H10.9486V44.0213H10.1795ZM17.8124 46.5161L20.1759 39.4725H21.0669L18.7034 46.5161H17.8124ZM25.1152 46.6568C24.4649 46.6568 23.8771 46.5005 23.3519 46.1878C22.8329 45.869 22.4296 45.45 22.142 44.9311C21.8544 44.4121 21.7106 43.8462 21.7106 43.2335C21.7106 42.5769 21.8669 41.986 22.1795 41.4608C22.4984 40.9356 22.9142 40.5292 23.4269 40.2416C23.9459 39.9539 24.5086 39.8101 25.1152 39.8101C25.7654 39.8101 26.3501 39.9696 26.869 40.2884C27.3943 40.6011 27.8007 41.0169 28.0883 41.5359C28.3759 42.0548 28.5197 42.6207 28.5197 43.2335C28.5197 43.89 28.3603 44.4809 28.0414 45.0061C27.7288 45.5313 27.313 45.9377 26.794 46.2254C26.2813 46.513 25.7217 46.6568 25.1152 46.6568ZM25.1152 46.1222C25.6654 46.1222 26.1531 45.994 26.5783 45.7377C27.0097 45.475 27.3411 45.1249 27.5725 44.6872C27.8101 44.2495 27.9289 43.7649 27.9289 43.2335C27.9289 42.6645 27.8007 42.1611 27.5443 41.7234C27.2942 41.2795 26.9566 40.9387 26.5314 40.7011C26.1062 40.4635 25.6341 40.3447 25.1152 40.3447C24.5649 40.3447 24.0741 40.476 23.6427 40.7386C23.2175 40.995 22.8861 41.342 22.6485 41.7797C22.4171 42.2174 22.3015 42.702 22.3015 43.2335C22.3015 43.8025 22.4265 44.3089 22.6766 44.7529C22.933 45.1905 23.2737 45.5282 23.6989 45.7658C24.1241 46.0034 24.5962 46.1222 25.1152 46.1222ZM26.3251 45.053C25.9999 45.2281 25.6341 45.3156 25.2277 45.3156C24.6462 45.3156 24.1898 45.1311 23.8584 44.7622C23.527 44.3933 23.3613 43.8837 23.3613 43.2335C23.3613 42.5832 23.527 42.0736 23.8584 41.7047C24.196 41.3358 24.6525 41.1513 25.2277 41.1513C25.6216 41.1513 25.9812 41.2389 26.3063 41.4139V42.0048C26.1437 41.9173 25.9874 41.8547 25.8373 41.8172C25.6935 41.7735 25.5341 41.7516 25.359 41.7516C24.9901 41.7516 24.6994 41.886 24.4868 42.1549C24.2804 42.4175 24.1773 42.777 24.1773 43.2335C24.1773 43.6962 24.2804 44.0588 24.4868 44.3214C24.6994 44.584 24.9901 44.7153 25.359 44.7153C25.6654 44.7153 25.9874 44.6309 26.3251 44.4621V45.053ZM31.7018 46.5161C31.7143 45.9534 31.8268 45.4657 32.0394 45.053C32.2583 44.6403 32.6241 44.2183 33.1368 43.7868L33.9246 43.1209C34.2435 42.852 34.4717 42.6113 34.6093 42.3987C34.7468 42.1861 34.8156 41.9673 34.8156 41.7422C34.8156 41.4108 34.6937 41.1482 34.4498 40.9544C34.2122 40.7605 33.8871 40.6636 33.4744 40.6636C32.9367 40.6636 32.4115 40.8512 31.8988 41.2263V40.5042C32.4052 40.1353 33.0024 39.9508 33.6901 39.9508C34.0966 39.9508 34.453 40.029 34.7594 40.1853C35.072 40.3353 35.3127 40.5448 35.4815 40.8137C35.6504 41.0763 35.7348 41.3702 35.7348 41.6953C35.7348 42.0204 35.6472 42.3268 35.4722 42.6144C35.3033 42.8958 35.0126 43.2116 34.5999 43.5617L33.8496 44.1995C33.4994 44.4996 33.2337 44.7747 33.0524 45.0248C32.871 45.275 32.7554 45.5251 32.7053 45.7752H34.8813C35.2439 45.7752 35.5566 45.7658 35.8192 45.747V46.5161H31.7018ZM39.2146 45.9628C39.7023 45.9628 40.0587 45.7502 40.2838 45.325C40.5089 44.8935 40.6215 44.2183 40.6215 43.2991C40.6215 42.38 40.5058 41.7078 40.2744 41.2826C40.0493 40.8574 39.6961 40.6448 39.2146 40.6448C38.7331 40.6448 38.3767 40.8574 38.1454 41.2826C37.9203 41.7078 37.8078 42.38 37.8078 43.2991C37.8078 44.2183 37.9203 44.8935 38.1454 45.325C38.3705 45.7502 38.7269 45.9628 39.2146 45.9628ZM39.2146 46.6568C37.6639 46.6568 36.8886 45.5376 36.8886 43.2991C36.8886 42.1924 37.0824 41.3577 37.4701 40.7949C37.8578 40.2322 38.4393 39.9508 39.2146 39.9508C39.9899 39.9508 40.5714 40.2322 40.9591 40.7949C41.3468 41.3577 41.5406 42.1924 41.5406 43.2991C41.5406 45.5376 40.7653 46.6568 39.2146 46.6568ZM42.4635 46.5161C42.476 45.9534 42.5885 45.4657 42.8011 45.053C43.02 44.6403 43.3858 44.2183 43.8985 43.7868L44.6863 43.1209C45.0052 42.852 45.2334 42.6113 45.371 42.3987C45.5085 42.1861 45.5773 41.9673 45.5773 41.7422C45.5773 41.4108 45.4554 41.1482 45.2115 40.9544C44.9739 40.7605 44.6488 40.6636 44.2361 40.6636C43.6984 40.6636 43.1732 40.8512 42.6604 41.2263V40.5042C43.1669 40.1353 43.764 39.9508 44.4518 39.9508C44.8583 39.9508 45.2147 40.029 45.521 40.1853C45.8337 40.3353 46.0744 40.5448 46.2432 40.8137C46.412 41.0763 46.4965 41.3702 46.4965 41.6953C46.4965 42.0204 46.4089 42.3268 46.2338 42.6144C46.065 42.8958 45.7743 43.2116 45.3616 43.5617L44.6113 44.1995C44.2611 44.4996 43.9954 44.7747 43.8141 45.0248C43.6327 45.275 43.5171 45.5251 43.467 45.7752H45.643C46.0056 45.7752 46.3183 45.7658 46.5809 45.747V46.5161H42.4635ZM51.627 40.6824C50.9767 40.7136 50.4202 40.8356 49.9575 41.0481C49.4948 41.2545 49.1322 41.5452 48.8696 41.9204C48.6132 42.2893 48.4631 42.7332 48.4194 43.2522C48.6007 43.0271 48.8414 42.8489 49.1416 42.7176C49.4417 42.5863 49.7543 42.5207 50.0795 42.5207C50.4609 42.5207 50.8016 42.6144 51.1018 42.802C51.4019 42.9834 51.6333 43.2303 51.7958 43.543C51.9584 43.8493 52.0397 44.187 52.0397 44.5559C52.0397 44.9811 51.9428 45.3531 51.7489 45.672C51.5613 45.9846 51.3019 46.2285 50.9705 46.4036C50.6391 46.5724 50.2639 46.6568 49.845 46.6568C49.3573 46.6568 48.9383 46.5443 48.5882 46.3192C48.2443 46.0878 47.9817 45.7595 47.8004 45.3344C47.6253 44.9092 47.5377 44.409 47.5377 43.8337C47.5377 43.0459 47.6972 42.3675 48.0161 41.7985C48.335 41.2232 48.7914 40.7793 49.3854 40.4666C49.9794 40.154 50.686 39.9821 51.5051 39.9508L51.627 40.6824ZM49.92 43.2053C49.6324 43.2053 49.351 43.2835 49.0759 43.4398C48.8008 43.5961 48.5788 43.8056 48.41 44.0682C48.435 44.681 48.5694 45.1499 48.8133 45.475C49.0634 45.8002 49.4073 45.9628 49.845 45.9628C50.2389 45.9628 50.5547 45.8377 50.7923 45.5876C51.0299 45.3312 51.1487 44.9967 51.1487 44.584C51.1487 44.1714 51.0361 43.84 50.811 43.5899C50.5859 43.3335 50.2889 43.2053 49.92 43.2053ZM58.7789 45.944L56.95 41.2357L56.5936 46.5161H55.7308L56.2466 39.9508H57.2689L59.1541 44.8091L61.0393 39.9508H62.0616L62.5774 46.5161H61.7052L61.3394 41.2357L59.5199 45.944H58.7789ZM64.2306 46.5161V39.9508H65.1403V45.7658H68.1604V46.5161H64.2306ZM69.3092 46.5161V40.0915C69.6405 40.029 69.9907 39.9789 70.3596 39.9414C70.7285 39.9039 71.0505 39.8851 71.3256 39.8851C72.0572 39.8851 72.6168 40.0321 73.0045 40.326C73.3984 40.6136 73.5954 41.0294 73.5954 41.5734C73.5954 41.936 73.4953 42.2455 73.2952 42.5019C73.1014 42.7583 72.8138 42.9521 72.4324 43.0834C72.8951 43.1834 73.2515 43.3773 73.5016 43.6649C73.7579 43.9463 73.8861 44.3027 73.8861 44.7341C73.8861 45.3093 73.686 45.7502 73.2859 46.0565C72.8857 46.3629 72.3136 46.5161 71.5695 46.5161H69.3092ZM71.5414 45.8221C72.0041 45.8221 72.3542 45.7251 72.5918 45.5313C72.8357 45.3312 72.9576 45.0405 72.9576 44.6591C72.9576 44.2839 72.8294 43.9963 72.5731 43.7962C72.3229 43.5899 71.9697 43.4867 71.5132 43.4867H70.1908V45.8221H71.5414ZM71.26 40.5792C70.9661 40.5792 70.6097 40.6105 70.1908 40.673V42.8114H71.4288C71.8227 42.8114 72.1322 42.7114 72.3573 42.5113C72.5887 42.3049 72.7044 42.0298 72.7044 41.6859C72.7044 40.9481 72.2229 40.5792 71.26 40.5792ZM75.4921 46.563C75.3233 46.563 75.1857 46.5099 75.0794 46.4036C74.9732 46.2973 74.92 46.1597 74.92 45.9909C74.92 45.8221 74.9732 45.6845 75.0794 45.5782C75.1857 45.4719 75.3233 45.4188 75.4921 45.4188C75.6609 45.4188 75.7985 45.4719 75.9048 45.5782C76.0111 45.6845 76.0642 45.8221 76.0642 45.9909C76.0642 46.1597 76.0111 46.2973 75.9048 46.4036C75.7985 46.5099 75.6609 46.563 75.4921 46.563Z" fill="white"/>
</svg>
