<svg width="769" height="26" viewBox="0 0 769 26" fill="none" xmlns="http://www.w3.org/2000/svg">
<path d="M0.000175875 24.651C0.946176 24.409 1.60618 24.002 1.98018 23.43C2.37618 22.858 2.57418 21.989 2.57418 20.823V6.56699C2.57418 5.40099 2.37618 4.53199 1.98018 3.95999C1.60618 3.38799 0.946176 2.98099 0.000175875 2.73899V2.14499H11.5172C12.4852 2.14499 13.3542 2.12299 14.1242 2.07899C14.9162 2.01299 15.7412 1.92499 16.5992 1.81499L17.3582 8.34899L16.7642 8.448C16.2582 7.14999 15.7412 6.13799 15.2132 5.41199C14.7072 4.68599 14.1132 4.169 13.4312 3.861C12.7712 3.55299 11.9352 3.39899 10.9232 3.39899H5.87418V12.738H9.20718C10.5712 12.738 11.5502 12.54 12.1442 12.144C12.7602 11.726 13.2222 10.956 13.5302 9.83399H13.9922V16.896H13.5302C13.2442 15.774 12.7932 15.015 12.1772 14.619C11.5612 14.201 10.5712 13.992 9.20718 13.992H5.87418V20.691C5.87418 21.835 6.07218 22.671 6.46818 23.199C6.86418 23.727 7.50218 23.991 8.38218 23.991H10.6592C11.6712 23.991 12.5512 23.815 13.2992 23.463C14.0472 23.089 14.7402 22.429 15.3782 21.483C16.0162 20.515 16.6762 19.151 17.3582 17.391L17.9522 17.523L17.0942 25.245H0.000175875V24.651ZM21.1209 21.417C21.1209 20.339 21.4619 19.393 22.1439 18.579C22.8259 17.765 23.7829 17.138 25.0149 16.698C26.2469 16.236 27.6769 16.005 29.3049 16.005C30.1189 16.005 30.9439 16.06 31.7799 16.17V14.058C31.7799 12.606 31.4499 11.473 30.7899 10.659C30.1519 9.82299 29.2609 9.40499 28.1169 9.40499C25.9389 9.40499 24.1019 10.978 22.6059 14.124L22.0449 13.959L22.5729 9.40499C24.5529 8.61299 26.4779 8.21699 28.3479 8.21699C30.4379 8.21699 32.0439 8.74499 33.166 9.80099C34.31 10.835 34.8819 12.331 34.8819 14.289V22.341C34.8819 23.485 35.3329 24.057 36.2349 24.057C36.565 24.057 36.862 23.936 37.1259 23.694L37.5549 24.024C36.8729 25.058 35.9379 25.575 34.7499 25.575C33.3859 25.575 32.4949 24.937 32.0769 23.661C30.7569 25.069 29.0519 25.773 26.9619 25.773C25.1579 25.773 23.7279 25.388 22.6719 24.618C21.6379 23.826 21.1209 22.759 21.1209 21.417ZM24.3549 21.021C24.3549 22.099 24.6849 22.946 25.3449 23.562C26.0269 24.178 26.9069 24.486 27.9849 24.486C29.0629 24.486 29.9649 24.046 30.6909 23.166C31.4169 22.286 31.7799 20.966 31.7799 19.206V17.325C31.4279 17.281 31.0869 17.248 30.7569 17.226C30.4489 17.204 30.1409 17.193 29.8329 17.193C28.0949 17.193 26.7419 17.534 25.7739 18.216C24.8279 18.876 24.3549 19.811 24.3549 21.021ZM39.0227 24.717C39.9247 24.475 40.5517 24.09 40.9037 23.562C41.2777 23.012 41.4647 22.187 41.4647 21.087V13.497C41.4647 12.375 41.2777 11.539 40.9037 10.989C40.5517 10.439 39.9247 10.054 39.0227 9.83399V9.30599L43.8077 8.54699C44.0057 8.92099 44.1487 9.26199 44.2367 9.56999C44.3247 9.87799 44.3797 10.252 44.4017 10.692C44.9077 9.92199 45.5237 9.31699 46.2497 8.87699C46.9977 8.43699 47.8117 8.21699 48.6917 8.21699C49.9237 8.21699 51.0127 8.61299 51.9587 9.40499L52.1567 13.992L51.5957 14.124C50.9137 12.562 50.2647 11.451 49.6487 10.791C49.0327 10.131 48.3397 9.80099 47.5697 9.80099C46.6237 9.80099 45.8867 10.241 45.3587 11.121C44.8307 12.001 44.5667 13.244 44.5667 14.85V21.087C44.5667 22.275 44.7867 23.122 45.2267 23.628C45.6667 24.134 46.4807 24.475 47.6687 24.651V25.245H39.0227V24.717ZM53.9436 24.717C54.8456 24.475 55.4726 24.09 55.8246 23.562C56.1986 23.012 56.3856 22.176 56.3856 21.054V13.563C56.3856 12.397 56.1986 11.539 55.8246 10.989C55.4726 10.439 54.8456 10.054 53.9436 9.83399V9.30599L58.7286 8.54699C59.0586 9.16299 59.2456 9.74599 59.2896 10.296C60.6976 8.90999 62.4906 8.21699 64.6686 8.21699C66.6926 8.21699 68.2436 8.75599 69.3216 9.83399C70.3996 10.912 70.9386 12.463 70.9386 14.487V21.054C70.9386 22.176 71.1146 23.012 71.4666 23.562C71.8406 24.09 72.4786 24.475 73.3806 24.717V25.245H65.3946V24.717C66.2966 24.475 66.9236 24.09 67.2756 23.562C67.6496 23.012 67.8366 22.176 67.8366 21.054V14.289C67.8366 12.793 67.4956 11.627 66.8136 10.791C66.1316 9.95499 65.1746 9.53699 63.9426 9.53699C62.5786 9.53699 61.4896 10.032 60.6756 11.022C59.8836 11.99 59.4876 13.299 59.4876 14.949V21.054C59.4876 22.176 59.6636 23.012 60.0156 23.562C60.3896 24.09 61.0276 24.475 61.9296 24.717V25.245H53.9436V24.717ZM85.3779 19.503V13.629C85.3779 12.463 85.1909 11.605 84.8169 11.055C84.4649 10.505 83.8379 10.12 82.9359 9.89999V9.37199L88.2489 8.54699L88.6119 8.90999C88.5239 9.52599 88.4799 10.208 88.4799 10.956V19.701C88.4799 21.197 88.7989 22.363 89.4369 23.199C90.0749 24.035 90.9659 24.453 92.1099 24.453C92.9019 24.453 93.6389 24.255 94.3209 23.859C95.0029 23.463 95.5419 22.891 95.9379 22.143C96.3559 21.395 96.5649 20.504 96.5649 19.47V12.21C96.5649 11.418 96.4329 10.857 96.1689 10.527C95.9269 10.197 95.3659 9.95499 94.4859 9.80099V9.30599L99.5019 8.54699L99.7989 8.84399C99.7109 9.56999 99.6669 10.307 99.6669 11.055V21.054C99.6669 22.176 99.8429 23.012 100.195 23.562C100.569 24.09 101.207 24.475 102.109 24.717V25.245L97.3239 25.575C96.9499 24.871 96.7519 24.167 96.7299 23.463C95.3439 25.003 93.5619 25.773 91.3839 25.773C89.4479 25.773 87.9629 25.234 86.9289 24.156C85.8949 23.056 85.3779 21.505 85.3779 19.503ZM103.927 24.717C104.829 24.475 105.456 24.09 105.808 23.562C106.182 23.012 106.369 22.176 106.369 21.054V13.563C106.369 12.397 106.182 11.539 105.808 10.989C105.456 10.439 104.829 10.054 103.927 9.83399V9.30599L108.712 8.54699C109.042 9.16299 109.229 9.74599 109.273 10.296C110.681 8.90999 112.474 8.21699 114.652 8.21699C116.676 8.21699 118.227 8.75599 119.305 9.83399C120.383 10.912 120.922 12.463 120.922 14.487V21.054C120.922 22.176 121.098 23.012 121.45 23.562C121.824 24.09 122.462 24.475 123.364 24.717V25.245H115.378V24.717C116.28 24.475 116.907 24.09 117.259 23.562C117.633 23.012 117.82 22.176 117.82 21.054V14.289C117.82 12.793 117.479 11.627 116.797 10.791C116.115 9.95499 115.158 9.53699 113.926 9.53699C112.562 9.53699 111.473 10.032 110.659 11.022C109.867 11.99 109.471 13.299 109.471 14.949V21.054C109.471 22.176 109.647 23.012 109.999 23.562C110.373 24.09 111.011 24.475 111.913 24.717V25.245H103.927V24.717ZM124.999 24.717C125.901 24.475 126.528 24.09 126.88 23.562C127.254 23.012 127.441 22.187 127.441 21.087V5.082C127.441 3.91599 127.254 3.05799 126.88 2.50799C126.528 1.95799 125.901 1.57299 124.999 1.35299V0.824995L130.312 -6.3777e-06L130.675 0.362995C130.587 0.978995 130.543 1.67199 130.543 2.44199V21.087C130.543 22.187 130.719 23.012 131.071 23.562C131.445 24.09 132.083 24.475 132.985 24.717V25.245H124.999V24.717ZM134.8 24.717C135.702 24.475 136.329 24.09 136.681 23.562C137.055 23.012 137.242 22.176 137.242 21.054V13.563C137.242 12.397 137.055 11.539 136.681 10.989C136.329 10.439 135.702 10.054 134.8 9.83399V9.30599L140.113 8.54699L140.476 8.90999C140.432 9.26199 140.399 9.60299 140.377 9.93299C140.355 10.241 140.344 10.582 140.344 10.956V21.054C140.344 22.176 140.52 23.012 140.872 23.562C141.246 24.09 141.884 24.475 142.786 24.717V25.245H134.8V24.717ZM136.417 3.16799C136.417 2.52999 136.615 2.01299 137.011 1.61699C137.429 1.22099 137.946 1.02299 138.562 1.02299C139.2 1.02299 139.717 1.22099 140.113 1.61699C140.509 2.01299 140.707 2.52999 140.707 3.16799C140.707 3.78399 140.509 4.30099 140.113 4.71899C139.717 5.11499 139.2 5.31299 138.562 5.31299C137.946 5.31299 137.429 5.11499 137.011 4.71899C136.615 4.30099 136.417 3.78399 136.417 3.16799ZM144.597 24.717C145.499 24.475 146.126 24.09 146.478 23.562C146.852 23.012 147.039 22.176 147.039 21.054V13.563C147.039 12.397 146.852 11.539 146.478 10.989C146.126 10.439 145.499 10.054 144.597 9.83399V9.30599L149.382 8.54699C149.69 9.14099 149.877 9.70199 149.943 10.23C151.285 8.88799 152.979 8.21699 155.025 8.21699C157.599 8.21699 159.359 9.16299 160.305 11.055C161.801 9.16299 163.748 8.21699 166.146 8.21699C168.082 8.21699 169.567 8.75599 170.601 9.83399C171.657 10.912 172.185 12.463 172.185 14.487V21.054C172.185 22.176 172.361 23.012 172.713 23.562C173.087 24.09 173.725 24.475 174.627 24.717V25.245H166.641V24.717C167.543 24.475 168.17 24.09 168.522 23.562C168.896 23.012 169.083 22.176 169.083 21.054V14.289C169.083 12.793 168.753 11.627 168.093 10.791C167.433 9.95499 166.52 9.53699 165.354 9.53699C164.078 9.53699 163.055 10.032 162.285 11.022C161.537 11.99 161.163 13.299 161.163 14.949V21.054C161.163 22.176 161.339 23.012 161.691 23.562C162.065 24.09 162.703 24.475 163.605 24.717V25.245H155.619V24.717C156.521 24.475 157.148 24.09 157.5 23.562C157.874 23.012 158.061 22.176 158.061 21.054V14.289C158.061 12.793 157.731 11.627 157.071 10.791C156.411 9.95499 155.498 9.53699 154.332 9.53699C153.056 9.53699 152.033 10.032 151.263 11.022C150.515 11.99 150.141 13.299 150.141 14.949V21.054C150.141 22.176 150.317 23.012 150.669 23.562C151.043 24.09 151.681 24.475 152.583 24.717V25.245H144.597V24.717ZM176.437 24.717C177.339 24.475 177.966 24.09 178.318 23.562C178.692 23.012 178.879 22.176 178.879 21.054V13.563C178.879 12.397 178.692 11.539 178.318 10.989C177.966 10.439 177.339 10.054 176.437 9.83399V9.30599L181.75 8.54699L182.113 8.90999C182.069 9.26199 182.036 9.60299 182.014 9.93299C181.992 10.241 181.981 10.582 181.981 10.956V21.054C181.981 22.176 182.157 23.012 182.509 23.562C182.883 24.09 183.521 24.475 184.423 24.717V25.245H176.437V24.717ZM178.054 3.16799C178.054 2.52999 178.252 2.01299 178.648 1.61699C179.066 1.22099 179.583 1.02299 180.199 1.02299C180.837 1.02299 181.354 1.22099 181.75 1.61699C182.146 2.01299 182.344 2.52999 182.344 3.16799C182.344 3.78399 182.146 4.30099 181.75 4.71899C181.354 5.11499 180.837 5.31299 180.199 5.31299C179.583 5.31299 179.066 5.11499 178.648 4.71899C178.252 4.30099 178.054 3.78399 178.054 3.16799ZM185.772 8.745H188.214V5.44499L191.085 4.98299L191.448 5.34599C191.36 5.96199 191.316 6.64399 191.316 7.39199V8.745H196.563V9.93299H191.316V20.79C191.316 22.792 192.152 23.793 193.824 23.793C194.814 23.793 195.661 23.331 196.365 22.407L196.893 22.704C196.013 24.75 194.55 25.773 192.504 25.773C189.644 25.773 188.214 24.09 188.214 20.724V9.93299H185.772V8.745ZM199.254 17.127C199.254 15.345 199.584 13.794 200.244 12.474C200.904 11.132 201.828 10.087 203.016 9.33899C204.204 8.59099 205.579 8.21699 207.141 8.21699C209.165 8.21699 210.782 8.87699 211.992 10.197C213.202 11.495 213.917 13.365 214.137 15.807H202.224C202.224 18.205 202.785 20.075 203.907 21.417C205.029 22.737 206.602 23.397 208.626 23.397C210.606 23.397 212.124 22.693 213.18 21.285L213.708 21.582C212.454 24.376 210.265 25.773 207.141 25.773C205.557 25.773 204.171 25.421 202.983 24.717C201.795 23.991 200.871 22.979 200.211 21.681C199.573 20.383 199.254 18.865 199.254 17.127ZM210.738 14.619C210.628 12.991 210.199 11.715 209.451 10.791C208.725 9.86699 207.757 9.40499 206.547 9.40499C205.337 9.40499 204.358 9.86699 203.61 10.791C202.862 11.715 202.422 12.991 202.29 14.619H210.738ZM216.527 17.424C216.527 15.62 216.868 14.025 217.55 12.639C218.232 11.253 219.178 10.175 220.388 9.40499C221.598 8.61299 222.984 8.21699 224.546 8.21699C226.306 8.21699 227.868 8.67899 229.232 9.60299V5.04899C229.232 3.88299 229.045 3.02499 228.671 2.47499C228.319 1.90299 227.692 1.50699 226.79 1.28699V0.758994L232.103 -6.3777e-06L232.466 0.362995C232.378 0.978995 232.334 1.66099 232.334 2.40899V21.054C232.334 22.176 232.51 23.012 232.862 23.562C233.236 24.09 233.874 24.475 234.776 24.717V25.245L229.991 25.575C229.661 24.937 229.474 24.31 229.43 23.694C228.022 25.08 226.273 25.773 224.183 25.773C221.851 25.773 219.992 25.025 218.606 23.529C217.22 22.033 216.527 19.998 216.527 17.424ZM219.761 16.401C219.761 18.007 219.97 19.415 220.388 20.625C220.828 21.835 221.433 22.781 222.203 23.463C222.995 24.123 223.897 24.453 224.909 24.453C226.163 24.453 227.197 23.969 228.011 23.001C228.825 22.011 229.232 20.757 229.232 19.239V14.586C229.232 13.618 229.012 12.749 228.572 11.979C228.154 11.187 227.582 10.56 226.856 10.098C226.13 9.63599 225.316 9.40499 224.414 9.40499C222.962 9.40499 221.818 10.021 220.982 11.253C220.168 12.485 219.761 14.201 219.761 16.401ZM255.678 7.16099C255.678 5.84099 255.337 4.86199 254.655 4.22399C253.995 3.58599 253.214 3.26699 252.312 3.26699C250.97 3.26699 249.848 3.75099 248.946 4.71899C248.044 5.68699 247.219 7.22699 246.471 9.33899L245.877 9.23999L246.537 3.39899C247.769 2.93699 248.88 2.61799 249.87 2.44199C250.86 2.24399 251.795 2.14499 252.675 2.14499C254.699 2.14499 256.294 2.59599 257.46 3.49799C258.648 4.37799 259.242 5.65399 259.242 7.32599C259.242 8.16199 258.967 9.108 258.417 10.164C257.867 11.198 256.932 12.485 255.612 14.025C254.314 15.543 252.543 17.446 250.299 19.734L247.758 22.341H256.338C257.306 22.341 258.043 22.099 258.549 21.615C259.077 21.131 259.583 20.251 260.067 18.975L260.661 19.074L259.935 25.245H244.59L244.359 24.717L249.243 18.777C250.453 17.303 251.465 16.016 252.279 14.916C253.115 13.816 253.775 12.837 254.259 11.979C254.765 11.121 255.128 10.307 255.348 9.53699C255.568 8.76699 255.678 7.97499 255.678 7.16099ZM275.571 24.717C276.473 24.431 276.99 23.991 277.122 23.397C277.276 22.803 277.034 22.011 276.396 21.021L272.502 14.85L268.443 21.021C267.145 22.979 267.31 24.211 268.938 24.717V25.245H262.503V24.717C264.021 24.233 265.352 23.166 266.496 21.516L271.776 13.695L266.661 5.60999C266.155 4.79599 265.627 4.14699 265.077 3.66299C264.549 3.17899 263.889 2.84899 263.097 2.67299V2.14499H271.809V2.67299C270.709 2.91499 270.115 3.33299 270.027 3.92699C269.961 4.49899 270.269 5.31299 270.951 6.36899L274.284 11.616L277.749 6.36899C278.519 5.22499 278.86 4.35599 278.772 3.76199C278.706 3.16799 278.09 2.80499 276.924 2.67299V2.14499H283.722V2.67299C283.194 2.78299 282.732 2.93699 282.336 3.13499C281.94 3.33299 281.544 3.64099 281.148 4.05899C280.752 4.47699 280.279 5.08199 279.729 5.87399L275.01 12.771L280.752 21.78C281.258 22.594 281.775 23.221 282.303 23.661C282.853 24.079 283.524 24.431 284.316 24.717V25.245H275.571V24.717ZM294.418 24.717C295.32 24.475 295.947 24.09 296.299 23.562C296.673 23.012 296.86 22.176 296.86 21.054V13.563C296.86 12.397 296.673 11.539 296.299 10.989C295.947 10.439 295.32 10.054 294.418 9.83399V9.30599L299.203 8.54699C299.511 9.14099 299.698 9.70199 299.764 10.23C301.106 8.88799 302.8 8.21699 304.846 8.21699C307.42 8.21699 309.18 9.16299 310.126 11.055C311.622 9.16299 313.569 8.21699 315.967 8.21699C317.903 8.21699 319.388 8.75599 320.422 9.83399C321.478 10.912 322.006 12.463 322.006 14.487V21.054C322.006 22.176 322.182 23.012 322.534 23.562C322.908 24.09 323.546 24.475 324.448 24.717V25.245H316.462V24.717C317.364 24.475 317.991 24.09 318.343 23.562C318.717 23.012 318.904 22.176 318.904 21.054V14.289C318.904 12.793 318.574 11.627 317.914 10.791C317.254 9.95499 316.341 9.53699 315.175 9.53699C313.899 9.53699 312.876 10.032 312.106 11.022C311.358 11.99 310.984 13.299 310.984 14.949V21.054C310.984 22.176 311.16 23.012 311.512 23.562C311.886 24.09 312.524 24.475 313.426 24.717V25.245H305.44V24.717C306.342 24.475 306.969 24.09 307.321 23.562C307.695 23.012 307.882 22.176 307.882 21.054V14.289C307.882 12.793 307.552 11.627 306.892 10.791C306.232 9.95499 305.319 9.53699 304.153 9.53699C302.877 9.53699 301.854 10.032 301.084 11.022C300.336 11.99 299.962 13.299 299.962 14.949V21.054C299.962 22.176 300.138 23.012 300.49 23.562C300.864 24.09 301.502 24.475 302.404 24.717V25.245H294.418V24.717ZM326.258 24.717C327.16 24.475 327.787 24.09 328.139 23.562C328.513 23.012 328.7 22.176 328.7 21.054V13.563C328.7 12.397 328.513 11.539 328.139 10.989C327.787 10.439 327.16 10.054 326.258 9.83399V9.30599L331.571 8.54699L331.934 8.90999C331.89 9.26199 331.857 9.60299 331.835 9.93299C331.813 10.241 331.802 10.582 331.802 10.956V21.054C331.802 22.176 331.978 23.012 332.33 23.562C332.704 24.09 333.342 24.475 334.244 24.717V25.245H326.258V24.717ZM327.875 3.16799C327.875 2.52999 328.073 2.01299 328.469 1.61699C328.887 1.22099 329.404 1.02299 330.02 1.02299C330.658 1.02299 331.175 1.22099 331.571 1.61699C331.967 2.01299 332.165 2.52999 332.165 3.16799C332.165 3.78399 331.967 4.30099 331.571 4.71899C331.175 5.11499 330.658 5.31299 330.02 5.31299C329.404 5.31299 328.887 5.11499 328.469 4.71899C328.073 4.30099 327.875 3.78399 327.875 3.16799ZM335.89 24.717C336.792 24.475 337.419 24.09 337.771 23.562C338.145 23.012 338.332 22.187 338.332 21.087V5.082C338.332 3.91599 338.145 3.05799 337.771 2.50799C337.419 1.95799 336.792 1.57299 335.89 1.35299V0.824995L341.203 -6.3777e-06L341.566 0.362995C341.478 0.978995 341.434 1.67199 341.434 2.44199V21.087C341.434 22.187 341.61 23.012 341.962 23.562C342.336 24.09 342.974 24.475 343.876 24.717V25.245H335.89V24.717ZM345.724 17.127C345.724 15.345 346.054 13.794 346.714 12.474C347.374 11.132 348.298 10.087 349.486 9.33899C350.674 8.59099 352.049 8.21699 353.611 8.21699C355.635 8.21699 357.252 8.87699 358.462 10.197C359.672 11.495 360.387 13.365 360.607 15.807H348.694C348.694 18.205 349.255 20.075 350.377 21.417C351.499 22.737 353.072 23.397 355.096 23.397C357.076 23.397 358.594 22.693 359.65 21.285L360.178 21.582C358.924 24.376 356.735 25.773 353.611 25.773C352.027 25.773 350.641 25.421 349.453 24.717C348.265 23.991 347.341 22.979 346.681 21.681C346.043 20.383 345.724 18.865 345.724 17.127ZM357.208 14.619C357.098 12.991 356.669 11.715 355.921 10.791C355.195 9.86699 354.227 9.40499 353.017 9.40499C351.807 9.40499 350.828 9.86699 350.08 10.791C349.332 11.715 348.892 12.991 348.76 14.619H357.208ZM373.062 21.912C373.062 21.098 372.754 20.416 372.138 19.866C371.522 19.316 370.466 18.744 368.97 18.15C366.968 17.336 365.549 16.522 364.713 15.708C363.877 14.872 363.459 13.915 363.459 12.837C363.459 11.429 364.009 10.307 365.109 9.47099C366.231 8.63499 367.727 8.21699 369.597 8.21699C370.499 8.21699 371.434 8.32699 372.402 8.54699C373.37 8.74499 374.272 9.03099 375.108 9.40499L375.636 13.794L375.075 13.959C374.327 12.485 373.447 11.363 372.435 10.593C371.423 9.80099 370.345 9.40499 369.201 9.40499C368.321 9.40499 367.628 9.62499 367.122 10.065C366.638 10.483 366.396 11.044 366.396 11.748C366.396 12.474 366.704 13.101 367.32 13.629C367.936 14.135 369.014 14.696 370.554 15.312C372.578 16.126 373.986 16.918 374.778 17.688C375.592 18.458 375.999 19.404 375.999 20.526C375.999 21.538 375.724 22.44 375.174 23.232C374.646 24.024 373.898 24.651 372.93 25.113C371.984 25.553 370.873 25.773 369.597 25.773C368.717 25.773 367.782 25.652 366.792 25.41C365.802 25.19 364.812 24.86 363.822 24.42L363.294 20.031L363.855 19.866C364.603 21.362 365.516 22.528 366.594 23.364C367.694 24.178 368.849 24.585 370.059 24.585C371.005 24.585 371.742 24.343 372.27 23.859C372.798 23.375 373.062 22.726 373.062 21.912ZM386.117 8.745H394.301V9.27299C393.399 9.36099 392.816 9.70199 392.552 10.296C392.288 10.89 392.365 11.682 392.783 12.672L396.446 21.054L400.076 12.771L399.482 11.451C399.196 10.813 398.866 10.34 398.492 10.032C398.14 9.72399 397.59 9.47099 396.842 9.27299V8.745H405.026V9.27299C404.124 9.36099 403.541 9.70199 403.277 10.296C403.013 10.89 403.09 11.682 403.508 12.672L407.171 21.054L410.834 12.672C411.274 11.682 411.351 10.89 411.065 10.296C410.801 9.70199 410.218 9.36099 409.316 9.27299V8.745H415.322V9.27299C414.574 9.47099 414.024 9.72399 413.672 10.032C413.32 10.34 412.99 10.813 412.682 11.451L406.379 25.575H405.785L400.736 14.223L395.654 25.575H395.06L388.757 11.451C388.471 10.813 388.141 10.34 387.767 10.032C387.415 9.72399 386.865 9.47099 386.117 9.27299V8.745ZM416.879 24.717C417.781 24.475 418.408 24.09 418.76 23.562C419.134 23.012 419.321 22.176 419.321 21.054V13.563C419.321 12.397 419.134 11.539 418.76 10.989C418.408 10.439 417.781 10.054 416.879 9.83399V9.30599L422.192 8.54699L422.555 8.90999C422.511 9.26199 422.478 9.60299 422.456 9.93299C422.434 10.241 422.423 10.582 422.423 10.956V21.054C422.423 22.176 422.599 23.012 422.951 23.562C423.325 24.09 423.963 24.475 424.865 24.717V25.245H416.879V24.717ZM418.496 3.16799C418.496 2.52999 418.694 2.01299 419.09 1.61699C419.508 1.22099 420.025 1.02299 420.641 1.02299C421.279 1.02299 421.796 1.22099 422.192 1.61699C422.588 2.01299 422.786 2.52999 422.786 3.16799C422.786 3.78399 422.588 4.30099 422.192 4.71899C421.796 5.11499 421.279 5.31299 420.641 5.31299C420.025 5.31299 419.508 5.11499 419.09 4.71899C418.694 4.30099 418.496 3.78399 418.496 3.16799ZM426.214 8.745H428.656V5.44499L431.527 4.98299L431.89 5.34599C431.802 5.96199 431.758 6.64399 431.758 7.39199V8.745H437.005V9.93299H431.758V20.79C431.758 22.792 432.594 23.793 434.266 23.793C435.256 23.793 436.103 23.331 436.807 22.407L437.335 22.704C436.455 24.75 434.992 25.773 432.946 25.773C430.086 25.773 428.656 24.09 428.656 20.724V9.93299H426.214V8.745ZM439.821 24.717C440.723 24.475 441.35 24.079 441.702 23.529C442.076 22.979 442.263 22.132 442.263 20.988V5.082C442.263 3.91599 442.076 3.05799 441.702 2.50799C441.35 1.95799 440.723 1.57299 439.821 1.35299V0.824995L445.134 -6.3777e-06L445.497 0.362995C445.409 0.978995 445.365 1.64999 445.365 2.37599V10.098C446.729 8.84399 448.456 8.21699 450.546 8.21699C452.57 8.21699 454.121 8.75599 455.199 9.83399C456.277 10.912 456.816 12.463 456.816 14.487V21.054C456.816 22.176 456.992 23.012 457.344 23.562C457.718 24.09 458.356 24.475 459.258 24.717V25.245H451.272V24.717C452.174 24.475 452.801 24.09 453.153 23.562C453.527 23.012 453.714 22.176 453.714 21.054V14.289C453.714 12.793 453.373 11.627 452.691 10.791C452.009 9.95499 451.052 9.53699 449.82 9.53699C448.456 9.53699 447.367 10.032 446.553 11.022C445.761 11.99 445.365 13.299 445.365 14.949V21.153C445.365 22.253 445.541 23.067 445.893 23.595C446.267 24.123 446.905 24.497 447.807 24.717V25.245H439.821V24.717ZM468.85 2.14499H477.562V2.67299C476.462 2.91499 475.78 3.35499 475.516 3.99299C475.274 4.63099 475.34 5.42299 475.714 6.36899L481.456 20.361L487.165 6.40199C487.561 5.43399 487.572 4.60899 487.198 3.92699C486.824 3.22299 486.054 2.80499 484.888 2.67299V2.14499H491.686V2.67299C490.872 2.84899 490.278 3.22299 489.904 3.79499C489.53 4.36699 489.101 5.23599 488.617 6.40199L480.565 25.575H479.971L471.919 6.40199C471.435 5.23599 470.995 4.36699 470.599 3.79499C470.225 3.22299 469.642 2.84899 468.85 2.67299V2.14499ZM490.55 17.127C490.55 15.345 490.88 13.794 491.54 12.474C492.2 11.132 493.124 10.087 494.312 9.33899C495.5 8.59099 496.875 8.21699 498.437 8.21699C500.461 8.21699 502.078 8.87699 503.288 10.197C504.498 11.495 505.213 13.365 505.433 15.807H493.52C493.52 18.205 494.081 20.075 495.203 21.417C496.325 22.737 497.898 23.397 499.922 23.397C501.902 23.397 503.42 22.693 504.476 21.285L505.004 21.582C503.75 24.376 501.561 25.773 498.437 25.773C496.853 25.773 495.467 25.421 494.279 24.717C493.091 23.991 492.167 22.979 491.507 21.681C490.869 20.383 490.55 18.865 490.55 17.127ZM502.034 14.619C501.924 12.991 501.495 11.715 500.747 10.791C500.021 9.86699 499.053 9.40499 497.843 9.40499C496.633 9.40499 495.654 9.86699 494.906 10.791C494.158 11.715 493.718 12.991 493.586 14.619H502.034ZM507.79 24.717C508.692 24.475 509.319 24.09 509.671 23.562C510.045 23.012 510.232 22.176 510.232 21.054V13.563C510.232 12.397 510.045 11.539 509.671 10.989C509.319 10.439 508.692 10.054 507.79 9.83399V9.30599L512.575 8.54699C512.905 9.16299 513.092 9.74599 513.136 10.296C514.544 8.90999 516.337 8.21699 518.515 8.21699C520.539 8.21699 522.09 8.75599 523.168 9.83399C524.246 10.912 524.785 12.463 524.785 14.487V21.054C524.785 22.176 524.961 23.012 525.313 23.562C525.687 24.09 526.325 24.475 527.227 24.717V25.245H519.241V24.717C520.143 24.475 520.77 24.09 521.122 23.562C521.496 23.012 521.683 22.176 521.683 21.054V14.289C521.683 12.793 521.342 11.627 520.66 10.791C519.978 9.95499 519.021 9.53699 517.789 9.53699C516.425 9.53699 515.336 10.032 514.522 11.022C513.73 11.99 513.334 13.299 513.334 14.949V21.054C513.334 22.176 513.51 23.012 513.862 23.562C514.236 24.09 514.874 24.475 515.776 24.717V25.245H507.79V24.717ZM528.566 8.745H531.008V5.44499L533.879 4.98299L534.242 5.34599C534.154 5.96199 534.11 6.64399 534.11 7.39199V8.745H539.357V9.93299H534.11V20.79C534.11 22.792 534.946 23.793 536.618 23.793C537.608 23.793 538.455 23.331 539.159 22.407L539.687 22.704C538.807 24.75 537.344 25.773 535.298 25.773C532.438 25.773 531.008 24.09 531.008 20.724V9.93299H528.566V8.745ZM544.284 19.503V13.629C544.284 12.463 544.097 11.605 543.723 11.055C543.371 10.505 542.744 10.12 541.842 9.89999V9.37199L547.155 8.54699L547.518 8.90999C547.43 9.52599 547.386 10.208 547.386 10.956V19.701C547.386 21.197 547.705 22.363 548.343 23.199C548.981 24.035 549.872 24.453 551.016 24.453C551.808 24.453 552.545 24.255 553.227 23.859C553.909 23.463 554.448 22.891 554.844 22.143C555.262 21.395 555.471 20.504 555.471 19.47V12.21C555.471 11.418 555.339 10.857 555.075 10.527C554.833 10.197 554.272 9.95499 553.392 9.80099V9.30599L558.408 8.54699L558.705 8.84399C558.617 9.56999 558.573 10.307 558.573 11.055V21.054C558.573 22.176 558.749 23.012 559.101 23.562C559.475 24.09 560.113 24.475 561.015 24.717V25.245L556.23 25.575C555.856 24.871 555.658 24.167 555.636 23.463C554.25 25.003 552.468 25.773 550.29 25.773C548.354 25.773 546.869 25.234 545.835 24.156C544.801 23.056 544.284 21.505 544.284 19.503ZM562.833 24.717C563.735 24.475 564.362 24.09 564.714 23.562C565.088 23.012 565.275 22.187 565.275 21.087V13.497C565.275 12.375 565.088 11.539 564.714 10.989C564.362 10.439 563.735 10.054 562.833 9.83399V9.30599L567.618 8.54699C567.816 8.92099 567.959 9.26199 568.047 9.56999C568.135 9.87799 568.19 10.252 568.212 10.692C568.718 9.92199 569.334 9.31699 570.06 8.87699C570.808 8.43699 571.622 8.21699 572.502 8.21699C573.734 8.21699 574.823 8.61299 575.769 9.40499L575.967 13.992L575.406 14.124C574.724 12.562 574.075 11.451 573.459 10.791C572.843 10.131 572.15 9.80099 571.38 9.80099C570.434 9.80099 569.697 10.241 569.169 11.121C568.641 12.001 568.377 13.244 568.377 14.85V21.087C568.377 22.275 568.597 23.122 569.037 23.628C569.477 24.134 570.291 24.475 571.479 24.651V25.245H562.833V24.717ZM577.787 17.127C577.787 15.345 578.117 13.794 578.777 12.474C579.437 11.132 580.361 10.087 581.549 9.33899C582.737 8.59099 584.112 8.21699 585.674 8.21699C587.698 8.21699 589.315 8.87699 590.525 10.197C591.735 11.495 592.45 13.365 592.67 15.807H580.757C580.757 18.205 581.318 20.075 582.44 21.417C583.562 22.737 585.135 23.397 587.159 23.397C589.139 23.397 590.657 22.693 591.713 21.285L592.241 21.582C590.987 24.376 588.798 25.773 585.674 25.773C584.09 25.773 582.704 25.421 581.516 24.717C580.328 23.991 579.404 22.979 578.744 21.681C578.106 20.383 577.787 18.865 577.787 17.127ZM589.271 14.619C589.161 12.991 588.732 11.715 587.984 10.791C587.258 9.86699 586.29 9.40499 585.08 9.40499C583.87 9.40499 582.891 9.86699 582.143 10.791C581.395 11.715 580.955 12.991 580.823 14.619H589.271ZM615.884 24.717C616.786 24.431 617.303 23.991 617.435 23.397C617.589 22.803 617.347 22.011 616.709 21.021L612.815 14.85L608.756 21.021C607.458 22.979 607.623 24.211 609.251 24.717V25.245H602.816V24.717C604.334 24.233 605.665 23.166 606.809 21.516L612.089 13.695L606.974 5.60999C606.468 4.79599 605.94 4.14699 605.39 3.66299C604.862 3.17899 604.202 2.84899 603.41 2.67299V2.14499H612.122V2.67299C611.022 2.91499 610.428 3.33299 610.34 3.92699C610.274 4.49899 610.582 5.31299 611.264 6.36899L614.597 11.616L618.062 6.36899C618.832 5.22499 619.173 4.35599 619.085 3.76199C619.019 3.16799 618.403 2.80499 617.237 2.67299V2.14499H624.035V2.67299C623.507 2.78299 623.045 2.93699 622.649 3.13499C622.253 3.33299 621.857 3.64099 621.461 4.05899C621.065 4.47699 620.592 5.08199 620.042 5.87399L615.323 12.771L621.065 21.78C621.571 22.594 622.088 23.221 622.616 23.661C623.166 24.079 623.837 24.431 624.629 24.717V25.245H615.884V24.717ZM634.896 24.651C635.842 24.409 636.502 24.002 636.876 23.43C637.272 22.858 637.47 21.989 637.47 20.823V6.56699C637.47 5.40099 637.272 4.53199 636.876 3.95999C636.502 3.38799 635.842 2.98099 634.896 2.73899V2.14499H643.179C646.127 2.14499 648.415 2.63999 650.043 3.62999C651.671 4.61999 652.485 6.00599 652.485 7.78799C652.485 9.06399 652.056 10.142 651.198 11.022C650.34 11.902 649.108 12.551 647.502 12.969C649.548 13.299 651.132 13.981 652.254 15.015C653.376 16.027 653.937 17.325 653.937 18.909C653.937 20.911 653.046 22.473 651.264 23.595C649.482 24.695 646.985 25.245 643.773 25.245H634.896V24.651ZM640.77 20.691C640.77 21.835 640.968 22.671 641.364 23.199C641.76 23.727 642.398 23.991 643.278 23.991H644.268C646.16 23.991 647.656 23.595 648.756 22.803C649.878 22.011 650.439 20.845 650.439 19.305C650.439 17.677 649.834 16.379 648.624 15.411C647.414 14.421 645.797 13.926 643.773 13.926H640.77V20.691ZM649.086 8.34899C649.086 6.85299 648.481 5.65399 647.271 4.75199C646.061 3.84999 644.444 3.39899 642.42 3.39899H640.77V12.672H642.288C644.51 12.672 646.193 12.309 647.337 11.583C648.503 10.835 649.086 9.75699 649.086 8.34899ZM657.528 19.503V13.629C657.528 12.463 657.341 11.605 656.967 11.055C656.615 10.505 655.988 10.12 655.086 9.89999V9.37199L660.399 8.54699L660.762 8.90999C660.674 9.52599 660.63 10.208 660.63 10.956V19.701C660.63 21.197 660.949 22.363 661.587 23.199C662.225 24.035 663.116 24.453 664.26 24.453C665.052 24.453 665.789 24.255 666.471 23.859C667.153 23.463 667.692 22.891 668.088 22.143C668.506 21.395 668.715 20.504 668.715 19.47V12.21C668.715 11.418 668.583 10.857 668.319 10.527C668.077 10.197 667.516 9.95499 666.636 9.80099V9.30599L671.652 8.54699L671.949 8.84399C671.861 9.56999 671.817 10.307 671.817 11.055V21.054C671.817 22.176 671.993 23.012 672.345 23.562C672.719 24.09 673.357 24.475 674.259 24.717V25.245L669.474 25.575C669.1 24.871 668.902 24.167 668.88 23.463C667.494 25.003 665.712 25.773 663.534 25.773C661.598 25.773 660.113 25.234 659.079 24.156C658.045 23.056 657.528 21.505 657.528 19.503ZM686.175 21.912C686.175 21.098 685.867 20.416 685.251 19.866C684.635 19.316 683.579 18.744 682.083 18.15C680.081 17.336 678.662 16.522 677.826 15.708C676.99 14.872 676.572 13.915 676.572 12.837C676.572 11.429 677.122 10.307 678.222 9.47099C679.344 8.63499 680.84 8.21699 682.71 8.21699C683.612 8.21699 684.547 8.32699 685.515 8.54699C686.483 8.74499 687.385 9.03099 688.221 9.40499L688.749 13.794L688.188 13.959C687.44 12.485 686.56 11.363 685.548 10.593C684.536 9.80099 683.458 9.40499 682.314 9.40499C681.434 9.40499 680.741 9.62499 680.235 10.065C679.751 10.483 679.509 11.044 679.509 11.748C679.509 12.474 679.817 13.101 680.433 13.629C681.049 14.135 682.127 14.696 683.667 15.312C685.691 16.126 687.099 16.918 687.891 17.688C688.705 18.458 689.112 19.404 689.112 20.526C689.112 21.538 688.837 22.44 688.287 23.232C687.759 24.024 687.011 24.651 686.043 25.113C685.097 25.553 683.986 25.773 682.71 25.773C681.83 25.773 680.895 25.652 679.905 25.41C678.915 25.19 677.925 24.86 676.935 24.42L676.407 20.031L676.968 19.866C677.716 21.362 678.629 22.528 679.707 23.364C680.807 24.178 681.962 24.585 683.172 24.585C684.118 24.585 684.855 24.343 685.383 23.859C685.911 23.375 686.175 22.726 686.175 21.912ZM691.739 24.717C692.641 24.475 693.268 24.09 693.62 23.562C693.994 23.012 694.181 22.176 694.181 21.054V13.563C694.181 12.397 693.994 11.539 693.62 10.989C693.268 10.439 692.641 10.054 691.739 9.83399V9.30599L697.052 8.54699L697.415 8.90999C697.371 9.26199 697.338 9.60299 697.316 9.93299C697.294 10.241 697.283 10.582 697.283 10.956V21.054C697.283 22.176 697.459 23.012 697.811 23.562C698.185 24.09 698.823 24.475 699.725 24.717V25.245H691.739V24.717ZM693.356 3.16799C693.356 2.52999 693.554 2.01299 693.95 1.61699C694.368 1.22099 694.885 1.02299 695.501 1.02299C696.139 1.02299 696.656 1.22099 697.052 1.61699C697.448 2.01299 697.646 2.52999 697.646 3.16799C697.646 3.78399 697.448 4.30099 697.052 4.71899C696.656 5.11499 696.139 5.31299 695.501 5.31299C694.885 5.31299 694.368 5.11499 693.95 4.71899C693.554 4.30099 693.356 3.78399 693.356 3.16799ZM701.536 24.717C702.438 24.475 703.065 24.09 703.417 23.562C703.791 23.012 703.978 22.176 703.978 21.054V13.563C703.978 12.397 703.791 11.539 703.417 10.989C703.065 10.439 702.438 10.054 701.536 9.83399V9.30599L706.321 8.54699C706.651 9.16299 706.838 9.74599 706.882 10.296C708.29 8.90999 710.083 8.21699 712.261 8.21699C714.285 8.21699 715.836 8.75599 716.914 9.83399C717.992 10.912 718.531 12.463 718.531 14.487V21.054C718.531 22.176 718.707 23.012 719.059 23.562C719.433 24.09 720.071 24.475 720.973 24.717V25.245H712.987V24.717C713.889 24.475 714.516 24.09 714.868 23.562C715.242 23.012 715.429 22.176 715.429 21.054V14.289C715.429 12.793 715.088 11.627 714.406 10.791C713.724 9.95499 712.767 9.53699 711.535 9.53699C710.171 9.53699 709.082 10.032 708.268 11.022C707.476 11.99 707.08 13.299 707.08 14.949V21.054C707.08 22.176 707.256 23.012 707.608 23.562C707.982 24.09 708.62 24.475 709.522 24.717V25.245H701.536V24.717ZM722.807 17.127C722.807 15.345 723.137 13.794 723.797 12.474C724.457 11.132 725.381 10.087 726.569 9.33899C727.757 8.59099 729.132 8.21699 730.694 8.21699C732.718 8.21699 734.335 8.87699 735.545 10.197C736.755 11.495 737.47 13.365 737.69 15.807H725.777C725.777 18.205 726.338 20.075 727.46 21.417C728.582 22.737 730.155 23.397 732.179 23.397C734.159 23.397 735.677 22.693 736.733 21.285L737.261 21.582C736.007 24.376 733.818 25.773 730.694 25.773C729.11 25.773 727.724 25.421 726.536 24.717C725.348 23.991 724.424 22.979 723.764 21.681C723.126 20.383 722.807 18.865 722.807 17.127ZM734.291 14.619C734.181 12.991 733.752 11.715 733.004 10.791C732.278 9.86699 731.31 9.40499 730.1 9.40499C728.89 9.40499 727.911 9.86699 727.163 10.791C726.415 11.715 725.975 12.991 725.843 14.619H734.291ZM750.145 21.912C750.145 21.098 749.837 20.416 749.221 19.866C748.605 19.316 747.549 18.744 746.053 18.15C744.051 17.336 742.632 16.522 741.796 15.708C740.96 14.872 740.542 13.915 740.542 12.837C740.542 11.429 741.092 10.307 742.192 9.47099C743.314 8.63499 744.81 8.21699 746.68 8.21699C747.582 8.21699 748.517 8.32699 749.485 8.54699C750.453 8.74499 751.355 9.03099 752.191 9.40499L752.719 13.794L752.158 13.959C751.41 12.485 750.53 11.363 749.518 10.593C748.506 9.80099 747.428 9.40499 746.284 9.40499C745.404 9.40499 744.711 9.62499 744.205 10.065C743.721 10.483 743.479 11.044 743.479 11.748C743.479 12.474 743.787 13.101 744.403 13.629C745.019 14.135 746.097 14.696 747.637 15.312C749.661 16.126 751.069 16.918 751.861 17.688C752.675 18.458 753.082 19.404 753.082 20.526C753.082 21.538 752.807 22.44 752.257 23.232C751.729 24.024 750.981 24.651 750.013 25.113C749.067 25.553 747.956 25.773 746.68 25.773C745.8 25.773 744.865 25.652 743.875 25.41C742.885 25.19 741.895 24.86 740.905 24.42L740.377 20.031L740.938 19.866C741.686 21.362 742.599 22.528 743.677 23.364C744.777 24.178 745.932 24.585 747.142 24.585C748.088 24.585 748.825 24.343 749.353 23.859C749.881 23.375 750.145 22.726 750.145 21.912ZM765.807 21.912C765.807 21.098 765.499 20.416 764.883 19.866C764.267 19.316 763.211 18.744 761.715 18.15C759.713 17.336 758.294 16.522 757.458 15.708C756.622 14.872 756.204 13.915 756.204 12.837C756.204 11.429 756.754 10.307 757.854 9.47099C758.976 8.63499 760.472 8.21699 762.342 8.21699C763.244 8.21699 764.179 8.32699 765.147 8.54699C766.115 8.74499 767.017 9.03099 767.853 9.40499L768.381 13.794L767.82 13.959C767.072 12.485 766.192 11.363 765.18 10.593C764.168 9.80099 763.09 9.40499 761.946 9.40499C761.066 9.40499 760.373 9.62499 759.867 10.065C759.383 10.483 759.141 11.044 759.141 11.748C759.141 12.474 759.449 13.101 760.065 13.629C760.681 14.135 761.759 14.696 763.299 15.312C765.323 16.126 766.731 16.918 767.523 17.688C768.337 18.458 768.744 19.404 768.744 20.526C768.744 21.538 768.469 22.44 767.919 23.232C767.391 24.024 766.643 24.651 765.675 25.113C764.729 25.553 763.618 25.773 762.342 25.773C761.462 25.773 760.527 25.652 759.537 25.41C758.547 25.19 757.557 24.86 756.567 24.42L756.039 20.031L756.6 19.866C757.348 21.362 758.261 22.528 759.339 23.364C760.439 24.178 761.594 24.585 762.804 24.585C763.75 24.585 764.487 24.343 765.015 23.859C765.543 23.375 765.807 22.726 765.807 21.912Z" fill="white"/>
</svg>
