<svg width="180" height="16" viewBox="0 0 180 16" fill="none" xmlns="http://www.w3.org/2000/svg">
<path d="M172.374 13.22C173.412 13.6743 174.451 13.9015 175.489 13.9015C176.242 13.9015 176.813 13.7587 177.203 13.4732C177.605 13.1876 177.806 12.7787 177.806 12.2466C177.806 11.8961 177.696 11.6105 177.475 11.3899C177.254 11.1692 176.891 10.981 176.385 10.8253L175.061 10.4164C174.178 10.1438 173.536 9.79335 173.133 9.36501C172.731 8.93667 172.53 8.39152 172.53 7.72954C172.53 6.84691 172.874 6.14599 173.562 5.62679C174.25 5.1076 175.178 4.848 176.346 4.848C177.332 4.848 178.273 5.0427 179.169 5.4321V6.83393C178.183 6.45751 177.28 6.2693 176.463 6.2693C175.801 6.2693 175.282 6.3991 174.905 6.6587C174.542 6.90532 174.36 7.24279 174.36 7.67113C174.36 7.98265 174.457 8.22927 174.652 8.41099C174.847 8.57973 175.21 8.74846 175.742 8.9172L177.222 9.36501C178.832 9.84527 179.636 10.7993 179.636 12.2271C179.636 13.2265 179.292 13.9924 178.604 14.5245C177.916 15.0567 176.923 15.3228 175.625 15.3228C174.418 15.3228 173.406 15.1216 172.588 14.7192L172.374 13.22Z" fill="white"/>
<path d="M168.386 15.0307V8.15788C168.386 6.91181 167.782 6.28877 166.575 6.28877C165.848 6.28877 165.082 6.5289 164.278 7.00916C164.343 7.29471 164.375 7.58027 164.375 7.86583V15.0307H162.545V8.15788C162.545 6.91181 161.941 6.28877 160.734 6.28877C160.02 6.28877 159.287 6.51592 158.534 6.97022V15.0307H156.704V5.25687L158.184 5.10111L158.3 5.78255C159.3 5.15952 160.28 4.848 161.24 4.848C162.357 4.848 163.2 5.20495 163.771 5.91884C164.94 5.20495 166.043 4.848 167.081 4.848C168.055 4.848 168.821 5.11409 169.379 5.64626C169.937 6.17844 170.216 6.9183 170.216 7.86583V15.0307H168.386Z" fill="white"/>
<path d="M152.274 15.0697L152.157 14.3882C151.093 15.0113 150.035 15.3228 148.983 15.3228C147.932 15.3228 147.114 15.0372 146.53 14.4661C145.946 13.895 145.654 13.0967 145.654 12.0713V5.14005H147.484V11.7987C147.484 13.1876 148.153 13.882 149.49 13.882C149.866 13.882 150.275 13.8236 150.716 13.7068C151.158 13.577 151.56 13.4083 151.923 13.2006V5.14005H153.754V14.9139L152.274 15.0697Z" fill="white"/>
<path d="M141.101 15.0307V8.15788C141.101 6.91181 140.498 6.28877 139.291 6.28877C138.564 6.28877 137.798 6.5289 136.993 7.00916C137.058 7.29471 137.091 7.58027 137.091 7.86583V15.0307H135.26V8.15788C135.26 6.91181 134.657 6.28877 133.45 6.28877C132.736 6.28877 132.002 6.51592 131.25 6.97022V15.0307H129.419V5.25687L130.899 5.10111L131.016 5.78255C132.015 5.15952 132.995 4.848 133.956 4.848C135.072 4.848 135.916 5.20495 136.487 5.91884C137.655 5.20495 138.758 4.848 139.797 4.848C140.77 4.848 141.536 5.11409 142.094 5.64626C142.652 6.17844 142.932 6.9183 142.932 7.86583V15.0307H141.101Z" fill="white"/>
<path d="M124.628 15.0307V5.29581L126.458 5.08164V15.0307H124.628ZM125.543 3.11518C125.167 3.11518 124.868 3.01783 124.647 2.82313C124.44 2.61545 124.336 2.33639 124.336 1.98593C124.336 1.63547 124.44 1.36289 124.647 1.16819C124.868 0.960514 125.167 0.856674 125.543 0.856674C125.919 0.856674 126.212 0.960514 126.419 1.16819C126.64 1.36289 126.75 1.63547 126.75 1.98593C126.75 2.33639 126.64 2.61545 126.419 2.82313C126.212 3.01783 125.919 3.11518 125.543 3.11518Z" fill="white"/>
<path d="M119.947 15.0307V8.37205C119.947 6.9832 119.259 6.28877 117.883 6.28877C117.52 6.28877 117.111 6.35367 116.656 6.48347C116.215 6.60029 115.813 6.76254 115.449 6.97022V15.0307H113.619V5.25687L115.099 5.10111L115.216 5.78255C116.28 5.15952 117.338 4.848 118.389 4.848C119.467 4.848 120.297 5.13356 120.881 5.70467C121.478 6.26281 121.777 7.06108 121.777 8.09947V15.0307H119.947Z" fill="white"/>
<path d="M108.828 15.0307V5.29581L110.658 5.08164V15.0307H108.828ZM109.743 3.11518C109.366 3.11518 109.068 3.01783 108.847 2.82313C108.639 2.61545 108.536 2.33639 108.536 1.98593C108.536 1.63547 108.639 1.36289 108.847 1.16819C109.068 0.960514 109.366 0.856674 109.743 0.856674C110.119 0.856674 110.411 0.960514 110.619 1.16819C110.84 1.36289 110.95 1.63547 110.95 1.98593C110.95 2.33639 110.84 2.61545 110.619 2.82313C110.411 3.01783 110.119 3.11518 109.743 3.11518Z" fill="white"/>
<path d="M104.158 15.0307V8.15788C104.158 6.91181 103.554 6.28877 102.347 6.28877C101.62 6.28877 100.855 6.5289 100.05 7.00916C100.115 7.29471 100.147 7.58027 100.147 7.86583V15.0307H98.317V8.15788C98.317 6.91181 97.7135 6.28877 96.5063 6.28877C95.7924 6.28877 95.0591 6.51592 94.3062 6.97022V15.0307H92.4761V5.25687L93.9558 5.10111L94.0726 5.78255C95.0721 5.15952 96.052 4.848 97.0126 4.848C98.1288 4.848 98.9725 5.20495 99.5436 5.91884C100.712 5.20495 101.815 4.848 102.854 4.848C103.827 4.848 104.593 5.11409 105.151 5.64626C105.709 6.17844 105.988 6.9183 105.988 7.86583V15.0307H104.158Z" fill="white"/>
<path d="M80.4976 15.0307V5.25687L81.9773 5.10111L82.133 5.99672C82.9897 5.26985 83.9048 4.90641 84.8783 4.90641C85.1768 4.90641 85.4754 4.95184 85.7739 5.0427V6.54188C85.4624 6.464 85.1444 6.42506 84.8199 6.42506C83.8853 6.42506 83.0546 6.71711 82.3277 7.30121V15.0307H80.4976Z" fill="white"/>
<path d="M73.6301 13.882C74.5387 13.882 75.1942 13.5835 75.5966 12.9864C76.0119 12.3893 76.2196 11.4223 76.2196 10.0854C76.2196 8.74846 76.0119 7.78146 75.5966 7.18438C75.1942 6.58731 74.5387 6.28877 73.6301 6.28877C72.7215 6.28877 72.0595 6.58731 71.6442 7.18438C71.2418 7.78146 71.0406 8.74846 71.0406 10.0854C71.0406 11.4223 71.2418 12.3893 71.6442 12.9864C72.0595 13.5835 72.7215 13.882 73.6301 13.882ZM73.6301 15.3228C72.1504 15.3228 71.0276 14.8815 70.2618 13.9988C69.509 13.1032 69.1326 11.7987 69.1326 10.0854C69.1326 8.37205 69.509 7.07406 70.2618 6.19142C71.0276 5.29581 72.1504 4.848 73.6301 4.848C75.1098 4.848 76.2261 5.29581 76.9789 6.19142C77.7447 7.07406 78.1277 8.37205 78.1277 10.0854C78.1277 11.7987 77.7447 13.1032 76.9789 13.9988C76.2261 14.8815 75.1098 15.3228 73.6301 15.3228Z" fill="white"/>
<path d="M55.3076 13.22C56.346 13.6743 57.3844 13.9015 58.4228 13.9015C59.1756 13.9015 59.7468 13.7587 60.1362 13.4732C60.5385 13.1876 60.7397 12.7787 60.7397 12.2466C60.7397 11.8961 60.6294 11.6105 60.4087 11.3899C60.1881 11.1692 59.8246 10.981 59.3184 10.8253L57.9945 10.4164C57.1118 10.1438 56.4693 9.79335 56.0669 9.36501C55.6646 8.93667 55.4634 8.39152 55.4634 7.72954C55.4634 6.84691 55.8073 6.14599 56.4953 5.62679C57.1832 5.1076 58.1113 4.848 59.2795 4.848C60.2659 4.848 61.207 5.0427 62.1026 5.4321V6.83393C61.1161 6.45751 60.214 6.2693 59.3963 6.2693C58.7343 6.2693 58.2151 6.3991 57.8387 6.6587C57.4753 6.90532 57.2935 7.24279 57.2935 7.67113C57.2935 7.98265 57.3909 8.22927 57.5856 8.41099C57.7803 8.57973 58.1437 8.74846 58.6759 8.9172L60.1556 9.36501C61.7651 9.84527 62.5699 10.7993 62.5699 12.2271C62.5699 13.2265 62.2259 13.9924 61.538 14.5245C60.85 15.0567 59.8571 15.3228 58.5591 15.3228C57.352 15.3228 56.3395 15.1216 55.5218 14.7192L55.3076 13.22Z" fill="white"/>
<path d="M53.1573 14.6608C52.2617 15.1021 51.2623 15.3228 50.159 15.3228C48.5495 15.3228 47.3229 14.875 46.4792 13.9794C45.6355 13.0838 45.2136 11.7728 45.2136 10.0465C45.2136 8.9821 45.4018 8.06053 45.7782 7.28173C46.1547 6.48996 46.6804 5.88639 47.3553 5.47104C48.0303 5.05568 48.8026 4.848 49.6722 4.848C50.8923 4.848 51.8529 5.21144 52.5538 5.93831C53.2547 6.66519 53.6051 7.67113 53.6051 8.95614C53.6051 9.46236 53.5597 9.96209 53.4689 10.4553H47.0243C47.0633 12.7528 48.1795 13.9015 50.3731 13.9015C51.3207 13.9015 52.2487 13.6938 53.1573 13.2785V14.6608ZM49.6722 6.19142C48.9194 6.19142 48.3028 6.45751 47.8226 6.98969C47.3553 7.52186 47.0892 8.24225 47.0243 9.15084H51.9113C51.9242 9.08594 51.9307 9.02104 51.9307 8.95614C51.9307 8.89124 51.9307 8.82634 51.9307 8.76145C51.9307 7.95669 51.7295 7.32716 51.3272 6.87287C50.9378 6.41857 50.3861 6.19142 49.6722 6.19142Z" fill="white"/>
<path d="M42.9662 14.6608C42.0706 15.1021 41.0711 15.3228 39.9678 15.3228C38.3583 15.3228 37.1317 14.875 36.288 13.9794C35.4443 13.0838 35.0225 11.7728 35.0225 10.0465C35.0225 8.9821 35.2107 8.06053 35.5871 7.28173C35.9635 6.48996 36.4892 5.88639 37.1641 5.47104C37.8391 5.05568 38.6114 4.848 39.4811 4.848C40.7012 4.848 41.6617 5.21144 42.3626 5.93831C43.0635 6.66519 43.414 7.67113 43.414 8.95614C43.414 9.46236 43.3686 9.96209 43.2777 10.4553H36.8332C36.8721 12.7528 37.9884 13.9015 40.182 13.9015C41.1295 13.9015 42.0576 13.6938 42.9662 13.2785V14.6608ZM39.4811 6.19142C38.7282 6.19142 38.1117 6.45751 37.6314 6.98969C37.1641 7.52186 36.8981 8.24225 36.8332 9.15084H41.7201C41.7331 9.08594 41.7396 9.02104 41.7396 8.95614C41.7396 8.89124 41.7396 8.82634 41.7396 8.76145C41.7396 7.95669 41.5384 7.32716 41.136 6.87287C40.7466 6.41857 40.195 6.19142 39.4811 6.19142Z" fill="white"/>
<path d="M29.4177 15.0307V6.464H27.938V5.21793L29.4177 5.15952V3.232C29.4177 2.20659 29.6838 1.41481 30.216 0.856674C30.7481 0.285558 31.5075 0 32.4939 0C33.0651 0 33.6492 0.103839 34.2462 0.311518V1.616C33.7141 1.47322 33.2598 1.40183 32.8833 1.40183C31.793 1.40183 31.2479 1.97944 31.2479 3.13465V5.14005H33.7595V6.464H31.2479V15.0307H29.4177Z" fill="white"/>
<path d="M17.2742 13.882C18.1827 13.882 18.8382 13.5835 19.2406 12.9864C19.656 12.3893 19.8636 11.4223 19.8636 10.0854C19.8636 8.74846 19.656 7.78146 19.2406 7.18438C18.8382 6.58731 18.1827 6.28877 17.2742 6.28877C16.3656 6.28877 15.7036 6.58731 15.2882 7.18438C14.8858 7.78146 14.6847 8.74846 14.6847 10.0854C14.6847 11.4223 14.8858 12.3893 15.2882 12.9864C15.7036 13.5835 16.3656 13.882 17.2742 13.882ZM17.2742 15.3228C15.7944 15.3228 14.6717 14.8815 13.9059 13.9988C13.153 13.1032 12.7766 11.7987 12.7766 10.0854C12.7766 8.37205 13.153 7.07406 13.9059 6.19142C14.6717 5.29581 15.7944 4.848 17.2742 4.848C18.7539 4.848 19.8701 5.29581 20.623 6.19142C21.3888 7.07406 21.7717 8.37205 21.7717 10.0854C21.7717 11.7987 21.3888 13.1032 20.623 13.9988C19.8701 14.8815 18.7539 15.3228 17.2742 15.3228Z" fill="white"/>
<path d="M8.41099 15.0307L1.8107 4.53648V15.0307H0V1.40183H1.73282L8.33311 11.8961V1.40183H10.1438V15.0307H8.41099Z" fill="white"/>
</svg>
