<svg width="110" height="58" viewBox="0 0 110 58" fill="none" xmlns="http://www.w3.org/2000/svg">
<path d="M64.551 41.9499C64.551 41.9499 64.5359 41.9615 64.5284 41.9653C57.8429 46.836 49.9255 51.9541 41.4072 57.3235L41.0691 57.5245C40.9565 57.6096 40.9264 57.7681 41.009 57.8879C41.0879 58.0077 41.2457 58.0348 41.3621 57.9498L41.6475 57.7951C48.8739 53.914 57.1706 49.3062 65.5237 44.5785C65.5688 44.5515 65.6139 44.5283 65.659 44.5012C65.2007 43.7281 64.8214 42.8776 64.5547 41.946L64.551 41.9499ZM108.431 5.3887C97.892 -6.57545 30.0869 4.18649 1.25293 10.6692L0.580628 10.8199C0.44166 10.847 0.351517 10.9823 0.374052 11.1253C0.400344 11.2683 0.528044 11.365 0.670768 11.3379L1.33932 11.2026C25.2305 6.82671 74.9097 0.753801 85.599 11.6665C88.8591 14.9948 88.0816 19.2818 84.3032 24.3419C86.3426 25.691 87.7924 27.8094 88.4459 30.4651C103.21 20.3564 113.13 10.7194 108.435 5.39256L108.431 5.3887Z" fill="#CC2427"/>
</svg>
