<svg width="290" height="52" viewBox="0 0 290 52" fill="none" xmlns="http://www.w3.org/2000/svg">
<path d="M0.699951 18.675C1.41662 18.4917 1.91662 18.1833 2.19995 17.75C2.49995 17.3167 2.64995 16.6583 2.64995 15.775V4.975C2.64995 4.09167 2.49995 3.43333 2.19995 3C1.91662 2.56667 1.41662 2.25833 0.699951 2.075V1.625H9.42495C10.1583 1.625 10.8166 1.60833 11.4 1.575C12 1.525 12.625 1.45833 13.275 1.375L13.85 6.325L13.4 6.4C13.0166 5.41667 12.625 4.65 12.225 4.1C11.8416 3.55 11.3916 3.15833 10.875 2.925C10.375 2.69167 9.74162 2.575 8.97495 2.575H5.14995V9.65H7.67495C8.70828 9.65 9.44995 9.5 9.89995 9.2C10.3666 8.88333 10.7166 8.3 10.95 7.45H11.3V12.8H10.95C10.7333 11.95 10.3916 11.375 9.92495 11.075C9.45828 10.7583 8.70828 10.6 7.67495 10.6H5.14995V15.675C5.14995 16.5417 5.29995 17.175 5.59995 17.575C5.89995 17.975 6.38328 18.175 7.04995 18.175H8.77495C9.54162 18.175 10.2083 18.0417 10.775 17.775C11.3416 17.4917 11.8666 16.9917 12.35 16.275C12.8333 15.5417 13.3333 14.5083 13.85 13.175L14.3 13.275L13.65 19.125H0.699951V18.675ZM16.7005 16.225C16.7005 15.4083 16.9589 14.6917 17.4755 14.075C17.9922 13.4583 18.7172 12.9833 19.6505 12.65C20.5839 12.3 21.6672 12.125 22.9005 12.125C23.5172 12.125 24.1422 12.1667 24.7755 12.25V10.65C24.7755 9.55 24.5255 8.69167 24.0255 8.075C23.5422 7.44167 22.8672 7.125 22.0005 7.125C20.3505 7.125 18.9589 8.31667 17.8255 10.7L17.4005 10.575L17.8005 7.125C19.3005 6.525 20.7589 6.225 22.1755 6.225C23.7589 6.225 24.9755 6.625 25.8255 7.425C26.6922 8.20833 27.1255 9.34167 27.1255 10.825V16.925C27.1255 17.7917 27.4672 18.225 28.1505 18.225C28.4005 18.225 28.6255 18.1333 28.8255 17.95L29.1505 18.2C28.6339 18.9833 27.9255 19.375 27.0255 19.375C25.9922 19.375 25.3172 18.8917 25.0005 17.925C24.0005 18.9917 22.7089 19.525 21.1255 19.525C19.7589 19.525 18.6755 19.2333 17.8755 18.65C17.0922 18.05 16.7005 17.2417 16.7005 16.225ZM19.1505 15.925C19.1505 16.7417 19.4005 17.3833 19.9005 17.85C20.4172 18.3167 21.0839 18.55 21.9005 18.55C22.7172 18.55 23.4005 18.2167 23.9505 17.55C24.5005 16.8833 24.7755 15.8833 24.7755 14.55V13.125C24.5089 13.0917 24.2505 13.0667 24.0005 13.05C23.7672 13.0333 23.5339 13.025 23.3005 13.025C21.9839 13.025 20.9589 13.2833 20.2255 13.8C19.5089 14.3 19.1505 15.0083 19.1505 15.925ZM30.2625 18.725C30.9458 18.5417 31.4208 18.25 31.6875 17.85C31.9708 17.4333 32.1125 16.8083 32.1125 15.975V10.225C32.1125 9.375 31.9708 8.74167 31.6875 8.325C31.4208 7.90833 30.9458 7.61667 30.2625 7.45V7.05L33.8875 6.475C34.0375 6.75833 34.1458 7.01667 34.2125 7.25C34.2791 7.48333 34.3208 7.76667 34.3375 8.1C34.7208 7.51667 35.1875 7.05833 35.7375 6.725C36.3041 6.39167 36.9208 6.225 37.5875 6.225C38.5208 6.225 39.3458 6.525 40.0625 7.125L40.2125 10.6L39.7875 10.7C39.2708 9.51667 38.7791 8.675 38.3125 8.175C37.8458 7.675 37.3208 7.425 36.7375 7.425C36.0208 7.425 35.4625 7.75833 35.0625 8.425C34.6625 9.09167 34.4625 10.0333 34.4625 11.25V15.975C34.4625 16.875 34.6291 17.5167 34.9625 17.9C35.2958 18.2833 35.9125 18.5417 36.8125 18.675V19.125H30.2625V18.725ZM41.5662 18.725C42.2495 18.5417 42.7245 18.25 42.9912 17.85C43.2745 17.4333 43.4162 16.8 43.4162 15.95V10.275C43.4162 9.39167 43.2745 8.74167 42.9912 8.325C42.7245 7.90833 42.2495 7.61667 41.5662 7.45V7.05L45.1912 6.475C45.4412 6.94167 45.5828 7.38333 45.6162 7.8C46.6828 6.75 48.0412 6.225 49.6912 6.225C51.2245 6.225 52.3995 6.63333 53.2162 7.45C54.0328 8.26667 54.4412 9.44167 54.4412 10.975V15.95C54.4412 16.8 54.5745 17.4333 54.8412 17.85C55.1245 18.25 55.6078 18.5417 56.2912 18.725V19.125H50.2412V18.725C50.9245 18.5417 51.3995 18.25 51.6662 17.85C51.9495 17.4333 52.0912 16.8 52.0912 15.95V10.825C52.0912 9.69167 51.8328 8.80833 51.3162 8.175C50.7995 7.54167 50.0745 7.225 49.1412 7.225C48.1078 7.225 47.2828 7.6 46.6662 8.35C46.0662 9.08333 45.7662 10.075 45.7662 11.325V15.95C45.7662 16.8 45.8995 17.4333 46.1662 17.85C46.4495 18.25 46.9328 18.5417 47.6162 18.725V19.125H41.5662V18.725ZM65.38 14.775V10.325C65.38 9.44167 65.2384 8.79167 64.955 8.375C64.6884 7.95833 64.2134 7.66667 63.53 7.5V7.1L67.555 6.475L67.83 6.75C67.7634 7.21667 67.73 7.73333 67.73 8.3V14.925C67.73 16.0583 67.9717 16.9417 68.455 17.575C68.9384 18.2083 69.6134 18.525 70.48 18.525C71.08 18.525 71.6384 18.375 72.155 18.075C72.6717 17.775 73.08 17.3417 73.38 16.775C73.6967 16.2083 73.855 15.5333 73.855 14.75V9.25C73.855 8.65 73.755 8.225 73.555 7.975C73.3717 7.725 72.9467 7.54167 72.28 7.425V7.05L76.08 6.475L76.305 6.7C76.2384 7.25 76.205 7.80833 76.205 8.375V15.95C76.205 16.8 76.3384 17.4333 76.605 17.85C76.8884 18.25 77.3717 18.5417 78.055 18.725V19.125L74.43 19.375C74.1467 18.8417 73.9967 18.3083 73.98 17.775C72.93 18.9417 71.58 19.525 69.93 19.525C68.4634 19.525 67.3384 19.1167 66.555 18.3C65.7717 17.4667 65.38 16.2917 65.38 14.775ZM79.4324 18.725C80.1157 18.5417 80.5907 18.25 80.8574 17.85C81.1407 17.4333 81.2824 16.8 81.2824 15.95V10.275C81.2824 9.39167 81.1407 8.74167 80.8574 8.325C80.5907 7.90833 80.1157 7.61667 79.4324 7.45V7.05L83.0574 6.475C83.3074 6.94167 83.449 7.38333 83.4824 7.8C84.549 6.75 85.9074 6.225 87.5574 6.225C89.0907 6.225 90.2657 6.63333 91.0824 7.45C91.899 8.26667 92.3074 9.44167 92.3074 10.975V15.95C92.3074 16.8 92.4407 17.4333 92.7074 17.85C92.9907 18.25 93.474 18.5417 94.1574 18.725V19.125H88.1074V18.725C88.7907 18.5417 89.2657 18.25 89.5324 17.85C89.8157 17.4333 89.9574 16.8 89.9574 15.95V10.825C89.9574 9.69167 89.699 8.80833 89.1824 8.175C88.6657 7.54167 87.9407 7.225 87.0074 7.225C85.974 7.225 85.149 7.6 84.5324 8.35C83.9324 9.08333 83.6324 10.075 83.6324 11.325V15.95C83.6324 16.8 83.7657 17.4333 84.0324 17.85C84.3157 18.25 84.799 18.5417 85.4824 18.725V19.125H79.4324V18.725ZM95.3962 18.725C96.0796 18.5417 96.5546 18.25 96.8212 17.85C97.1046 17.4333 97.2462 16.8083 97.2462 15.975V3.85C97.2462 2.96667 97.1046 2.31667 96.8212 1.9C96.5546 1.48333 96.0796 1.19167 95.3962 1.025V0.625L99.4212 -1.13249e-06L99.6962 0.275C99.6296 0.741666 99.5962 1.26667 99.5962 1.85V15.975C99.5962 16.8083 99.7296 17.4333 99.9962 17.85C100.28 18.25 100.763 18.5417 101.446 18.725V19.125H95.3962V18.725ZM102.821 18.725C103.504 18.5417 103.979 18.25 104.246 17.85C104.529 17.4333 104.671 16.8 104.671 15.95V10.275C104.671 9.39167 104.529 8.74167 104.246 8.325C103.979 7.90833 103.504 7.61667 102.821 7.45V7.05L106.846 6.475L107.121 6.75C107.088 7.01667 107.063 7.275 107.046 7.525C107.029 7.75833 107.021 8.01667 107.021 8.3V15.95C107.021 16.8 107.154 17.4333 107.421 17.85C107.704 18.25 108.188 18.5417 108.871 18.725V19.125H102.821V18.725ZM104.046 2.4C104.046 1.91667 104.196 1.525 104.496 1.225C104.813 0.924999 105.204 0.774999 105.671 0.774999C106.154 0.774999 106.546 0.924999 106.846 1.225C107.146 1.525 107.296 1.91667 107.296 2.4C107.296 2.86667 107.146 3.25833 106.846 3.575C106.546 3.875 106.154 4.025 105.671 4.025C105.204 4.025 104.813 3.875 104.496 3.575C104.196 3.25833 104.046 2.86667 104.046 2.4ZM110.243 18.725C110.926 18.5417 111.401 18.25 111.668 17.85C111.951 17.4333 112.093 16.8 112.093 15.95V10.275C112.093 9.39167 111.951 8.74167 111.668 8.325C111.401 7.90833 110.926 7.61667 110.243 7.45V7.05L113.868 6.475C114.101 6.925 114.243 7.35 114.293 7.75C115.31 6.73333 116.593 6.225 118.143 6.225C120.093 6.225 121.426 6.94167 122.143 8.375C123.276 6.94167 124.751 6.225 126.568 6.225C128.035 6.225 129.16 6.63333 129.943 7.45C130.743 8.26667 131.143 9.44167 131.143 10.975V15.95C131.143 16.8 131.276 17.4333 131.543 17.85C131.826 18.25 132.31 18.5417 132.993 18.725V19.125H126.943V18.725C127.626 18.5417 128.101 18.25 128.368 17.85C128.651 17.4333 128.793 16.8 128.793 15.95V10.825C128.793 9.69167 128.543 8.80833 128.043 8.175C127.543 7.54167 126.851 7.225 125.968 7.225C125.001 7.225 124.226 7.6 123.643 8.35C123.076 9.08333 122.793 10.075 122.793 11.325V15.95C122.793 16.8 122.926 17.4333 123.193 17.85C123.476 18.25 123.96 18.5417 124.643 18.725V19.125H118.593V18.725C119.276 18.5417 119.751 18.25 120.018 17.85C120.301 17.4333 120.443 16.8 120.443 15.95V10.825C120.443 9.69167 120.193 8.80833 119.693 8.175C119.193 7.54167 118.501 7.225 117.618 7.225C116.651 7.225 115.876 7.6 115.293 8.35C114.726 9.08333 114.443 10.075 114.443 11.325V15.95C114.443 16.8 114.576 17.4333 114.843 17.85C115.126 18.25 115.61 18.5417 116.293 18.725V19.125H110.243V18.725ZM134.364 18.725C135.047 18.5417 135.522 18.25 135.789 17.85C136.072 17.4333 136.214 16.8 136.214 15.95V10.275C136.214 9.39167 136.072 8.74167 135.789 8.325C135.522 7.90833 135.047 7.61667 134.364 7.45V7.05L138.389 6.475L138.664 6.75C138.631 7.01667 138.606 7.275 138.589 7.525C138.572 7.75833 138.564 8.01667 138.564 8.3V15.95C138.564 16.8 138.697 17.4333 138.964 17.85C139.247 18.25 139.731 18.5417 140.414 18.725V19.125H134.364V18.725ZM135.589 2.4C135.589 1.91667 135.739 1.525 136.039 1.225C136.356 0.924999 136.747 0.774999 137.214 0.774999C137.697 0.774999 138.089 0.924999 138.389 1.225C138.689 1.525 138.839 1.91667 138.839 2.4C138.839 2.86667 138.689 3.25833 138.389 3.575C138.089 3.875 137.697 4.025 137.214 4.025C136.747 4.025 136.356 3.875 136.039 3.575C135.739 3.25833 135.589 2.86667 135.589 2.4ZM141.436 6.625H143.286V4.125L145.461 3.775L145.736 4.05C145.669 4.51667 145.636 5.03333 145.636 5.6V6.625H149.611V7.525H145.636V15.75C145.636 17.2667 146.269 18.025 147.536 18.025C148.286 18.025 148.928 17.675 149.461 16.975L149.861 17.2C149.194 18.75 148.086 19.525 146.536 19.525C144.369 19.525 143.286 18.25 143.286 15.7V7.525H141.436V6.625ZM151.65 12.975C151.65 11.625 151.9 10.45 152.4 9.45C152.9 8.43333 153.6 7.64167 154.5 7.075C155.4 6.50833 156.441 6.225 157.625 6.225C159.158 6.225 160.383 6.725 161.3 7.725C162.216 8.70833 162.758 10.125 162.925 11.975H153.9C153.9 13.7917 154.325 15.2083 155.175 16.225C156.025 17.225 157.216 17.725 158.75 17.725C160.25 17.725 161.4 17.1917 162.2 16.125L162.6 16.35C161.65 18.4667 159.991 19.525 157.625 19.525C156.425 19.525 155.375 19.2583 154.475 18.725C153.575 18.175 152.875 17.4083 152.375 16.425C151.891 15.4417 151.65 14.2917 151.65 12.975ZM160.35 11.075C160.266 9.84167 159.941 8.875 159.375 8.175C158.825 7.475 158.091 7.125 157.175 7.125C156.258 7.125 155.516 7.475 154.95 8.175C154.383 8.875 154.05 9.84167 153.95 11.075H160.35ZM164.736 13.2C164.736 11.8333 164.994 10.625 165.511 9.575C166.027 8.525 166.744 7.70833 167.661 7.125C168.577 6.525 169.627 6.225 170.811 6.225C172.144 6.225 173.327 6.575 174.361 7.275V3.825C174.361 2.94167 174.219 2.29167 173.936 1.875C173.669 1.44167 173.194 1.14167 172.511 0.975V0.574999L176.536 -1.13249e-06L176.811 0.275C176.744 0.741666 176.711 1.25833 176.711 1.825V15.95C176.711 16.8 176.844 17.4333 177.111 17.85C177.394 18.25 177.877 18.5417 178.561 18.725V19.125L174.936 19.375C174.686 18.8917 174.544 18.4167 174.511 17.95C173.444 19 172.119 19.525 170.536 19.525C168.769 19.525 167.361 18.9583 166.311 17.825C165.261 16.6917 164.736 15.15 164.736 13.2ZM167.186 12.425C167.186 13.6417 167.344 14.7083 167.661 15.625C167.994 16.5417 168.452 17.2583 169.036 17.775C169.636 18.275 170.319 18.525 171.086 18.525C172.036 18.525 172.819 18.1583 173.436 17.425C174.052 16.675 174.361 15.725 174.361 14.575V11.05C174.361 10.3167 174.194 9.65833 173.861 9.075C173.544 8.475 173.111 8 172.561 7.65C172.011 7.3 171.394 7.125 170.711 7.125C169.611 7.125 168.744 7.59167 168.111 8.525C167.494 9.45833 167.186 10.7583 167.186 12.425ZM194.395 5.425C194.395 4.425 194.137 3.68333 193.62 3.2C193.12 2.71667 192.528 2.475 191.845 2.475C190.828 2.475 189.978 2.84167 189.295 3.575C188.612 4.30833 187.987 5.475 187.42 7.075L186.97 7L187.47 2.575C188.403 2.225 189.245 1.98333 189.995 1.85C190.745 1.7 191.453 1.625 192.12 1.625C193.653 1.625 194.862 1.96667 195.745 2.65C196.645 3.31667 197.095 4.28333 197.095 5.55C197.095 6.18333 196.887 6.9 196.47 7.7C196.053 8.48333 195.345 9.45833 194.345 10.625C193.362 11.775 192.02 13.2167 190.32 14.95L188.395 16.925H194.895C195.628 16.925 196.187 16.7417 196.57 16.375C196.97 16.0083 197.353 15.3417 197.72 14.375L198.17 14.45L197.62 19.125H185.995L185.82 18.725L189.52 14.225C190.437 13.1083 191.203 12.1333 191.82 11.3C192.453 10.4667 192.953 9.725 193.32 9.075C193.703 8.425 193.978 7.80833 194.145 7.225C194.312 6.64167 194.395 6.04167 194.395 5.425ZM209.466 18.725C210.149 18.5083 210.541 18.175 210.641 17.725C210.757 17.275 210.574 16.675 210.091 15.925L207.141 11.25L204.066 15.925C203.082 17.4083 203.207 18.3417 204.441 18.725V19.125H199.566V18.725C200.716 18.3583 201.724 17.55 202.591 16.3L206.591 10.375L202.716 4.25C202.332 3.63333 201.932 3.14167 201.516 2.775C201.116 2.40833 200.616 2.15833 200.016 2.025V1.625H206.616V2.025C205.782 2.20833 205.332 2.525 205.266 2.975C205.216 3.40833 205.449 4.025 205.966 4.825L208.491 8.8L211.116 4.825C211.699 3.95833 211.957 3.3 211.891 2.85C211.841 2.4 211.374 2.125 210.491 2.025V1.625H215.641V2.025C215.241 2.10833 214.891 2.225 214.591 2.375C214.291 2.525 213.991 2.75833 213.691 3.075C213.391 3.39167 213.032 3.85 212.616 4.45L209.041 9.675L213.391 16.5C213.774 17.1167 214.166 17.5917 214.566 17.925C214.982 18.2417 215.491 18.5083 216.091 18.725V19.125H209.466V18.725ZM223.744 18.725C224.427 18.5417 224.902 18.25 225.169 17.85C225.452 17.4333 225.594 16.8 225.594 15.95V10.275C225.594 9.39167 225.452 8.74167 225.169 8.325C224.902 7.90833 224.427 7.61667 223.744 7.45V7.05L227.369 6.475C227.602 6.925 227.744 7.35 227.794 7.75C228.811 6.73333 230.094 6.225 231.644 6.225C233.594 6.225 234.927 6.94167 235.644 8.375C236.777 6.94167 238.252 6.225 240.069 6.225C241.536 6.225 242.661 6.63333 243.444 7.45C244.244 8.26667 244.644 9.44167 244.644 10.975V15.95C244.644 16.8 244.777 17.4333 245.044 17.85C245.327 18.25 245.811 18.5417 246.494 18.725V19.125H240.444V18.725C241.127 18.5417 241.602 18.25 241.869 17.85C242.152 17.4333 242.294 16.8 242.294 15.95V10.825C242.294 9.69167 242.044 8.80833 241.544 8.175C241.044 7.54167 240.352 7.225 239.469 7.225C238.502 7.225 237.727 7.6 237.144 8.35C236.577 9.08333 236.294 10.075 236.294 11.325V15.95C236.294 16.8 236.427 17.4333 236.694 17.85C236.977 18.25 237.461 18.5417 238.144 18.725V19.125H232.094V18.725C232.777 18.5417 233.252 18.25 233.519 17.85C233.802 17.4333 233.944 16.8 233.944 15.95V10.825C233.944 9.69167 233.694 8.80833 233.194 8.175C232.694 7.54167 232.002 7.225 231.119 7.225C230.152 7.225 229.377 7.6 228.794 8.35C228.227 9.08333 227.944 10.075 227.944 11.325V15.95C227.944 16.8 228.077 17.4333 228.344 17.85C228.627 18.25 229.111 18.5417 229.794 18.725V19.125H223.744V18.725ZM247.865 18.725C248.548 18.5417 249.023 18.25 249.29 17.85C249.573 17.4333 249.715 16.8 249.715 15.95V10.275C249.715 9.39167 249.573 8.74167 249.29 8.325C249.023 7.90833 248.548 7.61667 247.865 7.45V7.05L251.89 6.475L252.165 6.75C252.132 7.01667 252.107 7.275 252.09 7.525C252.073 7.75833 252.065 8.01667 252.065 8.3V15.95C252.065 16.8 252.198 17.4333 252.465 17.85C252.748 18.25 253.232 18.5417 253.915 18.725V19.125H247.865V18.725ZM249.09 2.4C249.09 1.91667 249.24 1.525 249.54 1.225C249.857 0.924999 250.248 0.774999 250.715 0.774999C251.198 0.774999 251.59 0.924999 251.89 1.225C252.19 1.525 252.34 1.91667 252.34 2.4C252.34 2.86667 252.19 3.25833 251.89 3.575C251.59 3.875 251.198 4.025 250.715 4.025C250.248 4.025 249.857 3.875 249.54 3.575C249.24 3.25833 249.09 2.86667 249.09 2.4ZM255.162 18.725C255.845 18.5417 256.32 18.25 256.587 17.85C256.87 17.4333 257.012 16.8083 257.012 15.975V3.85C257.012 2.96667 256.87 2.31667 256.587 1.9C256.32 1.48333 255.845 1.19167 255.162 1.025V0.625L259.187 -1.13249e-06L259.462 0.275C259.395 0.741666 259.362 1.26667 259.362 1.85V15.975C259.362 16.8083 259.495 17.4333 259.762 17.85C260.045 18.25 260.529 18.5417 261.212 18.725V19.125H255.162V18.725ZM262.612 12.975C262.612 11.625 262.862 10.45 263.362 9.45C263.862 8.43333 264.562 7.64167 265.462 7.075C266.362 6.50833 267.403 6.225 268.587 6.225C270.12 6.225 271.345 6.725 272.262 7.725C273.178 8.70833 273.72 10.125 273.887 11.975H264.862C264.862 13.7917 265.287 15.2083 266.137 16.225C266.987 17.225 268.178 17.725 269.712 17.725C271.212 17.725 272.362 17.1917 273.162 16.125L273.562 16.35C272.612 18.4667 270.953 19.525 268.587 19.525C267.387 19.525 266.337 19.2583 265.437 18.725C264.537 18.175 263.837 17.4083 263.337 16.425C262.853 15.4417 262.612 14.2917 262.612 12.975ZM271.312 11.075C271.228 9.84167 270.903 8.875 270.337 8.175C269.787 7.475 269.053 7.125 268.137 7.125C267.22 7.125 266.478 7.475 265.912 8.175C265.345 8.875 265.012 9.84167 264.912 11.075H271.312ZM283.323 16.6C283.323 15.9833 283.089 15.4667 282.623 15.05C282.156 14.6333 281.356 14.2 280.223 13.75C278.706 13.1333 277.631 12.5167 276.998 11.9C276.364 11.2667 276.048 10.5417 276.048 9.725C276.048 8.65833 276.464 7.80833 277.298 7.175C278.148 6.54167 279.281 6.225 280.698 6.225C281.381 6.225 282.089 6.30833 282.823 6.475C283.556 6.625 284.239 6.84167 284.873 7.125L285.273 10.45L284.848 10.575C284.281 9.45833 283.614 8.60833 282.848 8.025C282.081 7.425 281.264 7.125 280.398 7.125C279.731 7.125 279.206 7.29167 278.823 7.625C278.456 7.94167 278.273 8.36667 278.273 8.9C278.273 9.45 278.506 9.925 278.973 10.325C279.439 10.7083 280.256 11.1333 281.423 11.6C282.956 12.2167 284.023 12.8167 284.623 13.4C285.239 13.9833 285.548 14.7 285.548 15.55C285.548 16.3167 285.339 17 284.923 17.6C284.523 18.2 283.956 18.675 283.223 19.025C282.506 19.3583 281.664 19.525 280.698 19.525C280.031 19.525 279.323 19.4333 278.573 19.25C277.823 19.0833 277.073 18.8333 276.323 18.5L275.923 15.175L276.348 15.05C276.914 16.1833 277.606 17.0667 278.423 17.7C279.256 18.3167 280.131 18.625 281.048 18.625C281.764 18.625 282.323 18.4417 282.723 18.075C283.123 17.7083 283.323 17.2167 283.323 16.6ZM-4.88255e-05 38.625H6.19995V39.025C5.51662 39.0917 5.07495 39.35 4.87495 39.8C4.67495 40.25 4.73328 40.85 5.04995 41.6L7.82495 47.95L10.575 41.675L10.125 40.675C9.90828 40.1917 9.65828 39.8333 9.37495 39.6C9.10829 39.3667 8.69162 39.175 8.12495 39.025V38.625H14.325V39.025C13.6416 39.0917 13.2 39.35 13 39.8C12.8 40.25 12.8583 40.85 13.175 41.6L15.95 47.95L18.725 41.6C19.0583 40.85 19.1166 40.25 18.9 39.8C18.7 39.35 18.2583 39.0917 17.575 39.025V38.625H22.125V39.025C21.5583 39.175 21.1416 39.3667 20.875 39.6C20.6083 39.8333 20.3583 40.1917 20.125 40.675L15.35 51.375H14.9L11.075 42.775L7.22495 51.375H6.77495L1.99995 40.675C1.78328 40.1917 1.53328 39.8333 1.24995 39.6C0.983285 39.3667 0.566618 39.175 -4.88255e-05 39.025V38.625ZM23.3044 50.725C23.9878 50.5417 24.4628 50.25 24.7294 49.85C25.0128 49.4333 25.1544 48.8 25.1544 47.95V42.275C25.1544 41.3917 25.0128 40.7417 24.7294 40.325C24.4628 39.9083 23.9878 39.6167 23.3044 39.45V39.05L27.3294 38.475L27.6044 38.75C27.5711 39.0167 27.5461 39.275 27.5294 39.525C27.5128 39.7583 27.5044 40.0167 27.5044 40.3V47.95C27.5044 48.8 27.6378 49.4333 27.9044 49.85C28.1878 50.25 28.6711 50.5417 29.3544 50.725V51.125H23.3044V50.725ZM24.5294 34.4C24.5294 33.9167 24.6794 33.525 24.9794 33.225C25.2961 32.925 25.6878 32.775 26.1544 32.775C26.6378 32.775 27.0294 32.925 27.3294 33.225C27.6294 33.525 27.7794 33.9167 27.7794 34.4C27.7794 34.8667 27.6294 35.2583 27.3294 35.575C27.0294 35.875 26.6378 36.025 26.1544 36.025C25.6878 36.025 25.2961 35.875 24.9794 35.575C24.6794 35.2583 24.5294 34.8667 24.5294 34.4ZM30.3763 38.625H32.2263V36.125L34.4013 35.775L34.6763 36.05C34.6097 36.5167 34.5763 37.0333 34.5763 37.6V38.625H38.5513V39.525H34.5763V47.75C34.5763 49.2667 35.2097 50.025 36.4763 50.025C37.2263 50.025 37.868 49.675 38.4013 48.975L38.8013 49.2C38.1347 50.75 37.0263 51.525 35.4763 51.525C33.3097 51.525 32.2263 50.25 32.2263 47.7V39.525H30.3763V38.625ZM40.6843 50.725C41.3677 50.5417 41.8427 50.2417 42.1093 49.825C42.3927 49.4083 42.5343 48.7667 42.5343 47.9V35.85C42.5343 34.9667 42.3927 34.3167 42.1093 33.9C41.8427 33.4833 41.3677 33.1917 40.6843 33.025V32.625L44.7093 32L44.9843 32.275C44.9177 32.7417 44.8843 33.25 44.8843 33.8V39.65C45.9177 38.7 47.226 38.225 48.8093 38.225C50.3427 38.225 51.5177 38.6333 52.3343 39.45C53.151 40.2667 53.5593 41.4417 53.5593 42.975V47.95C53.5593 48.8 53.6927 49.4333 53.9593 49.85C54.2427 50.25 54.726 50.5417 55.4093 50.725V51.125H49.3593V50.725C50.0427 50.5417 50.5177 50.25 50.7843 49.85C51.0677 49.4333 51.2093 48.8 51.2093 47.95V42.825C51.2093 41.6917 50.951 40.8083 50.4343 40.175C49.9177 39.5417 49.1927 39.225 48.2593 39.225C47.226 39.225 46.401 39.6 45.7843 40.35C45.1843 41.0833 44.8843 42.075 44.8843 43.325V48.025C44.8843 48.8583 45.0177 49.475 45.2843 49.875C45.5677 50.275 46.051 50.5583 46.7343 50.725V51.125H40.6843V50.725ZM62.6761 33.625H69.2761V34.025C68.4428 34.2083 67.9261 34.5417 67.7261 35.025C67.5428 35.5083 67.5928 36.1083 67.8761 36.825L72.2261 47.425L76.5511 36.85C76.8511 36.1167 76.8595 35.4917 76.5761 34.975C76.2928 34.4417 75.7095 34.125 74.8261 34.025V33.625H79.9761V34.025C79.3595 34.1583 78.9095 34.4417 78.6261 34.875C78.3428 35.3083 78.0178 35.9667 77.6511 36.85L71.5511 51.375H71.1011L65.0011 36.85C64.6345 35.9667 64.3011 35.3083 64.0011 34.875C63.7178 34.4417 63.2761 34.1583 62.6761 34.025V33.625ZM79.1156 44.975C79.1156 43.625 79.3656 42.45 79.8656 41.45C80.3656 40.4333 81.0656 39.6417 81.9656 39.075C82.8656 38.5083 83.9072 38.225 85.0906 38.225C86.6239 38.225 87.8489 38.725 88.7656 39.725C89.6822 40.7083 90.2239 42.125 90.3906 43.975H81.3656C81.3656 45.7917 81.7906 47.2083 82.6406 48.225C83.4906 49.225 84.6822 49.725 86.2156 49.725C87.7156 49.725 88.8656 49.1917 89.6656 48.125L90.0656 48.35C89.1156 50.4667 87.4572 51.525 85.0906 51.525C83.8906 51.525 82.8406 51.2583 81.9406 50.725C81.0406 50.175 80.3406 49.4083 79.8406 48.425C79.3572 47.4417 79.1156 46.2917 79.1156 44.975ZM87.8156 43.075C87.7322 41.8417 87.4072 40.875 86.8406 40.175C86.2906 39.475 85.5572 39.125 84.6406 39.125C83.7239 39.125 82.9822 39.475 82.4156 40.175C81.8489 40.875 81.5156 41.8417 81.4156 43.075H87.8156ZM92.1765 50.725C92.8598 50.5417 93.3348 50.25 93.6015 49.85C93.8848 49.4333 94.0265 48.8 94.0265 47.95V42.275C94.0265 41.3917 93.8848 40.7417 93.6015 40.325C93.3348 39.9083 92.8598 39.6167 92.1765 39.45V39.05L95.8015 38.475C96.0515 38.9417 96.1932 39.3833 96.2265 39.8C97.2932 38.75 98.6515 38.225 100.302 38.225C101.835 38.225 103.01 38.6333 103.827 39.45C104.643 40.2667 105.052 41.4417 105.052 42.975V47.95C105.052 48.8 105.185 49.4333 105.452 49.85C105.735 50.25 106.218 50.5417 106.902 50.725V51.125H100.852V50.725C101.535 50.5417 102.01 50.25 102.277 49.85C102.56 49.4333 102.702 48.8 102.702 47.95V42.825C102.702 41.6917 102.443 40.8083 101.927 40.175C101.41 39.5417 100.685 39.225 99.7515 39.225C98.7182 39.225 97.8932 39.6 97.2765 40.35C96.6765 41.0833 96.3765 42.075 96.3765 43.325V47.95C96.3765 48.8 96.5098 49.4333 96.7765 49.85C97.0598 50.25 97.5432 50.5417 98.2265 50.725V51.125H92.1765V50.725ZM107.915 38.625H109.765V36.125L111.94 35.775L112.215 36.05C112.149 36.5167 112.115 37.0333 112.115 37.6V38.625H116.09V39.525H112.115V47.75C112.115 49.2667 112.749 50.025 114.015 50.025C114.765 50.025 115.407 49.675 115.94 48.975L116.34 49.2C115.674 50.75 114.565 51.525 113.015 51.525C110.849 51.525 109.765 50.25 109.765 47.7V39.525H107.915V38.625ZM119.823 46.775V42.325C119.823 41.4417 119.682 40.7917 119.398 40.375C119.132 39.9583 118.657 39.6667 117.973 39.5V39.1L121.998 38.475L122.273 38.75C122.207 39.2167 122.173 39.7333 122.173 40.3V46.925C122.173 48.0583 122.415 48.9417 122.898 49.575C123.382 50.2083 124.057 50.525 124.923 50.525C125.523 50.525 126.082 50.375 126.598 50.075C127.115 49.775 127.523 49.3417 127.823 48.775C128.14 48.2083 128.298 47.5333 128.298 46.75V41.25C128.298 40.65 128.198 40.225 127.998 39.975C127.815 39.725 127.39 39.5417 126.723 39.425V39.05L130.523 38.475L130.748 38.7C130.682 39.25 130.648 39.8083 130.648 40.375V47.95C130.648 48.8 130.782 49.4333 131.048 49.85C131.332 50.25 131.815 50.5417 132.498 50.725V51.125L128.873 51.375C128.59 50.8417 128.44 50.3083 128.423 49.775C127.373 50.9417 126.023 51.525 124.373 51.525C122.907 51.525 121.782 51.1167 120.998 50.3C120.215 49.4667 119.823 48.2917 119.823 46.775ZM133.876 50.725C134.559 50.5417 135.034 50.25 135.301 49.85C135.584 49.4333 135.726 48.8083 135.726 47.975V42.225C135.726 41.375 135.584 40.7417 135.301 40.325C135.034 39.9083 134.559 39.6167 133.876 39.45V39.05L137.501 38.475C137.651 38.7583 137.759 39.0167 137.826 39.25C137.892 39.4833 137.934 39.7667 137.951 40.1C138.334 39.5167 138.801 39.0583 139.351 38.725C139.917 38.3917 140.534 38.225 141.201 38.225C142.134 38.225 142.959 38.525 143.676 39.125L143.826 42.6L143.401 42.7C142.884 41.5167 142.392 40.675 141.926 40.175C141.459 39.675 140.934 39.425 140.351 39.425C139.634 39.425 139.076 39.7583 138.676 40.425C138.276 41.0917 138.076 42.0333 138.076 43.25V47.975C138.076 48.875 138.242 49.5167 138.576 49.9C138.909 50.2833 139.526 50.5417 140.426 50.675V51.125H133.876V50.725ZM145.204 44.975C145.204 43.625 145.454 42.45 145.954 41.45C146.454 40.4333 147.154 39.6417 148.054 39.075C148.954 38.5083 149.996 38.225 151.179 38.225C152.713 38.225 153.938 38.725 154.854 39.725C155.771 40.7083 156.313 42.125 156.479 43.975H147.454C147.454 45.7917 147.879 47.2083 148.729 48.225C149.579 49.225 150.771 49.725 152.304 49.725C153.804 49.725 154.954 49.1917 155.754 48.125L156.154 48.35C155.204 50.4667 153.546 51.525 151.179 51.525C149.979 51.525 148.929 51.2583 148.029 50.725C147.129 50.175 146.429 49.4083 145.929 48.425C145.446 47.4417 145.204 46.2917 145.204 44.975ZM153.904 43.075C153.821 41.8417 153.496 40.875 152.929 40.175C152.379 39.475 151.646 39.125 150.729 39.125C149.813 39.125 149.071 39.475 148.504 40.175C147.938 40.875 147.604 41.8417 147.504 43.075H153.904ZM174.065 50.725C174.749 50.5083 175.14 50.175 175.24 49.725C175.357 49.275 175.174 48.675 174.69 47.925L171.74 43.25L168.665 47.925C167.682 49.4083 167.807 50.3417 169.04 50.725V51.125H164.165V50.725C165.315 50.3583 166.324 49.55 167.19 48.3L171.19 42.375L167.315 36.25C166.932 35.6333 166.532 35.1417 166.115 34.775C165.715 34.4083 165.215 34.1583 164.615 34.025V33.625H171.215V34.025C170.382 34.2083 169.932 34.525 169.865 34.975C169.815 35.4083 170.049 36.025 170.565 36.825L173.09 40.8L175.715 36.825C176.299 35.9583 176.557 35.3 176.49 34.85C176.44 34.4 175.974 34.125 175.09 34.025V33.625H180.24V34.025C179.84 34.1083 179.49 34.225 179.19 34.375C178.89 34.525 178.59 34.7583 178.29 35.075C177.99 35.3917 177.632 35.85 177.215 36.45L173.64 41.675L177.99 48.5C178.374 49.1167 178.765 49.5917 179.165 49.925C179.582 50.2417 180.09 50.5083 180.69 50.725V51.125H174.065V50.725ZM188.469 50.675C189.185 50.4917 189.685 50.1833 189.969 49.75C190.269 49.3167 190.419 48.6583 190.419 47.775V36.975C190.419 36.0917 190.269 35.4333 189.969 35C189.685 34.5667 189.185 34.2583 188.469 34.075V33.625H194.744C196.977 33.625 198.71 34 199.944 34.75C201.177 35.5 201.794 36.55 201.794 37.9C201.794 38.8667 201.469 39.6833 200.819 40.35C200.169 41.0167 199.235 41.5083 198.019 41.825C199.569 42.075 200.769 42.5917 201.619 43.375C202.469 44.1417 202.894 45.125 202.894 46.325C202.894 47.8417 202.219 49.025 200.869 49.875C199.519 50.7083 197.627 51.125 195.194 51.125H188.469V50.675ZM192.919 47.675C192.919 48.5417 193.069 49.175 193.369 49.575C193.669 49.975 194.152 50.175 194.819 50.175H195.569C197.002 50.175 198.135 49.875 198.969 49.275C199.819 48.675 200.244 47.7917 200.244 46.625C200.244 45.3917 199.785 44.4083 198.869 43.675C197.952 42.925 196.727 42.55 195.194 42.55H192.919V47.675ZM199.219 38.325C199.219 37.1917 198.76 36.2833 197.844 35.6C196.927 34.9167 195.702 34.575 194.169 34.575H192.919V41.6H194.069C195.752 41.6 197.027 41.325 197.894 40.775C198.777 40.2083 199.219 39.3917 199.219 38.325ZM205.614 46.775V42.325C205.614 41.4417 205.473 40.7917 205.189 40.375C204.923 39.9583 204.448 39.6667 203.764 39.5V39.1L207.789 38.475L208.064 38.75C207.998 39.2167 207.964 39.7333 207.964 40.3V46.925C207.964 48.0583 208.206 48.9417 208.689 49.575C209.173 50.2083 209.848 50.525 210.714 50.525C211.314 50.525 211.873 50.375 212.389 50.075C212.906 49.775 213.314 49.3417 213.614 48.775C213.931 48.2083 214.089 47.5333 214.089 46.75V41.25C214.089 40.65 213.989 40.225 213.789 39.975C213.606 39.725 213.181 39.5417 212.514 39.425V39.05L216.314 38.475L216.539 38.7C216.473 39.25 216.439 39.8083 216.439 40.375V47.95C216.439 48.8 216.573 49.4333 216.839 49.85C217.123 50.25 217.606 50.5417 218.289 50.725V51.125L214.664 51.375C214.381 50.8417 214.231 50.3083 214.214 49.775C213.164 50.9417 211.814 51.525 210.164 51.525C208.698 51.525 207.573 51.1167 206.789 50.3C206.006 49.4667 205.614 48.2917 205.614 46.775ZM227.317 48.6C227.317 47.9833 227.083 47.4667 226.617 47.05C226.15 46.6333 225.35 46.2 224.217 45.75C222.7 45.1333 221.625 44.5167 220.992 43.9C220.358 43.2667 220.042 42.5417 220.042 41.725C220.042 40.6583 220.458 39.8083 221.292 39.175C222.142 38.5417 223.275 38.225 224.692 38.225C225.375 38.225 226.083 38.3083 226.817 38.475C227.55 38.625 228.233 38.8417 228.867 39.125L229.267 42.45L228.842 42.575C228.275 41.4583 227.608 40.6083 226.842 40.025C226.075 39.425 225.258 39.125 224.392 39.125C223.725 39.125 223.2 39.2917 222.817 39.625C222.45 39.9417 222.267 40.3667 222.267 40.9C222.267 41.45 222.5 41.925 222.967 42.325C223.433 42.7083 224.25 43.1333 225.417 43.6C226.95 44.2167 228.017 44.8167 228.617 45.4C229.233 45.9833 229.542 46.7 229.542 47.55C229.542 48.3167 229.333 49 228.917 49.6C228.517 50.2 227.95 50.675 227.217 51.025C226.5 51.3583 225.658 51.525 224.692 51.525C224.025 51.525 223.317 51.4333 222.567 51.25C221.817 51.0833 221.067 50.8333 220.317 50.5L219.917 47.175L220.342 47.05C220.908 48.1833 221.6 49.0667 222.417 49.7C223.25 50.3167 224.125 50.625 225.042 50.625C225.758 50.625 226.317 50.4417 226.717 50.075C227.117 49.7083 227.317 49.2167 227.317 48.6ZM231.532 50.725C232.215 50.5417 232.69 50.25 232.957 49.85C233.24 49.4333 233.382 48.8 233.382 47.95V42.275C233.382 41.3917 233.24 40.7417 232.957 40.325C232.69 39.9083 232.215 39.6167 231.532 39.45V39.05L235.557 38.475L235.832 38.75C235.799 39.0167 235.774 39.275 235.757 39.525C235.74 39.7583 235.732 40.0167 235.732 40.3V47.95C235.732 48.8 235.865 49.4333 236.132 49.85C236.415 50.25 236.899 50.5417 237.582 50.725V51.125H231.532V50.725ZM232.757 34.4C232.757 33.9167 232.907 33.525 233.207 33.225C233.524 32.925 233.915 32.775 234.382 32.775C234.865 32.775 235.257 32.925 235.557 33.225C235.857 33.525 236.007 33.9167 236.007 34.4C236.007 34.8667 235.857 35.2583 235.557 35.575C235.257 35.875 234.865 36.025 234.382 36.025C233.915 36.025 233.524 35.875 233.207 35.575C232.907 35.2583 232.757 34.8667 232.757 34.4ZM238.954 50.725C239.637 50.5417 240.112 50.25 240.379 49.85C240.662 49.4333 240.804 48.8 240.804 47.95V42.275C240.804 41.3917 240.662 40.7417 240.379 40.325C240.112 39.9083 239.637 39.6167 238.954 39.45V39.05L242.579 38.475C242.829 38.9417 242.971 39.3833 243.004 39.8C244.071 38.75 245.429 38.225 247.079 38.225C248.612 38.225 249.787 38.6333 250.604 39.45C251.421 40.2667 251.829 41.4417 251.829 42.975V47.95C251.829 48.8 251.962 49.4333 252.229 49.85C252.512 50.25 252.996 50.5417 253.679 50.725V51.125H247.629V50.725C248.312 50.5417 248.787 50.25 249.054 49.85C249.337 49.4333 249.479 48.8 249.479 47.95V42.825C249.479 41.6917 249.221 40.8083 248.704 40.175C248.187 39.5417 247.462 39.225 246.529 39.225C245.496 39.225 244.671 39.6 244.054 40.35C243.454 41.0833 243.154 42.075 243.154 43.325V47.95C243.154 48.8 243.287 49.4333 243.554 49.85C243.837 50.25 244.321 50.5417 245.004 50.725V51.125H238.954V50.725ZM255.068 44.975C255.068 43.625 255.318 42.45 255.818 41.45C256.318 40.4333 257.018 39.6417 257.918 39.075C258.818 38.5083 259.859 38.225 261.043 38.225C262.576 38.225 263.801 38.725 264.718 39.725C265.634 40.7083 266.176 42.125 266.343 43.975H257.318C257.318 45.7917 257.743 47.2083 258.593 48.225C259.443 49.225 260.634 49.725 262.168 49.725C263.668 49.725 264.818 49.1917 265.618 48.125L266.018 48.35C265.068 50.4667 263.409 51.525 261.043 51.525C259.843 51.525 258.793 51.2583 257.893 50.725C256.993 50.175 256.293 49.4083 255.793 48.425C255.309 47.4417 255.068 46.2917 255.068 44.975ZM263.768 43.075C263.684 41.8417 263.359 40.875 262.793 40.175C262.243 39.475 261.509 39.125 260.593 39.125C259.676 39.125 258.934 39.475 258.368 40.175C257.801 40.875 257.468 41.8417 257.368 43.075H263.768ZM275.779 48.6C275.779 47.9833 275.545 47.4667 275.079 47.05C274.612 46.6333 273.812 46.2 272.679 45.75C271.162 45.1333 270.087 44.5167 269.454 43.9C268.82 43.2667 268.504 42.5417 268.504 41.725C268.504 40.6583 268.92 39.8083 269.754 39.175C270.604 38.5417 271.737 38.225 273.154 38.225C273.837 38.225 274.545 38.3083 275.279 38.475C276.012 38.625 276.695 38.8417 277.329 39.125L277.729 42.45L277.304 42.575C276.737 41.4583 276.07 40.6083 275.304 40.025C274.537 39.425 273.72 39.125 272.854 39.125C272.187 39.125 271.662 39.2917 271.279 39.625C270.912 39.9417 270.729 40.3667 270.729 40.9C270.729 41.45 270.962 41.925 271.429 42.325C271.895 42.7083 272.712 43.1333 273.879 43.6C275.412 44.2167 276.479 44.8167 277.079 45.4C277.695 45.9833 278.004 46.7 278.004 47.55C278.004 48.3167 277.795 49 277.379 49.6C276.979 50.2 276.412 50.675 275.679 51.025C274.962 51.3583 274.12 51.525 273.154 51.525C272.487 51.525 271.779 51.4333 271.029 51.25C270.279 51.0833 269.529 50.8333 268.779 50.5L268.379 47.175L268.804 47.05C269.37 48.1833 270.062 49.0667 270.879 49.7C271.712 50.3167 272.587 50.625 273.504 50.625C274.22 50.625 274.779 50.4417 275.179 50.075C275.579 49.7083 275.779 49.2167 275.779 48.6ZM287.644 48.6C287.644 47.9833 287.411 47.4667 286.944 47.05C286.477 46.6333 285.677 46.2 284.544 45.75C283.027 45.1333 281.952 44.5167 281.319 43.9C280.686 43.2667 280.369 42.5417 280.369 41.725C280.369 40.6583 280.786 39.8083 281.619 39.175C282.469 38.5417 283.602 38.225 285.019 38.225C285.702 38.225 286.411 38.3083 287.144 38.475C287.877 38.625 288.561 38.8417 289.194 39.125L289.594 42.45L289.169 42.575C288.602 41.4583 287.936 40.6083 287.169 40.025C286.402 39.425 285.586 39.125 284.719 39.125C284.052 39.125 283.527 39.2917 283.144 39.625C282.777 39.9417 282.594 40.3667 282.594 40.9C282.594 41.45 282.827 41.925 283.294 42.325C283.761 42.7083 284.577 43.1333 285.744 43.6C287.277 44.2167 288.344 44.8167 288.944 45.4C289.561 45.9833 289.869 46.7 289.869 47.55C289.869 48.3167 289.661 49 289.244 49.6C288.844 50.2 288.277 50.675 287.544 51.025C286.827 51.3583 285.986 51.525 285.019 51.525C284.352 51.525 283.644 51.4333 282.894 51.25C282.144 51.0833 281.394 50.8333 280.644 50.5L280.244 47.175L280.669 47.05C281.236 48.1833 281.927 49.0667 282.744 49.7C283.577 50.3167 284.452 50.625 285.369 50.625C286.086 50.625 286.644 50.4417 287.044 50.075C287.444 49.7083 287.644 49.2167 287.644 48.6Z" fill="white"/>
</svg>
