<svg width="309" height="53" viewBox="0 0 309 53" fill="none" xmlns="http://www.w3.org/2000/svg">
<path d="M7.02637 16.1147C7.02637 14.63 7.35618 13.5032 8.02347 12.7343C8.69076 11.9577 9.65719 11.577 10.9227 11.577C12.1883 11.577 13.1547 11.9653 13.822 12.7343C14.4893 13.5109 14.8191 14.6377 14.8191 16.1147C14.8191 17.5917 14.4893 18.7261 13.822 19.4951C13.1547 20.2717 12.1883 20.6523 10.9227 20.6523C9.65719 20.6523 8.69076 20.2641 8.02347 19.4951C7.35618 18.7185 7.02637 17.5917 7.02637 16.1147ZM8.91319 16.1147C8.91319 17.1958 9.07426 17.9952 9.40408 18.4977C9.72622 19.0002 10.2401 19.2515 10.9304 19.2515C11.6207 19.2515 12.1269 19.0002 12.4567 18.4977C12.7866 17.9952 12.9476 17.1958 12.9476 16.1147C12.9476 15.0336 12.7866 14.2341 12.4567 13.7317C12.1346 13.2292 11.6207 12.9779 10.9304 12.9779C10.2401 12.9779 9.72622 13.2292 9.40408 13.7317C9.08193 14.2341 8.91319 15.0336 8.91319 16.1147Z" fill="white"/>
<path d="M21.0317 20.4544V15.2696H18.3318V20.4544H16.6444V15.2696H15.6934V14.1504L16.6444 14.1124V13.0921C16.6444 12.3917 16.8362 11.8359 17.2274 11.4324C17.6185 11.0289 18.1478 10.8309 18.8304 10.8309C19.2753 10.8309 19.6818 10.8995 20.0576 11.0441V12.1861C19.7585 12.11 19.4977 12.0719 19.2676 12.0719C18.9685 12.0719 18.7384 12.1557 18.5773 12.3156C18.4162 12.4755 18.3318 12.7115 18.3318 13.0312V14.0819H21.0317V13.0921C21.0317 12.3917 21.2234 11.8359 21.6146 11.4324C21.9981 11.0289 22.535 10.8309 23.2177 10.8309C23.5781 10.8309 23.9463 10.8918 24.3145 11.0213V12.1633C24.0844 12.1024 23.8619 12.0796 23.6548 12.0796C23.3557 12.0796 23.1256 12.1633 22.9569 12.3232C22.7881 12.4831 22.7114 12.7191 22.7114 13.0389V14.0895H24.2378V15.2696H22.7114V20.4544H21.024H21.0317ZM26.255 13.0845C25.9405 13.0845 25.6951 13.0008 25.5187 12.8333C25.3423 12.6658 25.2579 12.4374 25.2579 12.1481C25.2579 11.8588 25.3423 11.6304 25.5187 11.4629C25.6951 11.2954 25.9405 11.2116 26.255 11.2116C26.5695 11.2116 26.8226 11.2954 26.999 11.4629C27.1754 11.6304 27.2674 11.8588 27.2674 12.1481C27.2674 12.4374 27.1754 12.6658 26.999 12.8333C26.8226 13.0008 26.5695 13.0845 26.255 13.0845ZM25.419 20.4544V14.2113L27.1064 14.0515V20.4544H25.419Z" fill="white"/>
<path d="M33.4647 20.2185C32.8281 20.5078 32.1685 20.6525 31.4782 20.6525C30.4964 20.6525 29.7371 20.3631 29.2078 19.7845C28.6786 19.2059 28.4102 18.376 28.4102 17.2873C28.4102 16.1985 28.6709 15.3534 29.2078 14.7672C29.7371 14.181 30.4964 13.884 31.4858 13.884C32.1301 13.884 32.7744 14.0287 33.4264 14.318V15.5438C32.8281 15.3001 32.2912 15.1859 31.8233 15.1859C30.7265 15.1859 30.1743 15.8788 30.1743 17.2568C30.1743 17.942 30.3123 18.4598 30.5961 18.8176C30.8799 19.1754 31.2864 19.3429 31.831 19.3429C32.2989 19.3429 32.8434 19.2211 33.4724 18.9851V20.2109L33.4647 20.2185Z" fill="white"/>
<path d="M35.5591 13.0847C35.2446 13.0847 34.9992 13.001 34.8228 12.8335C34.6464 12.666 34.562 12.4376 34.562 12.1483C34.562 11.8589 34.6464 11.6305 34.8228 11.463C34.9992 11.2955 35.2446 11.2118 35.5591 11.2118C35.8736 11.2118 36.1267 11.2955 36.3031 11.463C36.4795 11.6305 36.5716 11.8589 36.5716 12.1483C36.5716 12.4376 36.4795 12.666 36.3031 12.8335C36.1267 13.001 35.8736 13.0847 35.5591 13.0847ZM34.7231 20.4546V14.2115L36.4105 14.0516V20.4546H34.7231Z" fill="white"/>
<path d="M41.9404 20.4926L41.8407 20.0814C41.1887 20.4621 40.5368 20.6525 39.8925 20.6525C39.2482 20.6525 38.696 20.4697 38.2971 20.1043C37.8983 19.7388 37.7065 19.2516 37.7065 18.6273C37.7065 18.0029 37.929 17.4928 38.3662 17.135C38.8034 16.7772 39.417 16.6021 40.207 16.6021C40.6748 16.6021 41.1504 16.6477 41.6336 16.7391V16.2442C41.6336 15.8635 41.5185 15.5818 41.2961 15.4067C41.0737 15.2316 40.7209 15.1403 40.2453 15.1403C39.6087 15.1403 38.9107 15.2849 38.1437 15.559V14.3408C38.5042 14.2038 38.8954 14.0896 39.3326 14.0058C39.7621 13.9221 40.1763 13.884 40.5598 13.884C41.4418 13.884 42.1168 14.082 42.5923 14.4779C43.0602 14.8738 43.298 15.4448 43.298 16.1909V20.3479L41.9481 20.485L41.9404 20.4926ZM40.4064 19.4495C40.5905 19.4495 40.7899 19.4191 41.0123 19.3658C41.2348 19.3049 41.4418 19.2363 41.6336 19.145V17.7898C41.2501 17.6984 40.9049 17.6527 40.5981 17.6527C39.8005 17.6527 39.3939 17.9573 39.3939 18.574C39.3939 18.8633 39.4783 19.0841 39.6471 19.2287C39.8158 19.381 40.0689 19.4495 40.4064 19.4495Z" fill="white"/>
<path d="M44.8555 20.4545V11.1203L46.5429 10.9604V20.4545H44.8555Z" fill="white"/>
<path d="M51.4434 20.4547V11.9428C51.8499 11.859 52.3331 11.7905 52.8853 11.7448C53.4376 11.6992 53.9284 11.6687 54.358 11.6687C55.4011 11.6687 56.1911 11.859 56.7357 12.2549C57.2802 12.6432 57.5487 13.2066 57.5487 13.9528C57.5487 14.874 57.0578 15.5135 56.0761 15.8866C56.682 16.0389 57.1499 16.2977 57.4643 16.6708C57.7788 17.0438 57.9399 17.5083 57.9399 18.0641C57.9399 18.833 57.6638 19.4269 57.1115 19.838C56.5593 20.2491 55.7769 20.4623 54.7491 20.4623H51.451L51.4434 20.4547ZM54.2813 12.9706C53.7674 12.9706 53.3762 13.0011 53.1078 13.0544V15.3841H54.4807C54.9179 15.3841 55.2554 15.2775 55.5085 15.0643C55.7616 14.8512 55.8843 14.5542 55.8843 14.1736C55.8843 13.77 55.7539 13.4655 55.4931 13.2675C55.2324 13.0696 54.8258 12.9706 54.2889 12.9706H54.2813ZM54.6801 19.1528C55.6772 19.1528 56.1834 18.7417 56.1834 17.9118C56.1834 17.5083 56.053 17.1961 55.7923 16.9753C55.5315 16.7545 55.1557 16.6479 54.6724 16.6479H53.1078V19.1528H54.6801Z" fill="white"/>
<path d="M63.1093 20.4926L63.0096 20.0814C62.3577 20.4621 61.7057 20.6525 61.0614 20.6525C60.4172 20.6525 59.8649 20.4697 59.4661 20.1043C59.0672 19.7388 58.8755 19.2516 58.8755 18.6273C58.8755 18.0029 59.0979 17.4928 59.5351 17.135C59.9723 16.7772 60.5859 16.6021 61.3759 16.6021C61.8438 16.6021 62.3193 16.6477 62.8025 16.7391V16.2442C62.8025 15.8635 62.6875 15.5818 62.4651 15.4067C62.2426 15.2316 61.8898 15.1403 61.4143 15.1403C60.7777 15.1403 60.0797 15.2849 59.3127 15.559V14.3408C59.6732 14.2038 60.0643 14.0896 60.5015 14.0058C60.9311 13.9221 61.3452 13.884 61.7287 13.884C62.6108 13.884 63.2858 14.082 63.7613 14.4779C64.2292 14.8738 64.4669 15.4448 64.4669 16.1909V20.3479L63.117 20.485L63.1093 20.4926ZM61.5753 19.4495C61.7594 19.4495 61.9588 19.4191 62.1813 19.3658C62.4037 19.3049 62.6108 19.2363 62.8025 19.145V17.7898C62.419 17.6984 62.0739 17.6527 61.7671 17.6527C60.9694 17.6527 60.5629 17.9573 60.5629 18.574C60.5629 18.8633 60.6473 19.0841 60.816 19.2287C60.9847 19.381 61.2379 19.4495 61.5753 19.4495Z" fill="white"/>
<path d="M69.9508 20.4544V16.2746C69.9508 15.9015 69.8665 15.6274 69.6977 15.4523C69.529 15.2772 69.2682 15.1859 68.9077 15.1859C68.7083 15.1859 68.5012 15.2163 68.2788 15.2772C68.064 15.3381 67.8723 15.4219 67.7035 15.5208V20.462H66.0161V14.1961L67.366 14.0591L67.4657 14.4702C68.1177 14.0895 68.7543 13.8992 69.3909 13.8992C70.1042 13.8992 70.6565 14.0895 71.0476 14.4626C71.4388 14.8356 71.6306 15.3686 71.6306 16.0538V20.462H69.9432L69.9508 20.4544Z" fill="white"/>
<path d="M73.2109 20.4545V11.1203L74.8983 10.9604V16.7163L77.115 14.082H79.0171L76.5627 16.9371L79.2012 20.4469H77.161L74.8983 17.4091V20.4469H73.2109V20.4545Z" fill="white"/>
<path d="M87.0478 20.4926L86.9481 20.0814C86.2962 20.4621 85.6442 20.6525 84.9999 20.6525C84.3556 20.6525 83.8034 20.4697 83.4046 20.1043C83.0057 19.7388 82.814 19.2516 82.814 18.6273C82.814 18.0029 83.0364 17.4928 83.4736 17.135C83.9108 16.7772 84.5244 16.6021 85.3144 16.6021C85.7823 16.6021 86.2578 16.6477 86.741 16.7391V16.2442C86.741 15.8635 86.626 15.5818 86.4035 15.4067C86.1811 15.2316 85.8283 15.1403 85.3527 15.1403C84.7161 15.1403 84.0182 15.2849 83.2512 15.559V14.3408C83.6116 14.2038 84.0028 14.0896 84.44 14.0058C84.8695 13.9221 85.2837 13.884 85.6672 13.884C86.5493 13.884 87.2242 14.082 87.6998 14.4779C88.1676 14.8738 88.4054 15.4448 88.4054 16.1909V20.3479L87.0555 20.485L87.0478 20.4926ZM85.5138 19.4495C85.6979 19.4495 85.8973 19.4191 86.1197 19.3658C86.3422 19.3049 86.5493 19.2363 86.741 19.145V17.7898C86.3575 17.6984 86.0124 17.6527 85.7056 17.6527C84.9079 17.6527 84.5014 17.9573 84.5014 18.574C84.5014 18.8633 84.5857 19.0841 84.7545 19.2287C84.9232 19.381 85.1763 19.4495 85.5138 19.4495Z" fill="white"/>
<path d="M93.8898 20.4544V16.2746C93.8898 15.9015 93.8054 15.6274 93.6367 15.4523C93.4679 15.2772 93.2072 15.1859 92.8467 15.1859C92.6473 15.1859 92.4402 15.2163 92.2177 15.2772C92.003 15.3381 91.8112 15.4219 91.6425 15.5208V20.462H89.9551V14.1961L91.305 14.0591L91.4047 14.4702C92.0567 14.0895 92.6933 13.8992 93.3299 13.8992C94.0432 13.8992 94.5954 14.0895 94.9866 14.4626C95.3778 14.8356 95.5695 15.3686 95.5695 16.0538V20.462H93.8821L93.8898 20.4544Z" fill="white"/>
<path d="M102.764 10.9604V20.3555L101.414 20.4926L101.314 20.0814C101.015 20.2566 100.7 20.3936 100.363 20.5002C100.025 20.6068 99.7262 20.6525 99.4501 20.6525C98.6294 20.6525 97.9928 20.3631 97.5326 19.7845C97.0724 19.2059 96.8423 18.3989 96.8423 17.3786C96.8423 16.2671 97.1184 15.4144 97.663 14.8053C98.2075 14.1962 98.9746 13.8917 99.9717 13.8917C100.332 13.8917 100.7 13.9373 101.084 14.0287V11.1279L102.771 10.9681L102.764 10.9604ZM99.9256 19.3658C100.102 19.3658 100.294 19.3353 100.509 19.2744C100.723 19.2135 100.907 19.1298 101.076 19.0308V15.224C100.815 15.1631 100.539 15.1403 100.248 15.1403C99.6879 15.1403 99.2737 15.323 99.0052 15.6808C98.7368 16.0387 98.5987 16.5945 98.5987 17.3482C98.5987 18.6958 99.0436 19.3734 99.9256 19.3734V19.3658Z" fill="white"/>
<path d="M113.609 20.0814C112.857 20.462 112.044 20.6524 111.155 20.6524C109.927 20.6524 108.984 20.2565 108.309 19.4723C107.634 18.6881 107.304 17.5689 107.304 16.1071C107.304 14.6453 107.642 13.5642 108.317 12.7648C108.992 11.9654 109.935 11.5695 111.155 11.5695C112.014 11.5695 112.811 11.7598 113.555 12.1405V13.5185C113.156 13.3282 112.804 13.1911 112.489 13.115C112.182 13.0389 111.837 13.0008 111.461 13.0008C110.717 13.0008 110.157 13.2597 109.782 13.785C109.406 14.3103 109.214 15.0869 109.214 16.1147C109.214 18.1932 109.966 19.2287 111.461 19.2287C111.822 19.2287 112.167 19.1906 112.489 19.1068C112.819 19.0231 113.187 18.8937 113.594 18.7109V20.089L113.609 20.0814Z" fill="white"/>
<path d="M114.944 20.4546V14.1887L116.294 14.0516L116.432 14.6379C116.954 14.1658 117.537 13.9298 118.173 13.9298C118.373 13.9298 118.58 13.9603 118.802 14.0136V15.3916C118.549 15.3307 118.334 15.3079 118.143 15.3079C117.567 15.3079 117.069 15.4677 116.639 15.7799V20.4622H114.952L114.944 20.4546Z" fill="white"/>
<path d="M124.93 20.2033C124.324 20.5002 123.649 20.6525 122.905 20.6525C121.808 20.6525 120.965 20.3631 120.382 19.7845C119.799 19.2059 119.507 18.3608 119.507 17.2492C119.507 16.5716 119.638 15.9778 119.899 15.4676C120.159 14.9575 120.52 14.5693 120.98 14.2952C121.44 14.0211 121.962 13.884 122.552 13.884C123.388 13.884 124.04 14.1201 124.516 14.5997C124.991 15.0794 125.229 15.7265 125.229 16.5564C125.229 16.9447 125.191 17.3253 125.114 17.6984H121.164C121.195 18.277 121.379 18.7034 121.701 18.9851C122.023 19.2668 122.499 19.4038 123.112 19.4038C123.726 19.4038 124.347 19.2668 124.922 18.9927V20.2109L124.93 20.2033ZM122.552 15.0565C122.161 15.0565 121.839 15.1936 121.594 15.46C121.348 15.7265 121.195 16.092 121.156 16.5564H123.68V16.3737C123.68 15.9397 123.58 15.6123 123.388 15.3915C123.197 15.1707 122.92 15.0565 122.552 15.0565Z" fill="white"/>
<path d="M132.155 10.9604V20.3555L130.805 20.4926L130.706 20.0814C130.406 20.2566 130.092 20.3936 129.754 20.5002C129.417 20.6068 129.118 20.6525 128.842 20.6525C128.021 20.6525 127.384 20.3631 126.924 19.7845C126.464 19.2059 126.234 18.3989 126.234 17.3786C126.234 16.2671 126.51 15.4144 127.055 14.8053C127.599 14.1962 128.366 13.8917 129.363 13.8917C129.724 13.8917 130.092 13.9373 130.475 14.0287V11.1279L132.163 10.9681L132.155 10.9604ZM129.317 19.3658C129.494 19.3658 129.685 19.3353 129.9 19.2744C130.115 19.2135 130.299 19.1298 130.468 19.0308V15.224C130.207 15.1631 129.931 15.1403 129.639 15.1403C129.079 15.1403 128.665 15.323 128.397 15.6808C128.128 16.0387 127.99 16.5945 127.99 17.3482C127.99 18.6958 128.435 19.3734 129.317 19.3734V19.3658Z" fill="white"/>
<path d="M134.617 13.0847C134.303 13.0847 134.057 13.001 133.881 12.8335C133.704 12.666 133.62 12.4376 133.62 12.1483C133.62 11.8589 133.704 11.6305 133.881 11.463C134.057 11.2955 134.303 11.2118 134.617 11.2118C134.932 11.2118 135.185 11.2955 135.361 11.463C135.538 11.6305 135.63 11.8589 135.63 12.1483C135.63 12.4376 135.538 12.666 135.361 12.8335C135.185 13.001 134.932 13.0847 134.617 13.0847ZM133.781 20.4546V14.2115L135.469 14.0516V20.4546H133.781Z" fill="white"/>
<path d="M139.181 15.2696V18.4597C139.181 19.0764 139.48 19.3885 140.071 19.3885C140.285 19.3885 140.554 19.3429 140.868 19.2515V20.3783C140.5 20.5458 140.078 20.6295 139.603 20.6295C138.913 20.6295 138.383 20.4544 138.03 20.0966C137.67 19.7388 137.494 19.221 137.494 18.5434V15.2696H136.542V14.1504L137.578 14.1124L137.693 12.5135L139.181 12.3536V14.0895H140.83V15.2696H139.181Z" fill="white"/>
<path d="M151.223 20.0814C150.472 20.462 149.659 20.6524 148.769 20.6524C147.542 20.6524 146.598 20.2565 145.923 19.4723C145.248 18.6881 144.918 17.5689 144.918 16.1071C144.918 14.6453 145.256 13.5642 145.931 12.7648C146.606 11.9654 147.549 11.5695 148.769 11.5695C149.628 11.5695 150.426 11.7598 151.17 12.1405V13.5185C150.771 13.3282 150.418 13.1911 150.103 13.115C149.797 13.0389 149.451 13.0008 149.076 13.0008C148.332 13.0008 147.772 13.2597 147.396 13.785C147.02 14.3103 146.828 15.0869 146.828 16.1147C146.828 18.1932 147.58 19.2287 149.076 19.2287C149.436 19.2287 149.781 19.1906 150.103 19.1068C150.433 19.0231 150.801 18.8937 151.208 18.7109V20.089L151.223 20.0814Z" fill="white"/>
<path d="M156.477 20.4926L156.377 20.0814C155.725 20.4621 155.073 20.6525 154.429 20.6525C153.785 20.6525 153.233 20.4697 152.834 20.1043C152.435 19.7388 152.243 19.2516 152.243 18.6273C152.243 18.0029 152.466 17.4928 152.903 17.135C153.34 16.7772 153.954 16.6021 154.744 16.6021C155.211 16.6021 155.687 16.6477 156.17 16.7391V16.2442C156.17 15.8635 156.055 15.5818 155.833 15.4067C155.61 15.2316 155.257 15.1403 154.782 15.1403C154.145 15.1403 153.447 15.2849 152.68 15.559V14.3408C153.041 14.2038 153.432 14.0896 153.869 14.0058C154.299 13.9221 154.713 13.884 155.096 13.884C155.978 13.884 156.653 14.082 157.129 14.4779C157.597 14.8738 157.835 15.4448 157.835 16.1909V20.3479L156.485 20.485L156.477 20.4926ZM154.943 19.4495C155.127 19.4495 155.327 19.4191 155.549 19.3658C155.771 19.3049 155.978 19.2363 156.17 19.145V17.7898C155.787 17.6984 155.442 17.6527 155.135 17.6527C154.337 17.6527 153.931 17.9573 153.931 18.574C153.931 18.8633 154.015 19.0841 154.184 19.2287C154.352 19.381 154.606 19.4495 154.943 19.4495Z" fill="white"/>
<path d="M159.384 20.4546V14.1887L160.734 14.0516L160.872 14.6379C161.393 14.1658 161.976 13.9298 162.613 13.9298C162.812 13.9298 163.019 13.9603 163.242 14.0136V15.3916C162.989 15.3307 162.774 15.3079 162.582 15.3079C162.007 15.3079 161.508 15.4677 161.079 15.7799V20.4622H159.391L159.384 20.4546Z" fill="white"/>
<path d="M169.876 10.9604V20.3555L168.526 20.4926L168.427 20.0814C168.128 20.2566 167.813 20.3936 167.476 20.5002C167.138 20.6068 166.839 20.6525 166.563 20.6525C165.742 20.6525 165.106 20.3631 164.645 19.7845C164.185 19.2059 163.955 18.3989 163.955 17.3786C163.955 16.2671 164.231 15.4144 164.776 14.8053C165.32 14.1962 166.087 13.8917 167.084 13.8917C167.445 13.8917 167.813 13.9373 168.197 14.0287V11.1279L169.884 10.9681L169.876 10.9604ZM167.038 19.3658C167.215 19.3658 167.407 19.3353 167.621 19.2744C167.836 19.2135 168.02 19.1298 168.189 19.0308V15.224C167.928 15.1631 167.652 15.1403 167.361 15.1403C166.801 15.1403 166.386 15.323 166.118 15.6808C165.85 16.0387 165.712 16.5945 165.712 17.3482C165.712 18.6958 166.156 19.3734 167.038 19.3734V19.3658Z" fill="white"/>
<path d="M174.777 20.4547V11.9428C175.215 11.859 175.698 11.7905 176.227 11.7448C176.756 11.6992 177.224 11.6687 177.615 11.6687C178.735 11.6687 179.594 11.9123 180.192 12.3996C180.791 12.8869 181.09 13.5797 181.09 14.4857C181.09 15.3917 180.775 16.0769 180.146 16.5794C179.517 17.0819 178.651 17.3408 177.554 17.3408H176.526V20.4547H174.777ZM177.554 12.9935C177.17 12.9935 176.825 13.0163 176.526 13.0696V16.0084H177.554C178.114 16.0084 178.543 15.879 178.842 15.6201C179.142 15.3613 179.295 14.9882 179.295 14.4933C179.295 13.4959 178.712 12.9935 177.554 12.9935Z" fill="white"/>
<path d="M185.991 20.4926L185.891 20.0814C185.24 20.4621 184.588 20.6525 183.943 20.6525C183.299 20.6525 182.747 20.4697 182.348 20.1043C181.949 19.7388 181.757 19.2516 181.757 18.6273C181.757 18.0029 181.98 17.4928 182.417 17.135C182.854 16.7772 183.468 16.6021 184.258 16.6021C184.726 16.6021 185.201 16.6477 185.684 16.7391V16.2442C185.684 15.8635 185.569 15.5818 185.347 15.4067C185.124 15.2316 184.772 15.1403 184.296 15.1403C183.659 15.1403 182.962 15.2849 182.195 15.559V14.3408C182.555 14.2038 182.946 14.0896 183.383 14.0058C183.813 13.9221 184.227 13.884 184.611 13.884C185.493 13.884 186.168 14.082 186.643 14.4779C187.111 14.8738 187.349 15.4448 187.349 16.1909V20.3479L185.999 20.485L185.991 20.4926ZM184.457 19.4495C184.641 19.4495 184.841 19.4191 185.063 19.3658C185.286 19.3049 185.493 19.2363 185.684 19.145V17.7898C185.301 17.6984 184.956 17.6527 184.649 17.6527C183.851 17.6527 183.445 17.9573 183.445 18.574C183.445 18.8633 183.529 19.0841 183.698 19.2287C183.867 19.381 184.12 19.4495 184.457 19.4495Z" fill="white"/>
<path d="M188.905 20.4546V14.1887L190.255 14.0516L190.393 14.6379C190.915 14.1658 191.498 13.9298 192.134 13.9298C192.334 13.9298 192.541 13.9603 192.763 14.0136V15.3916C192.51 15.3307 192.295 15.3079 192.104 15.3079C191.528 15.3079 191.03 15.4677 190.6 15.7799V20.4622H188.913L188.905 20.4546Z" fill="white"/>
<path d="M195.87 15.2696V18.4597C195.87 19.0764 196.17 19.3885 196.76 19.3885C196.975 19.3885 197.243 19.3429 197.558 19.2515V20.3783C197.19 20.5458 196.768 20.6295 196.292 20.6295C195.602 20.6295 195.073 20.4544 194.72 20.0966C194.359 19.7388 194.183 19.221 194.183 18.5434V15.2696H193.232V14.1504L194.267 14.1124L194.382 12.5135L195.87 12.3536V14.0895H197.519V15.2696H195.87Z" fill="white"/>
<path d="M202.62 20.4544V16.2746C202.62 15.9015 202.535 15.6274 202.367 15.4523C202.198 15.2772 201.937 15.1859 201.577 15.1859C201.377 15.1859 201.17 15.2163 200.948 15.2772C200.733 15.3381 200.541 15.4219 200.372 15.5208V20.462H198.685V14.1961L200.035 14.0591L200.135 14.4702C200.787 14.0895 201.423 13.8992 202.06 13.8992C202.773 13.8992 203.325 14.0895 203.717 14.4626C204.108 14.8356 204.3 15.3686 204.3 16.0538V20.462H202.612L202.62 20.4544Z" fill="white"/>
<path d="M210.995 20.2033C210.39 20.5002 209.715 20.6525 208.971 20.6525C207.874 20.6525 207.03 20.3631 206.447 19.7845C205.864 19.2059 205.573 18.3608 205.573 17.2492C205.573 16.5716 205.703 15.9778 205.964 15.4676C206.225 14.9575 206.585 14.5693 207.045 14.2952C207.506 14.0211 208.027 13.884 208.618 13.884C209.454 13.884 210.106 14.1201 210.581 14.5997C211.057 15.0794 211.295 15.7265 211.295 16.5564C211.295 16.9447 211.256 17.3253 211.18 17.6984H207.229C207.26 18.277 207.444 18.7034 207.766 18.9851C208.089 19.2668 208.564 19.4038 209.178 19.4038C209.791 19.4038 210.413 19.2668 210.988 18.9927V20.2109L210.995 20.2033ZM208.618 15.0565C208.227 15.0565 207.904 15.1936 207.659 15.46C207.414 15.7265 207.26 16.092 207.222 16.5564H209.745V16.3737C209.745 15.9397 209.646 15.6123 209.454 15.3915C209.262 15.1707 208.986 15.0565 208.618 15.0565Z" fill="white"/>
<path d="M212.606 20.4546V14.1887L213.956 14.0516L214.094 14.6379C214.616 14.1658 215.198 13.9298 215.835 13.9298C216.034 13.9298 216.242 13.9603 216.464 14.0136V15.3916C216.211 15.3307 215.996 15.3079 215.804 15.3079C215.229 15.3079 214.731 15.4677 214.301 15.7799V20.4622H212.614L212.606 20.4546Z" fill="white"/>
<path d="M223.344 20.6524C222.355 20.6524 221.595 20.3631 221.074 19.7921C220.552 19.2211 220.292 18.376 220.292 17.2644C220.292 16.1528 220.552 15.3306 221.066 14.7519C221.58 14.1809 222.339 13.8916 223.344 13.8916C224.349 13.8916 225.101 14.1809 225.622 14.7519C226.136 15.3306 226.397 16.168 226.397 17.2644C226.397 18.3607 226.136 19.2135 225.615 19.7921C225.093 20.3707 224.334 20.6524 223.344 20.6524ZM223.344 19.3581C223.804 19.3581 224.134 19.1982 224.334 18.8708C224.533 18.5435 224.633 18.0105 224.633 17.2568C224.633 16.503 224.533 15.9777 224.334 15.6579C224.134 15.3382 223.804 15.1707 223.344 15.1707C222.884 15.1707 222.554 15.3306 222.355 15.6579C222.155 15.9853 222.056 16.5107 222.056 17.2568C222.056 18.0029 222.155 18.5511 222.355 18.8708C222.554 19.1906 222.884 19.3581 223.344 19.3581Z" fill="white"/>
<path d="M228.107 20.4544V15.2696H227.156V14.1504L228.107 14.1124V13.0921C228.107 12.3917 228.299 11.8359 228.69 11.4324C229.081 11.0289 229.611 10.8309 230.293 10.8309C230.738 10.8309 231.183 10.9147 231.628 11.0822V12.2242C231.252 12.1252 230.953 12.0719 230.73 12.0719C230.431 12.0719 230.201 12.1557 230.04 12.3156C229.879 12.4755 229.795 12.7115 229.795 13.0312V14.0819H231.321V15.262H229.795V20.4468H228.107V20.4544Z" fill="white"/>
<path d="M306.876 33.0809C307.375 33.0809 307.773 33.4311 307.773 33.9107C307.773 34.3904 307.375 34.7482 306.876 34.7482C306.378 34.7482 305.979 34.3904 305.979 33.9107C305.979 33.4311 306.378 33.0809 306.876 33.0809ZM306.876 34.9766C307.52 34.9766 308.027 34.5046 308.027 33.9107C308.027 33.3169 307.52 32.8448 306.876 32.8448C306.232 32.8448 305.726 33.3169 305.726 33.9107C305.726 34.5046 306.232 34.9766 306.876 34.9766ZM307.114 34.0173C307.329 34.0021 307.436 33.8955 307.436 33.6899C307.436 33.4006 307.252 33.355 306.968 33.355H306.385V34.4665H306.638V34.0249H306.853L307.129 34.4665H307.405L307.114 34.0249V34.0173ZM306.638 33.8194V33.5529H306.914C307.029 33.5529 307.191 33.5529 307.191 33.6747C307.191 33.7965 307.106 33.8194 306.976 33.8194H306.638Z" fill="white"/>
<path d="M245.063 0H299.835C302.78 0 305.181 2.37542 305.181 5.30662V29.6166C305.181 32.5402 302.788 34.9232 299.835 34.9232H245.063C242.118 34.9232 239.717 32.5478 239.717 29.6166V5.30662C239.717 2.37542 242.11 0 245.063 0Z" fill="white"/>
<path d="M302.35 2.8018C301.675 2.13181 300.786 1.76636 299.835 1.76636H284.518L293.33 16.3539L294.136 16.4528L294.604 17.1152V17.7471L295.171 17.8461L295.677 18.5466V19.148L296.245 19.247C296.245 19.247 296.813 19.8485 296.813 19.8789C296.813 19.8485 296.813 21.2417 296.813 21.2417C296.813 21.2417 298.055 22.3762 299.16 22.8025C299.934 23.0994 300.034 24.3328 300.471 25.0028C301.077 25.9317 301.883 26.3352 301.714 26.8681C301.315 28.2995 299.835 30.6977 298.462 30.8348C298.462 30.8348 295.041 30.8348 293.024 30.8348V33.1417H299.819C301.783 33.1417 303.378 31.5504 303.378 29.6014V5.30664C303.378 4.36257 303.01 3.47179 302.335 2.80941L302.35 2.8018Z" fill="#BC0022"/>
<path d="M279.302 1.76652H245.063C244.112 1.76652 243.215 2.13197 242.548 2.80196C241.873 3.47195 241.504 4.35512 241.504 5.2992V29.6092C241.504 30.5532 241.873 31.444 242.548 32.1064C243.222 32.7764 244.112 33.1418 245.063 33.1418H267.306C266.746 32.2206 266.125 31.1699 265.926 30.8502H263.272C263.272 24.3254 265.512 20.6937 268.165 19.9933C268.534 19.9248 268.365 18.128 267.897 17.595C267.897 17.595 266.624 17.6255 266.355 17.5646C266.018 17.4656 266.256 17.1306 266.256 17.1306L267.498 14.4659L267.329 13.735H262.735C262.666 13.735 266.524 11.1007 266.524 11.1007C266.723 4.1724 273.872 3.63945 278.198 6.50213C280.752 8.19995 280.951 11.5271 280.752 13.8644C280.721 13.9938 280.085 13.8949 280.085 13.8949C280.085 13.8949 279.647 16.4226 280.79 16.4226H285.822C287.87 16.354 289.849 17.7169 289.849 17.7169L290.347 15.981L279.302 1.75891V1.76652ZM248.868 28.1474C247.518 28.1474 246.421 27.0586 246.421 25.7187C246.421 24.3787 247.518 23.2899 248.868 23.2899C250.218 23.2899 251.314 24.3787 251.314 25.7187C251.314 27.0586 250.225 28.1474 248.868 28.1474Z" fill="#041E42"/>
<path d="M10.9675 32.75L11.83 34.94L12.7 32.75H13.3375L13.615 36.005H13.0375L12.865 33.665L12.07 35.69H11.5825L10.7725 33.6275L10.6 36.005H10.03L10.3075 32.75H10.9675ZM8.14 36.005V33.245H7.1725V32.75H9.7225V33.245H8.755V36.005H8.14ZM14.2437 38L16.1337 32.3675H16.8462L14.9562 38H14.2437ZM20.0834 38.1125C19.5634 38.1125 19.0934 37.9875 18.6734 37.7375C18.2584 37.4825 17.9359 37.1475 17.7059 36.7325C17.4759 36.3175 17.3609 35.865 17.3609 35.375C17.3609 34.85 17.4859 34.3775 17.7359 33.9575C17.9909 33.5375 18.3234 33.2125 18.7334 32.9825C19.1484 32.7525 19.5984 32.6375 20.0834 32.6375C20.6034 32.6375 21.0709 32.765 21.4859 33.02C21.9059 33.27 22.2309 33.6025 22.4609 34.0175C22.6909 34.4325 22.8059 34.885 22.8059 35.375C22.8059 35.9 22.6784 36.3725 22.4234 36.7925C22.1734 37.2125 21.8409 37.5375 21.4259 37.7675C21.0159 37.9975 20.5684 38.1125 20.0834 38.1125ZM20.0834 37.685C20.5234 37.685 20.9134 37.5825 21.2534 37.3775C21.5984 37.1675 21.8634 36.8875 22.0484 36.5375C22.2384 36.1875 22.3334 35.8 22.3334 35.375C22.3334 34.92 22.2309 34.5175 22.0259 34.1675C21.8259 33.8125 21.5559 33.54 21.2159 33.35C20.8759 33.16 20.4984 33.065 20.0834 33.065C19.6434 33.065 19.2509 33.17 18.9059 33.38C18.5659 33.585 18.3009 33.8625 18.1109 34.2125C17.9259 34.5625 17.8334 34.95 17.8334 35.375C17.8334 35.83 17.9334 36.235 18.1334 36.59C18.3384 36.94 18.6109 37.21 18.9509 37.4C19.2909 37.59 19.6684 37.685 20.0834 37.685ZM21.0509 36.83C20.7909 36.97 20.4984 37.04 20.1734 37.04C19.7084 37.04 19.3434 36.8925 19.0784 36.5975C18.8134 36.3025 18.6809 35.895 18.6809 35.375C18.6809 34.855 18.8134 34.4475 19.0784 34.1525C19.3484 33.8575 19.7134 33.71 20.1734 33.71C20.4884 33.71 20.7759 33.78 21.0359 33.92V34.3925C20.9059 34.3225 20.7809 34.2725 20.6609 34.2425C20.5459 34.2075 20.4184 34.19 20.2784 34.19C19.9834 34.19 19.7509 34.2975 19.5809 34.5125C19.4159 34.7225 19.3334 35.01 19.3334 35.375C19.3334 35.745 19.4159 36.035 19.5809 36.245C19.7509 36.455 19.9834 36.56 20.2784 36.56C20.5234 36.56 20.7809 36.4925 21.0509 36.3575V36.83ZM25.3504 38C25.3604 37.55 25.4504 37.16 25.6204 36.83C25.7954 36.5 26.0879 36.1625 26.4979 35.8175L27.1279 35.285C27.3829 35.07 27.5654 34.8775 27.6754 34.7075C27.7854 34.5375 27.8404 34.3625 27.8404 34.1825C27.8404 33.9175 27.7429 33.7075 27.5479 33.5525C27.3579 33.3975 27.0979 33.32 26.7679 33.32C26.3379 33.32 25.9179 33.47 25.5079 33.77V33.1925C25.9129 32.8975 26.3904 32.75 26.9404 32.75C27.2654 32.75 27.5504 32.8125 27.7954 32.9375C28.0454 33.0575 28.2379 33.225 28.3729 33.44C28.5079 33.65 28.5754 33.885 28.5754 34.145C28.5754 34.405 28.5054 34.65 28.3654 34.88C28.2304 35.105 27.9979 35.3575 27.6679 35.6375L27.0679 36.1475C26.7879 36.3875 26.5754 36.6075 26.4304 36.8075C26.2854 37.0075 26.1929 37.2075 26.1529 37.4075H27.8929C28.1829 37.4075 28.4329 37.4 28.6429 37.385V38H25.3504ZM31.3581 37.5575C31.7481 37.5575 32.0331 37.3875 32.2131 37.0475C32.3931 36.7025 32.4831 36.1625 32.4831 35.4275C32.4831 34.6925 32.3906 34.155 32.2056 33.815C32.0256 33.475 31.7431 33.305 31.3581 33.305C30.9731 33.305 30.6881 33.475 30.5031 33.815C30.3231 34.155 30.2331 34.6925 30.2331 35.4275C30.2331 36.1625 30.3231 36.7025 30.5031 37.0475C30.6831 37.3875 30.9681 37.5575 31.3581 37.5575ZM31.3581 38.1125C30.1181 38.1125 29.4981 37.2175 29.4981 35.4275C29.4981 34.5425 29.6531 33.875 29.9631 33.425C30.2731 32.975 30.7381 32.75 31.3581 32.75C31.9781 32.75 32.4431 32.975 32.7531 33.425C33.0631 33.875 33.2181 34.5425 33.2181 35.4275C33.2181 37.2175 32.5981 38.1125 31.3581 38.1125ZM33.9561 38C33.9661 37.55 34.0561 37.16 34.2261 36.83C34.4011 36.5 34.6936 36.1625 35.1036 35.8175L35.7336 35.285C35.9886 35.07 36.1711 34.8775 36.2811 34.7075C36.3911 34.5375 36.4461 34.3625 36.4461 34.1825C36.4461 33.9175 36.3486 33.7075 36.1536 33.5525C35.9636 33.3975 35.7036 33.32 35.3736 33.32C34.9436 33.32 34.5236 33.47 34.1136 33.77V33.1925C34.5186 32.8975 34.9961 32.75 35.5461 32.75C35.8711 32.75 36.1561 32.8125 36.4011 32.9375C36.6511 33.0575 36.8436 33.225 36.9786 33.44C37.1136 33.65 37.1811 33.885 37.1811 34.145C37.1811 34.405 37.1111 34.65 36.9711 34.88C36.8361 35.105 36.6036 35.3575 36.2736 35.6375L35.6736 36.1475C35.3936 36.3875 35.1811 36.6075 35.0361 36.8075C34.8911 37.0075 34.7986 37.2075 34.7586 37.4075H36.4986C36.7886 37.4075 37.0386 37.4 37.2486 37.385V38H33.9561ZM41.2838 33.335C40.7638 33.36 40.3188 33.4575 39.9488 33.6275C39.5788 33.7925 39.2888 34.025 39.0788 34.325C38.8738 34.62 38.7538 34.975 38.7188 35.39C38.8638 35.21 39.0563 35.0675 39.2963 34.9625C39.5363 34.8575 39.7863 34.805 40.0463 34.805C40.3513 34.805 40.6238 34.88 40.8638 35.03C41.1038 35.175 41.2888 35.3725 41.4188 35.6225C41.5488 35.8675 41.6138 36.1375 41.6138 36.4325C41.6138 36.7725 41.5363 37.07 41.3813 37.325C41.2313 37.575 41.0238 37.77 40.7588 37.91C40.4938 38.045 40.1938 38.1125 39.8588 38.1125C39.4688 38.1125 39.1338 38.0225 38.8538 37.8425C38.5788 37.6575 38.3688 37.395 38.2238 37.055C38.0838 36.715 38.0138 36.315 38.0138 35.855C38.0138 35.225 38.1413 34.6825 38.3963 34.2275C38.6513 33.7675 39.0163 33.4125 39.4913 33.1625C39.9663 32.9125 40.5313 32.775 41.1863 32.75L41.2838 33.335ZM39.9188 35.3525C39.6888 35.3525 39.4638 35.415 39.2438 35.54C39.0238 35.665 38.8463 35.8325 38.7113 36.0425C38.7313 36.5325 38.8388 36.9075 39.0338 37.1675C39.2338 37.4275 39.5088 37.5575 39.8588 37.5575C40.1738 37.5575 40.4263 37.4575 40.6163 37.2575C40.8063 37.0525 40.9013 36.785 40.9013 36.455C40.9013 36.125 40.8113 35.86 40.6313 35.66C40.4513 35.455 40.2138 35.3525 39.9188 35.3525ZM47.0029 37.5425L45.5404 33.7775L45.2554 38H44.5654L44.9779 32.75H45.7954L47.3029 36.635L48.8104 32.75H49.6279L50.0404 38H49.3429L49.0504 33.7775L47.5954 37.5425H47.0029ZM51.3623 38V32.75H52.0898V37.4H54.5048V38H51.3623ZM55.4235 38V32.8625C55.6885 32.8125 55.9685 32.7725 56.2635 32.7425C56.5585 32.7125 56.816 32.6975 57.036 32.6975C57.621 32.6975 58.0685 32.815 58.3785 33.05C58.6935 33.28 58.851 33.6125 58.851 34.0475C58.851 34.3375 58.771 34.585 58.611 34.79C58.456 34.995 58.226 35.15 57.921 35.255C58.291 35.335 58.576 35.49 58.776 35.72C58.981 35.945 59.0835 36.23 59.0835 36.575C59.0835 37.035 58.9235 37.3875 58.6035 37.6325C58.2835 37.8775 57.826 38 57.231 38H55.4235ZM57.2085 37.445C57.5785 37.445 57.8585 37.3675 58.0485 37.2125C58.2435 37.0525 58.341 36.82 58.341 36.515C58.341 36.215 58.2385 35.985 58.0335 35.825C57.8335 35.66 57.551 35.5775 57.186 35.5775H56.1285V37.445H57.2085ZM56.9835 33.2525C56.7485 33.2525 56.4635 33.2775 56.1285 33.3275V35.0375H57.1185C57.4335 35.0375 57.681 34.9575 57.861 34.7975C58.046 34.6325 58.1385 34.4125 58.1385 34.1375C58.1385 33.5475 57.7535 33.2525 56.9835 33.2525ZM60.3677 38.0375C60.2327 38.0375 60.1227 37.995 60.0377 37.91C59.9527 37.825 59.9102 37.715 59.9102 37.58C59.9102 37.445 59.9527 37.335 60.0377 37.25C60.1227 37.165 60.2327 37.1225 60.3677 37.1225C60.5027 37.1225 60.6127 37.165 60.6977 37.25C60.7827 37.335 60.8252 37.445 60.8252 37.58C60.8252 37.715 60.7827 37.825 60.6977 37.91C60.6127 37.995 60.5027 38.0375 60.3677 38.0375ZM67.4146 37.7825C66.9896 38.0025 66.5221 38.1125 66.0121 38.1125C65.3121 38.1125 64.7696 37.8725 64.3846 37.3925C63.9996 36.9125 63.8071 36.24 63.8071 35.375C63.8071 34.515 63.9996 33.845 64.3846 33.365C64.7746 32.88 65.3171 32.6375 66.0121 32.6375C66.4971 32.6375 66.9571 32.7475 67.3921 32.9675V33.56C67.1621 33.445 66.9496 33.365 66.7546 33.32C66.5596 33.27 66.3521 33.245 66.1321 33.245C65.1021 33.245 64.5871 33.955 64.5871 35.375C64.5871 36.795 65.1021 37.505 66.1321 37.505C66.3571 37.505 66.5696 37.48 66.7696 37.43C66.9746 37.38 67.1896 37.3 67.4146 37.19V37.7825ZM70.8418 38.015L70.7968 37.7525C70.3768 37.9925 69.9693 38.1125 69.5743 38.1125C69.1793 38.1125 68.8643 38.0075 68.6293 37.7975C68.3993 37.5825 68.2843 37.295 68.2843 36.935C68.2843 36.56 68.4143 36.27 68.6743 36.065C68.9343 35.855 69.2993 35.75 69.7693 35.75C70.0443 35.75 70.3618 35.7825 70.7218 35.8475V35.45C70.7218 35.175 70.6418 34.97 70.4818 34.835C70.3268 34.7 70.0868 34.6325 69.7618 34.6325C69.3818 34.6325 68.9668 34.72 68.5168 34.895V34.3475C68.7268 34.2625 68.9543 34.1975 69.1993 34.1525C69.4443 34.1025 69.6768 34.0775 69.8968 34.0775C70.3918 34.0775 70.7668 34.1925 71.0218 34.4225C71.2818 34.6525 71.4118 34.99 71.4118 35.435V37.955L70.8418 38.015ZM69.7543 37.565C69.8993 37.565 70.0618 37.54 70.2418 37.49C70.4218 37.44 70.5818 37.375 70.7218 37.295V36.335C70.4868 36.275 70.2093 36.245 69.8893 36.245C69.5893 36.245 69.3668 36.3025 69.2218 36.4175C69.0818 36.5275 69.0118 36.695 69.0118 36.92C69.0118 37.35 69.2593 37.565 69.7543 37.565ZM72.658 39.695V34.235L73.228 34.175L73.273 34.4375C73.668 34.1975 74.0505 34.0775 74.4205 34.0775C74.9105 34.0775 75.293 34.2525 75.568 34.6025C75.848 34.9475 75.988 35.425 75.988 36.035C75.988 36.695 75.8255 37.2075 75.5005 37.5725C75.1755 37.9325 74.718 38.1125 74.128 38.1125C73.843 38.1125 73.588 38.0775 73.363 38.0075V39.6125L72.658 39.695ZM74.2555 34.6325C74.1205 34.6325 73.9705 34.6575 73.8055 34.7075C73.6455 34.7525 73.498 34.815 73.363 34.895V37.475C73.573 37.535 73.7955 37.565 74.0305 37.565C74.4405 37.565 74.7455 37.44 74.9455 37.19C75.1505 36.94 75.253 36.56 75.253 36.05C75.253 35.585 75.168 35.2325 74.998 34.9925C74.833 34.7525 74.5855 34.6325 74.2555 34.6325ZM77.056 38V34.25L77.761 34.1675V38H77.056ZM77.4085 33.41C77.2635 33.41 77.1485 33.3725 77.0635 33.2975C76.9835 33.2175 76.9435 33.11 76.9435 32.975C76.9435 32.84 76.9835 32.735 77.0635 32.66C77.1485 32.58 77.2635 32.54 77.4085 32.54C77.5535 32.54 77.666 32.58 77.746 32.66C77.831 32.735 77.8735 32.84 77.8735 32.975C77.8735 33.11 77.831 33.2175 77.746 33.2975C77.666 33.3725 77.5535 33.41 77.4085 33.41ZM79.9142 34.7V36.89C79.9142 37.115 79.9642 37.2825 80.0642 37.3925C80.1642 37.4975 80.3167 37.55 80.5217 37.55C80.6767 37.55 80.8417 37.5225 81.0167 37.4675V37.97C80.8067 38.05 80.5892 38.09 80.3642 38.09C79.9842 38.09 79.6967 37.99 79.5017 37.79C79.3067 37.59 79.2092 37.2975 79.2092 36.9125V34.7H78.6392V34.22L79.2392 34.1975L79.2917 33.245L79.9142 33.1775V34.19H80.9792V34.7H79.9142ZM84.2665 38.015L84.2215 37.7525C83.8015 37.9925 83.394 38.1125 82.999 38.1125C82.604 38.1125 82.289 38.0075 82.054 37.7975C81.824 37.5825 81.709 37.295 81.709 36.935C81.709 36.56 81.839 36.27 82.099 36.065C82.359 35.855 82.724 35.75 83.194 35.75C83.469 35.75 83.7865 35.7825 84.1465 35.8475V35.45C84.1465 35.175 84.0665 34.97 83.9065 34.835C83.7515 34.7 83.5115 34.6325 83.1865 34.6325C82.8065 34.6325 82.3915 34.72 81.9415 34.895V34.3475C82.1515 34.2625 82.379 34.1975 82.624 34.1525C82.869 34.1025 83.1015 34.0775 83.3215 34.0775C83.8165 34.0775 84.1915 34.1925 84.4465 34.4225C84.7065 34.6525 84.8365 34.99 84.8365 35.435V37.955L84.2665 38.015ZM83.179 37.565C83.324 37.565 83.4865 37.54 83.6665 37.49C83.8465 37.44 84.0065 37.375 84.1465 37.295V36.335C83.9115 36.275 83.634 36.245 83.314 36.245C83.014 36.245 82.7915 36.3025 82.6465 36.4175C82.5065 36.5275 82.4365 36.695 82.4365 36.92C82.4365 37.35 82.684 37.565 83.179 37.565ZM86.0827 38V32.3675L86.7877 32.285V38H86.0827ZM90.7259 35.375C90.7259 36.095 90.8434 36.6325 91.0784 36.9875C91.3184 37.3375 91.6859 37.5125 92.1809 37.5125C92.6759 37.5125 93.0409 37.3375 93.2759 36.9875C93.5159 36.6325 93.6359 36.095 93.6359 35.375C93.6359 34.655 93.5159 34.12 93.2759 33.77C93.0409 33.415 92.6759 33.2375 92.1809 33.2375C91.6859 33.2375 91.3184 33.415 91.0784 33.77C90.8434 34.12 90.7259 34.655 90.7259 35.375ZM89.9534 35.375C89.9534 34.49 90.1434 33.8125 90.5234 33.3425C90.9084 32.8725 91.4609 32.6375 92.1809 32.6375C92.9009 32.6375 93.4509 32.8725 93.8309 33.3425C94.2159 33.8125 94.4084 34.49 94.4084 35.375C94.4084 36.26 94.2159 36.9375 93.8309 37.4075C93.4509 37.8775 92.9009 38.1125 92.1809 38.1125C91.4609 38.1125 90.9084 37.8775 90.5234 37.4075C90.1434 36.9375 89.9534 36.26 89.9534 35.375ZM97.9863 38V35.435C97.9863 34.9 97.7213 34.6325 97.1913 34.6325C97.0513 34.6325 96.8938 34.6575 96.7188 34.7075C96.5488 34.7525 96.3938 34.815 96.2538 34.895V38H95.5488V34.235L96.1188 34.175L96.1638 34.4375C96.5738 34.1975 96.9813 34.0775 97.3863 34.0775C97.8013 34.0775 98.1213 34.1875 98.3463 34.4075C98.5763 34.6225 98.6913 34.93 98.6913 35.33V38H97.9863ZM102.775 37.8575C102.43 38.0275 102.045 38.1125 101.62 38.1125C101 38.1125 100.527 37.94 100.202 37.595C99.877 37.25 99.7145 36.745 99.7145 36.08C99.7145 35.67 99.787 35.315 99.932 35.015C100.077 34.71 100.28 34.4775 100.54 34.3175C100.8 34.1575 101.097 34.0775 101.432 34.0775C101.902 34.0775 102.272 34.2175 102.542 34.4975C102.812 34.7775 102.947 35.165 102.947 35.66C102.947 35.855 102.93 36.0475 102.895 36.2375H100.412C100.427 37.1225 100.857 37.565 101.702 37.565C102.067 37.565 102.425 37.485 102.775 37.325V37.8575ZM101.432 34.595C101.142 34.595 100.905 34.6975 100.72 34.9025C100.54 35.1075 100.437 35.385 100.412 35.735H102.295C102.3 35.71 102.302 35.685 102.302 35.66C102.302 35.635 102.302 35.61 102.302 35.585C102.302 35.275 102.225 35.0325 102.07 34.8575C101.92 34.6825 101.707 34.595 101.432 34.595ZM103.633 39.2225C103.783 39.0325 103.903 38.8325 103.993 38.6225C104.088 38.4125 104.14 38.2125 104.15 38.0225C104.05 37.9975 103.973 37.945 103.918 37.865C103.863 37.785 103.835 37.69 103.835 37.58C103.835 37.445 103.878 37.335 103.963 37.25C104.048 37.165 104.158 37.1225 104.293 37.1225C104.433 37.1225 104.543 37.175 104.623 37.28C104.708 37.38 104.75 37.5175 104.75 37.6925C104.75 37.9675 104.66 38.265 104.48 38.585C104.305 38.905 104.09 39.16 103.835 39.35L103.633 39.2225ZM111.22 38L108.677 33.9575V38H107.98V32.75H108.647L111.19 36.7925V32.75H111.887V38H111.22ZM113.554 38.0375C113.419 38.0375 113.309 37.995 113.224 37.91C113.139 37.825 113.096 37.715 113.096 37.58C113.096 37.445 113.139 37.335 113.224 37.25C113.309 37.165 113.419 37.1225 113.554 37.1225C113.689 37.1225 113.799 37.165 113.884 37.25C113.969 37.335 114.011 37.445 114.011 37.58C114.011 37.715 113.969 37.825 113.884 37.91C113.799 37.995 113.689 38.0375 113.554 38.0375ZM118.593 38L118.158 36.7025H116.005L115.578 38H114.828L116.65 32.75H117.513L119.335 38H118.593ZM116.185 36.1475H117.97L117.07 33.44L116.185 36.1475ZM120.614 38.0375C120.479 38.0375 120.369 37.995 120.284 37.91C120.199 37.825 120.157 37.715 120.157 37.58C120.157 37.445 120.199 37.335 120.284 37.25C120.369 37.165 120.479 37.1225 120.614 37.1225C120.749 37.1225 120.859 37.165 120.944 37.25C121.029 37.335 121.072 37.445 121.072 37.58C121.072 37.715 121.029 37.825 120.944 37.91C120.859 37.995 120.749 38.0375 120.614 38.0375ZM121.796 39.2225C121.946 39.0325 122.066 38.8325 122.156 38.6225C122.251 38.4125 122.303 38.2125 122.313 38.0225C122.213 37.9975 122.136 37.945 122.081 37.865C122.026 37.785 121.998 37.69 121.998 37.58C121.998 37.445 122.041 37.335 122.126 37.25C122.211 37.165 122.321 37.1225 122.456 37.1225C122.596 37.1225 122.706 37.175 122.786 37.28C122.871 37.38 122.913 37.5175 122.913 37.6925C122.913 37.9675 122.823 38.265 122.643 38.585C122.468 38.905 122.253 39.16 121.998 39.35L121.796 39.2225ZM128.415 37.5425L126.953 33.7775L126.668 38H125.978L126.39 32.75H127.208L128.715 36.635L130.223 32.75H131.04L131.453 38H130.755L130.463 33.7775L129.008 37.5425H128.415ZM135.512 37.8575C135.167 38.0275 134.782 38.1125 134.357 38.1125C133.737 38.1125 133.265 37.94 132.94 37.595C132.615 37.25 132.452 36.745 132.452 36.08C132.452 35.67 132.525 35.315 132.67 35.015C132.815 34.71 133.017 34.4775 133.277 34.3175C133.537 34.1575 133.835 34.0775 134.17 34.0775C134.64 34.0775 135.01 34.2175 135.28 34.4975C135.55 34.7775 135.685 35.165 135.685 35.66C135.685 35.855 135.667 36.0475 135.632 36.2375H133.15C133.165 37.1225 133.595 37.565 134.44 37.565C134.805 37.565 135.162 37.485 135.512 37.325V37.8575ZM134.17 34.595C133.88 34.595 133.642 34.6975 133.457 34.9025C133.277 35.1075 133.175 35.385 133.15 35.735H135.032C135.037 35.71 135.04 35.685 135.04 35.66C135.04 35.635 135.04 35.61 135.04 35.585C135.04 35.275 134.962 35.0325 134.807 34.8575C134.657 34.6825 134.445 34.595 134.17 34.595ZM141.253 38V35.3525C141.253 34.8725 141.021 34.6325 140.556 34.6325C140.276 34.6325 139.981 34.725 139.671 34.91C139.696 35.02 139.708 35.13 139.708 35.24V38H139.003V35.3525C139.003 34.8725 138.771 34.6325 138.306 34.6325C138.031 34.6325 137.748 34.72 137.458 34.895V38H136.753V34.235L137.323 34.175L137.368 34.4375C137.753 34.1975 138.131 34.0775 138.501 34.0775C138.931 34.0775 139.256 34.215 139.476 34.49C139.926 34.215 140.351 34.0775 140.751 34.0775C141.126 34.0775 141.421 34.18 141.636 34.385C141.851 34.59 141.958 34.875 141.958 35.24V38H141.253ZM143.907 34.3775C144.282 34.1775 144.634 34.0775 144.964 34.0775C145.454 34.0775 145.837 34.2525 146.112 34.6025C146.392 34.9475 146.532 35.425 146.532 36.035C146.532 36.705 146.362 37.22 146.022 37.58C145.682 37.935 145.197 38.1125 144.567 38.1125C144.117 38.1125 143.662 38.0475 143.202 37.9175V32.3675L143.907 32.285V34.3775ZM144.799 34.6325C144.664 34.6325 144.514 34.6575 144.349 34.7075C144.189 34.7525 144.042 34.815 143.907 34.895V37.475C144.117 37.535 144.339 37.565 144.574 37.565C144.984 37.565 145.289 37.44 145.489 37.19C145.694 36.94 145.797 36.56 145.797 36.05C145.797 35.585 145.712 35.2325 145.542 34.9925C145.377 34.7525 145.129 34.6325 144.799 34.6325ZM150.435 37.8575C150.09 38.0275 149.705 38.1125 149.28 38.1125C148.66 38.1125 148.187 37.94 147.862 37.595C147.537 37.25 147.375 36.745 147.375 36.08C147.375 35.67 147.447 35.315 147.592 35.015C147.737 34.71 147.94 34.4775 148.2 34.3175C148.46 34.1575 148.757 34.0775 149.092 34.0775C149.562 34.0775 149.932 34.2175 150.202 34.4975C150.472 34.7775 150.607 35.165 150.607 35.66C150.607 35.855 150.59 36.0475 150.555 36.2375H148.072C148.087 37.1225 148.517 37.565 149.362 37.565C149.727 37.565 150.085 37.485 150.435 37.325V37.8575ZM149.092 34.595C148.802 34.595 148.565 34.6975 148.38 34.9025C148.2 35.1075 148.097 35.385 148.072 35.735H149.955C149.96 35.71 149.962 35.685 149.962 35.66C149.962 35.635 149.962 35.61 149.962 35.585C149.962 35.275 149.885 35.0325 149.73 34.8575C149.58 34.6825 149.367 34.595 149.092 34.595ZM151.676 38V34.235L152.246 34.175L152.306 34.52C152.636 34.24 152.988 34.1 153.363 34.1C153.478 34.1 153.593 34.1175 153.708 34.1525V34.73C153.588 34.7 153.466 34.685 153.341 34.685C152.981 34.685 152.661 34.7975 152.381 35.0225V38H151.676ZM156.688 38V32.75H159.875V33.35H157.415V35.15H159.56V35.75H157.415V38H156.688ZM160.873 38V32.8625C161.423 32.7525 161.926 32.6975 162.381 32.6975C163.186 32.6975 163.806 32.93 164.241 33.395C164.681 33.855 164.901 34.505 164.901 35.345C164.901 36.205 164.681 36.8625 164.241 37.3175C163.801 37.7725 163.166 38 162.336 38H160.873ZM162.336 37.4C162.936 37.4 163.383 37.2325 163.678 36.8975C163.978 36.5575 164.128 36.045 164.128 35.36C164.128 34.66 163.983 34.1425 163.693 33.8075C163.403 33.4675 162.961 33.2975 162.366 33.2975C162.126 33.2975 161.871 33.32 161.601 33.365V37.4H162.336ZM166.135 38V32.75H166.863V38H166.135ZM171.711 37.7825C171.286 38.0025 170.818 38.1125 170.308 38.1125C169.608 38.1125 169.066 37.8725 168.681 37.3925C168.296 36.9125 168.103 36.24 168.103 35.375C168.103 34.515 168.296 33.845 168.681 33.365C169.071 32.88 169.613 32.6375 170.308 32.6375C170.793 32.6375 171.253 32.7475 171.688 32.9675V33.56C171.458 33.445 171.246 33.365 171.051 33.32C170.856 33.27 170.648 33.245 170.428 33.245C169.398 33.245 168.883 33.955 168.883 35.375C168.883 36.795 169.398 37.505 170.428 37.505C170.653 37.505 170.866 37.48 171.066 37.43C171.271 37.38 171.486 37.3 171.711 37.19V37.7825Z" fill="white"/>
</svg>
