<svg width="329" height="55" viewBox="0 0 329 55" fill="none" xmlns="http://www.w3.org/2000/svg">
<path d="M300.973 54.072V41.02L302.949 40.812L303.157 42.008C304.301 41.0373 305.523 40.552 306.823 40.552C307.222 40.552 307.621 40.6127 308.019 40.734V42.736C307.603 42.632 307.179 42.58 306.745 42.58C305.497 42.58 304.388 42.97 303.417 43.75V54.072H300.973Z" fill="white"/>
<path d="M291.803 52.538C293.016 52.538 293.892 52.1393 294.429 51.342C294.984 50.5447 295.261 49.2533 295.261 47.468C295.261 45.6827 294.984 44.3913 294.429 43.594C293.892 42.7967 293.016 42.398 291.803 42.398C290.59 42.398 289.706 42.7967 289.151 43.594C288.614 44.3913 288.345 45.6827 288.345 47.468C288.345 49.2533 288.614 50.5447 289.151 51.342C289.706 52.1393 290.59 52.538 291.803 52.538ZM291.803 54.462C289.827 54.462 288.328 53.8727 287.305 52.694C286.3 51.498 285.797 49.756 285.797 47.468C285.797 45.18 286.3 43.4467 287.305 42.268C288.328 41.072 289.827 40.474 291.803 40.474C293.779 40.474 295.27 41.072 296.275 42.268C297.298 43.4467 297.809 45.18 297.809 47.468C297.809 49.756 297.298 51.498 296.275 52.694C295.27 53.8727 293.779 54.462 291.803 54.462Z" fill="white"/>
<path d="M277.382 54.072L272.468 40.864H275.068L278.604 51.394L282.192 40.864H284.688L279.722 54.072H277.382Z" fill="white"/>
<path d="M268.512 54.124L268.356 53.214C266.9 54.046 265.487 54.462 264.118 54.462C262.748 54.462 261.656 54.098 260.842 53.37C260.044 52.6247 259.646 51.628 259.646 50.38C259.646 49.08 260.096 48.0747 260.998 47.364C261.899 46.636 263.164 46.272 264.794 46.272C265.747 46.272 266.848 46.3847 268.096 46.61V45.232C268.096 44.2787 267.818 43.568 267.264 43.1C266.726 42.632 265.894 42.398 264.768 42.398C263.45 42.398 262.012 42.7013 260.452 43.308V41.41C261.18 41.1153 261.968 40.89 262.818 40.734C263.667 40.5607 264.473 40.474 265.236 40.474C266.952 40.474 268.252 40.8727 269.136 41.67C270.037 42.4673 270.488 43.6373 270.488 45.18V53.916L268.512 54.124ZM264.742 52.564C265.244 52.564 265.808 52.4773 266.432 52.304C267.056 52.1307 267.61 51.9053 268.096 51.628V48.3C267.281 48.092 266.319 47.988 265.21 47.988C264.17 47.988 263.398 48.1873 262.896 48.586C262.41 48.9673 262.168 49.548 262.168 50.328C262.168 51.8187 263.026 52.564 264.742 52.564Z" fill="white"/>
<path d="M245.167 51.16C246.935 52.0093 248.686 52.434 250.419 52.434C251.806 52.434 252.88 52.1393 253.643 51.55C254.406 50.9607 254.787 50.12 254.787 49.028C254.787 48.2307 254.544 47.5807 254.059 47.078C253.574 46.5753 252.759 46.142 251.615 45.778L249.899 45.232C248.356 44.7467 247.238 44.14 246.545 43.412C245.869 42.6667 245.531 41.7307 245.531 40.604C245.531 39.044 246.112 37.8047 247.273 36.886C248.434 35.95 249.994 35.482 251.953 35.482C253.582 35.482 255.151 35.82 256.659 36.496V38.498C255.064 37.8393 253.574 37.51 252.187 37.51C250.939 37.51 249.951 37.7787 249.223 38.316C248.512 38.836 248.157 39.5553 248.157 40.474C248.157 41.15 248.356 41.6873 248.755 42.086C249.171 42.4847 249.882 42.8487 250.887 43.178L252.603 43.724C254.319 44.2787 255.55 44.972 256.295 45.804C257.04 46.6187 257.413 47.6847 257.413 49.002C257.413 50.718 256.815 52.0613 255.619 53.032C254.423 53.9853 252.768 54.462 250.653 54.462C248.729 54.462 247.022 54.098 245.531 53.37L245.167 51.16Z" fill="white"/>
<path d="M224.954 54.072V34.546L227.398 34.26V41.54C228.733 40.8293 230.041 40.474 231.324 40.474C232.763 40.474 233.872 40.8553 234.652 41.618C235.449 42.3633 235.848 43.4293 235.848 44.816V54.072H233.404V45.18C233.404 43.3253 232.485 42.398 230.648 42.398C230.163 42.398 229.617 42.4847 229.01 42.658C228.421 42.814 227.883 43.0307 227.398 43.308V54.072H224.954Z" fill="white"/>
<path d="M218.524 42.632V50.224C218.524 51.004 218.697 51.5847 219.044 51.966C219.391 52.33 219.919 52.512 220.63 52.512C221.167 52.512 221.739 52.4167 222.346 52.226V53.968C221.618 54.2453 220.864 54.384 220.084 54.384C218.767 54.384 217.77 54.0373 217.094 53.344C216.418 52.6507 216.08 51.6367 216.08 50.302V42.632H214.104V40.968L216.184 40.89L216.366 37.588L218.524 37.354V40.864H222.216V42.632H218.524Z" fill="white"/>
<path d="M209.135 54.072V41.072L211.579 40.786V54.072H209.135ZM210.357 38.16C209.855 38.16 209.456 38.03 209.161 37.77C208.884 37.4927 208.745 37.12 208.745 36.652C208.745 36.184 208.884 35.82 209.161 35.56C209.456 35.2827 209.855 35.144 210.357 35.144C210.86 35.144 211.25 35.2827 211.527 35.56C211.822 35.82 211.969 36.184 211.969 36.652C211.969 37.12 211.822 37.4927 211.527 37.77C211.25 38.03 210.86 38.16 210.357 38.16Z" fill="white"/>
<path d="M200.627 54.072L197.533 43.438L194.543 54.072H192.307L188.173 40.864H190.643L193.477 51.108L196.285 40.864H198.859L201.719 51.108L204.527 40.864H206.919L202.863 54.072H200.627Z" fill="white"/>
<path d="M177.164 54.072V45.18C177.164 43.3253 176.245 42.398 174.408 42.398C173.922 42.398 173.376 42.4847 172.77 42.658C172.18 42.814 171.643 43.0307 171.158 43.308V54.072H168.714V41.02L170.69 40.812L170.846 41.722C172.267 40.89 173.68 40.474 175.084 40.474C176.522 40.474 177.632 40.8553 178.412 41.618C179.209 42.3633 179.608 43.4293 179.608 44.816V54.072H177.164Z" fill="white"/>
<path d="M162.798 54.124L162.642 53.214C161.221 54.046 159.808 54.462 158.404 54.462C157 54.462 155.908 54.0807 155.128 53.318C154.348 52.5553 153.958 51.4893 153.958 50.12V40.864H156.402V49.756C156.402 51.6107 157.295 52.538 159.08 52.538C159.583 52.538 160.129 52.46 160.718 52.304C161.307 52.1307 161.845 51.9053 162.33 51.628V40.864H164.774V53.916L162.798 54.124Z" fill="white"/>
<path d="M145.596 54.072V42.632H143.62V40.968L145.596 40.89V38.316C145.596 36.9467 145.951 35.8893 146.662 35.144C147.372 34.3813 148.386 34 149.704 34C150.466 34 151.246 34.1387 152.044 34.416V36.158C151.333 35.9673 150.726 35.872 150.224 35.872C148.768 35.872 148.04 36.6433 148.04 38.186V40.864H151.394V42.632H148.04V54.072H145.596Z" fill="white"/>
<path d="M134.587 34.26V53.916L132.611 54.124L132.455 53.214C131.086 54.046 129.76 54.462 128.477 54.462C126.778 54.462 125.444 53.864 124.473 52.668C123.52 51.4547 123.043 49.7907 123.043 47.676C123.043 45.388 123.606 43.62 124.733 42.372C125.86 41.1067 127.446 40.474 129.491 40.474C130.479 40.474 131.363 40.5953 132.143 40.838V34.546L134.587 34.26ZM129.049 52.538C129.517 52.538 130.028 52.46 130.583 52.304C131.155 52.1307 131.675 51.9053 132.143 51.628V42.684C131.415 42.476 130.644 42.372 129.829 42.372C128.408 42.372 127.342 42.8053 126.631 43.672C125.938 44.5387 125.591 45.856 125.591 47.624C125.591 49.236 125.877 50.458 126.449 51.29C127.038 52.122 127.905 52.538 129.049 52.538Z" fill="white"/>
<path d="M117.572 54.072V45.18C117.572 43.3253 116.653 42.398 114.816 42.398C114.33 42.398 113.784 42.4847 113.178 42.658C112.588 42.814 112.051 43.0307 111.566 43.308V54.072H109.122V41.02L111.098 40.812L111.254 41.722C112.675 40.89 114.088 40.474 115.492 40.474C116.93 40.474 118.04 40.8553 118.82 41.618C119.617 42.3633 120.016 43.4293 120.016 44.816V54.072H117.572Z" fill="white"/>
<path d="M103.346 54.124L103.19 53.214C101.734 54.046 100.321 54.462 98.9517 54.462C97.5824 54.462 96.4904 54.098 95.6757 53.37C94.8784 52.6247 94.4797 51.628 94.4797 50.38C94.4797 49.08 94.9304 48.0747 95.8317 47.364C96.7331 46.636 97.9984 46.272 99.6277 46.272C100.581 46.272 101.682 46.3847 102.93 46.61V45.232C102.93 44.2787 102.652 43.568 102.098 43.1C101.56 42.632 100.728 42.398 99.6017 42.398C98.2844 42.398 96.8457 42.7013 95.2857 43.308V41.41C96.0137 41.1153 96.8024 40.89 97.6517 40.734C98.5011 40.5607 99.3071 40.474 100.07 40.474C101.786 40.474 103.086 40.8727 103.97 41.67C104.871 42.4673 105.322 43.6373 105.322 45.18V53.916L103.346 54.124ZM99.5757 52.564C100.078 52.564 100.642 52.4773 101.266 52.304C101.89 52.1307 102.444 51.9053 102.93 51.628V48.3C102.115 48.092 101.153 47.988 100.044 47.988C99.0037 47.988 98.2324 48.1873 97.7297 48.586C97.2444 48.9673 97.0017 49.548 97.0017 50.328C97.0017 51.8187 97.8597 52.564 99.5757 52.564Z" fill="white"/>
<path d="M84.7452 34.26V53.916L82.7692 54.124L82.6132 53.214C81.2438 54.046 79.9178 54.462 78.6352 54.462C76.9365 54.462 75.6018 53.864 74.6312 52.668C73.6778 51.4547 73.2012 49.7907 73.2012 47.676C73.2012 45.388 73.7645 43.62 74.8912 42.372C76.0178 41.1067 77.6038 40.474 79.6492 40.474C80.6372 40.474 81.5212 40.5953 82.3012 40.838V34.546L84.7452 34.26ZM79.2072 52.538C79.6752 52.538 80.1865 52.46 80.7412 52.304C81.3132 52.1307 81.8332 51.9053 82.3012 51.628V42.684C81.5732 42.476 80.8018 42.372 79.9872 42.372C78.5658 42.372 77.4998 42.8053 76.7892 43.672C76.0958 44.5387 75.7492 45.856 75.7492 47.624C75.7492 49.236 76.0352 50.458 76.6072 51.29C77.1965 52.122 78.0632 52.538 79.2072 52.538Z" fill="white"/>
<path d="M64.8107 52.538C66.024 52.538 66.8994 52.1393 67.4367 51.342C67.9914 50.5447 68.2687 49.2533 68.2687 47.468C68.2687 45.6827 67.9914 44.3913 67.4367 43.594C66.8994 42.7967 66.024 42.398 64.8107 42.398C63.5974 42.398 62.7134 42.7967 62.1587 43.594C61.6214 44.3913 61.3527 45.6827 61.3527 47.468C61.3527 49.2533 61.6214 50.5447 62.1587 51.342C62.7134 52.1393 63.5974 52.538 64.8107 52.538ZM64.8107 54.462C62.8347 54.462 61.3354 53.8727 60.3127 52.694C59.3074 51.498 58.8047 49.756 58.8047 47.468C58.8047 45.18 59.3074 43.4467 60.3127 42.268C61.3354 41.072 62.8347 40.474 64.8107 40.474C66.7867 40.474 68.2774 41.072 69.2827 42.268C70.3054 43.4467 70.8167 45.18 70.8167 47.468C70.8167 49.756 70.3054 51.498 69.2827 52.694C68.2774 53.8727 66.7867 54.462 64.8107 54.462Z" fill="white"/>
<path d="M50.4142 52.538C51.6275 52.538 52.5029 52.1393 53.0402 51.342C53.5949 50.5447 53.8722 49.2533 53.8722 47.468C53.8722 45.6827 53.5949 44.3913 53.0402 43.594C52.5029 42.7967 51.6275 42.398 50.4142 42.398C49.2009 42.398 48.3169 42.7967 47.7622 43.594C47.2249 44.3913 46.9562 45.6827 46.9562 47.468C46.9562 49.2533 47.2249 50.5447 47.7622 51.342C48.3169 52.1393 49.2009 52.538 50.4142 52.538ZM50.4142 54.462C48.4382 54.462 46.9389 53.8727 45.9162 52.694C44.9109 51.498 44.4082 49.756 44.4082 47.468C44.4082 45.18 44.9109 43.4467 45.9162 42.268C46.9389 41.072 48.4382 40.474 50.4142 40.474C52.3902 40.474 53.8809 41.072 54.8862 42.268C55.9089 43.4467 56.4202 45.18 56.4202 47.468C56.4202 49.756 55.9089 51.498 54.8862 52.694C53.8809 53.8727 52.3902 54.462 50.4142 54.462Z" fill="white"/>
<path d="M36.9238 54.072V42.632H34.9478V40.968L36.9238 40.89V38.316C36.9238 36.9467 37.2791 35.8893 37.9898 35.144C38.7004 34.3813 39.7144 34 41.0318 34C41.7944 34 42.5744 34.1387 43.3718 34.416V36.158C42.6611 35.9673 42.0544 35.872 41.5518 35.872C40.0958 35.872 39.3678 36.6433 39.3678 38.186V40.864H42.7218V42.632H39.3678V54.072H36.9238Z" fill="white"/>
<path d="M23.6265 54.072V45.18C23.6265 43.3253 22.7078 42.398 20.8705 42.398C20.3852 42.398 19.8392 42.4847 19.2325 42.658C18.6432 42.814 18.1058 43.0307 17.6205 43.308V54.072H15.1765V41.02L17.1525 40.812L17.3085 41.722C18.7298 40.89 20.1425 40.474 21.5465 40.474C22.9852 40.474 24.0945 40.8553 24.8745 41.618C25.6718 42.3633 26.0705 43.4293 26.0705 44.816V54.072H23.6265Z" fill="white"/>
<path d="M6.006 52.538C7.21933 52.538 8.09467 52.1393 8.632 51.342C9.18667 50.5447 9.464 49.2533 9.464 47.468C9.464 45.6827 9.18667 44.3913 8.632 43.594C8.09467 42.7967 7.21933 42.398 6.006 42.398C4.79267 42.398 3.90867 42.7967 3.354 43.594C2.81667 44.3913 2.548 45.6827 2.548 47.468C2.548 49.2533 2.81667 50.5447 3.354 51.342C3.90867 52.1393 4.79267 52.538 6.006 52.538ZM6.006 54.462C4.03 54.462 2.53067 53.8727 1.508 52.694C0.502667 51.498 0 49.756 0 47.468C0 45.18 0.502667 43.4467 1.508 42.268C2.53067 41.072 4.03 40.474 6.006 40.474C7.982 40.474 9.47267 41.072 10.478 42.268C11.5007 43.4467 12.012 45.18 12.012 47.468C12.012 49.756 11.5007 51.498 10.478 52.694C9.47267 53.8727 7.982 54.462 6.006 54.462Z" fill="white"/>
<path d="M317.74 19.812V0.286L320.184 0V12.272L325.618 6.604H328.426L322.524 12.74L328.712 19.812H325.748L320.184 13.338V19.812H317.74Z" fill="white"/>
<path d="M314.731 19.344C313.535 19.916 312.209 20.202 310.753 20.202C308.846 20.202 307.373 19.5953 306.333 18.382C305.293 17.1687 304.773 15.4527 304.773 13.234C304.773 10.998 305.293 9.27332 306.333 8.05999C307.39 6.82932 308.872 6.21399 310.779 6.21399C312.113 6.21399 313.405 6.49999 314.653 7.07199V8.94399C313.457 8.42399 312.313 8.16399 311.221 8.16399C309.938 8.16399 308.967 8.58865 308.309 9.43799C307.65 10.2873 307.321 11.544 307.321 13.208C307.321 14.8547 307.65 16.1113 308.309 16.978C308.967 17.8273 309.938 18.252 311.221 18.252C312.313 18.252 313.483 17.992 314.731 17.472V19.344Z" fill="white"/>
<path d="M299.777 19.864L299.621 18.954C298.165 19.786 296.752 20.202 295.383 20.202C294.013 20.202 292.921 19.838 292.107 19.11C291.309 18.3647 290.911 17.368 290.911 16.12C290.911 14.82 291.361 13.8147 292.263 13.104C293.164 12.376 294.429 12.012 296.059 12.012C297.012 12.012 298.113 12.1247 299.361 12.35V10.972C299.361 10.0187 299.083 9.30799 298.529 8.83999C297.991 8.37199 297.159 8.13799 296.033 8.13799C294.715 8.13799 293.277 8.44132 291.717 9.04799V7.14999C292.445 6.85532 293.233 6.62999 294.083 6.47399C294.932 6.30066 295.738 6.21399 296.501 6.21399C298.217 6.21399 299.517 6.61266 300.401 7.40999C301.302 8.20732 301.753 9.37732 301.753 10.92V19.656L299.777 19.864ZM296.007 18.304C296.509 18.304 297.073 18.2173 297.697 18.044C298.321 17.8707 298.875 17.6453 299.361 17.368V14.04C298.546 13.832 297.584 13.728 296.475 13.728C295.435 13.728 294.663 13.9273 294.161 14.326C293.675 14.7073 293.433 15.288 293.433 16.068C293.433 17.5587 294.291 18.304 296.007 18.304Z" fill="white"/>
<path d="M279.356 7.254C280.656 6.56067 281.878 6.214 283.022 6.214C284.721 6.214 286.047 6.82067 287 8.034C287.971 9.23 288.456 10.8853 288.456 13C288.456 15.3227 287.867 17.108 286.688 18.356C285.509 19.5867 283.828 20.202 281.644 20.202C280.084 20.202 278.507 19.9767 276.912 19.526V0.286L279.356 0V7.254ZM282.45 8.138C281.982 8.138 281.462 8.22467 280.89 8.398C280.335 8.554 279.824 8.77067 279.356 9.048V17.992C280.084 18.2 280.855 18.304 281.67 18.304C283.091 18.304 284.149 17.8707 284.842 17.004C285.553 16.1373 285.908 14.82 285.908 13.052C285.908 11.44 285.613 10.218 285.024 9.386C284.452 8.554 283.594 8.138 282.45 8.138Z" fill="white"/>
<path d="M255.711 19.812V0.286L258.155 0V7.28C259.49 6.56933 260.798 6.214 262.081 6.214C263.52 6.214 264.629 6.59533 265.409 7.358C266.206 8.10333 266.605 9.16933 266.605 10.556V19.812H264.161V10.92C264.161 9.06533 263.242 8.138 261.405 8.138C260.92 8.138 260.374 8.22467 259.767 8.398C259.178 8.554 258.64 8.77067 258.155 9.048V19.812H255.711Z" fill="white"/>
<path d="M242.969 17.394C244.355 18.0007 245.742 18.304 247.129 18.304C248.134 18.304 248.897 18.1133 249.417 17.732C249.954 17.3507 250.223 16.8047 250.223 16.094C250.223 15.626 250.075 15.2447 249.781 14.95C249.486 14.6553 249.001 14.404 248.325 14.196L246.557 13.65C245.378 13.286 244.52 12.818 243.983 12.246C243.445 11.674 243.177 10.946 243.177 10.062C243.177 8.88332 243.636 7.94732 244.555 7.25399C245.473 6.56066 246.713 6.21399 248.273 6.21399C249.59 6.21399 250.847 6.47399 252.043 6.99399V8.86599C250.725 8.36332 249.521 8.11199 248.429 8.11199C247.545 8.11199 246.851 8.28532 246.349 8.63199C245.863 8.96132 245.621 9.41199 245.621 9.98399C245.621 10.4 245.751 10.7293 246.011 10.972C246.271 11.1973 246.756 11.4227 247.467 11.648L249.443 12.246C251.592 12.8873 252.667 14.1613 252.667 16.068C252.667 17.4027 252.207 18.4253 251.289 19.136C250.37 19.8467 249.044 20.202 247.311 20.202C245.699 20.202 244.347 19.9333 243.255 19.396L242.969 17.394Z" fill="white"/>
<path d="M238.103 19.864L237.947 18.954C236.491 19.786 235.078 20.202 233.709 20.202C232.339 20.202 231.247 19.838 230.433 19.11C229.635 18.3647 229.237 17.368 229.237 16.12C229.237 14.82 229.687 13.8147 230.589 13.104C231.49 12.376 232.755 12.012 234.385 12.012C235.338 12.012 236.439 12.1247 237.687 12.35V10.972C237.687 10.0187 237.409 9.30799 236.855 8.83999C236.317 8.37199 235.485 8.13799 234.359 8.13799C233.041 8.13799 231.603 8.44132 230.043 9.04799V7.14999C230.771 6.85532 231.559 6.62999 232.409 6.47399C233.258 6.30066 234.064 6.21399 234.827 6.21399C236.543 6.21399 237.843 6.61266 238.727 7.40999C239.628 8.20732 240.079 9.37732 240.079 10.92V19.656L238.103 19.864ZM234.333 18.304C234.835 18.304 235.399 18.2173 236.023 18.044C236.647 17.8707 237.201 17.6453 237.687 17.368V14.04C236.872 13.832 235.91 13.728 234.801 13.728C233.761 13.728 232.989 13.9273 232.487 14.326C232.001 14.7073 231.759 15.288 231.759 16.068C231.759 17.5587 232.617 18.304 234.333 18.304Z" fill="white"/>
<path d="M226.955 19.344C225.759 19.916 224.433 20.202 222.977 20.202C221.071 20.202 219.597 19.5953 218.557 18.382C217.517 17.1687 216.997 15.4527 216.997 13.234C216.997 10.998 217.517 9.27332 218.557 8.05999C219.615 6.82932 221.097 6.21399 223.003 6.21399C224.338 6.21399 225.629 6.49999 226.877 7.07199V8.94399C225.681 8.42399 224.537 8.16399 223.445 8.16399C222.163 8.16399 221.192 8.58865 220.533 9.43799C219.875 10.2873 219.545 11.544 219.545 13.208C219.545 14.8547 219.875 16.1113 220.533 16.978C221.192 17.8273 222.163 18.252 223.445 18.252C224.537 18.252 225.707 17.992 226.955 17.472V19.344Z" fill="white"/>
<path d="M191.572 19.812L200.906 2.002H203.064L193.73 19.812H191.572ZM190.532 11.752C191.295 11.752 191.85 11.4227 192.196 10.764C192.543 10.088 192.716 9.00467 192.716 7.51401C192.716 6.02334 192.543 4.94867 192.196 4.29001C191.85 3.61401 191.295 3.276 190.532 3.276C189.77 3.276 189.215 3.61401 188.868 4.29001C188.522 4.94867 188.348 6.02334 188.348 7.51401C188.348 9.00467 188.522 10.088 188.868 10.764C189.215 11.4227 189.77 11.752 190.532 11.752ZM190.532 13.286C189.128 13.286 188.054 12.792 187.308 11.804C186.563 10.7987 186.19 9.36867 186.19 7.51401C186.19 5.65934 186.563 4.23801 187.308 3.25001C188.054 2.24467 189.128 1.742 190.532 1.742C191.936 1.742 193.011 2.24467 193.756 3.25001C194.502 4.23801 194.874 5.65934 194.874 7.51401C194.874 9.36867 194.502 10.7987 193.756 11.804C193.011 12.792 191.936 13.286 190.532 13.286ZM204.104 18.538C204.867 18.538 205.422 18.2087 205.768 17.55C206.115 16.874 206.288 15.7907 206.288 14.3C206.288 12.8093 206.115 11.7347 205.768 11.076C205.422 10.4 204.867 10.062 204.104 10.062C203.342 10.062 202.787 10.4 202.44 11.076C202.094 11.7347 201.92 12.8093 201.92 14.3C201.92 15.7907 202.094 16.874 202.44 17.55C202.787 18.2087 203.342 18.538 204.104 18.538ZM204.104 20.072C202.7 20.072 201.626 19.578 200.88 18.59C200.135 17.5847 199.762 16.1547 199.762 14.3C199.762 12.4453 200.135 11.024 200.88 10.036C201.626 9.03067 202.7 8.52801 204.104 8.52801C205.508 8.52801 206.583 9.03067 207.328 10.036C208.074 11.024 208.446 12.4453 208.446 14.3C208.446 16.1547 208.074 17.5847 207.328 18.59C206.583 19.578 205.508 20.072 204.104 20.072Z" fill="white"/>
<path d="M172.469 17.134C174.046 17.8793 175.597 18.252 177.123 18.252C178.475 18.252 179.541 17.9487 180.321 17.342C181.118 16.718 181.517 15.886 181.517 14.846C181.517 13.8233 181.161 13.0173 180.451 12.428C179.74 11.8213 178.769 11.518 177.539 11.518H175.849V9.568H177.409C178.518 9.568 179.393 9.29933 180.035 8.762C180.676 8.22467 180.997 7.488 180.997 6.552C180.997 5.63333 180.659 4.90533 179.983 4.368C179.307 3.83067 178.379 3.562 177.201 3.562C175.849 3.562 174.488 3.83933 173.118 4.394V2.496C174.366 1.90667 175.831 1.612 177.513 1.612C179.315 1.612 180.771 2.054 181.881 2.938C182.99 3.822 183.545 4.97467 183.545 6.396C183.545 7.34933 183.276 8.18133 182.739 8.892C182.201 9.60267 181.439 10.1313 180.451 10.478C181.612 10.8073 182.505 11.362 183.129 12.142C183.753 12.922 184.065 13.8667 184.065 14.976C184.065 16.0333 183.779 16.9607 183.207 17.758C182.652 18.538 181.872 19.1447 180.867 19.578C179.879 19.994 178.743 20.202 177.461 20.202C176.594 20.202 175.745 20.1153 174.913 19.942C174.081 19.7687 173.37 19.5347 172.781 19.24L172.469 17.134Z" fill="white"/>
<path d="M163.592 0V19.656L161.616 19.864L161.46 18.954C160.091 19.786 158.765 20.202 157.482 20.202C155.783 20.202 154.449 19.604 153.478 18.408C152.525 17.1947 152.048 15.5307 152.048 13.416C152.048 11.128 152.611 9.36 153.738 8.112C154.865 6.84667 156.451 6.214 158.496 6.214C159.484 6.214 160.368 6.33533 161.148 6.578V0.286L163.592 0ZM158.054 18.278C158.522 18.278 159.033 18.2 159.588 18.044C160.16 17.8707 160.68 17.6453 161.148 17.368V8.424C160.42 8.216 159.649 8.112 158.834 8.112C157.413 8.112 156.347 8.54533 155.636 9.412C154.943 10.2787 154.596 11.596 154.596 13.364C154.596 14.976 154.882 16.198 155.454 17.03C156.043 17.862 156.91 18.278 158.054 18.278Z" fill="white"/>
<path d="M149.047 19.318C147.851 19.9073 146.516 20.202 145.043 20.202C142.893 20.202 141.255 19.604 140.129 18.408C139.002 17.212 138.439 15.4613 138.439 13.156C138.439 11.7347 138.69 10.504 139.193 9.46399C139.695 8.40665 140.397 7.60065 141.299 7.04599C142.2 6.49132 143.231 6.21399 144.393 6.21399C146.022 6.21399 147.305 6.69932 148.241 7.66999C149.177 8.64066 149.645 9.98399 149.645 11.7C149.645 12.376 149.584 13.0433 149.463 13.702H140.857C140.909 16.77 142.399 18.304 145.329 18.304C146.594 18.304 147.833 18.0267 149.047 17.472V19.318ZM144.393 8.00799C143.387 8.00799 142.564 8.36332 141.923 9.07399C141.299 9.78465 140.943 10.7467 140.857 11.96H147.383C147.4 11.8733 147.409 11.7867 147.409 11.7C147.409 11.6133 147.409 11.5267 147.409 11.44C147.409 10.3653 147.14 9.52465 146.603 8.91799C146.083 8.31132 145.346 8.00799 144.393 8.00799Z" fill="white"/>
<path d="M132.789 8.37199V15.964C132.789 16.744 132.962 17.3247 133.309 17.706C133.655 18.07 134.184 18.252 134.895 18.252C135.432 18.252 136.004 18.1567 136.611 17.966V19.708C135.883 19.9853 135.129 20.124 134.349 20.124C133.031 20.124 132.035 19.7773 131.359 19.084C130.683 18.3907 130.345 17.3767 130.345 16.042V8.37199H128.369V6.70799L130.449 6.62999L130.631 3.32799L132.789 3.09399V6.60399H136.481V8.37199H132.789Z" fill="white"/>
<path d="M123.4 19.812V6.812L125.844 6.526V19.812H123.4ZM124.622 3.9C124.12 3.9 123.721 3.77 123.426 3.51C123.149 3.23267 123.01 2.86 123.01 2.392C123.01 1.924 123.149 1.56 123.426 1.3C123.721 1.02267 124.12 0.884003 124.622 0.884003C125.125 0.884003 125.515 1.02267 125.792 1.3C126.087 1.56 126.234 1.924 126.234 2.392C126.234 2.86 126.087 3.23267 125.792 3.51C125.515 3.77 125.125 3.9 124.622 3.9Z" fill="white"/>
<path d="M117.164 19.812V10.634C117.164 8.96999 116.358 8.13799 114.746 8.13799C113.776 8.13799 112.753 8.45866 111.678 9.09999C111.765 9.48132 111.808 9.86265 111.808 10.244V19.812H109.364V10.634C109.364 8.96999 108.558 8.13799 106.946 8.13799C105.993 8.13799 105.014 8.44132 104.008 9.04799V19.812H101.564V6.75999L103.54 6.55199L103.696 7.46199C105.031 6.62999 106.34 6.21399 107.622 6.21399C109.113 6.21399 110.24 6.69066 111.002 7.64399C112.562 6.69066 114.036 6.21399 115.422 6.21399C116.722 6.21399 117.745 6.56932 118.49 7.27999C119.236 7.99066 119.608 8.97865 119.608 10.244V19.812H117.164Z" fill="white"/>
<path d="M95.1659 19.812V6.812L97.6099 6.526V19.812H95.1659ZM96.3879 3.9C95.8852 3.9 95.4865 3.77 95.1919 3.51C94.9145 3.23267 94.7759 2.86 94.7759 2.392C94.7759 1.924 94.9145 1.56 95.1919 1.3C95.4865 1.02267 95.8852 0.884003 96.3879 0.884003C96.8905 0.884003 97.2806 1.02267 97.5579 1.3C97.8526 1.56 97.9999 1.924 97.9999 2.392C97.9999 2.86 97.8526 3.23267 97.5579 3.51C97.2806 3.77 96.8905 3.9 96.3879 3.9Z" fill="white"/>
<path d="M88.7676 19.812V0.286L91.2116 0V19.812H88.7676Z" fill="white"/>
<path d="M82.5164 19.812V10.92C82.5164 9.06532 81.5977 8.13799 79.7604 8.13799C79.2751 8.13799 78.7291 8.22465 78.1224 8.39799C77.5331 8.55399 76.9957 8.77066 76.5104 9.04799V19.812H74.0664V6.75999L76.0424 6.55199L76.1984 7.46199C77.6197 6.62999 79.0324 6.21399 80.4364 6.21399C81.8751 6.21399 82.9844 6.59532 83.7644 7.35799C84.5617 8.10332 84.9604 9.16932 84.9604 10.556V19.812H82.5164Z" fill="white"/>
<path d="M68.1508 19.864L67.9948 18.954C66.5735 19.786 65.1608 20.202 63.7568 20.202C62.3528 20.202 61.2608 19.8207 60.4808 19.058C59.7008 18.2953 59.3108 17.2293 59.3108 15.86V6.604H61.7548V15.496C61.7548 17.3507 62.6475 18.278 64.4328 18.278C64.9355 18.278 65.4815 18.2 66.0708 18.044C66.6601 17.8707 67.1975 17.6453 67.6828 17.368V6.604H70.1268V19.656L68.1508 19.864Z" fill="white"/>
<path d="M46.7156 19.812V10.92C46.7156 9.06532 45.797 8.13799 43.9596 8.13799C43.4743 8.13799 42.9283 8.22465 42.3216 8.39799C41.7323 8.55399 41.195 8.77066 40.7096 9.04799V19.812H38.2656V6.75999L40.2416 6.55199L40.3976 7.46199C41.819 6.62999 43.2316 6.21399 44.6356 6.21399C46.0743 6.21399 47.1836 6.59532 47.9636 7.35799C48.761 8.10332 49.1596 9.16932 49.1596 10.556V19.812H46.7156Z" fill="white"/>
<path d="M28.7695 19.812V6.75999L30.7455 6.55199L30.9535 7.74799C32.0975 6.77733 33.3195 6.29199 34.6195 6.29199C35.0182 6.29199 35.4169 6.35266 35.8155 6.47399V8.47599C35.3995 8.37199 34.9749 8.31999 34.5415 8.31999C33.2935 8.31999 32.1842 8.70999 31.2135 9.48999V19.812H28.7695Z" fill="white"/>
<path d="M22.9934 19.864L22.8374 18.954C21.3814 19.786 19.9688 20.202 18.5994 20.202C17.2301 20.202 16.1381 19.838 15.3234 19.11C14.5261 18.3647 14.1274 17.368 14.1274 16.12C14.1274 14.82 14.5781 13.8147 15.4794 13.104C16.3808 12.376 17.6461 12.012 19.2754 12.012C20.2288 12.012 21.3294 12.1247 22.5774 12.35V10.972C22.5774 10.0187 22.3001 9.30799 21.7454 8.83999C21.2081 8.37199 20.3761 8.13799 19.2494 8.13799C17.9321 8.13799 16.4934 8.44132 14.9334 9.04799V7.14999C15.6614 6.85532 16.4501 6.62999 17.2994 6.47399C18.1488 6.30066 18.9548 6.21399 19.7174 6.21399C21.4334 6.21399 22.7334 6.61266 23.6174 7.40999C24.5188 8.20732 24.9694 9.37732 24.9694 10.92V19.656L22.9934 19.864ZM19.2234 18.304C19.7261 18.304 20.2894 18.2173 20.9134 18.044C21.5374 17.8707 22.0921 17.6453 22.5774 17.368V14.04C21.7628 13.832 20.8008 13.728 19.6914 13.728C18.6514 13.728 17.8801 13.9273 17.3774 14.326C16.8921 14.7073 16.6494 15.288 16.6494 16.068C16.6494 17.5587 17.5074 18.304 19.2234 18.304Z" fill="white"/>
<path d="M3.522 11.622V17.732H12.102V19.812H1V1.612H12.05V3.692H3.522V9.542H10.958V11.622H3.522Z" fill="white"/>
</svg>
