<svg width="213" height="36" viewBox="0 0 213 36" fill="none" xmlns="http://www.w3.org/2000/svg">
<path d="M4.85156 11.1268C4.85156 10.1017 5.07929 9.32366 5.54004 8.79271C6.00079 8.2565 6.66808 7.99365 7.54191 7.99365C8.41575 7.99365 9.08304 8.26176 9.54378 8.79271C10.0045 9.32892 10.2323 10.1069 10.2323 11.1268C10.2323 12.1466 10.0045 12.9299 9.54378 13.4609C9.08304 13.9971 8.41575 14.2599 7.54191 14.2599C6.66808 14.2599 6.00079 13.9918 5.54004 13.4609C5.07929 12.9247 4.85156 12.1466 4.85156 11.1268ZM6.15437 11.1268C6.15437 11.8733 6.26558 12.4253 6.49331 12.7722C6.71574 13.1192 7.07057 13.2927 7.54721 13.2927C8.02384 13.2927 8.37338 13.1192 8.6011 12.7722C8.82883 12.4253 8.94005 11.8733 8.94005 11.1268C8.94005 10.3803 8.82883 9.82833 8.6011 9.48137C8.37867 9.13441 8.02384 8.96093 7.54721 8.96093C7.07057 8.96093 6.71574 9.13441 6.49331 9.48137C6.27088 9.82833 6.15437 10.3803 6.15437 11.1268Z" fill="white"/>
<path d="M14.5222 14.1233V10.5433H12.658V14.1233H11.4929V10.5433H10.8362V9.77054L11.4929 9.74426V9.03983C11.4929 8.55619 11.6253 8.17243 11.8954 7.89381C12.1655 7.6152 12.5309 7.47852 13.0022 7.47852C13.3094 7.47852 13.5901 7.52583 13.8496 7.62571V8.41425C13.643 8.36168 13.463 8.3354 13.3041 8.3354C13.0976 8.3354 12.9387 8.39322 12.8275 8.50362C12.7162 8.61402 12.658 8.77698 12.658 8.99777V9.72323H14.5222V9.03983C14.5222 8.55619 14.6546 8.17243 14.9247 7.89381C15.1895 7.6152 15.5602 7.47852 16.0315 7.47852C16.2804 7.47852 16.5346 7.52057 16.7888 7.60994V8.39848C16.63 8.35643 16.4764 8.34066 16.3334 8.34066C16.1268 8.34066 15.968 8.39848 15.8515 8.50888C15.7349 8.61927 15.682 8.78224 15.682 9.00303V9.72849H16.7359V10.5433H15.682V14.1233H14.5169H14.5222ZM18.1287 9.03457C17.9116 9.03457 17.7421 8.97675 17.6203 8.86109C17.4985 8.74544 17.4402 8.58773 17.4402 8.38797C17.4402 8.1882 17.4985 8.03049 17.6203 7.91484C17.7421 7.79919 17.9116 7.74136 18.1287 7.74136C18.3459 7.74136 18.5206 7.79919 18.6424 7.91484C18.7642 8.03049 18.8278 8.1882 18.8278 8.38797C18.8278 8.58773 18.7642 8.74544 18.6424 8.86109C18.5206 8.97675 18.3459 9.03457 18.1287 9.03457ZM17.5515 14.1233V9.8126L18.7166 9.7022V14.1233H17.5515Z" fill="white"/>
<path d="M23.1067 13.9603C22.6672 14.1601 22.2117 14.26 21.7351 14.26C21.0572 14.26 20.5329 14.0602 20.1675 13.6607C19.8021 13.2612 19.6167 12.6881 19.6167 11.9364C19.6167 11.1847 19.7968 10.6011 20.1675 10.1964C20.5329 9.79157 21.0572 9.58655 21.7404 9.58655C22.1852 9.58655 22.6301 9.68643 23.0803 9.88619V10.7326C22.6672 10.5643 22.2965 10.4855 21.9734 10.4855C21.2161 10.4855 20.8348 10.9639 20.8348 11.9154C20.8348 12.3885 20.9301 12.746 21.126 12.993C21.322 13.2401 21.6027 13.3558 21.9787 13.3558C22.3018 13.3558 22.6778 13.2717 23.112 13.1087V13.9551L23.1067 13.9603Z" fill="white"/>
<path d="M24.5527 9.03466C24.3356 9.03466 24.1661 8.97684 24.0443 8.86119C23.9225 8.74553 23.8643 8.58782 23.8643 8.38806C23.8643 8.1883 23.9225 8.03059 24.0443 7.91493C24.1661 7.79928 24.3356 7.74146 24.5527 7.74146C24.7699 7.74146 24.9446 7.79928 25.0664 7.91493C25.1882 8.03059 25.2518 8.1883 25.2518 8.38806C25.2518 8.58782 25.1882 8.74553 25.0664 8.86119C24.9446 8.97684 24.7699 9.03466 24.5527 9.03466ZM23.9755 14.1234V9.81269L25.1406 9.7023V14.1234H23.9755Z" fill="white"/>
<path d="M28.9588 14.1496L28.8899 13.8657C28.4398 14.1286 27.9896 14.26 27.5447 14.26C27.0999 14.26 26.7186 14.1338 26.4432 13.8815C26.1678 13.6291 26.0354 13.2927 26.0354 12.8616C26.0354 12.4306 26.189 12.0783 26.4909 11.8313C26.7927 11.5842 27.2164 11.4633 27.7619 11.4633C28.0849 11.4633 28.4133 11.4948 28.7469 11.5579V11.2162C28.7469 10.9534 28.6675 10.7588 28.5139 10.6379C28.3603 10.517 28.1167 10.4539 27.7884 10.4539C27.3488 10.4539 26.8669 10.5538 26.3373 10.7431V9.90196C26.5862 9.80734 26.8563 9.72849 27.1581 9.67066C27.4547 9.61283 27.7407 9.58655 28.0055 9.58655C28.6145 9.58655 29.0806 9.72323 29.4089 9.99659C29.732 10.27 29.8962 10.6642 29.8962 11.1794V14.0497L28.9641 14.1443L28.9588 14.1496ZM27.8996 13.4294C28.0267 13.4294 28.1644 13.4083 28.318 13.3715C28.4715 13.3295 28.6145 13.2822 28.7469 13.2191V12.2834C28.4821 12.2203 28.2438 12.1887 28.032 12.1887C27.4812 12.1887 27.2005 12.399 27.2005 12.8248C27.2005 13.0246 27.2588 13.177 27.3753 13.2769C27.4918 13.3821 27.6666 13.4294 27.8996 13.4294Z" fill="white"/>
<path d="M30.9714 14.1233V7.67827L32.1365 7.56787V14.1233H30.9714Z" fill="white"/>
<path d="M35.5203 14.1235V8.24626C35.8009 8.18843 36.1346 8.14112 36.5159 8.10958C36.8972 8.07803 37.2362 8.05701 37.5327 8.05701C38.253 8.05701 38.7985 8.18843 39.1745 8.46179C39.5505 8.7299 39.7358 9.11891 39.7358 9.63409C39.7358 10.2702 39.3969 10.7118 38.719 10.9694C39.1374 11.0745 39.4605 11.2532 39.6776 11.5108C39.8947 11.7684 40.0059 12.0891 40.0059 12.4728C40.0059 13.0038 39.8153 13.4138 39.434 13.6977C39.0527 13.9816 38.5125 14.1288 37.8028 14.1288H35.5256L35.5203 14.1235ZM37.4798 8.95595C37.1249 8.95595 36.8548 8.97697 36.6695 9.01377V10.6224H37.6175C37.9193 10.6224 38.1524 10.5488 38.3271 10.4016C38.5019 10.2544 38.5866 10.0494 38.5866 9.78654C38.5866 9.50792 38.4966 9.29765 38.3165 9.16097C38.1365 9.02429 37.8558 8.95595 37.4851 8.95595H37.4798ZM37.7552 13.2246C38.4436 13.2246 38.7932 12.9407 38.7932 12.3677C38.7932 12.0891 38.7031 11.8735 38.5231 11.7211C38.343 11.5686 38.0835 11.495 37.7499 11.495H36.6695V13.2246H37.7552Z" fill="white"/>
<path d="M43.5757 14.1496L43.5069 13.8657C43.0567 14.1286 42.6066 14.26 42.1617 14.26C41.7168 14.26 41.3355 14.1338 41.0601 13.8815C40.7847 13.6291 40.6523 13.2927 40.6523 12.8616C40.6523 12.4306 40.8059 12.0783 41.1078 11.8313C41.4097 11.5842 41.8333 11.4633 42.3788 11.4633C42.7019 11.4633 43.0302 11.4948 43.3639 11.5579V11.2162C43.3639 10.9534 43.2844 10.7588 43.1309 10.6379C42.9773 10.517 42.7337 10.4539 42.4053 10.4539C41.9657 10.4539 41.4838 10.5538 40.9542 10.7431V9.90196C41.2031 9.80734 41.4732 9.72849 41.7751 9.67066C42.0717 9.61283 42.3576 9.58655 42.6224 9.58655C43.2315 9.58655 43.6975 9.72323 44.0259 9.99659C44.3489 10.27 44.5131 10.6642 44.5131 11.1794V14.0497L43.581 14.1443L43.5757 14.1496ZM42.5165 13.4294C42.6436 13.4294 42.7813 13.4083 42.9349 13.3715C43.0885 13.3295 43.2315 13.2822 43.3639 13.2191V12.2834C43.0991 12.2203 42.8608 12.1887 42.6489 12.1887C42.0981 12.1887 41.8175 12.399 41.8175 12.8248C41.8175 13.0246 41.8757 13.177 41.9922 13.2769C42.1087 13.3821 42.2835 13.4294 42.5165 13.4294Z" fill="white"/>
<path d="M48.2993 14.1233V11.2372C48.2993 10.9796 48.2411 10.7904 48.1246 10.6695C48.0081 10.5486 47.828 10.4855 47.5791 10.4855C47.4414 10.4855 47.2984 10.5065 47.1448 10.5486C46.9965 10.5906 46.8641 10.6484 46.7476 10.7168V14.1285H45.5825V9.80207L46.5146 9.70744L46.5835 9.99132C47.0336 9.72847 47.4732 9.59705 47.9127 9.59705C48.4053 9.59705 48.7866 9.72847 49.0567 9.98606C49.3268 10.2437 49.4592 10.6116 49.4592 11.0848V14.1285H48.294L48.2993 14.1233Z" fill="white"/>
<path d="M50.5505 14.1233V7.67827L51.7156 7.56787V11.5421L53.2462 9.72322H54.5596L52.8649 11.6946L54.6867 14.118H53.278L51.7156 12.0205V14.118H50.5505V14.1233Z" fill="white"/>
<path d="M60.1045 14.1496L60.0357 13.8657C59.5855 14.1286 59.1354 14.26 58.6905 14.26C58.2456 14.26 57.8643 14.1338 57.5889 13.8815C57.3136 13.6291 57.1812 13.2927 57.1812 12.8616C57.1812 12.4306 57.3347 12.0783 57.6366 11.8313C57.9385 11.5842 58.3622 11.4633 58.9076 11.4633C59.2307 11.4633 59.559 11.4948 59.8927 11.5579V11.2162C59.8927 10.9534 59.8132 10.7588 59.6597 10.6379C59.5061 10.517 59.2625 10.4539 58.9341 10.4539C58.4946 10.4539 58.0126 10.5538 57.483 10.7431V9.90196C57.7319 9.80734 58.002 9.72849 58.3039 9.67066C58.6005 9.61283 58.8865 9.58655 59.1513 9.58655C59.7603 9.58655 60.2263 9.72323 60.5547 9.99659C60.8777 10.27 61.0419 10.6642 61.0419 11.1794V14.0497L60.1098 14.1443L60.1045 14.1496ZM59.0453 13.4294C59.1724 13.4294 59.3101 13.4083 59.4637 13.3715C59.6173 13.3295 59.7603 13.2822 59.8927 13.2191V12.2834C59.6279 12.2203 59.3896 12.1887 59.1777 12.1887C58.627 12.1887 58.3463 12.399 58.3463 12.8248C58.3463 13.0246 58.4045 13.177 58.521 13.2769C58.6375 13.3821 58.8123 13.4294 59.0453 13.4294Z" fill="white"/>
<path d="M64.8284 14.1233V11.2372C64.8284 10.9796 64.7701 10.7904 64.6536 10.6695C64.5371 10.5486 64.3571 10.4855 64.1081 10.4855C63.9705 10.4855 63.8275 10.5065 63.6739 10.5486C63.5256 10.5906 63.3932 10.6484 63.2767 10.7168V14.1285H62.1116V9.80207L63.0437 9.70744L63.1125 9.99132C63.5627 9.72847 64.0022 9.59705 64.4418 9.59705C64.9343 9.59705 65.3156 9.72847 65.5857 9.98606C65.8558 10.2437 65.9882 10.6116 65.9882 11.0848V14.1285H64.8231L64.8284 14.1233Z" fill="white"/>
<path d="M70.9557 7.56787V14.0549L70.0236 14.1496L69.9547 13.8657C69.7482 13.9866 69.5311 14.0812 69.298 14.1548C69.065 14.2284 68.8585 14.26 68.6678 14.26C68.1011 14.26 67.6616 14.0602 67.3438 13.6607C67.0261 13.2611 66.8672 12.7039 66.8672 11.9995C66.8672 11.232 67.0578 10.6432 67.4339 10.2226C67.8099 9.80207 68.3395 9.5918 69.0279 9.5918C69.2769 9.5918 69.5311 9.62334 69.7959 9.68642V7.68352L70.961 7.57313L70.9557 7.56787ZM68.9962 13.3715C69.118 13.3715 69.2504 13.3505 69.3987 13.3085C69.5469 13.2664 69.674 13.2086 69.7906 13.1402V10.5118C69.6105 10.4697 69.4198 10.4539 69.2186 10.4539C68.832 10.4539 68.546 10.5801 68.3606 10.8272C68.1753 11.0743 68.08 11.458 68.08 11.9784C68.08 12.9089 68.3871 13.3768 68.9962 13.3768V13.3715Z" fill="white"/>
<path d="M78.4443 13.8657C77.9253 14.1285 77.364 14.2599 76.7496 14.2599C75.9023 14.2599 75.2509 13.9866 74.7848 13.4451C74.3188 12.9036 74.0911 12.1309 74.0911 11.1215C74.0911 10.1122 74.3241 9.36572 74.7901 8.81374C75.2562 8.26176 75.9076 7.9884 76.7496 7.9884C77.3428 7.9884 77.8936 8.11983 78.4073 8.38267V9.33418C78.1319 9.20276 77.8883 9.10813 77.6711 9.05556C77.4593 9.00299 77.221 8.97671 76.9615 8.97671C76.4478 8.97671 76.0612 9.15545 75.8017 9.51817C75.5422 9.8809 75.4098 10.4171 75.4098 11.1268C75.4098 12.5619 75.9288 13.2769 76.9615 13.2769C77.2104 13.2769 77.4487 13.2506 77.6711 13.1928C77.8989 13.135 78.1531 13.0456 78.4338 12.9194V13.8709L78.4443 13.8657Z" fill="white"/>
<path d="M79.366 14.1234V9.7969L80.2981 9.70228L80.3934 10.1071C80.7535 9.78113 81.156 9.61816 81.5956 9.61816C81.7333 9.61816 81.8763 9.63919 82.0298 9.67599V10.6275C81.8551 10.5854 81.7068 10.5697 81.5744 10.5697C81.1772 10.5697 80.833 10.6801 80.5364 10.8956V14.1286H79.3713L79.366 14.1234Z" fill="white"/>
<path d="M86.2611 13.9498C85.8427 14.1548 85.3767 14.26 84.863 14.26C84.1056 14.26 83.5231 14.0602 83.1206 13.6607C82.7181 13.2612 82.5168 12.6776 82.5168 11.9101C82.5168 11.4423 82.6069 11.0322 82.7869 10.68C82.967 10.3278 83.2159 10.0597 83.5337 9.87042C83.8514 9.68117 84.2116 9.58655 84.6193 9.58655C85.1966 9.58655 85.6468 9.74951 85.9751 10.0807C86.3035 10.4119 86.4676 10.8587 86.4676 11.4317C86.4676 11.6998 86.4412 11.9627 86.3882 12.2203H83.6608C83.682 12.6198 83.8091 12.9142 84.0315 13.1087C84.2539 13.3032 84.5823 13.3978 85.006 13.3978C85.4296 13.3978 85.8586 13.3032 86.2558 13.114V13.9551L86.2611 13.9498ZM84.6193 10.3961C84.3492 10.3961 84.1268 10.4907 83.9573 10.6747C83.7879 10.8587 83.682 11.1111 83.6555 11.4317H85.3979V11.3056C85.3979 11.0059 85.329 10.7799 85.1966 10.6274C85.0642 10.475 84.8735 10.3961 84.6193 10.3961Z" fill="white"/>
<path d="M91.2499 7.56787V14.0549L90.3178 14.1496L90.2489 13.8657C90.0424 13.9866 89.8252 14.0812 89.5922 14.1548C89.3592 14.2284 89.1527 14.26 88.962 14.26C88.3953 14.26 87.9558 14.0602 87.638 13.6607C87.3203 13.2611 87.1614 12.7039 87.1614 11.9995C87.1614 11.232 87.352 10.6432 87.728 10.2226C88.1041 9.80207 88.6337 9.5918 89.3221 9.5918C89.571 9.5918 89.8252 9.62334 90.09 9.68642V7.68352L91.2552 7.57313L91.2499 7.56787ZM89.2904 13.3715C89.4122 13.3715 89.5446 13.3505 89.6928 13.3085C89.8411 13.2664 89.9682 13.2086 90.0848 13.1402V10.5118C89.9047 10.4697 89.714 10.4539 89.5128 10.4539C89.1262 10.4539 88.8402 10.5801 88.6548 10.8272C88.4695 11.0743 88.3742 11.458 88.3742 11.9784C88.3742 12.9089 88.6813 13.3768 89.2904 13.3768V13.3715Z" fill="white"/>
<path d="M92.9497 9.03466C92.7326 9.03466 92.5631 8.97684 92.4413 8.86119C92.3195 8.74553 92.2612 8.58782 92.2612 8.38806C92.2612 8.1883 92.3195 8.03059 92.4413 7.91493C92.5631 7.79928 92.7326 7.74146 92.9497 7.74146C93.1668 7.74146 93.3416 7.79928 93.4634 7.91493C93.5852 8.03059 93.6488 8.1883 93.6488 8.38806C93.6488 8.58782 93.5852 8.74553 93.4634 8.86119C93.3416 8.97684 93.1668 9.03466 92.9497 9.03466ZM92.3724 14.1234V9.81269L93.5376 9.7023V14.1234H92.3724Z" fill="white"/>
<path d="M96.1009 10.5433V12.746C96.1009 13.1718 96.3074 13.3873 96.7152 13.3873C96.8635 13.3873 97.0488 13.3558 97.266 13.2927V14.0707C97.0118 14.1864 96.7205 14.2442 96.3921 14.2442C95.9155 14.2442 95.5501 14.1233 95.3065 13.8762C95.0576 13.6291 94.9358 13.2717 94.9358 12.8038V10.5433H94.2791V9.77055L94.994 9.74426L95.0734 8.6403L96.1009 8.52991V9.72849H97.2395V10.5433H96.1009Z" fill="white"/>
<path d="M104.416 13.8657C103.897 14.1285 103.335 14.2599 102.721 14.2599C101.874 14.2599 101.222 13.9866 100.756 13.4451C100.29 12.9036 100.062 12.1309 100.062 11.1215C100.062 10.1122 100.296 9.36572 100.762 8.81374C101.228 8.26176 101.879 7.9884 102.721 7.9884C103.314 7.9884 103.865 8.11983 104.379 8.38267V9.33418C104.103 9.20276 103.86 9.10813 103.643 9.05556C103.431 9.00299 103.192 8.97671 102.933 8.97671C102.419 8.97671 102.033 9.15545 101.773 9.51817C101.514 9.8809 101.381 10.4171 101.381 11.1268C101.381 12.5619 101.9 13.2769 102.933 13.2769C103.182 13.2769 103.42 13.2506 103.643 13.1928C103.87 13.135 104.125 13.0456 104.405 12.9194V13.8709L104.416 13.8657Z" fill="white"/>
<path d="M108.043 14.1496L107.975 13.8657C107.524 14.1286 107.074 14.26 106.629 14.26C106.185 14.26 105.803 14.1338 105.528 13.8815C105.253 13.6291 105.12 13.2927 105.12 12.8616C105.12 12.4306 105.274 12.0783 105.576 11.8313C105.877 11.5842 106.301 11.4633 106.847 11.4633C107.17 11.4633 107.498 11.4948 107.832 11.5579V11.2162C107.832 10.9534 107.752 10.7588 107.599 10.6379C107.445 10.517 107.201 10.4539 106.873 10.4539C106.434 10.4539 105.952 10.5538 105.422 10.7431V9.90196C105.671 9.80734 105.941 9.72849 106.243 9.67066C106.539 9.61283 106.825 9.58655 107.09 9.58655C107.699 9.58655 108.165 9.72323 108.494 9.99659C108.817 10.27 108.981 10.6642 108.981 11.1794V14.0497L108.049 14.1443L108.043 14.1496ZM106.984 13.4294C107.111 13.4294 107.249 13.4083 107.403 13.3715C107.556 13.3295 107.699 13.2822 107.832 13.2191V12.2834C107.567 12.2203 107.329 12.1887 107.117 12.1887C106.566 12.1887 106.285 12.399 106.285 12.8248C106.285 13.0246 106.343 13.177 106.46 13.2769C106.577 13.3821 106.751 13.4294 106.984 13.4294Z" fill="white"/>
<path d="M110.051 14.1234V9.7969L110.983 9.70228L111.078 10.1071C111.438 9.78113 111.841 9.61816 112.28 9.61816C112.418 9.61816 112.561 9.63919 112.714 9.67599V10.6275C112.54 10.5854 112.391 10.5697 112.259 10.5697C111.862 10.5697 111.518 10.6801 111.221 10.8956V14.1286H110.056L110.051 14.1234Z" fill="white"/>
<path d="M117.295 7.56787V14.0549L116.363 14.1496L116.294 13.8657C116.088 13.9866 115.871 14.0812 115.638 14.1548C115.405 14.2284 115.198 14.26 115.007 14.26C114.441 14.26 114.001 14.0602 113.683 13.6607C113.366 13.2611 113.207 12.7039 113.207 11.9995C113.207 11.232 113.397 10.6432 113.773 10.2226C114.149 9.80207 114.679 9.5918 115.368 9.5918C115.616 9.5918 115.871 9.62334 116.135 9.68642V7.68352L117.301 7.57313L117.295 7.56787ZM115.336 13.3715C115.458 13.3715 115.59 13.3505 115.738 13.3085C115.887 13.2664 116.014 13.2086 116.13 13.1402V10.5118C115.95 10.4697 115.759 10.4539 115.558 10.4539C115.172 10.4539 114.886 10.5801 114.7 10.8272C114.515 11.0743 114.42 11.458 114.42 11.9784C114.42 12.9089 114.727 13.3768 115.336 13.3768V13.3715Z" fill="white"/>
<path d="M120.68 14.1235V8.24626C120.982 8.18843 121.315 8.14112 121.681 8.10958C122.046 8.07803 122.369 8.05701 122.639 8.05701C123.412 8.05701 124.006 8.22523 124.419 8.56167C124.832 8.89812 125.038 9.3765 125.038 10.0021C125.038 10.6277 124.821 11.1008 124.387 11.4477C123.953 11.7947 123.354 11.9734 122.597 11.9734H121.887V14.1235H120.68ZM122.597 8.97172C122.332 8.97172 122.094 8.98749 121.887 9.02429V11.0535H122.597C122.983 11.0535 123.28 10.9641 123.487 10.7854C123.693 10.6066 123.799 10.349 123.799 10.0073C123.799 9.31867 123.397 8.97172 122.597 8.97172Z" fill="white"/>
<path d="M128.422 14.1496L128.354 13.8657C127.903 14.1286 127.453 14.26 127.008 14.26C126.564 14.26 126.182 14.1338 125.907 13.8815C125.631 13.6291 125.499 13.2927 125.499 12.8616C125.499 12.4306 125.653 12.0783 125.954 11.8313C126.256 11.5842 126.68 11.4633 127.226 11.4633C127.549 11.4633 127.877 11.4948 128.211 11.5579V11.2162C128.211 10.9534 128.131 10.7588 127.978 10.6379C127.824 10.517 127.58 10.4539 127.252 10.4539C126.812 10.4539 126.33 10.5538 125.801 10.7431V9.90196C126.05 9.80734 126.32 9.72849 126.622 9.67066C126.918 9.61283 127.204 9.58655 127.469 9.58655C128.078 9.58655 128.544 9.72323 128.873 9.99659C129.196 10.27 129.36 10.6642 129.36 11.1794V14.0497L128.428 14.1443L128.422 14.1496ZM127.363 13.4294C127.49 13.4294 127.628 13.4083 127.782 13.3715C127.935 13.3295 128.078 13.2822 128.211 13.2191V12.2834C127.946 12.2203 127.707 12.1887 127.496 12.1887C126.945 12.1887 126.664 12.399 126.664 12.8248C126.664 13.0246 126.722 13.177 126.839 13.2769C126.955 13.3821 127.13 13.4294 127.363 13.4294Z" fill="white"/>
<path d="M130.435 14.1234V9.7969L131.367 9.70228L131.462 10.1071C131.822 9.78113 132.225 9.61816 132.664 9.61816C132.802 9.61816 132.945 9.63919 133.098 9.67599V10.6275C132.924 10.5854 132.775 10.5697 132.643 10.5697C132.246 10.5697 131.902 10.6801 131.605 10.8956V14.1286H130.44L130.435 14.1234Z" fill="white"/>
<path d="M135.244 10.5433V12.746C135.244 13.1718 135.45 13.3873 135.858 13.3873C136.006 13.3873 136.192 13.3558 136.409 13.2927V14.0707C136.155 14.1864 135.863 14.2442 135.535 14.2442C135.058 14.2442 134.693 14.1233 134.449 13.8762C134.2 13.6291 134.079 13.2717 134.079 12.8038V10.5433H133.422V9.77055L134.137 9.74426L134.216 8.6403L135.244 8.52991V9.72849H136.382V10.5433H135.244Z" fill="white"/>
<path d="M139.904 14.1233V11.2372C139.904 10.9796 139.846 10.7904 139.729 10.6695C139.613 10.5486 139.432 10.4855 139.184 10.4855C139.046 10.4855 138.903 10.5065 138.749 10.5486C138.601 10.5906 138.469 10.6484 138.352 10.7168V14.1285H137.187V9.80207L138.119 9.70744L138.188 9.99132C138.638 9.72847 139.078 9.59705 139.517 9.59705C140.01 9.59705 140.391 9.72847 140.661 9.98606C140.931 10.2437 141.064 10.6116 141.064 11.0848V14.1285H139.899L139.904 14.1233Z" fill="white"/>
<path d="M145.687 13.9498C145.269 14.1548 144.803 14.26 144.289 14.26C143.532 14.26 142.949 14.0602 142.547 13.6607C142.144 13.2612 141.943 12.6776 141.943 11.9101C141.943 11.4423 142.033 11.0322 142.213 10.68C142.393 10.3278 142.642 10.0597 142.96 9.87042C143.277 9.68117 143.638 9.58655 144.045 9.58655C144.623 9.58655 145.073 9.74951 145.401 10.0807C145.729 10.4119 145.894 10.8587 145.894 11.4317C145.894 11.6998 145.867 11.9627 145.814 12.2203H143.087C143.108 12.6198 143.235 12.9142 143.458 13.1087C143.68 13.3032 144.008 13.3978 144.432 13.3978C144.856 13.3978 145.285 13.3032 145.682 13.114V13.9551L145.687 13.9498ZM144.045 10.3961C143.775 10.3961 143.553 10.4907 143.383 10.6747C143.214 10.8587 143.108 11.1111 143.082 11.4317H144.824V11.3056C144.824 11.0059 144.755 10.7799 144.623 10.6274C144.49 10.475 144.3 10.3961 144.045 10.3961Z" fill="white"/>
<path d="M146.799 14.1234V9.7969L147.731 9.70228L147.826 10.1071C148.187 9.78113 148.589 9.61816 149.029 9.61816C149.166 9.61816 149.309 9.63919 149.463 9.67599V10.6275C149.288 10.5854 149.14 10.5697 149.007 10.5697C148.61 10.5697 148.266 10.6801 147.969 10.8956V14.1286H146.804L146.799 14.1234Z" fill="white"/>
<path d="M154.214 14.26C153.53 14.26 153.006 14.0602 152.646 13.6659C152.286 13.2717 152.106 12.6881 152.106 11.9206C152.106 11.1531 152.286 10.5854 152.641 10.1858C152.995 9.79156 153.52 9.5918 154.214 9.5918C154.907 9.5918 155.426 9.79156 155.786 10.1858C156.141 10.5854 156.321 11.1636 156.321 11.9206C156.321 12.6776 156.141 13.2664 155.781 13.6659C155.421 14.0655 154.897 14.26 154.214 14.26ZM154.214 13.3663C154.531 13.3663 154.759 13.2559 154.897 13.0298C155.034 12.8038 155.103 12.4358 155.103 11.9154C155.103 11.3949 155.034 11.0322 154.897 10.8114C154.759 10.5906 154.531 10.475 154.214 10.475C153.896 10.475 153.668 10.5854 153.53 10.8114C153.393 11.0375 153.324 11.4002 153.324 11.9154C153.324 12.4305 153.393 12.809 153.53 13.0298C153.668 13.2506 153.896 13.3663 154.214 13.3663Z" fill="white"/>
<path d="M157.502 14.1233V10.5433H156.846V9.77054L157.502 9.74426V9.03983C157.502 8.55619 157.635 8.17243 157.905 7.89381C158.175 7.6152 158.54 7.47852 159.012 7.47852C159.319 7.47852 159.626 7.53634 159.933 7.65199V8.44054C159.674 8.3722 159.467 8.3354 159.314 8.3354C159.107 8.3354 158.948 8.39322 158.837 8.50362C158.726 8.61402 158.668 8.77698 158.668 8.99777V9.72323H159.721V10.5381H158.668V14.118H157.502V14.1233Z" fill="white"/>
<path d="M211.89 22.8416C212.235 22.8416 212.51 23.0834 212.51 23.4146C212.51 23.7457 212.235 23.9928 211.89 23.9928C211.546 23.9928 211.271 23.7457 211.271 23.4146C211.271 23.0834 211.546 22.8416 211.89 22.8416ZM211.89 24.1505C212.335 24.1505 212.685 23.8246 212.685 23.4146C212.685 23.0045 212.335 22.6786 211.89 22.6786C211.445 22.6786 211.096 23.0045 211.096 23.4146C211.096 23.8246 211.445 24.1505 211.89 24.1505ZM212.055 23.4882C212.203 23.4776 212.277 23.404 212.277 23.2621C212.277 23.0623 212.15 23.0308 211.954 23.0308H211.551V23.7983H211.726V23.4934H211.874L212.065 23.7983H212.256L212.055 23.4934V23.4882ZM211.726 23.3515V23.1675H211.917C211.996 23.1675 212.107 23.1675 212.107 23.2516C212.107 23.3357 212.049 23.3515 211.959 23.3515H211.726Z" fill="white"/>
<path d="M169.21 0H207.029C209.062 0 210.72 1.64017 210.72 3.66409V20.4495C210.72 22.4682 209.068 24.1136 207.029 24.1136H169.21C167.176 24.1136 165.519 22.4734 165.519 20.4495V3.66409C165.519 1.64017 167.171 0 169.21 0Z" fill="white"/>
<path d="M208.766 1.93455C208.299 1.47194 207.685 1.2196 207.028 1.2196H196.452L202.537 11.2919L203.094 11.3603L203.417 11.8176V12.2539L203.808 12.3223L204.158 12.8059V13.2212L204.55 13.2896C204.55 13.2896 204.942 13.7048 204.942 13.7259C204.942 13.7048 204.942 14.6669 204.942 14.6669C204.942 14.6669 205.8 15.4502 206.562 15.7445C207.097 15.9496 207.166 16.8012 207.468 17.2638C207.886 17.9051 208.442 18.1838 208.326 18.5518C208.051 19.5401 207.028 21.196 206.08 21.2906C206.08 21.2906 203.718 21.2906 202.326 21.2906V22.8835H207.018C208.374 22.8835 209.475 21.7848 209.475 20.439V3.66408C209.475 3.01222 209.221 2.39716 208.755 1.93981L208.766 1.93455Z" fill="#BC0022"/>
<path d="M192.851 1.21973H169.21C168.553 1.21973 167.934 1.47207 167.473 1.93468C167.007 2.39729 166.753 3.0071 166.753 3.65896V20.4444C166.753 21.0962 167.007 21.7113 167.473 22.1687C167.939 22.6313 168.553 22.8836 169.21 22.8836H184.568C184.182 22.2475 183.753 21.5221 183.615 21.3013H181.783C181.783 16.7961 183.329 14.2885 185.161 13.8049C185.416 13.7576 185.299 12.5169 184.976 12.1489C184.976 12.1489 184.097 12.17 183.912 12.1279C183.679 12.0596 183.843 11.8283 183.843 11.8283L184.701 9.98832L184.584 9.48365H181.412C181.364 9.48365 184.028 7.66475 184.028 7.66475C184.166 2.88093 189.102 2.51294 192.089 4.48955C193.852 5.66185 193.99 7.95914 193.852 9.57302C193.831 9.66239 193.391 9.59405 193.391 9.59405C193.391 9.59405 193.09 11.3394 193.879 11.3394H197.353C198.767 11.292 200.133 12.233 200.133 12.233L200.477 11.0345L192.851 1.21448V1.21973ZM171.837 19.4351C170.905 19.4351 170.147 18.6833 170.147 17.7581C170.147 16.8329 170.905 16.0811 171.837 16.0811C172.769 16.0811 173.526 16.8329 173.526 17.7581C173.526 18.6833 172.774 19.4351 171.837 19.4351Z" fill="#041E42"/>
<path d="M7.57271 22.0892L8.16825 23.6014L8.76896 22.0892H9.20914L9.40074 24.3367H9.002L8.88289 22.721L8.33396 24.1192H7.99735L7.43807 22.6951L7.31896 24.3367H6.92539L7.117 22.0892H7.57271ZM5.62039 24.3367V22.431H4.95236V22.0892H6.71307V22.431H6.04504V24.3367H5.62039ZM9.83485 25.7142L11.1399 21.8251H11.6318L10.3268 25.7142H9.83485ZM13.867 25.7919C13.508 25.7919 13.1834 25.7056 12.8934 25.533C12.6069 25.3569 12.3842 25.1256 12.2254 24.8391C12.0666 24.5525 11.9872 24.2401 11.9872 23.9017C11.9872 23.5392 12.0735 23.213 12.2461 22.923C12.4222 22.633 12.6518 22.4086 12.9349 22.2498C13.2214 22.091 13.5321 22.0116 13.867 22.0116C14.2261 22.0116 14.5489 22.0996 14.8354 22.2757C15.1254 22.4483 15.3498 22.6779 15.5086 22.9644C15.6674 23.251 15.7468 23.5634 15.7468 23.9017C15.7468 24.2642 15.6588 24.5905 15.4827 24.8805C15.3101 25.1705 15.0805 25.3949 14.794 25.5537C14.5109 25.7125 14.2019 25.7919 13.867 25.7919ZM13.867 25.4967C14.1708 25.4967 14.4401 25.426 14.6749 25.2844C14.9131 25.1394 15.0961 24.9461 15.2238 24.7044C15.355 24.4627 15.4206 24.1952 15.4206 23.9017C15.4206 23.5876 15.3498 23.3097 15.2083 23.068C15.0702 22.8229 14.8837 22.6347 14.649 22.5035C14.4142 22.3723 14.1536 22.3067 13.867 22.3067C13.5632 22.3067 13.2922 22.3792 13.054 22.5242C12.8192 22.6658 12.6362 22.8574 12.5051 23.0991C12.3773 23.3407 12.3134 23.6083 12.3134 23.9017C12.3134 24.2159 12.3825 24.4955 12.5206 24.7407C12.6621 24.9823 12.8503 25.1688 13.085 25.2999C13.3198 25.4311 13.5805 25.4967 13.867 25.4967ZM14.535 24.9064C14.3555 25.003 14.1536 25.0514 13.9292 25.0514C13.6081 25.0514 13.3561 24.9495 13.1731 24.7458C12.9901 24.5422 12.8986 24.2608 12.8986 23.9017C12.8986 23.5427 12.9901 23.2613 13.1731 23.0576C13.3595 22.8539 13.6115 22.7521 13.9292 22.7521C14.1467 22.7521 14.3452 22.8004 14.5247 22.8971V23.2233C14.4349 23.175 14.3486 23.1405 14.2658 23.1198C14.1864 23.0956 14.0983 23.0835 14.0017 23.0835C13.798 23.0835 13.6374 23.1577 13.52 23.3062C13.4061 23.4512 13.3492 23.6497 13.3492 23.9017C13.3492 24.1572 13.4061 24.3574 13.52 24.5024C13.6374 24.6474 13.798 24.7199 14.0017 24.7199C14.1708 24.7199 14.3486 24.6733 14.535 24.5801V24.9064ZM17.5038 25.7142C17.5107 25.4035 17.5728 25.1342 17.6902 24.9064C17.811 24.6785 18.013 24.4455 18.2961 24.2073L18.7311 23.8396C18.9072 23.6911 19.0332 23.5582 19.1091 23.4408C19.1851 23.3235 19.2231 23.2026 19.2231 23.0783C19.2231 22.8954 19.1557 22.7504 19.0211 22.6433C18.8899 22.5363 18.7104 22.4828 18.4825 22.4828C18.1856 22.4828 17.8956 22.5864 17.6125 22.7935V22.3948C17.8922 22.1911 18.2219 22.0892 18.6016 22.0892C18.826 22.0892 19.0228 22.1324 19.192 22.2187C19.3646 22.3016 19.4975 22.4172 19.5907 22.5657C19.684 22.7107 19.7306 22.8729 19.7306 23.0525C19.7306 23.232 19.6822 23.4011 19.5856 23.56C19.4923 23.7153 19.3318 23.8897 19.104 24.083L18.6897 24.4351C18.4963 24.6008 18.3496 24.7527 18.2495 24.8908C18.1494 25.0289 18.0855 25.167 18.0579 25.3051H19.2593C19.4595 25.3051 19.6322 25.2999 19.7772 25.2896V25.7142H17.5038ZM21.6519 25.4087C21.9212 25.4087 22.118 25.2913 22.2423 25.0566C22.3666 24.8183 22.4287 24.4455 22.4287 23.938C22.4287 23.4305 22.3648 23.0594 22.2371 22.8246C22.1128 22.5898 21.9178 22.4725 21.6519 22.4725C21.3861 22.4725 21.1893 22.5898 21.0616 22.8246C20.9373 23.0594 20.8751 23.4305 20.8751 23.938C20.8751 24.4455 20.9373 24.8183 21.0616 25.0566C21.1859 25.2913 21.3826 25.4087 21.6519 25.4087ZM21.6519 25.7919C20.7957 25.7919 20.3676 25.1739 20.3676 23.938C20.3676 23.3269 20.4747 22.866 20.6887 22.5553C20.9028 22.2446 21.2238 22.0892 21.6519 22.0892C22.08 22.0892 22.4011 22.2446 22.6151 22.5553C22.8292 22.866 22.9362 23.3269 22.9362 23.938C22.9362 25.1739 22.5081 25.7919 21.6519 25.7919ZM23.4458 25.7142C23.4527 25.4035 23.5148 25.1342 23.6322 24.9064C23.753 24.6785 23.955 24.4455 24.2381 24.2073L24.6731 23.8396C24.8492 23.6911 24.9752 23.5582 25.0511 23.4408C25.1271 23.3235 25.1651 23.2026 25.1651 23.0783C25.1651 22.8954 25.0977 22.7504 24.9631 22.6433C24.8319 22.5363 24.6524 22.4828 24.4245 22.4828C24.1276 22.4828 23.8376 22.5864 23.5545 22.7935V22.3948C23.8342 22.1911 24.1639 22.0892 24.5436 22.0892C24.768 22.0892 24.9648 22.1324 25.134 22.2187C25.3066 22.3016 25.4395 22.4172 25.5327 22.5657C25.6259 22.7107 25.6726 22.8729 25.6726 23.0525C25.6726 23.232 25.6242 23.4011 25.5276 23.56C25.4343 23.7153 25.2738 23.8897 25.046 24.083L24.6317 24.4351C24.4383 24.6008 24.2916 24.7527 24.1915 24.8908C24.0914 25.0289 24.0275 25.167 23.9999 25.3051H25.2013C25.4015 25.3051 25.5742 25.2999 25.7192 25.2896V25.7142H23.4458ZM28.5054 22.4932C28.1463 22.5104 27.839 22.5778 27.5836 22.6951C27.3281 22.8091 27.1279 22.9696 26.9829 23.1767C26.8413 23.3804 26.7585 23.6255 26.7343 23.9121C26.8344 23.7878 26.9673 23.6894 27.133 23.6169C27.2987 23.5444 27.4714 23.5082 27.6509 23.5082C27.8615 23.5082 28.0496 23.56 28.2154 23.6635C28.3811 23.7636 28.5088 23.9 28.5986 24.0726C28.6883 24.2418 28.7332 24.4282 28.7332 24.6319C28.7332 24.8667 28.6797 25.0721 28.5727 25.2482C28.4691 25.4208 28.3258 25.5554 28.1429 25.6521C27.9599 25.7453 27.7527 25.7919 27.5214 25.7919C27.2521 25.7919 27.0208 25.7298 26.8275 25.6055C26.6376 25.4777 26.4926 25.2965 26.3925 25.0617C26.2958 24.827 26.2475 24.5508 26.2475 24.2332C26.2475 23.7982 26.3355 23.4236 26.5116 23.1094C26.6877 22.7918 26.9397 22.5467 27.2677 22.3741C27.5957 22.2014 27.9858 22.1065 28.438 22.0892L28.5054 22.4932ZM27.5629 23.8862C27.404 23.8862 27.2487 23.9294 27.0968 24.0157C26.9449 24.102 26.8223 24.2176 26.7291 24.3626C26.7429 24.701 26.8171 24.9599 26.9518 25.1394C27.0899 25.3189 27.2798 25.4087 27.5214 25.4087C27.7389 25.4087 27.9133 25.3397 28.0445 25.2016C28.1757 25.06 28.2412 24.8753 28.2412 24.6474C28.2412 24.4196 28.1791 24.2366 28.0548 24.0985C27.9305 23.957 27.7665 23.8862 27.5629 23.8862ZM32.4542 25.3983L31.4444 22.7987L31.2476 25.7142H30.7712L31.056 22.0892H31.6205L32.6614 24.7717L33.7023 22.0892H34.2667L34.5516 25.7142H34.07L33.868 22.7987L32.8634 25.3983H32.4542ZM35.4643 25.7142V22.0892H35.9666V25.2999H37.6341V25.7142H35.4643ZM38.2684 25.7142V22.1669C38.4514 22.1324 38.6447 22.1048 38.8484 22.0841C39.0521 22.0633 39.2299 22.053 39.3818 22.053C39.7858 22.053 40.0947 22.1341 40.3088 22.2964C40.5263 22.4552 40.635 22.6848 40.635 22.9851C40.635 23.1854 40.5798 23.3563 40.4693 23.4978C40.3623 23.6394 40.2035 23.7464 39.9929 23.8189C40.2484 23.8741 40.4452 23.9811 40.5833 24.14C40.7248 24.2953 40.7956 24.4921 40.7956 24.7303C40.7956 25.0479 40.6851 25.2913 40.4642 25.4605C40.2432 25.6297 39.9273 25.7142 39.5165 25.7142H38.2684ZM39.5009 25.331C39.7564 25.331 39.9497 25.2775 40.0809 25.1705C40.2156 25.06 40.2829 24.8995 40.2829 24.6889C40.2829 24.4817 40.2121 24.3229 40.0706 24.2125C39.9325 24.0985 39.7374 24.0416 39.4854 24.0416H38.7552V25.331H39.5009ZM39.3456 22.4362C39.1833 22.4362 38.9865 22.4535 38.7552 22.488V23.6687H39.4388C39.6563 23.6687 39.8272 23.6135 39.9515 23.503C40.0792 23.3891 40.1431 23.2372 40.1431 23.0473C40.1431 22.6399 39.8772 22.4362 39.3456 22.4362ZM41.6823 25.7401C41.5891 25.7401 41.5132 25.7108 41.4545 25.6521C41.3958 25.5934 41.3664 25.5174 41.3664 25.4242C41.3664 25.331 41.3958 25.2551 41.4545 25.1964C41.5132 25.1377 41.5891 25.1083 41.6823 25.1083C41.7755 25.1083 41.8515 25.1377 41.9102 25.1964C41.9689 25.2551 41.9982 25.331 41.9982 25.4242C41.9982 25.5174 41.9689 25.5934 41.9102 25.6521C41.8515 25.7108 41.7755 25.7401 41.6823 25.7401ZM46.548 25.5641C46.2546 25.716 45.9318 25.7919 45.5796 25.7919C45.0963 25.7919 44.7217 25.6262 44.4559 25.2948C44.1901 24.9633 44.0571 24.499 44.0571 23.9017C44.0571 23.3079 44.1901 22.8453 44.4559 22.5139C44.7252 22.179 45.0998 22.0116 45.5796 22.0116C45.9145 22.0116 46.2321 22.0875 46.5325 22.2394V22.6485C46.3737 22.5691 46.227 22.5139 46.0923 22.4828C45.9577 22.4483 45.8144 22.431 45.6625 22.431C44.9513 22.431 44.5957 22.9213 44.5957 23.9017C44.5957 24.8822 44.9513 25.3724 45.6625 25.3724C45.8179 25.3724 45.9646 25.3552 46.1027 25.3207C46.2442 25.2861 46.3927 25.2309 46.548 25.1549V25.5641ZM48.9144 25.7246L48.8834 25.5433C48.5934 25.7091 48.312 25.7919 48.0393 25.7919C47.7665 25.7919 47.549 25.7194 47.3868 25.5744C47.2279 25.426 47.1485 25.2274 47.1485 24.9789C47.1485 24.7199 47.2383 24.5197 47.4178 24.3782C47.5974 24.2332 47.8494 24.1607 48.1739 24.1607C48.3638 24.1607 48.583 24.1831 48.8316 24.228V23.9535C48.8316 23.7636 48.7763 23.6221 48.6659 23.5289C48.5588 23.4357 48.3931 23.3891 48.1687 23.3891C47.9063 23.3891 47.6198 23.4495 47.3091 23.5703V23.1923C47.4541 23.1336 47.6112 23.0887 47.7803 23.0576C47.9495 23.0231 48.11 23.0058 48.2619 23.0058C48.6037 23.0058 48.8626 23.0852 49.0387 23.2441C49.2182 23.4029 49.308 23.6359 49.308 23.9432V25.6832L48.9144 25.7246ZM48.1635 25.4139C48.2637 25.4139 48.3759 25.3966 48.5001 25.3621C48.6244 25.3276 48.7349 25.2827 48.8316 25.2274V24.5646C48.6693 24.5232 48.4777 24.5024 48.2568 24.5024C48.0496 24.5024 47.896 24.5422 47.7959 24.6216C47.6992 24.6975 47.6509 24.8132 47.6509 24.9685C47.6509 25.2654 47.8218 25.4139 48.1635 25.4139ZM50.1685 26.8846V23.1146L50.562 23.0732L50.5931 23.2544C50.8658 23.0887 51.1299 23.0058 51.3854 23.0058C51.7237 23.0058 51.9879 23.1267 52.1777 23.3683C52.3711 23.6066 52.4677 23.9363 52.4677 24.3574C52.4677 24.8132 52.3555 25.167 52.1311 25.4191C51.9067 25.6676 51.5908 25.7919 51.1835 25.7919C50.9867 25.7919 50.8106 25.7677 50.6552 25.7194V26.8276L50.1685 26.8846ZM51.2715 23.3891C51.1783 23.3891 51.0747 23.4063 50.9608 23.4408C50.8503 23.4719 50.7485 23.5151 50.6552 23.5703V25.3517C50.8002 25.3932 50.9539 25.4139 51.1161 25.4139C51.3992 25.4139 51.6098 25.3276 51.7479 25.1549C51.8895 24.9823 51.9602 24.7199 51.9602 24.3678C51.9602 24.0467 51.9015 23.8033 51.7842 23.6376C51.6702 23.4719 51.4993 23.3891 51.2715 23.3891ZM53.2052 25.7142V23.125L53.692 23.068V25.7142H53.2052ZM53.4486 22.545C53.3485 22.545 53.2691 22.5191 53.2104 22.4673C53.1551 22.412 53.1275 22.3378 53.1275 22.2446C53.1275 22.1514 53.1551 22.0789 53.2104 22.0271C53.2691 21.9719 53.3485 21.9442 53.4486 21.9442C53.5487 21.9442 53.6264 21.9719 53.6816 22.0271C53.7403 22.0789 53.7697 22.1514 53.7697 22.2446C53.7697 22.3378 53.7403 22.412 53.6816 22.4673C53.6264 22.5191 53.5487 22.545 53.4486 22.545ZM55.1787 23.4357V24.9478C55.1787 25.1032 55.2132 25.2188 55.2823 25.2948C55.3513 25.3673 55.4566 25.4035 55.5982 25.4035C55.7052 25.4035 55.8191 25.3845 55.94 25.3466V25.6935C55.795 25.7488 55.6448 25.7764 55.4894 25.7764C55.227 25.7764 55.0285 25.7073 54.8939 25.5692C54.7592 25.4311 54.6919 25.2292 54.6919 24.9633V23.4357H54.2984V23.1042L54.7126 23.0887L54.7489 22.431L55.1787 22.3844V23.0835H55.9141V23.4357H55.1787ZM58.1839 25.7246L58.1528 25.5433C57.8628 25.7091 57.5814 25.7919 57.3087 25.7919C57.0359 25.7919 56.8184 25.7194 56.6562 25.5744C56.4974 25.426 56.418 25.2274 56.418 24.9789C56.418 24.7199 56.5077 24.5197 56.6873 24.3782C56.8668 24.2332 57.1188 24.1607 57.4433 24.1607C57.6332 24.1607 57.8524 24.1831 58.101 24.228V23.9535C58.101 23.7636 58.0458 23.6221 57.9353 23.5289C57.8283 23.4357 57.6625 23.3891 57.4381 23.3891C57.1758 23.3891 56.8892 23.4495 56.5785 23.5703V23.1923C56.7235 23.1336 56.8806 23.0887 57.0498 23.0576C57.2189 23.0231 57.3795 23.0058 57.5314 23.0058C57.8731 23.0058 58.1321 23.0852 58.3081 23.2441C58.4877 23.4029 58.5774 23.6359 58.5774 23.9432V25.6832L58.1839 25.7246ZM57.433 25.4139C57.5331 25.4139 57.6453 25.3966 57.7696 25.3621C57.8939 25.3276 58.0043 25.2827 58.101 25.2274V24.5646C57.9387 24.5232 57.7471 24.5024 57.5262 24.5024C57.319 24.5024 57.1654 24.5422 57.0653 24.6216C56.9686 24.6975 56.9203 24.8132 56.9203 24.9685C56.9203 25.2654 57.0912 25.4139 57.433 25.4139ZM59.4379 25.7142V21.8251L59.9247 21.7682V25.7142H59.4379ZM62.6439 23.9017C62.6439 24.3989 62.725 24.77 62.8873 25.0151C63.053 25.2568 63.3068 25.3776 63.6485 25.3776C63.9903 25.3776 64.2423 25.2568 64.4046 25.0151C64.5703 24.77 64.6532 24.3989 64.6532 23.9017C64.6532 23.4046 64.5703 23.0352 64.4046 22.7935C64.2423 22.5484 63.9903 22.4258 63.6485 22.4258C63.3068 22.4258 63.053 22.5484 62.8873 22.7935C62.725 23.0352 62.6439 23.4046 62.6439 23.9017ZM62.1105 23.9017C62.1105 23.2907 62.2417 22.8229 62.5041 22.4983C62.7699 22.1738 63.1514 22.0116 63.6485 22.0116C64.1457 22.0116 64.5254 22.1738 64.7878 22.4983C65.0537 22.8229 65.1866 23.2907 65.1866 23.9017C65.1866 24.5128 65.0537 24.9806 64.7878 25.3051C64.5254 25.6297 64.1457 25.7919 63.6485 25.7919C63.1514 25.7919 62.7699 25.6297 62.5041 25.3051C62.2417 24.9806 62.1105 24.5128 62.1105 23.9017ZM67.657 25.7142V23.9432C67.657 23.5738 67.474 23.3891 67.1081 23.3891C67.0114 23.3891 66.9027 23.4063 66.7818 23.4408C66.6645 23.4719 66.5574 23.5151 66.4608 23.5703V25.7142H65.974V23.1146L66.3676 23.0732L66.3986 23.2544C66.6817 23.0887 66.9631 23.0058 67.2427 23.0058C67.5293 23.0058 67.7502 23.0818 67.9056 23.2337C68.0644 23.3822 68.1438 23.5945 68.1438 23.8707V25.7142H67.657ZM70.9632 25.6158C70.725 25.7332 70.4591 25.7919 70.1657 25.7919C69.7376 25.7919 69.4113 25.6728 69.1869 25.4346C68.9625 25.1964 68.8503 24.8477 68.8503 24.3885C68.8503 24.1054 68.9004 23.8603 69.0005 23.6532C69.1006 23.4426 69.2404 23.282 69.42 23.1716C69.5995 23.0611 69.8049 23.0058 70.0362 23.0058C70.3607 23.0058 70.6162 23.1025 70.8026 23.2958C70.9891 23.4892 71.0823 23.7567 71.0823 24.0985C71.0823 24.2332 71.0702 24.3661 71.046 24.4973H69.3319C69.3423 25.1083 69.6392 25.4139 70.2226 25.4139C70.4747 25.4139 70.7215 25.3586 70.9632 25.2482V25.6158ZM70.0362 23.3632C69.836 23.3632 69.672 23.4339 69.5442 23.5755C69.42 23.717 69.3492 23.9086 69.3319 24.1503H70.6317C70.6352 24.133 70.6369 24.1158 70.6369 24.0985C70.6369 24.0813 70.6369 24.064 70.6369 24.0467C70.6369 23.8327 70.5834 23.6652 70.4764 23.5444C70.3728 23.4236 70.2261 23.3632 70.0362 23.3632ZM71.5558 26.5583C71.6594 26.4271 71.7422 26.2891 71.8044 26.1441C71.87 25.9991 71.9062 25.861 71.9131 25.7298C71.8441 25.7125 71.7906 25.6763 71.7526 25.621C71.7146 25.5658 71.6956 25.5002 71.6956 25.4242C71.6956 25.331 71.725 25.2551 71.7837 25.1964C71.8423 25.1377 71.9183 25.1083 72.0115 25.1083C72.1082 25.1083 72.1841 25.1446 72.2394 25.2171C72.2981 25.2861 72.3274 25.3811 72.3274 25.5019C72.3274 25.6918 72.2653 25.8972 72.141 26.1182C72.0201 26.3391 71.8717 26.5152 71.6956 26.6464L71.5558 26.5583ZM76.7944 25.7142L75.0388 22.923V25.7142H74.5572V22.0892H75.0181L76.7736 24.8805V22.0892H77.2552V25.7142H76.7944ZM78.406 25.7401C78.3128 25.7401 78.2369 25.7108 78.1782 25.6521C78.1195 25.5934 78.0901 25.5174 78.0901 25.4242C78.0901 25.331 78.1195 25.2551 78.1782 25.1964C78.2369 25.1377 78.3128 25.1083 78.406 25.1083C78.4992 25.1083 78.5752 25.1377 78.6339 25.1964C78.6926 25.2551 78.7219 25.331 78.7219 25.4242C78.7219 25.5174 78.6926 25.5934 78.6339 25.6521C78.5752 25.7108 78.4992 25.7401 78.406 25.7401ZM81.8853 25.7142L81.5849 24.8183H80.0987L79.8035 25.7142H79.2856L80.544 22.0892H81.1396L82.398 25.7142H81.8853ZM80.223 24.4351H81.4555L80.834 22.5657L80.223 24.4351ZM83.2809 25.7401C83.1877 25.7401 83.1118 25.7108 83.0531 25.6521C82.9944 25.5934 82.9651 25.5174 82.9651 25.4242C82.9651 25.331 82.9944 25.2551 83.0531 25.1964C83.1118 25.1377 83.1877 25.1083 83.2809 25.1083C83.3742 25.1083 83.4501 25.1377 83.5088 25.1964C83.5675 25.2551 83.5968 25.331 83.5968 25.4242C83.5968 25.5174 83.5675 25.5934 83.5088 25.6521C83.4501 25.7108 83.3742 25.7401 83.2809 25.7401ZM84.097 26.5583C84.2006 26.4271 84.2834 26.2891 84.3456 26.1441C84.4112 25.9991 84.4474 25.861 84.4543 25.7298C84.3853 25.7125 84.3318 25.6763 84.2938 25.621C84.2558 25.5658 84.2368 25.5002 84.2368 25.4242C84.2368 25.331 84.2662 25.2551 84.3249 25.1964C84.3836 25.1377 84.4595 25.1083 84.5527 25.1083C84.6494 25.1083 84.7253 25.1446 84.7806 25.2171C84.8393 25.2861 84.8686 25.3811 84.8686 25.5019C84.8686 25.6918 84.8065 25.8972 84.6822 26.1182C84.5614 26.3391 84.4129 26.5152 84.2368 26.6464L84.097 26.5583ZM88.6675 25.3983L87.6577 22.7987L87.4609 25.7142H86.9845L87.2693 22.0892H87.8338L88.8747 24.7717L89.9156 22.0892H90.48L90.7649 25.7142H90.2833L90.0813 22.7987L89.0767 25.3983H88.6675ZM93.5678 25.6158C93.3296 25.7332 93.0638 25.7919 92.7703 25.7919C92.3422 25.7919 92.016 25.6728 91.7916 25.4346C91.5672 25.1964 91.4549 24.8477 91.4549 24.3885C91.4549 24.1054 91.505 23.8603 91.6051 23.6532C91.7052 23.4426 91.8451 23.282 92.0246 23.1716C92.2041 23.0611 92.4095 23.0058 92.6408 23.0058C92.9654 23.0058 93.2208 23.1025 93.4073 23.2958C93.5937 23.4892 93.6869 23.7567 93.6869 24.0985C93.6869 24.2332 93.6748 24.3661 93.6507 24.4973H91.9366C91.9469 25.1083 92.2438 25.4139 92.8273 25.4139C93.0793 25.4139 93.3261 25.3586 93.5678 25.2482V25.6158ZM92.6408 23.3632C92.4406 23.3632 92.2766 23.4339 92.1489 23.5755C92.0246 23.717 91.9538 23.9086 91.9366 24.1503H93.2364C93.2398 24.133 93.2416 24.1158 93.2416 24.0985C93.2416 24.0813 93.2416 24.064 93.2416 24.0467C93.2416 23.8327 93.188 23.6652 93.081 23.5444C92.9774 23.4236 92.8307 23.3632 92.6408 23.3632ZM97.5317 25.7142V23.8862C97.5317 23.5548 97.3711 23.3891 97.0501 23.3891C96.8567 23.3891 96.653 23.4529 96.439 23.5807C96.4563 23.6566 96.4649 23.7326 96.4649 23.8085V25.7142H95.9781V23.8862C95.9781 23.5548 95.8176 23.3891 95.4965 23.3891C95.3066 23.3891 95.1116 23.4495 94.9113 23.5703V25.7142H94.4245V23.1146L94.8181 23.0732L94.8492 23.2544C95.115 23.0887 95.3757 23.0058 95.6311 23.0058C95.928 23.0058 96.1524 23.1008 96.3043 23.2907C96.6151 23.1008 96.9085 23.0058 97.1847 23.0058C97.4436 23.0058 97.6473 23.0766 97.7958 23.2182C97.9442 23.3597 98.0185 23.5565 98.0185 23.8085V25.7142H97.5317ZM99.3641 23.213C99.623 23.0749 99.8664 23.0058 100.094 23.0058C100.433 23.0058 100.697 23.1267 100.887 23.3683C101.08 23.6066 101.177 23.9363 101.177 24.3574C101.177 24.8201 101.059 25.1757 100.824 25.4242C100.59 25.6694 100.255 25.7919 99.8198 25.7919C99.5091 25.7919 99.1949 25.747 98.8773 25.6573V21.8251L99.3641 21.7682V23.213ZM99.9803 23.3891C99.8871 23.3891 99.7835 23.4063 99.6696 23.4408C99.5591 23.4719 99.4573 23.5151 99.3641 23.5703V25.3517C99.5091 25.3932 99.6627 25.4139 99.825 25.4139C100.108 25.4139 100.319 25.3276 100.457 25.1549C100.598 24.9823 100.669 24.7199 100.669 24.3678C100.669 24.0467 100.61 23.8033 100.493 23.6376C100.379 23.4719 100.208 23.3891 99.9803 23.3891ZM103.872 25.6158C103.633 25.7332 103.367 25.7919 103.074 25.7919C102.646 25.7919 102.32 25.6728 102.095 25.4346C101.871 25.1964 101.759 24.8477 101.759 24.3885C101.759 24.1054 101.809 23.8603 101.909 23.6532C102.009 23.4426 102.149 23.282 102.328 23.1716C102.508 23.0611 102.713 23.0058 102.945 23.0058C103.269 23.0058 103.525 23.1025 103.711 23.2958C103.897 23.4892 103.991 23.7567 103.991 24.0985C103.991 24.2332 103.979 24.3661 103.954 24.4973H102.24C102.251 25.1083 102.548 25.4139 103.131 25.4139C103.383 25.4139 103.63 25.3586 103.872 25.2482V25.6158ZM102.945 23.3632C102.744 23.3632 102.58 23.4339 102.453 23.5755C102.328 23.717 102.258 23.9086 102.24 24.1503H103.54C103.544 24.133 103.545 24.1158 103.545 24.0985C103.545 24.0813 103.545 24.064 103.545 24.0467C103.545 23.8327 103.492 23.6652 103.385 23.5444C103.281 23.4236 103.134 23.3632 102.945 23.3632ZM104.728 25.7142V23.1146L105.122 23.0732L105.163 23.3114C105.391 23.118 105.634 23.0214 105.893 23.0214C105.973 23.0214 106.052 23.0335 106.132 23.0576V23.4564C106.049 23.4357 105.964 23.4253 105.878 23.4253C105.629 23.4253 105.408 23.503 105.215 23.6583V25.7142H104.728ZM108.189 25.7142V22.0892H110.39V22.5035H108.691V23.7464H110.172V24.1607H108.691V25.7142H108.189ZM111.079 25.7142V22.1669C111.459 22.091 111.806 22.053 112.12 22.053C112.676 22.053 113.104 22.2135 113.404 22.5346C113.708 22.8522 113.86 23.301 113.86 23.881C113.86 24.4748 113.708 24.9288 113.404 25.243C113.1 25.5572 112.662 25.7142 112.089 25.7142H111.079ZM112.089 25.2999C112.503 25.2999 112.812 25.1843 113.016 24.953C113.223 24.7182 113.326 24.3644 113.326 23.8914C113.326 23.408 113.226 23.0507 113.026 22.8194C112.826 22.5847 112.52 22.4673 112.109 22.4673C111.944 22.4673 111.768 22.4828 111.581 22.5139V25.2999H112.089ZM114.712 25.7142V22.0892H115.215V25.7142H114.712ZM118.562 25.5641C118.269 25.716 117.946 25.7919 117.594 25.7919C117.11 25.7919 116.736 25.6262 116.47 25.2948C116.204 24.9633 116.071 24.499 116.071 23.9017C116.071 23.3079 116.204 22.8453 116.47 22.5139C116.739 22.179 117.114 22.0116 117.594 22.0116C117.928 22.0116 118.246 22.0875 118.546 22.2394V22.6485C118.388 22.5691 118.241 22.5139 118.106 22.4828C117.972 22.4483 117.828 22.431 117.676 22.431C116.965 22.431 116.61 22.9213 116.61 23.9017C116.61 24.8822 116.965 25.3724 117.676 25.3724C117.832 25.3724 117.979 25.3552 118.117 25.3207C118.258 25.2861 118.407 25.2309 118.562 25.1549V25.5641Z" fill="white"/>
</svg>
