<svg width="941" height="30" viewBox="0 0 941 30" fill="none" xmlns="http://www.w3.org/2000/svg">
<path d="M930.098 29.336V10.26L932.986 9.956L933.29 11.704C934.962 10.2853 936.748 9.576 938.648 9.576C939.23 9.576 939.813 9.66466 940.396 9.842V12.768C939.788 12.616 939.167 12.54 938.534 12.54C936.71 12.54 935.088 13.11 933.67 14.25V29.336H930.098Z" fill="white"/>
<path d="M916.695 27.094C918.468 27.094 919.748 26.5113 920.533 25.346C921.344 24.1807 921.749 22.2933 921.749 19.684C921.749 17.0747 921.344 15.1873 920.533 14.022C919.748 12.8567 918.468 12.274 916.695 12.274C914.922 12.274 913.63 12.8567 912.819 14.022C912.034 15.1873 911.641 17.0747 911.641 19.684C911.641 22.2933 912.034 24.1807 912.819 25.346C913.63 26.5113 914.922 27.094 916.695 27.094ZM916.695 29.906C913.807 29.906 911.616 29.0447 910.121 27.322C908.652 25.574 907.917 23.028 907.917 19.684C907.917 16.34 908.652 13.8067 910.121 12.084C911.616 10.336 913.807 9.462 916.695 9.462C919.583 9.462 921.762 10.336 923.231 12.084C924.726 13.8067 925.473 16.34 925.473 19.684C925.473 23.028 924.726 25.574 923.231 27.322C921.762 29.0447 919.583 29.906 916.695 29.906Z" fill="white"/>
<path d="M895.618 29.336L888.436 10.032H892.236L897.404 25.422L902.648 10.032H906.296L899.038 29.336H895.618Z" fill="white"/>
<path d="M882.654 29.412L882.426 28.082C880.298 29.298 878.233 29.906 876.232 29.906C874.23 29.906 872.635 29.374 871.444 28.31C870.279 27.2207 869.696 25.764 869.696 23.94C869.696 22.04 870.354 20.5707 871.672 19.532C872.989 18.468 874.839 17.936 877.22 17.936C878.613 17.936 880.222 18.1007 882.046 18.43V16.416C882.046 15.0227 881.641 13.984 880.83 13.3C880.045 12.616 878.828 12.274 877.182 12.274C875.256 12.274 873.154 12.7173 870.874 13.604V10.83C871.938 10.3993 873.091 10.07 874.332 9.842C875.573 9.58867 876.751 9.462 877.866 9.462C880.374 9.462 882.274 10.0447 883.566 11.21C884.883 12.3753 885.542 14.0853 885.542 16.34V29.108L882.654 29.412ZM877.144 27.132C877.878 27.132 878.702 27.0053 879.614 26.752C880.526 26.4987 881.337 26.1693 882.046 25.764V20.9C880.855 20.596 879.449 20.444 877.828 20.444C876.308 20.444 875.18 20.7353 874.446 21.318C873.736 21.8753 873.382 22.724 873.382 23.864C873.382 26.0427 874.636 27.132 877.144 27.132Z" fill="white"/>
<path d="M848.535 25.08C851.119 26.3213 853.677 26.942 856.211 26.942C858.237 26.942 859.808 26.5113 860.923 25.65C862.037 24.7887 862.595 23.56 862.595 21.964C862.595 20.7987 862.24 19.8487 861.531 19.114C860.821 18.3793 859.631 17.746 857.959 17.214L855.451 16.416C853.196 15.7067 851.562 14.82 850.549 13.756C849.561 12.6667 849.067 11.2987 849.067 9.652C849.067 7.372 849.915 5.56067 851.613 4.218C853.31 2.85 855.59 2.166 858.453 2.166C860.834 2.166 863.127 2.66 865.331 3.648V6.574C863 5.61133 860.821 5.13 858.795 5.13C856.971 5.13 855.527 5.52267 854.463 6.308C853.424 7.068 852.905 8.11933 852.905 9.462C852.905 10.45 853.196 11.2353 853.779 11.818C854.387 12.4007 855.425 12.9327 856.895 13.414L859.403 14.212C861.911 15.0227 863.709 16.036 864.799 17.252C865.888 18.4427 866.433 20.0007 866.433 21.926C866.433 24.434 865.559 26.3973 863.811 27.816C862.063 29.2093 859.643 29.906 856.553 29.906C853.741 29.906 851.245 29.374 849.067 28.31L848.535 25.08Z" fill="white"/>
<path d="M818.992 29.336V0.797997L822.564 0.379997V11.02C824.515 9.98133 826.428 9.462 828.302 9.462C830.405 9.462 832.026 10.0193 833.166 11.134C834.332 12.2233 834.914 13.7813 834.914 15.808V29.336H831.342V16.34C831.342 13.6293 830 12.274 827.314 12.274C826.605 12.274 825.807 12.4007 824.92 12.654C824.059 12.882 823.274 13.1987 822.564 13.604V29.336H818.992Z" fill="white"/>
<path d="M809.595 12.616V23.712C809.595 24.852 809.848 25.7007 810.355 26.258C810.861 26.79 811.634 27.056 812.673 27.056C813.458 27.056 814.294 26.9167 815.181 26.638V29.184C814.117 29.5893 813.015 29.792 811.875 29.792C809.949 29.792 808.493 29.2853 807.505 28.272C806.517 27.2587 806.023 25.7767 806.023 23.826V12.616H803.135V10.184L806.175 10.07L806.441 5.244L809.595 4.902V10.032H814.991V12.616H809.595Z" fill="white"/>
<path d="M795.873 29.336V10.336L799.445 9.918V29.336H795.873ZM797.659 6.08C796.925 6.08 796.342 5.89 795.911 5.51C795.506 5.10466 795.303 4.56 795.303 3.876C795.303 3.192 795.506 2.66 795.911 2.28C796.342 1.87466 796.925 1.672 797.659 1.672C798.394 1.672 798.964 1.87466 799.369 2.28C799.8 2.66 800.015 3.192 800.015 3.876C800.015 4.56 799.8 5.10466 799.369 5.51C798.964 5.89 798.394 6.08 797.659 6.08Z" fill="white"/>
<path d="M783.437 29.336L778.915 13.794L774.545 29.336H771.277L765.235 10.032H768.845L772.987 25.004L777.091 10.032H780.853L785.033 25.004L789.137 10.032H792.633L786.705 29.336H783.437Z" fill="white"/>
<path d="M749.145 29.336V16.34C749.145 13.6293 747.802 12.274 745.117 12.274C744.408 12.274 743.61 12.4007 742.723 12.654C741.862 12.882 741.076 13.1987 740.367 13.604V29.336H736.795V10.26L739.683 9.956L739.911 11.286C741.988 10.07 744.053 9.462 746.105 9.462C748.208 9.462 749.829 10.0193 750.969 11.134C752.134 12.2233 752.717 13.7813 752.717 15.808V29.336H749.145Z" fill="white"/>
<path d="M728.149 29.412L727.921 28.082C725.844 29.298 723.779 29.906 721.727 29.906C719.675 29.906 718.079 29.3487 716.939 28.234C715.799 27.1193 715.229 25.5613 715.229 23.56V10.032H718.801V23.028C718.801 25.7387 720.106 27.094 722.715 27.094C723.45 27.094 724.248 26.98 725.109 26.752C725.97 26.4987 726.756 26.1693 727.465 25.764V10.032H731.037V29.108L728.149 29.412Z" fill="white"/>
<path d="M703.007 29.336V12.616H700.119V10.184L703.007 10.07V6.308C703.007 4.30667 703.527 2.76133 704.565 1.672C705.604 0.557333 707.086 0 709.011 0C710.126 0 711.266 0.202666 712.431 0.607999V3.154C711.392 2.87533 710.506 2.736 709.771 2.736C707.643 2.736 706.579 3.86333 706.579 6.118V10.032H711.481V12.616H706.579V29.336H703.007Z" fill="white"/>
<path d="M686.918 0.380005V29.108L684.03 29.412L683.802 28.082C681.801 29.298 679.863 29.906 677.988 29.906C675.505 29.906 673.555 29.032 672.136 27.284C670.743 25.5107 670.046 23.0787 670.046 19.988C670.046 16.644 670.869 14.06 672.516 12.236C674.163 10.3867 676.481 9.46201 679.47 9.46201C680.914 9.46201 682.206 9.63934 683.346 9.99401V0.798004L686.918 0.380005ZM678.824 27.094C679.508 27.094 680.255 26.98 681.066 26.752C681.902 26.4987 682.662 26.1693 683.346 25.764V12.692C682.282 12.388 681.155 12.236 679.964 12.236C677.887 12.236 676.329 12.8693 675.29 14.136C674.277 15.4027 673.77 17.328 673.77 19.912C673.77 22.268 674.188 24.054 675.024 25.27C675.885 26.486 677.152 27.094 678.824 27.094Z" fill="white"/>
<path d="M662.049 29.336V16.34C662.049 13.6293 660.707 12.274 658.021 12.274C657.312 12.274 656.514 12.4007 655.627 12.654C654.766 12.882 653.981 13.1987 653.271 13.604V29.336H649.699V10.26L652.587 9.956L652.815 11.286C654.893 10.07 656.957 9.462 659.009 9.462C661.112 9.462 662.733 10.0193 663.873 11.134C665.039 12.2233 665.621 13.7813 665.621 15.808V29.336H662.049Z" fill="white"/>
<path d="M641.257 29.412L641.029 28.082C638.901 29.298 636.837 29.906 634.835 29.906C632.834 29.906 631.238 29.374 630.047 28.31C628.882 27.2207 628.299 25.764 628.299 23.94C628.299 22.04 628.958 20.5707 630.275 19.532C631.593 18.468 633.442 17.936 635.823 17.936C637.217 17.936 638.825 18.1007 640.649 18.43V16.416C640.649 15.0227 640.244 13.984 639.433 13.3C638.648 12.616 637.432 12.274 635.785 12.274C633.86 12.274 631.757 12.7173 629.477 13.604V10.83C630.541 10.3993 631.694 10.07 632.935 9.842C634.177 9.58867 635.355 9.462 636.469 9.462C638.977 9.462 640.877 10.0447 642.169 11.21C643.487 12.3753 644.145 14.0853 644.145 16.34V29.108L641.257 29.412ZM635.747 27.132C636.482 27.132 637.305 27.0053 638.217 26.752C639.129 26.4987 639.94 26.1693 640.649 25.764V20.9C639.459 20.596 638.053 20.444 636.431 20.444C634.911 20.444 633.784 20.7353 633.049 21.318C632.34 21.8753 631.985 22.724 631.985 23.864C631.985 26.0427 633.239 27.132 635.747 27.132Z" fill="white"/>
<path d="M614.072 0.380005V29.108L611.184 29.412L610.956 28.082C608.955 29.298 607.017 29.906 605.142 29.906C602.66 29.906 600.709 29.032 599.29 27.284C597.897 25.5107 597.2 23.0787 597.2 19.988C597.2 16.644 598.024 14.06 599.67 12.236C601.317 10.3867 603.635 9.46201 606.624 9.46201C608.068 9.46201 609.36 9.63934 610.5 9.99401V0.798004L614.072 0.380005ZM605.978 27.094C606.662 27.094 607.41 26.98 608.22 26.752C609.056 26.4987 609.816 26.1693 610.5 25.764V12.692C609.436 12.388 608.309 12.236 607.118 12.236C605.041 12.236 603.483 12.8693 602.444 14.136C601.431 15.4027 600.924 17.328 600.924 19.912C600.924 22.268 601.342 24.054 602.178 25.27C603.04 26.486 604.306 27.094 605.978 27.094Z" fill="white"/>
<path d="M584.937 27.094C586.711 27.094 587.99 26.5113 588.775 25.346C589.586 24.1806 589.991 22.2933 589.991 19.684C589.991 17.0746 589.586 15.1873 588.775 14.022C587.99 12.8566 586.711 12.274 584.937 12.274C583.164 12.274 581.872 12.8566 581.061 14.022C580.276 15.1873 579.883 17.0746 579.883 19.684C579.883 22.2933 580.276 24.1806 581.061 25.346C581.872 26.5113 583.164 27.094 584.937 27.094ZM584.937 29.906C582.049 29.906 579.858 29.0446 578.363 27.322C576.894 25.574 576.159 23.028 576.159 19.684C576.159 16.34 576.894 13.8066 578.363 12.084C579.858 10.336 582.049 9.46198 584.937 9.46198C587.825 9.46198 590.004 10.336 591.473 12.084C592.968 13.8066 593.715 16.34 593.715 19.684C593.715 23.028 592.968 25.574 591.473 27.322C590.004 29.0446 587.825 29.906 584.937 29.906Z" fill="white"/>
<path d="M563.896 27.094C565.67 27.094 566.949 26.5113 567.734 25.346C568.545 24.1806 568.95 22.2933 568.95 19.684C568.95 17.0746 568.545 15.1873 567.734 14.022C566.949 12.8566 565.67 12.274 563.896 12.274C562.123 12.274 560.831 12.8566 560.02 14.022C559.235 15.1873 558.842 17.0746 558.842 19.684C558.842 22.2933 559.235 24.1806 560.02 25.346C560.831 26.5113 562.123 27.094 563.896 27.094ZM563.896 29.906C561.008 29.906 558.817 29.0446 557.322 27.322C555.853 25.574 555.118 23.028 555.118 19.684C555.118 16.34 555.853 13.8066 557.322 12.084C558.817 10.336 561.008 9.46198 563.896 9.46198C566.784 9.46198 568.963 10.336 570.432 12.084C571.927 13.8066 572.674 16.34 572.674 19.684C572.674 23.028 571.927 25.574 570.432 27.322C568.963 29.0446 566.784 29.906 563.896 29.906Z" fill="white"/>
<path d="M544.179 29.336V12.616H541.291V10.184L544.179 10.07V6.308C544.179 4.30667 544.698 2.76133 545.737 1.672C546.776 0.557333 548.258 0 550.183 0C551.298 0 552.438 0.202666 553.603 0.607999V3.154C552.564 2.87533 551.678 2.736 550.943 2.736C548.815 2.736 547.751 3.86333 547.751 6.118V10.032H552.653V12.616H547.751V29.336H544.179Z" fill="white"/>
<path d="M524.745 29.336V16.34C524.745 13.6293 523.402 12.274 520.717 12.274C520.007 12.274 519.209 12.4007 518.323 12.654C517.461 12.882 516.676 13.1987 515.967 13.604V29.336H512.395V10.26L515.283 9.956L515.511 11.286C517.588 10.07 519.653 9.462 521.705 9.462C523.807 9.462 525.429 10.0193 526.569 11.134C527.734 12.2233 528.317 13.7813 528.317 15.808V29.336H524.745Z" fill="white"/>
<path d="M498.992 27.094C500.765 27.094 502.045 26.5113 502.83 25.346C503.641 24.1806 504.046 22.2933 504.046 19.684C504.046 17.0746 503.641 15.1873 502.83 14.022C502.045 12.8566 500.765 12.274 498.992 12.274C497.219 12.274 495.927 12.8566 495.116 14.022C494.331 15.1873 493.938 17.0746 493.938 19.684C493.938 22.2933 494.331 24.1806 495.116 25.346C495.927 26.5113 497.219 27.094 498.992 27.094ZM498.992 29.906C496.104 29.906 493.913 29.0446 492.418 27.322C490.949 25.574 490.214 23.028 490.214 19.684C490.214 16.34 490.949 13.8066 492.418 12.084C493.913 10.336 496.104 9.46198 498.992 9.46198C501.88 9.46198 504.059 10.336 505.528 12.084C507.023 13.8066 507.77 16.34 507.77 19.684C507.77 23.028 507.023 25.574 505.528 27.322C504.059 29.0446 501.88 29.906 498.992 29.906Z" fill="white"/>
<path d="M462.928 29.336V0.797997L466.5 0.379997V18.316L474.442 10.032H478.546L469.92 19L478.964 29.336H474.632L466.5 19.874V29.336H462.928Z" fill="white"/>
<path d="M458.53 28.652C456.782 29.488 454.844 29.906 452.716 29.906C449.929 29.906 447.776 29.0193 446.256 27.246C444.736 25.4726 443.976 22.9646 443.976 19.722C443.976 16.454 444.736 13.9333 446.256 12.16C447.801 10.3613 449.967 9.46198 452.754 9.46198C454.704 9.46198 456.592 9.87998 458.416 10.716V13.452C456.668 12.692 454.996 12.312 453.4 12.312C451.525 12.312 450.106 12.9326 449.144 14.174C448.181 15.4153 447.7 17.252 447.7 19.684C447.7 22.0906 448.181 23.9273 449.144 25.194C450.106 26.4353 451.525 27.056 453.4 27.056C454.996 27.056 456.706 26.676 458.53 25.916V28.652Z" fill="white"/>
<path d="M436.673 29.412L436.445 28.082C434.317 29.298 432.253 29.906 430.251 29.906C428.25 29.906 426.654 29.374 425.463 28.31C424.298 27.2207 423.715 25.764 423.715 23.94C423.715 22.04 424.374 20.5707 425.691 19.532C427.009 18.468 428.858 17.936 431.239 17.936C432.633 17.936 434.241 18.1007 436.065 18.43V16.416C436.065 15.0227 435.66 13.984 434.849 13.3C434.064 12.616 432.848 12.274 431.201 12.274C429.276 12.274 427.173 12.7173 424.893 13.604V10.83C425.957 10.3993 427.11 10.07 428.351 9.842C429.593 9.58867 430.771 9.462 431.885 9.462C434.393 9.462 436.293 10.0447 437.585 11.21C438.903 12.3753 439.561 14.0853 439.561 16.34V29.108L436.673 29.412ZM431.163 27.132C431.898 27.132 432.721 27.0053 433.633 26.752C434.545 26.4987 435.356 26.1693 436.065 25.764V20.9C434.875 20.596 433.469 20.444 431.847 20.444C430.327 20.444 429.2 20.7353 428.465 21.318C427.756 21.8753 427.401 22.724 427.401 23.864C427.401 26.0427 428.655 27.132 431.163 27.132Z" fill="white"/>
<path d="M406.828 10.982C408.728 9.96867 410.514 9.462 412.186 9.462C414.669 9.462 416.607 10.3487 418 12.122C419.419 13.87 420.128 16.2893 420.128 19.38C420.128 22.7747 419.267 25.384 417.544 27.208C415.821 29.0067 413.364 29.906 410.172 29.906C407.892 29.906 405.587 29.5767 403.256 28.918V0.797997L406.828 0.379997V10.982ZM411.35 12.274C410.666 12.274 409.906 12.4007 409.07 12.654C408.259 12.882 407.512 13.1987 406.828 13.604V26.676C407.892 26.98 409.019 27.132 410.21 27.132C412.287 27.132 413.833 26.4987 414.846 25.232C415.885 23.9653 416.404 22.04 416.404 19.456C416.404 17.1 415.973 15.314 415.112 14.098C414.276 12.882 413.022 12.274 411.35 12.274Z" fill="white"/>
<path d="M372.27 29.336V0.797997L375.842 0.379997V11.02C377.792 9.98133 379.705 9.462 381.58 9.462C383.682 9.462 385.304 10.0193 386.444 11.134C387.609 12.2233 388.192 13.7813 388.192 15.808V29.336H384.62V16.34C384.62 13.6293 383.277 12.274 380.592 12.274C379.882 12.274 379.084 12.4007 378.198 12.654C377.336 12.882 376.551 13.1987 375.842 13.604V29.336H372.27Z" fill="white"/>
<path d="M353.646 25.802C355.673 26.6887 357.7 27.132 359.726 27.132C361.196 27.132 362.31 26.8533 363.07 26.296C363.856 25.7387 364.248 24.9407 364.248 23.902C364.248 23.218 364.033 22.6607 363.602 22.23C363.172 21.7993 362.462 21.432 361.474 21.128L358.89 20.33C357.168 19.798 355.914 19.114 355.128 18.278C354.343 17.442 353.95 16.378 353.95 15.086C353.95 13.3633 354.622 11.9953 355.964 10.982C357.307 9.96867 359.118 9.462 361.398 9.462C363.324 9.462 365.16 9.842 366.908 10.602V13.338C364.983 12.6033 363.222 12.236 361.626 12.236C360.334 12.236 359.321 12.4893 358.586 12.996C357.877 13.4773 357.522 14.136 357.522 14.972C357.522 15.58 357.712 16.0613 358.092 16.416C358.472 16.7453 359.182 17.0747 360.22 17.404L363.108 18.278C366.25 19.2153 367.82 21.0773 367.82 23.864C367.82 25.8147 367.149 27.3093 365.806 28.348C364.464 29.3867 362.526 29.906 359.992 29.906C357.636 29.906 355.66 29.5133 354.064 28.728L353.646 25.802Z" fill="white"/>
<path d="M346.535 29.412L346.307 28.082C344.179 29.298 342.114 29.906 340.113 29.906C338.111 29.906 336.515 29.374 335.325 28.31C334.159 27.2207 333.577 25.764 333.577 23.94C333.577 22.04 334.235 20.5707 335.553 19.532C336.87 18.468 338.719 17.936 341.101 17.936C342.494 17.936 344.103 18.1007 345.927 18.43V16.416C345.927 15.0227 345.521 13.984 344.711 13.3C343.925 12.616 342.709 12.274 341.063 12.274C339.137 12.274 337.035 12.7173 334.755 13.604V10.83C335.819 10.3993 336.971 10.07 338.213 9.842C339.454 9.58867 340.632 9.462 341.747 9.462C344.255 9.462 346.155 10.0447 347.447 11.21C348.764 12.3753 349.423 14.0853 349.423 16.34V29.108L346.535 29.412ZM341.025 27.132C341.759 27.132 342.583 27.0053 343.495 26.752C344.407 26.4987 345.217 26.1693 345.927 25.764V20.9C344.736 20.596 343.33 20.444 341.709 20.444C340.189 20.444 339.061 20.7353 338.327 21.318C337.617 21.8753 337.263 22.724 337.263 23.864C337.263 26.0427 338.517 27.132 341.025 27.132Z" fill="white"/>
<path d="M330.242 28.652C328.494 29.488 326.556 29.906 324.428 29.906C321.642 29.906 319.489 29.0193 317.969 27.246C316.449 25.4726 315.688 22.9646 315.688 19.722C315.688 16.454 316.449 13.9333 317.969 12.16C319.514 10.3613 321.68 9.46198 324.466 9.46198C326.417 9.46198 328.304 9.87998 330.128 10.716V13.452C328.38 12.692 326.708 12.312 325.112 12.312C323.238 12.312 321.819 12.9326 320.857 14.174C319.894 15.4153 319.413 17.252 319.413 19.684C319.413 22.0906 319.894 23.9273 320.857 25.194C321.819 26.4353 323.238 27.056 325.112 27.056C326.708 27.056 328.418 26.676 330.242 25.916V28.652Z" fill="white"/>
<path d="M278.529 29.336L292.171 3.30599H295.325L281.683 29.336H278.529ZM277.009 17.556C278.124 17.556 278.934 17.0747 279.441 16.112C279.948 15.124 280.201 13.5407 280.201 11.362C280.201 9.18333 279.948 7.61266 279.441 6.65C278.934 5.662 278.124 5.168 277.009 5.168C275.894 5.168 275.084 5.662 274.577 6.65C274.07 7.61266 273.817 9.18333 273.817 11.362C273.817 13.5407 274.07 15.124 274.577 16.112C275.084 17.0747 275.894 17.556 277.009 17.556ZM277.009 19.798C274.957 19.798 273.386 19.076 272.297 17.632C271.208 16.1627 270.663 14.0727 270.663 11.362C270.663 8.65133 271.208 6.57399 272.297 5.13C273.386 3.66066 274.957 2.92599 277.009 2.92599C279.061 2.92599 280.632 3.66066 281.721 5.13C282.81 6.57399 283.355 8.65133 283.355 11.362C283.355 14.0727 282.81 16.1627 281.721 17.632C280.632 19.076 279.061 19.798 277.009 19.798ZM296.845 27.474C297.96 27.474 298.77 26.9927 299.277 26.03C299.784 25.042 300.037 23.4587 300.037 21.28C300.037 19.1013 299.784 17.5307 299.277 16.568C298.77 15.58 297.96 15.086 296.845 15.086C295.73 15.086 294.92 15.58 294.413 16.568C293.906 17.5307 293.653 19.1013 293.653 21.28C293.653 23.4587 293.906 25.042 294.413 26.03C294.92 26.9927 295.73 27.474 296.845 27.474ZM296.845 29.716C294.793 29.716 293.222 28.994 292.133 27.55C291.044 26.0807 290.499 23.9907 290.499 21.28C290.499 18.5693 291.044 16.492 292.133 15.048C293.222 13.5787 294.793 12.844 296.845 12.844C298.897 12.844 300.468 13.5787 301.557 15.048C302.646 16.492 303.191 18.5693 303.191 21.28C303.191 23.9907 302.646 26.0807 301.557 27.55C300.468 28.994 298.897 29.716 296.845 29.716Z" fill="white"/>
<path d="M250.608 25.422C252.913 26.5113 255.181 27.056 257.41 27.056C259.386 27.056 260.944 26.6127 262.084 25.726C263.249 24.814 263.832 23.598 263.832 22.078C263.832 20.5833 263.313 19.4053 262.274 18.544C261.235 17.6573 259.817 17.214 258.018 17.214H255.548V14.364H257.828C259.449 14.364 260.729 13.9713 261.666 13.186C262.603 12.4007 263.072 11.324 263.072 9.95599C263.072 8.61333 262.578 7.54933 261.59 6.76399C260.602 5.97866 259.247 5.58599 257.524 5.58599C255.548 5.58599 253.559 5.99133 251.558 6.80199V4.02799C253.382 3.16666 255.523 2.73599 257.98 2.73599C260.615 2.73599 262.743 3.38199 264.364 4.67399C265.985 5.96599 266.796 7.65066 266.796 9.72799C266.796 11.1213 266.403 12.3373 265.618 13.376C264.833 14.4147 263.718 15.1873 262.274 15.694C263.971 16.1753 265.276 16.986 266.188 18.126C267.1 19.266 267.556 20.6467 267.556 22.268C267.556 23.8133 267.138 25.1687 266.302 26.334C265.491 27.474 264.351 28.3607 262.882 28.994C261.438 29.602 259.779 29.906 257.904 29.906C256.637 29.906 255.396 29.7793 254.18 29.526C252.964 29.2727 251.925 28.9307 251.064 28.5L250.608 25.422Z" fill="white"/>
<path d="M237.635 0.379997V29.108L234.747 29.412L234.519 28.082C232.517 29.298 230.579 29.906 228.705 29.906C226.222 29.906 224.271 29.032 222.853 27.284C221.459 25.5107 220.763 23.0787 220.763 19.988C220.763 16.644 221.586 14.06 223.233 12.236C224.879 10.3867 227.197 9.462 230.187 9.462C231.631 9.462 232.923 9.63933 234.063 9.994V0.797997L237.635 0.379997ZM229.541 27.094C230.225 27.094 230.972 26.98 231.783 26.752C232.619 26.4987 233.379 26.1693 234.063 25.764V12.692C232.999 12.388 231.871 12.236 230.681 12.236C228.603 12.236 227.045 12.8693 226.007 14.136C224.993 15.4027 224.487 17.328 224.487 19.912C224.487 22.268 224.905 24.054 225.741 25.27C226.602 26.486 227.869 27.094 229.541 27.094Z" fill="white"/>
<path d="M216.376 28.614C214.628 29.4753 212.677 29.906 210.524 29.906C207.383 29.906 204.989 29.032 203.342 27.284C201.695 25.536 200.872 22.9773 200.872 19.608C200.872 17.5307 201.239 15.732 201.974 14.212C202.709 12.6667 203.735 11.4887 205.052 10.678C206.369 9.86733 207.877 9.462 209.574 9.462C211.955 9.462 213.83 10.1713 215.198 11.59C216.566 13.0087 217.25 14.972 217.25 17.48C217.25 18.468 217.161 19.4433 216.984 20.406H204.406C204.482 24.89 206.661 27.132 210.942 27.132C212.791 27.132 214.603 26.7267 216.376 25.916V28.614ZM209.574 12.084C208.105 12.084 206.901 12.6033 205.964 13.642C205.052 14.6807 204.533 16.0867 204.406 17.86H213.944C213.969 17.7333 213.982 17.6067 213.982 17.48C213.982 17.3533 213.982 17.2267 213.982 17.1C213.982 15.5293 213.589 14.3007 212.804 13.414C212.044 12.5273 210.967 12.084 209.574 12.084Z" fill="white"/>
<path d="M192.614 12.616V23.712C192.614 24.852 192.868 25.7007 193.374 26.258C193.881 26.79 194.654 27.056 195.692 27.056C196.478 27.056 197.314 26.9167 198.2 26.638V29.184C197.136 29.5893 196.034 29.792 194.894 29.792C192.969 29.792 191.512 29.2853 190.524 28.272C189.536 27.2587 189.042 25.7767 189.042 23.826V12.616H186.154V10.184L189.194 10.07L189.46 5.244L192.614 4.902V10.032H198.01V12.616H192.614Z" fill="white"/>
<path d="M178.893 29.336V10.336L182.465 9.918V29.336H178.893ZM180.679 6.08C179.944 6.08 179.361 5.89 178.931 5.51C178.525 5.10466 178.323 4.56 178.323 3.876C178.323 3.192 178.525 2.66 178.931 2.28C179.361 1.87466 179.944 1.672 180.679 1.672C181.413 1.672 181.983 1.87466 182.389 2.28C182.819 2.66 183.035 3.192 183.035 3.876C183.035 4.56 182.819 5.10466 182.389 5.51C181.983 5.89 181.413 6.08 180.679 6.08Z" fill="white"/>
<path d="M169.779 29.336V15.922C169.779 13.49 168.601 12.274 166.245 12.274C164.826 12.274 163.331 12.7427 161.761 13.68C161.887 14.2373 161.951 14.7947 161.951 15.352V29.336H158.379V15.922C158.379 13.49 157.201 12.274 154.845 12.274C153.451 12.274 152.02 12.7173 150.551 13.604V29.336H146.979V10.26L149.867 9.956L150.095 11.286C152.045 10.07 153.958 9.462 155.833 9.462C158.011 9.462 159.658 10.1587 160.773 11.552C163.053 10.1587 165.206 9.462 167.233 9.462C169.133 9.462 170.627 9.98133 171.717 11.02C172.806 12.0587 173.351 13.5027 173.351 15.352V29.336H169.779Z" fill="white"/>
<path d="M137.627 29.336V10.336L141.199 9.918V29.336H137.627ZM139.413 6.08C138.678 6.08 138.096 5.89 137.665 5.51C137.26 5.10466 137.057 4.56 137.057 3.876C137.057 3.192 137.26 2.66 137.665 2.28C138.096 1.87466 138.678 1.672 139.413 1.672C140.148 1.672 140.718 1.87466 141.123 2.28C141.554 2.66 141.769 3.192 141.769 3.876C141.769 4.56 141.554 5.10466 141.123 5.51C140.718 5.89 140.148 6.08 139.413 6.08Z" fill="white"/>
<path d="M128.275 29.336V0.797997L131.847 0.379997V29.336H128.275Z" fill="white"/>
<path d="M119.139 29.336V16.34C119.139 13.6293 117.796 12.274 115.111 12.274C114.402 12.274 113.604 12.4007 112.717 12.654C111.856 12.882 111.07 13.1987 110.361 13.604V29.336H106.789V10.26L109.677 9.956L109.905 11.286C111.982 10.07 114.047 9.462 116.099 9.462C118.202 9.462 119.823 10.0193 120.963 11.134C122.128 12.2233 122.711 13.7813 122.711 15.808V29.336H119.139Z" fill="white"/>
<path d="M98.1431 29.412L97.9151 28.082C95.8378 29.298 93.7731 29.906 91.7211 29.906C89.6691 29.906 88.0731 29.3487 86.9331 28.234C85.7931 27.1193 85.2231 25.5613 85.2231 23.56V10.032H88.7951V23.028C88.7951 25.7387 90.0998 27.094 92.7091 27.094C93.4438 27.094 94.2418 26.98 95.1031 26.752C95.9645 26.4987 96.7498 26.1693 97.4591 25.764V10.032H101.031V29.108L98.1431 29.412Z" fill="white"/>
<path d="M66.8148 29.336V16.34C66.8148 13.6293 65.4722 12.274 62.7868 12.274C62.0775 12.274 61.2795 12.4007 60.3928 12.654C59.5315 12.882 58.7462 13.1987 58.0368 13.604V29.336H54.4648V10.26L57.3528 9.956L57.5808 11.286C59.6582 10.07 61.7228 9.462 63.7748 9.462C65.8775 9.462 67.4988 10.0193 68.6388 11.134C69.8042 12.2233 70.3868 13.7813 70.3868 15.808V29.336H66.8148Z" fill="white"/>
<path d="M40.5859 29.336V10.26L43.4739 9.956L43.7779 11.704C45.4499 10.2853 47.2359 9.576 49.1359 9.576C49.7186 9.576 50.3013 9.66466 50.8839 9.842V12.768C50.2759 12.616 49.6553 12.54 49.0219 12.54C47.1979 12.54 45.5766 13.11 44.1579 14.25V29.336H40.5859Z" fill="white"/>
<path d="M32.144 29.412L31.916 28.082C29.788 29.298 27.7234 29.906 25.722 29.906C23.7207 29.906 22.1247 29.374 20.934 28.31C19.7687 27.2207 19.186 25.764 19.186 23.94C19.186 22.04 19.8447 20.5707 21.162 19.532C22.4794 18.468 24.3287 17.936 26.71 17.936C28.1034 17.936 29.712 18.1007 31.536 18.43V16.416C31.536 15.0227 31.1307 13.984 30.32 13.3C29.5347 12.616 28.3187 12.274 26.672 12.274C24.7467 12.274 22.644 12.7173 20.364 13.604V10.83C21.428 10.3993 22.5807 10.07 23.822 9.842C25.0634 9.58867 26.2414 9.462 27.356 9.462C29.864 9.462 31.764 10.0447 33.056 11.21C34.3734 12.3753 35.032 14.0853 35.032 16.34V29.108L32.144 29.412ZM26.634 27.132C27.3687 27.132 28.192 27.0053 29.104 26.752C30.016 26.4987 30.8267 26.1693 31.536 25.764V20.9C30.3454 20.596 28.9394 20.444 27.318 20.444C25.798 20.444 24.6707 20.7353 23.936 21.318C23.2267 21.8753 22.872 22.724 22.872 23.864C22.872 26.0427 24.126 27.132 26.634 27.132Z" fill="white"/>
<path d="M3.686 17.366V26.296H16.226V29.336H0V2.73599H16.15V5.77599H3.686V14.326H14.554V17.366H3.686Z" fill="white"/>
</svg>
