<svg width="260" height="24" viewBox="0 0 260 24" fill="none" xmlns="http://www.w3.org/2000/svg">
<g clip-path="url(#clip0_4924_6013)">
<path d="M4.40654 -14.4627V-8.89529H12.2246V-7H2.10851V-23.5838H12.1772V-21.6885H4.40654V-16.358H11.1822V-14.4627H4.40654ZM22.1487 -6.95262L22.0066 -7.78181C20.6799 -7.02369 19.3927 -6.64463 18.145 -6.64463C16.8972 -6.64463 15.9022 -6.97631 15.1599 -7.63966C14.4334 -8.3188 14.0701 -9.22696 14.0701 -10.3641C14.0701 -11.5487 14.4807 -12.4647 15.302 -13.1123C16.1233 -13.7756 17.2763 -14.1073 18.7609 -14.1073C19.6296 -14.1073 20.6325 -14.0047 21.7697 -13.7993V-15.055C21.7697 -15.9236 21.517 -16.5712 21.0116 -16.9976C20.522 -17.4241 19.7638 -17.6373 18.7372 -17.6373C17.5369 -17.6373 16.226 -17.3609 14.8045 -16.8081V-18.5376C15.4679 -18.8061 16.1865 -19.0114 16.9604 -19.1535C17.7343 -19.3115 18.4687 -19.3904 19.1637 -19.3904C20.7273 -19.3904 21.9118 -19.0272 22.7173 -18.3006C23.5386 -17.5741 23.9493 -16.508 23.9493 -15.1023V-7.14215L22.1487 -6.95262ZM18.7135 -8.37408C19.1716 -8.37408 19.6849 -8.45305 20.2535 -8.61099C20.822 -8.76893 21.3275 -8.97426 21.7697 -9.22696V-12.2594C21.0274 -12.4489 20.1508 -12.5437 19.14 -12.5437C18.1923 -12.5437 17.4895 -12.3621 17.0315 -11.9988C16.5892 -11.6513 16.3681 -11.1222 16.3681 -10.4115C16.3681 -9.05323 17.1499 -8.37408 18.7135 -8.37408ZM27.4119 -7V-18.8929L29.2124 -19.0824L29.4019 -17.9927C30.4443 -18.8771 31.5578 -19.3194 32.7424 -19.3194C33.1056 -19.3194 33.4689 -19.2641 33.8321 -19.1535V-17.3293C33.4531 -17.4241 33.0661 -17.4715 32.6713 -17.4715C31.5341 -17.4715 30.5233 -17.1161 29.6388 -16.4054V-7H27.4119ZM43.7643 -7V-15.1023C43.7643 -16.7923 42.9272 -17.6373 41.253 -17.6373C40.8108 -17.6373 40.3133 -17.5583 39.7605 -17.4004C39.2235 -17.2582 38.7339 -17.0608 38.2916 -16.8081V-7H36.0647V-18.8929L37.8652 -19.0824L38.0073 -18.2533C39.3024 -19.0114 40.5897 -19.3904 41.869 -19.3904C43.1799 -19.3904 44.1907 -19.043 44.9014 -18.348C45.628 -17.6689 45.9912 -16.6975 45.9912 -15.434V-7H43.7643ZM63.2959 -6.95262L63.1537 -7.78181C61.8586 -7.02369 60.5714 -6.64463 59.2921 -6.64463C58.0128 -6.64463 57.0177 -6.9921 56.307 -7.68704C55.5963 -8.38198 55.2409 -9.35331 55.2409 -10.601V-19.0351H57.4679V-10.9327C57.4679 -9.24275 58.2813 -8.39777 59.9081 -8.39777C60.3661 -8.39777 60.8636 -8.46885 61.4006 -8.61099C61.9376 -8.76893 62.4272 -8.97426 62.8694 -9.22696V-19.0351H65.0964V-7.14215L63.2959 -6.95262ZM76.3858 -7V-15.1023C76.3858 -16.7923 75.5487 -17.6373 73.8745 -17.6373C73.4323 -17.6373 72.9348 -17.5583 72.382 -17.4004C71.845 -17.2582 71.3554 -17.0608 70.9131 -16.8081V-7H68.6862V-18.8929L70.4867 -19.0824L70.6288 -18.2533C71.9239 -19.0114 73.2112 -19.3904 74.4905 -19.3904C75.8014 -19.3904 76.8122 -19.043 77.5229 -18.348C78.2495 -17.6689 78.6127 -16.6975 78.6127 -15.434V-7H76.3858ZM82.0818 -7V-24.792L84.3088 -25.0526V-7H82.0818ZM87.912 -7V-18.8455L90.139 -19.1061V-7H87.912ZM89.0255 -21.4989C88.5675 -21.4989 88.2042 -21.6174 87.9357 -21.8543C87.683 -22.107 87.5567 -22.4466 87.5567 -22.873C87.5567 -23.2995 87.683 -23.6311 87.9357 -23.868C88.2042 -24.1207 88.5675 -24.2471 89.0255 -24.2471C89.4835 -24.2471 89.8389 -24.1207 90.0916 -23.868C90.3601 -23.6311 90.4943 -23.2995 90.4943 -22.873C90.4943 -22.4466 90.3601 -22.107 90.0916 -21.8543C89.8389 -21.6174 89.4835 -21.4989 89.0255 -21.4989ZM107.957 -7V-15.3629C107.957 -16.8792 107.222 -17.6373 105.754 -17.6373C104.869 -17.6373 103.937 -17.3451 102.958 -16.7607C103.037 -16.4133 103.077 -16.0658 103.077 -15.7183V-7H100.85V-15.3629C100.85 -16.8792 100.115 -17.6373 98.6463 -17.6373C97.7776 -17.6373 96.8853 -17.3609 95.9692 -16.8081V-7H93.7422V-18.8929L95.5428 -19.0824L95.6849 -18.2533C96.9011 -19.0114 98.0935 -19.3904 99.2623 -19.3904C100.621 -19.3904 101.647 -18.9561 102.342 -18.0874C103.764 -18.9561 105.106 -19.3904 106.37 -19.3904C107.554 -19.3904 108.486 -19.0667 109.165 -18.4191C109.844 -17.7715 110.184 -16.8713 110.184 -15.7183V-7H107.957ZM113.639 -7V-18.8455L115.866 -19.1061V-7H113.639ZM114.753 -21.4989C114.294 -21.4989 113.931 -21.6174 113.663 -21.8543C113.41 -22.107 113.284 -22.4466 113.284 -22.873C113.284 -23.2995 113.41 -23.6311 113.663 -23.868C113.931 -24.1207 114.294 -24.2471 114.753 -24.2471C115.211 -24.2471 115.566 -24.1207 115.819 -23.868C116.087 -23.6311 116.221 -23.2995 116.221 -22.873C116.221 -22.4466 116.087 -22.107 115.819 -21.8543C115.566 -21.6174 115.211 -21.4989 114.753 -21.4989ZM122.194 -17.4241V-10.5063C122.194 -9.79555 122.352 -9.26645 122.668 -8.91898C122.983 -8.5873 123.465 -8.42146 124.113 -8.42146C124.602 -8.42146 125.124 -8.50833 125.676 -8.68207V-7.09476C125.013 -6.84206 124.326 -6.71571 123.615 -6.71571C122.415 -6.71571 121.507 -7.03159 120.891 -7.66335C120.275 -8.29511 119.967 -9.21906 119.967 -10.4352V-17.4241H118.166V-18.9403L120.062 -19.0114L120.227 -22.0201L122.194 -22.2334V-19.0351H125.558V-17.4241H122.194ZM137.008 -7.45013C135.918 -6.91313 134.702 -6.64463 133.359 -6.64463C131.401 -6.64463 129.908 -7.18953 128.882 -8.27932C127.855 -9.36911 127.342 -10.9643 127.342 -13.0649C127.342 -14.36 127.571 -15.4814 128.029 -16.429C128.487 -17.3925 129.127 -18.1269 129.948 -18.6323C130.769 -19.1377 131.709 -19.3904 132.767 -19.3904C134.252 -19.3904 135.421 -18.9482 136.273 -18.0637C137.126 -17.1793 137.553 -15.9552 137.553 -14.3916C137.553 -13.7756 137.497 -13.1676 137.387 -12.5674H129.545C129.593 -9.77186 130.951 -8.37408 133.62 -8.37408C134.773 -8.37408 135.902 -8.62679 137.008 -9.1322V-7.45013ZM132.767 -17.7557C131.851 -17.7557 131.101 -17.432 130.517 -16.7844C129.948 -16.1369 129.624 -15.2603 129.545 -14.1547H135.492C135.507 -14.2337 135.515 -14.3126 135.515 -14.3916C135.515 -14.4706 135.515 -14.5496 135.515 -14.6285C135.515 -15.6078 135.271 -16.3738 134.781 -16.9266C134.307 -17.4794 133.636 -17.7557 132.767 -17.7557ZM150.262 -25.0526V-7.14215L148.461 -6.95262L148.319 -7.78181C147.071 -7.02369 145.863 -6.64463 144.694 -6.64463C143.146 -6.64463 141.93 -7.18953 141.046 -8.27932C140.177 -9.3849 139.743 -10.9011 139.743 -12.828C139.743 -14.9128 140.256 -16.5238 141.283 -17.661C142.309 -18.8139 143.754 -19.3904 145.618 -19.3904C146.518 -19.3904 147.324 -19.2799 148.035 -19.0588V-24.792L150.262 -25.0526ZM145.215 -8.39777C145.642 -8.39777 146.108 -8.46885 146.613 -8.61099C147.134 -8.76893 147.608 -8.97426 148.035 -9.22696V-17.3767C147.371 -17.5662 146.668 -17.661 145.926 -17.661C144.631 -17.661 143.66 -17.2661 143.012 -16.4764C142.38 -15.6867 142.064 -14.4864 142.064 -12.8754C142.064 -11.4065 142.325 -10.2931 142.846 -9.53494C143.383 -8.77683 144.173 -8.39777 145.215 -8.39777ZM158.35 -9.44018C159.787 -8.76104 161.201 -8.42146 162.591 -8.42146C163.822 -8.42146 164.794 -8.69786 165.505 -9.25065C166.231 -9.81924 166.594 -10.5774 166.594 -11.525C166.594 -12.4568 166.271 -13.1913 165.623 -13.7283C164.975 -14.2811 164.091 -14.5575 162.97 -14.5575H161.43V-16.3343H162.851C163.862 -16.3343 164.66 -16.5791 165.244 -17.0687C165.828 -17.5583 166.12 -18.2296 166.12 -19.0824C166.12 -19.9195 165.813 -20.5829 165.197 -21.0725C164.581 -21.5621 163.736 -21.8069 162.662 -21.8069C161.43 -21.8069 160.19 -21.5542 158.942 -21.0488V-22.7783C160.079 -23.3153 161.414 -23.5838 162.946 -23.5838C164.588 -23.5838 165.915 -23.181 166.926 -22.3755C167.937 -21.57 168.442 -20.5197 168.442 -19.2246C168.442 -18.3559 168.197 -17.5978 167.708 -16.9503C167.218 -16.3027 166.523 -15.821 165.623 -15.5051C166.681 -15.205 167.495 -14.6996 168.063 -13.9889C168.632 -13.2781 168.916 -12.4174 168.916 -11.4065C168.916 -10.4431 168.655 -9.59812 168.134 -8.87159C167.629 -8.16086 166.918 -7.60807 166.002 -7.21322C165.102 -6.83416 164.067 -6.64463 162.899 -6.64463C162.109 -6.64463 161.335 -6.7236 160.577 -6.88154C159.819 -7.03949 159.171 -7.2527 158.634 -7.5212L158.35 -9.44018ZM175.757 -7L184.262 -23.2284H186.229L177.724 -7H175.757ZM174.81 -14.3442C175.505 -14.3442 176.01 -14.6443 176.326 -15.2445C176.642 -15.8605 176.8 -16.8476 176.8 -18.2059C176.8 -19.5642 176.642 -20.5434 176.326 -21.1436C176.01 -21.7595 175.505 -22.0675 174.81 -22.0675C174.115 -22.0675 173.609 -21.7595 173.293 -21.1436C172.977 -20.5434 172.82 -19.5642 172.82 -18.2059C172.82 -16.8476 172.977 -15.8605 173.293 -15.2445C173.609 -14.6443 174.115 -14.3442 174.81 -14.3442ZM174.81 -12.9465C173.53 -12.9465 172.551 -13.3966 171.872 -14.2969C171.193 -15.2129 170.853 -16.5159 170.853 -18.2059C170.853 -19.8958 171.193 -21.191 171.872 -22.0912C172.551 -23.0073 173.53 -23.4653 174.81 -23.4653C176.089 -23.4653 177.068 -23.0073 177.747 -22.0912C178.426 -21.191 178.766 -19.8958 178.766 -18.2059C178.766 -16.5159 178.426 -15.2129 177.747 -14.2969C177.068 -13.3966 176.089 -12.9465 174.81 -12.9465ZM187.176 -8.16086C187.871 -8.16086 188.377 -8.46095 188.693 -9.06112C189.008 -9.67709 189.166 -10.6642 189.166 -12.0225C189.166 -13.3808 189.008 -14.36 188.693 -14.9602C188.377 -15.5762 187.871 -15.8842 187.176 -15.8842C186.481 -15.8842 185.976 -15.5762 185.66 -14.9602C185.344 -14.36 185.186 -13.3808 185.186 -12.0225C185.186 -10.6642 185.344 -9.67709 185.66 -9.06112C185.976 -8.46095 186.481 -8.16086 187.176 -8.16086ZM187.176 -6.76309C185.897 -6.76309 184.918 -7.21322 184.239 -8.11348C183.559 -9.02954 183.22 -10.3325 183.22 -12.0225C183.22 -13.7125 183.559 -15.0076 184.239 -15.9078C184.918 -16.8239 185.897 -17.2819 187.176 -17.2819C188.456 -17.2819 189.435 -16.8239 190.114 -15.9078C190.793 -15.0076 191.133 -13.7125 191.133 -12.0225C191.133 -10.3325 190.793 -9.02954 190.114 -8.11348C189.435 -7.21322 188.456 -6.76309 187.176 -6.76309ZM207.998 -7.42644C206.908 -6.90524 205.7 -6.64463 204.373 -6.64463C202.636 -6.64463 201.293 -7.19743 200.346 -8.30301C199.398 -9.40859 198.924 -10.9722 198.924 -12.9938C198.924 -15.0313 199.398 -16.6028 200.346 -17.7084C201.309 -18.8297 202.659 -19.3904 204.397 -19.3904C205.613 -19.3904 206.79 -19.1298 207.927 -18.6086V-16.9029C206.837 -17.3767 205.795 -17.6136 204.8 -17.6136C203.631 -17.6136 202.746 -17.2266 202.146 -16.4527C201.546 -15.6788 201.246 -14.5338 201.246 -13.0175C201.246 -11.5171 201.546 -10.372 202.146 -9.58233C202.746 -8.80842 203.631 -8.42146 204.8 -8.42146C205.795 -8.42146 206.861 -8.65838 207.998 -9.1322V-7.42644ZM218.155 -6.95262L218.013 -7.78181C216.687 -7.02369 215.399 -6.64463 214.152 -6.64463C212.904 -6.64463 211.909 -6.97631 211.166 -7.63966C210.44 -8.3188 210.077 -9.22696 210.077 -10.3641C210.077 -11.5487 210.487 -12.4647 211.309 -13.1123C212.13 -13.7756 213.283 -14.1073 214.768 -14.1073C215.636 -14.1073 216.639 -14.0047 217.776 -13.7993V-15.055C217.776 -15.9236 217.524 -16.5712 217.018 -16.9976C216.529 -17.4241 215.77 -17.6373 214.744 -17.6373C213.543 -17.6373 212.233 -17.3609 210.811 -16.8081V-18.5376C211.474 -18.8061 212.193 -19.0114 212.967 -19.1535C213.741 -19.3115 214.475 -19.3904 215.17 -19.3904C216.734 -19.3904 217.918 -19.0272 218.724 -18.3006C219.545 -17.5741 219.956 -16.508 219.956 -15.1023V-7.14215L218.155 -6.95262ZM214.72 -8.37408C215.178 -8.37408 215.691 -8.45305 216.26 -8.61099C216.829 -8.76893 217.334 -8.97426 217.776 -9.22696V-12.2594C217.034 -12.4489 216.157 -12.5437 215.147 -12.5437C214.199 -12.5437 213.496 -12.3621 213.038 -11.9988C212.596 -11.6513 212.375 -11.1222 212.375 -10.4115C212.375 -9.05323 213.157 -8.37408 214.72 -8.37408ZM222.589 -9.20327C223.853 -8.65048 225.116 -8.37408 226.38 -8.37408C227.296 -8.37408 227.991 -8.54782 228.465 -8.89529C228.954 -9.24275 229.199 -9.74027 229.199 -10.3878C229.199 -10.8143 229.065 -11.1617 228.796 -11.4302C228.528 -11.6987 228.086 -11.9277 227.47 -12.1173L225.859 -12.6148C224.785 -12.9465 224.003 -13.3729 223.513 -13.8941C223.024 -14.4153 222.779 -15.0787 222.779 -15.8842C222.779 -16.9581 223.197 -17.811 224.034 -18.4428C224.872 -19.0746 226.001 -19.3904 227.422 -19.3904C228.623 -19.3904 229.768 -19.1535 230.857 -18.6797V-16.9739C229.657 -17.432 228.559 -17.661 227.564 -17.661C226.759 -17.661 226.127 -17.503 225.669 -17.1872C225.227 -16.8871 225.006 -16.4764 225.006 -15.9552C225.006 -15.5762 225.124 -15.2761 225.361 -15.055C225.598 -14.8496 226.04 -14.6443 226.688 -14.439L228.488 -13.8941C230.447 -13.3097 231.426 -12.1489 231.426 -10.4115C231.426 -9.19537 231.008 -8.26352 230.17 -7.61597C229.333 -6.96841 228.125 -6.64463 226.546 -6.64463C225.077 -6.64463 223.845 -6.88944 222.85 -7.37906L222.589 -9.20327ZM234.2 -7V-24.792L236.427 -25.0526V-18.4191C237.643 -19.0667 238.835 -19.3904 240.004 -19.3904C241.315 -19.3904 242.326 -19.043 243.037 -18.348C243.763 -17.6689 244.126 -16.6975 244.126 -15.434V-7H241.899V-15.1023C241.899 -16.7923 241.062 -17.6373 239.388 -17.6373C238.946 -17.6373 238.448 -17.5583 237.896 -17.4004C237.359 -17.2582 236.869 -17.0608 236.427 -16.8081V-7H234.2ZM255.745 -18.4428C256.93 -19.0746 258.043 -19.3904 259.086 -19.3904C260.633 -19.3904 261.842 -18.8376 262.71 -17.7321C263.595 -16.6423 264.037 -15.1339 264.037 -13.2071C264.037 -11.0907 263.5 -9.46387 262.426 -8.3267C261.352 -7.20532 259.82 -6.64463 257.83 -6.64463C256.408 -6.64463 254.971 -6.84996 253.518 -7.2606V-24.792L255.745 -25.0526V-18.4428ZM258.564 -17.6373C258.138 -17.6373 257.664 -17.5583 257.143 -17.4004C256.637 -17.2582 256.172 -17.0608 255.745 -16.8081V-8.65838C256.408 -8.46885 257.111 -8.37408 257.854 -8.37408C259.149 -8.37408 260.112 -8.76893 260.744 -9.55864C261.392 -10.3483 261.715 -11.5487 261.715 -13.1597C261.715 -14.6285 261.447 -15.742 260.91 -16.5001C260.389 -17.2582 259.607 -17.6373 258.564 -17.6373ZM274.352 -6.95262L274.21 -7.78181C272.883 -7.02369 271.596 -6.64463 270.348 -6.64463C269.101 -6.64463 268.106 -6.97631 267.363 -7.63966C266.637 -8.3188 266.274 -9.22696 266.274 -10.3641C266.274 -11.5487 266.684 -12.4647 267.506 -13.1123C268.327 -13.7756 269.48 -14.1073 270.964 -14.1073C271.833 -14.1073 272.836 -14.0047 273.973 -13.7993V-15.055C273.973 -15.9236 273.72 -16.5712 273.215 -16.9976C272.725 -17.4241 271.967 -17.6373 270.941 -17.6373C269.74 -17.6373 268.429 -17.3609 267.008 -16.8081V-18.5376C267.671 -18.8061 268.39 -19.0114 269.164 -19.1535C269.938 -19.3115 270.672 -19.3904 271.367 -19.3904C272.931 -19.3904 274.115 -19.0272 274.921 -18.3006C275.742 -17.5741 276.153 -16.508 276.153 -15.1023V-7.14215L274.352 -6.95262ZM270.917 -8.37408C271.375 -8.37408 271.888 -8.45305 272.457 -8.61099C273.026 -8.76893 273.531 -8.97426 273.973 -9.22696V-12.2594C273.231 -12.4489 272.354 -12.5437 271.343 -12.5437C270.396 -12.5437 269.693 -12.3621 269.235 -11.9988C268.793 -11.6513 268.572 -11.1222 268.572 -10.4115C268.572 -9.05323 269.353 -8.37408 270.917 -8.37408ZM287.978 -7.42644C286.889 -6.90524 285.68 -6.64463 284.354 -6.64463C282.616 -6.64463 281.274 -7.19743 280.326 -8.30301C279.378 -9.40859 278.905 -10.9722 278.905 -12.9938C278.905 -15.0313 279.378 -16.6028 280.326 -17.7084C281.29 -18.8297 282.64 -19.3904 284.377 -19.3904C285.593 -19.3904 286.77 -19.1298 287.907 -18.6086V-16.9029C286.817 -17.3767 285.775 -17.6136 284.78 -17.6136C283.611 -17.6136 282.727 -17.2266 282.127 -16.4527C281.526 -15.6788 281.226 -14.5338 281.226 -13.0175C281.226 -11.5171 281.526 -10.372 282.127 -9.58233C282.727 -8.80842 283.611 -8.42146 284.78 -8.42146C285.775 -8.42146 286.841 -8.65838 287.978 -9.1322V-7.42644ZM290.721 -7V-24.792L292.948 -25.0526V-13.8704L297.899 -19.0351H300.458L295.08 -13.444L300.718 -7H298.017L292.948 -12.8991V-7H290.721ZM313.204 -8.39777C314.31 -8.39777 315.108 -8.76104 315.597 -9.48756C316.103 -10.2141 316.355 -11.3907 316.355 -13.0175C316.355 -14.6443 316.103 -15.821 315.597 -16.5475C315.108 -17.274 314.31 -17.6373 313.204 -17.6373C312.099 -17.6373 311.293 -17.274 310.788 -16.5475C310.298 -15.821 310.054 -14.6443 310.054 -13.0175C310.054 -11.3907 310.298 -10.2141 310.788 -9.48756C311.293 -8.76104 312.099 -8.39777 313.204 -8.39777ZM313.204 -6.64463C311.404 -6.64463 310.038 -7.18163 309.106 -8.25563C308.19 -9.34542 307.732 -10.9327 307.732 -13.0175C307.732 -15.1023 308.19 -16.6818 309.106 -17.7557C310.038 -18.8455 311.404 -19.3904 313.204 -19.3904C315.005 -19.3904 316.363 -18.8455 317.279 -17.7557C318.211 -16.6818 318.677 -15.1023 318.677 -13.0175C318.677 -10.9327 318.211 -9.34542 317.279 -8.25563C316.363 -7.18163 315.005 -6.64463 313.204 -6.64463ZM329.26 -7V-15.1023C329.26 -16.7923 328.423 -17.6373 326.749 -17.6373C326.307 -17.6373 325.809 -17.5583 325.256 -17.4004C324.719 -17.2582 324.23 -17.0608 323.788 -16.8081V-7H321.561V-18.8929L323.361 -19.0824L323.503 -18.2533C324.798 -19.0114 326.086 -19.3904 327.365 -19.3904C328.676 -19.3904 329.687 -19.043 330.397 -18.348C331.124 -17.6689 331.487 -16.6975 331.487 -15.434V-7H329.26ZM2.29803 24V13.5759H0.497513V12.0597L2.29803 11.9886V9.64321C2.29803 8.39548 2.62181 7.43204 3.26937 6.7529C3.91692 6.05796 4.84088 5.71049 6.04122 5.71049C6.73616 5.71049 7.44689 5.83684 8.17342 6.08955V7.67685C7.52586 7.50312 6.97307 7.41625 6.51505 7.41625C5.18835 7.41625 4.525 8.11908 4.525 9.52475V11.9649H7.58114V13.5759H4.525V24H2.29803ZM14.5906 22.6022C15.6961 22.6022 16.4937 22.239 16.9834 21.5124C17.4888 20.7859 17.7415 19.6093 17.7415 17.9825C17.7415 16.3557 17.4888 15.179 16.9834 14.4525C16.4937 13.726 15.6961 13.3627 14.5906 13.3627C13.485 13.3627 12.6795 13.726 12.1741 14.4525C11.6844 15.179 11.4396 16.3557 11.4396 17.9825C11.4396 19.6093 11.6844 20.7859 12.1741 21.5124C12.6795 22.239 13.485 22.6022 14.5906 22.6022ZM14.5906 24.3554C12.79 24.3554 11.4238 23.8184 10.492 22.7444C9.57594 21.6546 9.11792 20.0673 9.11792 17.9825C9.11792 15.8977 9.57594 14.3182 10.492 13.2443C11.4238 12.1545 12.79 11.6096 14.5906 11.6096C16.3911 11.6096 17.7494 12.1545 18.6654 13.2443C19.5973 14.3182 20.0632 15.8977 20.0632 17.9825C20.0632 20.0673 19.5973 21.6546 18.6654 22.7444C17.7494 23.8184 16.3911 24.3554 14.5906 24.3554ZM27.7086 22.6022C28.8141 22.6022 29.6117 22.239 30.1014 21.5124C30.6068 20.7859 30.8595 19.6093 30.8595 17.9825C30.8595 16.3557 30.6068 15.179 30.1014 14.4525C29.6117 13.726 28.8141 13.3627 27.7086 13.3627C26.603 13.3627 25.7975 13.726 25.2921 14.4525C24.8025 15.179 24.5576 16.3557 24.5576 17.9825C24.5576 19.6093 24.8025 20.7859 25.2921 21.5124C25.7975 22.239 26.603 22.6022 27.7086 22.6022ZM27.7086 24.3554C25.908 24.3554 24.5419 23.8184 23.61 22.7444C22.694 21.6546 22.2359 20.0673 22.2359 17.9825C22.2359 15.8977 22.694 14.3182 23.61 13.2443C24.5419 12.1545 25.908 11.6096 27.7086 11.6096C29.5091 11.6096 30.8674 12.1545 31.7834 13.2443C32.7153 14.3182 33.1812 15.8977 33.1812 17.9825C33.1812 20.0673 32.7153 21.6546 31.7834 22.7444C30.8674 23.8184 29.5091 24.3554 27.7086 24.3554ZM45.8728 5.9474V23.8579L44.0722 24.0474L43.9301 23.2182C42.6824 23.9763 41.4741 24.3554 40.3054 24.3554C38.7575 24.3554 37.5414 23.8105 36.6569 22.7207C35.7883 21.6151 35.3539 20.0989 35.3539 18.172C35.3539 16.0872 35.8672 14.4762 36.8938 13.339C37.9205 12.1861 39.3656 11.6096 41.2293 11.6096C42.1296 11.6096 42.9351 11.7201 43.6458 11.9412V6.208L45.8728 5.9474ZM40.8266 22.6022C41.253 22.6022 41.7189 22.5312 42.2243 22.389C42.7455 22.2311 43.2194 22.0257 43.6458 21.773V13.6233C42.9825 13.4338 42.2796 13.339 41.5373 13.339C40.2422 13.339 39.2709 13.7339 38.6233 14.5236C37.9915 15.3133 37.6757 16.5136 37.6757 18.1246C37.6757 19.5935 37.9363 20.7069 38.4575 21.4651C38.9945 22.2232 39.7842 22.6022 40.8266 22.6022ZM62.8215 24.0474L62.6794 23.2182C61.3527 23.9763 60.0654 24.3554 58.8177 24.3554C57.57 24.3554 56.575 24.0237 55.8326 23.3603C55.1061 22.6812 54.7429 21.773 54.7429 20.6359C54.7429 19.4513 55.1535 18.5353 55.9748 17.8877C56.7961 17.2244 57.949 16.8927 59.4337 16.8927C60.3024 16.8927 61.3053 16.9953 62.4424 17.2007V15.945C62.4424 15.0764 62.1897 14.4288 61.6843 14.0024C61.1947 13.5759 60.4366 13.3627 59.41 13.3627C58.2096 13.3627 56.8987 13.6391 55.4773 14.1919V12.4624C56.1406 12.1939 56.8593 11.9886 57.6332 11.8465C58.4071 11.6885 59.1415 11.6096 59.8364 11.6096C61.4 11.6096 62.5846 11.9728 63.3901 12.6994C64.2114 13.4259 64.622 14.492 64.622 15.8977V23.8579L62.8215 24.0474ZM59.3863 22.6259C59.8443 22.6259 60.3576 22.5469 60.9262 22.389C61.4948 22.2311 62.0002 22.0257 62.4424 21.773V18.7406C61.7001 18.5511 60.8236 18.4563 59.8127 18.4563C58.8651 18.4563 58.1623 18.6379 57.7042 19.0012C57.262 19.3487 57.0409 19.8778 57.0409 20.5885C57.0409 21.9468 57.8227 22.6259 59.3863 22.6259ZM75.7842 24V15.8977C75.7842 14.2077 74.9471 13.3627 73.273 13.3627C72.8307 13.3627 72.3332 13.4417 71.7804 13.5996C71.2434 13.7418 70.7538 13.9392 70.3116 14.1919V24H68.0846V12.1071L69.8851 11.9176L70.0273 12.7467C71.3224 11.9886 72.6096 11.6096 73.8889 11.6096C75.1998 11.6096 76.2107 11.957 76.9214 12.652C77.6479 13.3311 78.0112 14.3025 78.0112 15.566V24H75.7842ZM91.2884 5.9474V23.8579L89.4878 24.0474L89.3457 23.2182C88.098 23.9763 86.8897 24.3554 85.721 24.3554C84.1731 24.3554 82.957 23.8105 82.0725 22.7207C81.2039 21.6151 80.7695 20.0989 80.7695 18.172C80.7695 16.0872 81.2828 14.4762 82.3095 13.339C83.3361 12.1861 84.7812 11.6096 86.6449 11.6096C87.5452 11.6096 88.3507 11.7201 89.0614 11.9412V6.208L91.2884 5.9474ZM86.2422 22.6022C86.6686 22.6022 87.1345 22.5312 87.6399 22.389C88.1611 22.2311 88.635 22.0257 89.0614 21.773V13.6233C88.3981 13.4338 87.6952 13.339 86.9529 13.339C85.6578 13.339 84.6865 13.7339 84.0389 14.5236C83.4071 15.3133 83.0913 16.5136 83.0913 18.1246C83.0913 19.5935 83.3519 20.7069 83.8731 21.4651C84.4101 22.2232 85.1998 22.6022 86.2422 22.6022ZM101.319 24V13.5759H99.5188V12.0597L101.319 11.9886V9.64321C101.319 8.39548 101.643 7.43204 102.291 6.7529C102.938 6.05796 103.862 5.71049 105.063 5.71049C105.757 5.71049 106.468 5.83684 107.195 6.08955V7.67685C106.547 7.50312 105.994 7.41625 105.536 7.41625C104.21 7.41625 103.546 8.11908 103.546 9.52475V11.9649H106.602V13.5759H103.546V24H101.319ZM116.994 24.0474L116.852 23.2182C115.557 23.9763 114.27 24.3554 112.99 24.3554C111.711 24.3554 110.716 24.0079 110.005 23.313C109.295 22.618 108.939 21.6467 108.939 20.399V11.9649H111.166V20.0673C111.166 21.7572 111.979 22.6022 113.606 22.6022C114.064 22.6022 114.562 22.5312 115.099 22.389C115.636 22.2311 116.125 22.0257 116.568 21.773V11.9649H118.795V23.8579L116.994 24.0474ZM130.084 24V15.8977C130.084 14.2077 129.247 13.3627 127.573 13.3627C127.13 13.3627 126.633 13.4417 126.08 13.5996C125.543 13.7418 125.054 13.9392 124.611 14.1919V24H122.384V12.1071L124.185 11.9176L124.327 12.7467C125.622 11.9886 126.909 11.6096 128.189 11.6096C129.5 11.6096 130.51 11.957 131.221 12.652C131.948 13.3311 132.311 14.3025 132.311 15.566V24H130.084ZM151.464 24L148.644 14.3104L145.92 24H143.882L140.115 11.9649H142.366L144.948 21.2992L147.507 11.9649H149.853L152.459 21.2992L155.017 11.9649H157.197L153.501 24H151.464ZM159.217 24V12.1545L161.444 11.8939V24H159.217ZM160.33 9.50106C159.872 9.50106 159.509 9.38261 159.24 9.1457C158.988 8.89299 158.861 8.55342 158.861 8.12698C158.861 7.70054 158.988 7.36887 159.24 7.13196C159.509 6.87925 159.872 6.7529 160.33 6.7529C160.788 6.7529 161.143 6.87925 161.396 7.13196C161.665 7.36887 161.799 7.70054 161.799 8.12698C161.799 8.55342 161.665 8.89299 161.396 9.1457C161.143 9.38261 160.788 9.50106 160.33 9.50106ZM167.771 13.5759V20.4937C167.771 21.2045 167.929 21.7336 168.245 22.081C168.561 22.4127 169.043 22.5785 169.69 22.5785C170.18 22.5785 170.701 22.4917 171.254 22.3179V23.9052C170.591 24.1579 169.903 24.2843 169.193 24.2843C167.992 24.2843 167.084 23.9684 166.468 23.3366C165.852 22.7049 165.544 21.7809 165.544 20.5648V13.5759H163.744V12.0597L165.639 11.9886L165.805 8.97986L167.771 8.76664V11.9649H171.135V13.5759H167.771ZM173.63 24V6.208L175.857 5.9474V12.5809C177.073 11.9333 178.266 11.6096 179.435 11.6096C180.745 11.6096 181.756 11.957 182.467 12.652C183.193 13.3311 183.557 14.3025 183.557 15.566V24H181.33V15.8977C181.33 14.2077 180.493 13.3627 178.819 13.3627C178.376 13.3627 177.879 13.4417 177.326 13.5996C176.789 13.7418 176.299 13.9392 175.857 14.1919V24H173.63ZM192.048 21.3466C193.659 22.1205 195.255 22.5075 196.834 22.5075C198.097 22.5075 199.077 22.239 199.772 21.702C200.467 21.165 200.814 20.399 200.814 19.4039C200.814 18.6774 200.593 18.0851 200.151 17.6271C199.708 17.1691 198.966 16.7742 197.924 16.4425L196.36 15.945C194.954 15.5028 193.936 14.95 193.304 14.2867C192.688 13.6075 192.38 12.7546 192.38 11.728C192.38 10.3066 192.909 9.17728 193.967 8.3402C195.026 7.48732 196.447 7.06088 198.232 7.06088C199.716 7.06088 201.146 7.36887 202.52 7.98483V9.80905C201.067 9.20887 199.708 8.90879 198.445 8.90879C197.308 8.90879 196.408 9.15359 195.744 9.64321C195.097 10.117 194.773 10.7725 194.773 11.6096C194.773 12.2255 194.954 12.7152 195.318 13.0784C195.697 13.4417 196.344 13.7734 197.26 14.0734L198.824 14.571C200.388 15.0764 201.509 15.7081 202.188 16.4662C202.867 17.2086 203.207 18.1799 203.207 19.3802C203.207 20.9439 202.662 22.1679 201.572 23.0524C200.482 23.921 198.974 24.3554 197.047 24.3554C195.294 24.3554 193.738 24.0237 192.38 23.3603L192.048 21.3466ZM213.32 24.0474L213.178 23.2182C211.851 23.9763 210.564 24.3554 209.316 24.3554C208.068 24.3554 207.073 24.0237 206.331 23.3603C205.605 22.6812 205.241 21.773 205.241 20.6359C205.241 19.4513 205.652 18.5353 206.473 17.8877C207.295 17.2244 208.448 16.8927 209.932 16.8927C210.801 16.8927 211.804 16.9953 212.941 17.2007V15.945C212.941 15.0764 212.688 14.4288 212.183 14.0024C211.693 13.5759 210.935 13.3627 209.908 13.3627C208.708 13.3627 207.397 13.6391 205.976 14.1919V12.4624C206.639 12.1939 207.358 11.9886 208.132 11.8465C208.906 11.6885 209.64 11.6096 210.335 11.6096C211.899 11.6096 213.083 11.9728 213.889 12.6994C214.71 13.4259 215.12 14.492 215.12 15.8977V23.8579L213.32 24.0474ZM209.885 22.6259C210.343 22.6259 210.856 22.5469 211.425 22.389C211.993 22.2311 212.499 22.0257 212.941 21.773V18.7406C212.199 18.5511 211.322 18.4563 210.311 18.4563C209.364 18.4563 208.661 18.6379 208.203 19.0012C207.76 19.3487 207.539 19.8778 207.539 20.5885C207.539 21.9468 208.321 22.6259 209.885 22.6259ZM221.402 24L216.925 11.9649H219.294L222.516 21.5598L225.785 11.9649H228.06L223.535 24H221.402ZM234.543 22.6022C235.648 22.6022 236.446 22.239 236.936 21.5124C237.441 20.7859 237.694 19.6093 237.694 17.9825C237.694 16.3557 237.441 15.179 236.936 14.4525C236.446 13.726 235.648 13.3627 234.543 13.3627C233.437 13.3627 232.632 13.726 232.126 14.4525C231.637 15.179 231.392 16.3557 231.392 17.9825C231.392 19.6093 231.637 20.7859 232.126 21.5124C232.632 22.239 233.437 22.6022 234.543 22.6022ZM234.543 24.3554C232.742 24.3554 231.376 23.8184 230.444 22.7444C229.528 21.6546 229.07 20.0673 229.07 17.9825C229.07 15.8977 229.528 14.3182 230.444 13.2443C231.376 12.1545 232.742 11.6096 234.543 11.6096C236.343 11.6096 237.702 12.1545 238.618 13.2443C239.549 14.3182 240.015 15.8977 240.015 17.9825C240.015 20.0673 239.549 21.6546 238.618 22.7444C237.702 23.8184 236.343 24.3554 234.543 24.3554ZM242.899 24V12.1071L244.699 11.9176L244.889 13.0073C245.931 12.1229 247.045 11.6806 248.229 11.6806C248.593 11.6806 248.956 11.7359 249.319 11.8465V13.6707C248.94 13.5759 248.553 13.5285 248.158 13.5285C247.021 13.5285 246.01 13.8839 245.126 14.5946V24H242.899Z" fill="white"/>
</g>
<defs>
<clipPath id="clip0_4924_6013">
<rect width="260" height="24" fill="white"/>
</clipPath>
</defs>
</svg>
