<svg width="397" height="23" viewBox="0 0 397 23" fill="none" xmlns="http://www.w3.org/2000/svg">
<path d="M393.602 21.7194V11.9713C393.602 9.9381 392.595 8.92149 390.581 8.92149C390.049 8.92149 389.45 9.0165 388.785 9.20652C388.139 9.37754 387.55 9.61507 387.018 9.9191V21.7194H384.339V7.41082L386.505 7.1828L386.676 8.18041C388.234 7.26831 389.783 6.81226 391.322 6.81226C392.899 6.81226 394.115 7.2303 394.971 8.06639C395.845 8.88349 396.282 10.0521 396.282 11.5723V21.7194H393.602Z" fill="white"/>
<path d="M374.285 20.0377C375.616 20.0377 376.575 19.6007 377.164 18.7266C377.772 17.8525 378.076 16.4368 378.076 14.4796C378.076 12.5224 377.772 11.1067 377.164 10.2326C376.575 9.35854 375.616 8.92149 374.285 8.92149C372.955 8.92149 371.986 9.35854 371.378 10.2326C370.789 11.1067 370.494 12.5224 370.494 14.4796C370.494 16.4368 370.789 17.8525 371.378 18.7266C371.986 19.6007 372.955 20.0377 374.285 20.0377ZM374.285 22.147C372.119 22.147 370.475 21.5009 369.354 20.2088C368.252 18.8976 367.701 16.9879 367.701 14.4796C367.701 11.9713 368.252 10.0711 369.354 8.77897C370.475 7.46783 372.119 6.81226 374.285 6.81226C376.452 6.81226 378.086 7.46783 379.188 8.77897C380.309 10.0711 380.87 11.9713 380.87 14.4796C380.87 16.9879 380.309 18.8976 379.188 20.2088C378.086 21.5009 376.452 22.147 374.285 22.147Z" fill="white"/>
<path d="M347.235 21.7194V0.313534L349.914 0V13.4535L355.871 7.23981H358.95L352.479 13.9666L359.263 21.7194H356.014L349.914 14.6221V21.7194H347.235Z" fill="white"/>
<path d="M343.935 21.2064C342.624 21.8334 341.17 22.147 339.574 22.147C337.484 22.147 335.869 21.4819 334.729 20.1517C333.589 18.8216 333.019 16.9404 333.019 14.5081C333.019 12.0568 333.589 10.1661 334.729 8.83598C335.888 7.48683 337.513 6.81226 339.603 6.81226C341.066 6.81226 342.482 7.12579 343.85 7.75286V9.80509C342.539 9.23503 341.284 8.94999 340.087 8.94999C338.681 8.94999 337.617 9.41555 336.895 10.3467C336.173 11.2778 335.812 12.6554 335.812 14.4796C335.812 16.2848 336.173 17.6625 336.895 18.6126C337.617 19.5437 338.681 20.0092 340.087 20.0092C341.284 20.0092 342.567 19.7242 343.935 19.1541V21.2064Z" fill="white"/>
<path d="M327.542 21.7764L327.371 20.7788C325.775 21.6909 324.226 22.147 322.725 22.147C321.224 22.147 320.026 21.7479 319.133 20.9498C318.259 20.1327 317.822 19.0401 317.822 17.672C317.822 16.2468 318.316 15.1447 319.304 14.3656C320.293 13.5675 321.68 13.1685 323.466 13.1685C324.511 13.1685 325.718 13.292 327.086 13.539V12.0283C327.086 10.9832 326.782 10.2041 326.174 9.69108C325.585 9.17802 324.673 8.92149 323.437 8.92149C321.993 8.92149 320.416 9.25403 318.706 9.9191V7.83837C319.504 7.51533 320.369 7.26831 321.3 7.09729C322.231 6.90727 323.114 6.81226 323.95 6.81226C325.832 6.81226 327.257 7.2493 328.226 8.1234C329.214 8.9975 329.708 10.2801 329.708 11.9713V21.5484L327.542 21.7764ZM323.409 20.0662C323.96 20.0662 324.578 19.9712 325.262 19.7812C325.946 19.5912 326.554 19.3442 327.086 19.0401V15.3917C326.193 15.1637 325.138 15.0497 323.922 15.0497C322.782 15.0497 321.936 15.2682 321.385 15.7052C320.853 16.1233 320.587 16.7599 320.587 17.615C320.587 19.2491 321.528 20.0662 323.409 20.0662Z" fill="white"/>
<path d="M305.155 7.95239C306.58 7.1923 307.92 6.81226 309.174 6.81226C311.036 6.81226 312.49 7.47733 313.535 8.80748C314.599 10.1186 315.131 11.9333 315.131 14.2516C315.131 16.7979 314.485 18.7551 313.193 20.1232C311.901 21.4724 310.057 22.147 307.663 22.147C305.953 22.147 304.224 21.8999 302.476 21.4059V0.313534L305.155 0V7.95239ZM308.547 8.9215C308.034 8.9215 307.464 9.01651 306.837 9.20653C306.229 9.37755 305.668 9.61507 305.155 9.91911V19.7242C305.953 19.9522 306.799 20.0662 307.692 20.0662C309.25 20.0662 310.409 19.5912 311.169 18.6411C311.948 17.691 312.338 16.2468 312.338 14.3086C312.338 12.5414 312.015 11.2017 311.369 10.2896C310.742 9.37755 309.801 8.9215 308.547 8.9215Z" fill="white"/>
<path d="M279.233 21.7194V0.313534L281.913 0V7.98089C283.376 7.2018 284.811 6.81226 286.217 6.81226C287.794 6.81226 289.01 7.23031 289.865 8.0664C290.739 8.88349 291.176 10.0521 291.176 11.5723V21.7194H288.497V11.9713C288.497 9.93811 287.49 8.9215 285.476 8.9215C284.944 8.9215 284.345 9.01651 283.68 9.20653C283.034 9.37755 282.445 9.61507 281.913 9.91911V21.7194H279.233Z" fill="white"/>
<path d="M265.265 19.0686C266.785 19.7337 268.305 20.0662 269.825 20.0662C270.927 20.0662 271.763 19.8572 272.333 19.4392C272.923 19.0211 273.217 18.4226 273.217 17.6435C273.217 17.1304 273.056 16.7124 272.732 16.3893C272.409 16.0663 271.877 15.7908 271.136 15.5627L269.198 14.9642C267.906 14.5651 266.965 14.0521 266.376 13.425C265.787 12.7979 265.493 11.9998 265.493 11.0307C265.493 9.73858 265.996 8.71247 267.003 7.95238C268.01 7.1923 269.369 6.81226 271.079 6.81226C272.523 6.81226 273.901 7.09729 275.212 7.66735V9.71958C273.768 9.16852 272.447 8.89299 271.25 8.89299C270.281 8.89299 269.521 9.08301 268.97 9.46305C268.438 9.82409 268.172 10.3181 268.172 10.9452C268.172 11.4013 268.314 11.7623 268.6 12.0283C268.885 12.2754 269.417 12.5224 270.196 12.7694L272.362 13.425C274.718 14.1281 275.896 15.5247 275.896 17.615C275.896 19.0781 275.393 20.1992 274.386 20.9783C273.379 21.7574 271.925 22.147 270.025 22.147C268.257 22.147 266.775 21.8524 265.578 21.2634L265.265 19.0686Z" fill="white"/>
<path d="M259.93 21.7764L259.759 20.7788C258.163 21.6909 256.614 22.147 255.113 22.147C253.612 22.147 252.415 21.7479 251.522 20.9498C250.648 20.1327 250.21 19.0401 250.21 17.672C250.21 16.2468 250.705 15.1447 251.693 14.3656C252.681 13.5675 254.068 13.1685 255.854 13.1685C256.899 13.1685 258.106 13.292 259.474 13.539V12.0283C259.474 10.9832 259.17 10.2041 258.562 9.69108C257.973 9.17802 257.061 8.92149 255.826 8.92149C254.381 8.92149 252.804 9.25403 251.094 9.9191V7.83837C251.892 7.51533 252.757 7.26831 253.688 7.09729C254.619 6.90727 255.503 6.81226 256.339 6.81226C258.22 6.81226 259.645 7.2493 260.614 8.1234C261.602 8.9975 262.096 10.2801 262.096 11.9713V21.5484L259.93 21.7764ZM255.797 20.0662C256.348 20.0662 256.966 19.9712 257.65 19.7812C258.334 19.5912 258.942 19.3442 259.474 19.0401V15.3917C258.581 15.1637 257.526 15.0497 256.31 15.0497C255.17 15.0497 254.324 15.2682 253.773 15.7052C253.241 16.1233 252.975 16.7599 252.975 17.615C252.975 19.2491 253.916 20.0662 255.797 20.0662Z" fill="white"/>
<path d="M247.709 21.2064C246.398 21.8334 244.944 22.147 243.348 22.147C241.258 22.147 239.643 21.4819 238.503 20.1517C237.363 18.8216 236.792 16.9404 236.792 14.5081C236.792 12.0568 237.363 10.1661 238.503 8.83598C239.662 7.48683 241.286 6.81226 243.377 6.81226C244.84 6.81226 246.256 7.12579 247.624 7.75286V9.80509C246.313 9.23503 245.058 8.94999 243.861 8.94999C242.455 8.94999 241.391 9.41555 240.669 10.3467C239.947 11.2778 239.586 12.6554 239.586 14.4796C239.586 16.2848 239.947 17.6625 240.669 18.6126C241.391 19.5437 242.455 20.0092 243.861 20.0092C245.058 20.0092 246.341 19.7242 247.709 19.1541V21.2064Z" fill="white"/>
<path d="M208.92 21.7194L219.153 2.19476H221.519L211.286 21.7194H208.92ZM207.78 12.8835C208.616 12.8835 209.224 12.5224 209.604 11.8003C209.984 11.0592 210.174 9.87162 210.174 8.23744C210.174 6.60325 209.984 5.42512 209.604 4.70304C209.224 3.96196 208.616 3.59142 207.78 3.59142C206.944 3.59142 206.336 3.96196 205.956 4.70304C205.576 5.42512 205.386 6.60325 205.386 8.23744C205.386 9.87162 205.576 11.0592 205.956 11.8003C206.336 12.5224 206.944 12.8835 207.78 12.8835ZM207.78 14.5651C206.241 14.5651 205.063 14.0236 204.246 12.9405C203.429 11.8383 203.02 10.2707 203.02 8.23744C203.02 6.20421 203.429 4.64604 204.246 3.56291C205.063 2.46079 206.241 1.90973 207.78 1.90973C209.319 1.90973 210.497 2.46079 211.314 3.56291C212.132 4.64604 212.54 6.20421 212.54 8.23744C212.54 10.2707 212.132 11.8383 211.314 12.9405C210.497 14.0236 209.319 14.5651 207.78 14.5651ZM222.659 20.3228C223.495 20.3228 224.103 19.9617 224.483 19.2397C224.863 18.4986 225.053 17.3109 225.053 15.6768C225.053 14.0426 224.863 12.8645 224.483 12.1424C224.103 11.4013 223.495 11.0307 222.659 11.0307C221.823 11.0307 221.215 11.4013 220.835 12.1424C220.454 12.8645 220.264 14.0426 220.264 15.6768C220.264 17.3109 220.454 18.4986 220.835 19.2397C221.215 19.9617 221.823 20.3228 222.659 20.3228ZM222.659 22.0045C221.12 22.0045 219.941 21.4629 219.124 20.3798C218.307 19.2777 217.899 17.71 217.899 15.6768C217.899 13.6435 218.307 12.0854 219.124 11.0022C219.941 9.90012 221.12 9.34906 222.659 9.34906C224.198 9.34906 225.376 9.90012 226.193 11.0022C227.01 12.0854 227.419 13.6435 227.419 15.6768C227.419 17.71 227.01 19.2777 226.193 20.3798C225.376 21.4629 224.198 22.0045 222.659 22.0045Z" fill="white"/>
<path d="M187.977 18.7836C189.706 19.6007 191.407 20.0092 193.079 20.0092C194.561 20.0092 195.73 19.6767 196.585 19.0116C197.459 18.3276 197.896 17.4155 197.896 16.2753C197.896 15.1542 197.507 14.2706 196.728 13.6245C195.948 12.9595 194.884 12.6269 193.535 12.6269H191.682V10.4892H193.393C194.609 10.4892 195.568 10.1947 196.271 9.60559C196.975 9.01652 197.326 8.20893 197.326 7.18282C197.326 6.1757 196.956 5.37761 196.214 4.78855C195.473 4.19948 194.457 3.90495 193.165 3.90495C191.682 3.90495 190.191 4.20899 188.69 4.81705V2.73632C190.058 2.09025 191.663 1.76721 193.507 1.76721C195.483 1.76721 197.079 2.25177 198.295 3.22087C199.511 4.18998 200.119 5.45362 200.119 7.0118C200.119 8.05691 199.825 8.96902 199.236 9.7481C198.647 10.5272 197.811 11.1068 196.728 11.4868C198.001 11.8478 198.979 12.4559 199.663 13.311C200.347 14.1661 200.689 15.2017 200.689 16.4178C200.689 17.577 200.376 18.5936 199.749 19.4677C199.141 20.3228 198.286 20.9879 197.184 21.4629C196.1 21.919 194.856 22.147 193.45 22.147C192.5 22.147 191.568 22.052 190.656 21.862C189.744 21.6719 188.965 21.4154 188.319 21.0924L187.977 18.7836Z" fill="white"/>
<path d="M178.246 0V21.5484L176.08 21.7764L175.908 20.7788C174.407 21.6909 172.954 22.147 171.548 22.147C169.685 22.147 168.222 21.4914 167.158 20.1803C166.113 18.8501 165.59 17.0259 165.59 14.7076C165.59 12.1994 166.208 10.2611 167.443 8.89299C168.678 7.50584 170.417 6.81226 172.659 6.81226C173.742 6.81226 174.711 6.94527 175.566 7.2113V0.313534L178.246 0ZM172.175 20.0377C172.688 20.0377 173.248 19.9522 173.856 19.7812C174.483 19.5912 175.053 19.3442 175.566 19.0401V9.23503C174.768 9.007 173.923 8.89299 173.03 8.89299C171.471 8.89299 170.303 9.36804 169.524 10.3182C168.764 11.2683 168.384 12.7124 168.384 14.6506C168.384 16.4178 168.697 17.7575 169.324 18.6696C169.97 19.5817 170.92 20.0377 172.175 20.0377Z" fill="white"/>
<path d="M162.3 21.1779C160.989 21.8239 159.526 22.147 157.911 22.147C155.554 22.147 153.759 21.4914 152.524 20.1802C151.288 18.8691 150.671 16.9499 150.671 14.4226C150.671 12.8644 150.946 11.5153 151.497 10.3752C152.049 9.21602 152.818 8.33242 153.806 7.72436C154.794 7.11629 155.925 6.81226 157.198 6.81226C158.984 6.81226 160.39 7.34432 161.417 8.40843C162.443 9.47255 162.956 10.9452 162.956 12.8264C162.956 13.5675 162.889 14.2991 162.756 15.0212H153.322C153.379 18.3845 155.013 20.0662 158.224 20.0662C159.611 20.0662 160.97 19.7622 162.3 19.1541V21.1779ZM157.198 8.77897C156.096 8.77897 155.193 9.16852 154.49 9.9476C153.806 10.7267 153.417 11.7813 153.322 13.1115H160.476C160.495 13.0164 160.505 12.9214 160.505 12.8264C160.505 12.7314 160.505 12.6364 160.505 12.5414C160.505 11.3633 160.21 10.4417 159.621 9.77659C159.051 9.11151 158.243 8.77897 157.198 8.77897Z" fill="white"/>
<path d="M144.477 9.17802V17.5009C144.477 18.356 144.667 18.9926 145.047 19.4107C145.427 19.8097 146.007 20.0092 146.786 20.0092C147.375 20.0092 148.002 19.9047 148.667 19.6957V21.6054C147.869 21.9094 147.042 22.0615 146.187 22.0615C144.743 22.0615 143.65 21.6814 142.909 20.9213C142.168 20.1612 141.798 19.0496 141.798 17.5865V9.17802H139.631V7.35382L141.912 7.26831L142.111 3.6484L144.477 3.39188V7.23981H148.524V9.17802H144.477Z" fill="white"/>
<path d="M134.184 21.7194V7.46784L136.864 7.15431V21.7194H134.184ZM135.524 4.27549C134.973 4.27549 134.536 4.13297 134.213 3.84794C133.909 3.5439 133.757 3.13536 133.757 2.6223C133.757 2.10924 133.909 1.7102 134.213 1.42517C134.536 1.12113 134.973 0.969116 135.524 0.969116C136.075 0.969116 136.503 1.12113 136.807 1.42517C137.13 1.7102 137.291 2.10924 137.291 2.6223C137.291 3.13536 137.13 3.5439 136.807 3.84794C136.503 4.13297 136.075 4.27549 135.524 4.27549Z" fill="white"/>
<path d="M127.348 21.7194V11.6578C127.348 9.83359 126.464 8.92149 124.697 8.92149C123.633 8.92149 122.512 9.27303 121.334 9.97611C121.429 10.3942 121.476 10.8122 121.476 11.2302V21.7194H118.797V11.6578C118.797 9.83359 117.913 8.92149 116.146 8.92149C115.101 8.92149 114.028 9.25403 112.925 9.9191V21.7194H110.246V7.41082L112.412 7.1828L112.583 8.18041C114.047 7.26831 115.481 6.81226 116.887 6.81226C118.522 6.81226 119.757 7.33481 120.593 8.37993C122.303 7.33481 123.918 6.81226 125.438 6.81226C126.863 6.81226 127.985 7.2018 128.802 7.98089C129.619 8.75997 130.027 9.84309 130.027 11.2302V21.7194H127.348Z" fill="white"/>
<path d="M103.232 21.7194V7.46784L105.911 7.15431V21.7194H103.232ZM104.571 4.27549C104.02 4.27549 103.583 4.13297 103.26 3.84794C102.956 3.5439 102.804 3.13536 102.804 2.6223C102.804 2.10924 102.956 1.7102 103.26 1.42517C103.583 1.12113 104.02 0.969116 104.571 0.969116C105.122 0.969116 105.55 1.12113 105.854 1.42517C106.177 1.7102 106.339 2.10924 106.339 2.6223C106.339 3.13536 106.177 3.5439 105.854 3.84794C105.55 4.13297 105.122 4.27549 104.571 4.27549Z" fill="white"/>
<path d="M96.2173 21.7194V0.313534L98.8966 0V21.7194H96.2173Z" fill="white"/>
<path d="M89.3646 21.7194V11.9713C89.3646 9.9381 88.3575 8.92149 86.3433 8.92149C85.8112 8.92149 85.2126 9.0165 84.5476 9.20652C83.9015 9.37754 83.3124 9.61507 82.7804 9.9191V21.7194H80.1011V7.41082L82.2673 7.1828L82.4383 8.18041C83.9965 7.26831 85.5452 6.81226 87.0844 6.81226C88.6615 6.81226 89.8777 7.2303 90.7328 8.06639C91.6069 8.88349 92.0439 10.0521 92.0439 11.5723V21.7194H89.3646Z" fill="white"/>
<path d="M73.6159 21.7764L73.4449 20.7788C71.8867 21.6909 70.338 22.147 68.7989 22.147C67.2597 22.147 66.0625 21.7289 65.2074 20.8928C64.3523 20.0567 63.9248 18.8881 63.9248 17.3869V7.23981H66.6041V16.9879C66.6041 19.0211 67.5827 20.0377 69.5399 20.0377C70.091 20.0377 70.6896 19.9522 71.3356 19.7812C71.9817 19.5912 72.5708 19.3442 73.1028 19.0401V7.23981H75.7821V21.5484L73.6159 21.7764Z" fill="white"/>
<path d="M50.1171 21.7194V11.9713C50.1171 9.9381 49.1099 8.92149 47.0957 8.92149C46.5637 8.92149 45.9651 9.0165 45.3 9.20652C44.6539 9.37754 44.0649 9.61507 43.5328 9.9191V21.7194H40.8535V7.41082L43.0198 7.1828L43.1908 8.18041C44.749 7.26831 46.2976 6.81226 47.8368 6.81226C49.414 6.81226 50.6301 7.2303 51.4852 8.06639C52.3593 8.88349 52.7963 10.0521 52.7963 11.5723V21.7194H50.1171Z" fill="white"/>
<path d="M30.4429 21.7194V7.41082L32.6091 7.1828L32.8371 8.49395C34.0913 7.42983 35.4309 6.89777 36.8561 6.89777C37.2931 6.89777 37.7302 6.96427 38.1672 7.09729V9.29203C37.7112 9.17802 37.2456 9.12101 36.7706 9.12101C35.4024 9.12101 34.1863 9.54856 33.1222 10.4037V21.7194H30.4429Z" fill="white"/>
<path d="M24.1107 21.7764L23.9397 20.7788C22.3435 21.6909 20.7948 22.147 19.2937 22.147C17.7925 22.147 16.5954 21.7479 15.7023 20.9498C14.8282 20.1327 14.3911 19.0401 14.3911 17.672C14.3911 16.2468 14.8852 15.1447 15.8733 14.3656C16.8614 13.5675 18.2485 13.1685 20.0347 13.1685C21.0799 13.1685 22.2865 13.292 23.6546 13.539V12.0283C23.6546 10.9832 23.3506 10.2041 22.7425 9.69108C22.1535 9.17802 21.2414 8.92149 20.0062 8.92149C18.5621 8.92149 16.9849 9.25403 15.2747 9.9191V7.83837C16.0728 7.51533 16.9374 7.26831 17.8685 7.09729C18.7996 6.90727 19.6832 6.81226 20.5193 6.81226C22.4005 6.81226 23.8257 7.2493 24.7948 8.1234C25.7829 8.9975 26.2769 10.2801 26.2769 11.9713V21.5484L24.1107 21.7764ZM19.9777 20.0662C20.5288 20.0662 21.1464 19.9712 21.8304 19.7812C22.5145 19.5912 23.1226 19.3442 23.6546 19.0401V15.3917C22.7615 15.1637 21.7069 15.0497 20.4908 15.0497C19.3507 15.0497 18.5051 15.2682 17.954 15.7052C17.422 16.1233 17.1559 16.7599 17.1559 17.615C17.1559 19.2491 18.0965 20.0662 19.9777 20.0662Z" fill="white"/>
<path d="M2.76481 12.7409V19.4392H12.1709V21.7194H0V1.76721H12.1139V4.04747H2.76481V10.4607H10.9167V12.7409H2.76481Z" fill="white"/>
</svg>
