<svg width="322" height="55" viewBox="0 0 322 55" fill="none" xmlns="http://www.w3.org/2000/svg">
<path d="M7.34521 16.8457C7.34521 15.2937 7.68999 14.1158 8.38755 13.3119C9.08512 12.5001 10.0954 12.1022 11.4183 12.1022C12.7413 12.1022 13.7516 12.5081 14.4491 13.3119C15.1467 14.1237 15.4915 15.3017 15.4915 16.8457C15.4915 18.3897 15.1467 19.5756 14.4491 20.3794C13.7516 21.1912 12.7413 21.5892 11.4183 21.5892C10.0954 21.5892 9.08512 21.1833 8.38755 20.3794C7.68999 19.5676 7.34521 18.3897 7.34521 16.8457ZM9.31764 16.8457C9.31764 17.9758 9.48601 18.8115 9.83079 19.3368C10.1675 19.8621 10.7047 20.1248 11.4264 20.1248C12.148 20.1248 12.6772 19.8621 13.0219 19.3368C13.3667 18.8115 13.5351 17.9758 13.5351 16.8457C13.5351 15.7155 13.3667 14.8798 13.0219 14.3545C12.6852 13.8293 12.148 13.5666 11.4264 13.5666C10.7047 13.5666 10.1675 13.8293 9.83079 14.3545C9.49403 14.8798 9.31764 15.7155 9.31764 16.8457Z" fill="white"/>
<path d="M21.9863 21.3824V15.9624H19.1639V21.3824H17.4V15.9624H16.4058V14.7925L17.4 14.7527V13.6862C17.4 12.954 17.6004 12.373 18.0094 11.9511C18.4183 11.5293 18.9715 11.3224 19.6851 11.3224C20.1502 11.3224 20.5751 11.394 20.968 11.5452V12.7391C20.6553 12.6595 20.3827 12.6197 20.1421 12.6197C19.8294 12.6197 19.5889 12.7072 19.4205 12.8744C19.2521 13.0415 19.1639 13.2882 19.1639 13.6225V14.7208H21.9863V13.6862C21.9863 12.954 22.1867 12.373 22.5956 11.9511C22.9965 11.5293 23.5578 11.3224 24.2714 11.3224C24.6482 11.3224 25.0331 11.3861 25.418 11.5214V12.7152C25.1774 12.6515 24.9449 12.6276 24.7284 12.6276C24.4157 12.6276 24.1752 12.7152 23.9988 12.8823C23.8224 13.0495 23.7422 13.2962 23.7422 13.6305V14.7288H25.3378V15.9624H23.7422V21.3824H21.9783H21.9863ZM27.4465 13.6782C27.1178 13.6782 26.8612 13.5907 26.6768 13.4156C26.4924 13.2405 26.4042 13.0017 26.4042 12.6993C26.4042 12.3968 26.4924 12.1581 26.6768 11.983C26.8612 11.8079 27.1178 11.7203 27.4465 11.7203C27.7753 11.7203 28.0398 11.8079 28.2243 11.983C28.4087 12.1581 28.5049 12.3968 28.5049 12.6993C28.5049 13.0017 28.4087 13.2405 28.2243 13.4156C28.0398 13.5907 27.7753 13.6782 27.4465 13.6782ZM26.5726 21.3824V14.8561L28.3365 14.689V21.3824H26.5726Z" fill="white"/>
<path d="M34.9831 21.1356C34.3176 21.438 33.628 21.5893 32.9064 21.5893C31.8801 21.5893 31.0863 21.2868 30.5331 20.6819C29.9798 20.0771 29.6992 19.2095 29.6992 18.0714C29.6992 16.9333 29.9718 16.0499 30.5331 15.437C31.0863 14.8242 31.8801 14.5138 32.9144 14.5138C33.5879 14.5138 34.2614 14.665 34.943 14.9675V16.2488C34.3176 15.9942 33.7563 15.8748 33.2672 15.8748C32.1206 15.8748 31.5434 16.599 31.5434 18.0396C31.5434 18.7559 31.6877 19.2971 31.9843 19.6712C32.281 20.0452 32.706 20.2203 33.2752 20.2203C33.7643 20.2203 34.3336 20.093 34.9911 19.8463V21.1276L34.9831 21.1356Z" fill="white"/>
<path d="M37.1722 13.6782C36.8435 13.6782 36.5869 13.5907 36.4025 13.4156C36.2181 13.2405 36.1299 13.0017 36.1299 12.6993C36.1299 12.3968 36.2181 12.1581 36.4025 11.983C36.5869 11.8079 36.8435 11.7203 37.1722 11.7203C37.501 11.7203 37.7655 11.8079 37.95 11.983C38.1344 12.1581 38.2306 12.3968 38.2306 12.6993C38.2306 13.0017 38.1344 13.2405 37.95 13.4156C37.7655 13.5907 37.501 13.6782 37.1722 13.6782ZM36.2983 21.3825V14.8561L38.0622 14.689V21.3825H36.2983Z" fill="white"/>
<path d="M43.8429 21.4221L43.7387 20.9923C43.0572 21.3903 42.3756 21.5893 41.7021 21.5893C41.0286 21.5893 40.4513 21.3982 40.0344 21.0162C39.6174 20.6342 39.417 20.1248 39.417 19.4722C39.417 18.8196 39.6495 18.2863 40.1065 17.9122C40.5636 17.5382 41.205 17.3551 42.0309 17.3551C42.5199 17.3551 43.0171 17.4029 43.5222 17.4984V16.9811C43.5222 16.5831 43.4019 16.2886 43.1694 16.1056C42.9369 15.9225 42.5681 15.827 42.0709 15.827C41.4055 15.827 40.6758 15.9782 39.874 16.2648V14.9913C40.2509 14.8481 40.6598 14.7287 41.1168 14.6411C41.5658 14.5536 41.9988 14.5138 42.3997 14.5138C43.3217 14.5138 44.0273 14.7207 44.5244 15.1346C45.0135 15.5485 45.2621 16.1454 45.2621 16.9253V21.2709L43.8509 21.4142L43.8429 21.4221ZM42.2393 20.3318C42.4318 20.3318 42.6402 20.2999 42.8727 20.2442C43.1053 20.1805 43.3217 20.1089 43.5222 20.0134V18.5967C43.1213 18.5012 42.7605 18.4535 42.4398 18.4535C41.6059 18.4535 41.1809 18.7718 41.1809 19.4165C41.1809 19.7189 41.2691 19.9497 41.4455 20.1009C41.6219 20.2601 41.8865 20.3318 42.2393 20.3318Z" fill="white"/>
<path d="M46.8901 21.3824V11.6248L48.6541 11.4576V21.3824H46.8901Z" fill="white"/>
<path d="M53.7773 21.3827V12.4846C54.2023 12.3971 54.7074 12.3255 55.2847 12.2777C55.862 12.23 56.3752 12.1981 56.8242 12.1981C57.9146 12.1981 58.7405 12.3971 59.3097 12.811C59.879 13.2169 60.1597 13.8058 60.1597 14.5858C60.1597 15.5488 59.6465 16.2174 58.6202 16.6074C59.2536 16.7665 59.7427 17.0371 60.0715 17.4271C60.4002 17.8171 60.5686 18.3026 60.5686 18.8836C60.5686 19.6874 60.2799 20.3082 59.7026 20.738C59.1253 21.1678 58.3075 21.3907 57.2331 21.3907H53.7854L53.7773 21.3827ZM56.744 13.5591C56.2068 13.5591 55.7979 13.5909 55.5172 13.6466V16.0821H56.9525C57.4095 16.0821 57.7623 15.9706 58.0269 15.7478C58.2915 15.5249 58.4198 15.2145 58.4198 14.8166C58.4198 14.3948 58.2834 14.0764 58.0108 13.8695C57.7382 13.6626 57.3133 13.5591 56.752 13.5591H56.744ZM57.1609 20.0217C58.2033 20.0217 58.7324 19.5919 58.7324 18.7244C58.7324 18.3026 58.5961 17.9763 58.3235 17.7455C58.0509 17.5147 57.658 17.4032 57.1529 17.4032H55.5172V20.0217H57.1609Z" fill="white"/>
<path d="M65.9728 21.4221L65.8686 20.9923C65.187 21.3903 64.5055 21.5893 63.832 21.5893C63.1585 21.5893 62.5812 21.3982 62.1643 21.0162C61.7473 20.6342 61.5469 20.1248 61.5469 19.4722C61.5469 18.8196 61.7794 18.2863 62.2364 17.9122C62.6934 17.5382 63.3349 17.3551 64.1607 17.3551C64.6498 17.3551 65.1469 17.4029 65.6521 17.4984V16.9811C65.6521 16.5831 65.5318 16.2886 65.2993 16.1056C65.0668 15.9225 64.6979 15.827 64.2008 15.827C63.5353 15.827 62.8057 15.9782 62.0039 16.2648V14.9913C62.3807 14.8481 62.7897 14.7287 63.2467 14.6411C63.6957 14.5536 64.1287 14.5138 64.5296 14.5138C65.4516 14.5138 66.1572 14.7207 66.6543 15.1346C67.1434 15.5485 67.392 16.1454 67.392 16.9253V21.2709L65.9808 21.4142L65.9728 21.4221ZM64.3692 20.3318C64.5616 20.3318 64.7701 20.2999 65.0026 20.2442C65.2351 20.1805 65.4516 20.1089 65.6521 20.0134V18.5967C65.2512 18.5012 64.8904 18.4535 64.5697 18.4535C63.7358 18.4535 63.3108 18.7718 63.3108 19.4165C63.3108 19.7189 63.399 19.9497 63.5754 20.1009C63.7518 20.2601 64.0164 20.3318 64.3692 20.3318Z" fill="white"/>
<path d="M73.1244 21.3824V17.013C73.1244 16.623 73.0363 16.3365 72.8599 16.1534C72.6835 15.9703 72.4108 15.8748 72.034 15.8748C71.8255 15.8748 71.6091 15.9067 71.3765 15.9703C71.152 16.034 70.9516 16.1216 70.7752 16.225V21.3904H69.0112V14.8402L70.4224 14.6969L70.5266 15.1267C71.2082 14.7288 71.8736 14.5298 72.5391 14.5298C73.2848 14.5298 73.8621 14.7288 74.271 15.1187C74.6799 15.5087 74.8804 16.0659 74.8804 16.7822V21.3904H73.1164L73.1244 21.3824Z" fill="white"/>
<path d="M76.5322 21.3824V11.6248L78.2962 11.4576V17.4746L80.6134 14.7208H82.6018L80.0361 17.7054L82.7943 21.3744H80.6615L78.2962 18.1988V21.3744H76.5322V21.3824Z" fill="white"/>
<path d="M90.9967 21.4221L90.8925 20.9923C90.211 21.3903 89.5294 21.5893 88.8559 21.5893C88.1824 21.5893 87.6051 21.3982 87.1882 21.0162C86.7713 20.6342 86.5708 20.1248 86.5708 19.4722C86.5708 18.8196 86.8033 18.2863 87.2603 17.9122C87.7174 17.5382 88.3588 17.3551 89.1847 17.3551C89.6738 17.3551 90.1709 17.4029 90.676 17.4984V16.9811C90.676 16.5831 90.5557 16.2886 90.3232 16.1056C90.0907 15.9225 89.7219 15.827 89.2248 15.827C88.5593 15.827 87.8296 15.9782 87.0278 16.2648V14.9913C87.4047 14.8481 87.8136 14.7287 88.2706 14.6411C88.7196 14.5536 89.1526 14.5138 89.5535 14.5138C90.4756 14.5138 91.1811 14.7207 91.6783 15.1346C92.1673 15.5485 92.4159 16.1454 92.4159 16.9253V21.2709L91.0047 21.4142L90.9967 21.4221ZM89.3931 20.3318C89.5856 20.3318 89.794 20.2999 90.0266 20.2442C90.2591 20.1805 90.4756 20.1089 90.676 20.0134V18.5967C90.2751 18.5012 89.9143 18.4535 89.5936 18.4535C88.7597 18.4535 88.3348 18.7718 88.3348 19.4165C88.3348 19.7189 88.423 19.9497 88.5993 20.1009C88.7757 20.2601 89.0403 20.3318 89.3931 20.3318Z" fill="white"/>
<path d="M98.1489 21.3824V17.013C98.1489 16.623 98.0607 16.3365 97.8843 16.1534C97.7079 15.9703 97.4353 15.8748 97.0584 15.8748C96.85 15.8748 96.6335 15.9067 96.4009 15.9703C96.1764 16.034 95.976 16.1216 95.7996 16.225V21.3904H94.0356V14.8402L95.4468 14.6969L95.551 15.1267C96.2326 14.7288 96.8981 14.5298 97.5635 14.5298C98.3092 14.5298 98.8865 14.7288 99.2954 15.1187C99.7044 15.5087 99.9048 16.0659 99.9048 16.7822V21.3904H98.1408L98.1489 21.3824Z" fill="white"/>
<path d="M107.425 11.4576V21.2789L106.014 21.4222L105.91 20.9924C105.597 21.1755 105.268 21.3187 104.916 21.4301C104.563 21.5416 104.25 21.5893 103.961 21.5893C103.104 21.5893 102.438 21.2869 101.957 20.682C101.476 20.0771 101.235 19.2335 101.235 18.167C101.235 17.005 101.524 16.1136 102.093 15.4769C102.663 14.8402 103.464 14.5218 104.507 14.5218C104.884 14.5218 105.268 14.5696 105.669 14.6651V11.6327L107.433 11.4656L107.425 11.4576ZM104.459 20.2443C104.643 20.2443 104.843 20.2124 105.068 20.1488C105.292 20.0851 105.485 19.9975 105.661 19.8941V15.9146C105.389 15.851 105.1 15.8271 104.795 15.8271C104.21 15.8271 103.777 16.0181 103.496 16.3922C103.216 16.7662 103.071 17.3472 103.071 18.1352C103.071 19.5439 103.537 20.2522 104.459 20.2522V20.2443Z" fill="white"/>
<path d="M118.763 20.9923C117.977 21.3902 117.127 21.5892 116.197 21.5892C114.915 21.5892 113.928 21.1753 113.223 20.3556C112.517 19.5358 112.172 18.3659 112.172 16.8377C112.172 15.3096 112.525 14.1795 113.231 13.3438C113.936 12.5081 114.923 12.0942 116.197 12.0942C117.095 12.0942 117.929 12.2932 118.707 12.6912V14.1317C118.29 13.9327 117.921 13.7895 117.593 13.7099C117.272 13.6303 116.911 13.5905 116.518 13.5905C115.74 13.5905 115.155 13.8611 114.762 14.4103C114.369 14.9594 114.169 15.7713 114.169 16.8457C114.169 19.0185 114.955 20.1009 116.518 20.1009C116.895 20.1009 117.256 20.0611 117.593 19.9736C117.937 19.886 118.322 19.7507 118.747 19.5597V21.0003L118.763 20.9923Z" fill="white"/>
<path d="M120.159 21.3826V14.8324L121.57 14.6891L121.714 15.3019C122.259 14.8085 122.869 14.5618 123.534 14.5618C123.743 14.5618 123.959 14.5936 124.192 14.6493V16.0899C123.927 16.0262 123.703 16.0023 123.502 16.0023C122.901 16.0023 122.38 16.1695 121.931 16.4958V21.3905H120.167L120.159 21.3826Z" fill="white"/>
<path d="M130.597 21.1197C129.964 21.4301 129.258 21.5893 128.481 21.5893C127.334 21.5893 126.452 21.2868 125.843 20.6819C125.233 20.0771 124.929 19.1936 124.929 18.0316C124.929 17.3233 125.065 16.7025 125.338 16.1692C125.61 15.636 125.987 15.2301 126.468 14.9436C126.949 14.6571 127.494 14.5138 128.112 14.5138C128.986 14.5138 129.667 14.7605 130.164 15.2619C130.662 15.7633 130.91 16.4398 130.91 17.3074C130.91 17.7133 130.87 18.1112 130.79 18.5012H126.661C126.693 19.1061 126.885 19.5518 127.222 19.8463C127.559 20.1407 128.056 20.284 128.697 20.284C129.339 20.284 129.988 20.1407 130.589 19.8542V21.1276L130.597 21.1197ZM128.112 15.7395C127.703 15.7395 127.366 15.8827 127.11 16.1613C126.853 16.4398 126.693 16.8219 126.653 17.3074H129.29V17.1164C129.29 16.6627 129.186 16.3205 128.986 16.0897C128.785 15.8588 128.497 15.7395 128.112 15.7395Z" fill="white"/>
<path d="M138.15 11.4576V21.2789L136.739 21.4222L136.635 20.9924C136.322 21.1755 135.993 21.3187 135.641 21.4301C135.288 21.5416 134.975 21.5893 134.687 21.5893C133.829 21.5893 133.163 21.2869 132.682 20.682C132.201 20.0771 131.96 19.2335 131.96 18.167C131.96 17.005 132.249 16.1136 132.818 15.4769C133.388 14.8402 134.189 14.5218 135.232 14.5218C135.609 14.5218 135.993 14.5696 136.394 14.6651V11.6327L138.158 11.4656L138.15 11.4576ZM135.184 20.2443C135.368 20.2443 135.569 20.2124 135.793 20.1488C136.018 20.0851 136.21 19.9975 136.386 19.8941V15.9146C136.114 15.851 135.825 15.8271 135.52 15.8271C134.935 15.8271 134.502 16.0181 134.222 16.3922C133.941 16.7662 133.797 17.3472 133.797 18.1352C133.797 19.5439 134.262 20.2522 135.184 20.2522V20.2443Z" fill="white"/>
<path d="M140.724 13.6782C140.395 13.6782 140.139 13.5907 139.954 13.4156C139.77 13.2405 139.682 13.0017 139.682 12.6993C139.682 12.3968 139.77 12.1581 139.954 11.983C140.139 11.8079 140.395 11.7203 140.724 11.7203C141.053 11.7203 141.317 11.8079 141.502 11.983C141.686 12.1581 141.782 12.3968 141.782 12.6993C141.782 13.0017 141.686 13.2405 141.502 13.4156C141.317 13.5907 141.053 13.6782 140.724 13.6782ZM139.85 21.3825V14.8561L141.614 14.689V21.3825H139.85Z" fill="white"/>
<path d="M145.495 15.9623V19.2971C145.495 19.9418 145.808 20.2681 146.425 20.2681C146.65 20.2681 146.93 20.2203 147.259 20.1248V21.3027C146.874 21.4778 146.433 21.5654 145.936 21.5654C145.214 21.5654 144.661 21.3823 144.292 21.0083C143.915 20.6342 143.731 20.093 143.731 19.3847V15.9623H142.737V14.7924L143.819 14.7526L143.94 13.0812L145.495 12.9141V14.7287H147.219V15.9623H145.495Z" fill="white"/>
<path d="M158.083 20.9923C157.298 21.3902 156.448 21.5892 155.518 21.5892C154.235 21.5892 153.249 21.1753 152.543 20.3556C151.837 19.5358 151.493 18.3659 151.493 16.8377C151.493 15.3096 151.845 14.1795 152.551 13.3438C153.257 12.5081 154.243 12.0942 155.518 12.0942C156.416 12.0942 157.25 12.2932 158.027 12.6912V14.1317C157.61 13.9327 157.242 13.7895 156.913 13.7099C156.592 13.6303 156.231 13.5905 155.838 13.5905C155.061 13.5905 154.475 13.8611 154.082 14.4103C153.69 14.9594 153.489 15.7713 153.489 16.8457C153.489 19.0185 154.275 20.1009 155.838 20.1009C156.215 20.1009 156.576 20.0611 156.913 19.9736C157.258 19.886 157.642 19.7507 158.067 19.5597V21.0003L158.083 20.9923Z" fill="white"/>
<path d="M163.576 21.4221L163.472 20.9923C162.79 21.3903 162.109 21.5893 161.435 21.5893C160.762 21.5893 160.184 21.3982 159.767 21.0162C159.35 20.6342 159.15 20.1248 159.15 19.4722C159.15 18.8196 159.382 18.2863 159.839 17.9122C160.296 17.5382 160.938 17.3551 161.764 17.3551C162.253 17.3551 162.75 17.4029 163.255 17.4984V16.9811C163.255 16.5831 163.135 16.2886 162.902 16.1056C162.67 15.9225 162.301 15.827 161.804 15.827C161.138 15.827 160.409 15.9782 159.607 16.2648V14.9913C159.984 14.8481 160.393 14.7287 160.85 14.6411C161.299 14.5536 161.732 14.5138 162.133 14.5138C163.055 14.5138 163.76 14.7207 164.257 15.1346C164.746 15.5485 164.995 16.1454 164.995 16.9253V21.2709L163.584 21.4142L163.576 21.4221ZM161.972 20.3318C162.165 20.3318 162.373 20.2999 162.606 20.2442C162.838 20.1805 163.055 20.1089 163.255 20.0134V18.5967C162.854 18.5012 162.493 18.4535 162.173 18.4535C161.339 18.4535 160.914 18.7718 160.914 19.4165C160.914 19.7189 161.002 19.9497 161.178 20.1009C161.355 20.2601 161.619 20.3318 161.972 20.3318Z" fill="white"/>
<path d="M166.614 21.3826V14.8324L168.025 14.6891L168.17 15.3019C168.715 14.8085 169.324 14.5618 169.99 14.5618C170.198 14.5618 170.415 14.5936 170.647 14.6493V16.0899C170.383 16.0262 170.158 16.0023 169.958 16.0023C169.356 16.0023 168.835 16.1695 168.386 16.4958V21.3905H166.622L166.614 21.3826Z" fill="white"/>
<path d="M177.582 11.4576V21.2789L176.171 21.4222L176.067 20.9924C175.754 21.1755 175.426 21.3187 175.073 21.4301C174.72 21.5416 174.407 21.5893 174.119 21.5893C173.261 21.5893 172.595 21.2869 172.114 20.682C171.633 20.0771 171.393 19.2335 171.393 18.167C171.393 17.005 171.681 16.1136 172.25 15.4769C172.82 14.8402 173.622 14.5218 174.664 14.5218C175.041 14.5218 175.426 14.5696 175.827 14.6651V11.6327L177.59 11.4656L177.582 11.4576ZM174.616 20.2443C174.8 20.2443 175.001 20.2124 175.225 20.1488C175.45 20.0851 175.642 19.9975 175.818 19.8941V15.9146C175.546 15.851 175.257 15.8271 174.953 15.8271C174.367 15.8271 173.934 16.0181 173.654 16.3922C173.373 16.7662 173.229 17.3472 173.229 18.1352C173.229 19.5439 173.694 20.2522 174.616 20.2522V20.2443Z" fill="white"/>
<path d="M182.707 21.3827V12.4846C183.164 12.3971 183.669 12.3255 184.222 12.2777C184.775 12.23 185.264 12.1981 185.673 12.1981C186.844 12.1981 187.742 12.4528 188.367 12.9622C188.993 13.4715 189.305 14.1958 189.305 15.1429C189.305 16.09 188.977 16.8063 188.319 17.3316C187.662 17.8569 186.756 18.1275 185.609 18.1275H184.535V21.3827H182.707ZM185.609 13.583C185.208 13.583 184.847 13.6068 184.535 13.6626V16.7347H185.609C186.194 16.7347 186.643 16.5994 186.956 16.3288C187.269 16.0582 187.429 15.6682 187.429 15.1509C187.429 14.1083 186.82 13.583 185.609 13.583Z" fill="white"/>
<path d="M194.429 21.4221L194.325 20.9923C193.643 21.3903 192.962 21.5893 192.288 21.5893C191.615 21.5893 191.037 21.3982 190.62 21.0162C190.203 20.6342 190.003 20.1248 190.003 19.4722C190.003 18.8196 190.235 18.2863 190.692 17.9122C191.15 17.5382 191.791 17.3551 192.617 17.3551C193.106 17.3551 193.603 17.4029 194.108 17.4984V16.9811C194.108 16.5831 193.988 16.2886 193.755 16.1056C193.523 15.9225 193.154 15.827 192.657 15.827C191.991 15.827 191.262 15.9782 190.46 16.2648V14.9913C190.837 14.8481 191.246 14.7287 191.703 14.6411C192.152 14.5536 192.585 14.5138 192.986 14.5138C193.908 14.5138 194.613 14.7207 195.11 15.1346C195.599 15.5485 195.848 16.1454 195.848 16.9253V21.2709L194.437 21.4142L194.429 21.4221ZM192.825 20.3318C193.018 20.3318 193.226 20.2999 193.459 20.2442C193.691 20.1805 193.908 20.1089 194.108 20.0134V18.5967C193.707 18.5012 193.346 18.4535 193.026 18.4535C192.192 18.4535 191.767 18.7718 191.767 19.4165C191.767 19.7189 191.855 19.9497 192.031 20.1009C192.208 20.2601 192.472 20.3318 192.825 20.3318Z" fill="white"/>
<path d="M197.475 21.3826V14.8324L198.886 14.6891L199.031 15.3019C199.576 14.8085 200.185 14.5618 200.851 14.5618C201.059 14.5618 201.276 14.5936 201.508 14.6493V16.0899C201.244 16.0262 201.019 16.0023 200.819 16.0023C200.217 16.0023 199.696 16.1695 199.247 16.4958V21.3905H197.483L197.475 21.3826Z" fill="white"/>
<path d="M204.756 15.9623V19.2971C204.756 19.9418 205.069 20.2681 205.686 20.2681C205.911 20.2681 206.191 20.2203 206.52 20.1248V21.3027C206.135 21.4778 205.694 21.5654 205.197 21.5654C204.476 21.5654 203.922 21.3823 203.554 21.0083C203.177 20.6342 202.992 20.093 202.992 19.3847V15.9623H201.998V14.7924L203.08 14.7526L203.201 13.0812L204.756 12.9141V14.7287H206.48V15.9623H204.756Z" fill="white"/>
<path d="M211.811 21.3824V17.013C211.811 16.623 211.723 16.3365 211.547 16.1534C211.37 15.9703 211.098 15.8748 210.721 15.8748C210.513 15.8748 210.296 15.9067 210.064 15.9703C209.839 16.034 209.639 16.1216 209.462 16.225V21.3904H207.698V14.8402L209.109 14.6969L209.214 15.1267C209.895 14.7288 210.561 14.5298 211.226 14.5298C211.972 14.5298 212.549 14.7288 212.958 15.1187C213.367 15.5087 213.567 16.0659 213.567 16.7822V21.3904H211.803L211.811 21.3824Z" fill="white"/>
<path d="M220.567 21.1197C219.934 21.4301 219.228 21.5893 218.45 21.5893C217.304 21.5893 216.422 21.2868 215.812 20.6819C215.203 20.0771 214.898 19.1936 214.898 18.0316C214.898 17.3233 215.035 16.7025 215.307 16.1692C215.58 15.636 215.957 15.2301 216.438 14.9436C216.919 14.6571 217.464 14.5138 218.082 14.5138C218.956 14.5138 219.637 14.7605 220.134 15.2619C220.631 15.7633 220.88 16.4398 220.88 17.3074C220.88 17.7133 220.84 18.1112 220.76 18.5012H216.63C216.662 19.1061 216.855 19.5518 217.192 19.8463C217.528 20.1407 218.025 20.284 218.667 20.284C219.308 20.284 219.958 20.1407 220.559 19.8542V21.1276L220.567 21.1197ZM218.082 15.7395C217.673 15.7395 217.336 15.8827 217.079 16.1613C216.823 16.4398 216.662 16.8219 216.622 17.3074H219.26V17.1164C219.26 16.6627 219.156 16.3205 218.956 16.0897C218.755 15.8588 218.466 15.7395 218.082 15.7395Z" fill="white"/>
<path d="M222.251 21.3826V14.8324L223.662 14.6891L223.806 15.3019C224.352 14.8085 224.961 14.5618 225.627 14.5618C225.835 14.5618 226.051 14.5936 226.284 14.6493V16.0899C226.019 16.0262 225.795 16.0023 225.594 16.0023C224.993 16.0023 224.472 16.1695 224.023 16.4958V21.3905H222.259L222.251 21.3826Z" fill="white"/>
<path d="M233.476 21.5894C232.442 21.5894 231.648 21.2869 231.103 20.69C230.558 20.0931 230.285 19.2096 230.285 18.0476C230.285 16.8856 230.558 16.0261 231.095 15.4212C231.632 14.8243 232.426 14.5219 233.476 14.5219C234.527 14.5219 235.312 14.8243 235.858 15.4212C236.395 16.0261 236.667 16.9016 236.667 18.0476C236.667 19.1937 236.395 20.0851 235.85 20.69C235.304 21.2949 234.511 21.5894 233.476 21.5894ZM233.476 20.2363C233.957 20.2363 234.302 20.0692 234.511 19.727C234.719 19.3847 234.823 18.8276 234.823 18.0397C234.823 17.2518 234.719 16.7026 234.511 16.3683C234.302 16.034 233.957 15.8589 233.476 15.8589C232.995 15.8589 232.65 16.0261 232.442 16.3683C232.234 16.7105 232.129 17.2597 232.129 18.0397C232.129 18.8197 232.234 19.3927 232.442 19.727C232.65 20.0612 232.995 20.2363 233.476 20.2363Z" fill="white"/>
<path d="M238.455 21.3824V15.9624H237.461V14.7925L238.455 14.7527V13.6862C238.455 12.954 238.656 12.373 239.065 11.9511C239.473 11.5293 240.027 11.3224 240.74 11.3224C241.205 11.3224 241.67 11.4099 242.135 11.585V12.7789C241.743 12.6754 241.43 12.6197 241.197 12.6197C240.885 12.6197 240.644 12.7072 240.476 12.8744C240.307 13.0415 240.219 13.2882 240.219 13.6225V14.7208H241.815V15.9545H240.219V21.3745H238.455V21.3824Z" fill="white"/>
<path d="M320.797 34.5816C321.318 34.5816 321.735 34.9477 321.735 35.4491C321.735 35.9505 321.318 36.3246 320.797 36.3246C320.276 36.3246 319.859 35.9505 319.859 35.4491C319.859 34.9477 320.276 34.5816 320.797 34.5816ZM320.797 36.5633C321.47 36.5633 322 36.0699 322 35.4491C322 34.8283 321.47 34.3348 320.797 34.3348C320.123 34.3348 319.594 34.8283 319.594 35.4491C319.594 36.0699 320.123 36.5633 320.797 36.5633ZM321.045 35.5605C321.27 35.5446 321.382 35.4332 321.382 35.2183C321.382 34.9158 321.19 34.8681 320.893 34.8681H320.284V36.0301H320.548V35.5685H320.773L321.062 36.0301H321.35L321.045 35.5685V35.5605ZM320.548 35.3536V35.075H320.837C320.957 35.075 321.126 35.075 321.126 35.2024C321.126 35.3297 321.037 35.3536 320.901 35.3536H320.548Z" fill="white"/>
<path d="M256.18 0H313.437C316.516 0 319.025 2.48318 319.025 5.54736V30.9601C319.025 34.0164 316.524 36.5075 313.437 36.5075H256.18C253.101 36.5075 250.592 34.0243 250.592 30.9601V5.54736C250.592 2.48318 253.093 0 256.18 0Z" fill="white"/>
<path d="M316.067 2.92897C315.361 2.22859 314.431 1.84656 313.437 1.84656H297.425L306.637 17.0958L307.479 17.1993L307.968 17.8917V18.5523L308.562 18.6558L309.091 19.388V20.0167L309.684 20.1202C309.684 20.1202 310.278 20.749 310.278 20.7808C310.278 20.749 310.278 22.2054 310.278 22.2054C310.278 22.2054 311.577 23.3913 312.731 23.837C313.541 24.1474 313.645 25.4367 314.102 26.1371C314.736 27.1081 315.577 27.5299 315.401 28.0871C314.984 29.5833 313.437 32.0904 312.001 32.2337C312.001 32.2337 308.425 32.2337 306.317 32.2337V34.6452H313.421C315.473 34.6452 317.141 32.9818 317.141 30.9443V5.54745C317.141 4.56054 316.756 3.62935 316.051 2.93693L316.067 2.92897Z" fill="#BC0022"/>
<path d="M291.973 1.84658H256.18C255.186 1.84658 254.248 2.22861 253.55 2.92899C252.845 3.62938 252.46 4.55261 252.46 5.53951V30.9523C252.46 31.9392 252.845 32.8704 253.55 33.5628C254.256 34.2632 255.186 34.6452 256.18 34.6452H279.432C278.847 33.6822 278.198 32.5839 277.989 32.2496H275.215C275.215 25.4288 277.556 21.6324 280.33 20.9002C280.715 20.8286 280.539 18.9503 280.05 18.3931C280.05 18.3931 278.719 18.425 278.438 18.3613C278.085 18.2578 278.334 17.9077 278.334 17.9077L279.633 15.122L279.456 14.358H274.654C274.582 14.358 278.615 11.6042 278.615 11.6042C278.823 4.3616 286.296 3.80447 290.818 6.79702C293.488 8.57186 293.696 12.0499 293.488 14.4933C293.456 14.6286 292.79 14.5251 292.79 14.5251C292.79 14.5251 292.333 17.1675 293.528 17.1675H298.788C300.929 17.0958 302.997 18.5205 302.997 18.5205L303.518 16.7059L291.973 1.83862V1.84658ZM260.157 29.4242C258.746 29.4242 257.599 28.2861 257.599 26.8853C257.599 25.4845 258.746 24.3464 260.157 24.3464C261.568 24.3464 262.715 25.4845 262.715 26.8853C262.715 28.2861 261.576 29.4242 260.157 29.4242Z" fill="#041E42"/>
<path d="M11.4649 33.8728L12.3665 36.1621L13.276 33.8728H13.9424L14.2325 37.2755H13.6288L13.4484 34.8293L12.6174 36.9462H12.1078L11.261 34.7901L11.0807 37.2755H10.4848L10.7749 33.8728H11.4649ZM8.5091 37.2755V34.3903H7.49771V33.8728H10.1634V34.3903H9.152V37.2755H8.5091ZM14.8897 39.361L16.8654 33.4729H17.6103L15.6345 39.361H14.8897ZM20.9943 39.4786C20.4507 39.4786 19.9594 39.3479 19.5203 39.0866C19.0865 38.82 18.7494 38.4698 18.509 38.036C18.2685 37.6021 18.1483 37.1291 18.1483 36.6169C18.1483 36.0681 18.279 35.5741 18.5403 35.1351C18.8069 34.696 19.1545 34.3563 19.5831 34.1158C20.0169 33.8754 20.4873 33.7552 20.9943 33.7552C21.5379 33.7552 22.0266 33.8885 22.4604 34.155C22.8995 34.4164 23.2392 34.764 23.4797 35.1978C23.7201 35.6316 23.8403 36.1047 23.8403 36.6169C23.8403 37.1657 23.707 37.6596 23.4405 38.0987C23.1791 38.5377 22.8315 38.8775 22.3977 39.1179C21.9691 39.3583 21.5013 39.4786 20.9943 39.4786ZM20.9943 39.0317C21.4543 39.0317 21.862 38.9245 22.2174 38.7102C22.578 38.4907 22.8551 38.198 23.0484 37.8321C23.2471 37.4662 23.3464 37.0612 23.3464 36.6169C23.3464 36.1412 23.2392 35.7205 23.0249 35.3546C22.8159 34.9835 22.5336 34.6986 22.1782 34.5C21.8228 34.3014 21.4281 34.2021 20.9943 34.2021C20.5343 34.2021 20.124 34.3119 19.7634 34.5314C19.408 34.7457 19.1309 35.0358 18.9323 35.4016C18.7389 35.7675 18.6422 36.1726 18.6422 36.6169C18.6422 37.0925 18.7468 37.5159 18.9558 37.887C19.1701 38.2529 19.455 38.5351 19.8104 38.7337C20.1659 38.9324 20.5605 39.0317 20.9943 39.0317ZM22.0057 38.1379C21.7339 38.2842 21.4281 38.3574 21.0884 38.3574C20.6023 38.3574 20.2207 38.2032 19.9437 37.8948C19.6667 37.5865 19.5282 37.1605 19.5282 36.6169C19.5282 36.0733 19.6667 35.6473 19.9437 35.3389C20.226 35.0305 20.6075 34.8763 21.0884 34.8763C21.4177 34.8763 21.7182 34.9495 21.99 35.0959V35.5898C21.8541 35.5166 21.7234 35.4644 21.598 35.433C21.4778 35.3964 21.3445 35.3781 21.1982 35.3781C20.8898 35.3781 20.6467 35.4905 20.469 35.7153C20.2965 35.9348 20.2103 36.2353 20.2103 36.6169C20.2103 37.0037 20.2965 37.3068 20.469 37.5263C20.6467 37.7459 20.8898 37.8556 21.1982 37.8556C21.4543 37.8556 21.7234 37.7851 22.0057 37.644V38.1379ZM26.5003 39.361C26.5107 38.8905 26.6048 38.4829 26.7825 38.1379C26.9655 37.7929 27.2713 37.4401 27.6998 37.0795L28.3584 36.5228C28.625 36.298 28.8158 36.0968 28.9308 35.9191C29.0458 35.7414 29.1033 35.5584 29.1033 35.3703C29.1033 35.0933 29.0013 34.8737 28.7975 34.7117C28.5989 34.5497 28.3271 34.4687 27.9821 34.4687C27.5326 34.4687 27.0935 34.6255 26.6649 34.9391V34.3354C27.0883 34.027 27.5875 33.8728 28.1624 33.8728C28.5022 33.8728 28.8001 33.9381 29.0562 34.0688C29.3176 34.1942 29.5188 34.3693 29.6599 34.5941C29.801 34.8136 29.8716 35.0593 29.8716 35.3311C29.8716 35.6029 29.7984 35.859 29.6521 36.0994C29.5109 36.3346 29.2679 36.5986 28.9229 36.8913L28.2957 37.4244C28.003 37.6753 27.7809 37.9053 27.6293 38.1144C27.4777 38.3234 27.381 38.5325 27.3392 38.7416H29.1581C29.4613 38.7416 29.7226 38.7337 29.9422 38.7181V39.361H26.5003ZM32.7805 38.8984C33.1882 38.8984 33.4861 38.7207 33.6743 38.3653C33.8625 38.0046 33.9565 37.4401 33.9565 36.6718C33.9565 35.9034 33.8598 35.3415 33.6665 34.9861C33.4783 34.6307 33.183 34.453 32.7805 34.453C32.378 34.453 32.0801 34.6307 31.8867 34.9861C31.6986 35.3415 31.6045 35.9034 31.6045 36.6718C31.6045 37.4401 31.6986 38.0046 31.8867 38.3653C32.0749 38.7207 32.3728 38.8984 32.7805 38.8984ZM32.7805 39.4786C31.4843 39.4786 30.8361 38.543 30.8361 36.6718C30.8361 35.7466 30.9982 35.0488 31.3222 34.5784C31.6463 34.108 32.1324 33.8728 32.7805 33.8728C33.4286 33.8728 33.9147 34.108 34.2388 34.5784C34.5629 35.0488 34.7249 35.7466 34.7249 36.6718C34.7249 38.543 34.0768 39.4786 32.7805 39.4786ZM35.4964 39.361C35.5068 38.8905 35.6009 38.4829 35.7786 38.1379C35.9615 37.7929 36.2673 37.4401 36.6959 37.0795L37.3545 36.5228C37.6211 36.298 37.8118 36.0968 37.9268 35.9191C38.0418 35.7414 38.0993 35.5584 38.0993 35.3703C38.0993 35.0933 37.9974 34.8737 37.7935 34.7117C37.5949 34.5497 37.3231 34.4687 36.9782 34.4687C36.5286 34.4687 36.0896 34.6255 35.661 34.9391V34.3354C36.0844 34.027 36.5835 33.8728 37.1585 33.8728C37.4982 33.8728 37.7962 33.9381 38.0523 34.0688C38.3136 34.1942 38.5148 34.3693 38.656 34.5941C38.7971 34.8136 38.8677 35.0593 38.8677 35.3311C38.8677 35.6029 38.7945 35.859 38.6481 36.0994C38.507 36.3346 38.264 36.5986 37.919 36.8913L37.2918 37.4244C36.9991 37.6753 36.7769 37.9053 36.6253 38.1144C36.4738 38.3234 36.3771 38.5325 36.3353 38.7416H38.1542C38.4573 38.7416 38.7187 38.7337 38.9382 38.7181V39.361H35.4964ZM43.1564 34.4843C42.6129 34.5105 42.1477 34.6124 41.7609 34.7901C41.3741 34.9626 41.0709 35.2056 40.8514 35.5192C40.6371 35.8276 40.5117 36.1987 40.4751 36.6326C40.6267 36.4444 40.8279 36.2954 41.0788 36.1857C41.3297 36.0759 41.591 36.021 41.8628 36.021C42.1816 36.021 42.4665 36.0994 42.7174 36.2562C42.9683 36.4078 43.1617 36.6143 43.2976 36.8756C43.4335 37.1317 43.5014 37.414 43.5014 37.7224C43.5014 38.0778 43.4204 38.3888 43.2584 38.6553C43.1016 38.9167 42.8846 39.1205 42.6076 39.2669C42.3306 39.408 42.017 39.4786 41.6668 39.4786C41.2591 39.4786 40.9089 39.3845 40.6162 39.1963C40.3287 39.0029 40.1092 38.7285 39.9576 38.3731C39.8113 38.0177 39.7381 37.5995 39.7381 37.1187C39.7381 36.4601 39.8714 35.893 40.138 35.4173C40.4045 34.9365 40.7861 34.5654 41.2826 34.304C41.7792 34.0427 42.3698 33.8989 43.0545 33.8728L43.1564 34.4843ZM41.7295 36.5934C41.4891 36.5934 41.2539 36.6587 41.0239 36.7894C40.7939 36.92 40.6084 37.0951 40.4672 37.3147C40.4882 37.8269 40.6005 38.2189 40.8044 38.4907C41.0134 38.7625 41.3009 38.8984 41.6668 38.8984C41.9961 38.8984 42.26 38.7939 42.4587 38.5848C42.6573 38.3705 42.7566 38.0908 42.7566 37.7459C42.7566 37.4009 42.6625 37.1239 42.4743 36.9148C42.2862 36.7005 42.0379 36.5934 41.7295 36.5934ZM49.135 38.8827L47.6061 34.9469L47.3082 39.361H46.5869L47.0181 33.8728H47.8727L49.4486 37.934L51.0245 33.8728H51.8791L52.3103 39.361H51.5811L51.2754 34.9469L49.7544 38.8827H49.135ZM53.6922 39.361V33.8728H54.4527V38.7337H56.9772V39.361H53.6922ZM57.9376 39.361V33.9904C58.2146 33.9381 58.5073 33.8963 58.8157 33.865C59.124 33.8336 59.3932 33.8179 59.6232 33.8179C60.2347 33.8179 60.7025 33.9407 61.0266 34.1864C61.3559 34.4268 61.5205 34.7744 61.5205 35.2292C61.5205 35.5323 61.4369 35.791 61.2697 36.0053C61.1076 36.2196 60.8672 36.3817 60.5484 36.4914C60.9351 36.5751 61.2331 36.7371 61.4421 36.9775C61.6564 37.2127 61.7636 37.5107 61.7636 37.8713C61.7636 38.3522 61.5963 38.7207 61.2618 38.9768C60.9273 39.2329 60.449 39.361 59.8271 39.361H57.9376ZM59.8035 38.7808C60.1903 38.7808 60.483 38.6998 60.6816 38.5377C60.8855 38.3705 60.9874 38.1274 60.9874 37.8086C60.9874 37.495 60.8803 37.2546 60.666 37.0873C60.4569 36.9148 60.1616 36.8286 59.78 36.8286H58.6745V38.7808H59.8035ZM59.5683 34.3981C59.3227 34.3981 59.0247 34.4242 58.6745 34.4765V36.2641H59.7094C60.0387 36.2641 60.2975 36.1804 60.4856 36.0132C60.679 35.8407 60.7757 35.6107 60.7757 35.3232C60.7757 34.7065 60.3733 34.3981 59.5683 34.3981ZM63.1061 39.4002C62.965 39.4002 62.85 39.3557 62.7611 39.2669C62.6723 39.178 62.6278 39.063 62.6278 38.9219C62.6278 38.7808 62.6723 38.6658 62.7611 38.5769C62.85 38.4881 62.965 38.4437 63.1061 38.4437C63.2472 38.4437 63.3622 38.4881 63.4511 38.5769C63.5399 38.6658 63.5844 38.7808 63.5844 38.9219C63.5844 39.063 63.5399 39.178 63.4511 39.2669C63.3622 39.3557 63.2472 39.4002 63.1061 39.4002Z" fill="white"/>
</svg>
