<svg width="401" height="29" viewBox="0 0 401 29" fill="none" xmlns="http://www.w3.org/2000/svg">
<path d="M398.329 19.151C398.329 18.4396 398.06 17.8435 397.522 17.3628C396.983 16.8821 396.06 16.3822 394.753 15.8631C393.003 15.1516 391.763 14.4402 391.032 13.7288C390.302 12.9981 389.936 12.1617 389.936 11.2195C389.936 9.98892 390.417 9.0083 391.378 8.27763C392.359 7.54697 393.666 7.18164 395.301 7.18164C396.089 7.18164 396.906 7.27778 397.752 7.47006C398.598 7.64311 399.387 7.89307 400.117 8.21995L400.579 12.0559L400.089 12.2001C399.435 10.9119 398.666 9.93124 397.781 9.25826C396.897 8.56605 395.955 8.21995 394.955 8.21995C394.186 8.21995 393.58 8.41223 393.138 8.79679C392.715 9.16212 392.503 9.65243 392.503 10.2677C392.503 10.9022 392.772 11.4502 393.311 11.9117C393.849 12.354 394.791 12.8443 396.137 13.3827C397.906 14.0941 399.137 14.7863 399.829 15.4593C400.54 16.1323 400.896 16.9591 400.896 17.9397C400.896 18.8242 400.656 19.6125 400.175 20.3047C399.714 20.9969 399.06 21.5449 398.214 21.9487C397.387 22.3333 396.416 22.5255 395.301 22.5255C394.532 22.5255 393.715 22.4198 392.849 22.2083C391.984 22.016 391.119 21.7276 390.253 21.343L389.792 17.5071L390.282 17.3628C390.936 18.6703 391.734 19.6894 392.676 20.4201C393.638 21.1315 394.647 21.4872 395.705 21.4872C396.531 21.4872 397.176 21.2757 397.637 20.8527C398.098 20.4297 398.329 19.8625 398.329 19.151Z" fill="white"/>
<path d="M380.941 21.6026C381.729 21.3911 382.277 21.0546 382.585 20.5931C382.912 20.1124 383.075 19.3818 383.075 18.4012V11.854C383.075 10.835 382.912 10.0851 382.585 9.60437C382.277 9.12367 381.729 8.78718 380.941 8.5949V8.13343L385.584 7.47006L385.902 7.78732C385.863 8.09497 385.834 8.393 385.815 8.68142C385.796 8.95062 385.786 9.24865 385.786 9.57552V18.4012C385.786 19.3818 385.94 20.1124 386.248 20.5931C386.575 21.0546 387.132 21.3911 387.921 21.6026V22.0641H380.941V21.6026ZM382.354 2.76883C382.354 2.21122 382.527 1.75936 382.873 1.41326C383.239 1.06716 383.691 0.894104 384.229 0.894104C384.787 0.894104 385.238 1.06716 385.584 1.41326C385.931 1.75936 386.104 2.21122 386.104 2.76883C386.104 3.30721 385.931 3.75907 385.584 4.1244C385.238 4.4705 384.787 4.64355 384.229 4.64355C383.691 4.64355 383.239 4.4705 382.873 4.1244C382.527 3.75907 382.354 3.30721 382.354 2.76883Z" fill="white"/>
<path d="M368.867 19.151C368.867 18.4396 368.598 17.8435 368.06 17.3628C367.521 16.8821 366.598 16.3822 365.291 15.8631C363.541 15.1516 362.301 14.4402 361.57 13.7288C360.84 12.9981 360.474 12.1617 360.474 11.2195C360.474 9.98892 360.955 9.0083 361.916 8.27763C362.897 7.54697 364.205 7.18164 365.839 7.18164C366.627 7.18164 367.444 7.27778 368.29 7.47006C369.136 7.64311 369.925 7.89307 370.655 8.21995L371.117 12.0559L370.627 12.2001C369.973 10.9119 369.204 9.93124 368.319 9.25826C367.435 8.56605 366.493 8.21995 365.493 8.21995C364.724 8.21995 364.118 8.41223 363.676 8.79679C363.253 9.16212 363.041 9.65243 363.041 10.2677C363.041 10.9022 363.31 11.4502 363.849 11.9117C364.387 12.354 365.329 12.8443 366.675 13.3827C368.444 14.0941 369.675 14.7863 370.367 15.4593C371.078 16.1323 371.434 16.9591 371.434 17.9397C371.434 18.8242 371.194 19.6125 370.713 20.3047C370.252 20.9969 369.598 21.5449 368.752 21.9487C367.925 22.3333 366.954 22.5255 365.839 22.5255C365.07 22.5255 364.253 22.4198 363.387 22.2083C362.522 22.016 361.657 21.7276 360.792 21.343L360.33 17.5071L360.82 17.3628C361.474 18.6703 362.272 19.6894 363.214 20.4201C364.176 21.1315 365.185 21.4872 366.243 21.4872C367.069 21.4872 367.714 21.2757 368.175 20.8527C368.637 20.4297 368.867 19.8625 368.867 19.151Z" fill="white"/>
<path d="M344.974 14.969C344.974 13.4115 345.262 12.0559 345.839 10.9022C346.416 9.72934 347.223 8.81602 348.262 8.16227C349.3 7.50852 350.502 7.18164 351.867 7.18164C353.636 7.18164 355.049 7.75848 356.107 8.91216C357.164 10.0466 357.789 11.681 357.981 13.8153H347.569C347.569 15.9111 348.06 17.5455 349.04 18.7184C350.021 19.8721 351.396 20.4489 353.165 20.4489C354.895 20.4489 356.222 19.8336 357.145 18.603L357.606 18.8626C356.51 21.3046 354.597 22.5255 351.867 22.5255C350.482 22.5255 349.271 22.2179 348.233 21.6026C347.194 20.9681 346.387 20.0836 345.81 18.9491C345.252 17.8147 344.974 16.488 344.974 14.969ZM355.011 12.777C354.914 11.3541 354.54 10.2389 353.886 9.43131C353.251 8.62374 352.405 8.21995 351.348 8.21995C350.29 8.21995 349.435 8.62374 348.781 9.43131C348.127 10.2389 347.742 11.3541 347.627 12.777H355.011Z" fill="white"/>
<path d="M336.379 21.6026C337.167 21.3911 337.715 21.0546 338.023 20.5931C338.35 20.1124 338.513 19.3914 338.513 18.43V4.44166C338.513 3.42258 338.35 2.67269 338.023 2.19199C337.715 1.71129 337.167 1.3748 336.379 1.18252V0.721049L341.022 0L341.34 0.317262C341.263 0.855645 341.224 1.46132 341.224 2.1343V18.43C341.224 19.3914 341.378 20.1124 341.686 20.5931C342.013 21.0546 342.57 21.3911 343.359 21.6026V22.0641H336.379V21.6026Z" fill="white"/>
<path d="M327.961 21.6026C328.749 21.3911 329.297 21.0546 329.605 20.5931C329.932 20.1124 330.095 19.3818 330.095 18.4012V11.854C330.095 10.835 329.932 10.0851 329.605 9.60437C329.297 9.12367 328.749 8.78718 327.961 8.5949V8.13343L332.604 7.47006L332.922 7.78732C332.883 8.09497 332.854 8.393 332.835 8.68142C332.816 8.95062 332.806 9.24865 332.806 9.57552V18.4012C332.806 19.3818 332.96 20.1124 333.268 20.5931C333.595 21.0546 334.152 21.3911 334.941 21.6026V22.0641H327.961V21.6026ZM329.374 2.76883C329.374 2.21122 329.547 1.75936 329.893 1.41326C330.259 1.06716 330.711 0.894104 331.249 0.894104C331.807 0.894104 332.258 1.06716 332.604 1.41326C332.951 1.75936 333.124 2.21122 333.124 2.76883C333.124 3.30721 332.951 3.75907 332.604 4.1244C332.258 4.4705 331.807 4.64355 331.249 4.64355C330.711 4.64355 330.259 4.4705 329.893 4.1244C329.547 3.75907 329.374 3.30721 329.374 2.76883Z" fill="white"/>
<path d="M300.133 21.6026C300.921 21.3911 301.469 21.0546 301.777 20.5931C302.104 20.1124 302.267 19.3818 302.267 18.4011V11.854C302.267 10.835 302.104 10.0851 301.777 9.60436C301.469 9.12366 300.921 8.78717 300.133 8.5949V8.13342L304.315 7.47006C304.584 7.98921 304.748 8.47953 304.805 8.941C305.978 7.76809 307.459 7.18164 309.247 7.18164C311.497 7.18164 313.035 8.00844 313.862 9.66205C315.169 8.00844 316.871 7.18164 318.967 7.18164C320.659 7.18164 321.957 7.65273 322.86 8.5949C323.783 9.53706 324.245 10.8926 324.245 12.6616V18.4011C324.245 19.3818 324.399 20.1124 324.706 20.5931C325.033 21.0546 325.591 21.3911 326.379 21.6026V22.0641H319.399V21.6026C320.188 21.3911 320.736 21.0546 321.043 20.5931C321.37 20.1124 321.534 19.3818 321.534 18.4011V12.4886C321.534 11.1811 321.245 10.162 320.668 9.43131C320.091 8.70065 319.293 8.33532 318.274 8.33532C317.159 8.33532 316.265 8.76795 315.592 9.6332C314.938 10.4792 314.611 11.6233 314.611 13.0654V18.4011C314.611 19.3818 314.765 20.1124 315.073 20.5931C315.4 21.0546 315.957 21.3911 316.746 21.6026V22.0641H309.766V21.6026C310.554 21.3911 311.102 21.0546 311.41 20.5931C311.737 20.1124 311.9 19.3818 311.9 18.4011V12.4886C311.9 11.1811 311.612 10.162 311.035 9.43131C310.458 8.70065 309.66 8.33532 308.641 8.33532C307.526 8.33532 306.632 8.76795 305.959 9.6332C305.305 10.4792 304.978 11.6233 304.978 13.0654V18.4011C304.978 19.3818 305.132 20.1124 305.44 20.5931C305.767 21.0546 306.324 21.3911 307.113 21.6026V22.0641H300.133V21.6026Z" fill="white"/>
<path d="M283.661 21.6026C284.449 21.3526 284.901 20.9681 285.016 20.4489C285.151 19.9298 284.939 19.2376 284.382 18.3723L280.978 12.9789L277.431 18.3723C276.296 20.0836 276.441 21.1604 277.863 21.6026V22.0641H272.239V21.6026C273.566 21.1796 274.729 20.247 275.729 18.8049L280.344 11.9694L275.873 4.90313C275.431 4.19169 274.97 3.62447 274.489 3.20145C274.027 2.77844 273.451 2.49002 272.758 2.3362V1.87473H280.373V2.3362C279.411 2.5477 278.892 2.91304 278.815 3.43219C278.758 3.93212 279.027 4.64355 279.623 5.56649L282.536 10.1524L285.564 5.56649C286.237 4.56664 286.535 3.80714 286.458 3.28798C286.401 2.76883 285.862 2.45156 284.843 2.3362V1.87473H290.785V2.3362C290.323 2.43234 289.919 2.56693 289.573 2.73998C289.227 2.91304 288.881 3.18223 288.535 3.54756C288.189 3.91289 287.775 4.44166 287.295 5.13386L283.17 11.1618L288.189 19.0357C288.631 19.7471 289.083 20.2951 289.544 20.6797C290.025 21.045 290.612 21.3526 291.304 21.6026V22.0641H283.661V21.6026Z" fill="white"/>
<path d="M266.274 6.2587C266.274 5.10502 265.976 4.24938 265.38 3.69177C264.803 3.13416 264.12 2.85535 263.332 2.85535C262.159 2.85535 261.178 3.27837 260.39 4.1244C259.602 4.97043 258.88 6.31638 258.227 8.16227L257.708 8.07574L258.284 2.97072C259.361 2.56693 260.332 2.28813 261.197 2.1343C262.063 1.96125 262.88 1.87473 263.649 1.87473C265.418 1.87473 266.812 2.2689 267.831 3.05724C268.869 3.82636 269.389 4.94158 269.389 6.40291C269.389 7.13357 269.148 7.96037 268.668 8.88331C268.187 9.78703 267.37 10.9119 266.216 12.2578C265.081 13.5845 263.534 15.2478 261.572 17.2475L259.352 19.526H266.85C267.696 19.526 268.341 19.3145 268.783 18.8915C269.244 18.4684 269.687 17.6993 270.11 16.5841L270.629 16.6706L269.994 22.0641H256.583L256.381 21.6026L260.649 16.4111C261.707 15.1228 262.591 13.998 263.303 13.0366C264.034 12.0752 264.61 11.2195 265.033 10.4696C265.476 9.71973 265.793 9.0083 265.985 8.33532C266.178 7.66234 266.274 6.97013 266.274 6.2587Z" fill="white"/>
<path d="M232.057 15.2285C232.057 13.6518 232.355 12.2578 232.951 11.0465C233.547 9.8351 234.374 8.89293 235.431 8.21995C236.489 7.52774 237.7 7.18164 239.065 7.18164C240.603 7.18164 241.969 7.58543 243.161 8.393V4.41281C243.161 3.39373 242.997 2.64384 242.67 2.16314C242.363 1.66322 241.815 1.31712 241.026 1.12484V0.663364L245.67 0L245.987 0.317262C245.91 0.855645 245.872 1.45171 245.872 2.10546V18.4011C245.872 19.3818 246.026 20.1124 246.333 20.5931C246.66 21.0546 247.218 21.3911 248.006 21.6026V22.0641L243.824 22.3525C243.536 21.7949 243.372 21.2469 243.334 20.7085C242.103 21.9199 240.575 22.5255 238.748 22.5255C236.71 22.5255 235.085 21.8718 233.874 20.5643C232.662 19.2568 232.057 17.4782 232.057 15.2285ZM234.883 14.3344C234.883 15.7381 235.066 16.9687 235.431 18.0262C235.816 19.0837 236.344 19.9105 237.017 20.5066C237.71 21.0835 238.498 21.3719 239.382 21.3719C240.478 21.3719 241.382 20.9489 242.094 20.1028C242.805 19.2376 243.161 18.1416 243.161 16.8148V12.7481C243.161 11.9021 242.968 11.1426 242.584 10.4696C242.219 9.77741 241.719 9.22942 241.084 8.82563C240.45 8.42184 239.738 8.21995 238.95 8.21995C237.681 8.21995 236.681 8.75833 235.95 9.8351C235.239 10.9119 234.883 12.4116 234.883 14.3344Z" fill="white"/>
<path d="M216.959 14.969C216.959 13.4115 217.248 12.0559 217.825 10.9022C218.402 9.72934 219.209 8.81602 220.247 8.16227C221.286 7.50852 222.488 7.18164 223.853 7.18164C225.622 7.18164 227.035 7.75848 228.092 8.91216C229.15 10.0466 229.775 11.681 229.967 13.8153H219.555C219.555 15.9111 220.046 17.5455 221.026 18.7184C222.007 19.8721 223.382 20.4489 225.151 20.4489C226.881 20.4489 228.208 19.8336 229.131 18.603L229.592 18.8626C228.496 21.3046 226.583 22.5255 223.853 22.5255C222.468 22.5255 221.257 22.2179 220.219 21.6026C219.18 20.9681 218.373 20.0836 217.796 18.9491C217.238 17.8147 216.959 16.488 216.959 14.969ZM226.996 12.777C226.9 11.3541 226.525 10.2389 225.872 9.43131C225.237 8.62374 224.391 8.21995 223.334 8.21995C222.276 8.21995 221.42 8.62374 220.767 9.43131C220.113 10.2389 219.728 11.3541 219.613 12.777H226.996Z" fill="white"/>
<path d="M205.176 7.64311H207.311V4.75892L209.82 4.35513L210.137 4.67239C210.06 5.21078 210.022 5.80684 210.022 6.46059V7.64311H214.608V8.68142H210.022V18.1704C210.022 19.9202 210.752 20.795 212.214 20.795C213.079 20.795 213.819 20.3912 214.435 19.5837L214.896 19.8432C214.127 21.6314 212.848 22.5255 211.06 22.5255C208.56 22.5255 207.311 21.0546 207.311 18.1127V8.68142H205.176V7.64311Z" fill="white"/>
<path d="M197.018 21.6026C197.806 21.3911 198.354 21.0546 198.662 20.5931C198.988 20.1124 199.152 19.3818 199.152 18.4012V11.854C199.152 10.835 198.988 10.0851 198.662 9.60437C198.354 9.12367 197.806 8.78718 197.018 8.5949V8.13343L201.661 7.47006L201.978 7.78732C201.94 8.09497 201.911 8.393 201.892 8.68142C201.873 8.95062 201.863 9.24865 201.863 9.57552V18.4012C201.863 19.3818 202.017 20.1124 202.324 20.5931C202.651 21.0546 203.209 21.3911 203.997 21.6026V22.0641H197.018V21.6026ZM198.431 2.76883C198.431 2.21122 198.604 1.75936 198.95 1.41326C199.315 1.06716 199.767 0.894104 200.306 0.894104C200.863 0.894104 201.315 1.06716 201.661 1.41326C202.007 1.75936 202.18 2.21122 202.18 2.76883C202.18 3.30721 202.007 3.75907 201.661 4.1244C201.315 4.4705 200.863 4.64355 200.306 4.64355C199.767 4.64355 199.315 4.4705 198.95 4.1244C198.604 3.75907 198.431 3.30721 198.431 2.76883Z" fill="white"/>
<path d="M169.189 21.6026C169.978 21.3911 170.526 21.0546 170.833 20.5931C171.16 20.1124 171.324 19.3818 171.324 18.4011V11.854C171.324 10.835 171.16 10.0851 170.833 9.60436C170.526 9.12366 169.978 8.78717 169.189 8.5949V8.13342L173.372 7.47006C173.641 7.98921 173.804 8.47953 173.862 8.941C175.035 7.76809 176.515 7.18164 178.304 7.18164C180.553 7.18164 182.091 8.00844 182.918 9.66205C184.226 8.00844 185.927 7.18164 188.023 7.18164C189.715 7.18164 191.013 7.65273 191.917 8.5949C192.84 9.53706 193.301 10.8926 193.301 12.6616V18.4011C193.301 19.3818 193.455 20.1124 193.763 20.5931C194.09 21.0546 194.647 21.3911 195.436 21.6026V22.0641H188.456V21.6026C189.244 21.3911 189.792 21.0546 190.1 20.5931C190.427 20.1124 190.59 19.3818 190.59 18.4011V12.4886C190.59 11.1811 190.302 10.162 189.725 9.43131C189.148 8.70065 188.35 8.33532 187.331 8.33532C186.216 8.33532 185.322 8.76795 184.649 9.6332C183.995 10.4792 183.668 11.6233 183.668 13.0654V18.4011C183.668 19.3818 183.822 20.1124 184.13 20.5931C184.456 21.0546 185.014 21.3911 185.802 21.6026V22.0641H178.823V21.6026C179.611 21.3911 180.159 21.0546 180.467 20.5931C180.794 20.1124 180.957 19.3818 180.957 18.4011V12.4886C180.957 11.1811 180.669 10.162 180.092 9.43131C179.515 8.70065 178.717 8.33532 177.698 8.33532C176.583 8.33532 175.689 8.76795 175.016 9.6332C174.362 10.4792 174.035 11.6233 174.035 13.0654V18.4011C174.035 19.3818 174.189 20.1124 174.496 20.5931C174.823 21.0546 175.381 21.3911 176.169 21.6026V22.0641H169.189V21.6026Z" fill="white"/>
<path d="M160.627 21.6026C161.415 21.3911 161.963 21.0546 162.271 20.5931C162.598 20.1124 162.761 19.3818 162.761 18.4012V11.854C162.761 10.835 162.598 10.0851 162.271 9.60437C161.963 9.12367 161.415 8.78718 160.627 8.5949V8.13343L165.271 7.47006L165.588 7.78732C165.549 8.09497 165.52 8.393 165.501 8.68142C165.482 8.95062 165.472 9.24865 165.472 9.57552V18.4012C165.472 19.3818 165.626 20.1124 165.934 20.5931C166.261 21.0546 166.818 21.3911 167.607 21.6026V22.0641H160.627V21.6026ZM162.04 2.76883C162.04 2.21122 162.213 1.75936 162.559 1.41326C162.925 1.06716 163.377 0.894104 163.915 0.894104C164.473 0.894104 164.924 1.06716 165.271 1.41326C165.617 1.75936 165.79 2.21122 165.79 2.76883C165.79 3.30721 165.617 3.75907 165.271 4.1244C164.924 4.4705 164.473 4.64355 163.915 4.64355C163.377 4.64355 162.925 4.4705 162.559 4.1244C162.213 3.75907 162.04 3.30721 162.04 2.76883Z" fill="white"/>
<path d="M152.061 21.6026C152.849 21.3911 153.397 21.0546 153.705 20.5931C154.032 20.1124 154.195 19.3914 154.195 18.43V4.44166C154.195 3.42258 154.032 2.67269 153.705 2.19199C153.397 1.71129 152.849 1.3748 152.061 1.18252V0.721049L156.705 0L157.022 0.317262C156.945 0.855645 156.906 1.46132 156.906 2.1343V18.43C156.906 19.3914 157.06 20.1124 157.368 20.5931C157.695 21.0546 158.252 21.3911 159.041 21.6026V22.0641H152.061V21.6026Z" fill="white"/>
<path d="M133.644 21.6026C134.432 21.3911 134.98 21.0546 135.288 20.5931C135.615 20.1124 135.778 19.3818 135.778 18.4011V11.854C135.778 10.835 135.615 10.0851 135.288 9.60436C134.98 9.12366 134.432 8.78717 133.644 8.5949V8.13342L137.826 7.47006C138.115 8.00844 138.278 8.51798 138.316 8.99868C139.547 7.78732 141.114 7.18164 143.018 7.18164C144.787 7.18164 146.142 7.65273 147.084 8.5949C148.027 9.53706 148.498 10.8926 148.498 12.6616V18.4011C148.498 19.3818 148.651 20.1124 148.959 20.5931C149.286 21.0546 149.844 21.3911 150.632 21.6026V22.0641H143.652V21.6026C144.441 21.3911 144.989 21.0546 145.296 20.5931C145.623 20.1124 145.786 19.3818 145.786 18.4011V12.4886C145.786 11.1811 145.488 10.162 144.892 9.43131C144.296 8.70065 143.46 8.33532 142.383 8.33532C141.191 8.33532 140.239 8.76795 139.528 9.6332C138.836 10.4792 138.489 11.6233 138.489 13.0654V18.4011C138.489 19.3818 138.643 20.1124 138.951 20.5931C139.278 21.0546 139.835 21.3911 140.624 21.6026V22.0641H133.644V21.6026Z" fill="white"/>
<path d="M117.432 17.0456V11.9117C117.432 10.8926 117.269 10.1427 116.942 9.66205C116.634 9.18135 116.086 8.84486 115.298 8.65258V8.19111L119.941 7.47006L120.259 7.78732C120.182 8.32571 120.143 8.92177 120.143 9.57552V17.2186C120.143 18.5261 120.422 19.5452 120.98 20.2759C121.537 21.0065 122.316 21.3719 123.316 21.3719C124.008 21.3719 124.652 21.1988 125.248 20.8527C125.844 20.5066 126.315 20.0067 126.662 19.3529C127.027 18.6992 127.21 17.9205 127.21 17.0167V10.6715C127.21 9.97931 127.094 9.489 126.863 9.20058C126.652 8.91216 126.162 8.70065 125.393 8.56606V8.13343L129.776 7.47006L130.036 7.72964C129.959 8.36416 129.921 9.0083 129.921 9.66205V18.4012C129.921 19.3818 130.075 20.1124 130.382 20.5931C130.709 21.0546 131.267 21.3911 132.055 21.6026V22.0641L127.873 22.3525C127.546 21.7372 127.373 21.1219 127.354 20.5066C126.142 21.8526 124.585 22.5255 122.681 22.5255C120.989 22.5255 119.691 22.0545 118.788 21.1123C117.884 20.1509 117.432 18.7953 117.432 17.0456Z" fill="white"/>
<path d="M92.7739 25.1213C92.7739 23.6792 93.668 22.564 95.4562 21.7757C94.9563 21.5834 94.5814 21.3046 94.3314 20.9392C94.1007 20.5739 93.9853 20.1605 93.9853 19.699C93.9853 19.3145 94.091 18.9203 94.3026 18.5165C94.5141 18.1127 94.7929 17.7186 95.139 17.334L95.6581 16.7572C94.9082 16.2957 94.3218 15.6996 93.8988 14.969C93.4758 14.2191 93.2642 13.373 93.2642 12.4309C93.2642 11.3926 93.5238 10.4792 94.043 9.69089C94.5621 8.90254 95.2832 8.28725 96.2061 7.84501C97.1291 7.40276 98.1962 7.18164 99.4076 7.18164C100.407 7.18164 101.321 7.33546 102.148 7.64311H106.647V8.68142H103.907C104.426 9.14289 104.83 9.7005 105.118 10.3543C105.407 10.9888 105.551 11.6906 105.551 12.4597C105.551 13.498 105.291 14.4114 104.772 15.1997C104.253 15.988 103.532 16.6033 102.609 17.0456C101.705 17.4878 100.638 17.7089 99.4076 17.7089C98.3885 17.7089 97.4559 17.5455 96.6099 17.2186L96.0908 17.8243C95.7831 18.1512 95.6293 18.4396 95.6293 18.6896C95.6293 19.1318 96.0715 19.401 96.956 19.4971L102.119 19.9586C103.676 20.0932 104.859 20.497 105.666 21.17C106.474 21.8237 106.878 22.7082 106.878 23.8234C106.878 24.8425 106.551 25.727 105.897 26.4769C105.262 27.246 104.359 27.8325 103.186 28.2362C102.032 28.64 100.677 28.8419 99.1191 28.8419C97.1387 28.8419 95.5812 28.5054 94.4468 27.8325C93.3315 27.1787 92.7739 26.275 92.7739 25.1213ZM95.9465 12.1425C95.9465 13.4884 96.2926 14.5844 96.9848 15.4304C97.6771 16.2572 98.5712 16.6706 99.6671 16.6706C100.648 16.6706 101.427 16.3149 102.003 15.6035C102.58 14.892 102.869 13.9403 102.869 12.7481C102.869 11.4022 102.522 10.3158 101.83 9.48899C101.138 8.64296 100.244 8.21995 99.148 8.21995C98.1674 8.21995 97.3886 8.57567 96.8118 9.2871C96.235 9.99854 95.9465 10.9503 95.9465 12.1425ZM94.7929 24.5733C94.7929 25.6309 95.2159 26.4288 96.0619 26.9672C96.9272 27.5248 98.1097 27.8036 99.6095 27.8036C101.148 27.8036 102.349 27.5248 103.215 26.9672C104.099 26.4096 104.541 25.6501 104.541 24.6887C104.541 23.958 104.253 23.4196 103.676 23.0735C103.099 22.7274 102.08 22.4871 100.619 22.3525L96.6676 22.0064C95.4178 22.6025 94.7929 23.4581 94.7929 24.5733Z" fill="white"/>
<path d="M74.27 21.6026C75.0584 21.3911 75.6064 21.0546 75.914 20.5931C76.2409 20.1124 76.4043 19.3818 76.4043 18.4011V11.854C76.4043 10.835 76.2409 10.0851 75.914 9.60436C75.6064 9.12366 75.0584 8.78717 74.27 8.5949V8.13342L78.4521 7.47006C78.7405 8.00844 78.904 8.51798 78.9424 8.99868C80.173 7.78732 81.7401 7.18164 83.6436 7.18164C85.4126 7.18164 86.7682 7.65273 87.7104 8.5949C88.6525 9.53706 89.1236 10.8926 89.1236 12.6616V18.4011C89.1236 19.3818 89.2774 20.1124 89.5851 20.5931C89.912 21.0546 90.4696 21.3911 91.2579 21.6026V22.0641H84.2782V21.6026C85.0665 21.3911 85.6145 21.0546 85.9222 20.5931C86.249 20.1124 86.4125 19.3818 86.4125 18.4011V12.4886C86.4125 11.1811 86.1144 10.162 85.5184 9.43131C84.9223 8.70065 84.0859 8.33532 83.0091 8.33532C81.817 8.33532 80.8652 8.76795 80.1538 9.6332C79.4616 10.4792 79.1155 11.6233 79.1155 13.0654V18.4011C79.1155 19.3818 79.2693 20.1124 79.5769 20.5931C79.9038 21.0546 80.4614 21.3911 81.2498 21.6026V22.0641H74.27V21.6026Z" fill="white"/>
<path d="M65.7075 21.6026C66.4959 21.3911 67.0439 21.0546 67.3515 20.5931C67.6784 20.1124 67.8418 19.3818 67.8418 18.4012V11.854C67.8418 10.835 67.6784 10.0851 67.3515 9.60437C67.0439 9.12367 66.4959 8.78718 65.7075 8.5949V8.13343L70.3511 7.47006L70.6683 7.78732C70.6299 8.09497 70.601 8.393 70.5818 8.68142C70.5626 8.95062 70.553 9.24865 70.553 9.57552V18.4012C70.553 19.3818 70.7068 20.1124 71.0144 20.5931C71.3413 21.0546 71.8989 21.3911 72.6873 21.6026V22.0641H65.7075V21.6026ZM67.1208 2.76883C67.1208 2.21122 67.2938 1.75936 67.6399 1.41326C68.0053 1.06716 68.4571 0.894104 68.9955 0.894104C69.5531 0.894104 70.005 1.06716 70.3511 1.41326C70.6972 1.75936 70.8702 2.21122 70.8702 2.76883C70.8702 3.30721 70.6972 3.75907 70.3511 4.1244C70.005 4.4705 69.5531 4.64355 68.9955 4.64355C68.4571 4.64355 68.0053 4.4705 67.6399 4.1244C67.2938 3.75907 67.1208 3.30721 67.1208 2.76883Z" fill="white"/>
<path d="M47.1465 21.6026C47.9348 21.3911 48.4828 21.0546 48.7905 20.5931C49.1173 20.1124 49.2808 19.3818 49.2808 18.4011V11.854C49.2808 10.835 49.1173 10.0851 48.7905 9.60436C48.4828 9.12366 47.9348 8.78717 47.1465 8.5949V8.13342L51.3286 7.47006C51.617 8.00844 51.7804 8.51798 51.8189 8.99868C53.0495 7.78732 54.6165 7.18164 56.5201 7.18164C58.2891 7.18164 59.6447 7.65273 60.5868 8.5949C61.529 9.53706 62.0001 10.8926 62.0001 12.6616V18.4011C62.0001 19.3818 62.1539 20.1124 62.4615 20.5931C62.7884 21.0546 63.346 21.3911 64.1344 21.6026V22.0641H57.1546V21.6026C57.943 21.3911 58.491 21.0546 58.7986 20.5931C59.1255 20.1124 59.2889 19.3818 59.2889 18.4011V12.4886C59.2889 11.1811 58.9909 10.162 58.3948 9.43131C57.7988 8.70065 56.9624 8.33532 55.8856 8.33532C54.6935 8.33532 53.7417 8.76795 53.0302 9.6332C52.338 10.4792 51.9919 11.6233 51.9919 13.0654V18.4011C51.9919 19.3818 52.1458 20.1124 52.4534 20.5931C52.7803 21.0546 53.3379 21.3911 54.1262 21.6026V22.0641H47.1465V21.6026Z" fill="white"/>
<path d="M34.1055 21.6026C34.8938 21.3911 35.4418 21.0546 35.7495 20.5931C36.0763 20.1124 36.2398 19.3914 36.2398 18.43V11.7963C36.2398 10.8157 36.0763 10.0851 35.7495 9.60436C35.4418 9.12366 34.8938 8.78717 34.1055 8.5949V8.13342L38.2875 7.47006C38.4606 7.79693 38.5856 8.09497 38.6625 8.36416C38.7394 8.63335 38.7875 8.96023 38.8067 9.34479C39.2489 8.67181 39.7873 8.14304 40.4219 7.75848C41.0756 7.37392 41.787 7.18164 42.5562 7.18164C43.6329 7.18164 44.5847 7.52774 45.4115 8.21995L45.5846 12.229L45.0942 12.3443C44.4982 10.9792 43.931 10.0081 43.3926 9.43131C42.8542 8.85447 42.2485 8.56605 41.5755 8.56605C40.7487 8.56605 40.1046 8.95061 39.6431 9.71973C39.1816 10.4888 38.9509 11.5752 38.9509 12.9789V18.43C38.9509 19.4683 39.1432 20.2086 39.5278 20.6508C39.9123 21.0931 40.6237 21.3911 41.6621 21.5449V22.0641H34.1055V21.6026Z" fill="white"/>
<path d="M18.4595 18.7184C18.4595 17.7762 18.7575 16.9494 19.3536 16.238C19.9496 15.5266 20.7861 14.9786 21.8628 14.594C22.9396 14.1902 24.1894 13.9883 25.6123 13.9883C26.3237 13.9883 27.0448 14.0364 27.7754 14.1325V12.2867C27.7754 11.0176 27.487 10.0274 26.9102 9.31594C26.3525 8.58528 25.5738 8.21995 24.574 8.21995C22.6704 8.21995 21.0649 9.59475 19.7574 12.3443L19.267 12.2001L19.7285 8.21995C21.459 7.52774 23.1415 7.18164 24.7759 7.18164C26.6025 7.18164 28.0062 7.64311 28.9868 8.56605C29.9866 9.46977 30.4866 10.7773 30.4866 12.4886V19.526C30.4866 20.5258 30.8807 21.0258 31.6691 21.0258C31.9575 21.0258 32.2171 20.92 32.4478 20.7085L32.8228 20.9969C32.2267 21.9006 31.4095 22.3525 30.3712 22.3525C29.1791 22.3525 28.4003 21.7949 28.035 20.6797C26.8813 21.9103 25.3911 22.5255 23.5645 22.5255C21.9878 22.5255 20.738 22.1891 19.815 21.5161C18.9113 20.8239 18.4595 19.8913 18.4595 18.7184ZM21.286 18.3723C21.286 19.3145 21.5744 20.0548 22.1512 20.5931C22.7473 21.1315 23.5164 21.4007 24.4586 21.4007C25.4008 21.4007 26.1891 21.0162 26.8236 20.247C27.4582 19.4779 27.7754 18.3242 27.7754 16.786V15.142C27.4678 15.1036 27.1697 15.0747 26.8813 15.0555C26.6121 15.0363 26.3429 15.0266 26.0737 15.0266C24.5547 15.0266 23.3722 15.3247 22.5262 15.9207C21.6994 16.4976 21.286 17.3148 21.286 18.3723Z" fill="white"/>
<path d="M0 21.5449C0.826802 21.3334 1.40364 20.9777 1.73052 20.4778C2.07662 19.9778 2.24967 19.2183 2.24967 18.1993V5.73954C2.24967 4.72046 2.07662 3.96096 1.73052 3.46103C1.40364 2.9611 0.826802 2.60539 0 2.39388V1.87472H10.0658C10.9119 1.87472 11.6714 1.85549 12.3443 1.81704C13.0366 1.75936 13.7576 1.68244 14.5075 1.5863L15.1709 7.29701L14.6517 7.38353C14.2095 6.24908 13.7576 5.3646 13.2961 4.73007C12.8539 4.09555 12.3347 3.6437 11.7387 3.3745C11.1618 3.10531 10.4312 2.97072 9.54668 2.97072H5.13386V11.133H8.0469C9.23903 11.133 10.0947 10.9599 10.6138 10.6138C11.1522 10.2485 11.556 9.57552 11.8252 8.59489H12.229V14.7671H11.8252C11.5752 13.7864 11.1811 13.1231 10.6427 12.777C10.1043 12.4116 9.23903 12.229 8.0469 12.229H5.13386V18.0839C5.13386 19.0837 5.30691 19.8144 5.65302 20.2759C5.99912 20.7373 6.55673 20.9681 7.32585 20.9681H9.31594C10.2004 20.9681 10.9695 20.8143 11.6233 20.5066C12.277 20.1797 12.8827 19.6029 13.4403 18.7761C13.9979 17.9301 14.5748 16.7379 15.1709 15.1997L15.69 15.3151L14.9401 22.0641H0V21.5449Z" fill="white"/>
</svg>
