<svg width="430" height="29" viewBox="0 0 430 29" fill="none" xmlns="http://www.w3.org/2000/svg">
<path d="M422.114 21.6026C422.902 21.3526 423.354 20.9681 423.469 20.4489C423.604 19.9298 423.392 19.2376 422.835 18.3723L419.431 12.9789L415.884 18.3723C414.749 20.0836 414.894 21.1604 416.317 21.6026V22.0641H410.692V21.6026C412.019 21.1796 413.182 20.247 414.182 18.8049L418.797 11.9694L414.326 4.90313C413.884 4.1917 413.423 3.62447 412.942 3.20145C412.481 2.77844 411.904 2.49002 411.212 2.3362V1.87473H418.826V2.3362C417.864 2.5477 417.345 2.91304 417.268 3.43219C417.211 3.93212 417.48 4.64355 418.076 5.56649L420.989 10.1524L424.017 5.56649C424.69 4.56664 424.988 3.80713 424.911 3.28798C424.854 2.76882 424.315 2.45156 423.296 2.3362V1.87473H429.238V2.3362C428.776 2.43234 428.372 2.56693 428.026 2.73998C427.68 2.91303 427.334 3.18223 426.988 3.54756C426.642 3.91289 426.229 4.44166 425.748 5.13387L421.623 11.1618L426.642 19.0357C427.084 19.7471 427.536 20.2951 427.998 20.6797C428.478 21.045 429.065 21.3526 429.757 21.6026V22.0641H422.114V21.6026Z" fill="white"/>
<path d="M388.817 14.969C388.817 13.4115 389.106 12.0559 389.683 10.9022C390.259 9.72934 391.067 8.81602 392.105 8.16227C393.144 7.50852 394.345 7.18164 395.711 7.18164C397.48 7.18164 398.893 7.75848 399.95 8.91216C401.008 10.0466 401.633 11.681 401.825 13.8153H391.413C391.413 15.9111 391.903 17.5455 392.884 18.7184C393.865 19.8721 395.24 20.4489 397.009 20.4489C398.739 20.4489 400.066 19.8336 400.989 18.603L401.45 18.8626C400.354 21.3046 398.441 22.5255 395.711 22.5255C394.326 22.5255 393.115 22.2179 392.077 21.6026C391.038 20.9681 390.231 20.0836 389.654 18.9491C389.096 17.8147 388.817 16.488 388.817 14.969ZM398.854 12.777C398.758 11.3541 398.383 10.2389 397.73 9.43131C397.095 8.62374 396.249 8.21995 395.191 8.21995C394.134 8.21995 393.278 8.62374 392.625 9.43131C391.971 10.2389 391.586 11.3541 391.471 12.777H398.854Z" fill="white"/>
<path d="M375.748 21.6026C376.536 21.3911 377.084 21.0546 377.392 20.5931C377.718 20.1124 377.882 19.3914 377.882 18.43V11.7963C377.882 10.8157 377.718 10.0851 377.392 9.60436C377.084 9.12366 376.536 8.78717 375.748 8.59489V8.13342L379.93 7.47006C380.103 7.79693 380.228 8.09497 380.305 8.36416C380.382 8.63335 380.43 8.96022 380.449 9.34478C380.891 8.67181 381.429 8.14304 382.064 7.75848C382.718 7.37392 383.429 7.18164 384.198 7.18164C385.275 7.18164 386.227 7.52775 387.054 8.21995L387.227 12.229L386.736 12.3443C386.14 10.9792 385.573 10.0082 385.035 9.43131C384.496 8.85447 383.891 8.56605 383.218 8.56605C382.391 8.56605 381.747 8.95061 381.285 9.71973C380.824 10.4888 380.593 11.5752 380.593 12.9789V18.43C380.593 19.4683 380.785 20.2086 381.17 20.6508C381.554 21.0931 382.266 21.3911 383.304 21.5449V22.0641H375.748V21.6026Z" fill="white"/>
<path d="M359.536 17.0456V11.9117C359.536 10.8926 359.372 10.1427 359.045 9.66204C358.738 9.18134 358.19 8.84485 357.401 8.65257V8.1911L362.045 7.47005L362.362 7.78731C362.285 8.32569 362.247 8.92176 362.247 9.57551V17.2186C362.247 18.5261 362.526 19.5452 363.083 20.2759C363.641 21.0065 364.42 21.3719 365.419 21.3719C366.112 21.3719 366.756 21.1988 367.352 20.8527C367.948 20.5066 368.419 20.0067 368.765 19.3529C369.13 18.6992 369.313 17.9204 369.313 17.0167V10.6715C369.313 9.97929 369.198 9.48898 368.967 9.20057C368.755 8.91215 368.265 8.70064 367.496 8.56604V8.13341L371.88 7.47005L372.14 7.72963C372.063 8.36415 372.024 9.00829 372.024 9.66204V18.4011C372.024 19.3818 372.178 20.1124 372.486 20.5931C372.813 21.0546 373.37 21.3911 374.159 21.6026V22.0641L369.976 22.3525C369.65 21.7372 369.477 21.1219 369.457 20.5066C368.246 21.8526 366.688 22.5255 364.785 22.5255C363.093 22.5255 361.795 22.0545 360.891 21.1123C359.988 20.1509 359.536 18.7953 359.536 17.0456Z" fill="white"/>
<path d="M345.798 7.64311H347.932V4.75892L350.441 4.35513L350.759 4.67239C350.682 5.21078 350.643 5.80684 350.643 6.46059V7.64311H355.229V8.68142H350.643V18.1704C350.643 19.9202 351.374 20.795 352.835 20.795C353.701 20.795 354.441 20.3912 355.056 19.5837L355.518 19.8432C354.748 21.6314 353.47 22.5255 351.682 22.5255C349.182 22.5255 347.932 21.0546 347.932 18.1127V8.68142H345.798V7.64311Z" fill="white"/>
<path d="M327.64 21.6026C328.428 21.3911 328.976 21.0546 329.284 20.5931C329.611 20.1124 329.774 19.3818 329.774 18.4011V11.854C329.774 10.835 329.611 10.0851 329.284 9.60436C328.976 9.12366 328.428 8.78717 327.64 8.59489V8.13342L331.822 7.47006C332.111 8.00844 332.274 8.51799 332.313 8.99868C333.543 7.78732 335.11 7.18164 337.014 7.18164C338.783 7.18164 340.138 7.65272 341.08 8.59489C342.023 9.53706 342.494 10.8926 342.494 12.6616V18.4011C342.494 19.3818 342.648 20.1124 342.955 20.5931C343.282 21.0546 343.84 21.3911 344.628 21.6026V22.0641H337.648V21.6026C338.437 21.3911 338.985 21.0546 339.292 20.5931C339.619 20.1124 339.783 19.3818 339.783 18.4011V12.4886C339.783 11.1811 339.485 10.162 338.888 9.43131C338.292 8.70065 337.456 8.33532 336.379 8.33532C335.187 8.33532 334.235 8.76795 333.524 9.63321C332.832 10.4792 332.486 11.6233 332.486 13.0654V18.4011C332.486 19.3818 332.639 20.1124 332.947 20.5931C333.274 21.0546 333.832 21.3911 334.62 21.6026V22.0641H327.64V21.6026Z" fill="white"/>
<path d="M312.572 14.969C312.572 13.4115 312.861 12.0559 313.438 10.9022C314.014 9.72934 314.822 8.81602 315.86 8.16227C316.899 7.50852 318.1 7.18164 319.465 7.18164C321.234 7.18164 322.648 7.75848 323.705 8.91216C324.763 10.0466 325.388 11.681 325.58 13.8153H315.168C315.168 15.9111 315.658 17.5455 316.639 18.7184C317.62 19.8721 318.994 20.4489 320.763 20.4489C322.494 20.4489 323.821 19.8336 324.744 18.603L325.205 18.8626C324.109 21.3046 322.196 22.5255 319.465 22.5255C318.081 22.5255 316.87 22.2179 315.831 21.6026C314.793 20.9681 313.986 20.0836 313.409 18.9491C312.851 17.8147 312.572 16.488 312.572 14.969ZM322.609 12.777C322.513 11.3541 322.138 10.2389 321.484 9.43131C320.85 8.62374 320.004 8.21995 318.946 8.21995C317.889 8.21995 317.033 8.62374 316.379 9.43131C315.726 10.2389 315.341 11.3541 315.226 12.777H322.609Z" fill="white"/>
<path d="M293.606 1.87473H301.221V2.3362C300.259 2.5477 299.663 2.93226 299.433 3.48987C299.221 4.04748 299.279 4.73969 299.606 5.56649L304.624 17.7955L309.614 5.59533C309.96 4.7493 309.969 4.02826 309.643 3.43219C309.316 2.8169 308.643 2.45156 307.624 2.3362V1.87473H313.565V2.3362C312.854 2.49002 312.334 2.81689 312.008 3.31682C311.681 3.81675 311.306 4.57625 310.883 5.59533L303.845 22.3525H303.326L296.289 5.59533C295.866 4.57625 295.481 3.81675 295.135 3.31682C294.808 2.81689 294.299 2.49002 293.606 2.3362V1.87473Z" fill="white"/>
<path d="M268.235 21.6026C269.023 21.3911 269.571 21.045 269.879 20.5643C270.206 20.0836 270.369 19.3433 270.369 18.3435V4.44166C270.369 3.42258 270.206 2.67268 269.879 2.19199C269.571 1.71129 269.023 1.3748 268.235 1.18252V0.72105L272.878 0L273.196 0.317261C273.119 0.855643 273.08 1.4421 273.08 2.07662V8.82563C274.272 7.72964 275.782 7.18164 277.608 7.18164C279.377 7.18164 280.733 7.65272 281.675 8.59489C282.617 9.53706 283.088 10.8926 283.088 12.6616V18.4011C283.088 19.3818 283.242 20.1124 283.55 20.5931C283.877 21.0546 284.434 21.3911 285.223 21.6026V22.0641H278.243V21.6026C279.031 21.3911 279.579 21.0546 279.887 20.5931C280.214 20.1124 280.377 19.3818 280.377 18.4011V12.4886C280.377 11.1811 280.079 10.162 279.483 9.43131C278.887 8.70065 278.051 8.33532 276.974 8.33532C275.782 8.33532 274.83 8.76795 274.119 9.63321C273.426 10.4792 273.08 11.6233 273.08 13.0654V18.4877C273.08 19.4491 273.234 20.1605 273.542 20.622C273.869 21.0835 274.426 21.4103 275.215 21.6026V22.0641H268.235V21.6026Z" fill="white"/>
<path d="M256.343 7.64311H258.477V4.75892L260.986 4.35513L261.304 4.67239C261.227 5.21078 261.188 5.80684 261.188 6.46059V7.64311H265.774V8.68142H261.188V18.1704C261.188 19.9202 261.919 20.795 263.38 20.795C264.245 20.795 264.986 20.3912 265.601 19.5837L266.062 19.8432C265.293 21.6314 264.015 22.5255 262.227 22.5255C259.727 22.5255 258.477 21.0546 258.477 18.1127V8.68142H256.343V7.64311Z" fill="white"/>
<path d="M248.184 21.6026C248.972 21.3911 249.52 21.0546 249.828 20.5931C250.155 20.1124 250.318 19.3818 250.318 18.4011V11.854C250.318 10.8349 250.155 10.085 249.828 9.60435C249.52 9.12365 248.972 8.78716 248.184 8.59488V8.13341L252.828 7.47005L253.145 7.78731C253.106 8.09495 253.078 8.39299 253.058 8.68141C253.039 8.9506 253.03 9.24863 253.03 9.57551V18.4011C253.03 19.3818 253.183 20.1124 253.491 20.5931C253.818 21.0546 254.375 21.3911 255.164 21.6026V22.0641H248.184V21.6026ZM249.597 2.76881C249.597 2.2112 249.77 1.75935 250.117 1.41324C250.482 1.06714 250.934 0.894089 251.472 0.894089C252.03 0.894089 252.482 1.06714 252.828 1.41324C253.174 1.75935 253.347 2.2112 253.347 2.76881C253.347 3.3072 253.174 3.75905 252.828 4.12439C252.482 4.47049 252.03 4.64354 251.472 4.64354C250.934 4.64354 250.482 4.47049 250.117 4.12439C249.77 3.75905 249.597 3.3072 249.597 2.76881Z" fill="white"/>
<path d="M221.298 7.64311H228.451V8.10458C227.663 8.1815 227.153 8.47953 226.923 8.99868C226.692 9.51784 226.759 10.21 227.124 11.0753L230.326 18.4011L233.498 11.1618L232.979 10.0081C232.729 9.45054 232.441 9.03714 232.114 8.76795C231.806 8.49876 231.326 8.27764 230.672 8.10458V7.64311H237.825V8.10458C237.036 8.1815 236.527 8.47953 236.296 8.99868C236.065 9.51784 236.133 10.21 236.498 11.0753L239.699 18.4011L242.901 11.0753C243.285 10.21 243.353 9.51784 243.103 8.99868C242.872 8.47953 242.363 8.1815 241.574 8.10458V7.64311H246.823V8.10458C246.17 8.27764 245.689 8.49876 245.381 8.76795C245.074 9.03714 244.785 9.45054 244.516 10.0081L239.007 22.3525H238.488L234.075 12.4309L229.634 22.3525H229.115L223.606 10.0081C223.356 9.45054 223.067 9.03714 222.74 8.76795C222.433 8.49876 221.952 8.27764 221.298 8.10458V7.64311Z" fill="white"/>
<path d="M202.715 7.64311H204.849V4.75892L207.358 4.35513L207.676 4.67239C207.599 5.21078 207.56 5.80684 207.56 6.46059V7.64311H212.146V8.68142H207.56V18.1704C207.56 19.9202 208.291 20.795 209.752 20.795C210.618 20.795 211.358 20.3912 211.973 19.5837L212.435 19.8432C211.665 21.6314 210.387 22.5255 208.599 22.5255C206.099 22.5255 204.849 21.0546 204.849 18.1127V8.68142H202.715V7.64311Z" fill="white"/>
<path d="M194.556 21.6026C195.344 21.3911 195.893 21.0546 196.2 20.5931C196.527 20.1124 196.69 19.3818 196.69 18.4011V11.854C196.69 10.8349 196.527 10.085 196.2 9.60435C195.893 9.12365 195.344 8.78716 194.556 8.59488V8.13341L199.2 7.47005L199.517 7.78731C199.479 8.09495 199.45 8.39299 199.43 8.68141C199.411 8.9506 199.402 9.24863 199.402 9.57551V18.4011C199.402 19.3818 199.555 20.1124 199.863 20.5931C200.19 21.0546 200.748 21.3911 201.536 21.6026V22.0641H194.556V21.6026ZM195.969 2.76881C195.969 2.2112 196.142 1.75935 196.489 1.41324C196.854 1.06714 197.306 0.894089 197.844 0.894089C198.402 0.894089 198.854 1.06714 199.2 1.41324C199.546 1.75935 199.719 2.2112 199.719 2.76881C199.719 3.3072 199.546 3.75905 199.2 4.12439C198.854 4.47049 198.402 4.64354 197.844 4.64354C197.306 4.64354 196.854 4.47049 196.489 4.12439C196.142 3.75905 195.969 3.3072 195.969 2.76881Z" fill="white"/>
<path d="M175.991 21.6026C176.78 21.3911 177.328 21.045 177.635 20.5643C177.962 20.0836 178.126 19.3433 178.126 18.3435V4.44166C178.126 3.42258 177.962 2.67268 177.635 2.19199C177.328 1.71129 176.78 1.3748 175.991 1.18252V0.72105L180.635 0L180.952 0.317261C180.875 0.855643 180.837 1.4421 180.837 2.07662V8.82563C182.029 7.72964 183.538 7.18164 185.365 7.18164C187.134 7.18164 188.489 7.65272 189.432 8.59489C190.374 9.53706 190.845 10.8926 190.845 12.6616V18.4011C190.845 19.3818 190.999 20.1124 191.306 20.5931C191.633 21.0546 192.191 21.3911 192.979 21.6026V22.0641H185.999V21.6026C186.788 21.3911 187.336 21.0546 187.643 20.5931C187.97 20.1124 188.134 19.3818 188.134 18.4011V12.4886C188.134 11.1811 187.836 10.162 187.24 9.43131C186.643 8.70065 185.807 8.33532 184.73 8.33532C183.538 8.33532 182.586 8.76795 181.875 9.63321C181.183 10.4792 180.837 11.6233 180.837 13.0654V18.4877C180.837 19.4491 180.99 20.1605 181.298 20.622C181.625 21.0835 182.183 21.4103 182.971 21.6026V22.0641H175.991V21.6026Z" fill="white"/>
<path d="M153.179 25.1213C153.179 23.6792 154.073 22.564 155.861 21.7757C155.362 21.5834 154.987 21.3046 154.737 20.9392C154.506 20.5739 154.391 20.1605 154.391 19.699C154.391 19.3145 154.496 18.9203 154.708 18.5165C154.919 18.1127 155.198 17.7186 155.544 17.334L156.063 16.7572C155.314 16.2957 154.727 15.6996 154.304 14.969C153.881 14.2191 153.67 13.373 153.67 12.4309C153.67 11.3926 153.929 10.4792 154.448 9.69089C154.967 8.90254 155.688 8.28725 156.611 7.84501C157.534 7.40276 158.601 7.18164 159.813 7.18164C160.813 7.18164 161.726 7.33546 162.553 7.64311H167.052V8.68142H164.312C164.831 9.14289 165.235 9.7005 165.524 10.3543C165.812 10.9888 165.956 11.6906 165.956 12.4597C165.956 13.498 165.697 14.4113 165.177 15.1997C164.658 15.988 163.937 16.6033 163.014 17.0456C162.111 17.4878 161.043 17.7089 159.813 17.7089C158.794 17.7089 157.861 17.5455 157.015 17.2186L156.496 17.8243C156.188 18.1512 156.035 18.4396 156.035 18.6896C156.035 19.1318 156.477 19.401 157.361 19.4971L162.524 19.9586C164.081 20.0932 165.264 20.497 166.072 21.17C166.879 21.8237 167.283 22.7082 167.283 23.8234C167.283 24.8425 166.956 25.727 166.302 26.4769C165.668 27.246 164.764 27.8325 163.591 28.2362C162.437 28.64 161.082 28.8419 159.524 28.8419C157.544 28.8419 155.986 28.5054 154.852 27.8325C153.737 27.1787 153.179 26.275 153.179 25.1213ZM156.352 12.1425C156.352 13.4884 156.698 14.5844 157.39 15.4304C158.082 16.2572 158.976 16.6706 160.072 16.6706C161.053 16.6706 161.832 16.3149 162.409 15.6035C162.985 14.8921 163.274 13.9403 163.274 12.7481C163.274 11.4022 162.928 10.3158 162.236 9.48899C161.543 8.64296 160.649 8.21995 159.553 8.21995C158.573 8.21995 157.794 8.57567 157.217 9.2871C156.64 9.99854 156.352 10.9503 156.352 12.1425ZM155.198 24.5733C155.198 25.6309 155.621 26.4288 156.467 26.9672C157.332 27.5248 158.515 27.8036 160.015 27.8036C161.553 27.8036 162.755 27.5248 163.62 26.9672C164.504 26.4096 164.947 25.6501 164.947 24.6887C164.947 23.958 164.658 23.4196 164.081 23.0735C163.505 22.7274 162.486 22.4871 161.024 22.3525L157.073 22.0064C155.823 22.6025 155.198 23.4581 155.198 24.5733Z" fill="white"/>
<path d="M144.674 21.6026C145.463 21.3911 146.011 21.0546 146.318 20.5931C146.645 20.1124 146.809 19.3818 146.809 18.4011V11.854C146.809 10.8349 146.645 10.085 146.318 9.60435C146.011 9.12365 145.463 8.78716 144.674 8.59488V8.13341L149.318 7.47005L149.635 7.78731C149.597 8.09495 149.568 8.39299 149.549 8.68141C149.529 8.9506 149.52 9.24863 149.52 9.57551V18.4011C149.52 19.3818 149.674 20.1124 149.981 20.5931C150.308 21.0546 150.866 21.3911 151.654 21.6026V22.0641H144.674V21.6026ZM146.088 2.76881C146.088 2.2112 146.261 1.75935 146.607 1.41324C146.972 1.06714 147.424 0.894089 147.962 0.894089C148.52 0.894089 148.972 1.06714 149.318 1.41324C149.664 1.75935 149.837 2.2112 149.837 2.76881C149.837 3.3072 149.664 3.75905 149.318 4.12439C148.972 4.47049 148.52 4.64354 147.962 4.64354C147.424 4.64354 146.972 4.47049 146.607 4.12439C146.261 3.75905 146.088 3.3072 146.088 2.76881Z" fill="white"/>
<path d="M128.804 4.44166C128.804 3.42258 128.64 2.67268 128.313 2.19199C128.006 1.71129 127.458 1.3748 126.669 1.18252V0.72105L131.313 0L131.63 0.317261C131.553 0.855643 131.515 1.46133 131.515 2.1343V8.79679C132.669 7.72002 134.13 7.18164 135.899 7.18164C137.956 7.18164 139.591 7.84501 140.802 9.17173C142.013 10.4792 142.619 12.277 142.619 14.5652C142.619 16.1803 142.302 17.584 141.667 18.7761C141.052 19.9682 140.167 20.8912 139.014 21.5449C137.86 22.1987 136.466 22.5255 134.832 22.5255C133.774 22.5255 132.697 22.3813 131.601 22.0929C130.525 21.8045 129.592 21.3911 128.804 20.8527V4.44166ZM139.793 15.3727C139.793 13.9691 139.6 12.7385 139.216 11.681C138.85 10.6234 138.331 9.80625 137.658 9.22942C136.985 8.63335 136.197 8.33532 135.293 8.33532C134.197 8.33532 133.293 8.76795 132.582 9.63321C131.871 10.4792 131.515 11.5656 131.515 12.8923V16.9591C131.515 17.8051 131.698 18.5742 132.063 19.2664C132.447 19.9394 132.957 20.4778 133.591 20.8816C134.226 21.2853 134.937 21.4872 135.726 21.4872C136.995 21.4872 137.985 20.9489 138.697 19.8721C139.427 18.7953 139.793 17.2955 139.793 15.3727Z" fill="white"/>
<path d="M104.102 18.7184C104.102 17.7762 104.4 16.9494 104.996 16.238C105.592 15.5266 106.428 14.9786 107.505 14.594C108.582 14.1902 109.831 13.9883 111.254 13.9883C111.966 13.9883 112.687 14.0364 113.418 14.1325V12.2867C113.418 11.0176 113.129 10.0274 112.552 9.31594C111.995 8.58528 111.216 8.21995 110.216 8.21995C108.312 8.21995 106.707 9.59475 105.399 12.3443L104.909 12.2001L105.371 8.21995C107.101 7.52775 108.784 7.18164 110.418 7.18164C112.245 7.18164 113.648 7.64311 114.629 8.56605C115.629 9.46976 116.129 10.7773 116.129 12.4886V19.526C116.129 20.5258 116.523 21.0258 117.311 21.0258C117.6 21.0258 117.859 20.92 118.09 20.7085L118.465 20.9969C117.869 21.9006 117.052 22.3525 116.013 22.3525C114.821 22.3525 114.042 21.7949 113.677 20.6797C112.523 21.9102 111.033 22.5255 109.207 22.5255C107.63 22.5255 106.38 22.1891 105.457 21.5161C104.553 20.8239 104.102 19.8913 104.102 18.7184ZM106.928 18.3723C106.928 19.3145 107.216 20.0548 107.793 20.5931C108.389 21.1315 109.159 21.4007 110.101 21.4007C111.043 21.4007 111.831 21.0162 112.466 20.247C113.1 19.4779 113.418 18.3242 113.418 16.786V15.142C113.11 15.1036 112.812 15.0747 112.523 15.0555C112.254 15.0363 111.985 15.0266 111.716 15.0266C110.197 15.0266 109.014 15.3247 108.168 15.9207C107.341 16.4976 106.928 17.3148 106.928 18.3723Z" fill="white"/>
<path d="M91.422 19.151C91.422 18.4396 91.1528 17.8435 90.6144 17.3628C90.076 16.8821 89.1531 16.3822 87.8456 15.8631C86.0958 15.1516 84.8556 14.4402 84.125 13.7288C83.3943 12.9981 83.029 12.1617 83.029 11.2195C83.029 9.98892 83.5097 9.0083 84.4711 8.27763C85.4517 7.54697 86.7592 7.18164 88.3936 7.18164C89.1819 7.18164 89.9991 7.27778 90.8451 7.47006C91.6912 7.64311 92.4795 7.89308 93.2102 8.21995L93.6716 12.0559L93.1813 12.2001C92.5276 10.9119 91.7585 9.93124 90.874 9.25826C89.9895 8.56605 89.0473 8.21995 88.0475 8.21995C87.2784 8.21995 86.6727 8.41223 86.2304 8.79679C85.8074 9.16212 85.5959 9.65243 85.5959 10.2677C85.5959 10.9022 85.8651 11.4502 86.4035 11.9117C86.9419 12.354 87.884 12.8443 89.23 13.3827C90.999 14.0941 92.2295 14.7863 92.9218 15.4593C93.6332 16.1323 93.9889 16.9591 93.9889 17.9397C93.9889 18.8242 93.7486 19.6125 93.2679 20.3047C92.8064 20.9969 92.1526 21.5449 91.3066 21.9487C90.4798 22.3333 89.5088 22.5255 88.3936 22.5255C87.6245 22.5255 86.8073 22.4198 85.942 22.2083C85.0768 22.016 84.2115 21.7276 83.3462 21.343L82.8848 17.507L83.3751 17.3628C84.0288 18.6703 84.8268 19.6894 85.769 20.4201C86.7304 21.1315 87.7398 21.4872 88.7974 21.4872C89.6242 21.4872 90.2683 21.2757 90.7298 20.8527C91.1912 20.4297 91.422 19.8625 91.422 19.151Z" fill="white"/>
<path d="M64.4139 7.64311H71.6532V8.10458C70.8841 8.1815 70.365 8.47953 70.0958 8.99868C69.8458 9.51784 69.9227 10.21 70.3265 11.0753L73.9317 18.7184L77.6235 11.0753C78.0465 10.21 78.1234 9.51784 77.8542 8.99868C77.585 8.47953 77.0659 8.1815 76.2968 8.10458V7.64311H81.6325V8.10458C80.9788 8.27764 80.4981 8.50837 80.1904 8.79679C79.8828 9.06598 79.5944 9.46977 79.3252 10.0081L72.9511 22.8716C72.2012 24.3907 71.5379 25.5828 70.961 26.448C70.3842 27.3325 69.8266 27.9478 69.2882 28.2939C68.7498 28.6593 68.1634 28.8419 67.5288 28.8419C66.7597 28.8419 66.106 28.6016 65.5676 28.1209C65.0292 27.6594 64.5485 26.8999 64.1255 25.8424L64.5293 25.5828C65.2599 26.3135 66.1829 26.6788 67.2981 26.6788C68.2595 26.6788 69.1151 26.3519 69.865 25.6982C70.6149 25.0636 71.3456 24.0157 72.057 22.5544L72.432 21.8045L66.7213 10.0081C66.4713 9.46977 66.1925 9.06598 65.8848 8.79679C65.5772 8.50837 65.0869 8.27764 64.4139 8.10458V7.64311Z" fill="white"/>
<path d="M50.2197 18.7184C50.2197 17.7762 50.5178 16.9494 51.1138 16.238C51.7099 15.5266 52.5463 14.9786 53.6231 14.594C54.6998 14.1902 55.9497 13.9883 57.3725 13.9883C58.084 13.9883 58.805 14.0364 59.5357 14.1325V12.2867C59.5357 11.0176 59.2473 10.0274 58.6704 9.31594C58.1128 8.58528 57.3341 8.21995 56.3342 8.21995C54.4307 8.21995 52.8251 9.59475 51.5176 12.3443L51.0273 12.2001L51.4888 8.21995C53.2193 7.52775 54.9017 7.18164 56.5361 7.18164C58.3628 7.18164 59.7664 7.64311 60.747 8.56605C61.7469 9.46976 62.2468 10.7773 62.2468 12.4886V19.526C62.2468 20.5258 62.641 21.0258 63.4293 21.0258C63.7178 21.0258 63.9773 20.92 64.2081 20.7085L64.583 20.9969C63.9869 21.9006 63.1698 22.3525 62.1314 22.3525C60.9393 22.3525 60.1606 21.7949 59.7952 20.6797C58.6416 21.9102 57.1514 22.5255 55.3247 22.5255C53.7481 22.5255 52.4982 22.1891 51.5753 21.5161C50.6716 20.8239 50.2197 19.8913 50.2197 18.7184ZM53.0462 18.3723C53.0462 19.3145 53.3347 20.0548 53.9115 20.5931C54.5076 21.1315 55.2767 21.4007 56.2188 21.4007C57.161 21.4007 57.9494 21.0162 58.5839 20.247C59.2184 19.4779 59.5357 18.3242 59.5357 16.786V15.142C59.228 15.1036 58.93 15.0747 58.6416 15.0555C58.3724 15.0363 58.1032 15.0266 57.834 15.0266C56.315 15.0266 55.1325 15.3247 54.2864 15.9207C53.4596 16.4976 53.0462 17.3148 53.0462 18.3723Z" fill="white"/>
<path d="M23.4043 7.64311H30.5571V8.10458C29.7687 8.1815 29.2592 8.47953 29.0285 8.99868C28.7977 9.51784 28.865 10.21 29.2304 11.0753L32.4318 18.4011L35.6044 11.1618L35.0853 10.0081C34.8353 9.45054 34.5469 9.03714 34.22 8.76795C33.9124 8.49876 33.4317 8.27764 32.7779 8.10458V7.64311H39.9307V8.10458C39.1424 8.1815 38.6328 8.47953 38.4021 8.99868C38.1714 9.51784 38.2387 10.21 38.604 11.0753L41.8054 18.4011L45.0069 11.0753C45.3915 10.21 45.4588 9.51784 45.2088 8.99868C44.9781 8.47953 44.4685 8.1815 43.6802 8.10458V7.64311H48.9294V8.10458C48.2757 8.27764 47.795 8.49876 47.4873 8.76795C47.1797 9.03714 46.8912 9.45054 46.622 10.0081L41.1132 22.3525H40.5941L36.1813 12.4309L31.7396 22.3525H31.2205L25.7117 10.0081C25.4617 9.45054 25.1733 9.03714 24.8464 8.76795C24.5387 8.49876 24.058 8.27764 23.4043 8.10458V7.64311Z" fill="white"/>
<path d="M15.502 21.6026C16.2903 21.3911 16.8383 21.0546 17.1459 20.5931C17.4728 20.1124 17.6363 19.3914 17.6363 18.43V4.44166C17.6363 3.42258 17.4728 2.67268 17.1459 2.19199C16.8383 1.71129 16.2903 1.3748 15.502 1.18252V0.72105L20.1455 0L20.4628 0.317261C20.3859 0.855643 20.3474 1.46133 20.3474 2.1343V18.43C20.3474 19.3914 20.5012 20.1124 20.8089 20.5931C21.1357 21.0546 21.6934 21.3911 22.4817 21.6026V22.0641H15.502V21.6026Z" fill="white"/>
<path d="M0 18.7184C0 17.7762 0.298033 16.9494 0.8941 16.238C1.49017 15.5266 2.32658 14.9786 3.40335 14.594C4.48011 14.1902 5.72993 13.9883 7.1528 13.9883C7.86423 13.9883 8.58528 14.0364 9.31594 14.1325V12.2867C9.31594 11.0176 9.02752 10.0274 8.45068 9.31594C7.89307 8.58528 7.11434 8.21995 6.11449 8.21995C4.21092 8.21995 2.60539 9.59475 1.29789 12.3443L0.807574 12.2001L1.26904 8.21995C2.99956 7.52775 4.68201 7.18164 6.31638 7.18164C8.14304 7.18164 9.54668 7.64311 10.5273 8.56605C11.5272 9.46976 12.0271 10.7773 12.0271 12.4886V19.526C12.0271 20.5258 12.4213 21.0258 13.2096 21.0258C13.498 21.0258 13.7576 20.92 13.9883 20.7085L14.3633 20.9969C13.7672 21.9006 12.95 22.3525 11.9117 22.3525C10.7196 22.3525 9.94085 21.7949 9.57552 20.6797C8.42184 21.9102 6.93168 22.5255 5.10502 22.5255C3.52833 22.5255 2.27851 22.1891 1.35557 21.5161C0.451857 20.8239 0 19.8913 0 18.7184ZM2.82651 18.3723C2.82651 19.3145 3.11493 20.0548 3.69177 20.5931C4.28783 21.1315 5.05695 21.4007 5.99912 21.4007C6.94129 21.4007 7.72964 21.0162 8.36416 20.247C8.99868 19.4779 9.31594 18.3242 9.31594 16.786V15.142C9.0083 15.1036 8.71026 15.0747 8.42184 15.0555C8.15265 15.0363 7.88346 15.0266 7.61427 15.0266C6.09526 15.0266 4.91274 15.3247 4.06671 15.9207C3.23991 16.4976 2.82651 17.3148 2.82651 18.3723Z" fill="white"/>
</svg>
