<svg width="190" height="89" viewBox="0 0 190 89" fill="none" xmlns="http://www.w3.org/2000/svg">
<path d="M0.448106 11.952C0.906772 11.8347 1.22677 11.6373 1.40811 11.36C1.60011 11.0827 1.69611 10.6613 1.69611 10.096V3.18399C1.69611 2.61866 1.60011 2.19732 1.40811 1.91999C1.22677 1.64266 0.906772 1.44532 0.448106 1.32799V1.03999H6.03211C6.50144 1.03999 6.92277 1.02932 7.29611 1.00799C7.68011 0.97599 8.08011 0.933323 8.49611 0.87999L8.86411 4.04799L8.57611 4.09599C8.33077 3.46666 8.08011 2.97599 7.82411 2.62399C7.57877 2.27199 7.29077 2.02132 6.96011 1.87199C6.64011 1.72266 6.23477 1.64799 5.74411 1.64799H3.29611V6.17599H4.91211C5.57344 6.17599 6.04811 6.07999 6.33611 5.88799C6.63477 5.68532 6.85877 5.31199 7.00811 4.76799H7.23211V8.19199H7.00811C6.86944 7.64799 6.65077 7.27999 6.35211 7.08799C6.05344 6.88532 5.57344 6.78399 4.91211 6.78399H3.29611V10.032C3.29611 10.5867 3.39211 10.992 3.58411 11.248C3.77611 11.504 4.08544 11.632 4.51211 11.632H5.61611C6.10677 11.632 6.53344 11.5467 6.89611 11.376C7.25877 11.1947 7.59477 10.8747 7.90411 10.416C8.21344 9.94666 8.53344 9.28532 8.86411 8.43199L9.15211 8.49599L8.73611 12.24H0.448106V11.952ZM10.6885 10.384C10.6885 9.86132 10.8538 9.40266 11.1845 9.00799C11.5151 8.61332 11.9791 8.30932 12.5765 8.09599C13.1738 7.87199 13.8671 7.75999 14.6565 7.75999C15.0511 7.75999 15.4511 7.78666 15.8565 7.83999V6.81599C15.8565 6.11199 15.6965 5.56266 15.3765 5.16799C15.0671 4.76266 14.6351 4.55999 14.0805 4.55999C13.0245 4.55999 12.1338 5.32266 11.4085 6.84799L11.1365 6.76799L11.3925 4.55999C12.3525 4.17599 13.2858 3.98399 14.1925 3.98399C15.2058 3.98399 15.9845 4.23999 16.5285 4.75199C17.0831 5.25332 17.3605 5.97866 17.3605 6.92799V10.832C17.3605 11.3867 17.5791 11.664 18.0165 11.664C18.1765 11.664 18.3205 11.6053 18.4485 11.488L18.6565 11.648C18.3258 12.1493 17.8725 12.4 17.2965 12.4C16.6351 12.4 16.2031 12.0907 16.0005 11.472C15.3605 12.1547 14.5338 12.496 13.5205 12.496C12.6458 12.496 11.9525 12.3093 11.4405 11.936C10.9391 11.552 10.6885 11.0347 10.6885 10.384ZM12.2565 10.192C12.2565 10.7147 12.4165 11.1253 12.7365 11.424C13.0671 11.7227 13.4938 11.872 14.0165 11.872C14.5391 11.872 14.9765 11.6587 15.3285 11.232C15.6805 10.8053 15.8565 10.1653 15.8565 9.31199V8.39999C15.6858 8.37866 15.5205 8.36266 15.3605 8.35199C15.2111 8.34132 15.0618 8.33599 14.9125 8.33599C14.0698 8.33599 13.4138 8.50132 12.9445 8.83199C12.4858 9.15199 12.2565 9.60532 12.2565 10.192ZM19.3681 11.984C19.8054 11.8667 20.1094 11.68 20.2801 11.424C20.4614 11.1573 20.5521 10.7573 20.5521 10.224V6.54399C20.5521 5.99999 20.4614 5.59466 20.2801 5.32799C20.1094 5.06132 19.8054 4.87466 19.3681 4.76799V4.51199L21.6881 4.14399C21.7841 4.32532 21.8534 4.49066 21.8961 4.63999C21.9388 4.78932 21.9654 4.97066 21.9761 5.18399C22.2214 4.81066 22.5201 4.51732 22.8721 4.30399C23.2348 4.09066 23.6294 3.98399 24.0561 3.98399C24.6534 3.98399 25.1814 4.17599 25.6401 4.55999L25.7361 6.78399L25.4641 6.84799C25.1334 6.09066 24.8188 5.55199 24.5201 5.23199C24.2214 4.91199 23.8854 4.75199 23.5121 4.75199C23.0534 4.75199 22.6961 4.96532 22.4401 5.39199C22.1841 5.81866 22.0561 6.42132 22.0561 7.19999V10.224C22.0561 10.8 22.1628 11.2107 22.3761 11.456C22.5894 11.7013 22.9841 11.8667 23.5601 11.952V12.24H19.3681V11.984ZM26.6025 11.984C27.0398 11.8667 27.3438 11.68 27.5145 11.424C27.6958 11.1573 27.7865 10.752 27.7865 10.208V6.57599C27.7865 6.01066 27.6958 5.59466 27.5145 5.32799C27.3438 5.06132 27.0398 4.87466 26.6025 4.76799V4.51199L28.9225 4.14399C29.0825 4.44266 29.1731 4.72532 29.1945 4.99199C29.8771 4.31999 30.7465 3.98399 31.8025 3.98399C32.7838 3.98399 33.5358 4.24532 34.0585 4.76799C34.5811 5.29066 34.8425 6.04266 34.8425 7.02399V10.208C34.8425 10.752 34.9278 11.1573 35.0985 11.424C35.2798 11.68 35.5891 11.8667 36.0265 11.984V12.24H32.1545V11.984C32.5918 11.8667 32.8958 11.68 33.0665 11.424C33.2478 11.1573 33.3385 10.752 33.3385 10.208V6.92799C33.3385 6.20266 33.1731 5.63732 32.8425 5.23199C32.5118 4.82666 32.0478 4.62399 31.4505 4.62399C30.7891 4.62399 30.2611 4.86399 29.8665 5.34399C29.4825 5.81332 29.2905 6.44799 29.2905 7.24799V10.208C29.2905 10.752 29.3758 11.1573 29.5465 11.424C29.7278 11.68 30.0371 11.8667 30.4745 11.984V12.24H26.6025V11.984ZM41.8434 9.45599V6.60799C41.8434 6.04266 41.7527 5.62666 41.5714 5.35999C41.4007 5.09332 41.0967 4.90666 40.6594 4.79999V4.54399L43.2354 4.14399L43.4114 4.31999C43.3687 4.61866 43.3474 4.94932 43.3474 5.31199V9.55199C43.3474 10.2773 43.502 10.8427 43.8114 11.248C44.1207 11.6533 44.5527 11.856 45.1074 11.856C45.4914 11.856 45.8487 11.76 46.1794 11.568C46.51 11.376 46.7714 11.0987 46.9634 10.736C47.166 10.3733 47.2674 9.94132 47.2674 9.43999V5.91999C47.2674 5.53599 47.2034 5.26399 47.0754 5.10399C46.958 4.94399 46.686 4.82666 46.2594 4.75199V4.51199L48.6914 4.14399L48.8354 4.28799C48.7927 4.63999 48.7714 4.99732 48.7714 5.35999V10.208C48.7714 10.752 48.8567 11.1573 49.0274 11.424C49.2087 11.68 49.518 11.8667 49.9554 11.984V12.24L47.6354 12.4C47.454 12.0587 47.358 11.7173 47.3474 11.376C46.6754 12.1227 45.8114 12.496 44.7554 12.496C43.8167 12.496 43.0967 12.2347 42.5954 11.712C42.094 11.1787 41.8434 10.4267 41.8434 9.45599ZM50.8369 11.984C51.2742 11.8667 51.5782 11.68 51.7489 11.424C51.9302 11.1573 52.0209 10.752 52.0209 10.208V6.57599C52.0209 6.01066 51.9302 5.59466 51.7489 5.32799C51.5782 5.06132 51.2742 4.87466 50.8369 4.76799V4.51199L53.1569 4.14399C53.3169 4.44266 53.4075 4.72532 53.4289 4.99199C54.1115 4.31999 54.9809 3.98399 56.0369 3.98399C57.0182 3.98399 57.7702 4.24532 58.2929 4.76799C58.8155 5.29066 59.0769 6.04266 59.0769 7.02399V10.208C59.0769 10.752 59.1622 11.1573 59.3329 11.424C59.5142 11.68 59.8235 11.8667 60.2609 11.984V12.24H56.3889V11.984C56.8262 11.8667 57.1302 11.68 57.3009 11.424C57.4822 11.1573 57.5729 10.752 57.5729 10.208V6.92799C57.5729 6.20266 57.4075 5.63732 57.0769 5.23199C56.7462 4.82666 56.2822 4.62399 55.6849 4.62399C55.0235 4.62399 54.4955 4.86399 54.1009 5.34399C53.7169 5.81332 53.5249 6.44799 53.5249 7.24799V10.208C53.5249 10.752 53.6102 11.1573 53.7809 11.424C53.9622 11.68 54.2715 11.8667 54.7089 11.984V12.24H50.8369V11.984ZM61.0537 11.984C61.4911 11.8667 61.7951 11.68 61.9657 11.424C62.1471 11.1573 62.2377 10.7573 62.2377 10.224V2.46399C62.2377 1.89866 62.1471 1.48266 61.9657 1.21599C61.7951 0.949323 61.4911 0.762656 61.0537 0.65599V0.39999L63.6297 -1.04904e-05L63.8057 0.17599C63.7631 0.474657 63.7417 0.810657 63.7417 1.18399V10.224C63.7417 10.7573 63.8271 11.1573 63.9977 11.424C64.1791 11.68 64.4884 11.8667 64.9257 11.984V12.24H61.0537V11.984ZM65.8056 11.984C66.2429 11.8667 66.5469 11.68 66.7176 11.424C66.8989 11.1573 66.9896 10.752 66.9896 10.208V6.57599C66.9896 6.01066 66.8989 5.59466 66.7176 5.32799C66.5469 5.06132 66.2429 4.87466 65.8056 4.76799V4.51199L68.3816 4.14399L68.5576 4.31999C68.5363 4.49066 68.5203 4.65599 68.5096 4.81599C68.4989 4.96532 68.4936 5.13066 68.4936 5.31199V10.208C68.4936 10.752 68.5789 11.1573 68.7496 11.424C68.9309 11.68 69.2403 11.8667 69.6776 11.984V12.24H65.8056V11.984ZM66.5896 1.53599C66.5896 1.22666 66.6856 0.97599 66.8776 0.78399C67.0803 0.59199 67.3309 0.49599 67.6296 0.49599C67.9389 0.49599 68.1896 0.59199 68.3816 0.78399C68.5736 0.97599 68.6696 1.22666 68.6696 1.53599C68.6696 1.83466 68.5736 2.08532 68.3816 2.28799C68.1896 2.47999 67.9389 2.57599 67.6296 2.57599C67.3309 2.57599 67.0803 2.47999 66.8776 2.28799C66.6856 2.08532 66.5896 1.83466 66.5896 1.53599ZM70.5556 11.984C70.9929 11.8667 71.2969 11.68 71.4676 11.424C71.6489 11.1573 71.7396 10.752 71.7396 10.208V6.57599C71.7396 6.01066 71.6489 5.59466 71.4676 5.32799C71.2969 5.06132 70.9929 4.87466 70.5556 4.76799V4.51199L72.8756 4.14399C73.0249 4.43199 73.1156 4.70399 73.1476 4.95999C73.7983 4.30932 74.6196 3.98399 75.6116 3.98399C76.8596 3.98399 77.7129 4.44266 78.1716 5.35999C78.8969 4.44266 79.8409 3.98399 81.0036 3.98399C81.9423 3.98399 82.6623 4.24532 83.1636 4.76799C83.6756 5.29066 83.9316 6.04266 83.9316 7.02399V10.208C83.9316 10.752 84.0169 11.1573 84.1876 11.424C84.3689 11.68 84.6783 11.8667 85.1156 11.984V12.24H81.2436V11.984C81.6809 11.8667 81.9849 11.68 82.1556 11.424C82.3369 11.1573 82.4276 10.752 82.4276 10.208V6.92799C82.4276 6.20266 82.2676 5.63732 81.9476 5.23199C81.6276 4.82666 81.1849 4.62399 80.6196 4.62399C80.0009 4.62399 79.5049 4.86399 79.1316 5.34399C78.7689 5.81332 78.5876 6.44799 78.5876 7.24799V10.208C78.5876 10.752 78.6729 11.1573 78.8436 11.424C79.0249 11.68 79.3343 11.8667 79.7716 11.984V12.24H75.8996V11.984C76.3369 11.8667 76.6409 11.68 76.8116 11.424C76.9929 11.1573 77.0836 10.752 77.0836 10.208V6.92799C77.0836 6.20266 76.9236 5.63732 76.6036 5.23199C76.2836 4.82666 75.8409 4.62399 75.2756 4.62399C74.6569 4.62399 74.1609 4.86399 73.7876 5.34399C73.4249 5.81332 73.2436 6.44799 73.2436 7.24799V10.208C73.2436 10.752 73.3289 11.1573 73.4996 11.424C73.6809 11.68 73.9903 11.8667 74.4276 11.984V12.24H70.5556V11.984ZM85.9931 11.984C86.4304 11.8667 86.7344 11.68 86.9051 11.424C87.0864 11.1573 87.1771 10.752 87.1771 10.208V6.57599C87.1771 6.01066 87.0864 5.59466 86.9051 5.32799C86.7344 5.06132 86.4304 4.87466 85.9931 4.76799V4.51199L88.5691 4.14399L88.7451 4.31999C88.7238 4.49066 88.7078 4.65599 88.6971 4.81599C88.6864 4.96532 88.6811 5.13066 88.6811 5.31199V10.208C88.6811 10.752 88.7664 11.1573 88.9371 11.424C89.1184 11.68 89.4278 11.8667 89.8651 11.984V12.24H85.9931V11.984ZM86.7771 1.53599C86.7771 1.22666 86.8731 0.97599 87.0651 0.78399C87.2678 0.59199 87.5184 0.49599 87.8171 0.49599C88.1264 0.49599 88.3771 0.59199 88.5691 0.78399C88.7611 0.97599 88.8571 1.22666 88.8571 1.53599C88.8571 1.83466 88.7611 2.08532 88.5691 2.28799C88.3771 2.47999 88.1264 2.57599 87.8171 2.57599C87.5184 2.57599 87.2678 2.47999 87.0651 2.28799C86.8731 2.08532 86.7771 1.83466 86.7771 1.53599ZM90.5191 4.23999H91.7031V2.63999L93.0951 2.41599L93.2711 2.59199C93.2284 2.89066 93.2071 3.22132 93.2071 3.58399V4.23999H95.7511V4.81599H93.2071V10.08C93.2071 11.0507 93.6124 11.536 94.4231 11.536C94.9031 11.536 95.3138 11.312 95.6551 10.864L95.9111 11.008C95.4844 12 94.7751 12.496 93.7831 12.496C92.3964 12.496 91.7031 11.68 91.7031 10.048V4.81599H90.5191V4.23999ZM97.056 8.30399C97.056 7.43999 97.216 6.68799 97.536 6.04799C97.856 5.39732 98.304 4.89066 98.88 4.52799C99.456 4.16532 100.123 3.98399 100.88 3.98399C101.861 3.98399 102.645 4.30399 103.232 4.94399C103.819 5.57332 104.165 6.47999 104.272 7.66399H98.496C98.496 8.82666 98.768 9.73332 99.312 10.384C99.856 11.024 100.619 11.344 101.6 11.344C102.56 11.344 103.296 11.0027 103.808 10.32L104.064 10.464C103.456 11.8187 102.395 12.496 100.88 12.496C100.112 12.496 99.44 12.3253 98.864 11.984C98.288 11.632 97.84 11.1413 97.52 10.512C97.2106 9.88266 97.056 9.14666 97.056 8.30399ZM102.624 7.08799C102.571 6.29866 102.363 5.67999 102 5.23199C101.648 4.78399 101.179 4.55999 100.592 4.55999C100.005 4.55999 99.5306 4.78399 99.168 5.23199C98.8053 5.67999 98.592 6.29866 98.528 7.08799H102.624ZM105.431 8.44799C105.431 7.57332 105.596 6.79999 105.927 6.12799C106.258 5.45599 106.716 4.93332 107.303 4.55999C107.89 4.17599 108.562 3.98399 109.319 3.98399C110.172 3.98399 110.93 4.20799 111.591 4.65599V2.44799C111.591 1.88266 111.5 1.46666 111.319 1.19999C111.148 0.922656 110.844 0.730657 110.407 0.62399V0.36799L112.983 -1.04904e-05L113.159 0.17599C113.116 0.474657 113.095 0.805323 113.095 1.16799V10.208C113.095 10.752 113.18 11.1573 113.351 11.424C113.532 11.68 113.842 11.8667 114.279 11.984V12.24L111.959 12.4C111.799 12.0907 111.708 11.7867 111.687 11.488C111.004 12.16 110.156 12.496 109.143 12.496C108.012 12.496 107.111 12.1333 106.439 11.408C105.767 10.6827 105.431 9.69599 105.431 8.44799ZM106.999 7.95199C106.999 8.73066 107.1 9.41332 107.303 9.99999C107.516 10.5867 107.81 11.0453 108.183 11.376C108.567 11.696 109.004 11.856 109.495 11.856C110.103 11.856 110.604 11.6213 110.999 11.152C111.394 10.672 111.591 10.064 111.591 9.32799V7.07199C111.591 6.60266 111.484 6.18132 111.271 5.80799C111.068 5.42399 110.791 5.11999 110.439 4.89599C110.087 4.67199 109.692 4.55999 109.255 4.55999C108.551 4.55999 107.996 4.85866 107.591 5.45599C107.196 6.05332 106.999 6.88532 106.999 7.95199ZM124.413 3.47199C124.413 2.83199 124.248 2.35732 123.917 2.04799C123.597 1.73866 123.218 1.58399 122.781 1.58399C122.13 1.58399 121.586 1.81866 121.149 2.28799C120.712 2.75732 120.312 3.50399 119.949 4.52799L119.661 4.47999L119.981 1.64799C120.578 1.42399 121.117 1.26932 121.597 1.18399C122.077 1.08799 122.53 1.03999 122.957 1.03999C123.938 1.03999 124.712 1.25866 125.277 1.69599C125.853 2.12266 126.141 2.74132 126.141 3.55199C126.141 3.95732 126.008 4.41599 125.741 4.92799C125.474 5.42932 125.021 6.05332 124.381 6.79999C123.752 7.53599 122.893 8.45866 121.805 9.56799L120.573 10.832H124.733C125.202 10.832 125.56 10.7147 125.805 10.48C126.061 10.2453 126.306 9.81866 126.541 9.19999L126.829 9.24799L126.477 12.24H119.037L118.925 11.984L121.293 9.10399C121.88 8.38932 122.37 7.76532 122.765 7.23199C123.17 6.69866 123.49 6.22399 123.725 5.80799C123.97 5.39199 124.146 4.99732 124.253 4.62399C124.36 4.25066 124.413 3.86666 124.413 3.47199ZM134.058 11.984C134.496 11.8453 134.746 11.632 134.81 11.344C134.885 11.056 134.768 10.672 134.458 10.192L132.57 7.19999L130.602 10.192C129.973 11.1413 130.053 11.7387 130.842 11.984V12.24H127.722V11.984C128.458 11.7493 129.104 11.232 129.658 10.432L132.218 6.63999L129.738 2.71999C129.493 2.32532 129.237 2.01066 128.97 1.77599C128.714 1.54132 128.394 1.38132 128.01 1.29599V1.03999H132.234V1.29599C131.701 1.41332 131.413 1.61599 131.37 1.90399C131.338 2.18132 131.488 2.57599 131.818 3.08799L133.434 5.63199L135.114 3.08799C135.488 2.53332 135.653 2.11199 135.61 1.82399C135.578 1.53599 135.28 1.35999 134.714 1.29599V1.03999H138.01V1.29599C137.754 1.34932 137.53 1.42399 137.338 1.51999C137.146 1.61599 136.954 1.76532 136.762 1.96799C136.57 2.17066 136.341 2.46399 136.074 2.84799L133.786 6.19199L136.57 10.56C136.816 10.9547 137.066 11.2587 137.322 11.472C137.589 11.6747 137.914 11.8453 138.298 11.984V12.24H134.058V11.984ZM143.196 11.984C143.634 11.8667 143.938 11.68 144.108 11.424C144.29 11.1573 144.38 10.752 144.38 10.208V6.57599C144.38 6.01066 144.29 5.59466 144.108 5.32799C143.938 5.06132 143.634 4.87466 143.196 4.76799V4.51199L145.516 4.14399C145.666 4.43199 145.756 4.70399 145.788 4.95999C146.439 4.30932 147.26 3.98399 148.252 3.98399C149.5 3.98399 150.354 4.44266 150.812 5.35999C151.538 4.44266 152.482 3.98399 153.644 3.98399C154.583 3.98399 155.303 4.24532 155.804 4.76799C156.316 5.29066 156.572 6.04266 156.572 7.02399V10.208C156.572 10.752 156.658 11.1573 156.828 11.424C157.01 11.68 157.319 11.8667 157.756 11.984V12.24H153.884V11.984C154.322 11.8667 154.626 11.68 154.796 11.424C154.978 11.1573 155.068 10.752 155.068 10.208V6.92799C155.068 6.20266 154.908 5.63732 154.588 5.23199C154.268 4.82666 153.826 4.62399 153.26 4.62399C152.642 4.62399 152.146 4.86399 151.772 5.34399C151.41 5.81332 151.228 6.44799 151.228 7.24799V10.208C151.228 10.752 151.314 11.1573 151.484 11.424C151.666 11.68 151.975 11.8667 152.412 11.984V12.24H148.54V11.984C148.978 11.8667 149.282 11.68 149.452 11.424C149.634 11.1573 149.724 10.752 149.724 10.208V6.92799C149.724 6.20266 149.564 5.63732 149.244 5.23199C148.924 4.82666 148.482 4.62399 147.916 4.62399C147.298 4.62399 146.802 4.86399 146.428 5.34399C146.066 5.81332 145.884 6.44799 145.884 7.24799V10.208C145.884 10.752 145.97 11.1573 146.14 11.424C146.322 11.68 146.631 11.8667 147.068 11.984V12.24H143.196V11.984ZM158.634 11.984C159.071 11.8667 159.375 11.68 159.546 11.424C159.727 11.1573 159.818 10.752 159.818 10.208V6.57599C159.818 6.01066 159.727 5.59466 159.546 5.32799C159.375 5.06132 159.071 4.87466 158.634 4.76799V4.51199L161.21 4.14399L161.386 4.31999C161.364 4.49066 161.348 4.65599 161.338 4.81599C161.327 4.96532 161.322 5.13066 161.322 5.31199V10.208C161.322 10.752 161.407 11.1573 161.578 11.424C161.759 11.68 162.068 11.8667 162.506 11.984V12.24H158.634V11.984ZM159.418 1.53599C159.418 1.22666 159.514 0.97599 159.706 0.78399C159.908 0.59199 160.159 0.49599 160.458 0.49599C160.767 0.49599 161.018 0.59199 161.21 0.78399C161.402 0.97599 161.498 1.22666 161.498 1.53599C161.498 1.83466 161.402 2.08532 161.21 2.28799C161.018 2.47999 160.767 2.57599 160.458 2.57599C160.159 2.57599 159.908 2.47999 159.706 2.28799C159.514 2.08532 159.418 1.83466 159.418 1.53599ZM163.304 11.984C163.741 11.8667 164.045 11.68 164.216 11.424C164.397 11.1573 164.488 10.7573 164.488 10.224V2.46399C164.488 1.89866 164.397 1.48266 164.216 1.21599C164.045 0.949323 163.741 0.762656 163.304 0.65599V0.39999L165.88 -1.04904e-05L166.056 0.17599C166.013 0.474657 165.992 0.810657 165.992 1.18399V10.224C165.992 10.7573 166.077 11.1573 166.248 11.424C166.429 11.68 166.738 11.8667 167.176 11.984V12.24H163.304V11.984ZM168.072 8.30399C168.072 7.43999 168.232 6.68799 168.552 6.04799C168.872 5.39732 169.32 4.89066 169.896 4.52799C170.472 4.16532 171.138 3.98399 171.896 3.98399C172.877 3.98399 173.661 4.30399 174.248 4.94399C174.834 5.57332 175.181 6.47999 175.288 7.66399H169.512C169.512 8.82666 169.784 9.73332 170.328 10.384C170.872 11.024 171.634 11.344 172.616 11.344C173.576 11.344 174.312 11.0027 174.824 10.32L175.08 10.464C174.472 11.8187 173.41 12.496 171.896 12.496C171.128 12.496 170.456 12.3253 169.88 11.984C169.304 11.632 168.856 11.1413 168.536 10.512C168.226 9.88266 168.072 9.14666 168.072 8.30399ZM173.64 7.08799C173.586 6.29866 173.378 5.67999 173.016 5.23199C172.664 4.78399 172.194 4.55999 171.608 4.55999C171.021 4.55999 170.546 4.78399 170.184 5.23199C169.821 5.67999 169.608 6.29866 169.544 7.08799H173.64ZM181.327 10.624C181.327 10.2293 181.177 9.89866 180.879 9.63199C180.58 9.36532 180.068 9.08799 179.343 8.79999C178.372 8.40532 177.684 8.01066 177.279 7.61599C176.873 7.21066 176.671 6.74666 176.671 6.22399C176.671 5.54132 176.937 4.99732 177.471 4.59199C178.015 4.18666 178.74 3.98399 179.647 3.98399C180.084 3.98399 180.537 4.03732 181.007 4.14399C181.476 4.23999 181.913 4.37866 182.319 4.55999L182.575 6.68799L182.303 6.76799C181.94 6.05332 181.513 5.50932 181.023 5.13599C180.532 4.75199 180.009 4.55999 179.455 4.55999C179.028 4.55999 178.692 4.66666 178.447 4.87999C178.212 5.08266 178.095 5.35466 178.095 5.69599C178.095 6.04799 178.244 6.35199 178.543 6.60799C178.841 6.85332 179.364 7.12532 180.111 7.42399C181.092 7.81866 181.775 8.20266 182.159 8.57599C182.553 8.94932 182.751 9.40799 182.751 9.95199C182.751 10.4427 182.617 10.88 182.351 11.264C182.095 11.648 181.732 11.952 181.263 12.176C180.804 12.3893 180.265 12.496 179.647 12.496C179.22 12.496 178.767 12.4373 178.287 12.32C177.807 12.2133 177.327 12.0533 176.847 11.84L176.591 9.71199L176.863 9.63199C177.225 10.3573 177.668 10.9227 178.191 11.328C178.724 11.7227 179.284 11.92 179.871 11.92C180.329 11.92 180.687 11.8027 180.943 11.568C181.199 11.3333 181.327 11.0187 181.327 10.624ZM0.00010547 25.24H3.96811V25.496C3.53077 25.5387 3.24811 25.704 3.12011 25.992C2.99211 26.28 3.02944 26.664 3.23211 27.144L5.00811 31.208L6.76811 27.192L6.48011 26.552C6.34144 26.2427 6.18144 26.0133 6.00011 25.864C5.82944 25.7147 5.56277 25.592 5.20011 25.496V25.24H9.16811V25.496C8.73077 25.5387 8.44811 25.704 8.32011 25.992C8.19211 26.28 8.22944 26.664 8.43211 27.144L10.2081 31.208L11.9841 27.144C12.1974 26.664 12.2348 26.28 12.0961 25.992C11.9681 25.704 11.6854 25.5387 11.2481 25.496V25.24H14.1601V25.496C13.7974 25.592 13.5308 25.7147 13.3601 25.864C13.1894 26.0133 13.0294 26.2427 12.8801 26.552L9.82411 33.4H9.53611L7.08811 27.896L4.62411 33.4H4.33611L1.28011 26.552C1.14144 26.2427 0.981439 26.0133 0.800106 25.864C0.629439 25.7147 0.362772 25.592 0.00010547 25.496V25.24ZM14.915 32.984C15.3523 32.8667 15.6563 32.68 15.827 32.424C16.0083 32.1573 16.099 31.752 16.099 31.208V27.576C16.099 27.0107 16.0083 26.5947 15.827 26.328C15.6563 26.0613 15.3523 25.8747 14.915 25.768V25.512L17.491 25.144L17.667 25.32C17.6456 25.4907 17.6296 25.656 17.619 25.816C17.6083 25.9653 17.603 26.1307 17.603 26.312V31.208C17.603 31.752 17.6883 32.1573 17.859 32.424C18.0403 32.68 18.3496 32.8667 18.787 32.984V33.24H14.915V32.984ZM15.699 22.536C15.699 22.2267 15.795 21.976 15.987 21.784C16.1896 21.592 16.4403 21.496 16.739 21.496C17.0483 21.496 17.299 21.592 17.491 21.784C17.683 21.976 17.779 22.2267 17.779 22.536C17.779 22.8347 17.683 23.0853 17.491 23.288C17.299 23.48 17.0483 23.576 16.739 23.576C16.4403 23.576 16.1896 23.48 15.987 23.288C15.795 23.0853 15.699 22.8347 15.699 22.536ZM19.441 25.24H20.625V23.64L22.017 23.416L22.193 23.592C22.1503 23.8907 22.129 24.2213 22.129 24.584V25.24H24.673V25.816H22.129V31.08C22.129 32.0507 22.5343 32.536 23.345 32.536C23.825 32.536 24.2356 32.312 24.577 31.864L24.833 32.008C24.4063 33 23.697 33.496 22.705 33.496C21.3183 33.496 20.625 32.68 20.625 31.048V25.816H19.441V25.24ZM26.0381 32.984C26.4754 32.8667 26.7794 32.6747 26.9501 32.408C27.1314 32.1413 27.2221 31.7307 27.2221 31.176V23.464C27.2221 22.8987 27.1314 22.4827 26.9501 22.216C26.7794 21.9493 26.4754 21.7627 26.0381 21.656V21.4L28.6141 21L28.7901 21.176C28.7474 21.4747 28.7261 21.8 28.7261 22.152V25.896C29.3874 25.288 30.2248 24.984 31.2381 24.984C32.2194 24.984 32.9714 25.2453 33.4941 25.768C34.0168 26.2907 34.2781 27.0427 34.2781 28.024V31.208C34.2781 31.752 34.3634 32.1573 34.5341 32.424C34.7154 32.68 35.0248 32.8667 35.4621 32.984V33.24H31.5901V32.984C32.0274 32.8667 32.3314 32.68 32.5021 32.424C32.6834 32.1573 32.7741 31.752 32.7741 31.208V27.928C32.7741 27.2027 32.6088 26.6373 32.2781 26.232C31.9474 25.8267 31.4834 25.624 30.8861 25.624C30.2248 25.624 29.6968 25.864 29.3021 26.344C28.9181 26.8133 28.7261 27.448 28.7261 28.248V31.256C28.7261 31.7893 28.8114 32.184 28.9821 32.44C29.1634 32.696 29.4728 32.8773 29.9101 32.984V33.24H26.0381V32.984ZM40.1129 22.04H44.3369V22.296C43.8035 22.4133 43.4729 22.6267 43.3449 22.936C43.2275 23.2453 43.2595 23.6293 43.4409 24.088L46.2249 30.872L48.9929 24.104C49.1849 23.6347 49.1902 23.2347 49.0089 22.904C48.8275 22.5627 48.4542 22.36 47.8889 22.296V22.04H51.1849V22.296C50.7902 22.3813 50.5022 22.5627 50.3209 22.84C50.1395 23.1173 49.9315 23.5387 49.6969 24.104L45.7929 33.4H45.5049L41.6009 24.104C41.3662 23.5387 41.1529 23.1173 40.9609 22.84C40.7795 22.5627 40.4969 22.3813 40.1129 22.296V22.04ZM50.6341 29.304C50.6341 28.44 50.7941 27.688 51.1141 27.048C51.4341 26.3973 51.8821 25.8907 52.4581 25.528C53.0341 25.1653 53.7008 24.984 54.4581 24.984C55.4394 24.984 56.2234 25.304 56.8101 25.944C57.3968 26.5733 57.7434 27.48 57.8501 28.664H52.0741C52.0741 29.8267 52.3461 30.7333 52.8901 31.384C53.4341 32.024 54.1968 32.344 55.1781 32.344C56.1381 32.344 56.8741 32.0027 57.3861 31.32L57.6421 31.464C57.0341 32.8187 55.9728 33.496 54.4581 33.496C53.6901 33.496 53.0181 33.3253 52.4421 32.984C51.8661 32.632 51.4181 32.1413 51.0981 31.512C50.7888 30.8827 50.6341 30.1467 50.6341 29.304ZM56.2021 28.088C56.1488 27.2987 55.9408 26.68 55.5781 26.232C55.2261 25.784 54.7568 25.56 54.1701 25.56C53.5834 25.56 53.1088 25.784 52.7461 26.232C52.3834 26.68 52.1701 27.2987 52.1061 28.088H56.2021ZM58.9931 32.984C59.4304 32.8667 59.7344 32.68 59.9051 32.424C60.0864 32.1573 60.1771 31.752 60.1771 31.208V27.576C60.1771 27.0107 60.0864 26.5947 59.9051 26.328C59.7344 26.0613 59.4304 25.8747 58.9931 25.768V25.512L61.3131 25.144C61.4731 25.4427 61.5638 25.7253 61.5851 25.992C62.2678 25.32 63.1371 24.984 64.1931 24.984C65.1744 24.984 65.9264 25.2453 66.4491 25.768C66.9718 26.2907 67.2331 27.0427 67.2331 28.024V31.208C67.2331 31.752 67.3184 32.1573 67.4891 32.424C67.6704 32.68 67.9798 32.8667 68.4171 32.984V33.24H64.5451V32.984C64.9824 32.8667 65.2864 32.68 65.4571 32.424C65.6384 32.1573 65.7291 31.752 65.7291 31.208V27.928C65.7291 27.2027 65.5638 26.6373 65.2331 26.232C64.9024 25.8267 64.4384 25.624 63.8411 25.624C63.1798 25.624 62.6518 25.864 62.2571 26.344C61.8731 26.8133 61.6811 27.448 61.6811 28.248V31.208C61.6811 31.752 61.7664 32.1573 61.9371 32.424C62.1184 32.68 62.4278 32.8667 62.8651 32.984V33.24H58.9931V32.984ZM69.066 25.24H70.25V23.64L71.642 23.416L71.818 23.592C71.7753 23.8907 71.754 24.2213 71.754 24.584V25.24H74.298V25.816H71.754V31.08C71.754 32.0507 72.1593 32.536 72.97 32.536C73.45 32.536 73.8606 32.312 74.202 31.864L74.458 32.008C74.0313 33 73.322 33.496 72.33 33.496C70.9433 33.496 70.25 32.68 70.25 31.048V25.816H69.066V25.24ZM76.6871 30.456V27.608C76.6871 27.0427 76.5964 26.6267 76.4151 26.36C76.2444 26.0933 75.9404 25.9067 75.5031 25.8V25.544L78.0791 25.144L78.2551 25.32C78.2124 25.6187 78.1911 25.9493 78.1911 26.312V30.552C78.1911 31.2773 78.3458 31.8427 78.6551 32.248C78.9644 32.6533 79.3964 32.856 79.9511 32.856C80.3351 32.856 80.6924 32.76 81.0231 32.568C81.3538 32.376 81.6151 32.0987 81.8071 31.736C82.0098 31.3733 82.1111 30.9413 82.1111 30.44V26.92C82.1111 26.536 82.0471 26.264 81.9191 26.104C81.8018 25.944 81.5298 25.8267 81.1031 25.752V25.512L83.5351 25.144L83.6791 25.288C83.6364 25.64 83.6151 25.9973 83.6151 26.36V31.208C83.6151 31.752 83.7004 32.1573 83.8711 32.424C84.0524 32.68 84.3618 32.8667 84.7991 32.984V33.24L82.4791 33.4C82.2978 33.0587 82.2018 32.7173 82.1911 32.376C81.5191 33.1227 80.6551 33.496 79.5991 33.496C78.6604 33.496 77.9404 33.2347 77.4391 32.712C76.9378 32.1787 76.6871 31.4267 76.6871 30.456ZM85.6806 32.984C86.1179 32.8667 86.4219 32.68 86.5926 32.424C86.7739 32.1573 86.8646 31.7573 86.8646 31.224V27.544C86.8646 27 86.7739 26.5947 86.5926 26.328C86.4219 26.0613 86.1179 25.8747 85.6806 25.768V25.512L88.0006 25.144C88.0966 25.3253 88.1659 25.4907 88.2086 25.64C88.2513 25.7893 88.2779 25.9707 88.2886 26.184C88.5339 25.8107 88.8326 25.5173 89.1846 25.304C89.5473 25.0907 89.9419 24.984 90.3686 24.984C90.9659 24.984 91.4939 25.176 91.9526 25.56L92.0486 27.784L91.7766 27.848C91.4459 27.0907 91.1313 26.552 90.8326 26.232C90.5339 25.912 90.1979 25.752 89.8246 25.752C89.3659 25.752 89.0086 25.9653 88.7526 26.392C88.4966 26.8187 88.3686 27.4213 88.3686 28.2V31.224C88.3686 31.8 88.4753 32.2107 88.6886 32.456C88.9019 32.7013 89.2966 32.8667 89.8726 32.952V33.24H85.6806V32.984ZM92.931 29.304C92.931 28.44 93.091 27.688 93.411 27.048C93.731 26.3973 94.179 25.8907 94.755 25.528C95.331 25.1653 95.9976 24.984 96.755 24.984C97.7363 24.984 98.5203 25.304 99.107 25.944C99.6936 26.5733 100.04 27.48 100.147 28.664H94.371C94.371 29.8267 94.643 30.7333 95.187 31.384C95.731 32.024 96.4936 32.344 97.475 32.344C98.435 32.344 99.171 32.0027 99.683 31.32L99.939 31.464C99.331 32.8187 98.2696 33.496 96.755 33.496C95.987 33.496 95.315 33.3253 94.739 32.984C94.163 32.632 93.715 32.1413 93.395 31.512C93.0856 30.8827 92.931 30.1467 92.931 29.304ZM98.499 28.088C98.4456 27.2987 98.2376 26.68 97.875 26.232C97.523 25.784 97.0536 25.56 96.467 25.56C95.8803 25.56 95.4056 25.784 95.043 26.232C94.6803 26.68 94.467 27.2987 94.403 28.088H98.499ZM111.402 32.984C111.839 32.8453 112.09 32.632 112.154 32.344C112.229 32.056 112.111 31.672 111.802 31.192L109.914 28.2L107.946 31.192C107.317 32.1413 107.397 32.7387 108.186 32.984V33.24H105.066V32.984C105.802 32.7493 106.447 32.232 107.002 31.432L109.562 27.64L107.082 23.72C106.837 23.3253 106.581 23.0107 106.314 22.776C106.058 22.5413 105.738 22.3813 105.354 22.296V22.04H109.578V22.296C109.045 22.4133 108.757 22.616 108.714 22.904C108.682 23.1813 108.831 23.576 109.162 24.088L110.778 26.632L112.458 24.088C112.831 23.5333 112.997 23.112 112.954 22.824C112.922 22.536 112.623 22.36 112.058 22.296V22.04H115.354V22.296C115.098 22.3493 114.874 22.424 114.682 22.52C114.49 22.616 114.298 22.7653 114.106 22.968C113.914 23.1707 113.685 23.464 113.418 23.848L111.13 27.192L113.914 31.56C114.159 31.9547 114.41 32.2587 114.666 32.472C114.933 32.6747 115.258 32.8453 115.642 32.984V33.24H111.402V32.984ZM120.62 32.952C121.079 32.8347 121.399 32.6373 121.58 32.36C121.772 32.0827 121.868 31.6613 121.868 31.096V24.184C121.868 23.6187 121.772 23.1973 121.58 22.92C121.399 22.6427 121.079 22.4453 120.62 22.328V22.04H124.636C126.065 22.04 127.175 22.28 127.964 22.76C128.753 23.24 129.148 23.912 129.148 24.776C129.148 25.3947 128.94 25.9173 128.524 26.344C128.108 26.7707 127.511 27.0853 126.732 27.288C127.724 27.448 128.492 27.7787 129.036 28.28C129.58 28.7707 129.852 29.4 129.852 30.168C129.852 31.1387 129.42 31.896 128.556 32.44C127.692 32.9733 126.481 33.24 124.924 33.24H120.62V32.952ZM123.468 31.032C123.468 31.5867 123.564 31.992 123.756 32.248C123.948 32.504 124.257 32.632 124.684 32.632H125.164C126.081 32.632 126.807 32.44 127.34 32.056C127.884 31.672 128.156 31.1067 128.156 30.36C128.156 29.5707 127.863 28.9413 127.276 28.472C126.689 27.992 125.905 27.752 124.924 27.752H123.468V31.032ZM127.5 25.048C127.5 24.3227 127.207 23.7413 126.62 23.304C126.033 22.8667 125.249 22.648 124.268 22.648H123.468V27.144H124.204C125.281 27.144 126.097 26.968 126.652 26.616C127.217 26.2533 127.5 25.7307 127.5 25.048ZM131.593 30.456V27.608C131.593 27.0427 131.503 26.6267 131.321 26.36C131.151 26.0933 130.847 25.9067 130.409 25.8V25.544L132.985 25.144L133.161 25.32C133.119 25.6187 133.097 25.9493 133.097 26.312V30.552C133.097 31.2773 133.252 31.8427 133.561 32.248C133.871 32.6533 134.303 32.856 134.857 32.856C135.241 32.856 135.599 32.76 135.929 32.568C136.26 32.376 136.521 32.0987 136.713 31.736C136.916 31.3733 137.017 30.9413 137.017 30.44V26.92C137.017 26.536 136.953 26.264 136.825 26.104C136.708 25.944 136.436 25.8267 136.009 25.752V25.512L138.441 25.144L138.585 25.288C138.543 25.64 138.521 25.9973 138.521 26.36V31.208C138.521 31.752 138.607 32.1573 138.777 32.424C138.959 32.68 139.268 32.8667 139.705 32.984V33.24L137.385 33.4C137.204 33.0587 137.108 32.7173 137.097 32.376C136.425 33.1227 135.561 33.496 134.505 33.496C133.567 33.496 132.847 33.2347 132.345 32.712C131.844 32.1787 131.593 31.4267 131.593 30.456ZM145.483 31.624C145.483 31.2293 145.334 30.8987 145.035 30.632C144.736 30.3653 144.224 30.088 143.499 29.8C142.528 29.4053 141.84 29.0107 141.435 28.616C141.03 28.2107 140.827 27.7467 140.827 27.224C140.827 26.5413 141.094 25.9973 141.627 25.592C142.171 25.1867 142.896 24.984 143.803 24.984C144.24 24.984 144.694 25.0373 145.163 25.144C145.632 25.24 146.07 25.3787 146.475 25.56L146.731 27.688L146.459 27.768C146.096 27.0533 145.67 26.5093 145.179 26.136C144.688 25.752 144.166 25.56 143.611 25.56C143.184 25.56 142.848 25.6667 142.603 25.88C142.368 26.0827 142.251 26.3547 142.251 26.696C142.251 27.048 142.4 27.352 142.699 27.608C142.998 27.8533 143.52 28.1253 144.267 28.424C145.248 28.8187 145.931 29.2027 146.315 29.576C146.71 29.9493 146.907 30.408 146.907 30.952C146.907 31.4427 146.774 31.88 146.507 32.264C146.251 32.648 145.888 32.952 145.419 33.176C144.96 33.3893 144.422 33.496 143.803 33.496C143.376 33.496 142.923 33.4373 142.443 33.32C141.963 33.2133 141.483 33.0533 141.003 32.84L140.747 30.712L141.019 30.632C141.382 31.3573 141.824 31.9227 142.347 32.328C142.88 32.7227 143.44 32.92 144.027 32.92C144.486 32.92 144.843 32.8027 145.099 32.568C145.355 32.3333 145.483 32.0187 145.483 31.624ZM148.181 32.984C148.618 32.8667 148.922 32.68 149.093 32.424C149.274 32.1573 149.365 31.752 149.365 31.208V27.576C149.365 27.0107 149.274 26.5947 149.093 26.328C148.922 26.0613 148.618 25.8747 148.181 25.768V25.512L150.757 25.144L150.933 25.32C150.911 25.4907 150.895 25.656 150.885 25.816C150.874 25.9653 150.869 26.1307 150.869 26.312V31.208C150.869 31.752 150.954 32.1573 151.125 32.424C151.306 32.68 151.615 32.8667 152.053 32.984V33.24H148.181V32.984ZM148.965 22.536C148.965 22.2267 149.061 21.976 149.253 21.784C149.455 21.592 149.706 21.496 150.005 21.496C150.314 21.496 150.565 21.592 150.757 21.784C150.949 21.976 151.045 22.2267 151.045 22.536C151.045 22.8347 150.949 23.0853 150.757 23.288C150.565 23.48 150.314 23.576 150.005 23.576C149.706 23.576 149.455 23.48 149.253 23.288C149.061 23.0853 148.965 22.8347 148.965 22.536ZM152.931 32.984C153.368 32.8667 153.672 32.68 153.843 32.424C154.024 32.1573 154.115 31.752 154.115 31.208V27.576C154.115 27.0107 154.024 26.5947 153.843 26.328C153.672 26.0613 153.368 25.8747 152.931 25.768V25.512L155.251 25.144C155.411 25.4427 155.501 25.7253 155.523 25.992C156.205 25.32 157.075 24.984 158.131 24.984C159.112 24.984 159.864 25.2453 160.387 25.768C160.909 26.2907 161.171 27.0427 161.171 28.024V31.208C161.171 31.752 161.256 32.1573 161.427 32.424C161.608 32.68 161.917 32.8667 162.355 32.984V33.24H158.483V32.984C158.92 32.8667 159.224 32.68 159.395 32.424C159.576 32.1573 159.667 31.752 159.667 31.208V27.928C159.667 27.2027 159.501 26.6373 159.171 26.232C158.84 25.8267 158.376 25.624 157.779 25.624C157.117 25.624 156.589 25.864 156.195 26.344C155.811 26.8133 155.619 27.448 155.619 28.248V31.208C155.619 31.752 155.704 32.1573 155.875 32.424C156.056 32.68 156.365 32.8667 156.803 32.984V33.24H152.931V32.984ZM163.243 29.304C163.243 28.44 163.403 27.688 163.723 27.048C164.043 26.3973 164.491 25.8907 165.067 25.528C165.643 25.1653 166.31 24.984 167.067 24.984C168.049 24.984 168.833 25.304 169.419 25.944C170.006 26.5733 170.353 27.48 170.459 28.664H164.683C164.683 29.8267 164.955 30.7333 165.499 31.384C166.043 32.024 166.806 32.344 167.787 32.344C168.747 32.344 169.483 32.0027 169.995 31.32L170.251 31.464C169.643 32.8187 168.582 33.496 167.067 33.496C166.299 33.496 165.627 33.3253 165.051 32.984C164.475 32.632 164.027 32.1413 163.707 31.512C163.398 30.8827 163.243 30.1467 163.243 29.304ZM168.811 28.088C168.758 27.2987 168.55 26.68 168.187 26.232C167.835 25.784 167.366 25.56 166.779 25.56C166.193 25.56 165.718 25.784 165.355 26.232C164.993 26.68 164.779 27.2987 164.715 28.088H168.811ZM176.498 31.624C176.498 31.2293 176.349 30.8987 176.05 30.632C175.752 30.3653 175.24 30.088 174.514 29.8C173.544 29.4053 172.856 29.0107 172.45 28.616C172.045 28.2107 171.842 27.7467 171.842 27.224C171.842 26.5413 172.109 25.9973 172.642 25.592C173.186 25.1867 173.912 24.984 174.818 24.984C175.256 24.984 175.709 25.0373 176.178 25.144C176.648 25.24 177.085 25.3787 177.49 25.56L177.746 27.688L177.474 27.768C177.112 27.0533 176.685 26.5093 176.194 26.136C175.704 25.752 175.181 25.56 174.626 25.56C174.2 25.56 173.864 25.6667 173.618 25.88C173.384 26.0827 173.266 26.3547 173.266 26.696C173.266 27.048 173.416 27.352 173.714 27.608C174.013 27.8533 174.536 28.1253 175.282 28.424C176.264 28.8187 176.946 29.2027 177.33 29.576C177.725 29.9493 177.922 30.408 177.922 30.952C177.922 31.4427 177.789 31.88 177.522 32.264C177.266 32.648 176.904 32.952 176.434 33.176C175.976 33.3893 175.437 33.496 174.818 33.496C174.392 33.496 173.938 33.4373 173.458 33.32C172.978 33.2133 172.498 33.0533 172.018 32.84L171.762 30.712L172.034 30.632C172.397 31.3573 172.84 31.9227 173.362 32.328C173.896 32.7227 174.456 32.92 175.042 32.92C175.501 32.92 175.858 32.8027 176.114 32.568C176.37 32.3333 176.498 32.0187 176.498 31.624ZM184.092 31.624C184.092 31.2293 183.943 30.8987 183.644 30.632C183.346 30.3653 182.834 30.088 182.108 29.8C181.138 29.4053 180.45 29.0107 180.044 28.616C179.639 28.2107 179.436 27.7467 179.436 27.224C179.436 26.5413 179.703 25.9973 180.236 25.592C180.78 25.1867 181.506 24.984 182.412 24.984C182.85 24.984 183.303 25.0373 183.772 25.144C184.242 25.24 184.679 25.3787 185.084 25.56L185.34 27.688L185.068 27.768C184.706 27.0533 184.279 26.5093 183.788 26.136C183.298 25.752 182.775 25.56 182.22 25.56C181.794 25.56 181.458 25.6667 181.212 25.88C180.978 26.0827 180.86 26.3547 180.86 26.696C180.86 27.048 181.01 27.352 181.308 27.608C181.607 27.8533 182.13 28.1253 182.876 28.424C183.858 28.8187 184.54 29.2027 184.924 29.576C185.319 29.9493 185.516 30.408 185.516 30.952C185.516 31.4427 185.383 31.88 185.116 32.264C184.86 32.648 184.498 32.952 184.028 33.176C183.57 33.3893 183.031 33.496 182.412 33.496C181.986 33.496 181.532 33.4373 181.052 33.32C180.572 33.2133 180.092 33.0533 179.612 32.84L179.356 30.712L179.628 30.632C179.991 31.3573 180.434 31.9227 180.956 32.328C181.49 32.7227 182.05 32.92 182.636 32.92C183.095 32.92 183.452 32.8027 183.708 32.568C183.964 32.3333 184.092 32.0187 184.092 31.624ZM187.126 32.296C187.126 31.976 187.227 31.7147 187.43 31.512C187.643 31.2987 187.91 31.192 188.23 31.192C188.55 31.192 188.811 31.2987 189.014 31.512C189.227 31.7147 189.334 31.976 189.334 32.296C189.334 32.616 189.227 32.8827 189.014 33.096C188.811 33.2987 188.55 33.4 188.23 33.4C187.91 33.4 187.643 33.2987 187.43 33.096C187.227 32.8827 187.126 32.616 187.126 32.296ZM0.448106 63.952C0.906772 63.8347 1.22677 63.6373 1.40811 63.36C1.60011 63.0827 1.69611 62.6613 1.69611 62.096V55.184C1.69611 54.6187 1.60011 54.1973 1.40811 53.92C1.22677 53.6427 0.906772 53.4453 0.448106 53.328V53.04H4.57611V53.328C4.11744 53.4453 3.79211 53.6427 3.60011 53.92C3.41877 54.1973 3.32811 54.6187 3.32811 55.184V62.096C3.32811 62.6613 3.41877 63.0827 3.60011 63.36C3.79211 63.6373 4.11744 63.8347 4.57611 63.952V64.24H0.448106V63.952ZM5.55036 56.24H6.73436V54.64L8.12636 54.416L8.30236 54.592C8.25969 54.8907 8.23836 55.2213 8.23836 55.584V56.24H10.7824V56.816H8.23836V62.08C8.23836 63.0507 8.64369 63.536 9.45436 63.536C9.93436 63.536 10.345 63.312 10.6864 62.864L10.9424 63.008C10.5157 64 9.80636 64.496 8.81436 64.496C7.42769 64.496 6.73436 63.68 6.73436 62.048V56.816H5.55036V56.24ZM13.8755 55.504C13.8755 55.1093 13.7635 54.8053 13.5395 54.592C13.3155 54.3787 12.9955 54.272 12.5795 54.272C12.5048 53.8773 12.5688 53.5467 12.7715 53.28C12.9848 53.0133 13.2888 52.88 13.6835 52.88C14.1101 52.88 14.4461 53.0347 14.6915 53.344C14.9475 53.6533 15.0755 54.0693 15.0755 54.592C15.0755 55.2213 14.8781 55.808 14.4835 56.352C14.0995 56.896 13.5608 57.3493 12.8675 57.712L12.7235 57.424C13.0968 57.168 13.3795 56.88 13.5715 56.56C13.7741 56.2293 13.8755 55.8773 13.8755 55.504ZM21.1235 62.624C21.1235 62.2293 20.9741 61.8987 20.6755 61.632C20.3768 61.3653 19.8648 61.088 19.1395 60.8C18.1688 60.4053 17.4808 60.0107 17.0755 59.616C16.6701 59.2107 16.4675 58.7467 16.4675 58.224C16.4675 57.5413 16.7341 56.9973 17.2675 56.592C17.8115 56.1867 18.5368 55.984 19.4435 55.984C19.8808 55.984 20.3341 56.0373 20.8035 56.144C21.2728 56.24 21.7101 56.3787 22.1155 56.56L22.3715 58.688L22.0995 58.768C21.7368 58.0533 21.3101 57.5093 20.8195 57.136C20.3288 56.752 19.8061 56.56 19.2515 56.56C18.8248 56.56 18.4888 56.6667 18.2435 56.88C18.0088 57.0827 17.8915 57.3547 17.8915 57.696C17.8915 58.048 18.0408 58.352 18.3395 58.608C18.6381 58.8533 19.1608 59.1253 19.9075 59.424C20.8888 59.8187 21.5715 60.2027 21.9555 60.576C22.3501 60.9493 22.5475 61.408 22.5475 61.952C22.5475 62.4427 22.4141 62.88 22.1475 63.264C21.8915 63.648 21.5288 63.952 21.0595 64.176C20.6008 64.3893 20.0621 64.496 19.4435 64.496C19.0168 64.496 18.5635 64.4373 18.0835 64.32C17.6035 64.2133 17.1235 64.0533 16.6435 63.84L16.3875 61.712L16.6595 61.632C17.0221 62.3573 17.4648 62.9227 17.9875 63.328C18.5208 63.7227 19.0808 63.92 19.6675 63.92C20.1261 63.92 20.4835 63.8027 20.7395 63.568C20.9955 63.3333 21.1235 63.0187 21.1235 62.624ZM28.1572 62.384C28.1572 61.8613 28.3226 61.4027 28.6532 61.008C28.9839 60.6133 29.4479 60.3093 30.0452 60.096C30.6426 59.872 31.3359 59.76 32.1252 59.76C32.5199 59.76 32.9199 59.7867 33.3252 59.84V58.816C33.3252 58.112 33.1652 57.5627 32.8452 57.168C32.5359 56.7627 32.1039 56.56 31.5492 56.56C30.4932 56.56 29.6026 57.3227 28.8772 58.848L28.6052 58.768L28.8612 56.56C29.8212 56.176 30.7546 55.984 31.6612 55.984C32.6746 55.984 33.4532 56.24 33.9972 56.752C34.5519 57.2533 34.8292 57.9787 34.8292 58.928V62.832C34.8292 63.3867 35.0479 63.664 35.4852 63.664C35.6452 63.664 35.7892 63.6053 35.9172 63.488L36.1252 63.648C35.7946 64.1493 35.3412 64.4 34.7652 64.4C34.1039 64.4 33.6719 64.0907 33.4692 63.472C32.8292 64.1547 32.0026 64.496 30.9892 64.496C30.1146 64.496 29.4212 64.3093 28.9092 63.936C28.4079 63.552 28.1572 63.0347 28.1572 62.384ZM29.7252 62.192C29.7252 62.7147 29.8852 63.1253 30.2052 63.424C30.5359 63.7227 30.9626 63.872 31.4852 63.872C32.0079 63.872 32.4452 63.6587 32.7972 63.232C33.1492 62.8053 33.3252 62.1653 33.3252 61.312V60.4C33.1546 60.3787 32.9892 60.3627 32.8292 60.352C32.6799 60.3413 32.5306 60.336 32.3812 60.336C31.5386 60.336 30.8826 60.5013 30.4132 60.832C29.9546 61.152 29.7252 61.6053 29.7252 62.192ZM40.8049 65.936C40.8049 65.136 41.3009 64.5173 42.2929 64.08C42.0155 63.9733 41.8075 63.8187 41.6689 63.616C41.5409 63.4133 41.4769 63.184 41.4769 62.928C41.4769 62.7147 41.5355 62.496 41.6529 62.272C41.7702 62.048 41.9249 61.8293 42.1169 61.616L42.4049 61.296C41.9889 61.04 41.6635 60.7093 41.4289 60.304C41.1942 59.888 41.0769 59.4187 41.0769 58.896C41.0769 58.32 41.2209 57.8133 41.5089 57.376C41.7969 56.9387 42.1969 56.5973 42.7089 56.352C43.2209 56.1067 43.8129 55.984 44.4849 55.984C45.0395 55.984 45.5462 56.0693 46.0049 56.24H48.5009V56.816H46.9809C47.2689 57.072 47.4929 57.3813 47.6529 57.744C47.8129 58.096 47.8929 58.4853 47.8929 58.912C47.8929 59.488 47.7489 59.9947 47.4609 60.432C47.1729 60.8693 46.7729 61.2107 46.2609 61.456C45.7595 61.7013 45.1675 61.824 44.4849 61.824C43.9195 61.824 43.4022 61.7333 42.9329 61.552L42.6449 61.888C42.4742 62.0693 42.3889 62.2293 42.3889 62.368C42.3889 62.6133 42.6342 62.7627 43.1249 62.816L45.9889 63.072C46.8529 63.1467 47.5089 63.3707 47.9569 63.744C48.4049 64.1067 48.6289 64.5973 48.6289 65.216C48.6289 65.7813 48.4475 66.272 48.0849 66.688C47.7329 67.1147 47.2315 67.44 46.5809 67.664C45.9409 67.888 45.1889 68 44.3249 68C43.2262 68 42.3622 67.8133 41.7329 67.44C41.1142 67.0773 40.8049 66.576 40.8049 65.936ZM42.5649 58.736C42.5649 59.4827 42.7569 60.0907 43.1409 60.56C43.5249 61.0187 44.0209 61.248 44.6289 61.248C45.1729 61.248 45.6049 61.0507 45.9249 60.656C46.2449 60.2613 46.4049 59.7333 46.4049 59.072C46.4049 58.3253 46.2129 57.7227 45.8289 57.264C45.4449 56.7947 44.9489 56.56 44.3409 56.56C43.7969 56.56 43.3649 56.7573 43.0449 57.152C42.7249 57.5467 42.5649 58.0747 42.5649 58.736ZM41.9249 65.632C41.9249 66.2187 42.1595 66.6613 42.6289 66.96C43.1089 67.2693 43.7649 67.424 44.5969 67.424C45.4502 67.424 46.1169 67.2693 46.5969 66.96C47.0875 66.6507 47.3329 66.2293 47.3329 65.696C47.3329 65.2907 47.1729 64.992 46.8529 64.8C46.5329 64.608 45.9675 64.4747 45.1569 64.4L42.9649 64.208C42.2715 64.5387 41.9249 65.0133 41.9249 65.632ZM49.54 63.984C49.9773 63.8667 50.2813 63.68 50.452 63.424C50.6333 63.1573 50.724 62.7573 50.724 62.224V58.544C50.724 58 50.6333 57.5947 50.452 57.328C50.2813 57.0613 49.9773 56.8747 49.54 56.768V56.512L51.86 56.144C51.956 56.3253 52.0253 56.4907 52.068 56.64C52.1106 56.7893 52.1373 56.9707 52.148 57.184C52.3933 56.8107 52.692 56.5173 53.044 56.304C53.4066 56.0907 53.8013 55.984 54.228 55.984C54.8253 55.984 55.3533 56.176 55.812 56.56L55.908 58.784L55.636 58.848C55.3053 58.0907 54.9906 57.552 54.692 57.232C54.3933 56.912 54.0573 56.752 53.684 56.752C53.2253 56.752 52.868 56.9653 52.612 57.392C52.356 57.8187 52.228 58.4213 52.228 59.2V62.224C52.228 62.8 52.3346 63.2107 52.548 63.456C52.7613 63.7013 53.156 63.8667 53.732 63.952V64.24H49.54V63.984ZM56.7904 60.304C56.7904 59.44 56.9504 58.688 57.2704 58.048C57.5904 57.3973 58.0384 56.8907 58.6144 56.528C59.1904 56.1653 59.857 55.984 60.6144 55.984C61.5957 55.984 62.3797 56.304 62.9664 56.944C63.553 57.5733 63.8997 58.48 64.0064 59.664H58.2304C58.2304 60.8267 58.5024 61.7333 59.0464 62.384C59.5904 63.024 60.353 63.344 61.3344 63.344C62.2944 63.344 63.0304 63.0027 63.5424 62.32L63.7984 62.464C63.1904 63.8187 62.129 64.496 60.6144 64.496C59.8464 64.496 59.1744 64.3253 58.5984 63.984C58.0224 63.632 57.5744 63.1413 57.2544 62.512C56.945 61.8827 56.7904 61.1467 56.7904 60.304ZM62.3584 59.088C62.305 58.2987 62.097 57.68 61.7344 57.232C61.3824 56.784 60.913 56.56 60.3264 56.56C59.7397 56.56 59.265 56.784 58.9024 57.232C58.5397 57.68 58.3264 58.2987 58.2624 59.088H62.3584ZM65.4854 62.384C65.4854 61.8613 65.6507 61.4027 65.9814 61.008C66.312 60.6133 66.776 60.3093 67.3734 60.096C67.9707 59.872 68.664 59.76 69.4534 59.76C69.848 59.76 70.248 59.7867 70.6534 59.84V58.816C70.6534 58.112 70.4934 57.5627 70.1734 57.168C69.864 56.7627 69.432 56.56 68.8774 56.56C67.8214 56.56 66.9307 57.3227 66.2054 58.848L65.9334 58.768L66.1894 56.56C67.1494 56.176 68.0827 55.984 68.9894 55.984C70.0027 55.984 70.7814 56.24 71.3254 56.752C71.88 57.2533 72.1574 57.9787 72.1574 58.928V62.832C72.1574 63.3867 72.376 63.664 72.8134 63.664C72.9734 63.664 73.1174 63.6053 73.2454 63.488L73.4534 63.648C73.1227 64.1493 72.6694 64.4 72.0934 64.4C71.432 64.4 71 64.0907 70.7974 63.472C70.1574 64.1547 69.3307 64.496 68.3174 64.496C67.4427 64.496 66.7494 64.3093 66.2374 63.936C65.736 63.552 65.4854 63.0347 65.4854 62.384ZM67.0534 62.192C67.0534 62.7147 67.2134 63.1253 67.5334 63.424C67.864 63.7227 68.2907 63.872 68.8134 63.872C69.336 63.872 69.7734 63.6587 70.1254 63.232C70.4774 62.8053 70.6534 62.1653 70.6534 61.312V60.4C70.4827 60.3787 70.3174 60.3627 70.1574 60.352C70.008 60.3413 69.8587 60.336 69.7094 60.336C68.8667 60.336 68.2107 60.5013 67.7414 60.832C67.2827 61.152 67.0534 61.6053 67.0534 62.192ZM73.941 56.24H75.125V54.64L76.517 54.416L76.693 54.592C76.6503 54.8907 76.629 55.2213 76.629 55.584V56.24H79.173V56.816H76.629V62.08C76.629 63.0507 77.0343 63.536 77.845 63.536C78.325 63.536 78.7356 63.312 79.077 62.864L79.333 63.008C78.9063 64 78.197 64.496 77.205 64.496C75.8183 64.496 75.125 63.68 75.125 62.048V56.816H73.941V56.24ZM84.6341 60.288C84.6341 59.4133 84.7994 58.656 85.1301 58.016C85.4714 57.3653 85.9461 56.864 86.5541 56.512C87.1728 56.16 87.8981 55.984 88.7301 55.984C89.4981 55.984 90.3301 56.144 91.2261 56.464L91.4661 58.8L91.1941 58.864C90.5754 57.3173 89.6954 56.544 88.5541 56.544C87.8074 56.544 87.2048 56.8373 86.7461 57.424C86.2981 58.0107 86.0741 58.7947 86.0741 59.776C86.0741 60.864 86.3621 61.7333 86.9381 62.384C87.5141 63.024 88.2821 63.344 89.2421 63.344C90.1488 63.344 90.8634 63.0027 91.3861 62.32L91.6421 62.464C91.0341 63.8187 89.9728 64.496 88.4581 64.496C87.6901 64.496 87.0181 64.3253 86.4421 63.984C85.8661 63.632 85.4181 63.1413 85.0981 62.512C84.7888 61.872 84.6341 61.1307 84.6341 60.288ZM93.2354 62.384C93.2354 61.8613 93.4007 61.4027 93.7314 61.008C94.062 60.6133 94.526 60.3093 95.1234 60.096C95.7207 59.872 96.414 59.76 97.2034 59.76C97.598 59.76 97.998 59.7867 98.4034 59.84V58.816C98.4034 58.112 98.2434 57.5627 97.9234 57.168C97.614 56.7627 97.182 56.56 96.6274 56.56C95.5714 56.56 94.6807 57.3227 93.9554 58.848L93.6834 58.768L93.9394 56.56C94.8994 56.176 95.8327 55.984 96.7394 55.984C97.7527 55.984 98.5314 56.24 99.0754 56.752C99.63 57.2533 99.9074 57.9787 99.9074 58.928V62.832C99.9074 63.3867 100.126 63.664 100.563 63.664C100.723 63.664 100.867 63.6053 100.995 63.488L101.203 63.648C100.873 64.1493 100.419 64.4 99.8434 64.4C99.182 64.4 98.75 64.0907 98.5474 63.472C97.9074 64.1547 97.0807 64.496 96.0674 64.496C95.1927 64.496 94.4994 64.3093 93.9874 63.936C93.486 63.552 93.2354 63.0347 93.2354 62.384ZM94.8034 62.192C94.8034 62.7147 94.9634 63.1253 95.2834 63.424C95.614 63.7227 96.0407 63.872 96.5634 63.872C97.086 63.872 97.5234 63.6587 97.8754 63.232C98.2274 62.8053 98.4034 62.1653 98.4034 61.312V60.4C98.2327 60.3787 98.0674 60.3627 97.9074 60.352C97.758 60.3413 97.6087 60.336 97.4594 60.336C96.6167 60.336 95.9607 60.5013 95.4914 60.832C95.0327 61.152 94.8034 61.6053 94.8034 62.192ZM101.691 56.24H102.875V54.64L104.267 54.416L104.443 54.592C104.4 54.8907 104.379 55.2213 104.379 55.584V56.24H106.923V56.816H104.379V62.08C104.379 63.0507 104.784 63.536 105.595 63.536C106.075 63.536 106.486 63.312 106.827 62.864L107.083 63.008C106.656 64 105.947 64.496 104.955 64.496C103.568 64.496 102.875 63.68 102.875 62.048V56.816H101.691V56.24ZM108.228 60.288C108.228 59.4133 108.393 58.656 108.724 58.016C109.065 57.3653 109.54 56.864 110.148 56.512C110.767 56.16 111.492 55.984 112.324 55.984C113.092 55.984 113.924 56.144 114.82 56.464L115.06 58.8L114.788 58.864C114.169 57.3173 113.289 56.544 112.148 56.544C111.401 56.544 110.799 56.8373 110.34 57.424C109.892 58.0107 109.668 58.7947 109.668 59.776C109.668 60.864 109.956 61.7333 110.532 62.384C111.108 63.024 111.876 63.344 112.836 63.344C113.743 63.344 114.457 63.0027 114.98 62.32L115.236 62.464C114.628 63.8187 113.567 64.496 112.052 64.496C111.284 64.496 110.612 64.3253 110.036 63.984C109.46 63.632 109.012 63.1413 108.692 62.512C108.383 61.872 108.228 61.1307 108.228 60.288ZM116.413 63.984C116.85 63.8667 117.154 63.6747 117.325 63.408C117.506 63.1413 117.597 62.7307 117.597 62.176V54.464C117.597 53.8987 117.506 53.4827 117.325 53.216C117.154 52.9493 116.85 52.7627 116.413 52.656V52.4L118.989 52L119.165 52.176C119.122 52.4747 119.101 52.8 119.101 53.152V56.896C119.762 56.288 120.6 55.984 121.613 55.984C122.594 55.984 123.346 56.2453 123.869 56.768C124.392 57.2907 124.653 58.0427 124.653 59.024V62.208C124.653 62.752 124.738 63.1573 124.909 63.424C125.09 63.68 125.4 63.8667 125.837 63.984V64.24H121.965V63.984C122.402 63.8667 122.706 63.68 122.877 63.424C123.058 63.1573 123.149 62.752 123.149 62.208V58.928C123.149 58.2027 122.984 57.6373 122.653 57.232C122.322 56.8267 121.858 56.624 121.261 56.624C120.6 56.624 120.072 56.864 119.677 57.344C119.293 57.8133 119.101 58.448 119.101 59.248V62.256C119.101 62.7893 119.186 63.184 119.357 63.44C119.538 63.696 119.848 63.8773 120.285 63.984V64.24H116.413V63.984ZM0.368105 77.24H1.55211V75.832C1.55211 74.8827 1.80277 74.1573 2.30411 73.656C2.80544 73.144 3.52544 72.888 4.46411 72.888C4.80544 72.888 5.13611 72.92 5.45611 72.984C5.77611 73.048 6.10144 73.128 6.43211 73.224L6.68811 75.48L6.41611 75.56C6.12811 75.016 5.87744 74.5947 5.66411 74.296C5.45077 73.9867 5.24277 73.7733 5.04011 73.656C4.83744 73.528 4.60811 73.464 4.35211 73.464C3.48811 73.464 3.05611 74.056 3.05611 75.24V77.24H5.20011V77.816H3.05611V83.224C3.05611 83.8 3.16277 84.2107 3.37611 84.456C3.58944 84.7013 3.98411 84.8667 4.56011 84.952V85.24H0.368105V84.984C0.805439 84.8667 1.10944 84.68 1.28011 84.424C1.46144 84.1573 1.55211 83.7573 1.55211 83.224V77.816H0.368105V77.24ZM6.41536 81.24C6.41536 80.3973 6.58069 79.656 6.91136 79.016C7.24202 78.376 7.70069 77.88 8.28736 77.528C8.87402 77.1653 9.55669 76.984 10.3354 76.984C11.114 76.984 11.7914 77.1653 12.3674 77.528C12.954 77.88 13.4127 78.376 13.7434 79.016C14.074 79.656 14.2394 80.3973 14.2394 81.24C14.2394 82.0827 14.074 82.824 13.7434 83.464C13.4127 84.104 12.954 84.6053 12.3674 84.968C11.7914 85.32 11.114 85.496 10.3354 85.496C9.55669 85.496 8.87402 85.32 8.28736 84.968C7.70069 84.6053 7.24202 84.104 6.91136 83.464C6.58069 82.824 6.41536 82.0827 6.41536 81.24ZM7.98336 80.84C7.98336 81.6187 8.09536 82.3173 8.31936 82.936C8.54336 83.544 8.85269 84.0293 9.24736 84.392C9.64202 84.744 10.09 84.92 10.5914 84.92C11.2207 84.92 11.722 84.6267 12.0954 84.04C12.4794 83.4427 12.6714 82.6427 12.6714 81.64C12.6714 80.8613 12.5594 80.168 12.3354 79.56C12.1114 78.9413 11.802 78.456 11.4074 78.104C11.0127 77.7413 10.5647 77.56 10.0634 77.56C9.43402 77.56 8.92736 77.8587 8.54336 78.456C8.17002 79.0427 7.98336 79.8373 7.98336 80.84ZM15.3681 84.984C15.8054 84.8667 16.1094 84.68 16.2801 84.424C16.4614 84.1573 16.5521 83.7573 16.5521 83.224V79.544C16.5521 79 16.4614 78.5947 16.2801 78.328C16.1094 78.0613 15.8054 77.8747 15.3681 77.768V77.512L17.6881 77.144C17.7841 77.3253 17.8534 77.4907 17.8961 77.64C17.9388 77.7893 17.9654 77.9707 17.9761 78.184C18.2214 77.8107 18.5201 77.5173 18.8721 77.304C19.2348 77.0907 19.6294 76.984 20.0561 76.984C20.6534 76.984 21.1814 77.176 21.6401 77.56L21.7361 79.784L21.4641 79.848C21.1334 79.0907 20.8188 78.552 20.5201 78.232C20.2214 77.912 19.8854 77.752 19.5121 77.752C19.0534 77.752 18.6961 77.9653 18.4401 78.392C18.1841 78.8187 18.0561 79.4213 18.0561 80.2V83.224C18.0561 83.8 18.1628 84.2107 18.3761 84.456C18.5894 84.7013 18.9841 84.8667 19.5601 84.952V85.24H15.3681V84.984ZM26.2345 77.24H30.2505V77.496C29.8238 77.5387 29.5358 77.704 29.3865 77.992C29.2478 78.28 29.2905 78.664 29.5145 79.144L31.5145 83.384L33.5625 79.144C33.7971 78.664 33.8398 78.28 33.6905 77.992C33.5411 77.704 33.2531 77.5387 32.8265 77.496V77.24H35.7865V77.496C35.4238 77.592 35.1571 77.72 34.9865 77.88C34.8158 78.0293 34.6558 78.2533 34.5065 78.552L30.9705 85.688C30.5545 86.5307 30.1865 87.192 29.8665 87.672C29.5465 88.1627 29.2371 88.504 28.9385 88.696C28.6398 88.8987 28.3145 89 27.9625 89C27.5358 89 27.1731 88.8667 26.8745 88.6C26.5758 88.344 26.3091 87.9227 26.0745 87.336L26.2985 87.192C26.7038 87.5973 27.2158 87.8 27.8345 87.8C28.3678 87.8 28.8425 87.6187 29.2585 87.256C29.6745 86.904 30.0798 86.3227 30.4745 85.512L30.6825 85.096L27.5145 78.552C27.3758 78.2533 27.2211 78.0293 27.0505 77.88C26.8798 77.72 26.6078 77.592 26.2345 77.496V77.24ZM36.1341 81.24C36.1341 80.3973 36.2994 79.656 36.6301 79.016C36.9608 78.376 37.4194 77.88 38.0061 77.528C38.5928 77.1653 39.2754 76.984 40.0541 76.984C40.8328 76.984 41.5101 77.1653 42.0861 77.528C42.6728 77.88 43.1314 78.376 43.4621 79.016C43.7928 79.656 43.9581 80.3973 43.9581 81.24C43.9581 82.0827 43.7928 82.824 43.4621 83.464C43.1314 84.104 42.6728 84.6053 42.0861 84.968C41.5101 85.32 40.8328 85.496 40.0541 85.496C39.2754 85.496 38.5928 85.32 38.0061 84.968C37.4194 84.6053 36.9608 84.104 36.6301 83.464C36.2994 82.824 36.1341 82.0827 36.1341 81.24ZM37.7021 80.84C37.7021 81.6187 37.8141 82.3173 38.0381 82.936C38.2621 83.544 38.5714 84.0293 38.9661 84.392C39.3608 84.744 39.8088 84.92 40.3101 84.92C40.9394 84.92 41.4408 84.6267 41.8141 84.04C42.1981 83.4427 42.3901 82.6427 42.3901 81.64C42.3901 80.8613 42.2781 80.168 42.0541 79.56C41.8301 78.9413 41.5208 78.456 41.1261 78.104C40.7314 77.7413 40.2834 77.56 39.7821 77.56C39.1528 77.56 38.6461 77.8587 38.2621 78.456C37.8888 79.0427 37.7021 79.8373 37.7021 80.84ZM46.0309 82.456V79.608C46.0309 79.0427 45.9402 78.6267 45.7589 78.36C45.5882 78.0933 45.2842 77.9067 44.8469 77.8V77.544L47.4229 77.144L47.5989 77.32C47.5562 77.6187 47.5349 77.9493 47.5349 78.312V82.552C47.5349 83.2773 47.6895 83.8427 47.9989 84.248C48.3082 84.6533 48.7402 84.856 49.2949 84.856C49.6789 84.856 50.0362 84.76 50.3669 84.568C50.6975 84.376 50.9589 84.0987 51.1509 83.736C51.3535 83.3733 51.4549 82.9413 51.4549 82.44V78.92C51.4549 78.536 51.3909 78.264 51.2629 78.104C51.1455 77.944 50.8735 77.8267 50.4469 77.752V77.512L52.8789 77.144L53.0229 77.288C52.9802 77.64 52.9589 77.9973 52.9589 78.36V83.208C52.9589 83.752 53.0442 84.1573 53.2149 84.424C53.3962 84.68 53.7055 84.8667 54.1429 84.984V85.24L51.8229 85.4C51.6415 85.0587 51.5455 84.7173 51.5349 84.376C50.8629 85.1227 49.9989 85.496 48.9429 85.496C48.0042 85.496 47.2842 85.2347 46.7829 84.712C46.2815 84.1787 46.0309 83.4267 46.0309 82.456ZM55.0244 84.984C55.4617 84.8667 55.7657 84.68 55.9364 84.424C56.1177 84.1573 56.2084 83.7573 56.2084 83.224V79.544C56.2084 79 56.1177 78.5947 55.9364 78.328C55.7657 78.0613 55.4617 77.8747 55.0244 77.768V77.512L57.3444 77.144C57.4404 77.3253 57.5097 77.4907 57.5524 77.64C57.595 77.7893 57.6217 77.9707 57.6324 78.184C57.8777 77.8107 58.1764 77.5173 58.5284 77.304C58.891 77.0907 59.2857 76.984 59.7124 76.984C60.3097 76.984 60.8377 77.176 61.2964 77.56L61.3924 79.784L61.1204 79.848C60.7897 79.0907 60.475 78.552 60.1764 78.232C59.8777 77.912 59.5417 77.752 59.1684 77.752C58.7097 77.752 58.3524 77.9653 58.0964 78.392C57.8404 78.8187 57.7124 79.4213 57.7124 80.2V83.224C57.7124 83.8 57.819 84.2107 58.0324 84.456C58.2457 84.7013 58.6404 84.8667 59.2164 84.952V85.24H55.0244V84.984ZM67.2827 75.464C67.2827 74.8987 67.1921 74.4827 67.0107 74.216C66.8401 73.9493 66.5361 73.7627 66.0987 73.656V73.4L68.6747 73L68.8507 73.176C68.8081 73.4747 68.7867 73.8107 68.7867 74.184V77.88C69.4267 77.2827 70.2374 76.984 71.2187 76.984C72.3601 76.984 73.2667 77.352 73.9387 78.088C74.6107 78.8133 74.9467 79.8107 74.9467 81.08C74.9467 81.976 74.7707 82.7547 74.4187 83.416C74.0774 84.0773 73.5867 84.5893 72.9467 84.952C72.3067 85.3147 71.5334 85.496 70.6267 85.496C70.0401 85.496 69.4427 85.416 68.8347 85.256C68.2374 85.096 67.7201 84.8667 67.2827 84.568V75.464ZM73.3787 81.528C73.3787 80.7493 73.2721 80.0667 73.0587 79.48C72.8561 78.8933 72.5681 78.44 72.1947 78.12C71.8214 77.7893 71.3841 77.624 70.8827 77.624C70.2747 77.624 69.7734 77.864 69.3787 78.344C68.9841 78.8133 68.7867 79.416 68.7867 80.152V82.408C68.7867 82.8773 68.8881 83.304 69.0907 83.688C69.3041 84.0613 69.5867 84.36 69.9387 84.584C70.2907 84.808 70.6854 84.92 71.1227 84.92C71.8267 84.92 72.3761 84.6213 72.7707 84.024C73.1761 83.4267 73.3787 82.5947 73.3787 81.528ZM77.0309 82.456V79.608C77.0309 79.0427 76.9402 78.6267 76.7589 78.36C76.5882 78.0933 76.2842 77.9067 75.8469 77.8V77.544L78.4229 77.144L78.5989 77.32C78.5562 77.6187 78.5349 77.9493 78.5349 78.312V82.552C78.5349 83.2773 78.6895 83.8427 78.9989 84.248C79.3082 84.6533 79.7402 84.856 80.2949 84.856C80.6789 84.856 81.0362 84.76 81.3669 84.568C81.6975 84.376 81.9589 84.0987 82.1509 83.736C82.3535 83.3733 82.4549 82.9413 82.4549 82.44V78.92C82.4549 78.536 82.3909 78.264 82.2629 78.104C82.1455 77.944 81.8735 77.8267 81.4469 77.752V77.512L83.8789 77.144L84.0229 77.288C83.9802 77.64 83.9589 77.9973 83.9589 78.36V83.208C83.9589 83.752 84.0442 84.1573 84.2149 84.424C84.3962 84.68 84.7055 84.8667 85.1429 84.984V85.24L82.8229 85.4C82.6415 85.0587 82.5455 84.7173 82.5349 84.376C81.8629 85.1227 80.9989 85.496 79.9429 85.496C79.0042 85.496 78.2842 85.2347 77.7829 84.712C77.2815 84.1787 77.0309 83.4267 77.0309 82.456ZM90.9204 83.624C90.9204 83.2293 90.771 82.8987 90.4724 82.632C90.1737 82.3653 89.6617 82.088 88.9364 81.8C87.9657 81.4053 87.2777 81.0107 86.8724 80.616C86.467 80.2107 86.2644 79.7467 86.2644 79.224C86.2644 78.5413 86.531 77.9973 87.0644 77.592C87.6084 77.1867 88.3337 76.984 89.2404 76.984C89.6777 76.984 90.131 77.0373 90.6004 77.144C91.0697 77.24 91.507 77.3787 91.9124 77.56L92.1684 79.688L91.8964 79.768C91.5337 79.0533 91.107 78.5093 90.6164 78.136C90.1257 77.752 89.603 77.56 89.0484 77.56C88.6217 77.56 88.2857 77.6667 88.0404 77.88C87.8057 78.0827 87.6884 78.3547 87.6884 78.696C87.6884 79.048 87.8377 79.352 88.1364 79.608C88.435 79.8533 88.9577 80.1253 89.7044 80.424C90.6857 80.8187 91.3684 81.2027 91.7524 81.576C92.147 81.9493 92.3444 82.408 92.3444 82.952C92.3444 83.4427 92.211 83.88 91.9444 84.264C91.6884 84.648 91.3257 84.952 90.8564 85.176C90.3977 85.3893 89.859 85.496 89.2404 85.496C88.8137 85.496 88.3604 85.4373 87.8804 85.32C87.4004 85.2133 86.9204 85.0533 86.4404 84.84L86.1844 82.712L86.4564 82.632C86.819 83.3573 87.2617 83.9227 87.7844 84.328C88.3177 84.7227 88.8777 84.92 89.4644 84.92C89.923 84.92 90.2804 84.8027 90.5364 84.568C90.7924 84.3333 90.9204 84.0187 90.9204 83.624ZM93.6181 84.984C94.0554 84.8667 94.3594 84.68 94.5301 84.424C94.7114 84.1573 94.8021 83.752 94.8021 83.208V79.576C94.8021 79.0107 94.7114 78.5947 94.5301 78.328C94.3594 78.0613 94.0554 77.8747 93.6181 77.768V77.512L96.1941 77.144L96.3701 77.32C96.3488 77.4907 96.3328 77.656 96.3221 77.816C96.3114 77.9653 96.3061 78.1307 96.3061 78.312V83.208C96.3061 83.752 96.3914 84.1573 96.5621 84.424C96.7434 84.68 97.0528 84.8667 97.4901 84.984V85.24H93.6181V84.984ZM94.4021 74.536C94.4021 74.2267 94.4981 73.976 94.6901 73.784C94.8928 73.592 95.1434 73.496 95.4421 73.496C95.7514 73.496 96.0021 73.592 96.1941 73.784C96.3861 73.976 96.4821 74.2267 96.4821 74.536C96.4821 74.8347 96.3861 75.0853 96.1941 75.288C96.0021 75.48 95.7514 75.576 95.4421 75.576C95.1434 75.576 94.8928 75.48 94.6901 75.288C94.4981 75.0853 94.4021 74.8347 94.4021 74.536ZM98.3681 84.984C98.8054 84.8667 99.1094 84.68 99.2801 84.424C99.4614 84.1573 99.5521 83.752 99.5521 83.208V79.576C99.5521 79.0107 99.4614 78.5947 99.2801 78.328C99.1094 78.0613 98.8054 77.8747 98.3681 77.768V77.512L100.688 77.144C100.848 77.4427 100.939 77.7253 100.96 77.992C101.643 77.32 102.512 76.984 103.568 76.984C104.549 76.984 105.301 77.2453 105.824 77.768C106.347 78.2907 106.608 79.0427 106.608 80.024V83.208C106.608 83.752 106.693 84.1573 106.864 84.424C107.045 84.68 107.355 84.8667 107.792 84.984V85.24H103.92V84.984C104.357 84.8667 104.661 84.68 104.832 84.424C105.013 84.1573 105.104 83.752 105.104 83.208V79.928C105.104 79.2027 104.939 78.6373 104.608 78.232C104.277 77.8267 103.813 77.624 103.216 77.624C102.555 77.624 102.027 77.864 101.632 78.344C101.248 78.8133 101.056 79.448 101.056 80.248V83.208C101.056 83.752 101.141 84.1573 101.312 84.424C101.493 84.68 101.803 84.8667 102.24 84.984V85.24H98.3681V84.984ZM108.681 81.304C108.681 80.44 108.841 79.688 109.161 79.048C109.481 78.3973 109.929 77.8907 110.505 77.528C111.081 77.1653 111.748 76.984 112.505 76.984C113.486 76.984 114.27 77.304 114.857 77.944C115.444 78.5733 115.79 79.48 115.897 80.664H110.121C110.121 81.8267 110.393 82.7333 110.937 83.384C111.481 84.024 112.244 84.344 113.225 84.344C114.185 84.344 114.921 84.0027 115.433 83.32L115.689 83.464C115.081 84.8187 114.02 85.496 112.505 85.496C111.737 85.496 111.065 85.3253 110.489 84.984C109.913 84.632 109.465 84.1413 109.145 83.512C108.836 82.8827 108.681 82.1467 108.681 81.304ZM114.249 80.088C114.196 79.2987 113.988 78.68 113.625 78.232C113.273 77.784 112.804 77.56 112.217 77.56C111.63 77.56 111.156 77.784 110.793 78.232C110.43 78.68 110.217 79.2987 110.153 80.088H114.249ZM121.936 83.624C121.936 83.2293 121.787 82.8987 121.488 82.632C121.189 82.3653 120.677 82.088 119.952 81.8C118.981 81.4053 118.293 81.0107 117.888 80.616C117.483 80.2107 117.28 79.7467 117.28 79.224C117.28 78.5413 117.547 77.9973 118.08 77.592C118.624 77.1867 119.349 76.984 120.256 76.984C120.693 76.984 121.147 77.0373 121.616 77.144C122.085 77.24 122.523 77.3787 122.928 77.56L123.184 79.688L122.912 79.768C122.549 79.0533 122.123 78.5093 121.632 78.136C121.141 77.752 120.619 77.56 120.064 77.56C119.637 77.56 119.301 77.6667 119.056 77.88C118.821 78.0827 118.704 78.3547 118.704 78.696C118.704 79.048 118.853 79.352 119.152 79.608C119.451 79.8533 119.973 80.1253 120.72 80.424C121.701 80.8187 122.384 81.2027 122.768 81.576C123.163 81.9493 123.36 82.408 123.36 82.952C123.36 83.4427 123.227 83.88 122.96 84.264C122.704 84.648 122.341 84.952 121.872 85.176C121.413 85.3893 120.875 85.496 120.256 85.496C119.829 85.496 119.376 85.4373 118.896 85.32C118.416 85.2133 117.936 85.0533 117.456 84.84L117.2 82.712L117.472 82.632C117.835 83.3573 118.277 83.9227 118.8 84.328C119.333 84.7227 119.893 84.92 120.48 84.92C120.939 84.92 121.296 84.8027 121.552 84.568C121.808 84.3333 121.936 84.0187 121.936 83.624ZM129.53 83.624C129.53 83.2293 129.38 82.8987 129.082 82.632C128.783 82.3653 128.271 82.088 127.546 81.8C126.575 81.4053 125.887 81.0107 125.482 80.616C125.076 80.2107 124.874 79.7467 124.874 79.224C124.874 78.5413 125.14 77.9973 125.674 77.592C126.218 77.1867 126.943 76.984 127.85 76.984C128.287 76.984 128.74 77.0373 129.21 77.144C129.679 77.24 130.116 77.3787 130.522 77.56L130.778 79.688L130.506 79.768C130.143 79.0533 129.716 78.5093 129.226 78.136C128.735 77.752 128.212 77.56 127.658 77.56C127.231 77.56 126.895 77.6667 126.65 77.88C126.415 78.0827 126.298 78.3547 126.298 78.696C126.298 79.048 126.447 79.352 126.746 79.608C127.044 79.8533 127.567 80.1253 128.314 80.424C129.295 80.8187 129.978 81.2027 130.362 81.576C130.756 81.9493 130.954 82.408 130.954 82.952C130.954 83.4427 130.82 83.88 130.554 84.264C130.298 84.648 129.935 84.952 129.466 85.176C129.007 85.3893 128.468 85.496 127.85 85.496C127.423 85.496 126.97 85.4373 126.49 85.32C126.01 85.2133 125.53 85.0533 125.05 84.84L124.794 82.712L125.066 82.632C125.428 83.3573 125.871 83.9227 126.394 84.328C126.927 84.7227 127.487 84.92 128.074 84.92C128.532 84.92 128.89 84.8027 129.146 84.568C129.402 84.3333 129.53 84.0187 129.53 83.624ZM132.947 75.48C132.873 74.9467 132.931 74.5253 133.123 74.216C133.315 73.9067 133.625 73.752 134.051 73.752C134.478 73.752 134.787 73.9067 134.979 74.216C135.182 74.5253 135.241 74.9467 135.155 75.48L134.211 81.944H133.891L132.947 75.48ZM132.963 84.296C132.963 83.976 133.065 83.7147 133.267 83.512C133.481 83.2987 133.747 83.192 134.067 83.192C134.387 83.192 134.649 83.2987 134.851 83.512C135.065 83.7147 135.171 83.976 135.171 84.296C135.171 84.616 135.065 84.8827 134.851 85.096C134.649 85.2987 134.387 85.4 134.067 85.4C133.747 85.4 133.481 85.2987 133.267 85.096C133.065 84.8827 132.963 84.616 132.963 84.296Z" fill="white"/>
</svg>
