<svg width="213" height="20" viewBox="0 0 213 20" fill="none" xmlns="http://www.w3.org/2000/svg">
<path d="M212.339 14.4661C211.443 14.9074 210.444 15.1281 209.34 15.1281C207.731 15.1281 206.504 14.6803 205.661 13.7847C204.817 12.8891 204.395 11.5781 204.395 9.85176C204.395 8.78741 204.583 7.86583 204.96 7.08704C205.336 6.29526 205.862 5.6917 206.537 5.27634C207.212 4.86098 207.984 4.65331 208.854 4.65331C210.074 4.65331 211.034 5.01674 211.735 5.74362C212.436 6.47049 212.787 7.47644 212.787 8.76145C212.787 9.26767 212.741 9.76739 212.65 10.2606H206.206C206.245 12.5581 207.361 13.7068 209.555 13.7068C210.502 13.7068 211.43 13.4991 212.339 13.0838V14.4661ZM208.854 5.99673C208.101 5.99673 207.484 6.26281 207.004 6.79499C206.537 7.32717 206.271 8.04755 206.206 8.95615H211.093C211.106 8.89125 211.112 8.82635 211.112 8.76145C211.112 8.69655 211.112 8.63165 211.112 8.56675C211.112 7.762 210.911 7.13247 210.509 6.67817C210.119 6.22388 209.568 5.99673 208.854 5.99673Z" fill="white"/>
<path d="M200.188 14.836V0.214169L202.018 0V14.836H200.188Z" fill="white"/>
<path d="M190.99 5.4321C191.964 4.9129 192.879 4.6533 193.735 4.6533C195.007 4.6533 196 5.1076 196.714 6.01619C197.441 6.91181 197.805 8.15139 197.805 9.73494C197.805 11.4742 197.363 12.8112 196.481 13.7457C195.598 14.6673 194.339 15.1281 192.703 15.1281C191.535 15.1281 190.354 14.9594 189.16 14.6219V0.214169L190.99 0V5.4321ZM193.307 6.09407C192.957 6.09407 192.567 6.15897 192.139 6.28877C191.723 6.40559 191.341 6.56784 190.99 6.77552V13.4732C191.535 13.6289 192.113 13.7068 192.723 13.7068C193.787 13.7068 194.579 13.3823 195.098 12.7333C195.63 12.0843 195.896 11.0978 195.896 9.77388C195.896 8.56675 195.676 7.65166 195.235 7.02863C194.806 6.40559 194.164 6.09407 193.307 6.09407Z" fill="white"/>
<path d="M184.73 14.875L184.613 14.1935C183.549 14.8166 182.491 15.1281 181.44 15.1281C180.388 15.1281 179.571 14.8425 178.986 14.2714C178.402 13.7003 178.11 12.902 178.11 11.8766V4.94535H179.941V11.604C179.941 12.9929 180.609 13.6873 181.946 13.6873C182.322 13.6873 182.731 13.6289 183.173 13.5121C183.614 13.3823 184.016 13.2136 184.38 13.0059V4.94535H186.21V14.7192L184.73 14.875Z" fill="white"/>
<path d="M171.36 13.6873C172.268 13.6873 172.924 13.3888 173.326 12.7917C173.742 12.1946 173.949 11.2276 173.949 9.8907C173.949 8.55377 173.742 7.58677 173.326 6.98969C172.924 6.39261 172.268 6.09408 171.36 6.09408C170.451 6.09408 169.789 6.39261 169.374 6.98969C168.972 7.58677 168.77 8.55377 168.77 9.8907C168.77 11.2276 168.972 12.1946 169.374 12.7917C169.789 13.3888 170.451 13.6873 171.36 13.6873ZM171.36 15.1281C169.88 15.1281 168.757 14.6868 167.992 13.8041C167.239 12.9085 166.862 11.6041 166.862 9.8907C166.862 8.17735 167.239 6.87936 167.992 5.99673C168.757 5.10111 169.88 4.65331 171.36 4.65331C172.84 4.65331 173.956 5.10111 174.709 5.99673C175.474 6.87936 175.857 8.17735 175.857 9.8907C175.857 11.6041 175.474 12.9085 174.709 13.8041C173.956 14.6868 172.84 15.1281 171.36 15.1281Z" fill="white"/>
<path d="M164.479 0V14.7192L162.999 14.875L162.883 14.1935C161.857 14.8166 160.864 15.1281 159.904 15.1281C158.632 15.1281 157.632 14.6803 156.905 13.7847C156.191 12.8761 155.834 11.63 155.834 10.0465C155.834 8.33311 156.256 7.00916 157.1 6.0746C157.944 5.12707 159.131 4.6533 160.663 4.6533C161.403 4.6533 162.065 4.74416 162.649 4.92588V0.214169L164.479 0ZM160.332 13.6873C160.682 13.6873 161.065 13.6289 161.481 13.5121C161.909 13.3823 162.298 13.2136 162.649 13.0059V6.30824C162.104 6.15248 161.526 6.0746 160.916 6.0746C159.852 6.0746 159.053 6.3991 158.521 7.0481C158.002 7.69709 157.743 8.68357 157.743 10.0075C157.743 11.2147 157.957 12.1297 158.385 12.7528C158.826 13.3758 159.475 13.6873 160.332 13.6873Z" fill="white"/>
<path d="M148.584 0V14.7192L147.104 14.875L146.987 14.1935C145.962 14.8166 144.969 15.1281 144.008 15.1281C142.736 15.1281 141.737 14.6803 141.01 13.7847C140.296 12.8761 139.939 11.63 139.939 10.0465C139.939 8.33311 140.361 7.00916 141.205 6.0746C142.048 5.12707 143.236 4.6533 144.768 4.6533C145.508 4.6533 146.17 4.74416 146.754 4.92588V0.214169L148.584 0ZM144.437 13.6873C144.787 13.6873 145.17 13.6289 145.585 13.5121C146.014 13.3823 146.403 13.2136 146.754 13.0059V6.30824C146.209 6.15248 145.631 6.0746 145.021 6.0746C143.956 6.0746 143.158 6.3991 142.626 7.0481C142.107 7.69709 141.847 8.68357 141.847 10.0075C141.847 11.2147 142.061 12.1297 142.49 12.7528C142.931 13.3758 143.58 13.6873 144.437 13.6873Z" fill="white"/>
<path d="M137.692 14.4661C136.796 14.9074 135.796 15.1281 134.693 15.1281C133.084 15.1281 131.857 14.6803 131.013 13.7847C130.17 12.8891 129.748 11.5781 129.748 9.85176C129.748 8.78741 129.936 7.86583 130.312 7.08704C130.689 6.29526 131.215 5.6917 131.889 5.27634C132.564 4.86098 133.337 4.65331 134.206 4.65331C135.427 4.65331 136.387 5.01674 137.088 5.74362C137.789 6.47049 138.139 7.47644 138.139 8.76145C138.139 9.26767 138.094 9.76739 138.003 10.2606H131.559C131.597 12.5581 132.714 13.7068 134.907 13.7068C135.855 13.7068 136.783 13.4991 137.692 13.0838V14.4661ZM134.206 5.99673C133.454 5.99673 132.837 6.26281 132.357 6.79499C131.889 7.32717 131.623 8.04755 131.559 8.95615H136.445C136.458 8.89125 136.465 8.82635 136.465 8.76145C136.465 8.69655 136.465 8.63165 136.465 8.56675C136.465 7.762 136.264 7.13247 135.861 6.67817C135.472 6.22388 134.92 5.99673 134.206 5.99673Z" fill="white"/>
<path d="M125.517 6.2693V11.9545C125.517 12.5386 125.647 12.9734 125.906 13.259C126.166 13.5316 126.562 13.6679 127.094 13.6679C127.496 13.6679 127.925 13.5965 128.379 13.4537V14.7582C127.834 14.9658 127.269 15.0697 126.685 15.0697C125.699 15.0697 124.952 14.8101 124.446 14.2909C123.94 13.7717 123.687 13.0124 123.687 12.0129V6.2693H122.207V5.02323L123.765 4.96482L123.901 2.49215L125.517 2.31692V4.94535H128.282V6.2693H125.517Z" fill="white"/>
<path d="M118.487 14.8361V5.10111L120.317 4.88694V14.8361H118.487ZM119.402 2.92049C119.025 2.92049 118.727 2.82314 118.506 2.62844C118.298 2.42076 118.195 2.14169 118.195 1.79123C118.195 1.44078 118.298 1.1682 118.506 0.973498C118.727 0.765819 119.025 0.66198 119.402 0.66198C119.778 0.66198 120.07 0.765819 120.278 0.973498C120.499 1.1682 120.609 1.44078 120.609 1.79123C120.609 2.14169 120.499 2.42076 120.278 2.62844C120.07 2.82314 119.778 2.92049 119.402 2.92049Z" fill="white"/>
<path d="M113.817 14.8361V7.96318C113.817 6.71711 113.213 6.09408 112.006 6.09408C111.279 6.09408 110.513 6.3342 109.709 6.81446C109.773 7.10002 109.806 7.38558 109.806 7.67114V14.8361H107.976V7.96318C107.976 6.71711 107.372 6.09408 106.165 6.09408C105.451 6.09408 104.718 6.32122 103.965 6.77552V14.8361H102.135V5.06217L103.614 4.90641L103.731 5.58786C104.731 4.96482 105.711 4.65331 106.671 4.65331C107.788 4.65331 108.631 5.01025 109.202 5.72415C110.371 5.01025 111.474 4.65331 112.512 4.65331C113.486 4.65331 114.252 4.91939 114.81 5.45157C115.368 5.98375 115.647 6.7236 115.647 7.67114V14.8361H113.817Z" fill="white"/>
<path d="M97.3436 14.8361V5.10111L99.1737 4.88694V14.8361H97.3436ZM98.2587 2.92049C97.8822 2.92049 97.5837 2.82314 97.363 2.62844C97.1554 2.42076 97.0515 2.14169 97.0515 1.79123C97.0515 1.44078 97.1554 1.1682 97.363 0.973498C97.5837 0.765819 97.8822 0.66198 98.2587 0.66198C98.6351 0.66198 98.9271 0.765819 99.1348 0.973498C99.3555 1.1682 99.4658 1.44078 99.4658 1.79123C99.4658 2.14169 99.3555 2.42076 99.1348 2.62844C98.9271 2.82314 98.6351 2.92049 98.2587 2.92049Z" fill="white"/>
<path d="M92.552 14.836V0.214169L94.3822 0V14.836H92.552Z" fill="white"/>
<path d="M87.8709 14.8361V8.17735C87.8709 6.7885 87.183 6.09408 85.8071 6.09408C85.4437 6.09408 85.0348 6.15898 84.5805 6.28877C84.1392 6.40559 83.7368 6.56784 83.3734 6.77552V14.8361H81.5432V5.06217L83.0229 4.90641L83.1397 5.58786C84.2041 4.96482 85.262 4.65331 86.3133 4.65331C87.3907 4.65331 88.2214 4.93886 88.8055 5.50998C89.4025 6.06812 89.7011 6.86638 89.7011 7.90477V14.8361H87.8709Z" fill="white"/>
<path d="M77.1134 14.875L76.9966 14.1935C75.9322 14.8166 74.8744 15.1281 73.823 15.1281C72.7716 15.1281 71.9539 14.8425 71.3698 14.2714C70.7857 13.7003 70.4937 12.902 70.4937 11.8766V4.94535H72.3238V11.604C72.3238 12.9929 72.9923 13.6873 74.3292 13.6873C74.7056 13.6873 75.1145 13.6289 75.5558 13.5121C75.9971 13.3823 76.3995 13.2136 76.763 13.0059V4.94535H78.5931V14.7192L77.1134 14.875Z" fill="white"/>
<path d="M58.1222 19.4309C56.9021 19.4309 55.8831 19.2233 55.0654 18.8079L54.8512 17.3087C55.8896 17.763 56.928 17.9902 57.9664 17.9902C59.9524 17.9902 60.9453 17.0946 60.9453 15.3033V14.1741C59.9718 14.6933 59.0567 14.9529 58.2001 14.9529C56.928 14.9529 55.9286 14.518 55.2017 13.6484C54.4878 12.7787 54.1309 11.5781 54.1309 10.0465C54.1309 8.30715 54.5722 6.97671 55.4548 6.05514C56.3374 5.12058 57.5965 4.65331 59.232 4.65331C59.7512 4.65331 60.3223 4.7182 60.9453 4.848C61.5813 4.96482 62.1914 5.12707 62.7755 5.33475V15.0697C62.7755 16.4715 62.3731 17.5489 61.5684 18.3017C60.7636 19.0545 59.6149 19.4309 58.1222 19.4309ZM58.6284 13.5121C58.9789 13.5121 59.3618 13.4537 59.7771 13.3369C60.2055 13.2071 60.5949 13.0383 60.9453 12.8307V6.30824C60.4002 6.15249 59.8226 6.07461 59.2125 6.07461C58.1481 6.07461 57.3499 6.3991 56.8177 7.0481C56.2985 7.6971 56.0389 8.68357 56.0389 10.0075C56.0389 11.1627 56.2531 12.0389 56.6814 12.636C57.1227 13.2201 57.7717 13.5121 58.6284 13.5121Z" fill="white"/>
<path d="M50.034 14.8361V8.17735C50.034 6.7885 49.3461 6.09408 47.9702 6.09408C47.6068 6.09408 47.1979 6.15898 46.7436 6.28877C46.3023 6.40559 45.8999 6.56784 45.5365 6.77552V14.8361H43.7063V5.06217L45.186 4.90641L45.3028 5.58786C46.3672 4.96482 47.425 4.65331 48.4764 4.65331C49.5538 4.65331 50.3845 4.93886 50.9686 5.50998C51.5656 6.06812 51.8642 6.86638 51.8642 7.90477V14.8361H50.034Z" fill="white"/>
<path d="M38.9148 14.8361V5.10111L40.745 4.88694V14.8361H38.9148ZM39.8299 2.92049C39.4535 2.92049 39.155 2.82314 38.9343 2.62844C38.7266 2.42076 38.6228 2.14169 38.6228 1.79123C38.6228 1.44078 38.7266 1.1682 38.9343 0.973498C39.155 0.765819 39.4535 0.66198 39.8299 0.66198C40.2064 0.66198 40.4984 0.765819 40.7061 0.973498C40.9267 1.1682 41.0371 1.44078 41.0371 1.79123C41.0371 2.14169 40.9267 2.42076 40.7061 2.62844C40.4984 2.82314 40.2064 2.92049 39.8299 2.92049Z" fill="white"/>
<path d="M34.2337 14.8361V8.17735C34.2337 6.7885 33.5458 6.09408 32.1699 6.09408C31.8065 6.09408 31.3976 6.15898 30.9433 6.28877C30.502 6.40559 30.0996 6.56784 29.7362 6.77552V14.8361H27.906V5.06217L29.3857 4.90641L29.5025 5.58786C30.5669 4.96482 31.6248 4.65331 32.6761 4.65331C33.7535 4.65331 34.5842 4.93886 35.1683 5.50998C35.7653 6.06812 36.0639 6.86638 36.0639 7.90477V14.8361H34.2337Z" fill="white"/>
<path d="M20.7949 14.8361V5.06217L22.2746 4.90641L22.4304 5.80203C23.2871 5.07515 24.2021 4.71172 25.1756 4.71172C25.4742 4.71172 25.7727 4.75715 26.0713 4.84801V6.34719C25.7597 6.26931 25.4417 6.23037 25.1172 6.23037C24.1827 6.23037 23.352 6.52241 22.6251 7.10651V14.8361H20.7949Z" fill="white"/>
<path d="M16.4696 14.875L16.3527 14.1935C15.2624 14.8166 14.2046 15.1281 13.1791 15.1281C12.1537 15.1281 11.336 14.8555 10.7259 14.3104C10.1289 13.7522 9.83032 13.0059 9.83032 12.0713C9.83032 11.0978 10.1678 10.345 10.8428 9.81282C11.5177 9.26767 12.4652 8.99509 13.6854 8.99509C14.3993 8.99509 15.2235 9.07946 16.158 9.2482V8.21629C16.158 7.5024 15.9504 6.97022 15.535 6.61976C15.1326 6.2693 14.5096 6.09408 13.6659 6.09408C12.6794 6.09408 11.6021 6.32122 10.4339 6.77552V5.35422C10.979 5.13356 11.5696 4.96482 12.2056 4.848C12.8417 4.7182 13.4452 4.65331 14.0163 4.65331C15.3014 4.65331 16.2749 4.95184 16.9368 5.54892C17.6118 6.146 17.9493 7.02214 17.9493 8.17735V14.7192L16.4696 14.875ZM13.6464 13.7068C14.0228 13.7068 14.4447 13.6419 14.912 13.5121C15.3792 13.3823 15.7946 13.2136 16.158 13.0059V10.5137C15.548 10.358 14.8276 10.2801 13.9969 10.2801C13.2181 10.2801 12.6405 10.4294 12.2641 10.7279C11.9006 11.0135 11.7189 11.4483 11.7189 12.0324C11.7189 13.1487 12.3614 13.7068 13.6464 13.7068Z" fill="white"/>
<path d="M1.88858 8.70304V13.2785H8.31364V14.8361H0V1.20714H8.2747V2.76473H1.88858V7.14545H7.45696V8.70304H1.88858Z" fill="white"/>
</svg>
