<svg width="309" height="53" viewBox="0 0 309 53" fill="none" xmlns="http://www.w3.org/2000/svg">
<path d="M7.02637 16.1147C7.02637 14.6301 7.35618 13.5033 8.02347 12.7343C8.69076 11.9577 9.65719 11.5771 10.9227 11.5771C12.1883 11.5771 13.1547 11.9653 13.822 12.7343C14.4893 13.5109 14.8191 14.6377 14.8191 16.1147C14.8191 17.5917 14.4893 18.7262 13.822 19.4951C13.1547 20.2717 12.1883 20.6524 10.9227 20.6524C9.65719 20.6524 8.69076 20.2641 8.02347 19.4951C7.35618 18.7185 7.02637 17.5917 7.02637 16.1147ZM8.91319 16.1147C8.91319 17.1958 9.07426 17.9953 9.40408 18.4977C9.72622 19.0002 10.2401 19.2515 10.9304 19.2515C11.6207 19.2515 12.1269 19.0002 12.4567 18.4977C12.7866 17.9953 12.9476 17.1958 12.9476 16.1147C12.9476 15.0336 12.7866 14.2342 12.4567 13.7317C12.1346 13.2292 11.6207 12.9779 10.9304 12.9779C10.2401 12.9779 9.72622 13.2292 9.40408 13.7317C9.08193 14.2342 8.91319 15.0336 8.91319 16.1147Z" fill="white"/>
<path d="M21.0317 20.4545V15.2697H18.3318V20.4545H16.6444V15.2697H15.6934V14.1505L16.6444 14.1125V13.0922C16.6444 12.3918 16.8362 11.836 17.2274 11.4325C17.6185 11.029 18.1478 10.831 18.8304 10.831C19.2753 10.831 19.6818 10.8995 20.0576 11.0442V12.1862C19.7585 12.1101 19.4977 12.072 19.2676 12.072C18.9685 12.072 18.7384 12.1558 18.5773 12.3157C18.4162 12.4755 18.3318 12.7116 18.3318 13.0313V14.082H21.0317V13.0922C21.0317 12.3918 21.2234 11.836 21.6146 11.4325C21.9981 11.029 22.535 10.831 23.2177 10.831C23.5781 10.831 23.9463 10.8919 24.3145 11.0214V12.1634C24.0844 12.1025 23.8619 12.0796 23.6548 12.0796C23.3557 12.0796 23.1256 12.1634 22.9569 12.3233C22.7881 12.4832 22.7114 12.7192 22.7114 13.0389V14.0896H24.2378V15.2697H22.7114V20.4545H21.024H21.0317ZM26.255 13.0846C25.9405 13.0846 25.6951 13.0009 25.5187 12.8334C25.3423 12.6659 25.2579 12.4375 25.2579 12.1482C25.2579 11.8589 25.3423 11.6304 25.5187 11.4629C25.6951 11.2954 25.9405 11.2117 26.255 11.2117C26.5695 11.2117 26.8226 11.2954 26.999 11.4629C27.1754 11.6304 27.2674 11.8589 27.2674 12.1482C27.2674 12.4375 27.1754 12.6659 26.999 12.8334C26.8226 13.0009 26.5695 13.0846 26.255 13.0846ZM25.419 20.4545V14.2114L27.1064 14.0515V20.4545H25.419Z" fill="white"/>
<path d="M33.4647 20.2185C32.8281 20.5078 32.1685 20.6525 31.4782 20.6525C30.4964 20.6525 29.7371 20.3631 29.2078 19.7845C28.6786 19.2059 28.4102 18.376 28.4102 17.2873C28.4102 16.1985 28.6709 15.3534 29.2078 14.7672C29.7371 14.181 30.4964 13.884 31.4858 13.884C32.1301 13.884 32.7744 14.0287 33.4264 14.318V15.5438C32.8281 15.3001 32.2912 15.1859 31.8233 15.1859C30.7265 15.1859 30.1743 15.8788 30.1743 17.2568C30.1743 17.942 30.3123 18.4598 30.5961 18.8176C30.8799 19.1754 31.2864 19.3429 31.831 19.3429C32.2989 19.3429 32.8434 19.2211 33.4724 18.9851V20.2109L33.4647 20.2185Z" fill="white"/>
<path d="M35.5591 13.0847C35.2446 13.0847 34.9992 13.001 34.8228 12.8335C34.6464 12.666 34.562 12.4376 34.562 12.1483C34.562 11.8589 34.6464 11.6305 34.8228 11.463C34.9992 11.2955 35.2446 11.2118 35.5591 11.2118C35.8736 11.2118 36.1267 11.2955 36.3031 11.463C36.4795 11.6305 36.5716 11.8589 36.5716 12.1483C36.5716 12.4376 36.4795 12.666 36.3031 12.8335C36.1267 13.001 35.8736 13.0847 35.5591 13.0847ZM34.7231 20.4546V14.2115L36.4105 14.0516V20.4546H34.7231Z" fill="white"/>
<path d="M41.9404 20.4926L41.8407 20.0814C41.1887 20.4621 40.5368 20.6525 39.8925 20.6525C39.2482 20.6525 38.696 20.4697 38.2971 20.1043C37.8983 19.7388 37.7065 19.2516 37.7065 18.6273C37.7065 18.0029 37.929 17.4928 38.3662 17.135C38.8034 16.7772 39.417 16.6021 40.207 16.6021C40.6748 16.6021 41.1504 16.6477 41.6336 16.7391V16.2442C41.6336 15.8635 41.5185 15.5818 41.2961 15.4067C41.0737 15.2316 40.7209 15.1403 40.2453 15.1403C39.6087 15.1403 38.9107 15.2849 38.1437 15.559V14.3408C38.5042 14.2038 38.8954 14.0896 39.3326 14.0058C39.7621 13.9221 40.1763 13.884 40.5598 13.884C41.4418 13.884 42.1168 14.082 42.5923 14.4779C43.0602 14.8738 43.298 15.4448 43.298 16.1909V20.3479L41.9481 20.485L41.9404 20.4926ZM40.4064 19.4495C40.5905 19.4495 40.7899 19.4191 41.0123 19.3658C41.2348 19.3049 41.4418 19.2363 41.6336 19.145V17.7898C41.2501 17.6984 40.9049 17.6527 40.5981 17.6527C39.8005 17.6527 39.3939 17.9573 39.3939 18.574C39.3939 18.8633 39.4783 19.0841 39.6471 19.2287C39.8158 19.381 40.0689 19.4495 40.4064 19.4495Z" fill="white"/>
<path d="M44.8555 20.4545V11.1203L46.5429 10.9604V20.4545H44.8555Z" fill="white"/>
<path d="M51.4434 20.4548V11.9429C51.8499 11.8591 52.3331 11.7906 52.8853 11.7449C53.4376 11.6992 53.9284 11.6688 54.358 11.6688C55.4011 11.6688 56.1911 11.8591 56.7357 12.255C57.2802 12.6433 57.5487 13.2067 57.5487 13.9528C57.5487 14.8741 57.0578 15.5136 56.0761 15.8867C56.682 16.039 57.1499 16.2978 57.4643 16.6709C57.7788 17.0439 57.9399 17.5084 57.9399 18.0641C57.9399 18.8331 57.6638 19.427 57.1115 19.8381C56.5593 20.2492 55.7769 20.4624 54.7491 20.4624H51.451L51.4434 20.4548ZM54.2813 12.9707C53.7674 12.9707 53.3762 13.0012 53.1078 13.0545V15.3842H54.4807C54.9179 15.3842 55.2554 15.2776 55.5085 15.0644C55.7616 14.8512 55.8843 14.5543 55.8843 14.1736C55.8843 13.7701 55.7539 13.4656 55.4931 13.2676C55.2324 13.0697 54.8258 12.9707 54.2889 12.9707H54.2813ZM54.6801 19.1529C55.6772 19.1529 56.1834 18.7418 56.1834 17.9119C56.1834 17.5084 56.053 17.1962 55.7923 16.9754C55.5315 16.7546 55.1557 16.648 54.6724 16.648H53.1078V19.1529H54.6801Z" fill="white"/>
<path d="M63.1093 20.4926L63.0096 20.0814C62.3577 20.4621 61.7057 20.6525 61.0614 20.6525C60.4172 20.6525 59.8649 20.4697 59.4661 20.1043C59.0672 19.7388 58.8755 19.2516 58.8755 18.6273C58.8755 18.0029 59.0979 17.4928 59.5351 17.135C59.9723 16.7772 60.5859 16.6021 61.3759 16.6021C61.8438 16.6021 62.3193 16.6477 62.8025 16.7391V16.2442C62.8025 15.8635 62.6875 15.5818 62.4651 15.4067C62.2426 15.2316 61.8898 15.1403 61.4143 15.1403C60.7777 15.1403 60.0797 15.2849 59.3127 15.559V14.3408C59.6732 14.2038 60.0643 14.0896 60.5015 14.0058C60.9311 13.9221 61.3452 13.884 61.7287 13.884C62.6108 13.884 63.2858 14.082 63.7613 14.4779C64.2292 14.8738 64.4669 15.4448 64.4669 16.1909V20.3479L63.117 20.485L63.1093 20.4926ZM61.5753 19.4495C61.7594 19.4495 61.9588 19.4191 62.1813 19.3658C62.4037 19.3049 62.6108 19.2363 62.8025 19.145V17.7898C62.419 17.6984 62.0739 17.6527 61.7671 17.6527C60.9694 17.6527 60.5629 17.9573 60.5629 18.574C60.5629 18.8633 60.6473 19.0841 60.816 19.2287C60.9847 19.381 61.2379 19.4495 61.5753 19.4495Z" fill="white"/>
<path d="M69.9508 20.4545V16.2747C69.9508 15.9016 69.8665 15.6275 69.6977 15.4524C69.529 15.2773 69.2682 15.1859 68.9077 15.1859C68.7083 15.1859 68.5012 15.2164 68.2788 15.2773C68.064 15.3382 67.8723 15.422 67.7035 15.5209V20.4621H66.0161V14.1962L67.366 14.0591L67.4657 14.4703C68.1177 14.0896 68.7543 13.8993 69.3909 13.8993C70.1042 13.8993 70.6565 14.0896 71.0476 14.4627C71.4388 14.8357 71.6306 15.3687 71.6306 16.0539V20.4621H69.9432L69.9508 20.4545Z" fill="white"/>
<path d="M73.2109 20.4545V11.1203L74.8983 10.9604V16.7163L77.115 14.082H79.0171L76.5627 16.9371L79.2012 20.4469H77.161L74.8983 17.4091V20.4469H73.2109V20.4545Z" fill="white"/>
<path d="M87.0478 20.4926L86.9481 20.0814C86.2962 20.4621 85.6442 20.6525 84.9999 20.6525C84.3556 20.6525 83.8034 20.4697 83.4046 20.1043C83.0057 19.7388 82.814 19.2516 82.814 18.6273C82.814 18.0029 83.0364 17.4928 83.4736 17.135C83.9108 16.7772 84.5244 16.6021 85.3144 16.6021C85.7823 16.6021 86.2578 16.6477 86.741 16.7391V16.2442C86.741 15.8635 86.626 15.5818 86.4035 15.4067C86.1811 15.2316 85.8283 15.1403 85.3527 15.1403C84.7161 15.1403 84.0182 15.2849 83.2512 15.559V14.3408C83.6116 14.2038 84.0028 14.0896 84.44 14.0058C84.8695 13.9221 85.2837 13.884 85.6672 13.884C86.5493 13.884 87.2242 14.082 87.6998 14.4779C88.1676 14.8738 88.4054 15.4448 88.4054 16.1909V20.3479L87.0555 20.485L87.0478 20.4926ZM85.5138 19.4495C85.6979 19.4495 85.8973 19.4191 86.1197 19.3658C86.3422 19.3049 86.5493 19.2363 86.741 19.145V17.7898C86.3575 17.6984 86.0124 17.6527 85.7056 17.6527C84.9079 17.6527 84.5014 17.9573 84.5014 18.574C84.5014 18.8633 84.5857 19.0841 84.7545 19.2287C84.9232 19.381 85.1763 19.4495 85.5138 19.4495Z" fill="white"/>
<path d="M93.8898 20.4545V16.2747C93.8898 15.9016 93.8054 15.6275 93.6367 15.4524C93.4679 15.2773 93.2072 15.1859 92.8467 15.1859C92.6473 15.1859 92.4402 15.2164 92.2177 15.2773C92.003 15.3382 91.8112 15.422 91.6425 15.5209V20.4621H89.9551V14.1962L91.305 14.0591L91.4047 14.4703C92.0567 14.0896 92.6933 13.8993 93.3299 13.8993C94.0432 13.8993 94.5954 14.0896 94.9866 14.4627C95.3778 14.8357 95.5695 15.3687 95.5695 16.0539V20.4621H93.8821L93.8898 20.4545Z" fill="white"/>
<path d="M102.764 10.9604V20.3555L101.414 20.4926L101.314 20.0814C101.015 20.2566 100.7 20.3936 100.363 20.5002C100.025 20.6068 99.7262 20.6525 99.4501 20.6525C98.6294 20.6525 97.9928 20.3631 97.5326 19.7845C97.0724 19.2059 96.8423 18.3989 96.8423 17.3786C96.8423 16.2671 97.1184 15.4144 97.663 14.8053C98.2075 14.1962 98.9746 13.8917 99.9717 13.8917C100.332 13.8917 100.7 13.9373 101.084 14.0287V11.1279L102.771 10.9681L102.764 10.9604ZM99.9256 19.3658C100.102 19.3658 100.294 19.3353 100.509 19.2744C100.723 19.2135 100.907 19.1298 101.076 19.0308V15.224C100.815 15.1631 100.539 15.1403 100.248 15.1403C99.6879 15.1403 99.2737 15.323 99.0052 15.6808C98.7368 16.0387 98.5987 16.5945 98.5987 17.3482C98.5987 18.6958 99.0436 19.3734 99.9256 19.3734V19.3658Z" fill="white"/>
<path d="M113.609 20.0813C112.857 20.462 112.044 20.6524 111.155 20.6524C109.927 20.6524 108.984 20.2565 108.309 19.4723C107.634 18.6881 107.304 17.5689 107.304 16.1071C107.304 14.6453 107.642 13.5642 108.317 12.7647C108.992 11.9653 109.935 11.5694 111.155 11.5694C112.014 11.5694 112.811 11.7598 113.555 12.1404V13.5185C113.156 13.3282 112.804 13.1911 112.489 13.115C112.182 13.0388 111.837 13.0008 111.461 13.0008C110.717 13.0008 110.157 13.2596 109.782 13.785C109.406 14.3103 109.214 15.0869 109.214 16.1147C109.214 18.1932 109.966 19.2286 111.461 19.2286C111.822 19.2286 112.167 19.1906 112.489 19.1068C112.819 19.0231 113.187 18.8936 113.594 18.7109V20.089L113.609 20.0813Z" fill="white"/>
<path d="M114.944 20.4546V14.1887L116.294 14.0517L116.432 14.6379C116.954 14.1659 117.537 13.9298 118.173 13.9298C118.373 13.9298 118.58 13.9603 118.802 14.0136V15.3916C118.549 15.3307 118.334 15.3079 118.143 15.3079C117.567 15.3079 117.069 15.4678 116.639 15.7799V20.4622H114.952L114.944 20.4546Z" fill="white"/>
<path d="M124.93 20.2033C124.324 20.5002 123.649 20.6525 122.905 20.6525C121.808 20.6525 120.965 20.3631 120.382 19.7845C119.799 19.2059 119.507 18.3608 119.507 17.2492C119.507 16.5716 119.638 15.9778 119.899 15.4676C120.159 14.9575 120.52 14.5693 120.98 14.2952C121.44 14.0211 121.962 13.884 122.552 13.884C123.388 13.884 124.04 14.1201 124.516 14.5997C124.991 15.0794 125.229 15.7265 125.229 16.5564C125.229 16.9447 125.191 17.3253 125.114 17.6984H121.164C121.195 18.277 121.379 18.7034 121.701 18.9851C122.023 19.2668 122.499 19.4038 123.112 19.4038C123.726 19.4038 124.347 19.2668 124.922 18.9927V20.2109L124.93 20.2033ZM122.552 15.0565C122.161 15.0565 121.839 15.1936 121.594 15.46C121.348 15.7265 121.195 16.092 121.156 16.5564H123.68V16.3737C123.68 15.9397 123.58 15.6123 123.388 15.3915C123.197 15.1707 122.92 15.0565 122.552 15.0565Z" fill="white"/>
<path d="M132.155 10.9604V20.3555L130.805 20.4926L130.706 20.0814C130.406 20.2566 130.092 20.3936 129.754 20.5002C129.417 20.6068 129.118 20.6525 128.842 20.6525C128.021 20.6525 127.384 20.3631 126.924 19.7845C126.464 19.2059 126.234 18.3989 126.234 17.3786C126.234 16.2671 126.51 15.4144 127.055 14.8053C127.599 14.1962 128.366 13.8917 129.363 13.8917C129.724 13.8917 130.092 13.9373 130.475 14.0287V11.1279L132.163 10.9681L132.155 10.9604ZM129.317 19.3658C129.494 19.3658 129.685 19.3353 129.9 19.2744C130.115 19.2135 130.299 19.1298 130.468 19.0308V15.224C130.207 15.1631 129.931 15.1403 129.639 15.1403C129.079 15.1403 128.665 15.323 128.397 15.6808C128.128 16.0387 127.99 16.5945 127.99 17.3482C127.99 18.6958 128.435 19.3734 129.317 19.3734V19.3658Z" fill="white"/>
<path d="M134.617 13.0847C134.303 13.0847 134.057 13.001 133.881 12.8335C133.704 12.666 133.62 12.4376 133.62 12.1483C133.62 11.8589 133.704 11.6305 133.881 11.463C134.057 11.2955 134.303 11.2118 134.617 11.2118C134.932 11.2118 135.185 11.2955 135.361 11.463C135.538 11.6305 135.63 11.8589 135.63 12.1483C135.63 12.4376 135.538 12.666 135.361 12.8335C135.185 13.001 134.932 13.0847 134.617 13.0847ZM133.781 20.4546V14.2115L135.469 14.0516V20.4546H133.781Z" fill="white"/>
<path d="M139.181 15.2696V18.4597C139.181 19.0764 139.48 19.3886 140.071 19.3886C140.285 19.3886 140.554 19.3429 140.868 19.2515V20.3783C140.5 20.5458 140.078 20.6296 139.603 20.6296C138.913 20.6296 138.383 20.4545 138.03 20.0966C137.67 19.7388 137.494 19.2211 137.494 18.5435V15.2696H136.542V14.1505L137.578 14.1124L137.693 12.5136L139.181 12.3537V14.0896H140.83V15.2696H139.181Z" fill="white"/>
<path d="M151.223 20.0813C150.472 20.462 149.659 20.6524 148.769 20.6524C147.542 20.6524 146.598 20.2565 145.923 19.4723C145.248 18.6881 144.918 17.5689 144.918 16.1071C144.918 14.6453 145.256 13.5642 145.931 12.7647C146.606 11.9653 147.549 11.5694 148.769 11.5694C149.628 11.5694 150.426 11.7598 151.17 12.1404V13.5185C150.771 13.3282 150.418 13.1911 150.103 13.115C149.797 13.0388 149.451 13.0008 149.076 13.0008C148.332 13.0008 147.772 13.2596 147.396 13.785C147.02 14.3103 146.828 15.0869 146.828 16.1147C146.828 18.1932 147.58 19.2286 149.076 19.2286C149.436 19.2286 149.781 19.1906 150.103 19.1068C150.433 19.0231 150.801 18.8936 151.208 18.7109V20.089L151.223 20.0813Z" fill="white"/>
<path d="M156.477 20.4926L156.377 20.0814C155.725 20.4621 155.073 20.6525 154.429 20.6525C153.785 20.6525 153.233 20.4697 152.834 20.1043C152.435 19.7388 152.243 19.2516 152.243 18.6273C152.243 18.0029 152.466 17.4928 152.903 17.135C153.34 16.7772 153.954 16.6021 154.744 16.6021C155.211 16.6021 155.687 16.6477 156.17 16.7391V16.2442C156.17 15.8635 156.055 15.5818 155.833 15.4067C155.61 15.2316 155.257 15.1403 154.782 15.1403C154.145 15.1403 153.447 15.2849 152.68 15.559V14.3408C153.041 14.2038 153.432 14.0896 153.869 14.0058C154.299 13.9221 154.713 13.884 155.096 13.884C155.978 13.884 156.653 14.082 157.129 14.4779C157.597 14.8738 157.835 15.4448 157.835 16.1909V20.3479L156.485 20.485L156.477 20.4926ZM154.943 19.4495C155.127 19.4495 155.327 19.4191 155.549 19.3658C155.771 19.3049 155.978 19.2363 156.17 19.145V17.7898C155.787 17.6984 155.442 17.6527 155.135 17.6527C154.337 17.6527 153.931 17.9573 153.931 18.574C153.931 18.8633 154.015 19.0841 154.184 19.2287C154.352 19.381 154.606 19.4495 154.943 19.4495Z" fill="white"/>
<path d="M159.384 20.4546V14.1887L160.734 14.0517L160.872 14.6379C161.393 14.1659 161.976 13.9298 162.613 13.9298C162.812 13.9298 163.019 13.9603 163.242 14.0136V15.3916C162.989 15.3307 162.774 15.3079 162.582 15.3079C162.007 15.3079 161.508 15.4678 161.079 15.7799V20.4622H159.391L159.384 20.4546Z" fill="white"/>
<path d="M169.876 10.9604V20.3555L168.526 20.4926L168.427 20.0814C168.128 20.2566 167.813 20.3936 167.476 20.5002C167.138 20.6068 166.839 20.6525 166.563 20.6525C165.742 20.6525 165.106 20.3631 164.645 19.7845C164.185 19.2059 163.955 18.3989 163.955 17.3786C163.955 16.2671 164.231 15.4144 164.776 14.8053C165.32 14.1962 166.087 13.8917 167.084 13.8917C167.445 13.8917 167.813 13.9373 168.197 14.0287V11.1279L169.884 10.9681L169.876 10.9604ZM167.038 19.3658C167.215 19.3658 167.407 19.3353 167.621 19.2744C167.836 19.2135 168.02 19.1298 168.189 19.0308V15.224C167.928 15.1631 167.652 15.1403 167.361 15.1403C166.801 15.1403 166.386 15.323 166.118 15.6808C165.85 16.0387 165.712 16.5945 165.712 17.3482C165.712 18.6958 166.156 19.3734 167.038 19.3734V19.3658Z" fill="white"/>
<path d="M174.777 20.4548V11.9429C175.215 11.8591 175.698 11.7906 176.227 11.7449C176.756 11.6992 177.224 11.6688 177.615 11.6688C178.735 11.6688 179.594 11.9124 180.192 12.3997C180.791 12.887 181.09 13.5798 181.09 14.4858C181.09 15.3918 180.775 16.077 180.146 16.5795C179.517 17.082 178.651 17.3409 177.554 17.3409H176.526V20.4548H174.777ZM177.554 12.9935C177.17 12.9935 176.825 13.0164 176.526 13.0697V16.0085H177.554C178.114 16.0085 178.543 15.8791 178.842 15.6202C179.142 15.3614 179.295 14.9883 179.295 14.4934C179.295 13.496 178.712 12.9935 177.554 12.9935Z" fill="white"/>
<path d="M185.991 20.4926L185.891 20.0814C185.24 20.4621 184.588 20.6525 183.943 20.6525C183.299 20.6525 182.747 20.4697 182.348 20.1043C181.949 19.7388 181.757 19.2516 181.757 18.6273C181.757 18.0029 181.98 17.4928 182.417 17.135C182.854 16.7772 183.468 16.6021 184.258 16.6021C184.726 16.6021 185.201 16.6477 185.684 16.7391V16.2442C185.684 15.8635 185.569 15.5818 185.347 15.4067C185.124 15.2316 184.772 15.1403 184.296 15.1403C183.659 15.1403 182.962 15.2849 182.195 15.559V14.3408C182.555 14.2038 182.946 14.0896 183.383 14.0058C183.813 13.9221 184.227 13.884 184.611 13.884C185.493 13.884 186.168 14.082 186.643 14.4779C187.111 14.8738 187.349 15.4448 187.349 16.1909V20.3479L185.999 20.485L185.991 20.4926ZM184.457 19.4495C184.641 19.4495 184.841 19.4191 185.063 19.3658C185.286 19.3049 185.493 19.2363 185.684 19.145V17.7898C185.301 17.6984 184.956 17.6527 184.649 17.6527C183.851 17.6527 183.445 17.9573 183.445 18.574C183.445 18.8633 183.529 19.0841 183.698 19.2287C183.867 19.381 184.12 19.4495 184.457 19.4495Z" fill="white"/>
<path d="M188.905 20.4546V14.1887L190.255 14.0517L190.393 14.6379C190.915 14.1659 191.498 13.9298 192.134 13.9298C192.334 13.9298 192.541 13.9603 192.763 14.0136V15.3916C192.51 15.3307 192.295 15.3079 192.104 15.3079C191.528 15.3079 191.03 15.4678 190.6 15.7799V20.4622H188.913L188.905 20.4546Z" fill="white"/>
<path d="M195.87 15.2696V18.4597C195.87 19.0764 196.17 19.3886 196.76 19.3886C196.975 19.3886 197.243 19.3429 197.558 19.2515V20.3783C197.19 20.5458 196.768 20.6296 196.292 20.6296C195.602 20.6296 195.073 20.4545 194.72 20.0966C194.359 19.7388 194.183 19.2211 194.183 18.5435V15.2696H193.232V14.1505L194.267 14.1124L194.382 12.5136L195.87 12.3537V14.0896H197.519V15.2696H195.87Z" fill="white"/>
<path d="M202.62 20.4545V16.2747C202.62 15.9016 202.535 15.6275 202.367 15.4524C202.198 15.2773 201.937 15.1859 201.577 15.1859C201.377 15.1859 201.17 15.2164 200.948 15.2773C200.733 15.3382 200.541 15.422 200.372 15.5209V20.4621H198.685V14.1962L200.035 14.0591L200.135 14.4703C200.787 14.0896 201.423 13.8993 202.06 13.8993C202.773 13.8993 203.325 14.0896 203.717 14.4627C204.108 14.8357 204.3 15.3687 204.3 16.0539V20.4621H202.612L202.62 20.4545Z" fill="white"/>
<path d="M210.995 20.2033C210.39 20.5002 209.715 20.6525 208.971 20.6525C207.874 20.6525 207.03 20.3631 206.447 19.7845C205.864 19.2059 205.573 18.3608 205.573 17.2492C205.573 16.5716 205.703 15.9778 205.964 15.4676C206.225 14.9575 206.585 14.5693 207.045 14.2952C207.506 14.0211 208.027 13.884 208.618 13.884C209.454 13.884 210.106 14.1201 210.581 14.5997C211.057 15.0794 211.295 15.7265 211.295 16.5564C211.295 16.9447 211.256 17.3253 211.18 17.6984H207.229C207.26 18.277 207.444 18.7034 207.766 18.9851C208.089 19.2668 208.564 19.4038 209.178 19.4038C209.791 19.4038 210.413 19.2668 210.988 18.9927V20.2109L210.995 20.2033ZM208.618 15.0565C208.227 15.0565 207.904 15.1936 207.659 15.46C207.414 15.7265 207.26 16.092 207.222 16.5564H209.745V16.3737C209.745 15.9397 209.646 15.6123 209.454 15.3915C209.262 15.1707 208.986 15.0565 208.618 15.0565Z" fill="white"/>
<path d="M212.606 20.4546V14.1887L213.956 14.0517L214.094 14.6379C214.616 14.1659 215.198 13.9298 215.835 13.9298C216.034 13.9298 216.242 13.9603 216.464 14.0136V15.3916C216.211 15.3307 215.996 15.3079 215.804 15.3079C215.229 15.3079 214.731 15.4678 214.301 15.7799V20.4622H212.614L212.606 20.4546Z" fill="white"/>
<path d="M223.344 20.6525C222.355 20.6525 221.595 20.3632 221.074 19.7921C220.552 19.2211 220.292 18.376 220.292 17.2645C220.292 16.1529 220.552 15.3306 221.066 14.752C221.58 14.181 222.339 13.8917 223.344 13.8917C224.349 13.8917 225.101 14.181 225.622 14.752C226.136 15.3306 226.397 16.1681 226.397 17.2645C226.397 18.3608 226.136 19.2135 225.615 19.7921C225.093 20.3708 224.334 20.6525 223.344 20.6525ZM223.344 19.3582C223.804 19.3582 224.134 19.1983 224.334 18.8709C224.533 18.5435 224.633 18.0106 224.633 17.2568C224.633 16.5031 224.533 15.9778 224.334 15.658C224.134 15.3382 223.804 15.1707 223.344 15.1707C222.884 15.1707 222.554 15.3306 222.355 15.658C222.155 15.9854 222.056 16.5107 222.056 17.2568C222.056 18.003 222.155 18.5511 222.355 18.8709C222.554 19.1907 222.884 19.3582 223.344 19.3582Z" fill="white"/>
<path d="M228.107 20.4545V15.2697H227.156V14.1505L228.107 14.1125V13.0922C228.107 12.3918 228.299 11.836 228.69 11.4325C229.081 11.029 229.611 10.831 230.293 10.831C230.738 10.831 231.183 10.9148 231.628 11.0823V12.2243C231.252 12.1253 230.953 12.072 230.73 12.072C230.431 12.072 230.201 12.1558 230.04 12.3157C229.879 12.4755 229.795 12.7116 229.795 13.0313V14.082H231.321V15.2621H229.795V20.4469H228.107V20.4545Z" fill="white"/>
<path d="M306.876 33.0809C307.375 33.0809 307.773 33.4311 307.773 33.9107C307.773 34.3904 307.375 34.7482 306.876 34.7482C306.378 34.7482 305.979 34.3904 305.979 33.9107C305.979 33.4311 306.378 33.0809 306.876 33.0809ZM306.876 34.9766C307.52 34.9766 308.027 34.5046 308.027 33.9107C308.027 33.3169 307.52 32.8448 306.876 32.8448C306.232 32.8448 305.726 33.3169 305.726 33.9107C305.726 34.5046 306.232 34.9766 306.876 34.9766ZM307.114 34.0173C307.329 34.0021 307.436 33.8955 307.436 33.6899C307.436 33.4006 307.252 33.355 306.968 33.355H306.385V34.4665H306.638V34.0249H306.853L307.129 34.4665H307.405L307.114 34.0249V34.0173ZM306.638 33.8194V33.5529H306.914C307.029 33.5529 307.191 33.5529 307.191 33.6747C307.191 33.7965 307.106 33.8194 306.976 33.8194H306.638Z" fill="white"/>
<path d="M245.063 0H299.835C302.78 0 305.181 2.37542 305.181 5.30662V29.6166C305.181 32.5402 302.788 34.9232 299.835 34.9232H245.063C242.118 34.9232 239.717 32.5478 239.717 29.6166V5.30662C239.717 2.37542 242.11 0 245.063 0Z" fill="white"/>
<path d="M302.35 2.8018C301.675 2.13181 300.786 1.76636 299.835 1.76636H284.518L293.33 16.3539L294.136 16.4528L294.604 17.1152V17.7471L295.171 17.8461L295.677 18.5466V19.148L296.245 19.247C296.245 19.247 296.813 19.8485 296.813 19.8789C296.813 19.8485 296.813 21.2417 296.813 21.2417C296.813 21.2417 298.055 22.3762 299.16 22.8025C299.934 23.0994 300.034 24.3328 300.471 25.0028C301.077 25.9317 301.883 26.3352 301.714 26.8681C301.315 28.2995 299.835 30.6977 298.462 30.8348C298.462 30.8348 295.041 30.8348 293.024 30.8348V33.1417H299.819C301.783 33.1417 303.378 31.5504 303.378 29.6014V5.30664C303.378 4.36257 303.01 3.47179 302.335 2.80941L302.35 2.8018Z" fill="#BC0022"/>
<path d="M279.302 1.76649H245.063C244.112 1.76649 243.215 2.13194 242.548 2.80193C241.873 3.47192 241.504 4.35509 241.504 5.29917V29.6091C241.504 30.5532 241.873 31.444 242.548 32.1064C243.222 32.7764 244.112 33.1418 245.063 33.1418H267.306C266.746 32.2206 266.125 31.1699 265.926 30.8501H263.272C263.272 24.3254 265.512 20.6937 268.165 19.9933C268.534 19.9247 268.365 18.128 267.897 17.595C267.897 17.595 266.624 17.6255 266.355 17.5645C266.018 17.4656 266.256 17.1306 266.256 17.1306L267.498 14.4658L267.329 13.735H262.735C262.666 13.735 266.524 11.1007 266.524 11.1007C266.723 4.17237 273.872 3.63942 278.198 6.5021C280.752 8.19992 280.951 11.527 280.752 13.8644C280.721 13.9938 280.085 13.8948 280.085 13.8948C280.085 13.8948 279.647 16.4225 280.79 16.4225H285.822C287.87 16.354 289.849 17.7168 289.849 17.7168L290.347 15.9809L279.302 1.75888V1.76649ZM248.868 28.1473C247.518 28.1473 246.421 27.0586 246.421 25.7186C246.421 24.3787 247.518 23.2899 248.868 23.2899C250.218 23.2899 251.314 24.3787 251.314 25.7186C251.314 27.0586 250.225 28.1473 248.868 28.1473Z" fill="#041E42"/>
<path d="M8.15272 35.9411V33.0904H7.15381V32.5793H9.78857V33.0904H8.78966V35.9411H8.15427H8.15272ZM11.0733 32.5778L11.965 34.8397L12.8645 32.5778H13.5232L13.8106 35.9411H13.2141L13.0354 33.5238L12.2136 35.6164H11.7103L10.8729 33.485L10.6943 35.9411H10.1055L10.3929 32.5778H11.0749H11.0733Z" fill="white"/>
<path d="M14.3042 38.001L16.257 32.1816H16.9933L15.0406 38.001H14.3042Z" fill="white"/>
<path d="M20.1859 38.1176C19.6484 38.1176 19.1637 37.9871 18.7333 37.7261C18.3015 37.4651 17.9675 37.1202 17.7298 36.6915C17.4921 36.2627 17.374 35.7951 17.374 35.2886C17.374 34.7465 17.5045 34.2587 17.7655 33.8237C18.0265 33.3902 18.3698 33.0547 18.7955 32.817C19.2212 32.5793 19.6857 32.4612 20.1859 32.4612C20.7234 32.4612 21.2081 32.5917 21.6384 32.8527C22.0703 33.1137 22.4043 33.4586 22.642 33.8874C22.8797 34.3161 22.9977 34.7837 22.9977 35.2902C22.9977 35.8324 22.8673 36.3202 22.6063 36.7552C22.3453 37.1886 22.0019 37.5257 21.5763 37.7618C21.1506 37.9995 20.6861 38.1176 20.1859 38.1176ZM20.1859 37.6764C20.6411 37.6764 21.045 37.5692 21.3992 37.3548C21.7534 37.1404 22.0268 36.853 22.221 36.4911C22.4152 36.1291 22.5115 35.7298 22.5115 35.2902C22.5115 34.8195 22.4074 34.4031 22.1977 34.0381C21.988 33.6745 21.7083 33.3934 21.3572 33.1976C21.0061 33.0019 20.6162 32.9024 20.1874 32.9024C19.7323 32.9024 19.3283 33.0096 18.9741 33.224C18.6199 33.4384 18.3465 33.7258 18.1523 34.0878C17.9581 34.4497 17.8618 34.8505 17.8618 35.2886C17.8618 35.7594 17.9659 36.1757 18.1756 36.5408C18.3854 36.9058 18.665 37.1855 19.0161 37.3812C19.3672 37.577 19.7571 37.6764 20.1859 37.6764ZM21.1848 36.7924C20.916 36.9369 20.6147 37.0099 20.2775 37.0099C19.7975 37.0099 19.42 36.8577 19.1466 36.5532C18.8732 36.2487 18.7365 35.8277 18.7365 35.2902C18.7365 34.7527 18.8747 34.3317 19.1512 34.0272C19.4278 33.7227 19.8037 33.5705 20.2791 33.5705C20.6053 33.5705 20.9021 33.6435 21.1708 33.7879V34.2757C21.0357 34.2027 20.9083 34.1499 20.7871 34.1173C20.6659 34.0831 20.5323 34.0676 20.3878 34.0676C20.0834 34.0676 19.8441 34.1779 19.6717 34.3969C19.4992 34.616 19.4122 34.9142 19.4122 35.2917C19.4122 35.6692 19.4992 35.9737 19.6717 36.1912C19.8441 36.4087 20.0834 36.5159 20.3878 36.5159C20.6411 36.5159 20.9067 36.446 21.1863 36.3062V36.794L21.1848 36.7924Z" fill="white"/>
<path d="M25.3159 38.0011C25.3268 37.5366 25.42 37.1327 25.5987 36.7924C25.7773 36.4522 26.0771 36.1027 26.5012 35.7469L27.1522 35.197C27.4163 34.9748 27.6042 34.776 27.7176 34.6004C27.8311 34.4249 27.8885 34.2447 27.8885 34.0583C27.8885 33.7848 27.7891 33.5673 27.5903 33.4073C27.3914 33.2473 27.1211 33.1665 26.7809 33.1665C26.3366 33.1665 25.9031 33.3219 25.479 33.631V33.0345C25.8969 32.73 26.3909 32.5778 26.9595 32.5778C27.2951 32.5778 27.5903 32.6415 27.8466 32.7673C28.1029 32.8931 28.3002 33.0671 28.44 33.2862C28.5799 33.5052 28.6498 33.7491 28.6498 34.0179C28.6498 34.2866 28.5783 34.5383 28.4369 34.7729C28.294 35.0075 28.0532 35.27 27.713 35.559L27.0931 36.0856C26.8042 36.3342 26.5836 36.561 26.4344 36.7676C26.2853 36.9742 26.189 37.1808 26.147 37.3874H27.9445C28.2443 37.3874 28.5022 37.3797 28.7197 37.3641V37.9995H25.3175L25.3159 38.0011Z" fill="white"/>
<path d="M31.367 38.1176C30.0854 38.1176 29.4453 37.1932 29.4453 35.343C29.4453 34.428 29.6053 33.7398 29.9254 33.2737C30.2454 32.8092 30.7254 32.5762 31.367 32.5762C32.0086 32.5762 32.4871 32.8092 32.8087 33.2737C33.1287 33.7382 33.2887 34.428 33.2887 35.343C33.2887 37.1917 32.6487 38.1176 31.367 38.1176ZM31.367 37.5443C31.7694 37.5443 32.0645 37.3672 32.251 37.013C32.4374 36.6588 32.5306 36.1026 32.5306 35.343C32.5306 34.5833 32.4358 34.0287 32.2479 33.6776C32.0599 33.3265 31.7663 33.151 31.3686 33.151C30.9709 33.151 30.6772 33.3265 30.4893 33.6776C30.3013 34.0287 30.2065 34.5849 30.2065 35.343C30.2065 36.1011 30.2997 36.6588 30.4862 37.013C30.6726 37.3672 30.9662 37.5443 31.3701 37.5443H31.367Z" fill="white"/>
<path d="M33.8931 38.0011C33.9039 37.5366 33.9972 37.1327 34.1758 36.7924C34.3545 36.4522 34.6543 36.1027 35.0784 35.7469L35.7293 35.197C35.9934 34.9748 36.1814 34.776 36.2948 34.6004C36.4082 34.4249 36.4657 34.2447 36.4657 34.0583C36.4657 33.7848 36.3663 33.5673 36.1674 33.4073C35.9686 33.2473 35.6983 33.1665 35.358 33.1665C34.9137 33.1665 34.4803 33.3219 34.0562 33.631V33.0345C34.4741 32.73 34.9681 32.5778 35.5367 32.5778C35.8722 32.5778 36.1674 32.6415 36.4237 32.7673C36.6801 32.8931 36.8774 33.0671 37.0172 33.2862C37.157 33.5052 37.2269 33.7491 37.2269 34.0179C37.2269 34.2866 37.1554 34.5383 37.0141 34.7729C36.8712 35.0075 36.6304 35.27 36.2901 35.559L35.6703 36.0856C35.3813 36.3342 35.1607 36.561 35.0116 36.7676C34.8625 36.9742 34.7661 37.1808 34.7242 37.3874H36.5216C36.8214 37.3874 37.0793 37.3797 37.2968 37.3641V37.9995H33.8946L33.8931 38.0011Z" fill="white"/>
<path d="M37.899 37.2041C38.3697 37.4263 38.8311 37.5366 39.2863 37.5366C39.7151 37.5366 40.046 37.4325 40.2774 37.2228C40.5105 37.013 40.6254 36.7179 40.6254 36.3357C40.6254 35.9893 40.5291 35.7205 40.3349 35.5294C40.1407 35.3384 39.8658 35.242 39.51 35.242C39.3236 35.242 39.1372 35.2669 38.9476 35.3151C38.7597 35.3648 38.595 35.4331 38.4552 35.5201L38.0994 35.2793L38.348 32.6912H40.3396C40.6192 32.6912 40.874 32.6803 41.107 32.6601V33.3032H38.9445L38.7969 34.8925C38.9259 34.835 39.0735 34.7884 39.2381 34.7527C39.4028 34.7169 39.5628 34.6983 39.7182 34.6983C40.2246 34.6983 40.6285 34.8474 40.9315 35.1473C41.2344 35.4471 41.3851 35.8448 41.3851 36.3404C41.3851 36.707 41.3012 37.0239 41.1334 37.2896C40.9657 37.5552 40.7311 37.7603 40.4281 37.9017C40.1252 38.043 39.7788 38.1145 39.3857 38.1145C39.1325 38.1145 38.8824 38.0881 38.6338 38.0368C38.3853 37.9855 38.1709 37.9156 37.9907 37.8271L37.8975 37.1995L37.899 37.2041Z" fill="white"/>
<path d="M46.7093 37.5288L45.1977 33.6388L44.9025 38.0011H44.1895L44.6151 32.5778H45.4602L47.0184 36.592L48.5766 32.5778H49.4217L49.8473 38.0011H49.1265L48.8236 33.6388L47.3198 37.5288H46.7077H46.7093Z" fill="white"/>
<path d="M51.0562 38.0011V32.5778H51.8081V37.3812H54.303V38.0011H51.0562Z" fill="white"/>
<path d="M55.0923 38.0011V32.6927C55.3657 32.6415 55.6547 32.5995 55.9607 32.5685C56.2652 32.5374 56.5308 32.5219 56.7592 32.5219C57.3635 32.5219 57.8265 32.6415 58.1496 32.8823C58.4727 33.1215 58.6343 33.4664 58.6343 33.9154C58.6343 34.2152 58.5535 34.47 58.3904 34.6812C58.2273 34.8925 57.988 35.0525 57.6742 35.1613C58.0564 35.2436 58.3516 35.4036 58.5613 35.6382C58.771 35.8728 58.8751 36.1695 58.8751 36.5268C58.8751 37.0022 58.7104 37.3673 58.3795 37.6205C58.0486 37.8737 57.5764 38.0011 56.9612 38.0011H55.0938H55.0923ZM56.7048 33.0967C56.4625 33.0967 56.1673 33.1231 55.8209 33.1743V34.9407H56.8431C57.1678 34.9407 57.4257 34.8568 57.6136 34.689C57.8016 34.5212 57.8964 34.2944 57.8964 34.0117C57.8964 33.4027 57.4987 33.0967 56.7033 33.0967H56.7048ZM56.9379 37.4278C57.32 37.4278 57.6105 37.3471 57.8094 37.1839C58.0082 37.0208 58.1077 36.7831 58.1077 36.4678C58.1077 36.1524 58.0036 35.9194 57.7938 35.7516C57.5841 35.5838 57.2921 35.4999 56.9146 35.4999H55.8224V37.4294H56.9379V37.4278Z" fill="white"/>
<path d="M60.0445 38.0399C59.9047 38.0399 59.7913 37.9964 59.7043 37.9079C59.6158 37.8209 59.5723 37.7059 59.5723 37.5677C59.5723 37.4294 59.6158 37.3144 59.7043 37.2274C59.7929 37.1404 59.9063 37.0954 60.0445 37.0954C60.1828 37.0954 60.2978 37.1389 60.3863 37.2274C60.4733 37.316 60.5184 37.4294 60.5184 37.5677C60.5184 37.7059 60.4749 37.8209 60.3863 37.9079C60.2978 37.9964 60.1844 38.0399 60.0445 38.0399Z" fill="white"/>
<path d="M67.0184 37.7774C66.5787 38.0042 66.0956 38.1176 65.569 38.1176C64.845 38.1176 64.2858 37.869 63.8881 37.3735C63.4904 36.8779 63.2915 36.1835 63.2915 35.2886C63.2915 34.3938 63.4919 33.7072 63.8927 33.2085C64.2935 32.7098 64.8528 32.4612 65.5705 32.4612C66.0723 32.4612 66.5477 32.5746 66.9966 32.8015V33.4135C66.7589 33.2955 66.5399 33.2116 66.3379 33.1619C66.136 33.1122 65.9216 33.0889 65.6948 33.0889C64.6306 33.0889 64.0993 33.8221 64.0993 35.2902C64.0993 36.7583 64.6306 37.4915 65.6948 37.4915C65.9278 37.4915 66.1484 37.4651 66.3566 37.4138C66.5663 37.3626 66.7869 37.2802 67.0184 37.1653V37.7774Z" fill="white"/>
<path d="M70.4038 38.0166L70.3572 37.7448C69.9237 37.9933 69.5027 38.116 69.0941 38.116C68.6856 38.116 68.3624 38.0057 68.1216 37.7867C67.8809 37.5677 67.7612 37.2709 67.7612 36.8996C67.7612 36.5284 67.8948 36.2114 68.1636 35.9971C68.4323 35.7827 68.8099 35.6755 69.2945 35.6755C69.5788 35.6755 69.9066 35.7097 70.2779 35.7765V35.3663C70.2779 35.082 70.1971 34.8708 70.034 34.7309C69.8709 34.5911 69.6223 34.5212 69.2868 34.5212C68.8937 34.5212 68.465 34.6113 68.0005 34.7931V34.2276C68.218 34.1406 68.4525 34.0707 68.7058 34.0225C68.959 33.9728 69.1982 33.9495 69.4266 33.9495C69.9377 33.9495 70.3261 34.0691 70.5933 34.3053C70.8589 34.543 70.9925 34.891 70.9925 35.3508V37.9545L70.4038 38.0166ZM69.2806 37.5521C69.4297 37.5521 69.5975 37.5257 69.7839 37.4744C69.9703 37.4232 70.135 37.3564 70.2795 37.2725V36.2813C70.0371 36.2192 69.7497 36.1881 69.4188 36.1881C69.1081 36.1881 68.8798 36.2456 68.7337 36.3621C68.5861 36.4786 68.5131 36.6526 68.5131 36.8857C68.5131 37.33 68.7695 37.5521 69.2806 37.5521Z" fill="white"/>
<path d="M72.125 39.7534V34.1126L72.7138 34.0505L72.7604 34.3223C73.169 34.0738 73.5636 33.951 73.9457 33.951C74.4522 33.951 74.8483 34.1313 75.1357 34.4901C75.4231 34.849 75.566 35.3446 75.566 35.9737C75.566 36.6557 75.3983 37.1839 75.0627 37.5583C74.7271 37.9327 74.2549 38.1207 73.6443 38.1207C73.3507 38.1207 73.0866 38.085 72.8536 38.0119V39.6695L72.125 39.755V39.7534ZM73.7748 34.5227C73.635 34.5227 73.4812 34.5476 73.3134 34.5958C73.1457 34.6455 72.9919 34.7107 72.852 34.7931V37.4589C73.0695 37.521 73.2995 37.5521 73.5418 37.5521C73.9659 37.5521 74.2813 37.4232 74.491 37.1653C74.7007 36.9074 74.8048 36.5143 74.8048 35.9877C74.8048 35.5077 74.7178 35.1426 74.5454 34.8956C74.3714 34.647 74.1151 34.5243 73.7748 34.5243V34.5227Z" fill="white"/>
<path d="M76.8736 33.2597C76.7245 33.2597 76.6064 33.2194 76.5209 33.1401C76.4355 33.0593 76.3936 32.9506 76.3936 32.8108C76.3936 32.671 76.4355 32.5622 76.5209 32.4814C76.6064 32.4007 76.7229 32.3618 76.8736 32.3618C77.0243 32.3618 77.1408 32.4022 77.2262 32.4814C77.3117 32.5622 77.3536 32.671 77.3536 32.8108C77.3536 32.9506 77.3117 33.0593 77.2262 33.1401C77.1408 33.2209 77.0227 33.2597 76.8736 33.2597ZM76.5101 38.0011V34.1266L77.2387 34.0412V38.0011H76.5101Z" fill="white"/>
<path d="M79.3067 34.5926V36.8545C79.3067 37.0876 79.358 37.2585 79.4621 37.3703C79.5662 37.4822 79.7231 37.5365 79.9343 37.5365C80.0944 37.5365 80.2652 37.5086 80.4455 37.4511V37.97C80.228 38.0523 80.0043 38.0943 79.7712 38.0943C79.3782 38.0943 79.0815 37.9902 78.8795 37.7835C78.6776 37.5769 78.5766 37.2755 78.5766 36.8763V34.5911H77.9878V34.0955L78.6076 34.0722L78.662 33.0888L79.3052 33.0189V34.0644H80.4051V34.5911H79.3052L79.3067 34.5926Z" fill="white"/>
<path d="M83.6455 38.0166L83.5989 37.7448C83.1654 37.9933 82.7444 38.116 82.3358 38.116C81.9273 38.116 81.6041 38.0057 81.3633 37.7867C81.1226 37.5677 81.0029 37.2709 81.0029 36.8996C81.0029 36.5284 81.1365 36.2114 81.4053 35.9971C81.6741 35.7827 82.0516 35.6755 82.5362 35.6755C82.8205 35.6755 83.1483 35.7097 83.5196 35.7765V35.3663C83.5196 35.082 83.4388 34.8708 83.2757 34.7309C83.1126 34.5911 82.864 34.5212 82.5285 34.5212C82.1354 34.5212 81.7067 34.6113 81.2422 34.7931V34.2276C81.4597 34.1406 81.6942 34.0707 81.9475 34.0225C82.2007 33.9728 82.4399 33.9495 82.6683 33.9495C83.1794 33.9495 83.5678 34.0691 83.835 34.3053C84.1006 34.543 84.2342 34.891 84.2342 35.3508V37.9545L83.6455 38.0166ZM82.5223 37.5521C82.6714 37.5521 82.8392 37.5257 83.0256 37.4744C83.212 37.4232 83.3767 37.3564 83.5212 37.2725V36.2813C83.2788 36.2192 82.9914 36.1881 82.6605 36.1881C82.3498 36.1881 82.1215 36.2456 81.9754 36.3621C81.8278 36.4786 81.7548 36.6526 81.7548 36.8857C81.7548 37.33 82.0112 37.5521 82.5223 37.5521Z" fill="white"/>
<path d="M85.3657 38.001V32.1816L86.0943 32.0961V38.001H85.3657Z" fill="white"/>
<path d="M89.0552 35.2902C89.0552 34.3752 89.2525 33.6761 89.6486 33.1898C90.0432 32.7036 90.6134 32.4612 91.3575 32.4612C92.1016 32.4612 92.6702 32.7036 93.0664 33.1898C93.4609 33.6761 93.6598 34.3752 93.6598 35.2902C93.6598 36.2052 93.4625 36.9043 93.0664 37.3905C92.6718 37.8768 92.1016 38.1191 91.3575 38.1191C90.6134 38.1191 90.0432 37.8768 89.6486 37.3905C89.254 36.9058 89.0552 36.2052 89.0552 35.2902ZM89.8521 35.2902C89.8521 36.0343 89.9749 36.5874 90.2203 36.9525C90.4658 37.316 90.8448 37.4993 91.3559 37.4993C91.867 37.4993 92.2461 37.3175 92.4915 36.9525C92.737 36.5889 92.8597 36.0343 92.8597 35.2902C92.8597 34.5461 92.737 33.993 92.4915 33.6279C92.2461 33.2644 91.867 33.0811 91.3559 33.0811C90.8448 33.0811 90.4658 33.2629 90.2203 33.6279C89.9749 33.9915 89.8521 34.5461 89.8521 35.2902Z" fill="white"/>
<path d="M97.1985 38.0011V35.3508C97.1985 34.7977 96.9251 34.5212 96.3767 34.5212C96.2322 34.5212 96.0707 34.546 95.892 34.5942C95.7134 34.6439 95.5518 34.7092 95.4073 34.7915V37.9995H94.6787V34.1095L95.2675 34.0474L95.3141 34.3192C95.7382 34.0707 96.1592 33.9479 96.5771 33.9479C96.995 33.9479 97.3383 34.0598 97.5729 34.285C97.8075 34.5103 97.9255 34.8288 97.9255 35.242V38.0011H97.197H97.1985Z" fill="white"/>
<path d="M101.987 37.8551C101.631 38.0306 101.232 38.1192 100.793 38.1192C100.153 38.1192 99.6641 37.9405 99.3285 37.5847C98.993 37.229 98.8252 36.707 98.8252 36.0188C98.8252 35.5947 98.8998 35.2265 99.0505 34.9143C99.1996 34.602 99.4093 34.3628 99.6781 34.1981C99.9468 34.0334 100.254 33.9495 100.601 33.9495C101.086 33.9495 101.469 34.094 101.747 34.383C102.025 34.6719 102.165 35.0727 102.165 35.5838C102.165 35.7858 102.147 35.9846 102.111 36.1804H99.546C99.5616 37.0954 100.006 37.5521 100.879 37.5521C101.256 37.5521 101.625 37.4698 101.987 37.3036V37.8535V37.8551ZM100.599 34.4839C100.299 34.4839 100.056 34.5896 99.8676 34.8008C99.6796 35.0121 99.5724 35.2995 99.546 35.6615H101.491C101.496 35.6351 101.499 35.6102 101.499 35.5838V35.5061C101.499 35.1861 101.42 34.936 101.263 34.7542C101.106 34.574 100.884 34.4824 100.601 34.4824L100.599 34.4839Z" fill="white"/>
<path d="M102.715 39.2641C102.87 39.0683 102.995 38.8617 103.091 38.6442C103.187 38.4267 103.24 38.2201 103.249 38.0244C103.145 37.998 103.066 37.9436 103.009 37.8612C102.951 37.7789 102.923 37.681 102.923 37.5661C102.923 37.4263 102.967 37.3129 103.055 37.2259C103.144 37.1389 103.257 37.0938 103.395 37.0938C103.534 37.0938 103.655 37.1466 103.74 37.2523C103.826 37.3579 103.868 37.5008 103.868 37.6826C103.868 37.9669 103.776 38.2745 103.593 38.6054C103.409 38.9363 103.186 39.1988 102.923 39.3961L102.713 39.2641H102.715Z" fill="white"/>
<path d="M110.247 38.0011L107.62 33.8252V38.0011H106.899V32.5778H107.589L110.216 36.7536V32.5778H110.937V38.0011H110.247Z" fill="white"/>
<path d="M112.501 38.0399C112.361 38.0399 112.248 37.9964 112.161 37.9079C112.072 37.8209 112.029 37.7059 112.029 37.5677C112.029 37.4294 112.072 37.3144 112.161 37.2274C112.249 37.1404 112.363 37.0954 112.501 37.0954C112.639 37.0954 112.754 37.1389 112.843 37.2274C112.93 37.316 112.975 37.4294 112.975 37.5677C112.975 37.7059 112.931 37.8209 112.843 37.9079C112.754 37.9964 112.641 38.0399 112.501 38.0399Z" fill="white"/>
<path d="M117.553 38.0011L117.104 36.6604H114.879L114.438 38.0011H113.663L115.545 32.5778H116.437L118.32 38.0011H117.553ZM115.065 36.0871H116.909L115.979 33.2893L115.064 36.0871H115.065Z" fill="white"/>
<path d="M119.482 38.0399C119.342 38.0399 119.229 37.9964 119.142 37.9079C119.053 37.8209 119.01 37.7059 119.01 37.5677C119.01 37.4294 119.053 37.3144 119.142 37.2274C119.23 37.1404 119.344 37.0954 119.482 37.0954C119.62 37.0954 119.735 37.1389 119.824 37.2274C119.911 37.316 119.956 37.4294 119.956 37.5677C119.956 37.7059 119.912 37.8209 119.824 37.9079C119.735 37.9964 119.622 38.0399 119.482 38.0399Z" fill="white"/>
<path d="M120.553 39.2641C120.708 39.0683 120.832 38.8617 120.929 38.6442C121.025 38.4267 121.078 38.2201 121.087 38.0244C120.983 37.998 120.904 37.9436 120.846 37.8612C120.789 37.7789 120.761 37.681 120.761 37.5661C120.761 37.4263 120.804 37.3129 120.893 37.2259C120.982 37.1389 121.095 37.0938 121.233 37.0938C121.372 37.0938 121.493 37.1466 121.578 37.2523C121.664 37.3579 121.706 37.5008 121.706 37.6826C121.706 37.9669 121.614 38.2745 121.431 38.6054C121.247 38.9363 121.024 39.1988 120.761 39.3961L120.551 39.2641H120.553Z" fill="white"/>
<path d="M127.083 37.5288L125.572 33.6388L125.277 38.0011H124.563L124.989 32.5778H125.834L127.392 36.592L128.951 32.5778H129.796L130.221 38.0011H129.501L129.198 33.6388L127.694 37.5288H127.082H127.083Z" fill="white"/>
<path d="M134.259 37.8551C133.903 38.0306 133.504 38.1192 133.066 38.1192C132.426 38.1192 131.937 37.9405 131.601 37.5847C131.265 37.229 131.098 36.707 131.098 36.0188C131.098 35.5947 131.172 35.2265 131.323 34.9143C131.472 34.602 131.682 34.3628 131.951 34.1981C132.219 34.0334 132.527 33.9495 132.873 33.9495C133.358 33.9495 133.742 34.094 134.02 34.383C134.298 34.6719 134.438 35.0727 134.438 35.5838C134.438 35.7858 134.419 35.9846 134.383 36.1804H131.818C131.834 37.0954 132.278 37.5521 133.151 37.5521C133.529 37.5521 133.897 37.4698 134.259 37.3036V37.8535V37.8551ZM132.872 34.4839C132.572 34.4839 132.328 34.5896 132.14 34.8008C131.952 35.0121 131.845 35.2995 131.818 35.6615H133.763C133.768 35.6351 133.771 35.6102 133.771 35.5838V35.5061C133.771 35.1861 133.692 34.936 133.535 34.7542C133.378 34.574 133.156 34.4824 132.873 34.4824L132.872 34.4839Z" fill="white"/>
<path d="M140.033 38.0011V35.2653C140.033 34.7697 139.792 34.5212 139.312 34.5212C139.023 34.5212 138.718 34.6175 138.397 34.8086C138.423 34.922 138.436 35.0354 138.436 35.1488V37.9995H137.707V35.2638C137.707 34.7682 137.466 34.5196 136.986 34.5196C136.702 34.5196 136.41 34.6097 136.11 34.7915V37.9995H135.381V34.1095L135.97 34.0474L136.017 34.3192C136.414 34.0707 136.804 33.9479 137.187 33.9479C137.631 33.9479 137.966 34.0909 138.193 34.3736C138.658 34.0893 139.097 33.9479 139.511 33.9479C139.897 33.9479 140.203 34.0536 140.426 34.2664C140.648 34.4777 140.758 34.7729 140.758 35.1504V38.0011H140.029H140.033Z" fill="white"/>
<path d="M142.62 34.2586C143.007 34.052 143.372 33.9479 143.712 33.9479C144.219 33.9479 144.615 34.1281 144.902 34.487C145.19 34.8459 145.333 35.3414 145.333 35.9706C145.333 36.6635 145.157 37.1932 144.806 37.5629C144.455 37.9327 143.953 38.1176 143.302 38.1176C142.838 38.1176 142.367 38.0507 141.892 37.9156V32.1816L142.62 32.0961V34.2586ZM143.541 34.5227C143.402 34.5227 143.248 34.5476 143.08 34.5957C142.912 34.6454 142.758 34.7107 142.619 34.793V37.4589C142.836 37.521 143.066 37.5521 143.308 37.5521C143.733 37.5521 144.048 37.4231 144.258 37.1652C144.467 36.9074 144.571 36.5143 144.571 35.9877C144.571 35.5076 144.484 35.1426 144.312 34.8956C144.138 34.647 143.882 34.5243 143.541 34.5243V34.5227Z" fill="white"/>
<path d="M149.205 37.8551C148.85 38.0306 148.45 38.1192 148.012 38.1192C147.372 38.1192 146.883 37.9405 146.547 37.5847C146.212 37.229 146.044 36.707 146.044 36.0188C146.044 35.5947 146.119 35.2265 146.269 34.9143C146.418 34.602 146.628 34.3628 146.897 34.1981C147.166 34.0334 147.473 33.9495 147.82 33.9495C148.304 33.9495 148.688 34.094 148.966 34.383C149.244 34.6719 149.384 35.0727 149.384 35.5838C149.384 35.7858 149.365 35.9846 149.33 36.1804H146.765C146.78 37.0954 147.225 37.5521 148.098 37.5521C148.475 37.5521 148.843 37.4698 149.205 37.3036V37.8535V37.8551ZM147.82 34.4839C147.52 34.4839 147.276 34.5896 147.088 34.8008C146.9 35.0121 146.793 35.2995 146.766 35.6615H148.711C148.716 35.6351 148.719 35.6102 148.719 35.5838V35.5061C148.719 35.1861 148.64 34.936 148.483 34.7542C148.326 34.574 148.104 34.4824 147.821 34.4824L147.82 34.4839Z" fill="white"/>
<path d="M150.331 38.0011V34.1111L150.919 34.0489L150.981 34.4047C151.322 34.1157 151.687 33.9713 152.074 33.9713C152.192 33.9713 152.311 33.9899 152.429 34.0256V34.6222C152.305 34.5911 152.179 34.5756 152.05 34.5756C151.679 34.5756 151.348 34.6921 151.059 34.9236V37.9995H150.331V38.0011Z" fill="white"/>
<path d="M155.196 38.0011V32.5778H158.49V33.1976H155.948V35.0572H158.163V35.677H155.948V38.0011H155.196Z" fill="white"/>
<path d="M159.364 38.0011V32.6927C159.932 32.5793 160.451 32.5219 160.922 32.5219C161.753 32.5219 162.395 32.7611 162.847 33.238C163.299 33.7165 163.524 34.3892 163.524 35.256C163.524 36.1229 163.297 36.8235 162.842 37.2942C162.387 37.765 161.731 37.9995 160.874 37.9995H159.362L159.364 38.0011ZM160.875 37.3812C161.495 37.3812 161.958 37.2072 162.266 36.8577C162.573 36.5082 162.727 35.9815 162.727 35.2731C162.727 34.5647 162.578 34.0148 162.278 33.6652C161.978 33.3172 161.522 33.1417 160.907 33.1417C160.658 33.1417 160.395 33.165 160.116 33.2116V37.3797H160.875V37.3812Z" fill="white"/>
<path d="M164.649 38.0011V32.5778H165.401V38.0011H164.649Z" fill="white"/>
<path d="M170.251 37.7774C169.812 38.0042 169.328 38.1176 168.802 38.1176C168.078 38.1176 167.519 37.869 167.121 37.3735C166.723 36.8779 166.524 36.1835 166.524 35.2886C166.524 34.3938 166.725 33.7072 167.126 33.2085C167.526 32.7098 168.086 32.4612 168.803 32.4612C169.305 32.4612 169.781 32.5746 170.23 32.8015V33.4135C169.992 33.2955 169.773 33.2116 169.571 33.1619C169.369 33.1122 169.155 33.0889 168.928 33.0889C167.864 33.0889 167.332 33.8221 167.332 35.2902C167.332 36.7583 167.864 37.4915 168.928 37.4915C169.161 37.4915 169.381 37.4651 169.589 37.4138C169.799 37.3626 170.02 37.2802 170.251 37.1653V37.7774Z" fill="white"/>
</svg>
