<svg width="242" height="41" viewBox="0 0 242 41" fill="none" xmlns="http://www.w3.org/2000/svg">
<path d="M5.52026 12.6605C5.52026 11.4941 5.77938 10.6088 6.30363 10.0047C6.82789 9.3946 7.58716 9.09552 8.58144 9.09552C9.57571 9.09552 10.335 9.40058 10.8592 10.0047C11.3835 10.6148 11.6426 11.5001 11.6426 12.6605C11.6426 13.8209 11.3835 14.7122 10.8592 15.3163C10.335 15.9264 9.57571 16.2255 8.58144 16.2255C7.58716 16.2255 6.82789 15.9205 6.30363 15.3163C5.77938 14.7062 5.52026 13.8209 5.52026 12.6605ZM7.00264 12.6605C7.00264 13.5099 7.12919 14.138 7.3883 14.5327C7.64139 14.9275 8.04513 15.1249 8.58746 15.1249C9.1298 15.1249 9.52751 14.9275 9.78662 14.5327C10.0457 14.138 10.1723 13.5099 10.1723 12.6605C10.1723 11.8111 10.0457 11.1831 9.78662 10.7883C9.53353 10.3935 9.1298 10.1961 8.58746 10.1961C8.04513 10.1961 7.64139 10.3935 7.3883 10.7883C7.13521 11.1831 7.00264 11.8111 7.00264 12.6605Z" fill="white"/>
<path d="M16.5236 16.0701V11.9966H14.4025V16.0701H13.0768V11.9966H12.3296V11.1173L13.0768 11.0874V10.2859C13.0768 9.73562 13.2275 9.29896 13.5348 8.98194C13.8421 8.66492 14.2579 8.5094 14.7942 8.5094C15.1437 8.5094 15.4631 8.56323 15.7583 8.67688V9.57411C15.5233 9.5143 15.3185 9.48439 15.1377 9.48439C14.9027 9.48439 14.7219 9.55019 14.5953 9.6758C14.4688 9.80141 14.4025 9.98684 14.4025 10.2381V11.0635H16.5236V10.2859C16.5236 9.73562 16.6743 9.29896 16.9816 8.98194C17.2829 8.66492 17.7047 8.5094 18.241 8.5094C18.5242 8.5094 18.8135 8.55725 19.1027 8.65894V9.55617C18.922 9.50832 18.7472 9.49037 18.5845 9.49037C18.3495 9.49037 18.1687 9.55617 18.0361 9.68178C17.9036 9.80739 17.8433 9.99282 17.8433 10.244V11.0695H19.0425V11.9966H17.8433V16.0701H16.5176H16.5236ZM20.6273 10.2799C20.3802 10.2799 20.1874 10.2141 20.0488 10.0825C19.9102 9.95095 19.8439 9.7715 19.8439 9.54421C19.8439 9.31691 19.9102 9.13746 20.0488 9.00587C20.1874 8.87427 20.3802 8.80848 20.6273 8.80848C20.8744 8.80848 21.0732 8.87427 21.2118 9.00587C21.3504 9.13746 21.4227 9.31691 21.4227 9.54421C21.4227 9.7715 21.3504 9.95095 21.2118 10.0825C21.0732 10.2141 20.8744 10.2799 20.6273 10.2799ZM19.9705 16.0701V11.1652L21.2962 11.0396V16.0701H19.9705Z" fill="white"/>
<path d="M26.2914 15.8846C25.7913 16.1119 25.273 16.2255 24.7307 16.2255C23.9594 16.2255 23.3628 15.9982 22.947 15.5437C22.5312 15.0891 22.3203 14.4371 22.3203 13.5817C22.3203 12.7263 22.5252 12.0624 22.947 11.6018C23.3628 11.1412 23.9594 10.908 24.7367 10.908C25.2429 10.908 25.7491 11.0216 26.2613 11.2489V12.2119C25.7912 12.0205 25.3694 11.9308 25.0019 11.9308C24.1401 11.9308 23.7063 12.4751 23.7063 13.5578C23.7063 14.0961 23.8147 14.5029 24.0377 14.784C24.2607 15.0651 24.58 15.1967 25.0079 15.1967C25.3755 15.1967 25.8033 15.101 26.2974 14.9156V15.8786L26.2914 15.8846Z" fill="white"/>
<path d="M27.9369 10.28C27.6899 10.28 27.497 10.2142 27.3584 10.0826C27.2198 9.95101 27.1536 9.77156 27.1536 9.54426C27.1536 9.31696 27.2198 9.13752 27.3584 9.00592C27.497 8.87433 27.6899 8.80853 27.9369 8.80853C28.184 8.80853 28.3829 8.87433 28.5214 9.00592C28.66 9.13752 28.7324 9.31696 28.7324 9.54426C28.7324 9.77156 28.66 9.95101 28.5214 10.0826C28.3829 10.2142 28.184 10.28 27.9369 10.28ZM27.2801 16.0701V11.1653L28.6058 11.0396V16.0701H27.2801Z" fill="white"/>
<path d="M32.9503 16.0999L32.872 15.7769C32.3598 16.076 31.8476 16.2255 31.3414 16.2255C30.8352 16.2255 30.4014 16.082 30.088 15.7949C29.7747 15.5078 29.624 15.1249 29.624 14.6345C29.624 14.144 29.7988 13.7432 30.1423 13.4621C30.4857 13.1809 30.9678 13.0434 31.5885 13.0434C31.9561 13.0434 32.3297 13.0793 32.7093 13.151V12.7622C32.7093 12.4632 32.6189 12.2418 32.4442 12.1043C32.2694 11.9667 31.9922 11.8949 31.6186 11.8949C31.1185 11.8949 30.5701 12.0086 29.9675 12.2239V11.2669C30.2507 11.1592 30.558 11.0695 30.9015 11.0037C31.239 10.9379 31.5644 10.908 31.8657 10.908C32.5587 10.908 33.0889 11.0635 33.4625 11.3745C33.8301 11.6856 34.0169 12.1342 34.0169 12.7204V15.9863L32.9564 16.094L32.9503 16.0999ZM31.7452 15.2805C31.8898 15.2805 32.0464 15.2565 32.2212 15.2147C32.396 15.1668 32.5587 15.113 32.7093 15.0412V13.9765C32.408 13.9047 32.1368 13.8688 31.8958 13.8688C31.2691 13.8688 30.9497 14.1081 30.9497 14.5926C30.9497 14.8199 31.016 14.9933 31.1486 15.107C31.2812 15.2266 31.48 15.2805 31.7452 15.2805Z" fill="white"/>
<path d="M35.2405 16.0701V8.7367L36.5662 8.61108V16.0701H35.2405Z" fill="white"/>
<path d="M40.4163 16.0703V9.38294C40.7356 9.31714 41.1153 9.26331 41.5491 9.22742C41.983 9.19153 42.3687 9.1676 42.7061 9.1676C43.5256 9.1676 44.1463 9.31714 44.5742 9.62818C45.002 9.93324 45.2129 10.3759 45.2129 10.9621C45.2129 11.6858 44.8272 12.1883 44.0559 12.4814C44.532 12.601 44.8996 12.8044 45.1466 13.0975C45.3937 13.3906 45.5202 13.7554 45.5202 14.1921C45.5202 14.7962 45.3033 15.2628 44.8694 15.5858C44.4356 15.9088 43.8209 16.0763 43.0134 16.0763H40.4223L40.4163 16.0703ZM42.6459 10.1904C42.2421 10.1904 41.9348 10.2144 41.7239 10.2562V12.0866H42.8025C43.146 12.0866 43.4111 12.0029 43.61 11.8354C43.8089 11.6679 43.9053 11.4346 43.9053 11.1355C43.9053 10.8185 43.8028 10.5792 43.5979 10.4237C43.3931 10.2682 43.0737 10.1904 42.6519 10.1904H42.6459ZM42.9592 15.0475C43.7426 15.0475 44.1403 14.7245 44.1403 14.0725C44.1403 13.7554 44.0378 13.5102 43.833 13.3367C43.6281 13.1633 43.3328 13.0795 42.9532 13.0795H41.7239V15.0475H42.9592Z" fill="white"/>
<path d="M49.5819 16.0999L49.5036 15.7769C48.9914 16.076 48.4792 16.2255 47.973 16.2255C47.4668 16.2255 47.033 16.082 46.7196 15.7949C46.4063 15.5078 46.2556 15.1249 46.2556 14.6345C46.2556 14.144 46.4304 13.7432 46.7738 13.4621C47.1173 13.1809 47.5994 13.0434 48.2201 13.0434C48.5877 13.0434 48.9613 13.0793 49.3409 13.151V12.7622C49.3409 12.4632 49.2505 12.2418 49.0758 12.1043C48.901 11.9667 48.6238 11.8949 48.2502 11.8949C47.75 11.8949 47.2017 12.0086 46.5991 12.2239V11.2669C46.8823 11.1592 47.1896 11.0695 47.5331 11.0037C47.8706 10.9379 48.196 10.908 48.4973 10.908C49.1902 10.908 49.7205 11.0635 50.0941 11.3745C50.4617 11.6856 50.6485 12.1342 50.6485 12.7204V15.9863L49.588 16.094L49.5819 16.0999ZM48.3767 15.2805C48.5214 15.2805 48.678 15.2565 48.8528 15.2147C49.0275 15.1668 49.1902 15.113 49.3409 15.0412V13.9765C49.0396 13.9047 48.7684 13.8688 48.5274 13.8688C47.9007 13.8688 47.5813 14.1081 47.5813 14.5926C47.5813 14.8199 47.6476 14.9933 47.7802 15.107C47.9127 15.2266 48.1116 15.2805 48.3767 15.2805Z" fill="white"/>
<path d="M54.9568 16.07V12.7862C54.9568 12.4931 54.8905 12.2777 54.7579 12.1402C54.6254 12.0026 54.4205 11.9308 54.1373 11.9308C53.9806 11.9308 53.8179 11.9547 53.6431 12.0026C53.4744 12.0504 53.3238 12.1162 53.1912 12.194V16.076H51.8655V11.1532L52.926 11.0455L53.0044 11.3685C53.5166 11.0695 54.0167 10.9199 54.5169 10.9199C55.0773 10.9199 55.5112 11.0695 55.8185 11.3626C56.1258 11.6557 56.2765 12.0744 56.2765 12.6127V16.076H54.9508L54.9568 16.07Z" fill="white"/>
<path d="M57.5181 16.0701V8.7367L58.8438 8.61108V13.1331L60.5853 11.0635H62.0797L60.1514 13.3066L62.2243 16.0641H60.6214L58.8438 13.6774V16.0641H57.5181V16.0701Z" fill="white"/>
<path d="M68.3888 16.0999L68.3105 15.7769C67.7983 16.076 67.2861 16.2255 66.7799 16.2255C66.2737 16.2255 65.8398 16.082 65.5265 15.7949C65.2132 15.5078 65.0625 15.1249 65.0625 14.6345C65.0625 14.144 65.2373 13.7432 65.5807 13.4621C65.9242 13.1809 66.4063 13.0434 67.027 13.0434C67.3945 13.0434 67.7681 13.0793 68.1478 13.151V12.7622C68.1478 12.4632 68.0574 12.2418 67.8826 12.1043C67.7079 11.9667 67.4307 11.8949 67.0571 11.8949C66.5569 11.8949 66.0086 12.0086 65.406 12.2239V11.2669C65.6892 11.1592 65.9965 11.0695 66.34 11.0037C66.6775 10.9379 67.0029 10.908 67.3041 10.908C67.9971 10.908 68.5274 11.0635 68.901 11.3745C69.2686 11.6856 69.4554 12.1342 69.4554 12.7204V15.9863L68.3948 16.094L68.3888 16.0999ZM67.1836 15.2805C67.3283 15.2805 67.4849 15.2565 67.6597 15.2147C67.8344 15.1668 67.9971 15.113 68.1478 15.0412V13.9765C67.8465 13.9047 67.5753 13.8688 67.3343 13.8688C66.7076 13.8688 66.3882 14.1081 66.3882 14.5926C66.3882 14.8199 66.4545 14.9933 66.5871 15.107C66.7196 15.2266 66.9185 15.2805 67.1836 15.2805Z" fill="white"/>
<path d="M73.7642 16.07V12.7862C73.7642 12.4931 73.6979 12.2777 73.5653 12.1402C73.4327 12.0026 73.2278 11.9308 72.9446 11.9308C72.788 11.9308 72.6253 11.9547 72.4505 12.0026C72.2818 12.0504 72.1311 12.1162 71.9986 12.194V16.076H70.6729V11.1532L71.7334 11.0455L71.8118 11.3685C72.324 11.0695 72.8241 10.9199 73.3243 10.9199C73.8847 10.9199 74.3185 11.0695 74.6259 11.3626C74.9332 11.6557 75.0838 12.0744 75.0838 12.6127V16.076H73.7581L73.7642 16.07Z" fill="white"/>
<path d="M80.7358 8.61108V15.9923L79.6752 16.1L79.5969 15.777C79.3618 15.9145 79.1148 16.0222 78.8496 16.1059C78.5845 16.1897 78.3495 16.2256 78.1326 16.2256C77.4878 16.2256 76.9876 15.9983 76.6261 15.5437C76.2645 15.0891 76.0837 14.455 76.0837 13.6535C76.0837 12.7802 76.3007 12.1103 76.7285 11.6318C77.1564 11.1532 77.7589 10.914 78.5423 10.914C78.8255 10.914 79.1148 10.9499 79.4161 11.0216V8.74268L80.7418 8.61707L80.7358 8.61108ZM78.5062 15.2147C78.6448 15.2147 78.7954 15.1908 78.9641 15.1429C79.1329 15.0951 79.2775 15.0293 79.4101 14.9515V11.9607C79.2052 11.9129 78.9882 11.8949 78.7593 11.8949C78.3194 11.8949 77.994 12.0385 77.7831 12.3196C77.5721 12.6008 77.4637 13.0374 77.4637 13.6296C77.4637 14.6883 77.8132 15.2207 78.5062 15.2207V15.2147Z" fill="white"/>
<path d="M89.2565 15.7769C88.666 16.076 88.0272 16.2255 87.3282 16.2255C86.3641 16.2255 85.6229 15.9145 85.0926 15.2984C84.5623 14.6823 84.3032 13.803 84.3032 12.6545C84.3032 11.5061 84.5684 10.6567 85.0986 10.0286C85.6289 9.40058 86.3701 9.08954 87.3282 9.08954C88.0031 9.08954 88.6298 9.23908 89.2144 9.53815V10.6208C88.901 10.4713 88.6238 10.3636 88.3767 10.3038C88.1357 10.244 87.8645 10.2141 87.5693 10.2141C86.9848 10.2141 86.5449 10.4174 86.2496 10.8302C85.9543 11.2429 85.8037 11.853 85.8037 12.6605C85.8037 14.2935 86.3942 15.107 87.5693 15.107C87.8525 15.107 88.1237 15.0771 88.3767 15.0113C88.6359 14.9455 88.9251 14.8438 89.2445 14.7002V15.7829L89.2565 15.7769Z" fill="white"/>
<path d="M90.3054 16.0701V11.1473L91.366 11.0397L91.4745 11.5003C91.8842 11.1294 92.3422 10.944 92.8423 10.944C92.999 10.944 93.1617 10.9679 93.3365 11.0098V12.0924C93.1376 12.0446 92.9689 12.0266 92.8182 12.0266C92.3663 12.0266 91.9746 12.1522 91.6372 12.3975V16.0761H90.3115L90.3054 16.0701Z" fill="white"/>
<path d="M98.151 15.8726C97.6749 16.1059 97.1446 16.2255 96.5601 16.2255C95.6984 16.2255 95.0356 15.9982 94.5776 15.5437C94.1196 15.0891 93.8906 14.4251 93.8906 13.5518C93.8906 13.0194 93.9931 12.5529 94.198 12.1521C94.4028 11.7514 94.6861 11.4463 95.0476 11.231C95.4092 11.0156 95.8189 10.908 96.2829 10.908C96.9397 10.908 97.4519 11.0934 97.8256 11.4702C98.1992 11.8471 98.386 12.3555 98.386 13.0075C98.386 13.3125 98.3558 13.6116 98.2956 13.9047H95.1922C95.2163 14.3593 95.361 14.6943 95.614 14.9156C95.8671 15.1369 96.2407 15.2446 96.7228 15.2446C97.2049 15.2446 97.693 15.1369 98.1449 14.9216V15.8786L98.151 15.8726ZM96.2829 11.8291C95.9756 11.8291 95.7225 11.9368 95.5297 12.1461C95.3368 12.3555 95.2163 12.6426 95.1862 13.0075H97.1687V12.8639C97.1687 12.523 97.0904 12.2658 96.9398 12.0923C96.7891 11.9188 96.5722 11.8291 96.2829 11.8291Z" fill="white"/>
<path d="M103.827 8.61108V15.9923L102.767 16.1L102.688 15.777C102.453 15.9145 102.206 16.0222 101.941 16.1059C101.676 16.1897 101.441 16.2256 101.224 16.2256C100.579 16.2256 100.079 15.9983 99.7176 15.5437C99.3561 15.0891 99.1753 14.455 99.1753 13.6535C99.1753 12.7802 99.3922 12.1103 99.8201 11.6318C100.248 11.1532 100.851 10.914 101.634 10.914C101.917 10.914 102.206 10.9499 102.508 11.0216V8.74268L103.833 8.61707L103.827 8.61108ZM101.598 15.2147C101.736 15.2147 101.887 15.1908 102.056 15.1429C102.224 15.0951 102.369 15.0293 102.502 14.9515V11.9607C102.297 11.9129 102.08 11.8949 101.851 11.8949C101.411 11.8949 101.086 12.0385 100.875 12.3196C100.664 12.6008 100.555 13.0374 100.555 13.6296C100.555 14.6883 100.905 15.2207 101.598 15.2207V15.2147Z" fill="white"/>
<path d="M105.761 10.28C105.514 10.28 105.322 10.2142 105.183 10.0826C105.044 9.95101 104.978 9.77156 104.978 9.54426C104.978 9.31696 105.044 9.13752 105.183 9.00592C105.322 8.87433 105.514 8.80853 105.761 8.80853C106.008 8.80853 106.207 8.87433 106.346 9.00592C106.485 9.13752 106.557 9.31696 106.557 9.54426C106.557 9.77156 106.485 9.95101 106.346 10.0826C106.207 10.2142 106.008 10.28 105.761 10.28ZM105.105 16.0701V11.1653L106.43 11.0396V16.0701H105.105Z" fill="white"/>
<path d="M109.347 11.9966V14.5028C109.347 14.9873 109.582 15.2326 110.046 15.2326C110.215 15.2326 110.425 15.1967 110.673 15.1249V16.0102C110.383 16.1418 110.052 16.2076 109.678 16.2076C109.136 16.2076 108.72 16.07 108.443 15.7889C108.16 15.5077 108.021 15.101 108.021 14.5686V11.9966H107.274V11.1173L108.087 11.0874L108.178 9.83124L109.347 9.70563V11.0694H110.642V11.9966H109.347Z" fill="white"/>
<path d="M118.808 15.7769C118.218 16.076 117.579 16.2255 116.88 16.2255C115.916 16.2255 115.174 15.9145 114.644 15.2984C114.114 14.6823 113.855 13.803 113.855 12.6545C113.855 11.5061 114.12 10.6567 114.65 10.0286C115.18 9.40058 115.922 9.08954 116.88 9.08954C117.555 9.08954 118.181 9.23908 118.766 9.53815V10.6208C118.453 10.4713 118.175 10.3636 117.928 10.3038C117.687 10.244 117.416 10.2141 117.121 10.2141C116.536 10.2141 116.096 10.4174 115.801 10.8302C115.506 11.2429 115.355 11.853 115.355 12.6605C115.355 14.2935 115.946 15.107 117.121 15.107C117.404 15.107 117.675 15.0771 117.928 15.0113C118.187 14.9455 118.477 14.8438 118.796 14.7002V15.7829L118.808 15.7769Z" fill="white"/>
<path d="M122.936 16.0999L122.857 15.7769C122.345 16.076 121.833 16.2255 121.327 16.2255C120.821 16.2255 120.387 16.082 120.073 15.7949C119.76 15.5078 119.609 15.1249 119.609 14.6345C119.609 14.144 119.784 13.7432 120.128 13.4621C120.471 13.1809 120.953 13.0434 121.574 13.0434C121.941 13.0434 122.315 13.0793 122.695 13.151V12.7622C122.695 12.4632 122.604 12.2418 122.43 12.1043C122.255 11.9667 121.978 11.8949 121.604 11.8949C121.104 11.8949 120.555 12.0086 119.953 12.2239V11.2669C120.236 11.1592 120.543 11.0695 120.887 11.0037C121.224 10.9379 121.55 10.908 121.851 10.908C122.544 10.908 123.074 11.0635 123.448 11.3745C123.815 11.6856 124.002 12.1342 124.002 12.7204V15.9863L122.942 16.094L122.936 16.0999ZM121.731 15.2805C121.875 15.2805 122.032 15.2565 122.207 15.2147C122.381 15.1668 122.544 15.113 122.695 15.0412V13.9765C122.393 13.9047 122.122 13.8688 121.881 13.8688C121.254 13.8688 120.935 14.1081 120.935 14.5926C120.935 14.8199 121.001 14.9933 121.134 15.107C121.267 15.2266 121.465 15.2805 121.731 15.2805Z" fill="white"/>
<path d="M125.219 16.0701V11.1473L126.28 11.0397L126.388 11.5003C126.798 11.1294 127.256 10.944 127.756 10.944C127.913 10.944 128.076 10.9679 128.25 11.0098V12.0924C128.051 12.0446 127.883 12.0266 127.732 12.0266C127.28 12.0266 126.888 12.1522 126.551 12.3975V16.0761H125.225L125.219 16.0701Z" fill="white"/>
<path d="M133.463 8.61108V15.9923L132.402 16.1L132.324 15.777C132.089 15.9145 131.842 16.0222 131.576 16.1059C131.311 16.1897 131.076 16.2256 130.859 16.2256C130.215 16.2256 129.714 15.9983 129.353 15.5437C128.991 15.0891 128.811 14.455 128.811 13.6535C128.811 12.7802 129.027 12.1103 129.455 11.6318C129.883 11.1532 130.486 10.914 131.269 10.914C131.552 10.914 131.842 10.9499 132.143 11.0216V8.74268L133.469 8.61707L133.463 8.61108ZM131.233 15.2147C131.372 15.2147 131.522 15.1908 131.691 15.1429C131.86 15.0951 132.004 15.0293 132.137 14.9515V11.9607C131.932 11.9129 131.715 11.8949 131.486 11.8949C131.046 11.8949 130.721 12.0385 130.51 12.3196C130.299 12.6008 130.19 13.0374 130.19 13.6296C130.19 14.6883 130.54 15.2207 131.233 15.2207V15.2147Z" fill="white"/>
<path d="M137.313 16.0703V9.38294C137.657 9.31714 138.037 9.26331 138.452 9.22742C138.868 9.19153 139.236 9.1676 139.543 9.1676C140.423 9.1676 141.098 9.35901 141.568 9.74183C142.038 10.1246 142.273 10.669 142.273 11.3808C142.273 12.0926 142.026 12.6309 141.532 13.0257C141.038 13.4205 140.357 13.6238 139.495 13.6238H138.687V16.0703H137.313ZM139.495 10.2084C139.194 10.2084 138.922 10.2263 138.687 10.2682V12.5771H139.495C139.935 12.5771 140.272 12.4754 140.507 12.272C140.742 12.0686 140.863 11.7756 140.863 11.3868C140.863 10.6032 140.405 10.2084 139.495 10.2084Z" fill="white"/>
<path d="M146.123 16.0999L146.045 15.7769C145.533 16.076 145.021 16.2255 144.515 16.2255C144.008 16.2255 143.574 16.082 143.261 15.7949C142.948 15.5078 142.797 15.1249 142.797 14.6345C142.797 14.144 142.972 13.7432 143.315 13.4621C143.659 13.1809 144.141 13.0434 144.762 13.0434C145.129 13.0434 145.503 13.0793 145.882 13.151V12.7622C145.882 12.4632 145.792 12.2418 145.617 12.1043C145.443 11.9667 145.165 11.8949 144.792 11.8949C144.292 11.8949 143.743 12.0086 143.141 12.2239V11.2669C143.424 11.1592 143.731 11.0695 144.075 11.0037C144.412 10.9379 144.737 10.908 145.039 10.908C145.732 10.908 146.262 11.0635 146.636 11.3745C147.003 11.6856 147.19 12.1342 147.19 12.7204V15.9863L146.129 16.094L146.123 16.0999ZM144.918 15.2805C145.063 15.2805 145.22 15.2565 145.394 15.2147C145.569 15.1668 145.732 15.113 145.882 15.0412V13.9765C145.581 13.9047 145.31 13.8688 145.069 13.8688C144.442 13.8688 144.123 14.1081 144.123 14.5926C144.123 14.8199 144.189 14.9933 144.322 15.107C144.454 15.2266 144.653 15.2805 144.918 15.2805Z" fill="white"/>
<path d="M148.413 16.0701V11.1473L149.473 11.0397L149.582 11.5003C149.992 11.1294 150.45 10.944 150.95 10.944C151.106 10.944 151.269 10.9679 151.444 11.0098V12.0924C151.245 12.0446 151.076 12.0266 150.926 12.0266C150.474 12.0266 150.082 12.1522 149.745 12.3975V16.0761H148.419L148.413 16.0701Z" fill="white"/>
<path d="M153.885 11.9966V14.5028C153.885 14.9873 154.12 15.2326 154.584 15.2326C154.753 15.2326 154.964 15.1967 155.211 15.1249V16.0102C154.921 16.1418 154.59 16.2076 154.216 16.2076C153.674 16.2076 153.258 16.07 152.981 15.7889C152.698 15.5077 152.559 15.101 152.559 14.5686V11.9966H151.812V11.1173L152.626 11.0874L152.716 9.83124L153.885 9.70563V11.0694H155.181V11.9966H153.885Z" fill="white"/>
<path d="M159.187 16.07V12.7862C159.187 12.4931 159.121 12.2777 158.989 12.1402C158.856 12.0026 158.651 11.9308 158.368 11.9308C158.211 11.9308 158.049 11.9547 157.874 12.0026C157.705 12.0504 157.554 12.1162 157.422 12.194V16.076H156.096V11.1532L157.157 11.0455L157.235 11.3685C157.747 11.0695 158.247 10.9199 158.748 10.9199C159.308 10.9199 159.742 11.0695 160.049 11.3626C160.357 11.6557 160.507 12.0744 160.507 12.6127V16.076H159.181L159.187 16.07Z" fill="white"/>
<path d="M165.768 15.8726C165.292 16.1059 164.762 16.2255 164.177 16.2255C163.315 16.2255 162.653 15.9982 162.195 15.5437C161.737 15.0891 161.508 14.4251 161.508 13.5518C161.508 13.0194 161.61 12.5529 161.815 12.1521C162.02 11.7514 162.303 11.4463 162.665 11.231C163.026 11.0156 163.436 10.908 163.9 10.908C164.557 10.908 165.069 11.0934 165.443 11.4702C165.816 11.8471 166.003 12.3555 166.003 13.0075C166.003 13.3125 165.973 13.6116 165.913 13.9047H162.809C162.833 14.3593 162.978 14.6943 163.231 14.9156C163.484 15.1369 163.858 15.2446 164.34 15.2446C164.822 15.2446 165.31 15.1369 165.762 14.9216V15.8786L165.768 15.8726ZM163.9 11.8291C163.593 11.8291 163.339 11.9368 163.147 12.1461C162.954 12.3555 162.833 12.6426 162.803 13.0075H164.786V12.8639C164.786 12.523 164.707 12.2658 164.557 12.0923C164.406 11.9188 164.189 11.8291 163.9 11.8291Z" fill="white"/>
<path d="M167.033 16.0701V11.1473L168.094 11.0397L168.202 11.5003C168.612 11.1294 169.07 10.944 169.57 10.944C169.727 10.944 169.889 10.9679 170.064 11.0098V12.0924C169.865 12.0446 169.697 12.0266 169.546 12.0266C169.094 12.0266 168.702 12.1522 168.365 12.3975V16.0761H167.039L167.033 16.0701Z" fill="white"/>
<path d="M175.47 16.2255C174.692 16.2255 174.096 15.9982 173.686 15.5496C173.276 15.101 173.071 14.4371 173.071 13.5638C173.071 12.6905 173.276 12.0445 173.68 11.5899C174.084 11.1412 174.68 10.9139 175.47 10.9139C176.259 10.9139 176.85 11.1412 177.259 11.5899C177.663 12.0445 177.868 12.7024 177.868 13.5638C177.868 14.4251 177.663 15.095 177.253 15.5496C176.844 16.0042 176.247 16.2255 175.47 16.2255ZM175.47 15.2087C175.831 15.2087 176.09 15.0831 176.247 14.8259C176.404 14.5687 176.482 14.15 176.482 13.5578C176.482 12.9656 176.404 12.5529 176.247 12.3017C176.09 12.0504 175.831 11.9188 175.47 11.9188C175.108 11.9188 174.849 12.0445 174.692 12.3017C174.536 12.5589 174.457 12.9716 174.457 13.5578C174.457 14.144 174.536 14.5746 174.692 14.8259C174.849 15.0771 175.108 15.2087 175.47 15.2087Z" fill="white"/>
<path d="M179.212 16.0701V11.9966H178.464V11.1173L179.212 11.0874V10.2859C179.212 9.73562 179.362 9.29896 179.67 8.98194C179.977 8.66492 180.393 8.5094 180.929 8.5094C181.278 8.5094 181.628 8.5752 181.977 8.70679V9.60402C181.682 9.52626 181.447 9.48439 181.272 9.48439C181.037 9.48439 180.857 9.55019 180.73 9.6758C180.604 9.80141 180.537 9.98684 180.537 10.2381V11.0635H181.736V11.9907H180.537V16.0641H179.212V16.0701Z" fill="white"/>
<path d="M241.096 25.9899C241.488 25.9899 241.801 26.265 241.801 26.6419C241.801 27.0187 241.488 27.2998 241.096 27.2998C240.704 27.2998 240.391 27.0187 240.391 26.6419C240.391 26.265 240.704 25.9899 241.096 25.9899ZM241.096 27.4793C241.602 27.4793 242 27.1084 242 26.6419C242 26.1753 241.602 25.8044 241.096 25.8044C240.59 25.8044 240.192 26.1753 240.192 26.6419C240.192 27.1084 240.59 27.4793 241.096 27.4793ZM241.283 26.7256C241.452 26.7136 241.536 26.6299 241.536 26.4684C241.536 26.2411 241.391 26.2052 241.168 26.2052H240.71V27.0785H240.909V26.7316H241.078L241.295 27.0785H241.512L241.283 26.7316V26.7256ZM240.909 26.5701V26.3607H241.126C241.217 26.3607 241.343 26.3607 241.343 26.4564C241.343 26.5521 241.277 26.5701 241.174 26.5701H240.909Z" fill="white"/>
<path d="M192.533 0H235.564C237.878 0 239.764 1.86624 239.764 4.16913V23.2682C239.764 25.5651 237.884 27.4373 235.564 27.4373H192.533C190.219 27.4373 188.333 25.5711 188.333 23.2682V4.16913C188.333 1.86624 190.213 0 192.533 0Z" fill="white"/>
<path d="M237.541 2.20125C237.01 1.67487 236.311 1.38776 235.564 1.38776H223.53L230.454 12.8484L231.087 12.9261L231.454 13.4465V13.943L231.9 14.0208L232.298 14.5711V15.0436L232.744 15.1214C232.744 15.1214 233.19 15.5939 233.19 15.6178C233.19 15.5939 233.19 16.6885 233.19 16.6885C233.19 16.6885 234.166 17.5798 235.034 17.9147C235.642 18.148 235.721 19.117 236.064 19.6434C236.54 20.3732 237.173 20.6902 237.04 21.1089C236.727 22.2334 235.564 24.1176 234.485 24.2253C234.485 24.2253 231.798 24.2253 230.213 24.2253V26.0377H235.552C237.095 26.0377 238.348 24.7875 238.348 23.2563V4.16917C238.348 3.42746 238.059 2.72762 237.528 2.20723L237.541 2.20125Z" fill="#BC0022"/>
<path d="M219.433 1.38782H192.533C191.786 1.38782 191.081 1.67493 190.557 2.20131C190.026 2.72768 189.737 3.42154 189.737 4.16325V23.2623C189.737 24.004 190.026 24.7038 190.557 25.2242C191.087 25.7506 191.786 26.0377 192.533 26.0377H210.008C209.568 25.314 209.08 24.4885 208.924 24.2373H206.839C206.839 19.1111 208.598 16.2579 210.683 15.7076C210.972 15.6538 210.84 14.2421 210.472 13.8234C210.472 13.8234 209.472 13.8474 209.261 13.7995C208.996 13.7217 209.183 13.4586 209.183 13.4586L210.159 11.365L210.026 10.7908H206.417C206.363 10.7908 209.394 8.72118 209.394 8.72118C209.55 3.27798 215.167 2.85928 218.565 5.10833C220.572 6.44222 220.728 9.05615 220.572 10.8925C220.548 10.9942 220.048 10.9164 220.048 10.9164C220.048 10.9164 219.704 12.9023 220.602 12.9023H224.555C226.164 12.8484 227.719 13.9191 227.719 13.9191L228.11 12.5553L219.433 1.38184V1.38782ZM195.522 22.1138C194.461 22.1138 193.6 21.2585 193.6 20.2057C193.6 19.153 194.461 18.2976 195.522 18.2976C196.583 18.2976 197.444 19.153 197.444 20.2057C197.444 21.2585 196.589 22.1138 195.522 22.1138Z" fill="#041E42"/>
<path d="M8.61656 25.4448L9.29419 27.1653L9.9777 25.4448H10.4785L10.6966 28.002H10.2429L10.1073 26.1636L9.48274 27.7546H9.09974L8.46336 26.1342L8.32784 28.002H7.88002L8.09804 25.4448H8.61656ZM6.39515 28.002V25.8336H5.63504V25.4448H7.63843V25.8336H6.87832V28.002H6.39515ZM11.1905 29.5694L12.6754 25.1442H13.2352L11.7503 29.5694H11.1905ZM15.7784 29.6578C15.3699 29.6578 15.0006 29.5596 14.6707 29.3632C14.3446 29.1628 14.0913 28.8996 13.9106 28.5736C13.7299 28.2475 13.6395 27.892 13.6395 27.5071C13.6395 27.0946 13.7377 26.7234 13.9341 26.3934C14.1345 26.0634 14.3957 25.8081 14.7178 25.6274C15.0439 25.4467 15.3974 25.3564 15.7784 25.3564C16.187 25.3564 16.5543 25.4565 16.8803 25.6569C17.2103 25.8533 17.4656 26.1145 17.6463 26.4406C17.827 26.7666 17.9174 27.1221 17.9174 27.5071C17.9174 27.9195 17.8172 28.2908 17.6169 28.6207C17.4204 28.9507 17.1592 29.206 16.8332 29.3867C16.5111 29.5674 16.1595 29.6578 15.7784 29.6578ZM15.7784 29.3219C16.1241 29.3219 16.4305 29.2414 16.6976 29.0803C16.9687 28.9153 17.1769 28.6954 17.3222 28.4204C17.4715 28.1454 17.5461 27.841 17.5461 27.5071C17.5461 27.1496 17.4656 26.8334 17.3046 26.5584C17.1474 26.2795 16.9353 26.0654 16.6682 25.9161C16.4011 25.7669 16.1045 25.6922 15.7784 25.6922C15.4328 25.6922 15.1244 25.7747 14.8533 25.9397C14.5862 26.1008 14.378 26.3188 14.2288 26.5938C14.0834 26.8687 14.0107 27.1732 14.0107 27.5071C14.0107 27.8645 14.0893 28.1827 14.2464 28.4616C14.4075 28.7366 14.6216 28.9487 14.8887 29.098C15.1558 29.2473 15.4524 29.3219 15.7784 29.3219ZM16.5386 28.6502C16.3343 28.7602 16.1045 28.8152 15.8491 28.8152C15.4838 28.8152 15.1971 28.6993 14.9889 28.4675C14.7807 28.2358 14.6766 27.9156 14.6766 27.5071C14.6766 27.0985 14.7807 26.7784 14.9889 26.5466C15.201 26.3149 15.4878 26.199 15.8491 26.199C16.0966 26.199 16.3225 26.254 16.5268 26.364V26.7352C16.4246 26.6802 16.3264 26.6409 16.2322 26.6173C16.1418 26.5898 16.0416 26.5761 15.9316 26.5761C15.6999 26.5761 15.5172 26.6605 15.3837 26.8295C15.254 26.9944 15.1892 27.2203 15.1892 27.5071C15.1892 27.7978 15.254 28.0256 15.3837 28.1906C15.5172 28.3556 15.6999 28.4381 15.9316 28.4381C16.1241 28.4381 16.3264 28.385 16.5386 28.279V28.6502ZM19.9165 29.5694C19.9243 29.2159 19.995 28.9095 20.1286 28.6502C20.2661 28.3909 20.4959 28.1258 20.818 27.8547L21.313 27.4364C21.5133 27.2675 21.6567 27.1162 21.7431 26.9827C21.8295 26.8491 21.8727 26.7116 21.8727 26.5702C21.8727 26.362 21.7961 26.197 21.6429 26.0752C21.4937 25.9535 21.2894 25.8926 21.0301 25.8926C20.6923 25.8926 20.3623 26.0104 20.0402 26.2461V25.7924C20.3584 25.5606 20.7336 25.4448 21.1657 25.4448C21.421 25.4448 21.6449 25.4939 21.8374 25.5921C22.0338 25.6863 22.185 25.8179 22.2911 25.9868C22.3972 26.1518 22.4502 26.3365 22.4502 26.5407C22.4502 26.745 22.3952 26.9375 22.2852 27.1182C22.1791 27.2949 21.9965 27.4933 21.7372 27.7133L21.2658 28.114C21.0458 28.3025 20.8789 28.4754 20.765 28.6325C20.6511 28.7896 20.5784 28.9468 20.547 29.1039H21.914C22.1418 29.1039 22.3382 29.098 22.5032 29.0862V29.5694H19.9165ZM24.6364 29.2217C24.9428 29.2217 25.1667 29.0882 25.3081 28.8211C25.4495 28.55 25.5202 28.1258 25.5202 27.5483C25.5202 26.9709 25.4476 26.5486 25.3022 26.2815C25.1608 26.0143 24.9389 25.8808 24.6364 25.8808C24.3339 25.8808 24.11 26.0143 23.9647 26.2815C23.8232 26.5486 23.7525 26.9709 23.7525 27.5483C23.7525 28.1258 23.8232 28.55 23.9647 28.8211C24.1061 29.0882 24.33 29.2217 24.6364 29.2217ZM24.6364 29.6578C23.6622 29.6578 23.1751 28.9546 23.1751 27.5483C23.1751 26.853 23.2969 26.3286 23.5404 25.9751C23.784 25.6215 24.1493 25.4448 24.6364 25.4448C25.1235 25.4448 25.4888 25.6215 25.7324 25.9751C25.9759 26.3286 26.0977 26.853 26.0977 27.5483C26.0977 28.9546 25.6106 29.6578 24.6364 29.6578ZM26.6775 29.5694C26.6853 29.2159 26.7561 28.9095 26.8896 28.6502C27.0271 28.3909 27.2569 28.1258 27.579 27.8547L28.074 27.4364C28.2743 27.2675 28.4177 27.1162 28.5041 26.9827C28.5905 26.8491 28.6338 26.7116 28.6338 26.5702C28.6338 26.362 28.5572 26.197 28.4039 26.0752C28.2547 25.9535 28.0504 25.8926 27.7911 25.8926C27.4533 25.8926 27.1233 26.0104 26.8012 26.2461V25.7924C27.1194 25.5606 27.4946 25.4448 27.9267 25.4448C28.182 25.4448 28.4059 25.4939 28.5984 25.5921C28.7948 25.6863 28.946 25.8179 29.0521 25.9868C29.1582 26.1518 29.2112 26.3365 29.2112 26.5407C29.2112 26.745 29.1562 26.9375 29.0462 27.1182C28.9402 27.2949 28.7575 27.4933 28.4982 27.7133L28.0268 28.114C27.8069 28.3025 27.6399 28.4754 27.526 28.6325C27.4121 28.7896 27.3394 28.9468 27.308 29.1039H28.675C28.9028 29.1039 29.0992 29.098 29.2642 29.0862V29.5694H26.6775ZM32.4345 25.9044C32.0259 25.924 31.6763 26.0006 31.3856 26.1342C31.0949 26.2638 30.8671 26.4465 30.7021 26.6821C30.541 26.9139 30.4468 27.1928 30.4193 27.5189C30.5332 27.3774 30.6844 27.2655 30.873 27.183C31.0615 27.1005 31.2579 27.0593 31.4622 27.0593C31.7018 27.0593 31.9159 27.1182 32.1045 27.236C32.293 27.3499 32.4384 27.5051 32.5405 27.7015C32.6427 27.894 32.6937 28.1061 32.6937 28.3379C32.6937 28.605 32.6328 28.8387 32.5111 29.0391C32.3932 29.2355 32.2302 29.3887 32.022 29.4987C31.8138 29.6048 31.5781 29.6578 31.3149 29.6578C31.0085 29.6578 30.7453 29.5871 30.5253 29.4457C30.3093 29.3003 30.1443 29.0941 30.0304 28.827C29.9204 28.5598 29.8654 28.2456 29.8654 27.8842C29.8654 27.3892 29.9656 26.963 30.1659 26.6055C30.3662 26.2441 30.653 25.9652 31.0262 25.7688C31.3994 25.5724 31.8433 25.4644 32.3579 25.4448L32.4345 25.9044ZM31.362 27.4894C31.1813 27.4894 31.0046 27.5385 30.8317 27.6367C30.6589 27.7349 30.5194 27.8665 30.4134 28.0315C30.4291 28.4165 30.5135 28.7111 30.6667 28.9153C30.8239 29.1196 31.0399 29.2217 31.3149 29.2217C31.5624 29.2217 31.7608 29.1432 31.91 28.9861C32.0593 28.825 32.1339 28.6148 32.1339 28.3556C32.1339 28.0963 32.0632 27.8881 31.9218 27.731C31.7804 27.5699 31.5938 27.4894 31.362 27.4894ZM36.9276 29.21L35.7786 26.252L35.5547 29.5694H35.0126L35.3367 25.4448H35.979L37.1633 28.497L38.3477 25.4448H38.99L39.3141 29.5694H38.7661L38.5363 26.252L37.3931 29.21H36.9276ZM40.3526 29.5694V25.4448H40.9242V29.098H42.8215V29.5694H40.3526ZM43.5432 29.5694V25.5331C43.7514 25.4939 43.9714 25.4624 44.2032 25.4389C44.4349 25.4153 44.6373 25.4035 44.8101 25.4035C45.2697 25.4035 45.6213 25.4958 45.8648 25.6804C46.1123 25.8611 46.236 26.1224 46.236 26.4641C46.236 26.692 46.1732 26.8864 46.0475 27.0475C45.9257 27.2085 45.745 27.3303 45.5054 27.4128C45.7961 27.4756 46.02 27.5974 46.1771 27.7781C46.3382 27.9549 46.4187 28.1788 46.4187 28.4499C46.4187 28.8112 46.293 29.0882 46.0416 29.2807C45.7902 29.4732 45.4308 29.5694 44.9633 29.5694H43.5432ZM44.9456 29.1334C45.2363 29.1334 45.4563 29.0725 45.6056 28.9507C45.7588 28.825 45.8354 28.6423 45.8354 28.4027C45.8354 28.167 45.7548 27.9863 45.5938 27.8606C45.4366 27.731 45.2147 27.6662 44.9279 27.6662H44.0971V29.1334H44.9456ZM44.7688 25.8395C44.5842 25.8395 44.3603 25.8592 44.0971 25.8985V27.2419H44.8749C45.1224 27.2419 45.3168 27.1791 45.4583 27.0534C45.6036 26.9237 45.6763 26.7509 45.6763 26.5348C45.6763 26.0713 45.3738 25.8395 44.7688 25.8395ZM47.4277 29.5989C47.3216 29.5989 47.2352 29.5655 47.1684 29.4987C47.1016 29.4319 47.0682 29.3455 47.0682 29.2394C47.0682 29.1334 47.1016 29.0469 47.1684 28.9802C47.2352 28.9134 47.3216 28.88 47.4277 28.88C47.5337 28.88 47.6202 28.9134 47.6869 28.9802C47.7537 29.0469 47.7871 29.1334 47.7871 29.2394C47.7871 29.3455 47.7537 29.4319 47.6869 29.4987C47.6202 29.5655 47.5337 29.5989 47.4277 29.5989Z" fill="white"/>
</svg>
