<svg width="299" height="57" viewBox="0 0 299 57" fill="none" xmlns="http://www.w3.org/2000/svg">
<path d="M291.452 53.812V40.76L293.428 40.552L293.636 41.748C294.78 40.7773 296.002 40.292 297.302 40.292C297.701 40.292 298.099 40.3527 298.498 40.474V42.476C298.082 42.372 297.657 42.32 297.224 42.32C295.976 42.32 294.867 42.71 293.896 43.49V53.812H291.452Z" fill="white"/>
<path d="M287.67 53.318C286.474 53.9073 285.14 54.202 283.666 54.202C281.517 54.202 279.879 53.604 278.752 52.408C277.626 51.212 277.062 49.4613 277.062 47.156C277.062 45.7347 277.314 44.504 277.816 43.464C278.319 42.4067 279.021 41.6007 279.922 41.046C280.824 40.4913 281.855 40.214 283.016 40.214C284.646 40.214 285.928 40.6993 286.864 41.67C287.8 42.6407 288.268 43.984 288.268 45.7C288.268 46.376 288.208 47.0433 288.086 47.702H279.48C279.532 50.77 281.023 52.304 283.952 52.304C285.218 52.304 286.457 52.0267 287.67 51.472V53.318ZM283.016 42.008C282.011 42.008 281.188 42.3633 280.546 43.074C279.922 43.7847 279.567 44.7467 279.48 45.96H286.007C286.024 45.8733 286.033 45.7867 286.033 45.7C286.033 45.6133 286.033 45.5267 286.033 45.44C286.033 44.3653 285.764 43.5247 285.226 42.918C284.706 42.3113 283.97 42.008 283.016 42.008Z" fill="white"/>
<path d="M268.647 53.812L263.733 40.604H266.333L269.869 51.134L273.457 40.604H275.953L270.987 53.812H268.647Z" fill="white"/>
<path d="M259.155 53.812V34.286L261.599 34V53.812H259.155Z" fill="white"/>
<path d="M252.756 53.812V40.812L255.2 40.526V53.812H252.756ZM253.978 37.9C253.476 37.9 253.077 37.77 252.782 37.51C252.505 37.2327 252.366 36.86 252.366 36.392C252.366 35.924 252.505 35.56 252.782 35.3C253.077 35.0227 253.476 34.884 253.978 34.884C254.481 34.884 254.871 35.0227 255.148 35.3C255.443 35.56 255.59 35.924 255.59 36.392C255.59 36.86 255.443 37.2327 255.148 37.51C254.871 37.77 254.481 37.9 253.978 37.9Z" fill="white"/>
<path d="M240.014 51.394C241.401 52.0007 242.788 52.304 244.174 52.304C245.18 52.304 245.942 52.1133 246.462 51.732C247 51.3507 247.268 50.8047 247.268 50.094C247.268 49.626 247.121 49.2447 246.826 48.95C246.532 48.6553 246.046 48.404 245.37 48.196L243.602 47.65C242.424 47.286 241.566 46.818 241.028 46.246C240.491 45.674 240.222 44.946 240.222 44.062C240.222 42.8833 240.682 41.9473 241.6 41.254C242.519 40.5607 243.758 40.214 245.318 40.214C246.636 40.214 247.892 40.474 249.088 40.994V42.866C247.771 42.3633 246.566 42.112 245.474 42.112C244.59 42.112 243.897 42.2853 243.394 42.632C242.909 42.9613 242.666 43.412 242.666 43.984C242.666 44.4 242.796 44.7293 243.056 44.972C243.316 45.1973 243.802 45.4227 244.512 45.648L246.488 46.246C248.638 46.8873 249.712 48.1613 249.712 50.068C249.712 51.4027 249.253 52.4253 248.334 53.136C247.416 53.8467 246.09 54.202 244.356 54.202C242.744 54.202 241.392 53.9333 240.3 53.396L240.014 51.394Z" fill="white"/>
<path d="M227.975 53.812V34.286L230.419 34V46.272L235.853 40.604H238.661L232.759 46.74L238.947 53.812H235.983L230.419 47.338V53.812H227.975Z" fill="white"/>
<path d="M224.966 53.344C223.77 53.916 222.444 54.202 220.988 54.202C219.081 54.202 217.608 53.5953 216.568 52.382C215.528 51.1687 215.008 49.4527 215.008 47.234C215.008 44.998 215.528 43.2733 216.568 42.06C217.625 40.8293 219.107 40.214 221.014 40.214C222.348 40.214 223.64 40.5 224.888 41.072V42.944C223.692 42.424 222.548 42.164 221.456 42.164C220.173 42.164 219.202 42.5887 218.544 43.438C217.885 44.2873 217.556 45.544 217.556 47.208C217.556 48.8547 217.885 50.1113 218.544 50.978C219.202 51.8273 220.173 52.252 221.456 52.252C222.548 52.252 223.718 51.992 224.966 51.472V53.344Z" fill="white"/>
<path d="M209.389 53.812V40.812L211.833 40.526V53.812H209.389ZM210.611 37.9C210.109 37.9 209.71 37.77 209.415 37.51C209.138 37.2327 208.999 36.86 208.999 36.392C208.999 35.924 209.138 35.56 209.415 35.3C209.71 35.0227 210.109 34.884 210.611 34.884C211.114 34.884 211.504 35.0227 211.781 35.3C212.076 35.56 212.223 35.924 212.223 36.392C212.223 36.86 212.076 37.2327 211.781 37.51C211.504 37.77 211.114 37.9 210.611 37.9Z" fill="white"/>
<path d="M203.474 53.864L203.318 52.954C201.896 53.786 200.484 54.202 199.08 54.202C197.676 54.202 196.584 53.8207 195.804 53.058C195.024 52.2953 194.634 51.2293 194.634 49.86V40.604H197.078V49.496C197.078 51.3507 197.97 52.278 199.756 52.278C200.258 52.278 200.804 52.2 201.394 52.044C201.983 51.8707 202.52 51.6453 203.006 51.368V40.604H205.45V53.656L203.474 53.864Z" fill="white"/>
<path d="M181.84 54.124C179.83 53.5173 178.339 52.4427 177.368 50.9C176.398 49.3573 175.912 47.2946 175.912 44.712C175.912 41.644 176.571 39.2953 177.888 37.666C179.223 36.0367 181.138 35.222 183.634 35.222C186.13 35.222 188.037 36.0367 189.354 37.666C190.689 39.2953 191.356 41.644 191.356 44.712C191.356 47.1213 190.923 49.0973 190.056 50.64C189.207 52.1653 187.959 53.188 186.312 53.708L191.694 54.618L190.81 56.854L181.84 54.124ZM183.634 52.174C185.35 52.174 186.616 51.5673 187.43 50.354C188.262 49.1233 188.678 47.2426 188.678 44.712C188.678 42.216 188.262 40.3613 187.43 39.148C186.616 37.9173 185.35 37.302 183.634 37.302C181.918 37.302 180.644 37.9173 179.812 39.148C178.998 40.3613 178.59 42.216 178.59 44.712C178.59 47.2426 178.998 49.1233 179.812 50.354C180.644 51.5673 181.918 52.174 183.634 52.174Z" fill="white"/>
<path d="M155.231 53.812V34.286L157.675 34V41.28C159.01 40.5693 160.319 40.214 161.601 40.214C163.04 40.214 164.149 40.5953 164.929 41.358C165.727 42.1033 166.125 43.1693 166.125 44.556V53.812H163.681V44.92C163.681 43.0653 162.763 42.138 160.925 42.138C160.44 42.138 159.894 42.2247 159.287 42.398C158.698 42.554 158.161 42.7707 157.675 43.048V53.812H155.231Z" fill="white"/>
<path d="M148.801 42.372V49.964C148.801 50.744 148.975 51.3247 149.321 51.706C149.668 52.07 150.197 52.252 150.907 52.252C151.445 52.252 152.017 52.1567 152.623 51.966V53.708C151.895 53.9853 151.141 54.124 150.361 54.124C149.044 54.124 148.047 53.7773 147.371 53.084C146.695 52.3907 146.357 51.3767 146.357 50.042V42.372H144.381V40.708L146.461 40.63L146.643 37.328L148.801 37.094V40.604H152.493V42.372H148.801Z" fill="white"/>
<path d="M139.413 53.812V40.812L141.857 40.526V53.812H139.413ZM140.635 37.9C140.132 37.9 139.733 37.77 139.439 37.51C139.161 37.2327 139.023 36.86 139.023 36.392C139.023 35.924 139.161 35.56 139.439 35.3C139.733 35.0227 140.132 34.884 140.635 34.884C141.137 34.884 141.527 35.0227 141.805 35.3C142.099 35.56 142.247 35.924 142.247 36.392C142.247 36.86 142.099 37.2327 141.805 37.51C141.527 37.77 141.137 37.9 140.635 37.9Z" fill="white"/>
<path d="M130.904 53.812L127.81 43.178L124.82 53.812H122.584L118.45 40.604H120.92L123.754 50.848L126.562 40.604H129.136L131.996 50.848L134.804 40.604H137.196L133.14 53.812H130.904Z" fill="white"/>
<path d="M100.743 53.812V34.286L103.187 34V46.272L108.621 40.604H111.429L105.527 46.74L111.715 53.812H108.751L103.187 47.338V53.812H100.743Z" fill="white"/>
<path d="M97.7334 53.344C96.5374 53.916 95.2114 54.202 93.7554 54.202C91.8487 54.202 90.3754 53.5953 89.3354 52.382C88.2954 51.1687 87.7754 49.4527 87.7754 47.234C87.7754 44.998 88.2954 43.2733 89.3354 42.06C90.3927 40.8293 91.8747 40.214 93.7814 40.214C95.1161 40.214 96.4074 40.5 97.6554 41.072V42.944C96.4594 42.424 95.3154 42.164 94.2234 42.164C92.9407 42.164 91.9701 42.5887 91.3114 43.438C90.6527 44.2873 90.3234 45.544 90.3234 47.208C90.3234 48.8547 90.6527 50.1113 91.3114 50.978C91.9701 51.8273 92.9407 52.252 94.2234 52.252C95.3154 52.252 96.4854 51.992 97.7334 51.472V53.344Z" fill="white"/>
<path d="M82.7793 53.864L82.6233 52.954C81.1673 53.786 79.7547 54.202 78.3853 54.202C77.016 54.202 75.924 53.838 75.1093 53.11C74.312 52.3647 73.9133 51.368 73.9133 50.12C73.9133 48.82 74.364 47.8147 75.2653 47.104C76.1667 46.376 77.432 46.012 79.0613 46.012C80.0147 46.012 81.1153 46.1247 82.3633 46.35V44.972C82.3633 44.0187 82.086 43.308 81.5313 42.84C80.994 42.372 80.162 42.138 79.0353 42.138C77.718 42.138 76.2793 42.4413 74.7193 43.048V41.15C75.4473 40.8553 76.236 40.63 77.0853 40.474C77.9347 40.3007 78.7407 40.214 79.5033 40.214C81.2193 40.214 82.5193 40.6127 83.4033 41.41C84.3047 42.2073 84.7553 43.3773 84.7553 44.92V53.656L82.7793 53.864ZM79.0093 52.304C79.512 52.304 80.0753 52.2173 80.6993 52.044C81.3233 51.8707 81.878 51.6453 82.3633 51.368V48.04C81.5487 47.832 80.5867 47.728 79.4773 47.728C78.4373 47.728 77.666 47.9273 77.1633 48.326C76.678 48.7073 76.4353 49.288 76.4353 50.068C76.4353 51.5587 77.2933 52.304 79.0093 52.304Z" fill="white"/>
<path d="M62.3588 41.254C63.6588 40.5607 64.8808 40.214 66.0248 40.214C67.7235 40.214 69.0495 40.8207 70.0028 42.034C70.9735 43.23 71.4588 44.8853 71.4588 47C71.4588 49.3227 70.8695 51.108 69.6908 52.356C68.5121 53.5867 66.8308 54.202 64.6468 54.202C63.0868 54.202 61.5095 53.9767 59.9148 53.526V34.286L62.3588 34V41.254ZM65.4528 42.138C64.9848 42.138 64.4648 42.2247 63.8928 42.398C63.3381 42.554 62.8268 42.7707 62.3588 43.048V51.992C63.0868 52.2 63.8581 52.304 64.6728 52.304C66.0941 52.304 67.1515 51.8707 67.8448 51.004C68.5555 50.1373 68.9108 48.82 68.9108 47.052C68.9108 45.44 68.6161 44.218 68.0268 43.386C67.4548 42.554 66.5968 42.138 65.4528 42.138Z" fill="white"/>
<path d="M38.7136 53.812V34.286L41.1576 34V41.28C42.4923 40.5693 43.801 40.214 45.0836 40.214C46.5223 40.214 47.6316 40.5953 48.4116 41.358C49.209 42.1033 49.6076 43.1693 49.6076 44.556V53.812H47.1636V44.92C47.1636 43.0653 46.245 42.138 44.4076 42.138C43.9223 42.138 43.3763 42.2247 42.7696 42.398C42.1803 42.554 41.643 42.7707 41.1576 43.048V53.812H38.7136Z" fill="white"/>
<path d="M25.9717 51.394C27.3583 52.0007 28.745 52.304 30.1317 52.304C31.137 52.304 31.8997 52.1133 32.4197 51.732C32.957 51.3507 33.2257 50.8047 33.2257 50.094C33.2257 49.626 33.0783 49.2447 32.7837 48.95C32.489 48.6553 32.0037 48.404 31.3277 48.196L29.5597 47.65C28.381 47.286 27.523 46.818 26.9857 46.246C26.4483 45.674 26.1797 44.946 26.1797 44.062C26.1797 42.8833 26.639 41.9473 27.5577 41.254C28.4763 40.5607 29.7157 40.214 31.2757 40.214C32.593 40.214 33.8497 40.474 35.0457 40.994V42.866C33.7283 42.3633 32.5237 42.112 31.4317 42.112C30.5477 42.112 29.8543 42.2853 29.3517 42.632C28.8663 42.9613 28.6237 43.412 28.6237 43.984C28.6237 44.4 28.7537 44.7293 29.0137 44.972C29.2737 45.1973 29.759 45.4227 30.4697 45.648L32.4457 46.246C34.595 46.8873 35.6697 48.1613 35.6697 50.068C35.6697 51.4027 35.2103 52.4253 34.2917 53.136C33.373 53.8467 32.047 54.202 30.3137 54.202C28.7017 54.202 27.3497 53.9333 26.2577 53.396L25.9717 51.394Z" fill="white"/>
<path d="M21.1055 53.864L20.9495 52.954C19.4935 53.786 18.0808 54.202 16.7115 54.202C15.3422 54.202 14.2502 53.838 13.4355 53.11C12.6382 52.3647 12.2395 51.368 12.2395 50.12C12.2395 48.82 12.6902 47.8147 13.5915 47.104C14.4928 46.376 15.7582 46.012 17.3875 46.012C18.3408 46.012 19.4415 46.1247 20.6895 46.35V44.972C20.6895 44.0187 20.4122 43.308 19.8575 42.84C19.3202 42.372 18.4882 42.138 17.3615 42.138C16.0442 42.138 14.6055 42.4413 13.0455 43.048V41.15C13.7735 40.8553 14.5622 40.63 15.4115 40.474C16.2608 40.3007 17.0668 40.214 17.8295 40.214C19.5455 40.214 20.8455 40.6127 21.7295 41.41C22.6308 42.2073 23.0815 43.3773 23.0815 44.92V53.656L21.1055 53.864ZM17.3355 52.304C17.8382 52.304 18.4015 52.2173 19.0255 52.044C19.6495 51.8707 20.2042 51.6453 20.6895 51.368V48.04C19.8748 47.832 18.9128 47.728 17.8035 47.728C16.7635 47.728 15.9922 47.9273 15.4895 48.326C15.0042 48.7073 14.7615 49.288 14.7615 50.068C14.7615 51.5587 15.6195 52.304 17.3355 52.304Z" fill="white"/>
<path d="M9.958 53.344C8.762 53.916 7.436 54.202 5.98 54.202C4.07333 54.202 2.6 53.5953 1.56 52.382C0.52 51.1687 0 49.4527 0 47.234C0 44.998 0.52 43.2733 1.56 42.06C2.61733 40.8293 4.09933 40.214 6.006 40.214C7.34067 40.214 8.632 40.5 9.88 41.072V42.944C8.684 42.424 7.54 42.164 6.448 42.164C5.16533 42.164 4.19467 42.5887 3.536 43.438C2.87733 44.2873 2.548 45.544 2.548 47.208C2.548 48.8547 2.87733 50.1113 3.536 50.978C4.19467 51.8273 5.16533 52.252 6.448 52.252C7.54 52.252 8.71 51.992 9.958 51.472V53.344Z" fill="white"/>
<path d="M208.026 19.812L217.36 2.002H219.518L210.184 19.812H208.026ZM206.986 11.752C207.748 11.752 208.303 11.4227 208.65 10.764C208.996 10.088 209.17 9.00467 209.17 7.51401C209.17 6.02334 208.996 4.94867 208.65 4.29001C208.303 3.61401 207.748 3.276 206.986 3.276C206.223 3.276 205.668 3.61401 205.322 4.29001C204.975 4.94867 204.802 6.02334 204.802 7.51401C204.802 9.00467 204.975 10.088 205.322 10.764C205.668 11.4227 206.223 11.752 206.986 11.752ZM206.986 13.286C205.582 13.286 204.507 12.792 203.762 11.804C203.016 10.7987 202.644 9.36867 202.644 7.51401C202.644 5.65934 203.016 4.23801 203.762 3.25001C204.507 2.24467 205.582 1.742 206.986 1.742C208.39 1.742 209.464 2.24467 210.21 3.25001C210.955 4.23801 211.328 5.65934 211.328 7.51401C211.328 9.36867 210.955 10.7987 210.21 11.804C209.464 12.792 208.39 13.286 206.986 13.286ZM220.558 18.538C221.32 18.538 221.875 18.2087 222.222 17.55C222.568 16.874 222.742 15.7907 222.742 14.3C222.742 12.8093 222.568 11.7347 222.222 11.076C221.875 10.4 221.32 10.062 220.558 10.062C219.795 10.062 219.24 10.4 218.894 11.076C218.547 11.7347 218.374 12.8093 218.374 14.3C218.374 15.7907 218.547 16.874 218.894 17.55C219.24 18.2087 219.795 18.538 220.558 18.538ZM220.558 20.072C219.154 20.072 218.079 19.578 217.334 18.59C216.588 17.5847 216.216 16.1547 216.216 14.3C216.216 12.4453 216.588 11.024 217.334 10.036C218.079 9.03067 219.154 8.52801 220.558 8.52801C221.962 8.52801 223.036 9.03067 223.782 10.036C224.527 11.024 224.9 12.4453 224.9 14.3C224.9 16.1547 224.527 17.5847 223.782 18.59C223.036 19.578 221.962 20.072 220.558 20.072Z" fill="white"/>
<path d="M188.912 17.134C190.489 17.8793 192.04 18.252 193.566 18.252C195.004 18.252 196.114 17.9053 196.894 17.212C197.674 16.5013 198.064 15.5047 198.064 14.222C198.064 13.0607 197.734 12.1593 197.076 11.518C196.434 10.8767 195.516 10.556 194.32 10.556C193.696 10.556 193.063 10.6427 192.422 10.816C191.798 10.972 191.252 11.1973 190.784 11.492L189.588 10.686L190.42 2.00201H197.102C198.038 2.00201 198.896 1.96734 199.676 1.89801V4.05601H192.422L191.928 9.38601C192.361 9.19534 192.855 9.03934 193.41 8.91801C193.964 8.79668 194.502 8.73601 195.022 8.73601C196.72 8.73601 198.072 9.23868 199.078 10.244C200.1 11.2493 200.612 12.584 200.612 14.248C200.612 15.4787 200.326 16.5447 199.754 17.446C199.199 18.33 198.41 19.0147 197.388 19.5C196.382 19.968 195.221 20.202 193.904 20.202C193.054 20.202 192.214 20.1153 191.382 19.942C190.55 19.7687 189.83 19.5347 189.224 19.24L188.912 17.134Z" fill="white"/>
<path d="M184.944 19.942C184.476 19.942 184.095 19.7947 183.8 19.5C183.506 19.2053 183.358 18.824 183.358 18.356C183.358 17.888 183.506 17.5067 183.8 17.212C184.095 16.9173 184.476 16.77 184.944 16.77C185.412 16.77 185.794 16.9173 186.088 17.212C186.383 17.5067 186.53 17.888 186.53 18.356C186.53 18.824 186.383 19.2053 186.088 19.5C185.794 19.7947 185.412 19.942 184.944 19.942Z" fill="white"/>
<path d="M177.253 19.812V4.60201L172.911 7.43602L172.417 5.40802L177.643 2.00201H179.697V19.812H177.253Z" fill="white"/>
<path d="M163.592 0V19.656L161.616 19.864L161.46 18.954C160.091 19.786 158.765 20.202 157.482 20.202C155.783 20.202 154.449 19.604 153.478 18.408C152.525 17.1947 152.048 15.5307 152.048 13.416C152.048 11.128 152.611 9.36 153.738 8.112C154.865 6.84667 156.451 6.214 158.496 6.214C159.484 6.214 160.368 6.33533 161.148 6.578V0.286L163.592 0ZM158.054 18.278C158.522 18.278 159.033 18.2 159.588 18.044C160.16 17.8707 160.68 17.6453 161.148 17.368V8.424C160.42 8.216 159.649 8.112 158.834 8.112C157.413 8.112 156.347 8.54533 155.636 9.412C154.943 10.2787 154.596 11.596 154.596 13.364C154.596 14.976 154.882 16.198 155.454 17.03C156.043 17.862 156.91 18.278 158.054 18.278Z" fill="white"/>
<path d="M149.047 19.318C147.851 19.9073 146.516 20.202 145.043 20.202C142.893 20.202 141.255 19.604 140.129 18.408C139.002 17.212 138.439 15.4613 138.439 13.156C138.439 11.7347 138.69 10.504 139.193 9.46399C139.695 8.40665 140.397 7.60065 141.299 7.04599C142.2 6.49132 143.231 6.21399 144.393 6.21399C146.022 6.21399 147.305 6.69932 148.241 7.66999C149.177 8.64066 149.645 9.98399 149.645 11.7C149.645 12.376 149.584 13.0433 149.463 13.702H140.857C140.909 16.77 142.399 18.304 145.329 18.304C146.594 18.304 147.833 18.0267 149.047 17.472V19.318ZM144.393 8.00799C143.387 8.00799 142.564 8.36332 141.923 9.07399C141.299 9.78465 140.943 10.7467 140.857 11.96H147.383C147.4 11.8733 147.409 11.7867 147.409 11.7C147.409 11.6133 147.409 11.5267 147.409 11.44C147.409 10.3653 147.14 9.52465 146.603 8.91799C146.083 8.31132 145.346 8.00799 144.393 8.00799Z" fill="white"/>
<path d="M132.789 8.37199V15.964C132.789 16.744 132.962 17.3247 133.309 17.706C133.655 18.07 134.184 18.252 134.895 18.252C135.432 18.252 136.004 18.1567 136.611 17.966V19.708C135.883 19.9853 135.129 20.124 134.349 20.124C133.031 20.124 132.035 19.7773 131.359 19.084C130.683 18.3907 130.345 17.3767 130.345 16.042V8.37199H128.369V6.70799L130.449 6.62999L130.631 3.32799L132.789 3.09399V6.60399H136.481V8.37199H132.789Z" fill="white"/>
<path d="M123.4 19.812V6.812L125.844 6.526V19.812H123.4ZM124.622 3.9C124.12 3.9 123.721 3.77 123.426 3.51C123.149 3.23267 123.01 2.86 123.01 2.392C123.01 1.924 123.149 1.56 123.426 1.3C123.721 1.02267 124.12 0.884003 124.622 0.884003C125.125 0.884003 125.515 1.02267 125.792 1.3C126.087 1.56 126.234 1.924 126.234 2.392C126.234 2.86 126.087 3.23267 125.792 3.51C125.515 3.77 125.125 3.9 124.622 3.9Z" fill="white"/>
<path d="M117.164 19.812V10.634C117.164 8.96999 116.358 8.13799 114.746 8.13799C113.776 8.13799 112.753 8.45866 111.678 9.09999C111.765 9.48132 111.808 9.86265 111.808 10.244V19.812H109.364V10.634C109.364 8.96999 108.558 8.13799 106.946 8.13799C105.993 8.13799 105.014 8.44132 104.008 9.04799V19.812H101.564V6.75999L103.54 6.55199L103.696 7.46199C105.031 6.62999 106.34 6.21399 107.622 6.21399C109.113 6.21399 110.24 6.69066 111.002 7.64399C112.562 6.69066 114.036 6.21399 115.422 6.21399C116.722 6.21399 117.745 6.56932 118.49 7.27999C119.236 7.99066 119.608 8.97865 119.608 10.244V19.812H117.164Z" fill="white"/>
<path d="M95.1659 19.812V6.812L97.6099 6.526V19.812H95.1659ZM96.3879 3.9C95.8852 3.9 95.4865 3.77 95.1919 3.51C94.9145 3.23267 94.7759 2.86 94.7759 2.392C94.7759 1.924 94.9145 1.56 95.1919 1.3C95.4865 1.02267 95.8852 0.884003 96.3879 0.884003C96.8905 0.884003 97.2806 1.02267 97.5579 1.3C97.8526 1.56 97.9999 1.924 97.9999 2.392C97.9999 2.86 97.8526 3.23267 97.5579 3.51C97.2806 3.77 96.8905 3.9 96.3879 3.9Z" fill="white"/>
<path d="M88.7676 19.812V0.286L91.2116 0V19.812H88.7676Z" fill="white"/>
<path d="M82.5164 19.812V10.92C82.5164 9.06532 81.5977 8.13799 79.7604 8.13799C79.2751 8.13799 78.7291 8.22465 78.1224 8.39799C77.5331 8.55399 76.9957 8.77066 76.5104 9.04799V19.812H74.0664V6.75999L76.0424 6.55199L76.1984 7.46199C77.6197 6.62999 79.0324 6.21399 80.4364 6.21399C81.8751 6.21399 82.9844 6.59532 83.7644 7.35799C84.5617 8.10332 84.9604 9.16932 84.9604 10.556V19.812H82.5164Z" fill="white"/>
<path d="M68.1508 19.864L67.9948 18.954C66.5735 19.786 65.1608 20.202 63.7568 20.202C62.3528 20.202 61.2608 19.8207 60.4808 19.058C59.7008 18.2953 59.3108 17.2293 59.3108 15.86V6.604H61.7548V15.496C61.7548 17.3507 62.6475 18.278 64.4328 18.278C64.9355 18.278 65.4815 18.2 66.0708 18.044C66.6601 17.8707 67.1975 17.6453 67.6828 17.368V6.604H70.1268V19.656L68.1508 19.864Z" fill="white"/>
<path d="M46.7156 19.812V10.92C46.7156 9.06532 45.797 8.13799 43.9596 8.13799C43.4743 8.13799 42.9283 8.22465 42.3216 8.39799C41.7323 8.55399 41.195 8.77066 40.7096 9.04799V19.812H38.2656V6.75999L40.2416 6.55199L40.3976 7.46199C41.819 6.62999 43.2316 6.21399 44.6356 6.21399C46.0743 6.21399 47.1836 6.59532 47.9636 7.35799C48.761 8.10332 49.1596 9.16932 49.1596 10.556V19.812H46.7156Z" fill="white"/>
<path d="M28.7695 19.812V6.75999L30.7455 6.55199L30.9535 7.74799C32.0975 6.77733 33.3195 6.29199 34.6195 6.29199C35.0182 6.29199 35.4169 6.35266 35.8155 6.47399V8.47599C35.3995 8.37199 34.9749 8.31999 34.5415 8.31999C33.2935 8.31999 32.1842 8.70999 31.2135 9.48999V19.812H28.7695Z" fill="white"/>
<path d="M22.9934 19.864L22.8374 18.954C21.3814 19.786 19.9688 20.202 18.5994 20.202C17.2301 20.202 16.1381 19.838 15.3234 19.11C14.5261 18.3647 14.1274 17.368 14.1274 16.12C14.1274 14.82 14.5781 13.8147 15.4794 13.104C16.3808 12.376 17.6461 12.012 19.2754 12.012C20.2288 12.012 21.3294 12.1247 22.5774 12.35V10.972C22.5774 10.0187 22.3001 9.30799 21.7454 8.83999C21.2081 8.37199 20.3761 8.13799 19.2494 8.13799C17.9321 8.13799 16.4934 8.44132 14.9334 9.04799V7.14999C15.6614 6.85532 16.4501 6.62999 17.2994 6.47399C18.1488 6.30066 18.9548 6.21399 19.7174 6.21399C21.4334 6.21399 22.7334 6.61266 23.6174 7.40999C24.5188 8.20732 24.9694 9.37732 24.9694 10.92V19.656L22.9934 19.864ZM19.2234 18.304C19.7261 18.304 20.2894 18.2173 20.9134 18.044C21.5374 17.8707 22.0921 17.6453 22.5774 17.368V14.04C21.7628 13.832 20.8008 13.728 19.6914 13.728C18.6514 13.728 17.8801 13.9273 17.3774 14.326C16.8921 14.7073 16.6494 15.288 16.6494 16.068C16.6494 17.5587 17.5074 18.304 19.2234 18.304Z" fill="white"/>
<path d="M3.522 11.622V17.732H12.102V19.812H1V1.612H12.05V3.692H3.522V9.542H10.958V11.622H3.522Z" fill="white"/>
</svg>
