<svg width="398" height="24" viewBox="0 0 398 24" fill="none" xmlns="http://www.w3.org/2000/svg">
<path d="M384.497 22.8626V0.330036L387.317 0V14.1616L393.588 7.62085H396.828L390.017 14.7016L397.158 22.8626H393.738L387.317 15.3917V22.8626H384.497Z" fill="white"/>
<path d="M381.024 22.3225C379.644 22.9825 378.114 23.3126 376.433 23.3126C374.233 23.3126 372.533 22.6125 371.333 21.2123C370.133 19.8122 369.533 17.832 369.533 15.2717C369.533 12.6914 370.133 10.7012 371.333 9.30101C372.553 7.88085 374.263 7.17078 376.463 7.17078C378.004 7.17078 379.494 7.50081 380.934 8.16089V10.3211C379.554 9.72106 378.234 9.42103 376.974 9.42103C375.493 9.42103 374.373 9.91108 373.613 10.8912C372.853 11.8713 372.473 13.3215 372.473 15.2417C372.473 17.1419 372.853 18.5921 373.613 19.5922C374.373 20.5723 375.493 21.0623 376.974 21.0623C378.234 21.0623 379.584 20.7623 381.024 20.1622V22.3225Z" fill="white"/>
<path d="M363.767 22.9225L363.587 21.8724C361.907 22.8325 360.277 23.3126 358.697 23.3126C357.117 23.3126 355.856 22.8925 354.916 22.0524C353.996 21.1923 353.536 20.0422 353.536 18.6021C353.536 17.1019 354.056 15.9418 355.096 15.1217C356.136 14.2816 357.597 13.8615 359.477 13.8615C360.577 13.8615 361.847 13.9915 363.287 14.2516V12.6614C363.287 11.5613 362.967 10.7412 362.327 10.2011C361.707 9.66105 360.747 9.39102 359.447 9.39102C357.927 9.39102 356.266 9.74106 354.466 10.4411V8.2509C355.306 7.91086 356.216 7.65083 357.197 7.47081C358.177 7.27079 359.107 7.17078 359.987 7.17078C361.967 7.17078 363.467 7.63083 364.487 8.55093C365.527 9.47103 366.048 10.8212 366.048 12.6014V22.6825L363.767 22.9225ZM359.417 21.1223C359.997 21.1223 360.647 21.0223 361.367 20.8223C362.087 20.6223 362.727 20.3622 363.287 20.0422V16.2018C362.347 15.9618 361.237 15.8417 359.957 15.8417C358.757 15.8417 357.867 16.0718 357.287 16.5318C356.726 16.9719 356.446 17.6419 356.446 18.542C356.446 20.2622 357.437 21.1223 359.417 21.1223Z" fill="white"/>
<path d="M340.202 8.37093C341.702 7.57084 343.113 7.1708 344.433 7.1708C346.393 7.1708 347.923 7.87088 349.023 9.27103C350.143 10.6512 350.703 12.5614 350.703 15.0017C350.703 17.682 350.023 19.7422 348.663 21.1824C347.303 22.6025 345.363 23.3126 342.842 23.3126C341.042 23.3126 339.222 23.0526 337.382 22.5325V0.330036L340.202 0V8.37093ZM343.773 9.39105C343.232 9.39105 342.632 9.49106 341.972 9.69108C341.332 9.8711 340.742 10.1211 340.202 10.4412V20.7623C341.042 21.0023 341.932 21.1224 342.872 21.1224C344.513 21.1224 345.733 20.6223 346.533 19.6222C347.353 18.6221 347.763 17.1019 347.763 15.0617C347.763 13.2015 347.423 11.7913 346.743 10.8312C346.083 9.8711 345.093 9.39105 343.773 9.39105Z" fill="white"/>
<path d="M312.917 22.8626V0.330036L315.737 0V8.40094C317.277 7.58084 318.787 7.1708 320.267 7.1708C321.928 7.1708 323.208 7.61085 324.108 8.49095C325.028 9.35104 325.488 10.5812 325.488 12.1814V22.8626H322.668V12.6014C322.668 10.4612 321.607 9.39105 319.487 9.39105C318.927 9.39105 318.297 9.49106 317.597 9.69108C316.917 9.8711 316.297 10.1211 315.737 10.4412V22.8626H312.917Z" fill="white"/>
<path d="M298.212 20.0722C299.813 20.7723 301.413 21.1223 303.013 21.1223C304.173 21.1223 305.053 20.9023 305.653 20.4623C306.273 20.0222 306.583 19.3921 306.583 18.572C306.583 18.032 306.413 17.5919 306.073 17.2519C305.733 16.9119 305.173 16.6218 304.393 16.3818L302.353 15.7517C300.993 15.3317 300.003 14.7916 299.383 14.1316C298.762 13.4715 298.452 12.6314 298.452 11.6113C298.452 10.2511 298.982 9.171 300.043 8.37091C301.103 7.57082 302.533 7.17078 304.333 7.17078C305.853 7.17078 307.303 7.47081 308.684 8.07088V10.2311C307.163 9.65105 305.773 9.36102 304.513 9.36102C303.493 9.36102 302.693 9.56104 302.113 9.96109C301.553 10.3411 301.273 10.8612 301.273 11.5213C301.273 12.0013 301.423 12.3814 301.723 12.6614C302.023 12.9214 302.583 13.1814 303.403 13.4415L305.683 14.1316C308.164 14.8716 309.404 16.3418 309.404 18.542C309.404 20.0822 308.874 21.2623 307.813 22.0824C306.753 22.9025 305.223 23.3126 303.223 23.3126C301.363 23.3126 299.803 23.0025 298.542 22.3825L298.212 20.0722Z" fill="white"/>
<path d="M292.597 22.9225L292.417 21.8724C290.737 22.8325 289.106 23.3126 287.526 23.3126C285.946 23.3126 284.686 22.8925 283.746 22.0524C282.826 21.1923 282.366 20.0422 282.366 18.6021C282.366 17.1019 282.886 15.9418 283.926 15.1217C284.966 14.2816 286.426 13.8615 288.306 13.8615C289.407 13.8615 290.677 13.9915 292.117 14.2516V12.6614C292.117 11.5613 291.797 10.7412 291.157 10.2011C290.537 9.66105 289.577 9.39102 288.276 9.39102C286.756 9.39102 285.096 9.74106 283.296 10.4411V8.2509C284.136 7.91086 285.046 7.65083 286.026 7.47081C287.006 7.27079 287.936 7.17078 288.816 7.17078C290.797 7.17078 292.297 7.63083 293.317 8.55093C294.357 9.47103 294.877 10.8212 294.877 12.6014V22.6825L292.597 22.9225ZM288.246 21.1223C288.826 21.1223 289.477 21.0223 290.197 20.8223C290.917 20.6223 291.557 20.3622 292.117 20.0422V16.2018C291.177 15.9618 290.067 15.8417 288.786 15.8417C287.586 15.8417 286.696 16.0718 286.116 16.5318C285.556 16.9719 285.276 17.6419 285.276 18.542C285.276 20.2622 286.266 21.1223 288.246 21.1223Z" fill="white"/>
<path d="M279.733 22.3225C278.353 22.9825 276.823 23.3126 275.142 23.3126C272.942 23.3126 271.242 22.6125 270.042 21.2123C268.842 19.8122 268.242 17.832 268.242 15.2717C268.242 12.6914 268.842 10.7012 270.042 9.30101C271.262 7.88085 272.972 7.17078 275.172 7.17078C276.713 7.17078 278.203 7.50081 279.643 8.16089V10.3211C278.263 9.72106 276.943 9.42103 275.683 9.42103C274.202 9.42103 273.082 9.91108 272.322 10.8912C271.562 11.8713 271.182 13.3215 271.182 15.2417C271.182 17.1419 271.562 18.5921 272.322 19.5922C273.082 20.5723 274.202 21.0623 275.683 21.0623C276.943 21.0623 278.293 20.7623 279.733 20.1622V22.3225Z" fill="white"/>
<path d="M238.903 22.8626L249.674 2.31026H252.164L241.393 22.8626H238.903ZM237.702 13.5615C238.583 13.5615 239.223 13.1815 239.623 12.4214C240.023 11.6413 240.223 10.3912 240.223 8.67097C240.223 6.95078 240.023 5.71064 239.623 4.95055C239.223 4.17047 238.583 3.78042 237.702 3.78042C236.822 3.78042 236.182 4.17047 235.782 4.95055C235.382 5.71064 235.182 6.95078 235.182 8.67097C235.182 10.3912 235.382 11.6413 235.782 12.4214C236.182 13.1815 236.822 13.5615 237.702 13.5615ZM237.702 15.3317C236.082 15.3317 234.842 14.7616 233.982 13.6215C233.122 12.4614 232.692 10.8112 232.692 8.67097C232.692 6.53073 233.122 4.89055 233.982 3.75042C234.842 2.59029 236.082 2.01022 237.702 2.01022C239.323 2.01022 240.563 2.59029 241.423 3.75042C242.283 4.89055 242.713 6.53073 242.713 8.67097C242.713 10.8112 242.283 12.4614 241.423 13.6215C240.563 14.7616 239.323 15.3317 237.702 15.3317ZM253.364 21.3924C254.244 21.3924 254.884 21.0123 255.284 20.2523C255.684 19.4722 255.884 18.222 255.884 16.5018C255.884 14.7816 255.684 13.5415 255.284 12.7814C254.884 12.0013 254.244 11.6113 253.364 11.6113C252.484 11.6113 251.844 12.0013 251.444 12.7814C251.044 13.5415 250.844 14.7816 250.844 16.5018C250.844 18.222 251.044 19.4722 251.444 20.2523C251.844 21.0123 252.484 21.3924 253.364 21.3924ZM253.364 23.1626C251.744 23.1626 250.504 22.5925 249.644 21.4524C248.784 20.2923 248.354 18.6421 248.354 16.5018C248.354 14.3616 248.784 12.7214 249.644 11.5813C250.504 10.4212 251.744 9.8411 253.364 9.8411C254.984 9.8411 256.225 10.4212 257.085 11.5813C257.945 12.7214 258.375 14.3616 258.375 16.5018C258.375 18.6421 257.945 20.2923 257.085 21.4524C256.225 22.5925 254.984 23.1626 253.364 23.1626Z" fill="white"/>
<path d="M216.845 19.7722C218.665 20.6323 220.456 21.0624 222.216 21.0624C223.876 21.0624 225.156 20.6623 226.056 19.8622C226.956 19.0421 227.406 17.892 227.406 16.4118C227.406 15.0717 227.026 14.0316 226.266 13.2915C225.526 12.5514 224.466 12.1814 223.086 12.1814C222.366 12.1814 221.636 12.2814 220.896 12.4814C220.176 12.6614 219.546 12.9214 219.005 13.2615L217.625 12.3314L218.585 2.31026H226.296C227.376 2.31026 228.367 2.27025 229.267 2.19025V4.68052H220.896L220.326 10.8312C220.826 10.6112 221.396 10.4312 222.036 10.2912C222.676 10.1511 223.296 10.0811 223.896 10.0811C225.856 10.0811 227.416 10.6612 228.577 11.8213C229.757 12.9815 230.347 14.5216 230.347 16.4418C230.347 17.862 230.017 19.0921 229.357 20.1322C228.717 21.1524 227.806 21.9425 226.626 22.5025C225.466 23.0426 224.126 23.3126 222.606 23.3126C221.626 23.3126 220.656 23.2126 219.696 23.0126C218.735 22.8125 217.905 22.5425 217.205 22.2025L216.845 19.7722Z" fill="white"/>
<path d="M212.267 23.0126C211.727 23.0126 211.287 22.8426 210.947 22.5025C210.607 22.1625 210.437 21.7224 210.437 21.1824C210.437 20.6423 210.607 20.2023 210.947 19.8622C211.287 19.5222 211.727 19.3522 212.267 19.3522C212.807 19.3522 213.247 19.5222 213.587 19.8622C213.927 20.2023 214.097 20.6423 214.097 21.1824C214.097 21.7224 213.927 22.1625 213.587 22.5025C213.247 22.8426 212.807 23.0126 212.267 23.0126Z" fill="white"/>
<path d="M203.391 22.8625V5.31058L198.381 8.58094L197.811 6.24068L203.841 2.31024H206.211V22.8625H203.391Z" fill="white"/>
<path d="M187.627 0V22.6825L185.347 22.9226L185.167 21.8724C183.587 22.8325 182.057 23.3126 180.576 23.3126C178.616 23.3126 177.076 22.6225 175.956 21.2424C174.856 19.8422 174.306 17.922 174.306 15.4817C174.306 12.8414 174.956 10.8012 176.256 9.36104C177.556 7.90088 179.386 7.1708 181.746 7.1708C182.887 7.1708 183.907 7.31082 184.807 7.59085V0.330036L187.627 0ZM181.236 21.0924C181.776 21.0924 182.367 21.0023 183.007 20.8223C183.667 20.6223 184.267 20.3623 184.807 20.0422V9.72108C183.967 9.48106 183.077 9.36104 182.137 9.36104C180.496 9.36104 179.266 9.8611 178.446 10.8612C177.646 11.8613 177.246 13.3815 177.246 15.4217C177.246 17.2819 177.576 18.6921 178.236 19.6522C178.916 20.6123 179.916 21.0924 181.236 21.0924Z" fill="white"/>
<path d="M170.842 22.2925C169.462 22.9725 167.922 23.3126 166.221 23.3126C163.741 23.3126 161.851 22.6225 160.551 21.2423C159.251 19.8622 158.601 17.842 158.601 15.1817C158.601 13.5415 158.891 12.1213 159.471 10.9212C160.051 9.70106 160.861 8.77095 161.901 8.13088C162.941 7.49081 164.131 7.17078 165.471 7.17078C167.352 7.17078 168.832 7.73084 169.912 8.85096C170.992 9.97109 171.532 11.5213 171.532 13.5015C171.532 14.2816 171.462 15.0517 171.322 15.8117H161.391C161.451 19.3521 163.171 21.1223 166.551 21.1223C168.012 21.1223 169.442 20.8023 170.842 20.1622V22.2925ZM165.471 9.24101C164.311 9.24101 163.361 9.65105 162.621 10.4711C161.901 11.2912 161.491 12.4014 161.391 13.8015H168.922C168.942 13.7015 168.952 13.6015 168.952 13.5015C168.952 13.4015 168.952 13.3015 168.952 13.2014C168.952 11.9613 168.642 10.9912 168.022 10.2911C167.422 9.59105 166.571 9.24101 165.471 9.24101Z" fill="white"/>
<path d="M152.081 9.66108V18.4221C152.081 19.3222 152.281 19.9922 152.681 20.4323C153.081 20.8523 153.691 21.0624 154.511 21.0624C155.131 21.0624 155.791 20.9523 156.492 20.7323V22.7425C155.651 23.0626 154.781 23.2226 153.881 23.2226C152.361 23.2226 151.211 22.8226 150.431 22.0225C149.651 21.2224 149.261 20.0522 149.261 18.5121V9.66108H146.98V7.74087L149.381 7.65086L149.591 3.84043L152.081 3.5704V7.62086H156.342V9.66108H152.081Z" fill="white"/>
<path d="M141.247 22.8625V7.86088L144.067 7.53084V22.8625H141.247ZM142.657 4.5005C142.077 4.5005 141.617 4.35048 141.277 4.05045C140.957 3.73042 140.797 3.30037 140.797 2.76031C140.797 2.22025 140.957 1.8002 141.277 1.50017C141.617 1.18013 142.077 1.02011 142.657 1.02011C143.237 1.02011 143.687 1.18013 144.007 1.50017C144.347 1.8002 144.517 2.22025 144.517 2.76031C144.517 3.30037 144.347 3.73042 144.007 4.05045C143.687 4.35048 143.237 4.5005 142.657 4.5005Z" fill="white"/>
<path d="M134.051 22.8625V12.2713C134.051 10.3511 133.121 9.39102 131.261 9.39102C130.14 9.39102 128.96 9.76106 127.72 10.5011C127.82 10.9412 127.87 11.3812 127.87 11.8213V22.8625H125.05V12.2713C125.05 10.3511 124.12 9.39102 122.26 9.39102C121.159 9.39102 120.029 9.74106 118.869 10.4411V22.8625H116.049V7.80085L118.329 7.56082L118.509 8.61094C120.049 7.65083 121.559 7.17078 123.04 7.17078C124.76 7.17078 126.06 7.72084 126.94 8.82096C128.74 7.72084 130.44 7.17078 132.041 7.17078C133.541 7.17078 134.721 7.58082 135.581 8.40091C136.441 9.221 136.871 10.3611 136.871 11.8213V22.8625H134.051Z" fill="white"/>
<path d="M108.665 22.8625V7.86088L111.485 7.53084V22.8625H108.665ZM110.075 4.5005C109.495 4.5005 109.035 4.35048 108.695 4.05045C108.375 3.73042 108.215 3.30037 108.215 2.76031C108.215 2.22025 108.375 1.8002 108.695 1.50017C109.035 1.18013 109.495 1.02011 110.075 1.02011C110.655 1.02011 111.105 1.18013 111.425 1.50017C111.765 1.8002 111.935 2.22025 111.935 2.76031C111.935 3.30037 111.765 3.73042 111.425 4.05045C111.105 4.35048 110.655 4.5005 110.075 4.5005Z" fill="white"/>
<path d="M101.281 22.8626V0.330036L104.102 0V22.8626H101.281Z" fill="white"/>
<path d="M94.068 22.8625V12.6014C94.068 10.4611 93.0079 9.39102 90.8876 9.39102C90.3276 9.39102 89.6975 9.49103 88.9974 9.69106C88.3173 9.87108 87.6973 10.1211 87.1372 10.4411V22.8625H84.3169V7.80085L86.5971 7.56082L86.7772 8.61094C88.4174 7.65083 90.0475 7.17078 91.6677 7.17078C93.3279 7.17078 94.608 7.61083 95.5081 8.49092C96.4282 9.35102 96.8883 10.5812 96.8883 12.1813V22.8625H94.068Z" fill="white"/>
<path d="M77.4902 22.9226L77.3102 21.8724C75.67 22.8325 74.0398 23.3126 72.4196 23.3126C70.7995 23.3126 69.5393 22.8726 68.6392 21.9925C67.7391 21.1124 67.2891 19.8822 67.2891 18.302V7.62085H70.1094V17.882C70.1094 20.0222 71.1395 21.0924 73.1997 21.0924C73.7798 21.0924 74.4099 21.0023 75.0899 20.8223C75.77 20.6223 76.3901 20.3623 76.9501 20.0422V7.62085H79.7705V22.6825L77.4902 22.9226Z" fill="white"/>
<path d="M52.7545 22.8625V12.6014C52.7545 10.4611 51.6944 9.39102 49.5742 9.39102C49.0141 9.39102 48.384 9.49103 47.6839 9.69106C47.0039 9.87108 46.3838 10.1211 45.8237 10.4411V22.8625H43.0034V7.80085L45.2837 7.56082L45.4637 8.61094C47.1039 7.65083 48.7341 7.17078 50.3542 7.17078C52.0144 7.17078 53.2946 7.61083 54.1947 8.49092C55.1148 9.35102 55.5748 10.5812 55.5748 12.1813V22.8625H52.7545Z" fill="white"/>
<path d="M32.0454 22.8625V7.80086L34.3257 7.56084L34.5657 8.94099C35.8858 7.82087 37.296 7.2608 38.7962 7.2608C39.2562 7.2608 39.7163 7.33081 40.1763 7.47083V9.78108C39.6963 9.66107 39.2062 9.60106 38.7062 9.60106C37.266 9.60106 35.9859 10.0511 34.8657 10.9512V22.8625H32.0454Z" fill="white"/>
<path d="M25.3796 22.9225L25.1996 21.8724C23.5194 22.8325 21.8892 23.3126 20.309 23.3126C18.7288 23.3126 17.4687 22.8925 16.5286 22.0524C15.6085 21.1923 15.1484 20.0422 15.1484 18.6021C15.1484 17.1019 15.6685 15.9418 16.7086 15.1217C17.7487 14.2816 19.2089 13.8615 21.0891 13.8615C22.1892 13.8615 23.4594 13.9915 24.8995 14.2516V12.6614C24.8995 11.5613 24.5795 10.7412 23.9394 10.2011C23.3193 9.66105 22.3592 9.39102 21.0591 9.39102C19.5389 9.39102 17.8787 9.74106 16.0785 10.4411V8.2509C16.9186 7.91086 17.8287 7.65083 18.8088 7.47081C19.789 7.27079 20.7191 7.17078 21.5992 7.17078C23.5794 7.17078 25.0795 7.63083 26.0997 8.55093C27.1398 9.47103 27.6598 10.8212 27.6598 12.6014V22.6825L25.3796 22.9225ZM21.0291 21.1223C21.6092 21.1223 22.2592 21.0223 22.9793 20.8223C23.6994 20.6223 24.3395 20.3622 24.8995 20.0422V16.2018C23.9594 15.9618 22.8493 15.8417 21.5692 15.8417C20.369 15.8417 19.4789 16.0718 18.8989 16.5318C18.3388 16.9719 18.0588 17.6419 18.0588 18.542C18.0588 20.2622 19.0489 21.1223 21.0291 21.1223Z" fill="white"/>
<path d="M2.91032 13.4115V20.4623H12.8114V22.8625H0V1.8602H12.7514V4.26047H2.91032V11.0112H11.4913V13.4115H2.91032Z" fill="white"/>
</svg>
