<svg width="306" height="32" viewBox="0 0 306 32" fill="none" xmlns="http://www.w3.org/2000/svg">
<path d="M303.821 24.4276C303.248 24.4276 302.781 24.2471 302.42 23.8862C302.059 23.5252 301.878 23.0581 301.878 22.4848C301.878 21.9116 302.059 21.4445 302.42 21.0835C302.781 20.7226 303.248 20.5421 303.821 20.5421C304.394 20.5421 304.862 20.7226 305.223 21.0835C305.583 21.4445 305.764 21.9116 305.764 22.4848C305.764 23.0581 305.583 23.5252 305.223 23.8862C304.862 24.2471 304.394 24.4276 303.821 24.4276Z" fill="white"/>
<path d="M287.035 21.3065C288.733 22.0496 290.432 22.4211 292.13 22.4211C293.362 22.4211 294.296 22.1876 294.933 21.7205C295.591 21.2534 295.92 20.5846 295.92 19.7141C295.92 19.1408 295.74 18.6737 295.379 18.3127C295.018 17.9518 294.423 17.6439 293.595 17.3891L291.43 16.7203C289.986 16.2744 288.935 15.7012 288.277 15.0005C287.619 14.2999 287.289 13.4081 287.289 12.3253C287.289 10.8815 287.852 9.73494 288.977 8.88565C290.103 8.03637 291.621 7.61172 293.532 7.61172C295.145 7.61172 296.685 7.93021 298.15 8.56717V10.8602C296.536 10.2445 295.06 9.93665 293.723 9.93665C292.64 9.93665 291.791 10.149 291.175 10.5736C290.58 10.977 290.283 11.5291 290.283 12.2297C290.283 12.7393 290.442 13.1427 290.761 13.4399C291.079 13.716 291.674 13.992 292.544 14.268L294.965 15.0005C297.598 15.7861 298.914 17.3467 298.914 19.6822C298.914 21.3171 298.351 22.5698 297.226 23.4403C296.101 24.3108 294.477 24.7461 292.353 24.7461C290.379 24.7461 288.723 24.417 287.385 23.7588L287.035 21.3065Z" fill="white"/>
<path d="M280.273 10.2551V19.5548C280.273 20.5102 280.485 21.2215 280.91 21.6886C281.335 22.1345 281.982 22.3574 282.853 22.3574C283.511 22.3574 284.212 22.2407 284.955 22.0071V24.1409C284.063 24.4807 283.139 24.6505 282.184 24.6505C280.57 24.6505 279.349 24.2259 278.521 23.3766C277.693 22.5273 277.279 21.2852 277.279 19.6503V10.2551H274.859V8.21684L277.407 8.12129L277.63 4.07657L280.273 3.78993V8.08944H284.796V10.2551H280.273Z" fill="white"/>
<path d="M268.953 24.2683V13.3763C268.953 11.1044 267.828 9.96849 265.577 9.96849C264.983 9.96849 264.314 10.0747 263.571 10.287C262.849 10.4781 262.191 10.7435 261.596 11.0832V24.2683H258.603V8.28054L261.023 8.02575L261.214 9.14044C262.955 8.1213 264.686 7.61172 266.405 7.61172C268.168 7.61172 269.526 8.07883 270.482 9.01305C271.459 9.92603 271.947 11.2318 271.947 12.9304V24.2683H268.953Z" fill="white"/>
<path d="M251.356 24.332L251.165 23.2174C249.424 24.2365 247.694 24.7461 245.974 24.7461C244.254 24.7461 242.916 24.279 241.961 23.3447C241.006 22.4105 240.528 21.1047 240.528 19.4274V8.08945H243.522V18.9815C243.522 21.2534 244.615 22.3893 246.802 22.3893C247.418 22.3893 248.086 22.2937 248.808 22.1027C249.53 21.8903 250.188 21.6143 250.783 21.2746V8.08945H253.777V24.0773L251.356 24.332Z" fill="white"/>
<path d="M229.486 22.3893C230.972 22.3893 232.044 21.901 232.703 20.9243C233.382 19.9476 233.722 18.3658 233.722 16.1789C233.722 13.992 233.382 12.4102 232.703 11.4335C232.044 10.4568 230.972 9.96849 229.486 9.96849C228 9.96849 226.917 10.4568 226.237 11.4335C225.579 12.4102 225.25 13.992 225.25 16.1789C225.25 18.3658 225.579 19.9476 226.237 20.9243C226.917 21.901 228 22.3893 229.486 22.3893ZM229.486 24.7461C227.065 24.7461 225.229 24.0242 223.976 22.5804C222.745 21.1154 222.129 18.9815 222.129 16.1789C222.129 13.3763 222.745 11.253 223.976 9.80925C225.229 8.34424 227.065 7.61172 229.486 7.61172C231.906 7.61172 233.732 8.34424 234.964 9.80925C236.216 11.253 236.843 13.3763 236.843 16.1789C236.843 18.9815 236.216 21.1154 234.964 22.5804C233.732 24.0242 231.906 24.7461 229.486 24.7461Z" fill="white"/>
<path d="M219.709 23.6951C218.244 24.3957 216.619 24.7461 214.836 24.7461C212.5 24.7461 210.696 24.0029 209.422 22.5167C208.148 21.0304 207.511 18.9285 207.511 16.2107C207.511 13.4718 208.148 11.3592 209.422 9.87295C210.717 8.36547 212.532 7.61172 214.868 7.61172C216.503 7.61172 218.084 7.96206 219.613 8.66272V10.9558C218.148 10.3188 216.747 10.0003 215.409 10.0003C213.838 10.0003 212.649 10.5205 211.842 11.5609C211.035 12.6013 210.632 14.1406 210.632 16.1789C210.632 18.1959 211.035 19.7353 211.842 20.7969C212.649 21.8373 213.838 22.3574 215.409 22.3574C216.747 22.3574 218.18 22.039 219.709 21.402V23.6951Z" fill="white"/>
<path d="M205.091 23.6951C203.626 24.3957 202.002 24.7461 200.218 24.7461C197.883 24.7461 196.078 24.0029 194.804 22.5167C193.53 21.0304 192.893 18.9285 192.893 16.2107C192.893 13.4718 193.53 11.3592 194.804 9.87295C196.099 8.36547 197.914 7.61172 200.25 7.61172C201.885 7.61172 203.467 7.96206 204.995 8.66272V10.9558C203.53 10.3188 202.129 10.0003 200.791 10.0003C199.22 10.0003 198.031 10.5205 197.224 11.5609C196.418 12.6013 196.014 14.1406 196.014 16.1789C196.014 18.1959 196.418 19.7353 197.224 20.7969C198.031 21.8373 199.22 22.3574 200.791 22.3574C202.129 22.3574 203.562 22.039 205.091 21.402V23.6951Z" fill="white"/>
<path d="M186.773 24.332L186.582 23.2174C184.799 24.2365 183.068 24.7461 181.391 24.7461C179.714 24.7461 178.376 24.3002 177.378 23.4084C176.401 22.4955 175.913 21.2746 175.913 19.7459C175.913 18.1535 176.465 16.922 177.569 16.0515C178.673 15.1597 180.223 14.7139 182.219 14.7139C183.387 14.7139 184.735 14.8519 186.264 15.1279V13.4399C186.264 12.2722 185.924 11.4017 185.245 10.8284C184.586 10.2551 183.567 9.96849 182.187 9.96849C180.574 9.96849 178.811 10.3401 176.9 11.0832V8.75826C177.792 8.39732 178.758 8.1213 179.799 7.93021C180.839 7.71789 181.826 7.61172 182.76 7.61172C184.862 7.61172 186.455 8.10007 187.538 9.07674C188.642 10.0534 189.194 11.4866 189.194 13.3763V24.0773L186.773 24.332ZM182.155 22.4211C182.771 22.4211 183.461 22.315 184.225 22.1027C184.99 21.8903 185.669 21.6143 186.264 21.2746V17.198C185.266 16.9433 184.087 16.8159 182.729 16.8159C181.455 16.8159 180.51 17.06 179.894 17.5484C179.3 18.0155 179.002 18.7268 179.002 19.6822C179.002 21.5082 180.053 22.4211 182.155 22.4211Z" fill="white"/>
<path d="M156.377 31.7845C154.381 31.7845 152.714 31.4448 151.377 30.7654L151.027 28.3131C152.725 29.0562 154.424 29.4277 156.122 29.4277C159.371 29.4277 160.995 27.9627 160.995 25.0327V23.1855C159.403 24.0348 157.906 24.4594 156.504 24.4594C154.424 24.4594 152.789 23.7482 151.6 22.3256C150.432 20.903 149.848 18.9391 149.848 16.4337C149.848 13.5886 150.57 11.4123 152.014 9.9048C153.458 8.37608 155.517 7.61172 158.192 7.61172C159.042 7.61172 159.976 7.71789 160.995 7.93021C162.035 8.1213 163.033 8.3867 163.989 8.72641V24.6505C163.989 26.9436 163.331 28.7059 162.014 29.9373C160.698 31.1688 158.819 31.7845 156.377 31.7845ZM157.205 22.1027C157.778 22.1027 158.405 22.0071 159.084 21.816C159.785 21.6037 160.422 21.3277 160.995 20.988V10.3188C160.103 10.064 159.158 9.93665 158.161 9.93665C156.42 9.93665 155.114 10.4674 154.243 11.5291C153.394 12.5907 152.969 14.2043 152.969 16.37C152.969 18.2596 153.32 19.6928 154.02 20.6695C154.742 21.6249 155.804 22.1027 157.205 22.1027Z" fill="white"/>
<path d="M143.147 24.2683V13.3763C143.147 11.1044 142.021 9.96849 139.771 9.96849C139.176 9.96849 138.507 10.0747 137.764 10.287C137.042 10.4781 136.384 10.7435 135.79 11.0832V24.2683H132.796V8.28054L135.216 8.02575L135.407 9.14044C137.148 8.1213 138.879 7.61172 140.599 7.61172C142.361 7.61172 143.72 8.07883 144.675 9.01305C145.652 9.92603 146.14 11.2318 146.14 12.9304V24.2683H143.147Z" fill="white"/>
<path d="M124.958 24.2683V8.34423L127.952 7.9939V24.2683H124.958ZM126.455 4.77723C125.839 4.77723 125.351 4.61799 124.99 4.29951C124.65 3.9598 124.48 3.50331 124.48 2.93004C124.48 2.35677 124.65 1.9109 124.99 1.59241C125.351 1.2527 125.839 1.08284 126.455 1.08284C127.071 1.08284 127.549 1.2527 127.888 1.59241C128.249 1.9109 128.43 2.35677 128.43 2.93004C128.43 3.50331 128.249 3.9598 127.888 4.29951C127.549 4.61799 127.071 4.77723 126.455 4.77723Z" fill="white"/>
<path d="M109.096 24.2683V0.35033L112.09 0V15.0324L118.746 8.08945H122.186L114.956 15.6056L122.536 24.2683H118.905L112.09 16.3381V24.2683H109.096Z" fill="white"/>
<path d="M105.41 23.6951C103.945 24.3957 102.321 24.7461 100.537 24.7461C98.2015 24.7461 96.3967 24.0029 95.1228 22.5167C93.8489 21.0304 93.2119 18.9285 93.2119 16.2107C93.2119 13.4718 93.8489 11.3592 95.1228 9.87295C96.418 8.36547 98.2333 7.61172 100.569 7.61172C102.204 7.61172 103.786 7.96206 105.314 8.66272V10.9558C103.849 10.3188 102.448 10.0003 101.11 10.0003C99.5391 10.0003 98.3501 10.5205 97.5433 11.5609C96.7364 12.6013 96.333 14.1406 96.333 16.1789C96.333 18.1959 96.7364 19.7353 97.5433 20.7969C98.3501 21.8373 99.5391 22.3574 101.11 22.3574C102.448 22.3574 103.881 22.039 105.41 21.402V23.6951Z" fill="white"/>
<path d="M89.5356 23.6632C88.0706 24.3851 86.4357 24.7461 84.631 24.7461C81.9982 24.7461 79.9917 24.0136 78.6116 22.5485C77.2315 21.0835 76.5415 18.9391 76.5415 16.1152C76.5415 14.3742 76.8494 12.8667 77.4651 11.5928C78.0808 10.2976 78.9407 9.3103 80.0448 8.63087C81.1489 7.95144 82.4122 7.61172 83.8347 7.61172C85.8306 7.61172 87.4017 8.20623 88.5483 9.39523C89.6948 10.5842 90.2681 12.2297 90.2681 14.3317C90.2681 15.1598 90.1938 15.9772 90.0451 16.784H79.5034C79.5671 20.5421 81.393 22.4211 84.9813 22.4211C86.5312 22.4211 88.0493 22.0814 89.5356 21.402V23.6632ZM83.8347 9.80925C82.6033 9.80925 81.5948 10.2445 80.8092 11.115C80.0448 11.9855 79.6095 13.1639 79.5034 14.6502H87.4973C87.5185 14.544 87.5291 14.4379 87.5291 14.3317C87.5291 14.2255 87.5291 14.1194 87.5291 14.0132C87.5291 12.6968 87.2 11.6671 86.5418 10.9239C85.9049 10.1808 85.0025 9.80925 83.8347 9.80925Z" fill="white"/>
<path d="M59.4888 24.2683V0.35033L62.4825 0V8.9175C64.1174 8.04698 65.7204 7.61172 67.2916 7.61172C69.0538 7.61172 70.4127 8.07883 71.3682 9.01304C72.3448 9.92602 72.8332 11.2318 72.8332 12.9304V24.2683H69.8394V13.3762C69.8394 11.1044 68.7141 9.96849 66.4635 9.96849C65.869 9.96849 65.2002 10.0746 64.4571 10.287C63.7352 10.4781 63.077 10.7435 62.4825 11.0832V24.2683H59.4888Z" fill="white"/>
<path d="M55.8024 23.6951C54.3373 24.3957 52.7131 24.7461 50.9296 24.7461C48.594 24.7461 46.7893 24.0029 45.5154 22.5167C44.2415 21.0304 43.6045 18.9285 43.6045 16.2107C43.6045 13.4718 44.2415 11.3592 45.5154 9.87295C46.8105 8.36547 48.6259 7.61172 50.9614 7.61172C52.5963 7.61172 54.1781 7.96206 55.7068 8.66272V10.9558C54.2418 10.3188 52.8405 10.0003 51.5028 10.0003C49.9317 10.0003 48.7427 10.5205 47.9358 11.5609C47.129 12.6013 46.7256 14.1406 46.7256 16.1789C46.7256 18.1959 47.129 19.7353 47.9358 20.7969C48.7427 21.8373 49.9317 22.3574 51.5028 22.3574C52.8405 22.3574 54.2736 22.039 55.8024 21.402V23.6951Z" fill="white"/>
<path d="M28.941 24.2683V13.3763C28.941 11.1044 27.8157 9.96849 25.5651 9.96849C24.9706 9.96849 24.3018 10.0747 23.5587 10.287C22.8368 10.4781 22.1786 10.7435 21.5841 11.0832V24.2683H18.5903V8.28054L21.0108 8.02575L21.2019 9.14044C22.9429 8.1213 24.6733 7.61172 26.3931 7.61172C28.1554 7.61172 29.5143 8.07883 30.4697 9.01305C31.4464 9.92603 31.9347 11.2318 31.9347 12.9304V24.2683H28.941Z" fill="white"/>
<path d="M7.35694 22.3893C8.84319 22.3893 9.91541 21.901 10.5736 20.9243C11.253 19.9476 11.5928 18.3658 11.5928 16.1789C11.5928 13.992 11.253 12.4102 10.5736 11.4335C9.91541 10.4568 8.84319 9.96849 7.35694 9.96849C5.87069 9.96849 4.78785 10.4568 4.10842 11.4335C3.45022 12.4102 3.12112 13.992 3.12112 16.1789C3.12112 18.3658 3.45022 19.9476 4.10842 20.9243C4.78785 21.901 5.87069 22.3893 7.35694 22.3893ZM7.35694 24.7461C4.93647 24.7461 3.09989 24.0242 1.8472 22.5804C0.615732 21.1154 0 18.9815 0 16.1789C0 13.3763 0.615732 11.253 1.8472 9.80925C3.09989 8.34424 4.93647 7.61172 7.35694 7.61172C9.7774 7.61172 11.6034 8.34424 12.8348 9.80925C14.0875 11.253 14.7139 13.3763 14.7139 16.1789C14.7139 18.9815 14.0875 21.1154 12.8348 22.5804C11.6034 24.0242 9.7774 24.7461 7.35694 24.7461Z" fill="white"/>
</svg>
