<svg width="531" height="29" viewBox="0 0 531 29" fill="none" xmlns="http://www.w3.org/2000/svg">
<path d="M520.129 19.012C521.622 19.6653 523.116 19.992 524.609 19.992C525.692 19.992 526.513 19.7867 527.073 19.376C527.652 18.9653 527.941 18.3773 527.941 17.612C527.941 17.108 527.782 16.6973 527.465 16.38C527.148 16.0627 526.625 15.792 525.897 15.568L523.993 14.98C522.724 14.588 521.8 14.084 521.221 13.468C520.642 12.852 520.353 12.068 520.353 11.116C520.353 9.84665 520.848 8.83865 521.837 8.09198C522.826 7.34532 524.161 6.97198 525.841 6.97198C527.26 6.97198 528.613 7.25198 529.901 7.81198V9.82798C528.482 9.28665 527.185 9.01598 526.009 9.01598C525.057 9.01598 524.31 9.20265 523.769 9.57598C523.246 9.93065 522.985 10.416 522.985 11.032C522.985 11.48 523.125 11.8347 523.405 12.096C523.685 12.3387 524.208 12.5813 524.973 12.824L527.101 13.468C529.416 14.1587 530.573 15.5307 530.573 17.584C530.573 19.0213 530.078 20.1227 529.089 20.888C528.1 21.6533 526.672 22.036 524.805 22.036C523.069 22.036 521.613 21.7467 520.437 21.168L520.129 19.012Z" fill="white"/>
<path d="M514.184 9.296V17.472C514.184 18.312 514.371 18.9373 514.744 19.348C515.118 19.74 515.687 19.936 516.452 19.936C517.031 19.936 517.647 19.8333 518.3 19.628V21.504C517.516 21.8027 516.704 21.952 515.864 21.952C514.446 21.952 513.372 21.5787 512.644 20.832C511.916 20.0853 511.552 18.9933 511.552 17.556V9.296H509.424V7.504L511.664 7.42L511.86 3.864L514.184 3.612V7.392H518.16V9.296H514.184Z" fill="white"/>
<path d="M504.232 21.616V12.04C504.232 10.0427 503.243 9.04398 501.264 9.04398C500.741 9.04398 500.153 9.13732 499.5 9.32399C498.865 9.49199 498.287 9.72532 497.764 10.024V21.616H495.132V7.55998L497.26 7.33598L497.428 8.31598C498.959 7.41998 500.48 6.97198 501.992 6.97198C503.541 6.97198 504.736 7.38265 505.576 8.20398C506.435 9.00665 506.864 10.1547 506.864 11.648V21.616H504.232Z" fill="white"/>
<path d="M488.761 21.672L488.593 20.692C487.063 21.588 485.541 22.036 484.029 22.036C482.517 22.036 481.341 21.6253 480.501 20.804C479.661 19.9827 479.241 18.8347 479.241 17.36V7.392H481.873V16.968C481.873 18.9653 482.835 19.964 484.757 19.964C485.299 19.964 485.887 19.88 486.521 19.712C487.156 19.5253 487.735 19.2827 488.257 18.984V7.392H490.889V21.448L488.761 21.672Z" fill="white"/>
<path d="M469.533 19.964C470.84 19.964 471.783 19.5347 472.361 18.676C472.959 17.8173 473.257 16.4267 473.257 14.504C473.257 12.5813 472.959 11.1907 472.361 10.332C471.783 9.47332 470.84 9.04398 469.533 9.04398C468.227 9.04398 467.275 9.47332 466.677 10.332C466.099 11.1907 465.809 12.5813 465.809 14.504C465.809 16.4267 466.099 17.8173 466.677 18.676C467.275 19.5347 468.227 19.964 469.533 19.964ZM469.533 22.036C467.405 22.036 465.791 21.4013 464.689 20.132C463.607 18.844 463.065 16.968 463.065 14.504C463.065 12.04 463.607 10.1733 464.689 8.90398C465.791 7.61598 467.405 6.97198 469.533 6.97198C471.661 6.97198 473.267 7.61598 474.349 8.90398C475.451 10.1733 476.001 12.04 476.001 14.504C476.001 16.968 475.451 18.844 474.349 20.132C473.267 21.4013 471.661 22.036 469.533 22.036Z" fill="white"/>
<path d="M460.938 21.112C459.65 21.728 458.222 22.036 456.654 22.036C454.601 22.036 453.014 21.3827 451.894 20.076C450.774 18.7693 450.214 16.9213 450.214 14.532C450.214 12.124 450.774 10.2667 451.894 8.95998C453.033 7.63465 454.629 6.97198 456.682 6.97198C458.119 6.97198 459.51 7.27998 460.854 7.89598V9.91198C459.566 9.35198 458.334 9.07198 457.158 9.07198C455.777 9.07198 454.731 9.52932 454.022 10.444C453.313 11.3587 452.958 12.712 452.958 14.504C452.958 16.2773 453.313 17.6307 454.022 18.564C454.731 19.4787 455.777 19.936 457.158 19.936C458.334 19.936 459.594 19.656 460.938 19.096V21.112Z" fill="white"/>
<path d="M448.086 21.112C446.798 21.728 445.37 22.036 443.802 22.036C441.749 22.036 440.162 21.3827 439.042 20.076C437.922 18.7693 437.362 16.9213 437.362 14.532C437.362 12.124 437.922 10.2667 439.042 8.95998C440.181 7.63465 441.777 6.97198 443.83 6.97198C445.268 6.97198 446.658 7.27998 448.002 7.89598V9.91198C446.714 9.35198 445.482 9.07198 444.306 9.07198C442.925 9.07198 441.88 9.52932 441.17 10.444C440.461 11.3587 440.106 12.712 440.106 14.504C440.106 16.2773 440.461 17.6307 441.17 18.564C441.88 19.4787 442.925 19.936 444.306 19.936C445.482 19.936 446.742 19.656 448.086 19.096V21.112Z" fill="white"/>
<path d="M431.982 21.672L431.814 20.692C430.246 21.588 428.725 22.036 427.25 22.036C425.775 22.036 424.599 21.644 423.722 20.86C422.863 20.0573 422.434 18.984 422.434 17.64C422.434 16.24 422.919 15.1573 423.89 14.392C424.861 13.608 426.223 13.216 427.978 13.216C429.005 13.216 430.19 13.3373 431.534 13.58V12.096C431.534 11.0693 431.235 10.304 430.638 9.79998C430.059 9.29598 429.163 9.04398 427.95 9.04398C426.531 9.04398 424.982 9.37065 423.302 10.024V7.97998C424.086 7.66265 424.935 7.41998 425.85 7.25198C426.765 7.06532 427.633 6.97198 428.454 6.97198C430.302 6.97198 431.702 7.40132 432.654 8.25998C433.625 9.11865 434.11 10.3787 434.11 12.04V21.448L431.982 21.672ZM427.922 19.992C428.463 19.992 429.07 19.8987 429.742 19.712C430.414 19.5253 431.011 19.2827 431.534 18.984V15.4C430.657 15.176 429.621 15.064 428.426 15.064C427.306 15.064 426.475 15.2787 425.934 15.708C425.411 16.1187 425.15 16.744 425.15 17.584C425.15 19.1893 426.074 19.992 427.922 19.992Z" fill="white"/>
<path d="M405.259 28.224C403.504 28.224 402.039 27.9253 400.863 27.328L400.555 25.172C402.048 25.8253 403.541 26.152 405.035 26.152C407.891 26.152 409.319 24.864 409.319 22.288V20.664C407.919 21.4107 406.603 21.784 405.371 21.784C403.541 21.784 402.104 21.1587 401.059 19.908C400.032 18.6573 399.519 16.9307 399.519 14.728C399.519 12.2267 400.153 10.3133 401.423 8.98798C402.692 7.64398 404.503 6.97198 406.855 6.97198C407.601 6.97198 408.423 7.06532 409.319 7.25198C410.233 7.41998 411.111 7.65332 411.951 7.95198V21.952C411.951 23.968 411.372 25.5173 410.215 26.6C409.057 27.6827 407.405 28.224 405.259 28.224ZM405.987 19.712C406.491 19.712 407.041 19.628 407.639 19.46C408.255 19.2733 408.815 19.0307 409.319 18.732V9.35198C408.535 9.12798 407.704 9.01598 406.827 9.01598C405.296 9.01598 404.148 9.48265 403.383 10.416C402.636 11.3493 402.263 12.768 402.263 14.672C402.263 16.3333 402.571 17.5933 403.187 18.452C403.821 19.292 404.755 19.712 405.987 19.712Z" fill="white"/>
<path d="M393.626 21.616V12.04C393.626 10.0427 392.637 9.04398 390.658 9.04398C390.136 9.04398 389.548 9.13732 388.894 9.32399C388.26 9.49199 387.681 9.72532 387.158 10.024V21.616H384.526V7.55998L386.654 7.33598L386.822 8.31598C388.353 7.41998 389.874 6.97198 391.386 6.97198C392.936 6.97198 394.13 7.38265 394.97 8.20398C395.829 9.00665 396.258 10.1547 396.258 11.648V21.616H393.626Z" fill="white"/>
<path d="M377.636 21.616V7.616L380.268 7.308V21.616H377.636ZM378.952 4.47999C378.41 4.47999 377.981 4.33999 377.664 4.06C377.365 3.76133 377.216 3.36 377.216 2.856C377.216 2.352 377.365 1.95999 377.664 1.68C377.981 1.38133 378.41 1.23199 378.952 1.23199C379.493 1.23199 379.913 1.38133 380.212 1.68C380.529 1.95999 380.688 2.352 380.688 2.856C380.688 3.36 380.529 3.76133 380.212 4.06C379.913 4.33999 379.493 4.47999 378.952 4.47999Z" fill="white"/>
<path d="M363.69 21.616V0.588028L366.322 0.280029V13.496L372.174 7.39203H375.198L368.842 14L375.506 21.616H372.314L366.322 14.644V21.616H363.69Z" fill="white"/>
<path d="M360.45 21.112C359.162 21.728 357.734 22.036 356.166 22.036C354.112 22.036 352.526 21.3827 351.406 20.076C350.286 18.7693 349.726 16.9213 349.726 14.532C349.726 12.124 350.286 10.2667 351.406 8.95998C352.544 7.63465 354.14 6.97198 356.194 6.97198C357.631 6.97198 359.022 7.27998 360.366 7.89598V9.91198C359.078 9.35198 357.846 9.07198 356.67 9.07198C355.288 9.07198 354.243 9.52932 353.534 10.444C352.824 11.3587 352.47 12.712 352.47 14.504C352.47 16.2773 352.824 17.6307 353.534 18.564C354.243 19.4787 355.288 19.936 356.67 19.936C357.846 19.936 359.106 19.656 360.45 19.096V21.112Z" fill="white"/>
<path d="M346.493 21.084C345.205 21.7187 343.768 22.036 342.181 22.036C339.867 22.036 338.103 21.392 336.889 20.104C335.676 18.816 335.069 16.9307 335.069 14.448C335.069 12.9173 335.34 11.592 335.881 10.472C336.423 9.33332 337.179 8.46532 338.149 7.86798C339.12 7.27065 340.231 6.97198 341.481 6.97198C343.236 6.97198 344.617 7.49465 345.625 8.53998C346.633 9.58532 347.137 11.032 347.137 12.88C347.137 13.608 347.072 14.3267 346.941 15.036H337.673C337.729 18.34 339.335 19.992 342.489 19.992C343.852 19.992 345.187 19.6933 346.493 19.096V21.084ZM341.481 8.90398C340.399 8.90398 339.512 9.28665 338.821 10.052C338.149 10.8173 337.767 11.8533 337.673 13.16H344.701C344.72 13.0667 344.729 12.9733 344.729 12.88C344.729 12.7867 344.729 12.6933 344.729 12.6C344.729 11.4427 344.44 10.5373 343.861 9.88398C343.301 9.23065 342.508 8.90398 341.481 8.90398Z" fill="white"/>
<path d="M320.077 21.616V0.588028L322.709 0.280029V8.12003C324.147 7.3547 325.556 6.97203 326.937 6.97203C328.486 6.97203 329.681 7.3827 330.521 8.20403C331.38 9.0067 331.809 10.1547 331.809 11.648V21.616H329.177V12.04C329.177 10.0427 328.188 9.04403 326.209 9.04403C325.687 9.04403 325.098 9.13736 324.445 9.32403C323.81 9.49203 323.232 9.72536 322.709 10.024V21.616H320.077Z" fill="white"/>
<path d="M316.836 21.112C315.548 21.728 314.12 22.036 312.552 22.036C310.499 22.036 308.912 21.3827 307.792 20.076C306.672 18.7693 306.112 16.9213 306.112 14.532C306.112 12.124 306.672 10.2667 307.792 8.95998C308.931 7.63465 310.527 6.97198 312.58 6.97198C314.018 6.97198 315.408 7.27998 316.752 7.89598V9.91198C315.464 9.35198 314.232 9.07198 313.056 9.07198C311.675 9.07198 310.63 9.52932 309.92 10.444C309.211 11.3587 308.856 12.712 308.856 14.504C308.856 16.2773 309.211 17.6307 309.92 18.564C310.63 19.4787 311.675 19.936 313.056 19.936C314.232 19.936 315.492 19.656 316.836 19.096V21.112Z" fill="white"/>
<path d="M293.22 21.616V12.04C293.22 10.0427 292.231 9.04398 290.252 9.04398C289.729 9.04398 289.141 9.13732 288.488 9.32399C287.853 9.49199 287.275 9.72532 286.752 10.024V21.616H284.12V7.55998L286.248 7.33598L286.416 8.31598C287.947 7.41998 289.468 6.97198 290.98 6.97198C292.529 6.97198 293.724 7.38265 294.564 8.20398C295.423 9.00665 295.852 10.1547 295.852 11.648V21.616H293.22Z" fill="white"/>
<path d="M274.244 19.964C275.551 19.964 276.494 19.5347 277.072 18.676C277.67 17.8173 277.968 16.4267 277.968 14.504C277.968 12.5813 277.67 11.1907 277.072 10.332C276.494 9.47332 275.551 9.04398 274.244 9.04398C272.938 9.04398 271.986 9.47332 271.388 10.332C270.81 11.1907 270.52 12.5813 270.52 14.504C270.52 16.4267 270.81 17.8173 271.388 18.676C271.986 19.5347 272.938 19.964 274.244 19.964ZM274.244 22.036C272.116 22.036 270.502 21.4013 269.4 20.132C268.318 18.844 267.776 16.968 267.776 14.504C267.776 12.04 268.318 10.1733 269.4 8.90398C270.502 7.61598 272.116 6.97198 274.244 6.97198C276.372 6.97198 277.978 7.61598 279.06 8.90398C280.162 10.1733 280.712 12.04 280.712 14.504C280.712 16.968 280.162 18.844 279.06 20.132C277.978 21.4013 276.372 22.036 274.244 22.036Z" fill="white"/>
<path d="M247.895 19.012C249.388 19.6653 250.881 19.992 252.375 19.992C253.457 19.992 254.279 19.7867 254.839 19.376C255.417 18.9653 255.707 18.3773 255.707 17.612C255.707 17.108 255.548 16.6973 255.231 16.38C254.913 16.0627 254.391 15.792 253.663 15.568L251.759 14.98C250.489 14.588 249.565 14.084 248.987 13.468C248.408 12.852 248.119 12.068 248.119 11.116C248.119 9.84665 248.613 8.83865 249.603 8.09198C250.592 7.34532 251.927 6.97198 253.607 6.97198C255.025 6.97198 256.379 7.25198 257.667 7.81198V9.82798C256.248 9.28665 254.951 9.01598 253.775 9.01598C252.823 9.01598 252.076 9.20265 251.535 9.57598C251.012 9.93065 250.751 10.416 250.751 11.032C250.751 11.48 250.891 11.8347 251.171 12.096C251.451 12.3387 251.973 12.5813 252.739 12.824L254.867 13.468C257.181 14.1587 258.339 15.5307 258.339 17.584C258.339 19.0213 257.844 20.1227 256.855 20.888C255.865 21.6533 254.437 22.036 252.571 22.036C250.835 22.036 249.379 21.7467 248.203 21.168L247.895 19.012Z" fill="white"/>
<path d="M242.158 21.616V11.732C242.158 9.93998 241.29 9.04398 239.554 9.04398C238.509 9.04398 237.408 9.38932 236.25 10.08C236.344 10.4907 236.39 10.9013 236.39 11.312V21.616H233.758V11.732C233.758 9.93998 232.89 9.04398 231.154 9.04398C230.128 9.04398 229.073 9.37065 227.99 10.024V21.616H225.358V7.55998L227.486 7.33598L227.654 8.31598C229.092 7.41998 230.501 6.97198 231.882 6.97198C233.488 6.97198 234.701 7.48532 235.522 8.51198C237.202 7.48532 238.789 6.97198 240.282 6.97198C241.682 6.97198 242.784 7.35465 243.586 8.11998C244.389 8.88532 244.79 9.94932 244.79 11.312V21.616H242.158Z" fill="white"/>
<path d="M218.988 21.672L218.82 20.692C217.289 21.588 215.768 22.036 214.256 22.036C212.744 22.036 211.568 21.6254 210.728 20.804C209.888 19.9827 209.468 18.8347 209.468 17.36V7.39203H212.1V16.968C212.1 18.9654 213.061 19.964 214.984 19.964C215.525 19.964 216.113 19.88 216.748 19.712C217.382 19.5254 217.961 19.2827 218.484 18.984V7.39203H221.116V21.448L218.988 21.672Z" fill="white"/>
<path d="M202.92 21.616V11.732C202.92 9.93998 202.052 9.04398 200.316 9.04398C199.271 9.04398 198.17 9.38932 197.012 10.08C197.106 10.4907 197.152 10.9013 197.152 11.312V21.616H194.52V11.732C194.52 9.93998 193.652 9.04398 191.916 9.04398C190.89 9.04398 189.835 9.37065 188.752 10.024V21.616H186.12V7.55998L188.248 7.33598L188.416 8.31598C189.854 7.41998 191.263 6.97198 192.644 6.97198C194.25 6.97198 195.463 7.48532 196.284 8.51198C197.964 7.48532 199.551 6.97198 201.044 6.97198C202.444 6.97198 203.546 7.35465 204.348 8.11998C205.151 8.88532 205.552 9.94932 205.552 11.312V21.616H202.92Z" fill="white"/>
<path d="M179.23 21.616V7.616L181.862 7.308V21.616H179.23ZM180.546 4.47999C180.004 4.47999 179.575 4.33999 179.258 4.06C178.959 3.76133 178.81 3.36 178.81 2.856C178.81 2.352 178.959 1.95999 179.258 1.68C179.575 1.38133 180.004 1.23199 180.546 1.23199C181.087 1.23199 181.507 1.38133 181.806 1.68C182.123 1.95999 182.282 2.352 182.282 2.856C182.282 3.36 182.123 3.76133 181.806 4.06C181.507 4.33999 181.087 4.47999 180.546 4.47999Z" fill="white"/>
<path d="M172.498 21.616V12.04C172.498 10.0427 171.508 9.04398 169.53 9.04398C169.007 9.04398 168.419 9.13732 167.766 9.32399C167.131 9.49199 166.552 9.72532 166.03 10.024V21.616H163.398V7.55998L165.526 7.33598L165.694 8.31598C167.224 7.41998 168.746 6.97198 170.258 6.97198C171.807 6.97198 173.002 7.38265 173.842 8.20398C174.7 9.00665 175.13 10.1547 175.13 11.648V21.616H172.498Z" fill="white"/>
<path d="M156.507 21.616V7.616L159.139 7.308V21.616H156.507ZM157.823 4.47999C157.282 4.47999 156.853 4.33999 156.535 4.06C156.237 3.76133 156.087 3.36 156.087 2.856C156.087 2.352 156.237 1.95999 156.535 1.68C156.853 1.38133 157.282 1.23199 157.823 1.23199C158.364 1.23199 158.784 1.38133 159.083 1.68C159.4 1.95999 159.559 2.352 159.559 2.856C159.559 3.36 159.4 3.76133 159.083 4.06C158.784 4.33999 158.364 4.47999 157.823 4.47999Z" fill="white"/>
<path d="M149.791 21.616V11.732C149.791 9.93998 148.923 9.04398 147.187 9.04398C146.142 9.04398 145.041 9.38932 143.883 10.08C143.977 10.4907 144.023 10.9013 144.023 11.312V21.616H141.391V11.732C141.391 9.93998 140.523 9.04398 138.787 9.04398C137.761 9.04398 136.706 9.37065 135.623 10.024V21.616H132.991V7.55998L135.119 7.33598L135.287 8.31598C136.725 7.41998 138.134 6.97198 139.515 6.97198C141.121 6.97198 142.334 7.48532 143.155 8.51198C144.835 7.48532 146.422 6.97198 147.915 6.97198C149.315 6.97198 150.417 7.35465 151.219 8.11998C152.022 8.88532 152.423 9.94932 152.423 11.312V21.616H149.791Z" fill="white"/>
<path d="M115.765 21.616V7.56L117.893 7.336L118.117 8.624C119.349 7.57867 120.665 7.056 122.065 7.056C122.494 7.056 122.924 7.12133 123.353 7.252V9.408C122.905 9.296 122.448 9.24 121.981 9.24C120.637 9.24 119.442 9.66 118.397 10.5V21.616H115.765Z" fill="white"/>
<path d="M105.889 19.964C107.196 19.964 108.138 19.5347 108.717 18.676C109.314 17.8173 109.613 16.4267 109.613 14.504C109.613 12.5813 109.314 11.1907 108.717 10.332C108.138 9.47332 107.196 9.04398 105.889 9.04398C104.582 9.04398 103.63 9.47332 103.033 10.332C102.454 11.1907 102.165 12.5813 102.165 14.504C102.165 16.4267 102.454 17.8173 103.033 18.676C103.63 19.5347 104.582 19.964 105.889 19.964ZM105.889 22.036C103.761 22.036 102.146 21.4013 101.045 20.132C99.9622 18.844 99.4209 16.968 99.4209 14.504C99.4209 12.04 99.9622 10.1733 101.045 8.90398C102.146 7.61598 103.761 6.97198 105.889 6.97198C108.017 6.97198 109.622 7.61598 110.705 8.90398C111.806 10.1733 112.357 12.04 112.357 14.504C112.357 16.968 111.806 18.844 110.705 20.132C109.622 21.4013 108.017 22.036 105.889 22.036Z" fill="white"/>
<path d="M79.5388 19.012C81.0322 19.6653 82.5255 19.992 84.0188 19.992C85.1015 19.992 85.9228 19.7867 86.4828 19.376C87.0615 18.9653 87.3508 18.3773 87.3508 17.612C87.3508 17.108 87.1922 16.6973 86.8748 16.38C86.5575 16.0627 86.0348 15.792 85.3068 15.568L83.4028 14.98C82.1335 14.588 81.2095 14.084 80.6308 13.468C80.0521 12.852 79.7628 12.068 79.7628 11.116C79.7628 9.84665 80.2575 8.83865 81.2468 8.09198C82.2362 7.34532 83.5708 6.97198 85.2508 6.97198C86.6695 6.97198 88.0228 7.25198 89.3108 7.81198V9.82798C87.8921 9.28665 86.5948 9.01598 85.4188 9.01598C84.4668 9.01598 83.7202 9.20265 83.1788 9.57598C82.6562 9.93065 82.3948 10.416 82.3948 11.032C82.3948 11.48 82.5348 11.8347 82.8148 12.096C83.0948 12.3387 83.6175 12.5813 84.3828 12.824L86.5108 13.468C88.8255 14.1587 89.9828 15.5307 89.9828 17.584C89.9828 19.0213 89.4882 20.1227 88.4988 20.888C87.5095 21.6533 86.0815 22.036 84.2148 22.036C82.4788 22.036 81.0228 21.7467 79.8468 21.168L79.5388 19.012Z" fill="white"/>
<path d="M76.4465 21.084C75.1585 21.7187 73.7211 22.036 72.1345 22.036C69.8198 22.036 68.0558 21.392 66.8425 20.104C65.6291 18.816 65.0225 16.9307 65.0225 14.448C65.0225 12.9173 65.2931 11.592 65.8345 10.472C66.3758 9.33332 67.1318 8.46532 68.1025 7.86798C69.0731 7.27065 70.1838 6.97198 71.4345 6.97198C73.1891 6.97198 74.5705 7.49465 75.5785 8.53998C76.5865 9.58532 77.0905 11.032 77.0905 12.88C77.0905 13.608 77.0251 14.3267 76.8945 15.036H67.6265C67.6825 18.34 69.2878 19.992 72.4425 19.992C73.8051 19.992 75.1398 19.6933 76.4465 19.096V21.084ZM71.4345 8.90398C70.3518 8.90398 69.4651 9.28665 68.7745 10.052C68.1025 10.8173 67.7198 11.8533 67.6265 13.16H74.6545C74.6731 13.0667 74.6825 12.9733 74.6825 12.88C74.6825 12.7867 74.6825 12.6933 74.6825 12.6C74.6825 11.4427 74.3931 10.5373 73.8145 9.88398C73.2545 9.23065 72.4611 8.90398 71.4345 8.90398Z" fill="white"/>
<path d="M61.7902 21.084C60.5022 21.7187 59.0649 22.036 57.4782 22.036C55.1635 22.036 53.3995 21.392 52.1862 20.104C50.9729 18.816 50.3662 16.9307 50.3662 14.448C50.3662 12.9173 50.6369 11.592 51.1782 10.472C51.7195 9.33332 52.4755 8.46532 53.4462 7.86798C54.4169 7.27065 55.5275 6.97198 56.7782 6.97198C58.5329 6.97198 59.9142 7.49465 60.9222 8.53998C61.9302 9.58532 62.4342 11.032 62.4342 12.88C62.4342 13.608 62.3689 14.3267 62.2382 15.036H52.9702C53.0262 18.34 54.6315 19.992 57.7862 19.992C59.1489 19.992 60.4835 19.6933 61.7902 19.096V21.084ZM56.7782 8.90398C55.6955 8.90398 54.8089 9.28665 54.1182 10.052C53.4462 10.8173 53.0635 11.8533 52.9702 13.16H59.9982C60.0169 13.0667 60.0262 12.9733 60.0262 12.88C60.0262 12.7867 60.0262 12.6933 60.0262 12.6C60.0262 11.4427 59.7369 10.5373 59.1582 9.88398C58.5982 9.23065 57.8049 8.90398 56.7782 8.90398Z" fill="white"/>
<path d="M42.306 21.616V9.296H40.178V7.504L42.306 7.42V4.648C42.306 3.17333 42.6886 2.03467 43.454 1.232C44.2193 0.410666 45.3113 0 46.73 0C47.5513 0 48.3913 0.149333 49.25 0.447999V2.324C48.4846 2.11867 47.8313 2.016 47.29 2.016C45.722 2.016 44.938 2.84667 44.938 4.508V7.392H48.55V9.296H44.938V21.616H42.306Z" fill="white"/>
<path d="M24.842 19.964C26.1487 19.964 27.0914 19.5347 27.67 18.676C28.2674 17.8173 28.566 16.4267 28.566 14.504C28.566 12.5813 28.2674 11.1907 27.67 10.332C27.0914 9.47332 26.1487 9.04398 24.842 9.04398C23.5354 9.04398 22.5834 9.47332 21.986 10.332C21.4074 11.1907 21.118 12.5813 21.118 14.504C21.118 16.4267 21.4074 17.8173 21.986 18.676C22.5834 19.5347 23.5354 19.964 24.842 19.964ZM24.842 22.036C22.714 22.036 21.0994 21.4013 19.998 20.132C18.9154 18.844 18.374 16.968 18.374 14.504C18.374 12.04 18.9154 10.1733 19.998 8.90398C21.0994 7.61598 22.714 6.97198 24.842 6.97198C26.97 6.97198 28.5754 7.61598 29.658 8.90398C30.7594 10.1733 31.31 12.04 31.31 14.504C31.31 16.968 30.7594 18.844 29.658 20.132C28.5754 21.4013 26.97 22.036 24.842 22.036Z" fill="white"/>
<path d="M12.096 21.616L2.604 6.52399V21.616H0V2.01599H2.492L11.984 17.108V2.01599H14.588V21.616H12.096Z" fill="white"/>
</svg>
