<svg width="268" height="46" viewBox="0 0 268 46" fill="none" xmlns="http://www.w3.org/2000/svg">
<path d="M6.11328 14.0208C6.11328 12.729 6.40023 11.7487 6.98082 11.0796C7.5614 10.404 8.40224 10.0728 9.50334 10.0728C10.6044 10.0728 11.4453 10.4106 12.0259 11.0796C12.6064 11.7553 12.8934 12.7357 12.8934 14.0208C12.8934 15.3059 12.6064 16.2929 12.0259 16.9619C11.4453 17.6376 10.6044 17.9688 9.50334 17.9688C8.40224 17.9688 7.5614 17.6309 6.98082 16.9619C6.40023 16.2862 6.11328 15.3059 6.11328 14.0208ZM7.75492 14.0208C7.75492 14.9614 7.89506 15.6569 8.18202 16.0941C8.4623 16.5313 8.90941 16.7499 9.51001 16.7499C10.1106 16.7499 10.5511 16.5313 10.838 16.0941C11.125 15.6569 11.2651 14.9614 11.2651 14.0208C11.2651 13.0801 11.125 12.3846 10.838 11.9474C10.5577 11.5102 10.1106 11.2916 9.51001 11.2916C8.90941 11.2916 8.4623 11.5102 8.18202 11.9474C7.90174 12.3846 7.75492 13.0801 7.75492 14.0208Z" fill="white"/>
<path d="M18.2989 17.7965V13.2855H15.9499V17.7965H14.4818V13.2855H13.6543V12.3117L14.4818 12.2786V11.391C14.4818 10.7815 14.6486 10.298 14.989 9.94689C15.3293 9.59581 15.7898 9.42358 16.3837 9.42358C16.7707 9.42358 17.1244 9.4832 17.4514 9.60906V10.6027C17.1912 10.5364 16.9643 10.5033 16.7641 10.5033C16.5038 10.5033 16.3036 10.5762 16.1635 10.7153C16.0233 10.8544 15.9499 11.0598 15.9499 11.338V12.2521H18.2989V11.391C18.2989 10.7815 18.4658 10.298 18.8061 9.94689C19.1398 9.59581 19.6069 9.42358 20.2008 9.42358C20.5145 9.42358 20.8348 9.47658 21.1551 9.58919V10.5828C20.9549 10.5298 20.7614 10.51 20.5812 10.51C20.321 10.51 20.1208 10.5828 19.974 10.7219C19.8271 10.861 19.7604 11.0664 19.7604 11.3446V12.2587H21.0884V13.2855H19.7604V17.7965H18.2923H18.2989ZM22.8435 11.3843C22.5699 11.3843 22.3563 11.3115 22.2029 11.1657C22.0494 11.02 21.976 10.8213 21.976 10.5696C21.976 10.3178 22.0494 10.1191 22.2029 9.97339C22.3563 9.82766 22.5699 9.75479 22.8435 9.75479C23.1171 9.75479 23.3373 9.82766 23.4908 9.97339C23.6443 10.1191 23.7244 10.3178 23.7244 10.5696C23.7244 10.8213 23.6443 11.02 23.4908 11.1657C23.3373 11.3115 23.1171 11.3843 22.8435 11.3843ZM22.1161 17.7965V12.3647L23.5842 12.2256V17.7965H22.1161Z" fill="white"/>
<path d="M29.116 17.5913C28.5621 17.843 27.9882 17.9689 27.3876 17.9689C26.5334 17.9689 25.8728 17.7171 25.4123 17.2137C24.9518 16.7103 24.7183 15.9882 24.7183 15.041C24.7183 14.0937 24.9452 13.3584 25.4123 12.8484C25.8728 12.3383 26.5334 12.08 27.3943 12.08C27.9548 12.08 28.5154 12.2058 29.0826 12.4575V13.524C28.5621 13.3121 28.095 13.2127 27.6879 13.2127C26.7336 13.2127 26.2531 13.8155 26.2531 15.0145C26.2531 15.6106 26.3733 16.0611 26.6202 16.3724C26.8671 16.6838 27.2208 16.8295 27.6946 16.8295C28.1016 16.8295 28.5755 16.7235 29.1227 16.5182V17.5847L29.116 17.5913Z" fill="white"/>
<path d="M30.9383 11.3844C30.6647 11.3844 30.4512 11.3116 30.2977 11.1658C30.1442 11.0201 30.0708 10.8214 30.0708 10.5697C30.0708 10.3179 30.1442 10.1192 30.2977 9.97348C30.4512 9.82775 30.6647 9.75488 30.9383 9.75488C31.2119 9.75488 31.4322 9.82775 31.5856 9.97348C31.7391 10.1192 31.8192 10.3179 31.8192 10.5697C31.8192 10.8214 31.7391 11.0201 31.5856 11.1658C31.4322 11.3116 31.2119 11.3844 30.9383 11.3844ZM30.2109 17.7966V12.3648L31.6791 12.2257V17.7966H30.2109Z" fill="white"/>
<path d="M36.4903 17.8297L36.4036 17.472C35.8363 17.8032 35.2691 17.9689 34.7085 17.9689C34.148 17.9689 33.6675 17.8099 33.3205 17.4919C32.9735 17.174 32.8066 16.75 32.8066 16.2068C32.8066 15.6636 33.0002 15.2198 33.3805 14.9085C33.7609 14.5971 34.2948 14.4448 34.9821 14.4448C35.3892 14.4448 35.803 14.4845 36.2234 14.564V14.1335C36.2234 13.8022 36.1233 13.5571 35.9298 13.4048C35.7362 13.2524 35.4293 13.1729 35.0155 13.1729C34.4616 13.1729 33.8544 13.2988 33.187 13.5373V12.4774C33.5007 12.3582 33.841 12.2588 34.2214 12.1859C34.5951 12.1131 34.9555 12.08 35.2891 12.08C36.0566 12.08 36.6438 12.2522 37.0576 12.5966C37.4646 12.9411 37.6715 13.4379 37.6715 14.0871V17.7039L36.497 17.8231L36.4903 17.8297ZM35.1557 16.9222C35.3158 16.9222 35.4893 16.8957 35.6829 16.8494C35.8764 16.7964 36.0566 16.7368 36.2234 16.6573V15.4782C35.8897 15.3987 35.5894 15.3589 35.3225 15.3589C34.6285 15.3589 34.2748 15.6239 34.2748 16.1605C34.2748 16.4122 34.3482 16.6043 34.495 16.7301C34.6418 16.8626 34.862 16.9222 35.1557 16.9222Z" fill="white"/>
<path d="M39.0264 17.7966V9.67536L40.4945 9.53625V17.7966H39.0264Z" fill="white"/>
<path d="M44.7583 17.7969V10.3911C45.112 10.3182 45.5324 10.2586 46.0129 10.2188C46.4934 10.1791 46.9205 10.1526 47.2942 10.1526C48.2017 10.1526 48.8891 10.3182 49.3629 10.6627C49.8367 11.0005 50.0703 11.4907 50.0703 12.1398C50.0703 12.9414 49.6432 13.4978 48.789 13.8224C49.3162 13.9549 49.7233 14.1801 49.9969 14.5047C50.2705 14.8293 50.4106 15.2333 50.4106 15.7169C50.4106 16.3859 50.1704 16.9026 49.6899 17.2603C49.2094 17.618 48.5287 17.8035 47.6345 17.8035H44.765L44.7583 17.7969ZM47.2274 11.2853C46.7803 11.2853 46.44 11.3118 46.2064 11.3582V13.3852H47.4009C47.7813 13.3852 48.075 13.2925 48.2952 13.107C48.5154 12.9215 48.6222 12.6632 48.6222 12.3319C48.6222 11.9809 48.5087 11.7159 48.2818 11.5437C48.0549 11.3714 47.7012 11.2853 47.2341 11.2853H47.2274ZM47.5745 16.6642C48.442 16.6642 48.8824 16.3065 48.8824 15.5844C48.8824 15.2333 48.769 14.9617 48.5421 14.7696C48.3152 14.5775 47.9882 14.4848 47.5678 14.4848H46.2064V16.6642H47.5745Z" fill="white"/>
<path d="M54.9088 17.8297L54.822 17.472C54.2548 17.8032 53.6876 17.9689 53.127 17.9689C52.5664 17.9689 52.086 17.8099 51.7389 17.4919C51.3919 17.174 51.2251 16.75 51.2251 16.2068C51.2251 15.6636 51.4186 15.2198 51.799 14.9085C52.1794 14.5971 52.7133 14.4448 53.4006 14.4448C53.8077 14.4448 54.2214 14.4845 54.6419 14.564V14.1335C54.6419 13.8022 54.5417 13.5571 54.3482 13.4048C54.1547 13.2524 53.8477 13.1729 53.434 13.1729C52.8801 13.1729 52.2728 13.2988 51.6055 13.5373V12.4774C51.9191 12.3582 52.2595 12.2588 52.6398 12.1859C53.0136 12.1131 53.3739 12.08 53.7076 12.08C54.475 12.08 55.0623 12.2522 55.476 12.5966C55.8831 12.9411 56.09 13.4379 56.09 14.0871V17.7039L54.9155 17.8231L54.9088 17.8297ZM53.5741 16.9222C53.7343 16.9222 53.9078 16.8957 54.1013 16.8494C54.2948 16.7964 54.475 16.7368 54.6419 16.6573V15.4782C54.3082 15.3987 54.0079 15.3589 53.741 15.3589C53.0469 15.3589 52.6932 15.6239 52.6932 16.1605C52.6932 16.4122 52.7666 16.6043 52.9135 16.7301C53.0603 16.8626 53.2805 16.9222 53.5741 16.9222Z" fill="white"/>
<path d="M60.8609 17.7966V14.1599C60.8609 13.8353 60.7875 13.5968 60.6407 13.4445C60.4939 13.2921 60.267 13.2126 59.9533 13.2126C59.7798 13.2126 59.5997 13.2391 59.4061 13.2921C59.2193 13.3451 59.0524 13.418 58.9056 13.5041V17.8032H57.4375V12.3515L58.612 12.2322L58.6988 12.59C59.266 12.2587 59.8199 12.0931 60.3738 12.0931C60.9944 12.0931 61.4749 12.2587 61.8152 12.5833C62.1556 12.9079 62.3224 13.3716 62.3224 13.9678V17.8032H60.8542L60.8609 17.7966Z" fill="white"/>
<path d="M63.6978 17.7966V9.67536L65.1659 9.53625V14.5441L67.0945 12.2522H68.7495L66.614 14.7362L68.9096 17.79H67.1345L65.1659 15.1469V17.79H63.6978V17.7966Z" fill="white"/>
<path d="M75.7364 17.8297L75.6497 17.472C75.0824 17.8032 74.5152 17.9689 73.9546 17.9689C73.3941 17.9689 72.9136 17.8099 72.5666 17.4919C72.2196 17.174 72.0527 16.75 72.0527 16.2068C72.0527 15.6636 72.2463 15.2198 72.6266 14.9085C73.007 14.5971 73.5409 14.4448 74.2282 14.4448C74.6353 14.4448 75.0491 14.4845 75.4695 14.564V14.1335C75.4695 13.8022 75.3694 13.5571 75.1759 13.4048C74.9823 13.2524 74.6754 13.1729 74.2616 13.1729C73.7077 13.1729 73.1004 13.2988 72.4331 13.5373V12.4774C72.7468 12.3582 73.0871 12.2588 73.4675 12.1859C73.8412 12.1131 74.2016 12.08 74.5352 12.08C75.3027 12.08 75.8899 12.2522 76.3037 12.5966C76.7107 12.9411 76.9176 13.4379 76.9176 14.0871V17.7039L75.7431 17.8231L75.7364 17.8297ZM74.4018 16.9222C74.5619 16.9222 74.7354 16.8957 74.9289 16.8494C75.1225 16.7964 75.3027 16.7368 75.4695 16.6573V15.4782C75.1358 15.3987 74.8355 15.3589 74.5686 15.3589C73.8746 15.3589 73.5209 15.6239 73.5209 16.1605C73.5209 16.4122 73.5943 16.6043 73.7411 16.7301C73.8879 16.8626 74.1081 16.9222 74.4018 16.9222Z" fill="white"/>
<path d="M81.689 17.7966V14.1599C81.689 13.8353 81.6156 13.5968 81.4688 13.4445C81.322 13.2921 81.0951 13.2126 80.7815 13.2126C80.608 13.2126 80.4278 13.2391 80.2343 13.2921C80.0474 13.3451 79.8806 13.418 79.7338 13.5041V17.8032H78.2656V12.3515L79.4401 12.2322L79.5269 12.59C80.0941 12.2587 80.648 12.0931 81.2019 12.0931C81.8225 12.0931 82.303 12.2587 82.6433 12.5833C82.9837 12.9079 83.1505 13.3716 83.1505 13.9678V17.8032H81.6824L81.689 17.7966Z" fill="white"/>
<path d="M89.4096 9.53625V17.7105L88.2351 17.8297L88.1484 17.472C87.8881 17.6244 87.6145 17.7436 87.3209 17.8364C87.0273 17.9291 86.767 17.9688 86.5268 17.9688C85.8127 17.9688 85.2588 17.7171 84.8584 17.2137C84.458 16.7102 84.2578 16.0081 84.2578 15.1204C84.2578 14.1533 84.4981 13.4114 84.9719 12.8815C85.4457 12.3515 86.113 12.0866 86.9805 12.0866C87.2942 12.0866 87.6145 12.1263 87.9482 12.2058V9.68199L89.4163 9.54288L89.4096 9.53625ZM86.9405 16.8494C87.094 16.8494 87.2608 16.8229 87.4477 16.7699C87.6345 16.7169 87.7947 16.644 87.9415 16.5579V13.2458C87.7146 13.1928 87.4744 13.1729 87.2208 13.1729C86.7336 13.1729 86.3733 13.3319 86.1397 13.6432C85.9061 13.9546 85.786 14.4381 85.786 15.0939C85.786 16.2664 86.1731 16.856 86.9405 16.856V16.8494Z" fill="white"/>
<path d="M98.8463 17.4719C98.1923 17.8031 97.485 17.9687 96.7109 17.9687C95.6431 17.9687 94.8223 17.6242 94.235 16.9419C93.6478 16.2596 93.3608 15.2859 93.3608 14.0141C93.3608 12.7422 93.6545 11.8016 94.2417 11.106C94.829 10.4105 95.6498 10.066 96.7109 10.066C97.4583 10.066 98.1523 10.2316 98.7996 10.5629V11.7618C98.4526 11.5962 98.1456 11.477 97.872 11.4107C97.6051 11.3445 97.3048 11.3114 96.9778 11.3114C96.3305 11.3114 95.8433 11.5366 95.5163 11.9937C95.1893 12.4507 95.0225 13.1264 95.0225 14.0207C95.0225 15.8291 95.6765 16.73 96.9778 16.73C97.2914 16.73 97.5917 16.6968 97.872 16.624C98.159 16.5511 98.4793 16.4385 98.833 16.2795V17.4785L98.8463 17.4719Z" fill="white"/>
<path d="M100.008 17.7967V12.345L101.182 12.2257L101.302 12.7358C101.756 12.3251 102.263 12.1198 102.817 12.1198C102.991 12.1198 103.171 12.1462 103.365 12.1926V13.3916C103.144 13.3386 102.957 13.3187 102.791 13.3187C102.29 13.3187 101.856 13.4578 101.483 13.7294V17.8033H100.014L100.008 17.7967Z" fill="white"/>
<path d="M108.696 17.578C108.169 17.8364 107.582 17.9689 106.934 17.9689C105.98 17.9689 105.246 17.7171 104.739 17.2137C104.232 16.7103 103.978 15.975 103.978 15.0078C103.978 14.4183 104.091 13.9016 104.318 13.4578C104.545 13.014 104.859 12.6761 105.259 12.4377C105.66 12.1992 106.113 12.08 106.627 12.08C107.355 12.08 107.922 12.2853 108.336 12.7026C108.749 13.12 108.956 13.683 108.956 14.405C108.956 14.7429 108.923 15.0741 108.856 15.3987H105.419C105.446 15.9021 105.606 16.2731 105.887 16.5182C106.167 16.7633 106.581 16.8825 107.115 16.8825C107.648 16.8825 108.189 16.7633 108.689 16.5248V17.5847L108.696 17.578ZM106.627 13.1001C106.287 13.1001 106.007 13.2193 105.793 13.4512C105.58 13.683 105.446 14.001 105.413 14.405H107.608V14.2461C107.608 13.8685 107.522 13.5836 107.355 13.3915C107.188 13.1994 106.948 13.1001 106.627 13.1001Z" fill="white"/>
<path d="M114.982 9.53625V17.7105L113.808 17.8297L113.721 17.472C113.461 17.6244 113.187 17.7436 112.894 17.8364C112.6 17.9291 112.34 17.9688 112.1 17.9688C111.385 17.9688 110.832 17.7171 110.431 17.2137C110.031 16.7102 109.831 16.0081 109.831 15.1204C109.831 14.1533 110.071 13.4114 110.545 12.8815C111.018 12.3515 111.686 12.0866 112.553 12.0866C112.867 12.0866 113.187 12.1263 113.521 12.2058V9.68199L114.989 9.54288L114.982 9.53625ZM112.513 16.8494C112.667 16.8494 112.834 16.8229 113.02 16.7699C113.207 16.7169 113.367 16.644 113.514 16.5579V13.2458C113.287 13.1928 113.047 13.1729 112.794 13.1729C112.306 13.1729 111.946 13.3319 111.712 13.6432C111.479 13.9546 111.359 14.4381 111.359 15.0939C111.359 16.2664 111.746 16.856 112.513 16.856V16.8494Z" fill="white"/>
<path d="M117.124 11.3844C116.851 11.3844 116.637 11.3116 116.484 11.1658C116.33 11.0201 116.257 10.8214 116.257 10.5697C116.257 10.3179 116.33 10.1192 116.484 9.97348C116.637 9.82775 116.851 9.75488 117.124 9.75488C117.398 9.75488 117.618 9.82775 117.772 9.97348C117.925 10.1192 118.005 10.3179 118.005 10.5697C118.005 10.8214 117.925 11.0201 117.772 11.1658C117.618 11.3116 117.398 11.3844 117.124 11.3844ZM116.397 17.7966V12.3648L117.865 12.2257V17.7966H116.397Z" fill="white"/>
<path d="M121.095 13.2855V16.061C121.095 16.5976 121.355 16.8692 121.869 16.8692C122.056 16.8692 122.289 16.8294 122.563 16.7499V17.7303C122.243 17.876 121.876 17.9489 121.462 17.9489C120.861 17.9489 120.401 17.7965 120.094 17.4852C119.78 17.1739 119.627 16.7234 119.627 16.1339V13.2855H118.799V12.3117L119.7 12.2786L119.8 10.8875L121.095 10.7484V12.2587H122.53V13.2855H121.095Z" fill="white"/>
<path d="M131.572 17.4719C130.918 17.8031 130.211 17.9687 129.437 17.9687C128.369 17.9687 127.548 17.6242 126.961 16.9419C126.374 16.2596 126.087 15.2859 126.087 14.0141C126.087 12.7422 126.381 11.8016 126.968 11.106C127.555 10.4105 128.376 10.066 129.437 10.066C130.184 10.066 130.878 10.2316 131.526 10.5629V11.7618C131.179 11.5962 130.872 11.477 130.598 11.4107C130.331 11.3445 130.031 11.3114 129.704 11.3114C129.057 11.3114 128.569 11.5366 128.242 11.9937C127.915 12.4507 127.749 13.1264 127.749 14.0207C127.749 15.8291 128.403 16.73 129.704 16.73C130.018 16.73 130.318 16.6968 130.598 16.624C130.885 16.5511 131.205 16.4385 131.559 16.2795V17.4785L131.572 17.4719Z" fill="white"/>
<path d="M136.144 17.8297L136.057 17.472C135.49 17.8032 134.922 17.9689 134.362 17.9689C133.801 17.9689 133.321 17.8099 132.974 17.4919C132.627 17.174 132.46 16.75 132.46 16.2068C132.46 15.6636 132.653 15.2198 133.034 14.9085C133.414 14.5971 133.948 14.4448 134.635 14.4448C135.043 14.4448 135.456 14.4845 135.877 14.564V14.1335C135.877 13.8022 135.777 13.5571 135.583 13.4048C135.39 13.2524 135.083 13.1729 134.669 13.1729C134.115 13.1729 133.508 13.2988 132.84 13.5373V12.4774C133.154 12.3582 133.494 12.2588 133.875 12.1859C134.248 12.1131 134.609 12.08 134.942 12.08C135.71 12.08 136.297 12.2522 136.711 12.5966C137.118 12.9411 137.325 13.4379 137.325 14.0871V17.7039L136.15 17.8231L136.144 17.8297ZM134.809 16.9222C134.969 16.9222 135.143 16.8957 135.336 16.8494C135.53 16.7964 135.71 16.7368 135.877 16.6573V15.4782C135.543 15.3987 135.243 15.3589 134.976 15.3589C134.282 15.3589 133.928 15.6239 133.928 16.1605C133.928 16.4122 134.002 16.6043 134.148 16.7301C134.295 16.8626 134.515 16.9222 134.809 16.9222Z" fill="white"/>
<path d="M138.672 17.7967V12.345L139.847 12.2257L139.967 12.7358C140.421 12.3251 140.928 12.1198 141.482 12.1198C141.655 12.1198 141.836 12.1462 142.029 12.1926V13.3916C141.809 13.3386 141.622 13.3187 141.455 13.3187C140.955 13.3187 140.521 13.4578 140.147 13.7294V17.8033H138.679L138.672 17.7967Z" fill="white"/>
<path d="M147.802 9.53625V17.7105L146.627 17.8297L146.54 17.472C146.28 17.6244 146.007 17.7436 145.713 17.8364C145.419 17.9291 145.159 17.9688 144.919 17.9688C144.205 17.9688 143.651 17.7171 143.25 17.2137C142.85 16.7102 142.65 16.0081 142.65 15.1204C142.65 14.1533 142.89 13.4114 143.364 12.8815C143.838 12.3515 144.505 12.0866 145.373 12.0866C145.686 12.0866 146.007 12.1263 146.34 12.2058V9.68199L147.808 9.54288L147.802 9.53625ZM145.333 16.8494C145.486 16.8494 145.653 16.8229 145.84 16.7699C146.027 16.7169 146.187 16.644 146.334 16.5579V13.2458C146.107 13.1928 145.866 13.1729 145.613 13.1729C145.126 13.1729 144.765 13.3319 144.532 13.6432C144.298 13.9546 144.178 14.4381 144.178 15.0939C144.178 16.2664 144.565 16.856 145.333 16.856V16.8494Z" fill="white"/>
<path d="M152.066 17.7969V10.3911C152.446 10.3182 152.867 10.2586 153.327 10.2188C153.788 10.1791 154.195 10.1526 154.535 10.1526C155.509 10.1526 156.257 10.3646 156.777 10.7885C157.298 11.2125 157.558 11.8153 157.558 12.6035C157.558 13.3918 157.284 13.988 156.737 14.4252C156.19 14.8624 155.436 15.0876 154.482 15.0876H153.587V17.7969H152.066ZM154.482 11.3052C154.148 11.3052 153.848 11.3251 153.587 11.3714V13.9284H154.482C154.969 13.9284 155.343 13.8158 155.603 13.5905C155.863 13.3653 155.997 13.0407 155.997 12.6102C155.997 11.7424 155.489 11.3052 154.482 11.3052Z" fill="white"/>
<path d="M161.822 17.8297L161.736 17.472C161.168 17.8032 160.601 17.9689 160.041 17.9689C159.48 17.9689 159 17.8099 158.653 17.4919C158.306 17.174 158.139 16.75 158.139 16.2068C158.139 15.6636 158.332 15.2198 158.713 14.9085C159.093 14.5971 159.627 14.4448 160.314 14.4448C160.721 14.4448 161.135 14.4845 161.555 14.564V14.1335C161.555 13.8022 161.455 13.5571 161.262 13.4048C161.068 13.2524 160.761 13.1729 160.348 13.1729C159.794 13.1729 159.186 13.2988 158.519 13.5373V12.4774C158.833 12.3582 159.173 12.2588 159.553 12.1859C159.927 12.1131 160.287 12.08 160.621 12.08C161.389 12.08 161.976 12.2522 162.39 12.5966C162.797 12.9411 163.004 13.4379 163.004 14.0871V17.7039L161.829 17.8231L161.822 17.8297ZM160.488 16.9222C160.648 16.9222 160.821 16.8957 161.015 16.8494C161.208 16.7964 161.389 16.7368 161.555 16.6573V15.4782C161.222 15.3987 160.921 15.3589 160.655 15.3589C159.96 15.3589 159.607 15.6239 159.607 16.1605C159.607 16.4122 159.68 16.6043 159.827 16.7301C159.974 16.8626 160.194 16.9222 160.488 16.9222Z" fill="white"/>
<path d="M164.358 17.7967V12.345L165.532 12.2257L165.653 12.7358C166.106 12.3251 166.613 12.1198 167.167 12.1198C167.341 12.1198 167.521 12.1462 167.715 12.1926V13.3916C167.494 13.3386 167.308 13.3187 167.141 13.3187C166.64 13.3187 166.206 13.4578 165.833 13.7294V17.8033H164.365L164.358 17.7967Z" fill="white"/>
<path d="M170.418 13.2855V16.061C170.418 16.5976 170.678 16.8692 171.192 16.8692C171.379 16.8692 171.612 16.8294 171.886 16.7499V17.7303C171.566 17.876 171.198 17.9489 170.785 17.9489C170.184 17.9489 169.724 17.7965 169.417 17.4852C169.103 17.1739 168.95 16.7234 168.95 16.1339V13.2855H168.122V12.3117L169.023 12.2786L169.123 10.8875L170.418 10.7484V12.2587H171.852V13.2855H170.418Z" fill="white"/>
<path d="M176.29 17.7966V14.1599C176.29 13.8353 176.217 13.5968 176.07 13.4445C175.923 13.2921 175.696 13.2126 175.383 13.2126C175.209 13.2126 175.029 13.2391 174.835 13.2921C174.648 13.3451 174.482 13.418 174.335 13.5041V17.8032H172.867V12.3515L174.041 12.2322L174.128 12.59C174.695 12.2587 175.249 12.0931 175.803 12.0931C176.424 12.0931 176.904 12.2587 177.244 12.5833C177.585 12.9079 177.752 13.3716 177.752 13.9678V17.8032H176.283L176.29 17.7966Z" fill="white"/>
<path d="M183.577 17.578C183.05 17.8364 182.463 17.9689 181.816 17.9689C180.861 17.9689 180.127 17.7171 179.62 17.2137C179.113 16.7103 178.859 15.975 178.859 15.0078C178.859 14.4183 178.973 13.9016 179.2 13.4578C179.427 13.014 179.74 12.6761 180.141 12.4377C180.541 12.1992 180.995 12.08 181.509 12.08C182.236 12.08 182.803 12.2853 183.217 12.7026C183.631 13.12 183.838 13.683 183.838 14.405C183.838 14.7429 183.804 15.0741 183.738 15.3987H180.301C180.328 15.9021 180.488 16.2731 180.768 16.5182C181.048 16.7633 181.462 16.8825 181.996 16.8825C182.53 16.8825 183.07 16.7633 183.571 16.5248V17.5847L183.577 17.578ZM181.509 13.1001C181.168 13.1001 180.888 13.2193 180.675 13.4512C180.461 13.683 180.328 14.001 180.294 14.405H182.49V14.2461C182.49 13.8685 182.403 13.5836 182.236 13.3915C182.069 13.1994 181.829 13.1001 181.509 13.1001Z" fill="white"/>
<path d="M184.979 17.7967V12.345L186.154 12.2257L186.274 12.7358C186.727 12.3251 187.235 12.1198 187.788 12.1198C187.962 12.1198 188.142 12.1462 188.336 12.1926V13.3916C188.115 13.3386 187.929 13.3187 187.762 13.3187C187.261 13.3187 186.828 13.4578 186.454 13.7294V17.8033H184.986L184.979 17.7967Z" fill="white"/>
<path d="M194.322 17.9688C193.461 17.9688 192.8 17.7171 192.346 17.2203C191.892 16.7235 191.666 15.9882 191.666 15.0211C191.666 14.0539 191.892 13.3385 192.34 12.8351C192.787 12.3383 193.447 12.0865 194.322 12.0865C195.196 12.0865 195.85 12.3383 196.304 12.8351C196.751 13.3385 196.978 14.0672 196.978 15.0211C196.978 15.9749 196.751 16.7168 196.297 17.2203C195.843 17.7237 195.182 17.9688 194.322 17.9688ZM194.322 16.8427C194.722 16.8427 195.009 16.7036 195.182 16.4188C195.356 16.1339 195.443 15.6702 195.443 15.0144C195.443 14.3586 195.356 13.9016 195.182 13.6234C195.009 13.3451 194.722 13.1994 194.322 13.1994C193.921 13.1994 193.634 13.3385 193.461 13.6234C193.287 13.9082 193.2 14.3653 193.2 15.0144C193.2 15.6636 193.287 16.1405 193.461 16.4188C193.634 16.697 193.921 16.8427 194.322 16.8427Z" fill="white"/>
<path d="M198.466 17.7965V13.2855H197.638V12.3117L198.466 12.2786V11.391C198.466 10.7815 198.633 10.298 198.973 9.94689C199.313 9.59581 199.774 9.42358 200.368 9.42358C200.755 9.42358 201.142 9.49645 201.529 9.64218V10.6358C201.202 10.5497 200.941 10.5033 200.748 10.5033C200.488 10.5033 200.288 10.5762 200.147 10.7153C200.007 10.8544 199.934 11.0598 199.934 11.338V12.2521H201.262V13.2789H199.934V17.7899H198.466V17.7965Z" fill="white"/>
<path d="M266.999 28.7821C267.433 28.7821 267.78 29.0868 267.78 29.5042C267.78 29.9215 267.433 30.2328 266.999 30.2328C266.565 30.2328 266.218 29.9215 266.218 29.5042C266.218 29.0868 266.565 28.7821 266.999 28.7821ZM266.999 30.4316C267.56 30.4316 268 30.0209 268 29.5042C268 28.9875 267.56 28.5768 266.999 28.5768C266.438 28.5768 265.998 28.9875 265.998 29.5042C265.998 30.0209 266.438 30.4316 266.999 30.4316ZM267.206 29.5969C267.393 29.5837 267.486 29.4909 267.486 29.3121C267.486 29.0603 267.326 29.0206 267.079 29.0206H266.572V29.9877H266.792V29.6035H266.979L267.219 29.9877H267.46L267.206 29.6035V29.5969ZM266.792 29.4247V29.1928H267.032C267.133 29.1928 267.273 29.1928 267.273 29.2988C267.273 29.4048 267.199 29.4247 267.086 29.4247H266.792Z" fill="white"/>
<path d="M213.219 0H260.873C263.436 0 265.524 2.06674 265.524 4.61705V25.7681C265.524 28.3117 263.442 30.3851 260.873 30.3851H213.219C210.656 30.3851 208.567 28.3184 208.567 25.7681V4.61705C208.567 2.06674 210.649 0 213.219 0Z" fill="white"/>
<path d="M263.062 2.43775C262.475 1.85483 261.701 1.53687 260.873 1.53687H247.546L255.214 14.2288L255.915 14.3149L256.322 14.8912V15.441L256.816 15.5271L257.256 16.1366V16.6599L257.75 16.746C257.75 16.746 258.244 17.2693 258.244 17.2958C258.244 17.2693 258.244 18.4815 258.244 18.4815C258.244 18.4815 259.325 19.4685 260.286 19.8395C260.96 20.0978 261.047 21.1709 261.427 21.7539C261.954 22.562 262.655 22.9131 262.508 23.3768C262.161 24.6221 260.873 26.7087 259.679 26.828C259.679 26.828 256.702 26.828 254.947 26.828V28.8351H260.86C262.568 28.8351 263.956 27.4507 263.956 25.7549V4.61711C263.956 3.79571 263.636 3.02068 263.049 2.44438L263.062 2.43775Z" fill="#BC0022"/>
<path d="M243.008 1.5369H213.219C212.391 1.5369 211.61 1.85486 211.03 2.43779C210.442 3.02071 210.122 3.78912 210.122 4.61052V25.7615C210.122 26.5829 210.442 27.358 211.03 27.9343C211.617 28.5172 212.391 28.8351 213.219 28.8351H232.571C232.084 28.0336 231.544 27.1195 231.37 26.8413H229.061C229.061 21.1643 231.01 18.0046 233.319 17.3952C233.639 17.3356 233.492 15.7723 233.085 15.3086C233.085 15.3086 231.977 15.3351 231.744 15.2821C231.45 15.196 231.657 14.9045 231.657 14.9045L232.738 12.586L232.591 11.9501H228.594C228.534 11.9501 231.891 9.65814 231.891 9.65814C232.064 3.63014 238.284 3.16645 242.047 5.65714C244.27 7.13433 244.443 10.0291 244.27 12.0627C244.243 12.1753 243.689 12.0892 243.689 12.0892C243.689 12.0892 243.309 14.2884 244.303 14.2884H248.681C250.462 14.2288 252.184 15.4146 252.184 15.4146L252.618 13.9042L243.008 1.53027V1.5369ZM216.528 24.4897C215.354 24.4897 214.4 23.5424 214.4 22.3766C214.4 21.2107 215.354 20.2635 216.528 20.2635C217.703 20.2635 218.657 21.2107 218.657 22.3766C218.657 23.5424 217.71 24.4897 216.528 24.4897Z" fill="#041E42"/>
<path d="M9.54227 27.5339L10.2927 29.4393L11.0496 27.5339H11.6043L11.8457 30.3659H11.3433L11.1932 28.33L10.5015 30.0919H10.0774L9.37261 28.2974L9.22253 30.3659H8.7266L8.96804 27.5339H9.54227ZM7.08219 30.3659V27.9646H6.24042V27.5339H8.45906V27.9646H7.61728V30.3659H7.08219ZM12.3928 32.1017L14.0372 27.2011H14.6571L13.0127 32.1017H12.3928ZM17.4736 32.1996C17.0212 32.1996 16.6123 32.0908 16.2468 31.8733C15.8858 31.6514 15.6052 31.36 15.4051 30.9989C15.2049 30.6378 15.1049 30.2441 15.1049 29.8178C15.1049 29.361 15.2136 28.9499 15.4312 28.5845C15.653 28.2191 15.9423 27.9363 16.299 27.7362C16.6601 27.5361 17.0516 27.436 17.4736 27.436C17.926 27.436 18.3328 27.5469 18.6939 27.7688C19.0593 27.9863 19.342 28.2756 19.5422 28.6367C19.7423 28.9978 19.8423 29.3915 19.8423 29.8178C19.8423 30.2746 19.7314 30.6857 19.5095 31.0511C19.292 31.4165 19.0027 31.6993 18.6417 31.8994C18.2849 32.0995 17.8956 32.1996 17.4736 32.1996ZM17.4736 31.8276C17.8564 31.8276 18.1958 31.7384 18.4916 31.5601C18.7917 31.3774 19.0223 31.1337 19.1833 30.8292C19.3486 30.5247 19.4312 30.1876 19.4312 29.8178C19.4312 29.4219 19.342 29.0717 19.1637 28.7672C18.9897 28.4583 18.7548 28.2212 18.4589 28.0559C18.1631 27.8906 17.8347 27.808 17.4736 27.808C17.0908 27.808 16.7493 27.8993 16.4491 28.082C16.1533 28.2604 15.9227 28.5018 15.7574 28.8064C15.5965 29.1109 15.516 29.448 15.516 29.8178C15.516 30.2137 15.603 30.566 15.777 30.8749C15.9554 31.1794 16.1925 31.4143 16.4883 31.5797C16.7841 31.745 17.1125 31.8276 17.4736 31.8276ZM18.3154 31.0837C18.0892 31.2055 17.8347 31.2664 17.5519 31.2664C17.1473 31.2664 16.8298 31.1381 16.5992 30.8814C16.3686 30.6248 16.2534 30.2702 16.2534 29.8178C16.2534 29.3654 16.3686 29.0108 16.5992 28.7541C16.8341 28.4975 17.1517 28.3691 17.5519 28.3691C17.826 28.3691 18.0761 28.4301 18.3023 28.5519V28.963C18.1892 28.9021 18.0805 28.8586 17.9761 28.8325C17.876 28.802 17.7651 28.7868 17.6433 28.7868C17.3866 28.7868 17.1843 28.8803 17.0364 29.0674C16.8928 29.2501 16.8211 29.5002 16.8211 29.8178C16.8211 30.1397 16.8928 30.392 17.0364 30.5747C17.1843 30.7574 17.3866 30.8488 17.6433 30.8488C17.8564 30.8488 18.0805 30.7901 18.3154 30.6726V31.0837ZM22.0562 32.1017C22.0649 31.7102 22.1432 31.3708 22.2911 31.0837C22.4434 30.7966 22.6979 30.503 23.0546 30.2028L23.6028 29.7395C23.8246 29.5524 23.9834 29.3849 24.0791 29.237C24.1748 29.0891 24.2227 28.9369 24.2227 28.7803C24.2227 28.5497 24.1378 28.367 23.9682 28.2321C23.8029 28.0973 23.5767 28.0298 23.2895 28.0298C22.9154 28.0298 22.55 28.1603 22.1933 28.4214V27.9189C22.5456 27.6622 22.9611 27.5339 23.4396 27.5339C23.7224 27.5339 23.9703 27.5883 24.1835 27.697C24.401 27.8014 24.5685 27.9472 24.686 28.1342C24.8034 28.3169 24.8622 28.5214 24.8622 28.7476C24.8622 28.9738 24.8013 29.187 24.6794 29.3871C24.562 29.5829 24.3597 29.8026 24.0726 30.0462L23.5505 30.4899C23.3069 30.6987 23.122 30.8901 22.9959 31.0641C22.8697 31.2382 22.7893 31.4122 22.7544 31.5862H24.2683C24.5207 31.5862 24.7382 31.5797 24.9209 31.5666V32.1017H22.0562ZM27.2832 31.7167C27.6226 31.7167 27.8705 31.5688 28.0271 31.273C28.1837 30.9728 28.262 30.503 28.262 29.8635C28.262 29.224 28.1816 28.7563 28.0206 28.4605C27.864 28.1647 27.6182 28.0168 27.2832 28.0168C26.9483 28.0168 26.7003 28.1647 26.5393 28.4605C26.3827 28.7563 26.3044 29.224 26.3044 29.8635C26.3044 30.503 26.3827 30.9728 26.5393 31.273C26.6959 31.5688 26.9439 31.7167 27.2832 31.7167ZM27.2832 32.1996C26.2044 32.1996 25.6649 31.4209 25.6649 29.8635C25.6649 29.0935 25.7998 28.5127 26.0695 28.1212C26.3392 27.7297 26.7438 27.5339 27.2832 27.5339C27.8227 27.5339 28.2272 27.7297 28.497 28.1212C28.7667 28.5127 28.9015 29.0935 28.9015 29.8635C28.9015 31.4209 28.3621 32.1996 27.2832 32.1996ZM29.5436 32.1017C29.5523 31.7102 29.6306 31.3708 29.7785 31.0837C29.9308 30.7966 30.1853 30.503 30.542 30.2028L31.0902 29.7395C31.312 29.5524 31.4708 29.3849 31.5665 29.237C31.6622 29.0891 31.7101 28.9369 31.7101 28.7803C31.7101 28.5497 31.6252 28.367 31.4556 28.2321C31.2903 28.0973 31.0641 28.0298 30.7769 28.0298C30.4028 28.0298 30.0374 28.1603 29.6807 28.4214V27.9189C30.033 27.6622 30.4485 27.5339 30.927 27.5339C31.2098 27.5339 31.4577 27.5883 31.6709 27.697C31.8884 27.8014 32.0559 27.9472 32.1734 28.1342C32.2908 28.3169 32.3496 28.5214 32.3496 28.7476C32.3496 28.9738 32.2887 29.187 32.1668 29.3871C32.0494 29.5829 31.8471 29.8026 31.56 30.0462L31.0379 30.4899C30.7943 30.6987 30.6094 30.8901 30.4833 31.0641C30.3571 31.2382 30.2767 31.4122 30.2418 31.5862H31.7557C32.0081 31.5862 32.2256 31.5797 32.4083 31.5666V32.1017H29.5436ZM35.9191 28.0429C35.4667 28.0646 35.0795 28.1495 34.7576 28.2974C34.4357 28.4409 34.1833 28.6432 34.0006 28.9042C33.8223 29.1609 33.7179 29.4698 33.6874 29.8308C33.8136 29.6742 33.9811 29.5502 34.1899 29.4589C34.3987 29.3675 34.6162 29.3219 34.8424 29.3219C35.1078 29.3219 35.3449 29.3871 35.5537 29.5176C35.7625 29.6438 35.9235 29.8156 36.0366 30.0331C36.1497 30.2463 36.2062 30.4812 36.2062 30.7379C36.2062 31.0337 36.1388 31.2925 36.0039 31.5144C35.8734 31.7319 35.6929 31.9016 35.4623 32.0234C35.2318 32.1408 34.9707 32.1996 34.6793 32.1996C34.34 32.1996 34.0485 32.1213 33.8049 31.9647C33.5656 31.8037 33.3829 31.5753 33.2567 31.2795C33.1349 30.9837 33.074 30.6356 33.074 30.2354C33.074 29.6873 33.185 29.2153 33.4068 28.8194C33.6287 28.4192 33.9463 28.1103 34.3595 27.8928C34.7728 27.6753 35.2644 27.5556 35.8343 27.5339L35.9191 28.0429ZM34.7315 29.7982C34.5314 29.7982 34.3356 29.8526 34.1442 29.9613C33.9528 30.0701 33.7983 30.2158 33.6809 30.3986C33.6983 30.8249 33.7918 31.1511 33.9615 31.3774C34.1355 31.6036 34.3748 31.7167 34.6793 31.7167C34.9533 31.7167 35.173 31.6297 35.3383 31.4557C35.5037 31.2773 35.5863 31.0446 35.5863 30.7574C35.5863 30.4703 35.508 30.2398 35.3514 30.0658C35.1948 29.8874 34.9881 29.7982 34.7315 29.7982ZM40.895 31.7036L39.6226 28.4279L39.3746 32.1017H38.7743L39.1332 27.5339H39.8444L41.1561 30.9141L42.4677 27.5339H43.1789L43.5378 32.1017H42.931L42.6765 28.4279L41.4105 31.7036H40.895ZM44.688 32.1017V27.5339H45.321V31.5797H47.4221V32.1017H44.688ZM48.2214 32.1017V27.6318C48.452 27.5883 48.6956 27.5535 48.9522 27.5274C49.2089 27.5013 49.4329 27.4882 49.6244 27.4882C50.1333 27.4882 50.5227 27.5905 50.7924 27.7949C51.0665 27.995 51.2035 28.2843 51.2035 28.6628C51.2035 28.9151 51.1339 29.1304 50.9947 29.3088C50.8598 29.4872 50.6597 29.622 50.3944 29.7134C50.7163 29.783 50.9642 29.9178 51.1383 30.118C51.3166 30.3137 51.4058 30.5617 51.4058 30.8619C51.4058 31.2621 51.2666 31.5688 50.9882 31.7819C50.7098 31.9951 50.3117 32.1017 49.794 32.1017H48.2214ZM49.7744 31.6188C50.0964 31.6188 50.34 31.5514 50.5053 31.4165C50.6749 31.2773 50.7598 31.075 50.7598 30.8097C50.7598 30.5486 50.6706 30.3485 50.4922 30.2093C50.3182 30.0658 50.0724 29.994 49.7549 29.994H48.8348V31.6188H49.7744ZM49.5787 27.9711C49.3742 27.9711 49.1263 27.9929 48.8348 28.0364V29.5241H49.6961C49.9702 29.5241 50.1855 29.4545 50.3422 29.3153C50.5031 29.1718 50.5836 28.9804 50.5836 28.7411C50.5836 28.2278 50.2486 27.9711 49.5787 27.9711ZM52.5232 32.1343C52.4057 32.1343 52.31 32.0973 52.2361 32.0234C52.1621 31.9494 52.1251 31.8537 52.1251 31.7363C52.1251 31.6188 52.1621 31.5231 52.2361 31.4491C52.31 31.3752 52.4057 31.3382 52.5232 31.3382C52.6406 31.3382 52.7363 31.3752 52.8103 31.4491C52.8842 31.5231 52.9212 31.6188 52.9212 31.7363C52.9212 31.8537 52.8842 31.9494 52.8103 32.0234C52.7363 32.0973 52.6406 32.1343 52.5232 32.1343Z" fill="white"/>
</svg>
