<svg width="693" height="23" viewBox="0 0 693 23" fill="none" xmlns="http://www.w3.org/2000/svg">
<path d="M685.335 21.616V7.55997L687.463 7.33597L687.687 8.62397C688.919 7.57864 690.235 7.05597 691.635 7.05597C692.064 7.05597 692.494 7.1213 692.923 7.25197V9.40797C692.475 9.29597 692.018 9.23997 691.551 9.23997C690.207 9.23997 689.012 9.65997 687.967 10.5V21.616H685.335Z" fill="white"/>
<path d="M675.459 19.964C676.766 19.964 677.709 19.5347 678.287 18.676C678.885 17.8173 679.183 16.4267 679.183 14.504C679.183 12.5813 678.885 11.1907 678.287 10.332C677.709 9.47333 676.766 9.044 675.459 9.044C674.153 9.044 673.201 9.47333 672.603 10.332C672.025 11.1907 671.735 12.5813 671.735 14.504C671.735 16.4267 672.025 17.8173 672.603 18.676C673.201 19.5347 674.153 19.964 675.459 19.964ZM675.459 22.036C673.331 22.036 671.717 21.4013 670.615 20.132C669.533 18.844 668.991 16.968 668.991 14.504C668.991 12.04 669.533 10.1733 670.615 8.904C671.717 7.616 673.331 6.972 675.459 6.972C677.587 6.972 679.193 7.616 680.275 8.904C681.377 10.1733 681.927 12.04 681.927 14.504C681.927 16.968 681.377 18.844 680.275 20.132C679.193 21.4013 677.587 22.036 675.459 22.036Z" fill="white"/>
<path d="M659.929 21.616L654.637 7.39203H657.437L661.245 18.732L665.109 7.39203H667.797L662.449 21.616H659.929Z" fill="white"/>
<path d="M650.377 21.672L650.209 20.692C648.641 21.588 647.119 22.036 645.645 22.036C644.17 22.036 642.994 21.644 642.117 20.86C641.258 20.0573 640.829 18.984 640.829 17.64C640.829 16.24 641.314 15.1573 642.285 14.392C643.255 13.608 644.618 13.216 646.373 13.216C647.399 13.216 648.585 13.3373 649.929 13.58V12.096C649.929 11.0693 649.63 10.304 649.033 9.8C648.454 9.296 647.558 9.044 646.345 9.044C644.926 9.044 643.377 9.37067 641.697 10.024V7.98C642.481 7.66267 643.33 7.42 644.245 7.252C645.159 7.06533 646.027 6.972 646.849 6.972C648.697 6.972 650.097 7.40133 651.049 8.26C652.019 9.11867 652.505 10.3787 652.505 12.04V21.448L650.377 21.672ZM646.317 19.992C646.858 19.992 647.465 19.8987 648.137 19.712C648.809 19.5253 649.406 19.2827 649.929 18.984V15.4C649.051 15.176 648.015 15.064 646.821 15.064C645.701 15.064 644.87 15.2787 644.329 15.708C643.806 16.1187 643.545 16.744 643.545 17.584C643.545 19.1893 644.469 19.992 646.317 19.992Z" fill="white"/>
<path d="M625.236 18.48C627.14 19.3947 629.026 19.852 630.892 19.852C632.386 19.852 633.543 19.5347 634.364 18.9C635.186 18.2653 635.596 17.36 635.596 16.184C635.596 15.3253 635.335 14.6253 634.812 14.084C634.29 13.5427 633.412 13.076 632.18 12.684L630.332 12.096C628.671 11.5733 627.467 10.92 626.72 10.136C625.992 9.33334 625.628 8.32534 625.628 7.11201C625.628 5.43201 626.254 4.09734 627.504 3.10801C628.755 2.10001 630.435 1.59601 632.544 1.59601C634.299 1.59601 635.988 1.96001 637.612 2.68801V4.84401C635.895 4.13467 634.29 3.78001 632.796 3.78001C631.452 3.78001 630.388 4.06934 629.604 4.64801C628.839 5.20801 628.456 5.98268 628.456 6.97201C628.456 7.70001 628.671 8.27868 629.1 8.70801C629.548 9.13734 630.314 9.52934 631.396 9.88401L633.244 10.472C635.092 11.0693 636.418 11.816 637.22 12.712C638.023 13.5893 638.424 14.7373 638.424 16.156C638.424 18.004 637.78 19.4507 636.492 20.496C635.204 21.5227 633.422 22.036 631.144 22.036C629.072 22.036 627.234 21.644 625.628 20.86L625.236 18.48Z" fill="white"/>
<path d="M603.468 21.616V0.588028L606.1 0.280029V8.12003C607.537 7.3547 608.946 6.97203 610.328 6.97203C611.877 6.97203 613.072 7.3827 613.912 8.20403C614.77 9.0067 615.2 10.1547 615.2 11.648V21.616H612.568V12.04C612.568 10.0427 611.578 9.04403 609.6 9.04403C609.077 9.04403 608.489 9.13736 607.836 9.32403C607.201 9.49203 606.622 9.72536 606.1 10.024V21.616H603.468Z" fill="white"/>
<path d="M596.544 9.296V17.472C596.544 18.312 596.73 18.9373 597.104 19.348C597.477 19.74 598.046 19.936 598.812 19.936C599.39 19.936 600.006 19.8333 600.66 19.628V21.504C599.876 21.8027 599.064 21.952 598.224 21.952C596.805 21.952 595.732 21.5787 595.004 20.832C594.276 20.0853 593.912 18.9933 593.912 17.556V9.296H591.784V7.504L594.024 7.42L594.22 3.864L596.544 3.612V7.392H600.52V9.296H596.544Z" fill="white"/>
<path d="M586.433 21.616V7.616L589.065 7.308V21.616H586.433ZM587.749 4.48C587.207 4.48 586.778 4.34 586.461 4.06C586.162 3.76134 586.013 3.36 586.013 2.856C586.013 2.352 586.162 1.96 586.461 1.68C586.778 1.38134 587.207 1.232 587.749 1.232C588.29 1.232 588.71 1.38134 589.009 1.68C589.326 1.96 589.485 2.352 589.485 2.856C589.485 3.36 589.326 3.76134 589.009 4.06C588.71 4.34 588.29 4.48 587.749 4.48Z" fill="white"/>
<path d="M577.269 21.616L573.937 10.164L570.717 21.616H568.309L563.857 7.39203H566.517L569.569 18.424L572.593 7.39203H575.365L578.445 18.424L581.469 7.39203H584.045L579.677 21.616H577.269Z" fill="white"/>
<path d="M552.001 21.616V12.04C552.001 10.0427 551.012 9.04398 549.033 9.04398C548.511 9.04398 547.923 9.13732 547.269 9.32399C546.635 9.49199 546.056 9.72532 545.533 10.024V21.616H542.901V7.55998L545.029 7.33598L545.197 8.31598C546.728 7.41998 548.249 6.97198 549.761 6.97198C551.311 6.97198 552.505 7.38265 553.345 8.20398C554.204 9.00665 554.633 10.1547 554.633 11.648V21.616H552.001Z" fill="white"/>
<path d="M536.531 21.672L536.363 20.692C534.832 21.588 533.311 22.036 531.799 22.036C530.287 22.036 529.111 21.6254 528.271 20.804C527.431 19.9827 527.011 18.8347 527.011 17.36V7.39203H529.643V16.968C529.643 18.9654 530.604 19.964 532.527 19.964C533.068 19.964 533.656 19.88 534.291 19.712C534.925 19.5254 535.504 19.2827 536.027 18.984V7.39203H538.659V21.448L536.531 21.672Z" fill="white"/>
<path d="M518.005 21.616V9.296H515.877V7.504L518.005 7.42V4.648C518.005 3.17333 518.388 2.03467 519.153 1.232C519.919 0.410666 521.011 0 522.429 0C523.251 0 524.091 0.149333 524.949 0.447999V2.324C524.184 2.11867 523.531 2.016 522.989 2.016C521.421 2.016 520.637 2.84667 520.637 4.508V7.392H524.249V9.296H520.637V21.616H518.005Z" fill="white"/>
<path d="M506.15 0.279999V21.448L504.022 21.672L503.854 20.692C502.379 21.588 500.951 22.036 499.57 22.036C497.74 22.036 496.303 21.392 495.258 20.104C494.231 18.7973 493.718 17.0053 493.718 14.728C493.718 12.264 494.324 10.36 495.538 9.016C496.751 7.65333 498.459 6.972 500.662 6.972C501.726 6.972 502.678 7.10267 503.518 7.364V0.587998L506.15 0.279999ZM500.186 19.964C500.69 19.964 501.24 19.88 501.838 19.712C502.454 19.5253 503.014 19.2827 503.518 18.984V9.352C502.734 9.128 501.903 9.016 501.026 9.016C499.495 9.016 498.347 9.48267 497.582 10.416C496.835 11.3493 496.462 12.768 496.462 14.672C496.462 16.408 496.77 17.724 497.386 18.62C498.02 19.516 498.954 19.964 500.186 19.964Z" fill="white"/>
<path d="M487.826 21.616V12.04C487.826 10.0427 486.836 9.04398 484.858 9.04398C484.335 9.04398 483.747 9.13732 483.094 9.32399C482.459 9.49199 481.88 9.72532 481.358 10.024V21.616H478.726V7.55998L480.854 7.33598L481.022 8.31598C482.552 7.41998 484.074 6.97198 485.586 6.97198C487.135 6.97198 488.33 7.38265 489.17 8.20398C490.028 9.00665 490.458 10.1547 490.458 11.648V21.616H487.826Z" fill="white"/>
<path d="M472.506 21.672L472.338 20.692C470.77 21.588 469.248 22.036 467.774 22.036C466.299 22.036 465.123 21.644 464.246 20.86C463.387 20.0573 462.958 18.984 462.958 17.64C462.958 16.24 463.443 15.1573 464.414 14.392C465.384 13.608 466.747 13.216 468.502 13.216C469.528 13.216 470.714 13.3373 472.058 13.58V12.096C472.058 11.0693 471.759 10.304 471.162 9.8C470.583 9.296 469.687 9.044 468.474 9.044C467.055 9.044 465.506 9.37067 463.826 10.024V7.98C464.61 7.66267 465.459 7.42 466.374 7.252C467.288 7.06533 468.156 6.972 468.978 6.972C470.826 6.972 472.226 7.40133 473.178 8.26C474.148 9.11867 474.634 10.3787 474.634 12.04V21.448L472.506 21.672ZM468.446 19.992C468.987 19.992 469.594 19.8987 470.266 19.712C470.938 19.5253 471.535 19.2827 472.058 18.984V15.4C471.18 15.176 470.144 15.064 468.95 15.064C467.83 15.064 466.999 15.2787 466.458 15.708C465.935 16.1187 465.674 16.744 465.674 17.584C465.674 19.1893 466.598 19.992 468.446 19.992Z" fill="white"/>
<path d="M452.474 0.279999V21.448L450.346 21.672L450.178 20.692C448.703 21.588 447.275 22.036 445.894 22.036C444.065 22.036 442.627 21.392 441.582 20.104C440.555 18.7973 440.042 17.0053 440.042 14.728C440.042 12.264 440.649 10.36 441.862 9.016C443.075 7.65333 444.783 6.972 446.986 6.972C448.05 6.972 449.002 7.10267 449.842 7.364V0.587998L452.474 0.279999ZM446.51 19.964C447.014 19.964 447.565 19.88 448.162 19.712C448.778 19.5253 449.338 19.2827 449.842 18.984V9.352C449.058 9.128 448.227 9.016 447.35 9.016C445.819 9.016 444.671 9.48267 443.906 10.416C443.159 11.3493 442.786 12.768 442.786 14.672C442.786 16.408 443.094 17.724 443.71 18.62C444.345 19.516 445.278 19.964 446.51 19.964Z" fill="white"/>
<path d="M431.006 19.964C432.313 19.964 433.255 19.5347 433.834 18.676C434.431 17.8173 434.73 16.4267 434.73 14.504C434.73 12.5813 434.431 11.1907 433.834 10.332C433.255 9.47333 432.313 9.044 431.006 9.044C429.699 9.044 428.747 9.47333 428.15 10.332C427.571 11.1907 427.282 12.5813 427.282 14.504C427.282 16.4267 427.571 17.8173 428.15 18.676C428.747 19.5347 429.699 19.964 431.006 19.964ZM431.006 22.036C428.878 22.036 427.263 21.4013 426.162 20.132C425.079 18.844 424.538 16.968 424.538 14.504C424.538 12.04 425.079 10.1733 426.162 8.904C427.263 7.616 428.878 6.972 431.006 6.972C433.134 6.972 434.739 7.616 435.822 8.904C436.923 10.1733 437.474 12.04 437.474 14.504C437.474 16.968 436.923 18.844 435.822 20.132C434.739 21.4013 433.134 22.036 431.006 22.036Z" fill="white"/>
<path d="M415.502 19.964C416.809 19.964 417.752 19.5347 418.33 18.676C418.928 17.8173 419.226 16.4267 419.226 14.504C419.226 12.5813 418.928 11.1907 418.33 10.332C417.752 9.47333 416.809 9.044 415.502 9.044C414.196 9.044 413.244 9.47333 412.646 10.332C412.068 11.1907 411.778 12.5813 411.778 14.504C411.778 16.4267 412.068 17.8173 412.646 18.676C413.244 19.5347 414.196 19.964 415.502 19.964ZM415.502 22.036C413.374 22.036 411.76 21.4013 410.658 20.132C409.576 18.844 409.034 16.968 409.034 14.504C409.034 12.04 409.576 10.1733 410.658 8.904C411.76 7.616 413.374 6.972 415.502 6.972C417.63 6.972 419.236 7.616 420.318 8.904C421.42 10.1733 421.97 12.04 421.97 14.504C421.97 16.968 421.42 18.844 420.318 20.132C419.236 21.4013 417.63 22.036 415.502 22.036Z" fill="white"/>
<path d="M400.974 21.616V9.296H398.846V7.504L400.974 7.42V4.648C400.974 3.17333 401.357 2.03467 402.122 1.232C402.888 0.410666 403.98 0 405.398 0C406.22 0 407.06 0.149333 407.918 0.447999V2.324C407.153 2.11867 406.5 2.016 405.958 2.016C404.39 2.016 403.606 2.84667 403.606 4.508V7.392H407.218V9.296H403.606V21.616H400.974Z" fill="white"/>
<path d="M386.654 21.616V12.04C386.654 10.0427 385.664 9.04398 383.686 9.04398C383.163 9.04398 382.575 9.13732 381.922 9.32399C381.287 9.49199 380.708 9.72532 380.186 10.024V21.616H377.554V7.55998L379.682 7.33598L379.85 8.31598C381.38 7.41998 382.902 6.97198 384.414 6.97198C385.963 6.97198 387.158 7.38265 387.998 8.20398C388.856 9.00665 389.286 10.1547 389.286 11.648V21.616H386.654Z" fill="white"/>
<path d="M367.678 19.964C368.985 19.964 369.927 19.5347 370.506 18.676C371.103 17.8173 371.402 16.4267 371.402 14.504C371.402 12.5813 371.103 11.1907 370.506 10.332C369.927 9.47333 368.985 9.044 367.678 9.044C366.371 9.044 365.419 9.47333 364.822 10.332C364.243 11.1907 363.954 12.5813 363.954 14.504C363.954 16.4267 364.243 17.8173 364.822 18.676C365.419 19.5347 366.371 19.964 367.678 19.964ZM367.678 22.036C365.55 22.036 363.935 21.4013 362.834 20.132C361.751 18.844 361.21 16.968 361.21 14.504C361.21 12.04 361.751 10.1733 362.834 8.904C363.935 7.616 365.55 6.972 367.678 6.972C369.806 6.972 371.411 7.616 372.494 8.904C373.595 10.1733 374.146 12.04 374.146 14.504C374.146 16.968 373.595 18.844 372.494 20.132C371.411 21.4013 369.806 22.036 367.678 22.036Z" fill="white"/>
<path d="M341.104 21.616V0.588028L343.737 0.280029V13.496L349.589 7.39203H352.612L346.257 14L352.921 21.616H349.729L343.737 14.644V21.616H341.104Z" fill="white"/>
<path d="M337.864 21.112C336.576 21.728 335.148 22.036 333.58 22.036C331.526 22.036 329.94 21.3827 328.82 20.076C327.7 18.7693 327.14 16.9213 327.14 14.532C327.14 12.124 327.7 10.2667 328.82 8.96C329.958 7.63467 331.554 6.972 333.608 6.972C335.045 6.972 336.436 7.28 337.78 7.896V9.912C336.492 9.352 335.26 9.072 334.084 9.072C332.702 9.072 331.657 9.52933 330.948 10.444C330.238 11.3587 329.884 12.712 329.884 14.504C329.884 16.2773 330.238 17.6307 330.948 18.564C331.657 19.4787 332.702 19.936 334.084 19.936C335.26 19.936 336.52 19.656 337.864 19.096V21.112Z" fill="white"/>
<path d="M321.759 21.672L321.591 20.692C320.023 21.588 318.502 22.036 317.027 22.036C315.553 22.036 314.377 21.644 313.499 20.86C312.641 20.0573 312.211 18.984 312.211 17.64C312.211 16.24 312.697 15.1573 313.667 14.392C314.638 13.608 316.001 13.216 317.755 13.216C318.782 13.216 319.967 13.3373 321.311 13.58V12.096C321.311 11.0693 321.013 10.304 320.415 9.8C319.837 9.296 318.941 9.044 317.727 9.044C316.309 9.044 314.759 9.37067 313.079 10.024V7.98C313.863 7.66267 314.713 7.42 315.627 7.252C316.542 7.06533 317.41 6.972 318.231 6.972C320.079 6.972 321.479 7.40133 322.431 8.26C323.402 9.11867 323.887 10.3787 323.887 12.04V21.448L321.759 21.672ZM317.699 19.992C318.241 19.992 318.847 19.8987 319.519 19.712C320.191 19.5253 320.789 19.2827 321.311 18.984V15.4C320.434 15.176 319.398 15.064 318.203 15.064C317.083 15.064 316.253 15.2787 315.711 15.708C315.189 16.1187 314.927 16.744 314.927 17.584C314.927 19.1893 315.851 19.992 317.699 19.992Z" fill="white"/>
<path d="M299.768 8.09203C301.168 7.34536 302.484 6.97203 303.716 6.97203C305.545 6.97203 306.973 7.62536 308 8.93203C309.045 10.22 309.568 12.0027 309.568 14.28C309.568 16.7814 308.933 18.704 307.664 20.048C306.394 21.3734 304.584 22.036 302.232 22.036C300.552 22.036 298.853 21.7934 297.136 21.308V0.588028L299.768 0.280029V8.09203ZM303.1 9.04403C302.596 9.04403 302.036 9.13736 301.42 9.32403C300.822 9.49203 300.272 9.72536 299.768 10.024V19.656C300.552 19.88 301.382 19.992 302.26 19.992C303.79 19.992 304.929 19.5254 305.676 18.592C306.441 17.6587 306.824 16.24 306.824 14.336C306.824 12.6 306.506 11.284 305.872 10.388C305.256 9.49203 304.332 9.04403 303.1 9.04403Z" fill="white"/>
<path d="M274.304 21.616V0.588028L276.936 0.280029V8.12003C278.373 7.3547 279.782 6.97203 281.164 6.97203C282.713 6.97203 283.908 7.3827 284.748 8.20403C285.606 9.0067 286.036 10.1547 286.036 11.648V21.616H283.404V12.04C283.404 10.0427 282.414 9.04403 280.436 9.04403C279.913 9.04403 279.325 9.13736 278.672 9.32403C278.037 9.49203 277.458 9.72536 276.936 10.024V21.616H274.304Z" fill="white"/>
<path d="M260.582 19.012C262.075 19.6653 263.569 19.992 265.062 19.992C266.145 19.992 266.966 19.7867 267.526 19.376C268.105 18.9653 268.394 18.3773 268.394 17.612C268.394 17.108 268.235 16.6973 267.918 16.38C267.601 16.0627 267.078 15.792 266.35 15.568L264.446 14.98C263.177 14.588 262.253 14.084 261.674 13.468C261.095 12.852 260.806 12.068 260.806 11.116C260.806 9.84665 261.301 8.83865 262.29 8.09198C263.279 7.34532 264.614 6.97198 266.294 6.97198C267.713 6.97198 269.066 7.25198 270.354 7.81198V9.82798C268.935 9.28665 267.638 9.01598 266.462 9.01598C265.51 9.01598 264.763 9.20265 264.222 9.57598C263.699 9.93065 263.438 10.416 263.438 11.032C263.438 11.48 263.578 11.8347 263.858 12.096C264.138 12.3387 264.661 12.5813 265.426 12.824L267.554 13.468C269.869 14.1587 271.026 15.5307 271.026 17.584C271.026 19.0213 270.531 20.1227 269.542 20.888C268.553 21.6533 267.125 22.036 265.258 22.036C263.522 22.036 262.066 21.7467 260.89 21.168L260.582 19.012Z" fill="white"/>
<path d="M255.341 21.672L255.173 20.692C253.605 21.588 252.084 22.036 250.609 22.036C249.135 22.036 247.959 21.644 247.081 20.86C246.223 20.0573 245.793 18.984 245.793 17.64C245.793 16.24 246.279 15.1573 247.249 14.392C248.22 13.608 249.583 13.216 251.337 13.216C252.364 13.216 253.549 13.3373 254.893 13.58V12.096C254.893 11.0693 254.595 10.304 253.997 9.8C253.419 9.296 252.523 9.044 251.309 9.044C249.891 9.044 248.341 9.37067 246.661 10.024V7.98C247.445 7.66267 248.295 7.42 249.209 7.252C250.124 7.06533 250.992 6.972 251.813 6.972C253.661 6.972 255.061 7.40133 256.013 8.26C256.984 9.11867 257.469 10.3787 257.469 12.04V21.448L255.341 21.672ZM251.281 19.992C251.823 19.992 252.429 19.8987 253.101 19.712C253.773 19.5253 254.371 19.2827 254.893 18.984V15.4C254.016 15.176 252.98 15.064 251.785 15.064C250.665 15.064 249.835 15.2787 249.293 15.708C248.771 16.1187 248.509 16.744 248.509 17.584C248.509 19.1893 249.433 19.992 251.281 19.992Z" fill="white"/>
<path d="M243.336 21.112C242.048 21.728 240.62 22.036 239.052 22.036C236.999 22.036 235.412 21.3827 234.292 20.076C233.172 18.7693 232.612 16.9213 232.612 14.532C232.612 12.124 233.172 10.2667 234.292 8.96C235.431 7.63467 237.027 6.972 239.08 6.972C240.518 6.972 241.908 7.28 243.252 7.896V9.912C241.964 9.352 240.732 9.072 239.556 9.072C238.175 9.072 237.13 9.52933 236.42 10.444C235.711 11.3587 235.356 12.712 235.356 14.504C235.356 16.2773 235.711 17.6307 236.42 18.564C237.13 19.4787 238.175 19.936 239.556 19.936C240.732 19.936 241.992 19.656 243.336 19.096V21.112Z" fill="white"/>
<path d="M205.232 21.616L215.284 2.436H217.608L207.556 21.616H205.232ZM204.112 12.936C204.933 12.936 205.531 12.5813 205.904 11.872C206.277 11.144 206.464 9.97733 206.464 8.372C206.464 6.76667 206.277 5.60933 205.904 4.9C205.531 4.172 204.933 3.808 204.112 3.808C203.291 3.808 202.693 4.172 202.32 4.9C201.947 5.60933 201.76 6.76667 201.76 8.372C201.76 9.97733 201.947 11.144 202.32 11.872C202.693 12.5813 203.291 12.936 204.112 12.936ZM204.112 14.588C202.6 14.588 201.443 14.056 200.64 12.992C199.837 11.9093 199.436 10.3693 199.436 8.372C199.436 6.37467 199.837 4.844 200.64 3.78C201.443 2.69733 202.6 2.156 204.112 2.156C205.624 2.156 206.781 2.69733 207.584 3.78C208.387 4.844 208.788 6.37467 208.788 8.372C208.788 10.3693 208.387 11.9093 207.584 12.992C206.781 14.056 205.624 14.588 204.112 14.588ZM218.728 20.244C219.549 20.244 220.147 19.8893 220.52 19.18C220.893 18.452 221.08 17.2853 221.08 15.68C221.08 14.0747 220.893 12.9173 220.52 12.208C220.147 11.48 219.549 11.116 218.728 11.116C217.907 11.116 217.309 11.48 216.936 12.208C216.563 12.9173 216.376 14.0747 216.376 15.68C216.376 17.2853 216.563 18.452 216.936 19.18C217.309 19.8893 217.907 20.244 218.728 20.244ZM218.728 21.896C217.216 21.896 216.059 21.364 215.256 20.3C214.453 19.2173 214.052 17.6773 214.052 15.68C214.052 13.6827 214.453 12.152 215.256 11.088C216.059 10.0053 217.216 9.464 218.728 9.464C220.24 9.464 221.397 10.0053 222.2 11.088C223.003 12.152 223.404 13.6827 223.404 15.68C223.404 17.6773 223.003 19.2173 222.2 20.3C221.397 21.364 220.24 21.896 218.728 21.896Z" fill="white"/>
<path d="M184.658 18.732C186.357 19.5347 188.028 19.936 189.67 19.936C191.126 19.936 192.274 19.6093 193.114 18.956C193.973 18.284 194.402 17.388 194.402 16.268C194.402 15.1667 194.02 14.2987 193.254 13.664C192.489 13.0107 191.444 12.684 190.118 12.684H188.298V10.584H189.978C191.173 10.584 192.116 10.2947 192.806 9.71599C193.497 9.13733 193.842 8.34399 193.842 7.33599C193.842 6.34666 193.478 5.56266 192.75 4.98399C192.022 4.40533 191.024 4.11599 189.754 4.11599C188.298 4.11599 186.833 4.41466 185.358 5.01199V2.96799C186.702 2.33332 188.28 2.01599 190.09 2.01599C192.032 2.01599 193.6 2.49199 194.794 3.44399C195.989 4.39599 196.586 5.63732 196.586 7.16799C196.586 8.19466 196.297 9.09066 195.718 9.85599C195.14 10.6213 194.318 11.1907 193.254 11.564C194.505 11.9187 195.466 12.516 196.138 13.356C196.81 14.196 197.146 15.2133 197.146 16.408C197.146 17.5467 196.838 18.5453 196.222 19.404C195.625 20.244 194.785 20.8973 193.702 21.364C192.638 21.812 191.416 22.036 190.034 22.036C189.101 22.036 188.186 21.9427 187.29 21.756C186.394 21.5693 185.629 21.3173 184.994 21L184.658 18.732Z" fill="white"/>
<path d="M175.099 0.279999V21.448L172.971 21.672L172.803 20.692C171.328 21.588 169.9 22.036 168.519 22.036C166.69 22.036 165.252 21.392 164.207 20.104C163.18 18.7973 162.667 17.0053 162.667 14.728C162.667 12.264 163.274 10.36 164.487 9.016C165.7 7.65333 167.408 6.972 169.611 6.972C170.675 6.972 171.627 7.10267 172.467 7.364V0.587998L175.099 0.279999ZM169.135 19.964C169.639 19.964 170.19 19.88 170.787 19.712C171.403 19.5253 171.963 19.2827 172.467 18.984V9.352C171.683 9.128 170.852 9.016 169.975 9.016C168.444 9.016 167.296 9.48267 166.531 10.416C165.784 11.3493 165.411 12.768 165.411 14.672C165.411 16.408 165.719 17.724 166.335 18.62C166.97 19.516 167.903 19.964 169.135 19.964Z" fill="white"/>
<path d="M159.435 21.084C158.147 21.7187 156.709 22.036 155.123 22.036C152.808 22.036 151.044 21.392 149.831 20.104C148.617 18.816 148.011 16.9307 148.011 14.448C148.011 12.9173 148.281 11.592 148.823 10.472C149.364 9.33333 150.12 8.46533 151.091 7.868C152.061 7.27067 153.172 6.972 154.423 6.972C156.177 6.972 157.559 7.49467 158.567 8.54C159.575 9.58533 160.079 11.032 160.079 12.88C160.079 13.608 160.013 14.3267 159.883 15.036H150.615C150.671 18.34 152.276 19.992 155.431 19.992C156.793 19.992 158.128 19.6933 159.435 19.096V21.084ZM154.423 8.904C153.34 8.904 152.453 9.28667 151.763 10.052C151.091 10.8173 150.708 11.8533 150.615 13.16H157.643C157.661 13.0667 157.671 12.9733 157.671 12.88C157.671 12.7867 157.671 12.6933 157.671 12.6C157.671 11.4427 157.381 10.5373 156.803 9.884C156.243 9.23067 155.449 8.904 154.423 8.904Z" fill="white"/>
<path d="M141.927 9.296V17.472C141.927 18.312 142.113 18.9373 142.487 19.348C142.86 19.74 143.429 19.936 144.195 19.936C144.773 19.936 145.389 19.8333 146.043 19.628V21.504C145.259 21.8027 144.447 21.952 143.607 21.952C142.188 21.952 141.115 21.5787 140.387 20.832C139.659 20.0853 139.295 18.9933 139.295 17.556V9.296H137.167V7.504L139.407 7.42L139.603 3.864L141.927 3.612V7.392H145.903V9.296H141.927Z" fill="white"/>
<path d="M131.816 21.616V7.616L134.448 7.308V21.616H131.816ZM133.132 4.48C132.59 4.48 132.161 4.34 131.844 4.06C131.545 3.76134 131.396 3.36 131.396 2.856C131.396 2.352 131.545 1.96 131.844 1.68C132.161 1.38134 132.59 1.232 133.132 1.232C133.673 1.232 134.093 1.38134 134.392 1.68C134.709 1.96 134.868 2.352 134.868 2.856C134.868 3.36 134.709 3.76134 134.392 4.06C134.093 4.34 133.673 4.48 133.132 4.48Z" fill="white"/>
<path d="M125.1 21.616V11.732C125.1 9.93998 124.232 9.04398 122.496 9.04398C121.45 9.04398 120.349 9.38932 119.192 10.08C119.285 10.4907 119.332 10.9013 119.332 11.312V21.616H116.7V11.732C116.7 9.93998 115.832 9.04398 114.096 9.04398C113.069 9.04398 112.014 9.37065 110.932 10.024V21.616H108.3V7.55998L110.428 7.33598L110.596 8.31598C112.033 7.41998 113.442 6.97198 114.824 6.97198C116.429 6.97198 117.642 7.48532 118.464 8.51198C120.144 7.48532 121.73 6.97198 123.224 6.97198C124.624 6.97198 125.725 7.35465 126.528 8.11998C127.33 8.88532 127.732 9.94932 127.732 11.312V21.616H125.1Z" fill="white"/>
<path d="M101.409 21.616V7.616L104.041 7.308V21.616H101.409ZM102.725 4.48C102.184 4.48 101.755 4.34 101.437 4.06C101.139 3.76134 100.989 3.36 100.989 2.856C100.989 2.352 101.139 1.96 101.437 1.68C101.755 1.38134 102.184 1.232 102.725 1.232C103.267 1.232 103.687 1.38134 103.985 1.68C104.303 1.96 104.461 2.352 104.461 2.856C104.461 3.36 104.303 3.76134 103.985 4.06C103.687 4.34 103.267 4.48 102.725 4.48Z" fill="white"/>
<path d="M94.5186 21.616V0.588028L97.1506 0.280029V21.616H94.5186Z" fill="white"/>
<path d="M87.7865 21.616V12.04C87.7865 10.0427 86.7972 9.04398 84.8185 9.04398C84.2959 9.04398 83.7079 9.13732 83.0545 9.32399C82.4199 9.49199 81.8412 9.72532 81.3185 10.024V21.616H78.6865V7.55998L80.8145 7.33598L80.9825 8.31598C82.5132 7.41998 84.0345 6.97198 85.5465 6.97198C87.0959 6.97198 88.2905 7.38265 89.1305 8.20398C89.9892 9.00665 90.4185 10.1547 90.4185 11.648V21.616H87.7865Z" fill="white"/>
<path d="M72.3159 21.672L72.1479 20.692C70.6172 21.588 69.0959 22.036 67.5839 22.036C66.0719 22.036 64.8959 21.6253 64.0559 20.804C63.2159 19.9827 62.7959 18.8347 62.7959 17.36V7.392H65.4279V16.968C65.4279 18.9653 66.3892 19.964 68.3119 19.964C68.8532 19.964 69.4412 19.88 70.0759 19.712C70.7106 19.5253 71.2892 19.2827 71.8119 18.984V7.392H74.4439V21.448L72.3159 21.672Z" fill="white"/>
<path d="M49.2318 21.616V12.04C49.2318 10.0427 48.2425 9.04398 46.2638 9.04398C45.7412 9.04398 45.1532 9.13732 44.4998 9.32399C43.8652 9.49199 43.2865 9.72532 42.7638 10.024V21.616H40.1318V7.55998L42.2598 7.33598L42.4278 8.31598C43.9585 7.41998 45.4798 6.97198 46.9918 6.97198C48.5412 6.97198 49.7358 7.38265 50.5758 8.20398C51.4345 9.00665 51.8638 10.1547 51.8638 11.648V21.616H49.2318Z" fill="white"/>
<path d="M29.9053 21.616V7.55997L32.0333 7.33597L32.2573 8.62397C33.4893 7.57864 34.8053 7.05597 36.2053 7.05597C36.6346 7.05597 37.0639 7.1213 37.4933 7.25197V9.40797C37.0453 9.29597 36.5879 9.23997 36.1213 9.23997C34.7773 9.23997 33.5826 9.65997 32.5373 10.5V21.616H29.9053Z" fill="white"/>
<path d="M23.6852 21.672L23.5172 20.692C21.9492 21.588 20.4279 22.036 18.9532 22.036C17.4785 22.036 16.3025 21.644 15.4252 20.86C14.5665 20.0573 14.1372 18.984 14.1372 17.64C14.1372 16.24 14.6225 15.1573 15.5932 14.392C16.5639 13.608 17.9265 13.216 19.6812 13.216C20.7079 13.216 21.8932 13.3373 23.2372 13.58V12.096C23.2372 11.0693 22.9385 10.304 22.3412 9.8C21.7625 9.296 20.8665 9.044 19.6532 9.044C18.2345 9.044 16.6852 9.37067 15.0052 10.024V7.98C15.7892 7.66267 16.6385 7.42 17.5532 7.252C18.4679 7.06533 19.3359 6.972 20.1572 6.972C22.0052 6.972 23.4052 7.40133 24.3572 8.26C25.3279 9.11867 25.8132 10.3787 25.8132 12.04V21.448L23.6852 21.672ZM19.6252 19.992C20.1665 19.992 20.7732 19.8987 21.4452 19.712C22.1172 19.5253 22.7145 19.2827 23.2372 18.984V15.4C22.3599 15.176 21.3239 15.064 20.1292 15.064C19.0092 15.064 18.1785 15.2787 17.6372 15.708C17.1145 16.1187 16.8532 16.744 16.8532 17.584C16.8532 19.1893 17.7772 19.992 19.6252 19.992Z" fill="white"/>
<path d="M2.716 12.796V19.376H11.956V21.616H0V2.016H11.9V4.256H2.716V10.556H10.724V12.796H2.716Z" fill="white"/>
</svg>
