<svg width="330" height="19" viewBox="0 0 330 19" fill="none" xmlns="http://www.w3.org/2000/svg">
<path d="M327.152 18.0526V9.95025C327.152 8.26029 326.315 7.41531 324.641 7.41531C324.198 7.41531 323.701 7.49428 323.148 7.65222C322.611 7.79437 322.121 7.99179 321.679 8.2445V18.0526H319.452V6.15968L321.253 5.97015L321.395 6.79934C322.69 6.04123 323.977 5.66217 325.256 5.66217C326.567 5.66217 327.578 6.00964 328.289 6.70458C329.015 7.38372 329.379 8.35506 329.379 9.61858V18.0526H327.152Z" fill="white"/>
<path d="M311.096 16.6548C312.202 16.6548 312.999 16.2916 313.489 15.565C313.994 14.8385 314.247 13.6619 314.247 12.0351C314.247 10.4083 313.994 9.23163 313.489 8.5051C312.999 7.77857 312.202 7.41531 311.096 7.41531C309.991 7.41531 309.185 7.77857 308.68 8.5051C308.19 9.23163 307.945 10.4083 307.945 12.0351C307.945 13.6619 308.19 14.8385 308.68 15.565C309.185 16.2916 309.991 16.6548 311.096 16.6548ZM311.096 18.408C309.296 18.408 307.929 17.871 306.998 16.797C306.082 15.7072 305.624 14.1199 305.624 12.0351C305.624 9.95026 306.082 8.37085 306.998 7.29685C307.929 6.20707 309.296 5.66217 311.096 5.66217C312.897 5.66217 314.255 6.20707 315.171 7.29685C316.103 8.37085 316.569 9.95026 316.569 12.0351C316.569 14.1199 316.103 15.7072 315.171 16.797C314.255 17.871 312.897 18.408 311.096 18.408Z" fill="white"/>
<path d="M288.612 18.0526V0.260602L290.839 0V11.1822L295.791 6.01753H298.349L292.971 11.6086L298.61 18.0526H295.909L290.839 12.1535V18.0526H288.612Z" fill="white"/>
<path d="M285.87 17.6261C284.78 18.1474 283.572 18.408 282.245 18.408C280.507 18.408 279.165 17.8552 278.217 16.7496C277.27 15.644 276.796 14.0804 276.796 12.0587C276.796 10.0213 277.27 8.4498 278.217 7.34422C279.181 6.22284 280.531 5.66216 282.269 5.66216C283.485 5.66216 284.661 5.92276 285.799 6.44396V8.14972C284.709 7.6759 283.666 7.43899 282.671 7.43899C281.503 7.43899 280.618 7.82594 280.018 8.59985C279.418 9.37376 279.118 10.5188 279.118 12.0351C279.118 13.5355 279.418 14.6806 280.018 15.4703C280.618 16.2442 281.503 16.6311 282.671 16.6311C283.666 16.6311 284.732 16.3942 285.87 15.9204V17.6261Z" fill="white"/>
<path d="M272.244 18.1L272.102 17.2708C270.775 18.0289 269.488 18.408 268.24 18.408C266.992 18.408 265.997 18.0763 265.255 17.4129C264.528 16.7338 264.165 15.8256 264.165 14.6885C264.165 13.5039 264.576 12.5879 265.397 11.9403C266.218 11.277 267.371 10.9453 268.856 10.9453C269.725 10.9453 270.727 11.0479 271.865 11.2533V9.99764C271.865 9.12896 271.612 8.48141 271.107 8.05497C270.617 7.62853 269.859 7.41531 268.832 7.41531C267.632 7.41531 266.321 7.69171 264.899 8.2445V6.51505C265.563 6.24655 266.281 6.04123 267.055 5.89908C267.829 5.74114 268.564 5.66217 269.259 5.66217C270.822 5.66217 272.007 6.02543 272.812 6.75196C273.634 7.47849 274.044 8.54458 274.044 9.95025V17.9105L272.244 18.1ZM268.808 16.6785C269.266 16.6785 269.78 16.5996 270.348 16.4416C270.917 16.2837 271.422 16.0783 271.865 15.8256V12.7932C271.122 12.6037 270.246 12.5089 269.235 12.5089C268.287 12.5089 267.584 12.6905 267.126 13.0538C266.684 13.4013 266.463 13.9304 266.463 14.6411C266.463 15.9994 267.245 16.6785 268.808 16.6785Z" fill="white"/>
<path d="M253.637 6.60981C254.821 5.97805 255.935 5.66217 256.977 5.66217C258.525 5.66217 259.733 6.21496 260.602 7.32054C261.486 8.41033 261.929 9.91866 261.929 11.8455C261.929 13.9619 261.392 15.5887 260.318 16.7259C259.244 17.8473 257.712 18.408 255.721 18.408C254.3 18.408 252.863 18.2026 251.41 17.792V0.260602L253.637 0V6.60981ZM256.456 7.41531C256.029 7.41531 255.556 7.49428 255.034 7.65222C254.529 7.79436 254.063 7.99179 253.637 8.24449V16.3942C254.3 16.5838 255.003 16.6785 255.745 16.6785C257.04 16.6785 258.004 16.2837 258.635 15.494C259.283 14.7043 259.607 13.5039 259.607 11.8929C259.607 10.4241 259.338 9.31059 258.801 8.55248C258.28 7.79436 257.498 7.41531 256.456 7.41531Z" fill="white"/>
<path d="M232.091 18.0526V0.260602L234.318 0V6.6335C235.534 5.98594 236.727 5.66217 237.896 5.66217C239.207 5.66217 240.217 6.00964 240.928 6.70457C241.655 7.38372 242.018 8.35505 242.018 9.61858V18.0526H239.791V9.95025C239.791 8.26029 238.954 7.41531 237.28 7.41531C236.837 7.41531 236.34 7.49428 235.787 7.65222C235.25 7.79436 234.761 7.99179 234.318 8.24449V18.0526H232.091Z" fill="white"/>
<path d="M220.481 15.8493C221.744 16.4021 223.008 16.6785 224.272 16.6785C225.188 16.6785 225.883 16.5048 226.356 16.1573C226.846 15.8098 227.091 15.3123 227.091 14.6648C227.091 14.2383 226.957 13.8909 226.688 13.6224C226.42 13.3539 225.977 13.1249 225.361 12.9353L223.75 12.4378C222.676 12.1061 221.895 11.6797 221.405 11.1585C220.915 10.6373 220.67 9.97395 220.67 9.16845C220.67 8.09445 221.089 7.24158 221.926 6.60981C222.763 5.97805 223.892 5.66217 225.314 5.66217C226.514 5.66217 227.659 5.89908 228.749 6.3729V8.07866C227.549 7.62063 226.451 7.39162 225.456 7.39162C224.651 7.39162 224.019 7.54956 223.561 7.86544C223.119 8.16553 222.897 8.57617 222.897 9.09738C222.897 9.47643 223.016 9.77652 223.253 9.99764C223.49 10.203 223.932 10.4083 224.58 10.6136L226.38 11.1585C228.338 11.7429 229.318 12.9037 229.318 14.6411C229.318 15.8572 228.899 16.7891 228.062 17.4366C227.225 18.0842 226.017 18.408 224.437 18.408C222.969 18.408 221.737 18.1632 220.742 17.6735L220.481 15.8493Z" fill="white"/>
<path d="M216.047 18.1L215.905 17.2708C214.578 18.0289 213.291 18.408 212.043 18.408C210.795 18.408 209.8 18.0763 209.058 17.4129C208.332 16.7338 207.968 15.8256 207.968 14.6885C207.968 13.5039 208.379 12.5879 209.2 11.9403C210.021 11.277 211.174 10.9453 212.659 10.9453C213.528 10.9453 214.531 11.0479 215.668 11.2533V9.99764C215.668 9.12896 215.415 8.48141 214.91 8.05497C214.42 7.62853 213.662 7.41531 212.635 7.41531C211.435 7.41531 210.124 7.69171 208.703 8.2445V6.51505C209.366 6.24655 210.085 6.04123 210.859 5.89908C211.632 5.74114 212.367 5.66217 213.062 5.66217C214.625 5.66217 215.81 6.02543 216.615 6.75196C217.437 7.47849 217.847 8.54458 217.847 9.95025V17.9105L216.047 18.1ZM212.612 16.6785C213.07 16.6785 213.583 16.5996 214.152 16.4416C214.72 16.2837 215.226 16.0783 215.668 15.8256V12.7932C214.926 12.6037 214.049 12.5089 213.038 12.5089C212.091 12.5089 211.388 12.6905 210.93 13.0538C210.487 13.4013 210.266 13.9304 210.266 14.6411C210.266 15.9994 211.048 16.6785 212.612 16.6785Z" fill="white"/>
<path d="M205.889 17.6262C204.799 18.1474 203.591 18.408 202.264 18.408C200.527 18.408 199.185 17.8552 198.237 16.7496C197.289 15.644 196.815 14.0804 196.815 12.0588C196.815 10.0213 197.289 8.44982 198.237 7.34424C199.2 6.22286 200.551 5.66217 202.288 5.66217C203.504 5.66217 204.681 5.92277 205.818 6.44398V8.14973C204.728 7.67591 203.686 7.439 202.691 7.439C201.522 7.439 200.638 7.82595 200.037 8.59986C199.437 9.37377 199.137 10.5188 199.137 12.0351C199.137 13.5355 199.437 14.6806 200.037 15.4703C200.638 16.2442 201.522 16.6311 202.691 16.6311C203.686 16.6311 204.752 16.3942 205.889 15.9204V17.6262Z" fill="white"/>
<path d="M173.649 18.0526L182.154 1.82422H184.12L175.615 18.0526H173.649ZM172.701 10.7084C173.396 10.7084 173.901 10.4083 174.217 9.80811C174.533 9.19215 174.691 8.20502 174.691 6.84673C174.691 5.48844 174.533 4.50921 174.217 3.90904C173.901 3.29307 173.396 2.98508 172.701 2.98508C172.006 2.98508 171.501 3.29307 171.185 3.90904C170.869 4.50921 170.711 5.48844 170.711 6.84673C170.711 8.20502 170.869 9.19215 171.185 9.80811C171.501 10.4083 172.006 10.7084 172.701 10.7084ZM172.701 12.1061C171.422 12.1061 170.442 11.656 169.763 10.7558C169.084 9.8397 168.745 8.53669 168.745 6.84673C168.745 5.15677 169.084 3.86165 169.763 2.96139C170.442 2.04534 171.422 1.58731 172.701 1.58731C173.98 1.58731 174.96 2.04534 175.639 2.96139C176.318 3.86165 176.657 5.15677 176.657 6.84673C176.657 8.53669 176.318 9.8397 175.639 10.7558C174.96 11.656 173.98 12.1061 172.701 12.1061ZM185.068 16.8917C185.763 16.8917 186.268 16.5917 186.584 15.9915C186.9 15.3755 187.058 14.3884 187.058 13.0301C187.058 11.6718 186.9 10.6926 186.584 10.0924C186.268 9.47644 185.763 9.16846 185.068 9.16846C184.373 9.16846 183.867 9.47644 183.552 10.0924C183.236 10.6926 183.078 11.6718 183.078 13.0301C183.078 14.3884 183.236 15.3755 183.552 15.9915C183.867 16.5917 184.373 16.8917 185.068 16.8917ZM185.068 18.2895C183.788 18.2895 182.809 17.8394 182.13 16.9391C181.451 16.0231 181.111 14.7201 181.111 13.0301C181.111 11.3401 181.451 10.045 182.13 9.14476C182.809 8.22871 183.788 7.77068 185.068 7.77068C186.347 7.77068 187.326 8.22871 188.005 9.14476C188.685 10.045 189.024 11.3401 189.024 13.0301C189.024 14.7201 188.685 16.0231 188.005 16.9391C187.326 17.8394 186.347 18.2895 185.068 18.2895Z" fill="white"/>
<path d="M156.241 15.6124C157.678 16.2916 159.092 16.6311 160.482 16.6311C161.714 16.6311 162.685 16.3547 163.396 15.8019C164.122 15.2334 164.486 14.4752 164.486 13.5276C164.486 12.5957 164.162 11.8613 163.514 11.3243C162.867 10.7715 161.982 10.4951 160.861 10.4951H159.321V8.71831H160.743C161.753 8.71831 162.551 8.4735 163.135 7.98389C163.72 7.49427 164.012 6.82302 164.012 5.97015C164.012 5.13306 163.704 4.46971 163.088 3.98009C162.472 3.49048 161.627 3.24567 160.553 3.24567C159.321 3.24567 158.081 3.49838 156.833 4.00379V2.27434C157.971 1.73734 159.305 1.46884 160.837 1.46884C162.48 1.46884 163.807 1.87159 164.817 2.67709C165.828 3.48258 166.334 4.53289 166.334 5.828C166.334 6.69667 166.089 7.45479 165.599 8.10234C165.11 8.7499 164.415 9.23162 163.514 9.5475C164.573 9.84758 165.386 10.353 165.955 11.0637C166.523 11.7745 166.807 12.6352 166.807 13.6461C166.807 14.6095 166.547 15.4545 166.026 16.181C165.52 16.8917 164.809 17.4445 163.893 17.8394C162.993 18.2184 161.959 18.408 160.79 18.408C160 18.408 159.226 18.329 158.468 18.171C157.71 18.0131 157.063 17.7999 156.526 17.5314L156.241 15.6124Z" fill="white"/>
<path d="M148.153 0V17.9104L146.353 18.1L146.21 17.2708C144.963 18.0289 143.754 18.408 142.586 18.408C141.038 18.408 139.822 17.8631 138.937 16.7733C138.069 15.6677 137.634 14.1515 137.634 12.2246C137.634 10.1398 138.148 8.52879 139.174 7.39161C140.201 6.23865 141.646 5.66217 143.51 5.66217C144.41 5.66217 145.215 5.77273 145.926 5.99384V0.260602L148.153 0ZM143.107 16.6548C143.533 16.6548 143.999 16.5838 144.505 16.4416C145.026 16.2837 145.5 16.0783 145.926 15.8256V7.67591C145.263 7.48638 144.56 7.39161 143.818 7.39161C142.523 7.39161 141.551 7.78647 140.904 8.57617C140.272 9.36587 139.956 10.5662 139.956 12.1772C139.956 13.6461 140.217 14.7595 140.738 15.5177C141.275 16.2758 142.065 16.6548 143.107 16.6548Z" fill="white"/>
<path d="M134.899 17.6025C133.81 18.1395 132.593 18.408 131.251 18.408C129.292 18.408 127.8 17.8631 126.773 16.7733C125.747 15.6835 125.233 14.0883 125.233 11.9877C125.233 10.6926 125.462 9.5712 125.92 8.62355C126.378 7.66012 127.018 6.92569 127.839 6.42028C128.661 5.91488 129.6 5.66217 130.659 5.66217C132.143 5.66217 133.312 6.1044 134.165 6.98887C135.018 7.87334 135.444 9.09738 135.444 10.661C135.444 11.277 135.389 11.885 135.278 12.4852H127.437C127.484 15.2807 128.842 16.6785 131.512 16.6785C132.665 16.6785 133.794 16.4258 134.899 15.9204V17.6025ZM130.659 7.29685C129.743 7.29685 128.992 7.62063 128.408 8.26819C127.839 8.91574 127.516 9.79231 127.437 10.8979H133.383C133.399 10.8189 133.407 10.74 133.407 10.661C133.407 10.582 133.407 10.503 133.407 10.4241C133.407 9.44484 133.162 8.67883 132.672 8.12604C132.199 7.57325 131.527 7.29685 130.659 7.29685Z" fill="white"/>
<path d="M120.085 7.62853V14.5463C120.085 15.2571 120.243 15.7862 120.559 16.1336C120.875 16.4653 121.357 16.6311 122.004 16.6311C122.494 16.6311 123.015 16.5443 123.568 16.3705V17.9578C122.904 18.2105 122.217 18.3369 121.507 18.3369C120.306 18.3369 119.398 18.021 118.782 17.3893C118.166 16.7575 117.858 15.8335 117.858 14.6174V7.62853H116.058V6.1123L117.953 6.04123L118.119 3.03246L120.085 2.81924V6.01754H123.449V7.62853H120.085Z" fill="white"/>
<path d="M111.531 18.0526V6.20706L113.758 5.94646V18.0526H111.531ZM112.644 3.55366C112.186 3.55366 111.823 3.43521 111.554 3.19829C111.302 2.94559 111.175 2.60602 111.175 2.17958C111.175 1.75314 111.302 1.42146 111.554 1.18455C111.823 0.931849 112.186 0.805496 112.644 0.805496C113.102 0.805496 113.458 0.931849 113.71 1.18455C113.979 1.42146 114.113 1.75314 114.113 2.17958C114.113 2.60602 113.979 2.94559 113.71 3.19829C113.458 3.43521 113.102 3.55366 112.644 3.55366Z" fill="white"/>
<path d="M105.848 18.0526V9.68965C105.848 8.17342 105.114 7.41531 103.645 7.41531C102.761 7.41531 101.829 7.7075 100.85 8.29188C100.929 8.63935 100.968 8.98682 100.968 9.33429V18.0526H98.7411V9.68965C98.7411 8.17342 98.0067 7.41531 96.5378 7.41531C95.6692 7.41531 94.7768 7.69171 93.8607 8.2445V18.0526H91.6338V6.15968L93.4343 5.97015L93.5765 6.79934C94.7926 6.04123 95.985 5.66217 97.1538 5.66217C98.5121 5.66217 99.5387 6.09651 100.234 6.96518C101.655 6.09651 102.998 5.66217 104.261 5.66217C105.446 5.66217 106.378 5.98595 107.057 6.6335C107.736 7.28106 108.075 8.18132 108.075 9.33429V18.0526H105.848Z" fill="white"/>
<path d="M85.8036 18.0526V6.20706L88.0306 5.94646V18.0526H85.8036ZM86.9171 3.55366C86.4591 3.55366 86.0958 3.43521 85.8273 3.19829C85.5746 2.94559 85.4482 2.60602 85.4482 2.17958C85.4482 1.75314 85.5746 1.42146 85.8273 1.18455C86.0958 0.931849 86.4591 0.805496 86.9171 0.805496C87.3751 0.805496 87.7305 0.931849 87.9832 1.18455C88.2517 1.42146 88.3859 1.75314 88.3859 2.17958C88.3859 2.60602 88.2517 2.94559 87.9832 3.19829C87.7305 3.43521 87.3751 3.55366 86.9171 3.55366Z" fill="white"/>
<path d="M79.9731 18.0526V0.260602L82.2001 0V18.0526H79.9731Z" fill="white"/>
<path d="M74.2772 18.0526V9.95025C74.2772 8.26029 73.4402 7.41531 71.766 7.41531C71.3238 7.41531 70.8262 7.49428 70.2734 7.65222C69.7364 7.79437 69.2468 7.99179 68.8046 8.2445V18.0526H66.5776V6.15968L68.3782 5.97015L68.5203 6.79934C69.8154 6.04123 71.1026 5.66217 72.382 5.66217C73.6929 5.66217 74.7037 6.00964 75.4144 6.70458C76.1409 7.38372 76.5042 8.35506 76.5042 9.61858V18.0526H74.2772Z" fill="white"/>
<path d="M61.1873 18.1L61.0451 17.2708C59.75 18.0289 58.4628 18.408 57.1835 18.408C55.9042 18.408 54.9092 18.0605 54.1984 17.3656C53.4877 16.6706 53.1323 15.6993 53.1323 14.4516V6.01753H55.3593V14.1199C55.3593 15.8098 56.1727 16.6548 57.7995 16.6548C58.2575 16.6548 58.755 16.5838 59.292 16.4416C59.829 16.2837 60.3186 16.0783 60.7608 15.8256V6.01753H62.9878V17.9105L61.1873 18.1Z" fill="white"/>
<path d="M41.6557 18.0526V9.95025C41.6557 8.26029 40.8186 7.41531 39.1444 7.41531C38.7022 7.41531 38.2047 7.49428 37.6519 7.65222C37.1149 7.79437 36.6252 7.99179 36.183 8.2445V18.0526H33.9561V6.15968L35.7566 5.97015L35.8987 6.79934C37.1938 6.04123 38.4811 5.66217 39.7604 5.66217C41.0713 5.66217 42.0821 6.00964 42.7928 6.70458C43.5194 7.38372 43.8826 8.35506 43.8826 9.61858V18.0526H41.6557Z" fill="white"/>
<path d="M25.3032 18.0526V6.15969L27.1037 5.97016L27.2933 7.05995C28.3357 6.17548 29.4492 5.73325 30.6337 5.73325C30.997 5.73325 31.3602 5.78853 31.7235 5.89908V7.7233C31.3444 7.62853 30.9575 7.58115 30.5626 7.58115C29.4255 7.58115 28.4147 7.93652 27.5302 8.64725V18.0526H25.3032Z" fill="white"/>
<path d="M20.0401 18.1L19.8979 17.2708C18.5712 18.0289 17.284 18.408 16.0363 18.408C14.7886 18.408 13.7935 18.0763 13.0512 17.4129C12.3247 16.7338 11.9614 15.8256 11.9614 14.6885C11.9614 13.5039 12.3721 12.5879 13.1934 11.9403C14.0147 11.277 15.1676 10.9453 16.6523 10.9453C17.5209 10.9453 18.5239 11.0479 19.661 11.2533V9.99764C19.661 9.12896 19.4083 8.48141 18.9029 8.05497C18.4133 7.62853 17.6552 7.41531 16.6286 7.41531C15.4282 7.41531 14.1173 7.69171 12.6958 8.2445V6.51505C13.3592 6.24655 14.0778 6.04123 14.8517 5.89908C15.6256 5.74114 16.3601 5.66217 17.055 5.66217C18.6186 5.66217 19.8032 6.02543 20.6087 6.75196C21.43 7.47849 21.8406 8.54458 21.8406 9.95025V17.9105L20.0401 18.1ZM16.6049 16.6785C17.0629 16.6785 17.5762 16.5996 18.1448 16.4416C18.7134 16.2837 19.2188 16.0783 19.661 15.8256V12.7932C18.9187 12.6037 18.0421 12.5089 17.0313 12.5089C16.0837 12.5089 15.3808 12.6905 14.9228 13.0538C14.4806 13.4013 14.2595 13.9304 14.2595 14.6411C14.2595 15.9994 15.0413 16.6785 16.6049 16.6785Z" fill="white"/>
<path d="M2.29803 10.5899V16.1573H10.1161V18.0526H0V1.46884H10.0687V3.36413H2.29803V8.69462H9.07368V10.5899H2.29803Z" fill="white"/>
</svg>
