<svg width="433" height="23" viewBox="0 0 433 23" fill="none" xmlns="http://www.w3.org/2000/svg">
<path d="M431.267 17.5414C430.86 17.5414 430.529 17.4134 430.273 17.1576C430.018 16.9017 429.89 16.5706 429.89 16.1642C429.89 15.7579 430.018 15.4268 430.273 15.1709C430.529 14.915 430.86 14.7871 431.267 14.7871C431.673 14.7871 432.004 14.915 432.26 15.1709C432.516 15.4268 432.644 15.7579 432.644 16.1642C432.644 16.5706 432.516 16.9017 432.26 17.1576C432.004 17.4134 431.673 17.5414 431.267 17.5414Z" fill="white"/>
<path d="M419.368 15.3289C420.572 15.8557 421.776 16.1191 422.98 16.1191C423.853 16.1191 424.515 15.9535 424.966 15.6224C425.433 15.2913 425.666 14.8172 425.666 14.2001C425.666 13.7938 425.538 13.4627 425.283 13.2068C425.027 12.951 424.605 12.7327 424.018 12.5521L422.483 12.078C421.46 11.762 420.715 11.3556 420.248 10.8589C419.782 10.3623 419.548 9.73015 419.548 8.96257C419.548 7.93914 419.947 7.12641 420.745 6.52439C421.542 5.92237 422.619 5.62136 423.973 5.62136C425.117 5.62136 426.208 5.84712 427.247 6.29863V7.92409C426.103 7.48762 425.057 7.26939 424.109 7.26939C423.341 7.26939 422.739 7.4199 422.303 7.72091C421.881 8.00687 421.67 8.39818 421.67 8.89485C421.67 9.25606 421.783 9.54202 422.009 9.75272C422.235 9.94838 422.656 10.144 423.273 10.3397L424.989 10.8589C426.855 11.4158 427.788 12.522 427.788 14.1776C427.788 15.3365 427.39 16.2244 426.592 16.8415C425.794 17.4586 424.643 17.7671 423.138 17.7671C421.738 17.7671 420.564 17.5338 419.616 17.0673L419.368 15.3289Z" fill="white"/>
<path d="M414.575 7.49515V14.0873C414.575 14.7645 414.725 15.2687 415.026 15.5998C415.327 15.9159 415.786 16.0739 416.403 16.0739C416.87 16.0739 417.367 15.9912 417.893 15.8256V17.3382C417.261 17.579 416.607 17.6994 415.929 17.6994C414.785 17.6994 413.92 17.3984 413.333 16.7964C412.746 16.1943 412.453 15.3139 412.453 14.155V7.49515H410.737V6.0503L412.543 5.98257L412.701 3.11545L414.575 2.91227V5.96H417.78V7.49515H414.575Z" fill="white"/>
<path d="M406.551 17.4285V9.70757C406.551 8.09717 405.753 7.29197 404.157 7.29197C403.736 7.29197 403.262 7.36722 402.735 7.51772C402.223 7.65318 401.757 7.84131 401.336 8.08212V17.4285H399.213V6.09545L400.929 5.91484L401.065 6.705C402.299 5.98257 403.525 5.62136 404.744 5.62136C405.994 5.62136 406.957 5.95247 407.634 6.61469C408.326 7.26187 408.673 8.18747 408.673 9.39151V17.4285H406.551Z" fill="white"/>
<path d="M394.077 17.4736L393.942 16.6835C392.708 17.4059 391.481 17.7671 390.262 17.7671C389.043 17.7671 388.095 17.436 387.417 16.7738C386.74 16.1116 386.401 15.186 386.401 13.997V5.96H388.523V13.6809C388.523 15.2913 389.299 16.0965 390.849 16.0965C391.285 16.0965 391.759 16.0288 392.271 15.8933C392.783 15.7428 393.249 15.5472 393.671 15.3064V5.96H395.793V17.293L394.077 17.4736Z" fill="white"/>
<path d="M378.574 16.0965C379.627 16.0965 380.387 15.7503 380.854 15.058C381.336 14.3657 381.576 13.2444 381.576 11.6942C381.576 10.144 381.336 9.02277 380.854 8.33045C380.387 7.63813 379.627 7.29197 378.574 7.29197C377.52 7.29197 376.753 7.63813 376.271 8.33045C375.805 9.02277 375.571 10.144 375.571 11.6942C375.571 13.2444 375.805 14.3657 376.271 15.058C376.753 15.7503 377.52 16.0965 378.574 16.0965ZM378.574 17.7671C376.858 17.7671 375.556 17.2554 374.668 16.232C373.795 15.1935 373.359 13.6809 373.359 11.6942C373.359 9.70757 373.795 8.20252 374.668 7.17909C375.556 6.1406 376.858 5.62136 378.574 5.62136C380.29 5.62136 381.584 6.1406 382.457 7.17909C383.345 8.20252 383.789 9.70757 383.789 11.6942C383.789 13.6809 383.345 15.1935 382.457 16.232C381.584 17.2554 380.29 17.7671 378.574 17.7671Z" fill="white"/>
<path d="M371.644 17.0221C370.605 17.5188 369.454 17.7671 368.189 17.7671C366.534 17.7671 365.255 17.2403 364.352 16.1868C363.449 15.1333 362.997 13.6433 362.997 11.7168C362.997 9.7753 363.449 8.27777 364.352 7.22424C365.27 6.15565 366.557 5.62136 368.212 5.62136C369.371 5.62136 370.492 5.86969 371.576 6.36636V7.99181C370.537 7.5403 369.544 7.31454 368.596 7.31454C367.482 7.31454 366.639 7.68328 366.067 8.42075C365.495 9.15823 365.21 10.2494 365.21 11.6942C365.21 13.124 365.495 14.2152 366.067 14.9677C366.639 15.7052 367.482 16.0739 368.596 16.0739C369.544 16.0739 370.56 15.8482 371.644 15.3967V17.0221Z" fill="white"/>
<path d="M361.282 17.0221C360.243 17.5188 359.092 17.7671 357.828 17.7671C356.172 17.7671 354.893 17.2403 353.99 16.1868C353.087 15.1333 352.635 13.6433 352.635 11.7168C352.635 9.7753 353.087 8.27777 353.99 7.22424C354.908 6.15565 356.195 5.62136 357.85 5.62136C359.009 5.62136 360.13 5.86969 361.214 6.36636V7.99181C360.176 7.5403 359.182 7.31454 358.234 7.31454C357.12 7.31454 356.277 7.68328 355.706 8.42075C355.134 9.15823 354.848 10.2494 354.848 11.6942C354.848 13.124 355.134 14.2152 355.706 14.9677C356.277 15.7052 357.12 16.0739 358.234 16.0739C359.182 16.0739 360.198 15.8482 361.282 15.3967V17.0221Z" fill="white"/>
<path d="M348.297 17.4736L348.162 16.6835C346.898 17.4059 345.671 17.7671 344.482 17.7671C343.293 17.7671 342.345 17.4511 341.637 16.8189C340.945 16.1718 340.599 15.3064 340.599 14.2227C340.599 13.0939 340.99 12.221 341.773 11.6039C342.555 10.9718 343.654 10.6558 345.069 10.6558C345.897 10.6558 346.852 10.7536 347.936 10.9492V9.75272C347.936 8.92495 347.695 8.30787 347.214 7.90151C346.747 7.49515 346.025 7.29197 345.046 7.29197C343.902 7.29197 342.653 7.55535 341.299 8.08212V6.43409C341.931 6.17823 342.616 5.98257 343.353 5.84712C344.091 5.69661 344.79 5.62136 345.453 5.62136C346.943 5.62136 348.071 5.96752 348.839 6.65984C349.622 7.35217 350.013 8.36808 350.013 9.70757V17.293L348.297 17.4736ZM345.024 16.1191C345.46 16.1191 345.949 16.0438 346.491 15.8933C347.033 15.7428 347.515 15.5472 347.936 15.3064V12.4167C347.229 12.2361 346.393 12.1458 345.43 12.1458C344.527 12.1458 343.857 12.3188 343.421 12.665C342.999 12.9961 342.789 13.5003 342.789 14.1776C342.789 15.4719 343.534 16.1191 345.024 16.1191Z" fill="white"/>
<path d="M326.751 22.7564C325.336 22.7564 324.155 22.5156 323.206 22.0339L322.958 20.2956C324.162 20.8224 325.366 21.0858 326.57 21.0858C328.873 21.0858 330.024 20.0473 330.024 17.9703V16.6609C328.896 17.2629 327.834 17.5639 326.841 17.5639C325.366 17.5639 324.207 17.0597 323.364 16.0514C322.537 15.043 322.123 13.6508 322.123 11.8748C322.123 9.85808 322.635 8.3154 323.658 7.24681C324.681 6.16318 326.141 5.62136 328.038 5.62136C328.64 5.62136 329.302 5.69661 330.024 5.84712C330.762 5.98257 331.469 6.1707 332.146 6.41151V17.6994C332.146 19.3248 331.68 20.574 330.747 21.447C329.814 22.3199 328.482 22.7564 326.751 22.7564ZM327.338 15.8933C327.744 15.8933 328.188 15.8256 328.67 15.6901C329.166 15.5396 329.618 15.344 330.024 15.1032V7.5403C329.392 7.35969 328.722 7.26939 328.015 7.26939C326.781 7.26939 325.855 7.64565 325.238 8.39818C324.636 9.1507 324.335 10.2945 324.335 11.8297C324.335 13.1692 324.584 14.1851 325.08 14.8774C325.592 15.5547 326.344 15.8933 327.338 15.8933Z" fill="white"/>
<path d="M317.372 17.4285V9.70757C317.372 8.09717 316.574 7.29197 314.979 7.29197C314.558 7.29197 314.083 7.36722 313.557 7.51772C313.045 7.65318 312.578 7.84131 312.157 8.08212V17.4285H310.035V6.09545L311.751 5.91484L311.886 6.705C313.12 5.98257 314.347 5.62136 315.566 5.62136C316.815 5.62136 317.778 5.95247 318.456 6.61469C319.148 7.26187 319.494 8.18747 319.494 9.39151V17.4285H317.372Z" fill="white"/>
<path d="M304.479 17.4285V6.14061L306.601 5.89227V17.4285H304.479ZM305.54 3.61212C305.104 3.61212 304.758 3.49924 304.502 3.27348C304.261 3.03268 304.141 2.70909 304.141 2.30273C304.141 1.89636 304.261 1.5803 304.502 1.35455C304.758 1.11374 305.104 0.993332 305.54 0.993332C305.977 0.993332 306.315 1.11374 306.556 1.35455C306.812 1.5803 306.94 1.89636 306.94 2.30273C306.94 2.70909 306.812 3.03268 306.556 3.27348C306.315 3.49924 305.977 3.61212 305.54 3.61212Z" fill="white"/>
<path d="M293.235 17.4285V0.474087L295.357 0.225754V10.8815L300.076 5.96H302.514L297.389 11.2879L302.762 17.4285H300.189L295.357 11.8071V17.4285H293.235Z" fill="white"/>
<path d="M290.622 17.0221C289.584 17.5188 288.432 17.7671 287.168 17.7671C285.513 17.7671 284.233 17.2403 283.33 16.1868C282.427 15.1333 281.976 13.6433 281.976 11.7168C281.976 9.7753 282.427 8.27777 283.33 7.22424C284.248 6.15565 285.535 5.62136 287.191 5.62136C288.35 5.62136 289.471 5.86969 290.555 6.36636V7.99181C289.516 7.5403 288.523 7.31454 287.575 7.31454C286.461 7.31454 285.618 7.68328 285.046 8.42075C284.474 9.15823 284.188 10.2494 284.188 11.6942C284.188 13.124 284.474 14.2152 285.046 14.9677C285.618 15.7052 286.461 16.0739 287.575 16.0739C288.523 16.0739 289.539 15.8482 290.622 15.3967V17.0221Z" fill="white"/>
<path d="M279.37 16.9995C278.331 17.5113 277.172 17.7671 275.893 17.7671C274.027 17.7671 272.604 17.2479 271.626 16.2094C270.648 15.1709 270.159 13.6508 270.159 11.6491C270.159 10.4149 270.377 9.34636 270.813 8.44333C271.25 7.52525 271.859 6.8254 272.642 6.34378C273.425 5.86217 274.32 5.62136 275.329 5.62136C276.743 5.62136 277.857 6.04277 278.67 6.8856C279.482 7.72843 279.889 8.89484 279.889 10.3848C279.889 10.9718 279.836 11.5513 279.731 12.1232H272.258C272.303 14.7871 273.598 16.1191 276.141 16.1191C277.24 16.1191 278.316 15.8783 279.37 15.3967V16.9995ZM275.329 7.17909C274.456 7.17909 273.741 7.48762 273.184 8.10469C272.642 8.72176 272.333 9.55707 272.258 10.6106H277.925C277.94 10.5353 277.947 10.4601 277.947 10.3848C277.947 10.3096 277.947 10.2343 277.947 10.1591C277.947 9.22596 277.714 8.49601 277.247 7.96924C276.796 7.44247 276.156 7.17909 275.329 7.17909Z" fill="white"/>
<path d="M258.071 17.4285V0.474087L260.193 0.225754V6.54697C261.352 5.9299 262.488 5.62136 263.602 5.62136C264.851 5.62136 265.815 5.95247 266.492 6.61469C267.184 7.26187 267.53 8.18747 267.53 9.39151V17.4285H265.408V9.70757C265.408 8.09717 264.61 7.29197 263.015 7.29197C262.594 7.29197 262.12 7.36722 261.593 7.51772C261.081 7.65318 260.615 7.84131 260.193 8.08212V17.4285H258.071Z" fill="white"/>
<path d="M255.458 17.0221C254.419 17.5188 253.268 17.7671 252.004 17.7671C250.348 17.7671 249.069 17.2403 248.166 16.1868C247.263 15.1333 246.811 13.6433 246.811 11.7168C246.811 9.7753 247.263 8.27777 248.166 7.22424C249.084 6.15565 250.371 5.62136 252.026 5.62136C253.185 5.62136 254.306 5.86969 255.39 6.36636V7.99181C254.352 7.5403 253.358 7.31454 252.41 7.31454C251.296 7.31454 250.454 7.68328 249.882 8.42075C249.31 9.15823 249.024 10.2494 249.024 11.6942C249.024 13.124 249.31 14.2152 249.882 14.9677C250.454 15.7052 251.296 16.0739 252.41 16.0739C253.358 16.0739 254.374 15.8482 255.458 15.3967V17.0221Z" fill="white"/>
<path d="M236.417 17.4285V9.70757C236.417 8.09717 235.619 7.29197 234.024 7.29197C233.603 7.29197 233.128 7.36722 232.602 7.51772C232.09 7.65318 231.623 7.84131 231.202 8.08212V17.4285H229.08V6.09545L230.796 5.91484L230.931 6.705C232.165 5.98257 233.392 5.62136 234.611 5.62136C235.86 5.62136 236.823 5.95247 237.501 6.61469C238.193 7.26187 238.539 8.18747 238.539 9.39151V17.4285H236.417Z" fill="white"/>
<path d="M221.117 16.0965C222.171 16.0965 222.931 15.7503 223.397 15.058C223.879 14.3657 224.12 13.2444 224.12 11.6942C224.12 10.144 223.879 9.02277 223.397 8.33045C222.931 7.63813 222.171 7.29197 221.117 7.29197C220.064 7.29197 219.296 7.63813 218.814 8.33045C218.348 9.02277 218.115 10.144 218.115 11.6942C218.115 13.2444 218.348 14.3657 218.814 15.058C219.296 15.7503 220.064 16.0965 221.117 16.0965ZM221.117 17.7671C219.401 17.7671 218.099 17.2554 217.212 16.232C216.339 15.1935 215.902 13.6809 215.902 11.6942C215.902 9.70757 216.339 8.20252 217.212 7.17909C218.099 6.1406 219.401 5.62136 221.117 5.62136C222.833 5.62136 224.127 6.1406 225 7.17909C225.888 8.20252 226.332 9.70757 226.332 11.6942C226.332 13.6809 225.888 15.1935 225 16.232C224.127 17.2554 222.833 17.7671 221.117 17.7671Z" fill="white"/>
<path d="M199.872 15.3289C201.076 15.8557 202.28 16.1191 203.484 16.1191C204.357 16.1191 205.019 15.9535 205.47 15.6224C205.937 15.2913 206.17 14.8172 206.17 14.2001C206.17 13.7938 206.042 13.4627 205.786 13.2068C205.531 12.951 205.109 12.7327 204.522 12.5521L202.987 12.078C201.964 11.762 201.219 11.3556 200.752 10.8589C200.285 10.3623 200.052 9.73015 200.052 8.96257C200.052 7.93914 200.451 7.12641 201.249 6.52439C202.046 5.92237 203.122 5.62136 204.477 5.62136C205.621 5.62136 206.712 5.84712 207.751 6.29863V7.92409C206.607 7.48762 205.561 7.26939 204.612 7.26939C203.845 7.26939 203.243 7.4199 202.806 7.72091C202.385 8.00687 202.174 8.39818 202.174 8.89485C202.174 9.25606 202.287 9.54202 202.513 9.75272C202.739 9.94838 203.16 10.144 203.777 10.3397L205.493 10.8589C207.359 11.4158 208.292 12.522 208.292 14.1776C208.292 15.3365 207.893 16.2244 207.096 16.8415C206.298 17.4586 205.147 17.7671 203.642 17.7671C202.242 17.7671 201.068 17.5338 200.12 17.0673L199.872 15.3289Z" fill="white"/>
<path d="M195.247 17.4285V9.45924C195.247 8.01439 194.547 7.29197 193.147 7.29197C192.304 7.29197 191.417 7.5704 190.483 8.12727C190.559 8.45838 190.596 8.78949 190.596 9.1206V17.4285H188.474V9.45924C188.474 8.01439 187.774 7.29197 186.375 7.29197C185.547 7.29197 184.696 7.55535 183.824 8.08212V17.4285H181.701V6.09545L183.417 5.91484L183.553 6.705C184.712 5.98257 185.848 5.62136 186.962 5.62136C188.256 5.62136 189.234 6.03525 189.896 6.86303C191.251 6.03525 192.53 5.62136 193.734 5.62136C194.863 5.62136 195.751 5.9299 196.398 6.54697C197.045 7.16404 197.369 8.02192 197.369 9.1206V17.4285H195.247Z" fill="white"/>
<path d="M176.565 17.4736L176.429 16.6835C175.195 17.4059 173.969 17.7671 172.75 17.7671C171.531 17.7671 170.582 17.436 169.905 16.7738C169.228 16.1116 168.889 15.186 168.889 13.997V5.96H171.011V13.6809C171.011 15.2913 171.786 16.0965 173.337 16.0965C173.773 16.0965 174.247 16.0288 174.759 15.8933C175.271 15.7428 175.737 15.5472 176.159 15.3064V5.96H178.281V17.293L176.565 17.4736Z" fill="white"/>
<path d="M163.61 17.4285V9.45924C163.61 8.01439 162.91 7.29197 161.51 7.29197C160.668 7.29197 159.78 7.5704 158.846 8.12727C158.922 8.45838 158.959 8.78949 158.959 9.1206V17.4285H156.837V9.45924C156.837 8.01439 156.137 7.29197 154.738 7.29197C153.91 7.29197 153.059 7.55535 152.187 8.08212V17.4285H150.064V6.09545L151.78 5.91484L151.916 6.705C153.075 5.98257 154.211 5.62136 155.325 5.62136C156.619 5.62136 157.597 6.03525 158.259 6.86303C159.614 6.03525 160.893 5.62136 162.097 5.62136C163.226 5.62136 164.114 5.9299 164.761 6.54697C165.408 7.16404 165.732 8.02192 165.732 9.1206V17.4285H163.61Z" fill="white"/>
<path d="M144.509 17.4285V6.14061L146.631 5.89227V17.4285H144.509ZM145.57 3.61212C145.133 3.61212 144.787 3.49924 144.531 3.27348C144.291 3.03268 144.17 2.70909 144.17 2.30273C144.17 1.89636 144.291 1.5803 144.531 1.35455C144.787 1.11374 145.133 0.993332 145.57 0.993332C146.006 0.993332 146.345 1.11374 146.586 1.35455C146.842 1.5803 146.97 1.89636 146.97 2.30273C146.97 2.70909 146.842 3.03268 146.586 3.27348C146.345 3.49924 146.006 3.61212 145.57 3.61212Z" fill="white"/>
<path d="M139.081 17.4285V9.70757C139.081 8.09717 138.283 7.29197 136.688 7.29197C136.267 7.29197 135.792 7.36722 135.266 7.51772C134.754 7.65318 134.287 7.84131 133.866 8.08212V17.4285H131.744V6.09545L133.46 5.91484L133.595 6.705C134.829 5.98257 136.056 5.62136 137.275 5.62136C138.524 5.62136 139.487 5.95247 140.165 6.61469C140.857 7.26187 141.203 8.18747 141.203 9.39151V17.4285H139.081Z" fill="white"/>
<path d="M126.188 17.4285V6.14061L128.31 5.89227V17.4285H126.188ZM127.249 3.61212C126.813 3.61212 126.466 3.49924 126.211 3.27348C125.97 3.03268 125.849 2.70909 125.849 2.30273C125.849 1.89636 125.97 1.5803 126.211 1.35455C126.466 1.11374 126.813 0.993332 127.249 0.993332C127.686 0.993332 128.024 1.11374 128.265 1.35455C128.521 1.5803 128.649 1.89636 128.649 2.30273C128.649 2.70909 128.521 3.03268 128.265 3.27348C128.024 3.49924 127.686 3.61212 127.249 3.61212Z" fill="white"/>
<path d="M120.773 17.4285V9.45924C120.773 8.01439 120.074 7.29197 118.674 7.29197C117.831 7.29197 116.943 7.5704 116.01 8.12727C116.085 8.45838 116.123 8.78949 116.123 9.1206V17.4285H114.001V9.45924C114.001 8.01439 113.301 7.29197 111.901 7.29197C111.073 7.29197 110.223 7.55535 109.35 8.08212V17.4285H107.228V6.09545L108.944 5.91484L109.079 6.705C110.238 5.98257 111.374 5.62136 112.488 5.62136C113.783 5.62136 114.761 6.03525 115.423 6.86303C116.778 6.03525 118.057 5.62136 119.261 5.62136C120.39 5.62136 121.278 5.9299 121.925 6.54697C122.572 7.16404 122.896 8.02192 122.896 9.1206V17.4285H120.773Z" fill="white"/>
<path d="M93.3386 17.4285V6.09545L95.0544 5.91484L95.235 6.95333C96.2283 6.1105 97.2894 5.68909 98.4182 5.68909C98.7643 5.68909 99.1105 5.74176 99.4566 5.84712V7.58545C99.0954 7.49515 98.7267 7.45 98.3504 7.45C97.2668 7.45 96.3036 7.78863 95.4607 8.46591V17.4285H93.3386Z" fill="white"/>
<path d="M85.3759 16.0965C86.4294 16.0965 87.1895 15.7503 87.656 15.058C88.1377 14.3657 88.3785 13.2444 88.3785 11.6942C88.3785 10.144 88.1377 9.02277 87.656 8.33045C87.1895 7.63813 86.4294 7.29197 85.3759 7.29197C84.3224 7.29197 83.5548 7.63813 83.0732 8.33045C82.6066 9.02277 82.3733 10.144 82.3733 11.6942C82.3733 13.2444 82.6066 14.3657 83.0732 15.058C83.5548 15.7503 84.3224 16.0965 85.3759 16.0965ZM85.3759 17.7671C83.6601 17.7671 82.3583 17.2554 81.4703 16.232C80.5974 15.1935 80.1609 13.6809 80.1609 11.6942C80.1609 9.70757 80.5974 8.20252 81.4703 7.17909C82.3583 6.1406 83.6601 5.62136 85.3759 5.62136C87.0917 5.62136 88.386 6.1406 89.2589 7.17909C90.1469 8.20252 90.5909 9.70757 90.5909 11.6942C90.5909 13.6809 90.1469 15.1935 89.2589 16.232C88.386 17.2554 87.0917 17.7671 85.3759 17.7671Z" fill="white"/>
<path d="M64.1304 15.3289C65.3344 15.8557 66.5385 16.1191 67.7425 16.1191C68.6154 16.1191 69.2776 15.9535 69.7292 15.6224C70.1957 15.2913 70.429 14.8172 70.429 14.2001C70.429 13.7938 70.3011 13.4627 70.0452 13.2068C69.7894 12.951 69.3679 12.7327 68.781 12.5521L67.2458 12.078C66.2224 11.762 65.4774 11.3556 65.0108 10.8589C64.5443 10.3623 64.311 9.73015 64.311 8.96257C64.311 7.93914 64.7098 7.12641 65.5075 6.52439C66.3052 5.92237 67.3813 5.62136 68.7358 5.62136C69.8797 5.62136 70.9708 5.84712 72.0093 6.29863V7.92409C70.8655 7.48762 69.8195 7.26939 68.8713 7.26939C68.1037 7.26939 67.5017 7.4199 67.0652 7.72091C66.6438 8.00687 66.4331 8.39818 66.4331 8.89485C66.4331 9.25606 66.546 9.54202 66.7717 9.75272C66.9975 9.94838 67.4189 10.144 68.036 10.3397L69.7517 10.8589C71.618 11.4158 72.5511 12.522 72.5511 14.1776C72.5511 15.3365 72.1523 16.2244 71.3546 16.8415C70.5569 17.4586 69.4056 17.7671 67.9005 17.7671C66.5008 17.7671 65.3269 17.5338 64.3787 17.0673L64.1304 15.3289Z" fill="white"/>
<path d="M61.6372 16.9995C60.5987 17.5113 59.4398 17.7671 58.1605 17.7671C56.2942 17.7671 54.872 17.2479 53.8937 16.2094C52.9154 15.1709 52.4263 13.6508 52.4263 11.6491C52.4263 10.4149 52.6445 9.34636 53.081 8.44333C53.5174 7.52525 54.127 6.8254 54.9096 6.34378C55.6922 5.86217 56.5877 5.62136 57.5961 5.62136C59.0109 5.62136 60.1246 6.04277 60.9373 6.8856C61.7501 7.72843 62.1564 8.89484 62.1564 10.3848C62.1564 10.9718 62.1037 11.5513 61.9984 12.1232H54.5258C54.571 14.7871 55.8653 16.1191 58.4088 16.1191C59.5075 16.1191 60.5836 15.8783 61.6372 15.3967V16.9995ZM57.5961 7.17909C56.7232 7.17909 56.0083 7.48762 55.4514 8.10469C54.9096 8.72176 54.6011 9.55707 54.5258 10.6106H60.1923C60.2074 10.5353 60.2149 10.4601 60.2149 10.3848C60.2149 10.3096 60.2149 10.2343 60.2149 10.1591C60.2149 9.22596 59.9816 8.49601 59.5151 7.96924C59.0635 7.44247 58.4239 7.17909 57.5961 7.17909Z" fill="white"/>
<path d="M49.82 16.9995C48.7816 17.5113 47.6227 17.7671 46.3434 17.7671C44.4771 17.7671 43.0548 17.2479 42.0766 16.2094C41.0983 15.1709 40.6091 13.6508 40.6091 11.6491C40.6091 10.4149 40.8274 9.34636 41.2638 8.44333C41.7003 7.52525 42.3098 6.8254 43.0925 6.34378C43.8751 5.86217 44.7706 5.62136 45.779 5.62136C47.1937 5.62136 48.3075 6.04277 49.1202 6.8856C49.9329 7.72843 50.3393 8.89484 50.3393 10.3848C50.3393 10.9718 50.2866 11.5513 50.1813 12.1232H42.7087C42.7538 14.7871 44.0482 16.1191 46.5917 16.1191C47.6904 16.1191 48.7665 15.8783 49.82 15.3967V16.9995ZM45.779 7.17909C44.906 7.17909 44.1911 7.48762 43.6343 8.10469C43.0925 8.72176 42.7839 9.55707 42.7087 10.6106H48.3752C48.3902 10.5353 48.3978 10.4601 48.3978 10.3848C48.3978 10.3096 48.3978 10.2343 48.3978 10.1591C48.3978 9.22596 48.1645 8.49601 47.6979 7.96924C47.2464 7.44247 46.6068 7.17909 45.779 7.17909Z" fill="white"/>
<path d="M34.1103 17.4285V7.49515H32.3945V6.0503L34.1103 5.98258V3.74758C34.1103 2.55859 34.4188 1.6405 35.0359 0.993332C35.653 0.331111 36.5334 0 37.6773 0C38.3395 0 39.0168 0.120404 39.7091 0.361211V1.87379C39.092 1.70823 38.5652 1.62545 38.1288 1.62545C36.8645 1.62545 36.2324 2.2952 36.2324 3.6347V5.96H39.1447V7.49515H36.2324V17.4285H34.1103Z" fill="white"/>
<path d="M20.0297 16.0965C21.0832 16.0965 21.8433 15.7503 22.3098 15.058C22.7915 14.3657 23.0323 13.2444 23.0323 11.6942C23.0323 10.144 22.7915 9.02277 22.3098 8.33045C21.8433 7.63813 21.0832 7.29197 20.0297 7.29197C18.9762 7.29197 18.2086 7.63813 17.727 8.33045C17.2604 9.02277 17.0271 10.144 17.0271 11.6942C17.0271 13.2444 17.2604 14.3657 17.727 15.058C18.2086 15.7503 18.9762 16.0965 20.0297 16.0965ZM20.0297 17.7671C18.3139 17.7671 17.0121 17.2554 16.1241 16.232C15.2512 15.1935 14.8147 13.6809 14.8147 11.6942C14.8147 9.70757 15.2512 8.20252 16.1241 7.17909C17.0121 6.1406 18.3139 5.62136 20.0297 5.62136C21.7455 5.62136 23.0398 6.1406 23.9127 7.17909C24.8007 8.20252 25.2447 9.70757 25.2447 11.6942C25.2447 13.6809 24.8007 15.1935 23.9127 16.232C23.0398 17.2554 21.7455 17.7671 20.0297 17.7671Z" fill="white"/>
<path d="M9.75273 17.4285L2.09955 5.26015V17.4285H0V1.62545H2.00924L9.66242 13.7938V1.62545H11.762V17.4285H9.75273Z" fill="white"/>
</svg>
