<svg width="747" height="31" viewBox="0 0 747 31" fill="none" xmlns="http://www.w3.org/2000/svg">
<path d="M735.595 29.5213C736.672 29.1798 737.29 28.6542 737.447 27.9448C737.631 27.2353 737.342 26.2894 736.58 25.1069L731.929 17.7365L727.081 25.1069C725.531 27.4455 725.728 28.917 727.673 29.5213V30.152H719.987V29.5213C721.8 28.9433 723.39 27.6689 724.756 25.6982L731.062 16.357L724.953 6.70045C724.349 5.72824 723.718 4.95309 723.061 4.37501C722.431 3.79693 721.642 3.40279 720.696 3.19258V2.56195H731.102V3.19258C729.788 3.48162 729.078 3.98087 728.973 4.69032C728.894 5.37351 729.262 6.34573 730.077 7.60698L734.058 13.8739L738.196 7.60698C739.116 6.24062 739.523 5.20271 739.418 4.49325C739.339 3.7838 738.604 3.35024 737.211 3.19258V2.56195H745.33V3.19258C744.7 3.32396 744.148 3.5079 743.675 3.74438C743.202 3.98087 742.729 4.34873 742.256 4.84798C741.783 5.34723 741.218 6.06983 740.561 7.01577L734.925 15.2534L741.783 26.0135C742.387 26.9857 743.005 27.7346 743.635 28.2601C744.292 28.7593 745.094 29.1798 746.04 29.5213V30.152H735.595V29.5213Z" fill="white"/>
<path d="M690.093 20.456C690.093 18.3277 690.487 16.4752 691.276 14.8986C692.064 13.2958 693.168 12.0476 694.586 11.1543C696.005 10.2609 697.648 9.81416 699.513 9.81416C701.931 9.81416 703.862 10.6024 705.307 12.179C706.752 13.7293 707.606 15.9628 707.869 18.8795H693.641C693.641 21.7436 694.311 23.977 695.651 25.5799C696.991 27.1565 698.87 27.9447 701.287 27.9447C703.652 27.9447 705.465 27.1039 706.726 25.4222L707.357 25.777C705.859 29.114 703.244 30.7826 699.513 30.7826C697.621 30.7826 695.966 30.3622 694.547 29.5213C693.128 28.6542 692.025 27.4455 691.236 25.8952C690.474 24.3449 690.093 22.5319 690.093 20.456ZM703.809 17.4605C703.678 15.5161 703.166 13.9921 702.272 12.8885C701.405 11.7849 700.249 11.2331 698.804 11.2331C697.359 11.2331 696.189 11.7849 695.296 12.8885C694.403 13.9921 693.877 15.5161 693.719 17.4605H703.809Z" fill="white"/>
<path d="M672.233 29.5213C673.31 29.2323 674.059 28.7724 674.479 28.1418C674.926 27.4849 675.15 26.4995 675.15 25.1857V16.1204C675.15 14.7804 674.926 13.7819 674.479 13.125C674.059 12.468 673.31 12.0082 672.233 11.7455V11.1148L677.948 10.2083C678.184 10.655 678.355 11.0623 678.46 11.4301C678.565 11.798 678.631 12.2447 678.657 12.7702C679.262 11.8506 679.998 11.128 680.865 10.6024C681.758 10.0769 682.73 9.81415 683.781 9.81415C685.253 9.81415 686.553 10.2871 687.683 11.2331L687.92 16.7117L687.25 16.8693C686.435 15.0037 685.66 13.6768 684.924 12.8885C684.189 12.1002 683.361 11.706 682.441 11.706C681.311 11.706 680.431 12.2316 679.8 13.2826C679.17 14.3337 678.854 15.8183 678.854 17.7364V25.1857C678.854 26.6046 679.117 27.6163 679.643 28.2206C680.168 28.825 681.141 29.2323 682.559 29.4425V30.1519H672.233V29.5213Z" fill="white"/>
<path d="M650.078 23.2939V16.2781C650.078 14.8855 649.855 13.8607 649.408 13.2038C648.988 12.5469 648.239 12.0871 647.162 11.8243V11.1937L653.507 10.2083L653.941 10.6419C653.836 11.3776 653.783 12.1922 653.783 13.0856V23.5304C653.783 25.3171 654.164 26.7098 654.926 27.7083C655.688 28.7068 656.752 29.206 658.119 29.206C659.065 29.206 659.945 28.9695 660.76 28.4966C661.574 28.0236 662.218 27.3404 662.691 26.447C663.19 25.5536 663.44 24.4894 663.44 23.2545V14.5833C663.44 13.6374 663.282 12.9673 662.967 12.5732C662.678 12.179 662.008 11.89 660.957 11.7061V11.1148L666.948 10.2083L667.302 10.563C667.197 11.4302 667.145 12.3104 667.145 13.2038V25.1463C667.145 26.4864 667.355 27.4849 667.775 28.1418C668.222 28.7725 668.984 29.2323 670.061 29.5213V30.152L664.346 30.5461C663.9 29.7053 663.663 28.8644 663.637 28.0236C661.981 29.8629 659.853 30.7826 657.252 30.7826C654.939 30.7826 653.166 30.1388 651.931 28.8513C650.696 27.5375 650.078 25.685 650.078 23.2939Z" fill="white"/>
<path d="M631.304 10.4448H634.221V6.50337L637.65 5.95157L638.083 6.38513C637.978 7.12086 637.926 7.93542 637.926 8.82881V10.4448H644.193V11.8637H637.926V24.831C637.926 27.2222 638.924 28.4177 640.921 28.4177C642.104 28.4177 643.115 27.8659 643.956 26.7623L644.587 27.1171C643.536 29.5607 641.788 30.7826 639.345 30.7826C635.929 30.7826 634.221 28.7725 634.221 24.7522V11.8637H631.304V10.4448Z" fill="white"/>
<path d="M606.491 29.5213C607.568 29.2323 608.317 28.7724 608.737 28.1418C609.184 27.4849 609.407 26.4864 609.407 25.1463V16.1993C609.407 14.8066 609.184 13.7819 608.737 13.125C608.317 12.4681 607.568 12.0082 606.491 11.7455V11.1148L612.206 10.2083C612.6 10.944 612.823 11.6404 612.876 12.2973C614.558 10.6419 616.699 9.81416 619.3 9.81416C621.718 9.81416 623.57 10.4579 624.858 11.7455C626.145 13.033 626.789 14.8855 626.789 17.3029V25.1463C626.789 26.4864 626.999 27.4849 627.42 28.1418C627.866 28.7724 628.628 29.2323 629.706 29.5213V30.152H620.167V29.5213C621.245 29.2323 621.994 28.7724 622.414 28.1418C622.861 27.4849 623.084 26.4864 623.084 25.1463V17.0664C623.084 15.2796 622.677 13.887 621.862 12.8885C621.048 11.89 619.905 11.3907 618.433 11.3907C616.804 11.3907 615.503 11.982 614.531 13.1644C613.585 14.3205 613.112 15.884 613.112 17.8547V25.1463C613.112 26.4864 613.323 27.4849 613.743 28.1418C614.19 28.7724 614.952 29.2323 616.029 29.5213V30.152H606.491V29.5213Z" fill="white"/>
<path d="M585.899 20.456C585.899 18.3277 586.294 16.4752 587.082 14.8986C587.87 13.2958 588.974 12.0476 590.393 11.1543C591.812 10.2609 593.454 9.81416 595.319 9.81416C597.737 9.81416 599.668 10.6024 601.113 12.179C602.558 13.7293 603.412 15.9628 603.675 18.8795H589.447C589.447 21.7436 590.117 23.977 591.457 25.5799C592.797 27.1565 594.676 27.9447 597.093 27.9447C599.458 27.9447 601.271 27.1039 602.532 25.4222L603.163 25.777C601.665 29.114 599.051 30.7826 595.319 30.7826C593.428 30.7826 591.772 30.3622 590.353 29.5213C588.934 28.6542 587.831 27.4455 587.042 25.8952C586.28 24.3449 585.899 22.5319 585.899 20.456ZM599.616 17.4605C599.484 15.5161 598.972 13.9921 598.078 12.8885C597.211 11.7849 596.055 11.2331 594.61 11.2331C593.165 11.2331 591.995 11.7849 591.102 12.8885C590.209 13.9921 589.683 15.5161 589.526 17.4605H599.616Z" fill="white"/>
<path d="M559.981 2.56192H570.387V3.19255C569.073 3.48159 568.258 4.00711 567.943 4.76912C567.654 5.53113 567.733 6.47708 568.18 7.60695L575.038 24.3186L581.856 7.64637C582.329 6.49021 582.343 5.50486 581.896 4.69029C581.449 3.84946 580.529 3.35021 579.137 3.19255V2.56192H587.256V3.19255C586.284 3.40276 585.575 3.84945 585.128 4.53264C584.681 5.21582 584.169 6.25373 583.591 7.64637L573.974 30.5461H573.264L563.647 7.64637C563.069 6.25373 562.543 5.21582 562.07 4.53264C561.624 3.84945 560.927 3.40276 559.981 3.19255V2.56192Z" fill="white"/>
<path d="M525.31 29.5213C526.387 29.2323 527.136 28.7593 527.556 28.1024C528.003 27.4455 528.226 26.4339 528.226 25.0675V6.06981C528.226 4.67717 528.003 3.65239 527.556 2.99549C527.136 2.33858 526.387 1.87875 525.31 1.61599V0.985359L531.655 0L532.089 0.433558C531.984 1.16929 531.931 1.97072 531.931 2.83783V12.0608C533.56 10.563 535.623 9.81416 538.119 9.81416C540.537 9.81416 542.389 10.4579 543.677 11.7455C544.964 13.033 545.608 14.8855 545.608 17.3029V25.1463C545.608 26.4864 545.818 27.4849 546.239 28.1418C546.685 28.7724 547.447 29.2323 548.525 29.5213V30.152H538.986V29.5213C540.064 29.2323 540.813 28.7724 541.233 28.1418C541.68 27.4849 541.903 26.4864 541.903 25.1463V17.0664C541.903 15.2796 541.496 13.887 540.681 12.8885C539.867 11.89 538.724 11.3907 537.252 11.3907C535.623 11.3907 534.322 11.982 533.35 13.1644C532.404 14.3205 531.931 15.884 531.931 17.8547V25.2646C531.931 26.5784 532.141 27.5506 532.562 28.1812C533.009 28.8119 533.771 29.2586 534.848 29.5213V30.152H525.31V29.5213Z" fill="white"/>
<path d="M509.058 10.4448H511.975V6.50337L515.404 5.95157L515.837 6.38513C515.732 7.12086 515.68 7.93542 515.68 8.82881V10.4448H521.947V11.8637H515.68V24.831C515.68 27.2222 516.678 28.4177 518.675 28.4177C519.858 28.4177 520.869 27.8659 521.71 26.7623L522.341 27.1171C521.29 29.5607 519.542 30.7826 517.099 30.7826C513.683 30.7826 511.975 28.7725 511.975 24.7522V11.8637H509.058V10.4448Z" fill="white"/>
<path d="M497.909 29.5213C498.987 29.2323 499.735 28.7725 500.156 28.1418C500.603 27.4849 500.826 26.4864 500.826 25.1463V16.1993C500.826 14.8066 500.603 13.7819 500.156 13.125C499.735 12.4681 498.987 12.0082 497.909 11.7455V11.1148L504.255 10.2083L504.688 10.6419C504.636 11.0623 504.596 11.4696 504.57 11.8637C504.544 12.2316 504.531 12.6389 504.531 13.0856V25.1463C504.531 26.4864 504.741 27.4849 505.161 28.1418C505.608 28.7725 506.37 29.2323 507.447 29.5213V30.152H497.909V29.5213ZM499.84 3.78378C499.84 3.02177 500.077 2.40428 500.55 1.93131C501.049 1.45833 501.667 1.22185 502.402 1.22185C503.164 1.22185 503.782 1.45833 504.255 1.93131C504.728 2.40428 504.964 3.02177 504.964 3.78378C504.964 4.51951 504.728 5.137 504.255 5.63625C503.782 6.10922 503.164 6.34571 502.402 6.34571C501.667 6.34571 501.049 6.10922 500.55 5.63625C500.077 5.137 499.84 4.51951 499.84 3.78378Z" fill="white"/>
<path d="M461.168 10.4448H470.943V11.0754C469.865 11.1805 469.169 11.5878 468.854 12.2973C468.538 13.0067 468.63 13.9527 469.13 15.1351L473.505 25.1463L477.84 15.2533L477.131 13.6768C476.789 12.9148 476.395 12.3498 475.948 11.982C475.528 11.6141 474.871 11.3119 473.978 11.0754V10.4448H483.752V11.0754C482.675 11.1805 481.979 11.5878 481.663 12.2973C481.348 13.0067 481.44 13.9527 481.939 15.1351L486.314 25.1463L490.689 15.1351C491.215 13.9527 491.307 13.0067 490.965 12.2973C490.65 11.5878 489.954 11.1805 488.876 11.0754V10.4448H496.05V11.0754C495.156 11.3119 494.499 11.6141 494.079 11.982C493.659 12.3498 493.264 12.9148 492.897 13.6768L485.368 30.5461H484.659L478.629 16.9876L472.559 30.5461H471.849L464.321 13.6768C463.98 12.9148 463.585 12.3498 463.139 11.982C462.718 11.6141 462.061 11.3119 461.168 11.0754V10.4448Z" fill="white"/>
<path d="M445.575 26.1711C445.575 25.1989 445.207 24.3843 444.472 23.7274C443.736 23.0705 442.475 22.3873 440.688 21.6779C438.297 20.7057 436.602 19.7334 435.603 18.7612C434.605 17.7627 434.106 16.6197 434.106 15.3322C434.106 13.6505 434.763 12.3104 436.076 11.3119C437.417 10.3134 439.203 9.81416 441.437 9.81416C442.514 9.81416 443.631 9.94554 444.787 10.2083C445.943 10.4448 447.021 10.7864 448.019 11.2331L448.65 16.4752L447.98 16.6723C447.086 14.9117 446.035 13.5717 444.826 12.652C443.618 11.7061 442.33 11.2331 440.964 11.2331C439.913 11.2331 439.085 11.4958 438.481 12.0214C437.903 12.5206 437.614 13.1907 437.614 14.0315C437.614 14.8986 437.981 15.6475 438.717 16.2781C439.453 16.8825 440.74 17.5525 442.58 18.2882C444.997 19.2605 446.679 20.2064 447.625 21.1261C448.597 22.0457 449.083 23.1756 449.083 24.5157C449.083 25.7244 448.755 26.8017 448.098 27.7477C447.467 28.6936 446.574 29.4425 445.418 29.9943C444.288 30.5198 442.961 30.7826 441.437 30.7826C440.386 30.7826 439.269 30.6381 438.087 30.349C436.904 30.0863 435.722 29.6921 434.539 29.1666L433.909 23.9245L434.579 23.7274C435.472 25.5142 436.563 26.9068 437.85 27.9053C439.164 28.8776 440.543 29.3637 441.989 29.3637C443.118 29.3637 443.999 29.0746 444.629 28.4965C445.26 27.9185 445.575 27.1433 445.575 26.1711Z" fill="white"/>
<path d="M412.923 20.456C412.923 18.3277 413.317 16.4752 414.105 14.8986C414.894 13.2958 415.997 12.0476 417.416 11.1543C418.835 10.2609 420.477 9.81416 422.343 9.81416C424.76 9.81416 426.692 10.6024 428.137 12.179C429.582 13.7293 430.436 15.9628 430.699 18.8795H416.47C416.47 21.7436 417.14 23.977 418.48 25.5799C419.82 27.1565 421.699 27.9447 424.117 27.9447C426.481 27.9447 428.294 27.1039 429.556 25.4222L430.186 25.777C428.689 29.114 426.074 30.7826 422.343 30.7826C420.451 30.7826 418.796 30.3622 417.377 29.5213C415.958 28.6542 414.854 27.4455 414.066 25.8952C413.304 24.3449 412.923 22.5319 412.923 20.456ZM426.639 17.4605C426.508 15.5161 425.995 13.9921 425.102 12.8885C424.235 11.7849 423.079 11.2331 421.633 11.2331C420.188 11.2331 419.019 11.7849 418.126 12.8885C417.232 13.9921 416.707 15.5161 416.549 17.4605H426.639Z" fill="white"/>
<path d="M401.178 29.5213C402.255 29.2323 403.004 28.7724 403.424 28.1418C403.871 27.4849 404.094 26.4996 404.094 25.1857V6.06981C404.094 4.67717 403.871 3.65239 403.424 2.99549C403.004 2.33858 402.255 1.87875 401.178 1.61599V0.985359L407.523 0L407.957 0.433558C407.852 1.16929 407.799 1.99699 407.799 2.91666V25.1857C407.799 26.4996 408.01 27.4849 408.43 28.1418C408.877 28.7724 409.639 29.2323 410.716 29.5213V30.152H401.178V29.5213Z" fill="white"/>
<path d="M389.674 29.5213C390.751 29.2323 391.5 28.7725 391.92 28.1418C392.367 27.4849 392.591 26.4864 392.591 25.1463V16.1993C392.591 14.8066 392.367 13.7819 391.92 13.125C391.5 12.4681 390.751 12.0082 389.674 11.7455V11.1148L396.02 10.2083L396.453 10.6419C396.401 11.0623 396.361 11.4696 396.335 11.8637C396.309 12.2316 396.295 12.6389 396.295 13.0856V25.1463C396.295 26.4864 396.506 27.4849 396.926 28.1418C397.373 28.7725 398.135 29.2323 399.212 29.5213V30.152H389.674V29.5213ZM391.605 3.78378C391.605 3.02177 391.842 2.40428 392.315 1.93131C392.814 1.45833 393.431 1.22185 394.167 1.22185C394.929 1.22185 395.547 1.45833 396.02 1.93131C396.493 2.40428 396.729 3.02177 396.729 3.78378C396.729 4.51951 396.493 5.137 396.02 5.63625C395.547 6.10922 394.929 6.34571 394.167 6.34571C393.431 6.34571 392.814 6.10922 392.315 5.63625C391.842 5.137 391.605 4.51951 391.605 3.78378Z" fill="white"/>
<path d="M351.645 29.5213C352.722 29.2323 353.471 28.7724 353.892 28.1418C354.338 27.4849 354.562 26.4864 354.562 25.1463V16.1993C354.562 14.8066 354.338 13.7819 353.892 13.125C353.471 12.4681 352.722 12.0082 351.645 11.7455V11.1148L357.36 10.2083C357.728 10.9178 357.951 11.5878 358.03 12.2184C359.633 10.6156 361.656 9.81416 364.1 9.81416C367.174 9.81416 369.276 10.944 370.406 13.2038C372.193 10.944 374.518 9.81416 377.383 9.81416C379.695 9.81416 381.469 10.4579 382.704 11.7455C383.965 13.033 384.595 14.8855 384.595 17.3029V25.1463C384.595 26.4864 384.806 27.4849 385.226 28.1418C385.673 28.7724 386.435 29.2323 387.512 29.5213V30.152H377.974V29.5213C379.051 29.2323 379.8 28.7724 380.22 28.1418C380.667 27.4849 380.89 26.4864 380.89 25.1463V17.0664C380.89 15.2796 380.496 13.887 379.708 12.8885C378.92 11.89 377.829 11.3907 376.437 11.3907C374.913 11.3907 373.691 11.982 372.771 13.1644C371.878 14.3205 371.431 15.884 371.431 17.8547V25.1463C371.431 26.4864 371.641 27.4849 372.062 28.1418C372.508 28.7724 373.27 29.2323 374.348 29.5213V30.152H364.809V29.5213C365.887 29.2323 366.636 28.7724 367.056 28.1418C367.503 27.4849 367.726 26.4864 367.726 25.1463V17.0664C367.726 15.2796 367.332 13.887 366.544 12.8885C365.755 11.89 364.665 11.3907 363.272 11.3907C361.748 11.3907 360.526 11.982 359.607 13.1644C358.713 14.3205 358.267 15.884 358.267 17.8547V25.1463C358.267 26.4864 358.477 27.4849 358.897 28.1418C359.344 28.7724 360.106 29.2323 361.183 29.5213V30.152H351.645V29.5213Z" fill="white"/>
<path d="M329.134 29.5213C330.212 29.1797 330.829 28.6542 330.987 27.9447C331.171 27.2353 330.882 26.2893 330.12 25.1069L325.469 17.7364L320.621 25.1069C319.071 27.4455 319.268 28.917 321.212 29.5213V30.1519H313.526V29.5213C315.339 28.9432 316.929 27.6688 318.296 25.6981L324.602 16.3569L318.493 6.70042C317.888 5.7282 317.258 4.95306 316.601 4.37498C315.97 3.7969 315.182 3.40276 314.236 3.19255V2.56192H324.641V3.19255C323.327 3.48159 322.618 3.98084 322.513 4.69029C322.434 5.37348 322.802 6.3457 323.616 7.60695L327.597 13.8738L331.736 7.60695C332.655 6.24059 333.063 5.20268 332.958 4.49322C332.879 3.78377 332.143 3.35021 330.75 3.19255V2.56192H338.87V3.19255C338.239 3.32393 337.687 3.50787 337.214 3.74435C336.741 3.98084 336.268 4.3487 335.795 4.84795C335.322 5.3472 334.758 6.0698 334.101 7.01574L328.464 15.2533L335.322 26.0134C335.927 26.9857 336.544 27.7345 337.175 28.2601C337.832 28.7593 338.633 29.1797 339.579 29.5213V30.1519H329.134V29.5213Z" fill="white"/>
<path d="M305.375 8.5529C305.375 6.97633 304.967 5.80703 304.153 5.04502C303.364 4.28301 302.432 3.90201 301.354 3.90201C299.751 3.90201 298.411 4.48008 297.334 5.63624C296.257 6.79239 295.271 8.63173 294.378 11.1542L293.669 11.036L294.457 4.05966C295.928 3.50786 297.255 3.12686 298.438 2.91665C299.62 2.68016 300.737 2.56192 301.788 2.56192C304.205 2.56192 306.11 3.10058 307.503 4.17791C308.922 5.22896 309.631 6.75298 309.631 8.74997C309.631 9.74847 309.303 10.8783 308.646 12.1396C307.989 13.3746 306.872 14.9117 305.296 16.7511C303.745 18.5641 301.63 20.837 298.95 23.5698L295.915 26.6835H306.163C307.319 26.6835 308.199 26.3944 308.804 25.8164C309.434 25.2383 310.039 24.1872 310.617 22.6632L311.326 22.7815L310.459 30.1519H292.131L291.855 29.5213L297.689 22.4267C299.134 20.6662 300.343 19.1291 301.315 17.8153C302.313 16.5015 303.102 15.3322 303.68 14.3074C304.284 13.2826 304.718 12.3104 304.98 11.3907C305.243 10.4711 305.375 9.52512 305.375 8.5529Z" fill="white"/>
<path d="M258.614 20.8108C258.614 18.6561 259.022 16.7511 259.836 15.0957C260.651 13.4403 261.781 12.1527 263.226 11.2331C264.671 10.2871 266.326 9.81416 268.192 9.81416C270.294 9.81416 272.16 10.366 273.789 11.4696V6.03039C273.789 4.63775 273.565 3.61298 273.119 2.95607C272.698 2.27289 271.949 1.79992 270.872 1.53716V0.906528L277.218 0L277.651 0.433558C277.546 1.16929 277.494 1.98385 277.494 2.87724V25.1463C277.494 26.4864 277.704 27.4849 278.124 28.1418C278.571 28.7724 279.333 29.2323 280.41 29.5213V30.152L274.695 30.5461C274.301 29.7841 274.078 29.0352 274.025 28.2995C272.344 29.9549 270.255 30.7826 267.758 30.7826C264.973 30.7826 262.753 29.8892 261.097 28.1024C259.442 26.3156 258.614 23.8851 258.614 20.8108ZM262.477 19.5889C262.477 21.5071 262.726 23.1888 263.226 24.6339C263.751 26.0791 264.474 27.209 265.394 28.0236C266.339 28.8119 267.417 29.206 268.625 29.206C270.123 29.206 271.358 28.6279 272.33 27.4718C273.303 26.2893 273.789 24.7916 273.789 22.9785V17.4211C273.789 16.265 273.526 15.2271 273 14.3074C272.501 13.3615 271.818 12.6126 270.951 12.0608C270.084 11.509 269.112 11.2331 268.034 11.2331C266.3 11.2331 264.934 11.9688 263.935 13.4403C262.963 14.9117 262.477 16.9613 262.477 19.5889Z" fill="white"/>
<path d="M237.983 20.456C237.983 18.3277 238.378 16.4752 239.166 14.8986C239.954 13.2958 241.058 12.0476 242.477 11.1543C243.896 10.2609 245.538 9.81416 247.403 9.81416C249.821 9.81416 251.752 10.6024 253.197 12.179C254.643 13.7293 255.497 15.9628 255.759 18.8795H241.531C241.531 21.7436 242.201 23.977 243.541 25.5799C244.881 27.1565 246.76 27.9447 249.177 27.9447C251.542 27.9447 253.355 27.1039 254.616 25.4222L255.247 25.777C253.749 29.114 251.135 30.7826 247.403 30.7826C245.512 30.7826 243.856 30.3622 242.437 29.5213C241.018 28.6542 239.915 27.4455 239.126 25.8952C238.364 24.3449 237.983 22.5319 237.983 20.456ZM251.7 17.4605C251.568 15.5161 251.056 13.9921 250.162 12.8885C249.295 11.7849 248.139 11.2331 246.694 11.2331C245.249 11.2331 244.079 11.7849 243.186 12.8885C242.293 13.9921 241.767 15.5161 241.61 17.4605H251.7Z" fill="white"/>
<path d="M221.88 10.4448H224.797V6.50337L228.226 5.95157L228.66 6.38513C228.555 7.12086 228.502 7.93542 228.502 8.82881V10.4448H234.769V11.8637H228.502V24.831C228.502 27.2222 229.5 28.4177 231.497 28.4177C232.68 28.4177 233.692 27.8659 234.532 26.7623L235.163 27.1171C234.112 29.5607 232.365 30.7826 229.921 30.7826C226.505 30.7826 224.797 28.7725 224.797 24.7522V11.8637H221.88V10.4448Z" fill="white"/>
<path d="M210.731 29.5213C211.808 29.2323 212.557 28.7725 212.978 28.1418C213.424 27.4849 213.648 26.4864 213.648 25.1463V16.1993C213.648 14.8066 213.424 13.7819 212.978 13.125C212.557 12.4681 211.808 12.0082 210.731 11.7455V11.1148L217.077 10.2083L217.51 10.6419C217.458 11.0623 217.418 11.4696 217.392 11.8637C217.366 12.2316 217.353 12.6389 217.353 13.0856V25.1463C217.353 26.4864 217.563 27.4849 217.983 28.1418C218.43 28.7725 219.192 29.2323 220.269 29.5213V30.152H210.731V29.5213ZM212.662 3.78378C212.662 3.02177 212.899 2.40428 213.372 1.93131C213.871 1.45833 214.488 1.22185 215.224 1.22185C215.986 1.22185 216.604 1.45833 217.077 1.93131C217.55 2.40428 217.786 3.02177 217.786 3.78378C217.786 4.51951 217.55 5.137 217.077 5.63625C216.604 6.10922 215.986 6.34571 215.224 6.34571C214.488 6.34571 213.871 6.10922 213.372 5.63625C212.899 5.137 212.662 4.51951 212.662 3.78378Z" fill="white"/>
<path d="M172.703 29.5213C173.78 29.2323 174.529 28.7724 174.949 28.1418C175.396 27.4849 175.619 26.4864 175.619 25.1463V16.1993C175.619 14.8066 175.396 13.7819 174.949 13.125C174.529 12.4681 173.78 12.0082 172.703 11.7455V11.1148L178.418 10.2083C178.786 10.9178 179.009 11.5878 179.088 12.2184C180.691 10.6156 182.714 9.81416 185.158 9.81416C188.232 9.81416 190.334 10.944 191.464 13.2038C193.251 10.944 195.576 9.81416 198.44 9.81416C200.752 9.81416 202.526 10.4579 203.761 11.7455C205.022 13.033 205.653 14.8855 205.653 17.3029V25.1463C205.653 26.4864 205.863 27.4849 206.284 28.1418C206.73 28.7724 207.492 29.2323 208.57 29.5213V30.152H199.031V29.5213C200.109 29.2323 200.858 28.7724 201.278 28.1418C201.725 27.4849 201.948 26.4864 201.948 25.1463V17.0664C201.948 15.2796 201.554 13.887 200.766 12.8885C199.977 11.89 198.887 11.3907 197.494 11.3907C195.97 11.3907 194.748 11.982 193.829 13.1644C192.935 14.3205 192.489 15.884 192.489 17.8547V25.1463C192.489 26.4864 192.699 27.4849 193.119 28.1418C193.566 28.7724 194.328 29.2323 195.405 29.5213V30.152H185.867V29.5213C186.944 29.2323 187.693 28.7724 188.114 28.1418C188.56 27.4849 188.784 26.4864 188.784 25.1463V17.0664C188.784 15.2796 188.39 13.887 187.601 12.8885C186.813 11.89 185.723 11.3907 184.33 11.3907C182.806 11.3907 181.584 11.982 180.664 13.1644C179.771 14.3205 179.324 15.884 179.324 17.8547V25.1463C179.324 26.4864 179.534 27.4849 179.955 28.1418C180.402 28.7724 181.164 29.2323 182.241 29.5213V30.152H172.703V29.5213Z" fill="white"/>
<path d="M161.001 29.5213C162.079 29.2323 162.828 28.7725 163.248 28.1418C163.695 27.4849 163.918 26.4864 163.918 25.1463V16.1993C163.918 14.8066 163.695 13.7819 163.248 13.125C162.828 12.4681 162.079 12.0082 161.001 11.7455V11.1148L167.347 10.2083L167.781 10.6419C167.728 11.0623 167.689 11.4696 167.662 11.8637C167.636 12.2316 167.623 12.6389 167.623 13.0856V25.1463C167.623 26.4864 167.833 27.4849 168.254 28.1418C168.7 28.7725 169.462 29.2323 170.54 29.5213V30.152H161.001V29.5213ZM162.933 3.78378C162.933 3.02177 163.169 2.40428 163.642 1.93131C164.141 1.45833 164.759 1.22185 165.495 1.22185C166.257 1.22185 166.874 1.45833 167.347 1.93131C167.82 2.40428 168.057 3.02177 168.057 3.78378C168.057 4.51951 167.82 5.137 167.347 5.63625C166.874 6.10922 166.257 6.34571 165.495 6.34571C164.759 6.34571 164.141 6.10922 163.642 5.63625C163.169 5.137 162.933 4.51951 162.933 3.78378Z" fill="white"/>
<path d="M149.295 29.5213C150.373 29.2323 151.122 28.7724 151.542 28.1418C151.989 27.4849 152.212 26.4996 152.212 25.1857V6.06981C152.212 4.67717 151.989 3.65239 151.542 2.99549C151.122 2.33858 150.373 1.87875 149.295 1.61599V0.985359L155.641 0L156.075 0.433558C155.97 1.16929 155.917 1.99699 155.917 2.91666V25.1857C155.917 26.4996 156.127 27.4849 156.548 28.1418C156.994 28.7724 157.756 29.2323 158.834 29.5213V30.152H149.295V29.5213Z" fill="white"/>
<path d="M124.127 29.5213C125.205 29.2323 125.954 28.7724 126.374 28.1418C126.821 27.4849 127.044 26.4864 127.044 25.1463V16.1993C127.044 14.8066 126.821 13.7819 126.374 13.125C125.954 12.4681 125.205 12.0082 124.127 11.7455V11.1148L129.843 10.2083C130.237 10.944 130.46 11.6404 130.513 12.2973C132.194 10.6419 134.336 9.81416 136.937 9.81416C139.354 9.81416 141.207 10.4579 142.495 11.7455C143.782 13.033 144.426 14.8855 144.426 17.3029V25.1463C144.426 26.4864 144.636 27.4849 145.056 28.1418C145.503 28.7724 146.265 29.2323 147.342 29.5213V30.152H137.804V29.5213C138.882 29.2323 139.63 28.7724 140.051 28.1418C140.498 27.4849 140.721 26.4864 140.721 25.1463V17.0664C140.721 15.2796 140.314 13.887 139.499 12.8885C138.684 11.89 137.541 11.3907 136.07 11.3907C134.441 11.3907 133.14 11.982 132.168 13.1644C131.222 14.3205 130.749 15.884 130.749 17.8547V25.1463C130.749 26.4864 130.959 27.4849 131.38 28.1418C131.826 28.7724 132.588 29.2323 133.666 29.5213V30.152H124.127V29.5213Z" fill="white"/>
<path d="M101.973 23.2939V16.2781C101.973 14.8855 101.749 13.8607 101.303 13.2038C100.882 12.5469 100.133 12.0871 99.0562 11.8243V11.1937L105.402 10.2083L105.835 10.6419C105.73 11.3776 105.678 12.1922 105.678 13.0856V23.5304C105.678 25.3171 106.059 26.7098 106.821 27.7083C107.583 28.7068 108.647 29.206 110.013 29.206C110.959 29.206 111.84 28.9695 112.654 28.4966C113.469 28.0236 114.112 27.3404 114.585 26.447C115.085 25.5536 115.334 24.4894 115.334 23.2545V14.5833C115.334 13.6374 115.177 12.9673 114.861 12.5732C114.572 12.179 113.902 11.89 112.851 11.7061V11.1148L118.842 10.2083L119.197 10.563C119.092 11.4302 119.039 12.3104 119.039 13.2038V25.1463C119.039 26.4864 119.249 27.4849 119.67 28.1418C120.117 28.7725 120.879 29.2323 121.956 29.5213V30.152L116.241 30.5461C115.794 29.7053 115.558 28.8644 115.531 28.0236C113.876 29.8629 111.748 30.7826 109.146 30.7826C106.834 30.7826 105.06 30.1388 103.825 28.8513C102.59 27.5375 101.973 25.685 101.973 23.2939Z" fill="white"/>
<path d="M64.4287 29.5213C65.506 29.2323 66.2549 28.7724 66.6753 28.1418C67.122 27.4849 67.3454 26.4864 67.3454 25.1463V16.1993C67.3454 14.8066 67.122 13.7819 66.6753 13.125C66.2549 12.4681 65.506 12.0082 64.4287 11.7455V11.1148L70.1438 10.2083C70.5379 10.944 70.7613 11.6404 70.8138 12.2973C72.4955 10.6419 74.637 9.81416 77.2384 9.81416C79.6558 9.81416 81.5082 10.4579 82.7958 11.7455C84.0833 13.033 84.7271 14.8855 84.7271 17.3029V25.1463C84.7271 26.4864 84.9373 27.4849 85.3577 28.1418C85.8044 28.7724 86.5664 29.2323 87.6437 29.5213V30.152H78.1055V29.5213C79.1828 29.2323 79.9317 28.7724 80.3521 28.1418C80.7988 27.4849 81.0221 26.4864 81.0221 25.1463V17.0664C81.0221 15.2796 80.6149 13.887 79.8003 12.8885C78.9857 11.89 77.8427 11.3907 76.3712 11.3907C74.7421 11.3907 73.4415 11.982 72.4692 13.1644C71.5233 14.3205 71.0503 15.884 71.0503 17.8547V25.1463C71.0503 26.4864 71.2605 27.4849 71.6809 28.1418C72.1276 28.7724 72.8896 29.2323 73.967 29.5213V30.152H64.4287V29.5213Z" fill="white"/>
<path d="M46.6074 29.5213C47.6847 29.2323 48.4336 28.7724 48.854 28.1418C49.3007 27.4849 49.5241 26.4996 49.5241 25.1857V16.1205C49.5241 14.7804 49.3007 13.7819 48.854 13.125C48.4336 12.4681 47.6847 12.0082 46.6074 11.7455V11.1148L52.3225 10.2083C52.559 10.655 52.7298 11.0623 52.8349 11.4302C52.94 11.798 53.0057 12.2447 53.032 12.7702C53.6363 11.8506 54.372 11.128 55.2392 10.6024C56.1325 10.0769 57.1048 9.81416 58.1558 9.81416C59.6273 9.81416 60.928 10.2871 62.0578 11.2331L62.2943 16.7117L61.6243 16.8693C60.8097 15.0037 60.0346 13.6768 59.2988 12.8885C58.5631 12.1002 57.7354 11.7061 56.8157 11.7061C55.6859 11.7061 54.8056 12.2316 54.175 13.2826C53.5443 14.3337 53.229 15.8183 53.229 17.7364V25.1857C53.229 26.6047 53.4918 27.6163 54.0173 28.2206C54.5428 28.825 55.5151 29.2323 56.934 29.4425V30.152H46.6074V29.5213Z" fill="white"/>
<path d="M25.2261 25.5799C25.2261 24.2924 25.6334 23.1625 26.4479 22.1903C27.2625 21.218 28.4055 20.4692 29.877 19.9436C31.3484 19.3918 33.0564 19.1159 35.0008 19.1159C35.973 19.1159 36.9584 19.1816 37.9569 19.313V16.7905C37.9569 15.0563 37.5628 13.703 36.7745 12.7308C36.0125 11.7323 34.9483 11.2331 33.5819 11.2331C30.9806 11.2331 28.7865 13.1118 26.9997 16.8693L26.3297 16.6723L26.9603 11.2331C29.3252 10.2871 31.6243 9.81416 33.8578 9.81416C36.354 9.81416 38.2722 10.4448 39.6123 11.7061C40.9787 12.941 41.6618 14.7278 41.6618 17.0664V26.6835C41.6618 28.0499 42.2005 28.733 43.2778 28.733C43.672 28.733 44.0267 28.5885 44.342 28.2995L44.8544 28.6936C44.0398 29.9286 42.9231 30.5461 41.5042 30.5461C39.8751 30.5461 38.8109 29.7841 38.3116 28.2601C36.7351 29.9417 34.6986 30.7826 32.2024 30.7826C30.0478 30.7826 28.3398 30.3227 27.0785 29.4031C25.8436 28.4571 25.2261 27.1827 25.2261 25.5799ZM29.0887 25.1069C29.0887 26.3945 29.4828 27.4061 30.2711 28.1418C31.0857 28.8776 32.1367 29.2454 33.4243 29.2454C34.7118 29.2454 35.7891 28.7199 36.6562 27.6688C37.5233 26.6178 37.9569 25.0412 37.9569 22.9391V20.6925C37.5365 20.64 37.1292 20.6005 36.7351 20.5743C36.3672 20.548 35.9993 20.5349 35.6315 20.5349C33.5556 20.5349 31.9396 20.9421 30.7835 21.7567C29.6536 22.545 29.0887 23.6617 29.0887 25.1069Z" fill="white"/>
<path d="M0 29.4425C1.12988 29.1535 1.91816 28.6673 2.36486 27.9842C2.83783 27.301 3.07432 26.2631 3.07432 24.8704V7.84345C3.07432 6.45081 2.83783 5.4129 2.36486 4.72972C1.91816 4.04653 1.12988 3.56043 0 3.27139V2.56193H13.7556C14.9118 2.56193 15.9497 2.53565 16.8693 2.4831C17.8153 2.40427 18.8006 2.29917 19.8254 2.16779L20.7319 9.97182L20.0225 10.0901C19.4181 8.53977 18.8006 7.33106 18.17 6.46395C17.5656 5.59683 16.8562 4.97934 16.0416 4.61147C15.2533 4.24361 14.2548 4.05967 13.0461 4.05967H7.01575V15.2139H10.9966C12.6257 15.2139 13.795 14.9774 14.5045 14.5045C15.2402 14.0052 15.792 13.0856 16.1599 11.7455H16.7117V20.1801H16.1599C15.8183 18.84 15.2796 17.9335 14.5439 17.4605C13.8081 16.9613 12.6257 16.7117 10.9966 16.7117H7.01575V24.7128C7.01575 26.0791 7.25223 27.0776 7.72521 27.7083C8.19818 28.3389 8.96019 28.6542 10.0112 28.6542H12.7308C13.9395 28.6542 14.9906 28.444 15.884 28.0236C16.7774 27.5769 17.6051 26.7886 18.3671 25.6587C19.1291 24.5026 19.9174 22.8734 20.7319 20.7713L21.4414 20.929L20.4166 30.152H0V29.4425Z" fill="white"/>
</svg>
