<svg width="102" height="24" viewBox="0 0 102 24" fill="none" xmlns="http://www.w3.org/2000/svg">
<path d="M30.668 12.7984C30.381 12.9084 30.0581 13.0184 29.6276 13.0917C29.197 13.2017 28.4077 13.3483 27.2596 13.5316C26.4703 13.6416 25.9322 13.8249 25.6093 14.0449C25.3222 14.2648 25.1428 14.5581 25.0711 14.8881C24.9993 15.2547 25.107 15.5113 25.4299 15.7313C25.7169 15.9512 26.2551 16.0612 26.9726 16.0612C27.5108 16.0612 28.0489 15.9879 28.5512 15.8046C29.0535 15.6213 29.5199 15.4013 29.8428 15.108C30.094 14.8881 30.2734 14.6314 30.381 14.2648C30.4528 14.0449 30.5604 13.5683 30.668 12.7984ZM37.2695 8.61906C37.2337 9.24229 37.126 9.79221 36.9825 10.7454L35.8703 17.161C35.7627 17.7109 35.9779 18.1875 36.4802 18.4808L36.4444 18.7374H30.0581L29.9863 17.1244C29.0535 17.7109 27.9413 18.1875 26.9009 18.4808C25.8963 18.7374 25.0711 18.8474 23.8512 18.8474C21.7703 18.8474 20.6222 18.6275 19.797 17.8942C18.9719 17.1244 18.5772 16.6478 18.6131 15.5846C18.649 14.998 18.936 14.2282 19.4024 13.6783C19.8329 13.1283 20.4428 12.7617 21.0887 12.4684C21.7345 12.1385 22.5238 11.9185 23.636 11.7352C24.7841 11.5519 26.3268 11.3686 28.4436 11.1853C29.5558 11.0753 30.2375 10.8187 30.5604 10.7087C30.9909 10.5254 31.1703 10.3421 31.2421 9.97551C31.3497 9.31561 31.1703 8.94901 30.3092 8.7657C28.0131 8.28911 23.7077 9.05899 21.4833 9.64556L22.7032 6.30943C25.6451 5.8695 28.3718 5.57621 31.2779 5.57621C35.8344 5.53955 37.3054 6.896 37.2695 8.61906Z" fill="white"/>
<path d="M55.7822 18.7008L58.0066 5.90615H64.1418L61.9173 18.7008H55.7822ZM58.3654 2.97329C58.5448 1.91012 60.1593 1.06693 61.9891 1.06693C63.8189 1.06693 65.1463 1.91012 64.9669 2.97329C64.7876 4.03645 63.1372 4.87965 61.3433 4.87965C59.4776 4.87965 58.1502 3.99979 58.3654 2.97329Z" fill="white"/>
<path d="M85.8477 12.835C85.5607 12.945 85.2019 13.0184 84.7714 13.1283C84.3408 13.2383 83.5515 13.3483 82.4034 13.5683C81.6141 13.6782 81.076 13.8615 80.7531 14.0815C80.466 14.3015 80.2867 14.5581 80.2149 14.8881C80.1431 15.2547 80.2867 15.5113 80.5737 15.7313C80.8966 15.9512 81.3989 16.0612 82.1164 16.0612C82.6546 16.0612 83.1569 15.9879 83.695 15.8046C84.2332 15.6213 84.6637 15.4013 84.9866 15.108C85.2378 14.8881 85.4172 14.5948 85.5248 14.2648C85.5966 14.0815 85.7042 13.6049 85.8477 12.835ZM92.4492 8.61905C92.4134 9.24229 92.3057 9.7922 92.1622 10.7454L91.05 17.161C90.9424 17.7109 91.1576 18.1875 91.6599 18.4808L91.624 18.7008H85.2378L85.2019 17.0877C84.2691 17.6743 83.1569 18.1509 82.1164 18.4442C81.1118 18.7008 80.2867 18.8108 79.0309 18.8108C76.9859 18.8108 75.8019 18.5908 74.9767 17.8576C74.1515 17.0877 73.7569 16.6111 73.7928 15.5846C73.8286 14.998 74.1157 14.2282 74.5462 13.6782C74.9767 13.1283 75.5867 12.7617 76.2683 12.4684C76.9141 12.1385 77.7035 11.9185 78.8157 11.7352C79.9638 11.5519 81.5424 11.3686 83.6233 11.1853C84.7355 11.0753 85.3813 10.8187 85.7042 10.7087C86.1347 10.5254 86.3141 10.3421 86.3859 9.9755C86.4935 9.31561 86.3141 8.949 85.4531 8.7657C83.1569 8.2891 78.8515 9.05898 76.6271 9.64556L77.847 6.30942C80.7889 5.86949 83.5157 5.5762 86.4218 5.5762C91.0141 5.5762 92.4851 6.89599 92.4492 8.61905Z" fill="white"/>
<path d="M17.7877 14.1182C15.7786 14.5215 14.6664 14.6681 12.6931 14.6681C9.78699 14.6681 7.45493 13.2017 7.56256 10.4521C7.63432 8.65574 9.75111 4.80635 15.0969 4.80635C16.7832 4.80635 18.0748 5.09964 19.8687 6.12614L20.658 1.69018C18.2542 0.773663 16.6755 0.62702 14.5946 0.663681C7.59844 0.773664 0.889292 3.99982 0.0641023 10.5988C-0.796965 17.3077 7.23966 18.9941 10.7916 18.9941C12.8366 18.9941 14.9893 18.8841 16.9625 18.7008L17.7877 14.1182Z" fill="white"/>
<path d="M67.5145 5.83285L67.945 3.22993L74.3313 1.80016L73.6496 5.83285H76.771L76.1611 8.3991H73.1114L71.2817 18.7008C71.2817 18.7008 65.1107 18.6641 65.1107 18.7008L66.9405 8.43576H64.6084L65.0748 5.83285H67.5145Z" fill="white"/>
<path d="M98.6563 18.7008H92.4136L95.5708 0.883636L101.634 1.03028L98.6563 18.7008Z" fill="white"/>
<path d="M47.7098 8.91235C46.9204 8.91235 46.167 9.16898 45.5212 9.64557C44.8754 10.1588 44.4808 10.8554 44.3014 11.8452C44.122 12.945 44.2296 13.7516 44.6601 14.2648C45.0907 14.7414 45.7365 14.998 46.5617 14.998C47.0998 14.998 47.7098 14.8881 48.1044 14.6681C48.6426 14.3748 49.0014 14.0815 49.2884 13.6049C49.6113 13.0917 49.8624 12.5418 49.9701 11.9185C50.1494 10.892 50.0059 10.1588 49.5395 9.64557C49.109 9.16898 48.4991 8.91235 47.7098 8.91235ZM36.5518 23.1367L39.5296 6.01614H44.9113L44.4808 8.21579C44.9472 7.5559 45.7006 7.04265 46.7052 6.60272C47.7456 6.16279 48.8937 5.83284 50.1853 5.83284C51.5846 5.83284 52.4456 5.90616 53.4861 6.45607C54.5265 7.00599 55.2441 7.81252 55.6388 8.87569C56.0334 9.90219 56.141 11.0753 55.8899 12.3585C55.5311 14.4848 54.5265 16.1345 52.8762 17.3443C51.2258 18.5541 49.7548 18.8841 47.638 18.8841C46.8846 18.8841 46.2746 18.8108 45.7365 18.6641C45.2342 18.5175 44.8395 18.3708 44.5166 18.1509C44.2296 17.9309 43.9067 17.6743 43.5121 17.2344L42.5075 23.1001H36.5518V23.1367Z" fill="white"/>
</svg>
