<svg width="187" height="20" viewBox="0 0 187 20" fill="none" xmlns="http://www.w3.org/2000/svg">
<path d="M185.736 14.9334C185.386 14.9334 185.1 14.8231 184.879 14.6024C184.659 14.3818 184.548 14.0962 184.548 13.7457C184.548 13.3953 184.659 13.1097 184.879 12.8891C185.1 12.6684 185.386 12.5581 185.736 12.5581C186.086 12.5581 186.372 12.6684 186.593 12.8891C186.813 13.1097 186.924 13.3953 186.924 13.7457C186.924 14.0962 186.813 14.3818 186.593 14.6024C186.372 14.8231 186.086 14.9334 185.736 14.9334Z" fill="white"/>
<path d="M175.474 13.0254C176.512 13.4796 177.551 13.7068 178.589 13.7068C179.342 13.7068 179.913 13.564 180.302 13.2785C180.705 12.9929 180.906 12.584 180.906 12.0519C180.906 11.7014 180.796 11.4158 180.575 11.1952C180.354 10.9745 179.991 10.7863 179.485 10.6306L178.161 10.2217C177.278 9.94911 176.636 9.59866 176.233 9.17032C175.831 8.74198 175.63 8.19682 175.63 7.53485C175.63 6.65221 175.974 5.9513 176.662 5.4321C177.349 4.9129 178.278 4.65331 179.446 4.65331C180.432 4.65331 181.373 4.848 182.269 5.2374V6.63923C181.282 6.26282 180.38 6.07461 179.563 6.07461C178.901 6.07461 178.381 6.20441 178.005 6.464C177.642 6.71062 177.46 7.0481 177.46 7.47644C177.46 7.78795 177.557 8.03457 177.752 8.21629C177.947 8.38503 178.31 8.55377 178.842 8.72251L180.322 9.17032C181.931 9.65058 182.736 10.6046 182.736 12.0324C182.736 13.0318 182.392 13.7977 181.704 14.3298C181.016 14.862 180.023 15.1281 178.725 15.1281C177.518 15.1281 176.506 14.9269 175.688 14.5245L175.474 13.0254Z" fill="white"/>
<path d="M171.34 6.26931V11.9545C171.34 12.5386 171.47 12.9734 171.73 13.259C171.989 13.5316 172.385 13.6679 172.917 13.6679C173.32 13.6679 173.748 13.5965 174.202 13.4537V14.7582C173.657 14.9659 173.092 15.0697 172.508 15.0697C171.522 15.0697 170.776 14.8101 170.269 14.2909C169.763 13.7717 169.51 13.0124 169.51 12.0129V6.26931H168.03V5.02324L169.588 4.96482L169.724 2.49215L171.34 2.31693V4.94536H174.105V6.26931H171.34Z" fill="white"/>
<path d="M164.42 14.8361V8.17735C164.42 6.7885 163.732 6.09407 162.356 6.09407C161.993 6.09407 161.584 6.15898 161.13 6.28878C160.688 6.4056 160.286 6.56784 159.922 6.77552V14.8361H158.092V5.06217L159.572 4.90641L159.689 5.58786C160.753 4.96482 161.811 4.65331 162.862 4.65331C163.94 4.65331 164.77 4.93886 165.355 5.50998C165.952 6.06812 166.25 6.86638 166.25 7.90477V14.8361H164.42Z" fill="white"/>
<path d="M153.662 14.875L153.546 14.1936C152.481 14.8166 151.423 15.1281 150.372 15.1281C149.321 15.1281 148.503 14.8425 147.919 14.2714C147.335 13.7003 147.043 12.902 147.043 11.8766V4.94536H148.873V11.6041C148.873 12.9929 149.541 13.6873 150.878 13.6873C151.255 13.6873 151.664 13.6289 152.105 13.5121C152.546 13.3823 152.949 13.2136 153.312 13.0059V4.94536H155.142V14.7192L153.662 14.875Z" fill="white"/>
<path d="M140.292 13.6873C141.201 13.6873 141.857 13.3888 142.259 12.7917C142.674 12.1946 142.882 11.2276 142.882 9.8907C142.882 8.55377 142.674 7.58677 142.259 6.98969C141.857 6.39261 141.201 6.09407 140.292 6.09407C139.384 6.09407 138.722 6.39261 138.307 6.98969C137.904 7.58677 137.703 8.55377 137.703 9.8907C137.703 11.2276 137.904 12.1946 138.307 12.7917C138.722 13.3888 139.384 13.6873 140.292 13.6873ZM140.292 15.1281C138.813 15.1281 137.69 14.6868 136.924 13.8041C136.171 12.9085 135.795 11.6041 135.795 9.8907C135.795 8.17735 136.171 6.87936 136.924 5.99673C137.69 5.10111 138.813 4.65331 140.292 4.65331C141.772 4.65331 142.888 5.10111 143.641 5.99673C144.407 6.87936 144.79 8.17735 144.79 9.8907C144.79 11.6041 144.407 12.9085 143.641 13.8041C142.888 14.6868 141.772 15.1281 140.292 15.1281Z" fill="white"/>
<path d="M134.315 14.4856C133.42 14.9139 132.427 15.1281 131.336 15.1281C129.909 15.1281 128.805 14.6738 128.027 13.7652C127.248 12.8566 126.858 11.5716 126.858 9.91017C126.858 8.23576 127.248 6.94426 128.027 6.03567C128.818 5.11409 129.928 4.65331 131.356 4.65331C132.355 4.65331 133.322 4.86747 134.257 5.29581V6.69764C133.361 6.30825 132.505 6.11354 131.687 6.11354C130.726 6.11354 130 6.43155 129.506 7.06757C129.013 7.70359 128.766 8.64463 128.766 9.8907C128.766 11.1238 129.013 12.0648 129.506 12.7138C130 13.3499 130.726 13.6679 131.687 13.6679C132.505 13.6679 133.381 13.4732 134.315 13.0838V14.4856Z" fill="white"/>
<path d="M125.379 14.4856C124.483 14.9139 123.491 15.1281 122.4 15.1281C120.972 15.1281 119.869 14.6738 119.09 13.7652C118.312 12.8566 117.922 11.5716 117.922 9.91017C117.922 8.23576 118.312 6.94426 119.09 6.03567C119.882 5.11409 120.992 4.65331 122.42 4.65331C123.419 4.65331 124.386 4.86747 125.321 5.29581V6.69764C124.425 6.30825 123.568 6.11354 122.751 6.11354C121.79 6.11354 121.063 6.43155 120.57 7.06757C120.077 7.70359 119.83 8.64463 119.83 9.8907C119.83 11.1238 120.077 12.0648 120.57 12.7138C121.063 13.3499 121.79 13.6679 122.751 13.6679C123.568 13.6679 124.445 13.4732 125.379 13.0838V14.4856Z" fill="white"/>
<path d="M114.181 14.875L114.064 14.1935C112.974 14.8166 111.916 15.1281 110.89 15.1281C109.865 15.1281 109.047 14.8555 108.437 14.3104C107.84 13.7522 107.542 13.0059 107.542 12.0713C107.542 11.0978 107.879 10.345 108.554 9.81282C109.229 9.26767 110.176 8.99509 111.397 8.99509C112.11 8.99509 112.935 9.07946 113.869 9.2482V8.21629C113.869 7.5024 113.662 6.97022 113.246 6.61976C112.844 6.2693 112.221 6.09407 111.377 6.09407C110.391 6.09407 109.313 6.32122 108.145 6.77552V5.35422C108.69 5.13356 109.281 4.96482 109.917 4.848C110.553 4.7182 111.156 4.65331 111.728 4.65331C113.013 4.65331 113.986 4.95184 114.648 5.54892C115.323 6.146 115.66 7.02214 115.66 8.17735V14.7192L114.181 14.875ZM111.358 13.7068C111.734 13.7068 112.156 13.6419 112.623 13.5121C113.09 13.3823 113.506 13.2136 113.869 13.0059V10.5137C113.259 10.358 112.539 10.2801 111.708 10.2801C110.929 10.2801 110.352 10.4294 109.975 10.7279C109.612 11.0135 109.43 11.4483 109.43 12.0324C109.43 13.1487 110.073 13.7068 111.358 13.7068Z" fill="white"/>
<path d="M95.5987 19.4309C94.3786 19.4309 93.3597 19.2233 92.542 18.8079L92.3278 17.3087C93.3662 17.763 94.4046 17.9902 95.443 17.9902C97.4289 17.9902 98.4219 17.0946 98.4219 15.3033V14.1741C97.4484 14.6933 96.5333 14.9529 95.6766 14.9529C94.4046 14.9529 93.4051 14.518 92.6783 13.6484C91.9644 12.7787 91.6074 11.5781 91.6074 10.0465C91.6074 8.30715 92.0487 6.97671 92.9314 6.05514C93.814 5.12058 95.0731 4.65331 96.7085 4.65331C97.2277 4.65331 97.7988 4.7182 98.4219 4.848C99.0579 4.96482 99.6679 5.12707 100.252 5.33475V15.0697C100.252 16.4715 99.8497 17.5489 99.0449 18.3017C98.2402 19.0545 97.0914 19.4309 95.5987 19.4309ZM96.105 13.5121C96.4554 13.5121 96.8383 13.4537 97.2537 13.3369C97.682 13.2071 98.0714 13.0383 98.4219 12.8307V6.30824C97.8767 6.15248 97.2991 6.07461 96.6891 6.07461C95.6247 6.07461 94.8264 6.3991 94.2943 7.0481C93.7751 7.6971 93.5155 8.68357 93.5155 10.0075C93.5155 11.1627 93.7296 12.0389 94.158 12.636C94.5993 13.2201 95.2483 13.5121 96.105 13.5121Z" fill="white"/>
<path d="M87.5103 14.8361V8.17735C87.5103 6.7885 86.8224 6.09407 85.4465 6.09407C85.0831 6.09407 84.6742 6.15898 84.2199 6.28878C83.7786 6.4056 83.3762 6.56784 83.0128 6.77552V14.8361H81.1826V5.06217L82.6623 4.90641L82.7791 5.58786C83.8435 4.96482 84.9014 4.65331 85.9527 4.65331C87.0301 4.65331 87.8608 4.93886 88.4449 5.50998C89.042 6.06812 89.3405 6.86638 89.3405 7.90477V14.8361H87.5103Z" fill="white"/>
<path d="M76.3912 14.8361V5.10111L78.2213 4.88694V14.8361H76.3912ZM77.3063 2.92049C76.9298 2.92049 76.6313 2.82314 76.4106 2.62844C76.203 2.42076 76.0991 2.14169 76.0991 1.79123C76.0991 1.44078 76.203 1.1682 76.4106 0.973497C76.6313 0.765818 76.9298 0.66198 77.3063 0.66198C77.6827 0.66198 77.9747 0.765818 78.1824 0.973497C78.4031 1.1682 78.5134 1.44078 78.5134 1.79123C78.5134 2.14169 78.4031 2.42076 78.1824 2.62844C77.9747 2.82314 77.6827 2.92049 77.3063 2.92049Z" fill="white"/>
<path d="M66.6943 14.836V0.214169L68.5245 0V9.18978L72.5937 4.94535H74.6965L70.2768 9.54024L74.9106 14.836H72.6911L68.5245 9.98805V14.836H66.6943Z" fill="white"/>
<path d="M64.4406 14.4856C63.545 14.9139 62.552 15.1281 61.4617 15.1281C60.0339 15.1281 58.9306 14.6738 58.1518 13.7652C57.373 12.8566 56.9836 11.5716 56.9836 9.91017C56.9836 8.23576 57.373 6.94426 58.1518 6.03567C58.9436 5.11409 60.0534 4.65331 61.4812 4.65331C62.4806 4.65331 63.4476 4.86747 64.3822 5.29581V6.69764C63.4866 6.30825 62.6299 6.11354 61.8122 6.11354C60.8517 6.11354 60.1248 6.43155 59.6315 7.06757C59.1383 7.70359 58.8917 8.64463 58.8917 9.8907C58.8917 11.1238 59.1383 12.0648 59.6315 12.7138C60.1248 13.3499 60.8517 13.6679 61.8122 13.6679C62.6299 13.6679 63.5061 13.4732 64.4406 13.0838V14.4856Z" fill="white"/>
<path d="M54.7362 14.4661C53.8406 14.9074 52.8411 15.1281 51.7378 15.1281C50.1283 15.1281 48.9017 14.6803 48.058 13.7847C47.2143 12.8891 46.7925 11.5781 46.7925 9.85176C46.7925 8.78741 46.9807 7.86584 47.3571 7.08704C47.7335 6.29526 48.2592 5.6917 48.9342 5.27634C49.6091 4.86098 50.3814 4.65331 51.2511 4.65331C52.4712 4.65331 53.4317 5.01674 54.1326 5.74362C54.8335 6.47049 55.184 7.47644 55.184 8.76145C55.184 9.26766 55.1386 9.7674 55.0477 10.2606H48.6032C48.6421 12.5581 49.7584 13.7068 51.952 13.7068C52.8995 13.7068 53.8276 13.4991 54.7362 13.0838V14.4661ZM51.2511 5.99673C50.4982 5.99673 49.8817 6.26281 49.4014 6.79499C48.9342 7.32717 48.6681 8.04755 48.6032 8.95615H53.4901C53.5031 8.89125 53.5096 8.82635 53.5096 8.76145C53.5096 8.69655 53.5096 8.63165 53.5096 8.56675C53.5096 7.76199 53.3084 7.13247 52.906 6.67817C52.5166 6.22388 51.965 5.99673 51.2511 5.99673Z" fill="white"/>
<path d="M36.3677 14.836V0.214169L38.1978 0V5.45156C39.1973 4.91939 40.1773 4.6533 41.1378 4.6533C42.2151 4.6533 43.0458 4.93886 43.6299 5.50998C44.227 6.06811 44.5256 6.86638 44.5256 7.90477V14.836H42.6954V8.17735C42.6954 6.7885 42.0075 6.09407 40.6316 6.09407C40.2681 6.09407 39.8593 6.15897 39.405 6.28877C38.9637 6.40559 38.5613 6.56784 38.1978 6.77552V14.836H36.3677Z" fill="white"/>
<path d="M34.1139 14.4856C33.2183 14.9139 32.2254 15.1281 31.1351 15.1281C29.7073 15.1281 28.604 14.6738 27.8252 13.7652C27.0464 12.8566 26.657 11.5716 26.657 9.91017C26.657 8.23576 27.0464 6.94426 27.8252 6.03567C28.6169 5.11409 29.7267 4.65331 31.1545 4.65331C32.154 4.65331 33.121 4.86747 34.0555 5.29581V6.69764C33.1599 6.30825 32.3032 6.11354 31.4855 6.11354C30.525 6.11354 29.7981 6.43155 29.3049 7.06757C28.8116 7.70359 28.565 8.64463 28.565 9.8907C28.565 11.1238 28.8116 12.0648 29.3049 12.7138C29.7981 13.3499 30.525 13.6679 31.4855 13.6679C32.3032 13.6679 33.1794 13.4732 34.1139 13.0838V14.4856Z" fill="white"/>
<path d="M17.6925 14.8361V8.17735C17.6925 6.7885 17.0045 6.09407 15.6286 6.09407C15.2652 6.09407 14.8563 6.15898 14.402 6.28878C13.9607 6.4056 13.5584 6.56784 13.1949 6.77552V14.8361H11.3647V5.06217L12.8445 4.90641L12.9613 5.58786C14.0256 4.96482 15.0835 4.65331 16.1349 4.65331C17.2122 4.65331 18.0429 4.93886 18.627 5.50998C19.2241 6.06812 19.5226 6.86638 19.5226 7.90477V14.8361H17.6925Z" fill="white"/>
<path d="M4.49754 13.6873C5.40614 13.6873 6.06162 13.3888 6.464 12.7917C6.87936 12.1946 7.08704 11.2276 7.08704 9.8907C7.08704 8.55377 6.87936 7.58677 6.464 6.98969C6.06162 6.39261 5.40614 6.09407 4.49754 6.09407C3.58895 6.09407 2.92697 6.39261 2.51161 6.98969C2.10924 7.58677 1.90805 8.55377 1.90805 9.8907C1.90805 11.2276 2.10924 12.1946 2.51161 12.7917C2.92697 13.3888 3.58895 13.6873 4.49754 13.6873ZM4.49754 15.1281C3.01783 15.1281 1.89507 14.6868 1.12925 13.8041C0.376418 12.9085 0 11.6041 0 9.8907C0 8.17735 0.376418 6.87936 1.12925 5.99673C1.89507 5.10111 3.01783 4.65331 4.49754 4.65331C5.97725 4.65331 7.09353 5.10111 7.84636 5.99673C8.61218 6.87936 8.99508 8.17735 8.99508 9.8907C8.99508 11.6041 8.61218 12.9085 7.84636 13.8041C7.09353 14.6868 5.97725 15.1281 4.49754 15.1281Z" fill="white"/>
</svg>
