<svg width="48" height="24" viewBox="0 0 48 24" fill="none" xmlns="http://www.w3.org/2000/svg">
<path d="M45.6296 10.4888C45.5937 9.46226 45.0914 8.7657 44.0509 8.7657C41.5395 8.7657 38.8845 13.7882 38.4181 15.8046C42.5082 15.8046 45.7372 13.3116 45.6296 10.4888ZM46.1677 18.3708L46.67 18.7008C45.4502 21.2304 42.9387 23.2834 40.0326 23.2834C37.6288 23.2834 35.6914 21.6703 35.5838 18.5908C35.4044 13.0917 40.4273 8.03249 44.5173 8.03249C46.2754 8.03249 47.9257 8.80236 47.9975 10.7454C48.141 15.108 42.1494 16.4278 38.2028 16.5378C38.0593 16.9777 38.0235 17.4543 38.0593 18.1509C38.1311 19.9473 39.2074 21.487 41.396 21.487C43.2975 21.487 45.199 19.9106 46.1677 18.3708Z" fill="white"/>
<path d="M21.6273 10.3421C22.0578 10.2688 22.7395 10.1955 23.0265 10.1955C23.493 10.1955 23.8876 10.2688 23.9235 10.7454C23.9235 11.002 23.4571 12.945 23.3494 13.4216L22.3808 17.7109C21.9861 19.4707 21.5914 21.3037 21.1968 22.7701H23.6365L24.9998 15.9512C29.1975 11.4786 30.812 10.0122 31.8166 10.0122C32.2471 10.0122 32.5701 10.2688 32.6059 10.782C32.6418 11.5519 32.1395 13.3483 31.996 13.8616L30.5968 18.8474C30.2739 19.9473 30.0586 20.9738 30.0586 21.707C30.0945 22.8068 30.7403 23.2834 31.709 23.2834C33.5029 23.2834 34.7945 21.377 35.9426 19.5073L35.6197 18.8841C35.1533 19.654 34.1128 21.267 33.2517 21.267C33.0006 21.267 32.7494 21.0837 32.7136 20.6438C32.6777 20.0572 32.9288 19.1774 33.1082 18.6275L34.6868 12.7984C35.1174 11.1853 35.2968 10.1588 35.2968 9.6089C35.2609 8.50908 34.651 8.03249 33.6823 8.03249C32.0678 8.03249 29.9151 9.24229 25.3945 14.5581H25.3227L25.8968 11.9552C26.2197 10.5254 26.5067 9.05899 26.7937 8.03249C25.2151 8.61906 22.9907 9.24229 21.5914 9.53558L21.6273 10.3421Z" fill="white"/>
<path d="M3.83162 14.8148C3.97513 18.8108 6.41482 22.0736 9.64383 22.0736C15.8866 22.0736 18.5415 14.2282 18.3621 8.98568C18.2186 4.98965 15.7072 1.72684 12.4782 1.72684C7.13238 1.72684 3.65223 9.53559 3.83162 14.8148ZM0.530853 14.5948C0.315586 7.77588 5.51787 0.810318 13.124 0.810318C18.1827 0.810318 21.5194 4.25643 21.6988 9.57225C21.9499 16.7578 17.0705 23.3567 9.10566 23.3567C4.04689 23.3567 0.74612 19.9106 0.530853 14.5948Z" fill="white"/>
</svg>
