<svg width="616" height="28" viewBox="0 0 616 28" fill="none" xmlns="http://www.w3.org/2000/svg">
<path d="M604.895 18.732C606.388 19.3854 607.881 19.712 609.375 19.712C610.457 19.712 611.279 19.5067 611.839 19.096C612.417 18.6854 612.707 18.0974 612.707 17.332C612.707 16.828 612.548 16.4173 612.231 16.1C611.913 15.7827 611.391 15.512 610.663 15.288L608.759 14.7C607.489 14.308 606.565 13.804 605.987 13.188C605.408 12.572 605.119 11.788 605.119 10.836C605.119 9.56668 605.613 8.55868 606.603 7.81202C607.592 7.06535 608.927 6.69202 610.607 6.69202C612.025 6.69202 613.379 6.97202 614.667 7.53202V9.54802C613.248 9.00668 611.951 8.73602 610.775 8.73602C609.823 8.73602 609.076 8.92268 608.535 9.29602C608.012 9.65068 607.751 10.136 607.751 10.752C607.751 11.2 607.891 11.5547 608.171 11.816C608.451 12.0587 608.973 12.3014 609.739 12.544L611.867 13.188C614.181 13.8787 615.339 15.2507 615.339 17.304C615.339 18.7414 614.844 19.8427 613.854 20.608C612.865 21.3733 611.437 21.756 609.57 21.756C607.834 21.756 606.379 21.4667 605.203 20.888L604.895 18.732Z" fill="white"/>
<path d="M599.503 21.392L599.335 20.412C597.805 21.308 596.283 21.756 594.771 21.756C593.259 21.756 592.083 21.3453 591.243 20.524C590.403 19.7027 589.983 18.5547 589.983 17.08V7.112H592.615V16.688C592.615 18.6853 593.577 19.684 595.499 19.684C596.041 19.684 596.629 19.6 597.263 19.432C597.898 19.2453 598.477 19.0027 598.999 18.704V7.112H601.631V21.168L599.503 21.392Z" fill="white"/>
<path d="M583.261 21.336V0.307999L585.893 0V21.336H583.261Z" fill="white"/>
<path d="M566.945 21.336V2.15598C567.823 1.96931 568.803 1.81998 569.885 1.70798C570.987 1.59598 571.929 1.53998 572.713 1.53998C575.028 1.53998 576.829 2.08131 578.117 3.16398C579.424 4.24664 580.077 5.74931 580.077 7.67198C580.077 9.59464 579.396 11.116 578.033 12.236C576.689 13.3373 574.841 13.888 572.489 13.888H569.633V21.336H566.945ZM572.545 3.63998C571.687 3.63998 570.716 3.73331 569.633 3.91998V11.788H572.461C573.992 11.788 575.168 11.4333 575.989 10.724C576.829 10.0146 577.249 9.00664 577.249 7.69998C577.249 6.37464 576.848 5.36664 576.045 4.67598C575.261 3.98531 574.095 3.63998 572.545 3.63998Z" fill="white"/>
<path d="M543.749 21.336V0.307999L546.381 0V7.84C547.818 7.07467 549.228 6.692 550.609 6.692C552.158 6.692 553.353 7.10267 554.193 7.924C555.052 8.72667 555.481 9.87467 555.481 11.368V21.336H552.849V11.76C552.849 9.76267 551.86 8.764 549.881 8.764C549.358 8.764 548.77 8.85733 548.117 9.044C547.482 9.212 546.904 9.44533 546.381 9.744V21.336H543.749Z" fill="white"/>
<path d="M530.027 18.732C531.521 19.3854 533.014 19.712 534.507 19.712C535.59 19.712 536.411 19.5067 536.971 19.096C537.55 18.6854 537.839 18.0974 537.839 17.332C537.839 16.828 537.681 16.4173 537.363 16.1C537.046 15.7827 536.523 15.512 535.795 15.288L533.891 14.7C532.622 14.308 531.698 13.804 531.119 13.188C530.541 12.572 530.251 11.788 530.251 10.836C530.251 9.56668 530.746 8.55868 531.735 7.81202C532.725 7.06535 534.059 6.69202 535.739 6.69202C537.158 6.69202 538.511 6.97202 539.799 7.53202V9.54802C538.381 9.00668 537.083 8.73602 535.907 8.73602C534.955 8.73602 534.209 8.92268 533.667 9.29602C533.145 9.65068 532.883 10.136 532.883 10.752C532.883 11.2 533.023 11.5547 533.303 11.816C533.583 12.0587 534.106 12.3014 534.871 12.544L536.999 13.188C539.314 13.8787 540.471 15.2507 540.471 17.304C540.471 18.7414 539.977 19.8427 538.987 20.608C537.998 21.3733 536.57 21.756 534.703 21.756C532.967 21.756 531.511 21.4667 530.335 20.888L530.027 18.732Z" fill="white"/>
<path d="M524.787 21.392L524.619 20.412C523.051 21.308 521.529 21.756 520.055 21.756C518.58 21.756 517.404 21.364 516.527 20.58C515.668 19.7773 515.239 18.704 515.239 17.36C515.239 15.96 515.724 14.8773 516.695 14.112C517.665 13.328 519.028 12.936 520.783 12.936C521.809 12.936 522.995 13.0573 524.339 13.3V11.816C524.339 10.7893 524.04 10.024 523.443 9.51999C522.864 9.01599 521.968 8.76399 520.755 8.76399C519.336 8.76399 517.787 9.09065 516.107 9.74399V7.69999C516.891 7.38265 517.74 7.13999 518.655 6.97199C519.569 6.78532 520.437 6.69199 521.259 6.69199C523.107 6.69199 524.507 7.12132 525.459 7.97999C526.429 8.83865 526.915 10.0987 526.915 11.76V21.168L524.787 21.392ZM520.727 19.712C521.268 19.712 521.875 19.6187 522.547 19.432C523.219 19.2453 523.816 19.0027 524.339 18.704V15.12C523.461 14.896 522.425 14.784 521.231 14.784C520.111 14.784 519.28 14.9987 518.739 15.428C518.216 15.8387 517.955 16.464 517.955 17.304C517.955 18.9093 518.879 19.712 520.727 19.712Z" fill="white"/>
<path d="M512.552 20.524C510.965 21.3453 509.22 21.756 507.316 21.756C504.703 21.756 502.677 20.86 501.24 19.068C499.803 17.276 499.084 14.7653 499.084 11.536C499.084 8.32534 499.803 5.82401 501.24 4.03201C502.696 2.22134 504.721 1.31601 507.316 1.31601C509.127 1.31601 510.844 1.72668 512.468 2.54801V4.76001C511.609 4.33068 510.816 4.03201 510.088 3.86401C509.36 3.67734 508.585 3.58401 507.764 3.58401C503.919 3.58401 501.996 6.23468 501.996 11.536C501.996 16.8373 503.919 19.488 507.764 19.488C508.604 19.488 509.397 19.3947 510.144 19.208C510.909 19.0213 511.712 18.7227 512.552 18.312V20.524Z" fill="white"/>
<path d="M478.698 21.336V0.307999L481.33 0V13.216L487.182 7.112H490.206L483.85 13.72L490.514 21.336H487.322L481.33 14.364V21.336H478.698Z" fill="white"/>
<path d="M468.472 21.336V7.28L470.6 7.056L470.824 8.344C472.056 7.29867 473.372 6.776 474.772 6.776C475.201 6.776 475.63 6.84133 476.06 6.972V9.128C475.612 9.016 475.154 8.96 474.688 8.96C473.344 8.96 472.149 9.38 471.104 10.22V21.336H468.472Z" fill="white"/>
<path d="M462.252 21.392L462.084 20.412C460.516 21.308 458.994 21.756 457.52 21.756C456.045 21.756 454.869 21.364 453.992 20.58C453.133 19.7773 452.704 18.704 452.704 17.36C452.704 15.96 453.189 14.8773 454.16 14.112C455.13 13.328 456.493 12.936 458.248 12.936C459.274 12.936 460.46 13.0573 461.804 13.3V11.816C461.804 10.7893 461.505 10.024 460.908 9.51999C460.329 9.01599 459.433 8.76399 458.22 8.76399C456.801 8.76399 455.252 9.09065 453.572 9.74399V7.69999C454.356 7.38265 455.205 7.13999 456.12 6.97199C457.034 6.78532 457.902 6.69199 458.724 6.69199C460.572 6.69199 461.972 7.12132 462.924 7.97999C463.894 8.83865 464.38 10.0987 464.38 11.76V21.168L462.252 21.392ZM458.192 19.712C458.733 19.712 459.34 19.6187 460.012 19.432C460.684 19.2453 461.281 19.0027 461.804 18.704V15.12C460.926 14.896 459.89 14.784 458.696 14.784C457.576 14.784 456.745 14.9987 456.204 15.428C455.681 15.8387 455.42 16.464 455.42 17.304C455.42 18.9093 456.344 19.712 458.192 19.712Z" fill="white"/>
<path d="M437.628 27.664V7.28002L439.756 7.05602L439.924 8.03602C441.399 7.14002 442.827 6.69202 444.208 6.69202C446.037 6.69202 447.465 7.34535 448.492 8.65202C449.537 9.94002 450.06 11.7227 450.06 14C450.06 16.464 449.453 18.3773 448.24 19.74C447.027 21.084 445.319 21.756 443.116 21.756C442.052 21.756 441.1 21.6253 440.26 21.364V27.356L437.628 27.664ZM443.592 8.76402C443.088 8.76402 442.528 8.85735 441.912 9.04402C441.315 9.21202 440.764 9.44535 440.26 9.74402V19.376C441.044 19.6 441.875 19.712 442.752 19.712C444.283 19.712 445.421 19.2453 446.168 18.312C446.933 17.3787 447.316 15.96 447.316 14.056C447.316 12.32 446.999 11.004 446.364 10.108C445.748 9.21202 444.824 8.76402 443.592 8.76402Z" fill="white"/>
<path d="M421.251 18.2C423.155 19.1147 425.041 19.572 426.907 19.572C428.401 19.572 429.558 19.2547 430.379 18.62C431.201 17.9853 431.611 17.08 431.611 15.904C431.611 15.0453 431.35 14.3453 430.827 13.804C430.305 13.2627 429.427 12.796 428.195 12.404L426.347 11.816C424.686 11.2933 423.482 10.64 422.735 9.85601C422.007 9.05334 421.643 8.04534 421.643 6.83201C421.643 5.15201 422.269 3.81734 423.519 2.82801C424.77 1.82001 426.45 1.31601 428.559 1.31601C430.314 1.31601 432.003 1.68001 433.627 2.40801V4.56401C431.91 3.85468 430.305 3.50001 428.811 3.50001C427.467 3.50001 426.403 3.78934 425.619 4.36801C424.854 4.92801 424.471 5.70268 424.471 6.69201C424.471 7.42001 424.686 7.99868 425.115 8.42801C425.563 8.85734 426.329 9.24934 427.411 9.60401L429.259 10.192C431.107 10.7893 432.433 11.536 433.235 12.432C434.038 13.3093 434.439 14.4573 434.439 15.876C434.439 17.724 433.795 19.1707 432.507 20.216C431.219 21.2427 429.437 21.756 427.159 21.756C425.087 21.756 423.249 21.364 421.643 20.58L421.251 18.2Z" fill="white"/>
<path d="M399.483 21.336V0.307999L402.115 0V7.84C403.553 7.07467 404.962 6.692 406.343 6.692C407.893 6.692 409.087 7.10267 409.927 7.924C410.786 8.72667 411.215 9.87467 411.215 11.368V21.336H408.583V11.76C408.583 9.76267 407.594 8.764 405.615 8.764C405.093 8.764 404.505 8.85733 403.851 9.044C403.217 9.212 402.638 9.44533 402.115 9.744V21.336H399.483Z" fill="white"/>
<path d="M392.559 9.016V17.192C392.559 18.032 392.746 18.6573 393.119 19.068C393.493 19.46 394.062 19.656 394.827 19.656C395.406 19.656 396.022 19.5533 396.675 19.348V21.224C395.891 21.5227 395.079 21.672 394.239 21.672C392.821 21.672 391.747 21.2987 391.019 20.552C390.291 19.8053 389.927 18.7133 389.927 17.276V9.016H387.799V7.224L390.039 7.14L390.235 3.584L392.559 3.332V7.112H396.535V9.016H392.559Z" fill="white"/>
<path d="M382.448 21.336V7.336L385.08 7.028V21.336H382.448ZM383.764 4.2C383.223 4.2 382.794 4.06 382.476 3.78C382.178 3.48133 382.028 3.08 382.028 2.576C382.028 2.072 382.178 1.68 382.476 1.4C382.794 1.10133 383.223 0.951996 383.764 0.951996C384.306 0.951996 384.726 1.10133 385.024 1.4C385.342 1.68 385.5 2.072 385.5 2.576C385.5 3.08 385.342 3.48133 385.024 3.78C384.726 4.06 384.306 4.2 383.764 4.2Z" fill="white"/>
<path d="M373.285 21.336L369.953 9.884L366.733 21.336H364.325L359.873 7.112H362.533L365.585 18.144L368.609 7.112H371.381L374.461 18.144L377.485 7.112H380.061L375.693 21.336H373.285Z" fill="white"/>
<path d="M340.804 21.336V0.307999L343.436 0V13.216L349.288 7.112H352.312L345.956 13.72L352.62 21.336H349.428L343.436 14.364V21.336H340.804Z" fill="white"/>
<path d="M337.563 20.832C336.275 21.448 334.847 21.756 333.279 21.756C331.226 21.756 329.639 21.1027 328.519 19.796C327.399 18.4893 326.839 16.6413 326.839 14.252C326.839 11.844 327.399 9.98665 328.519 8.67999C329.658 7.35465 331.254 6.69199 333.307 6.69199C334.744 6.69199 336.135 6.99999 337.479 7.61599V9.63199C336.191 9.07199 334.959 8.79199 333.783 8.79199C332.402 8.79199 331.356 9.24932 330.647 10.164C329.938 11.0787 329.583 12.432 329.583 14.224C329.583 15.9973 329.938 17.3507 330.647 18.284C331.356 19.1987 332.402 19.656 333.783 19.656C334.959 19.656 336.219 19.376 337.563 18.816V20.832Z" fill="white"/>
<path d="M321.459 21.392L321.291 20.412C319.723 21.308 318.201 21.756 316.727 21.756C315.252 21.756 314.076 21.364 313.199 20.58C312.34 19.7773 311.911 18.704 311.911 17.36C311.911 15.96 312.396 14.8773 313.367 14.112C314.337 13.328 315.7 12.936 317.455 12.936C318.481 12.936 319.667 13.0573 321.011 13.3V11.816C321.011 10.7893 320.712 10.024 320.115 9.51999C319.536 9.01599 318.64 8.76399 317.427 8.76399C316.008 8.76399 314.459 9.09065 312.779 9.74399V7.69999C313.563 7.38265 314.412 7.13999 315.327 6.97199C316.241 6.78532 317.109 6.69199 317.931 6.69199C319.779 6.69199 321.179 7.12132 322.131 7.97999C323.101 8.83865 323.587 10.0987 323.587 11.76V21.168L321.459 21.392ZM317.399 19.712C317.94 19.712 318.547 19.6187 319.219 19.432C319.891 19.2453 320.488 19.0027 321.011 18.704V15.12C320.133 14.896 319.097 14.784 317.903 14.784C316.783 14.784 315.952 14.9987 315.411 15.428C314.888 15.8387 314.627 16.464 314.627 17.304C314.627 18.9093 315.551 19.712 317.399 19.712Z" fill="white"/>
<path d="M299.467 7.812C300.867 7.06533 302.183 6.692 303.415 6.692C305.244 6.692 306.672 7.34533 307.699 8.652C308.744 9.94 309.267 11.7227 309.267 14C309.267 16.5013 308.632 18.424 307.363 19.768C306.094 21.0933 304.283 21.756 301.931 21.756C300.251 21.756 298.552 21.5133 296.835 21.028V0.307999L299.467 0V7.812ZM302.799 8.764C302.295 8.764 301.735 8.85733 301.119 9.044C300.522 9.212 299.971 9.44533 299.467 9.744V19.376C300.251 19.6 301.082 19.712 301.959 19.712C303.49 19.712 304.628 19.2453 305.375 18.312C306.14 17.3787 306.523 15.96 306.523 14.056C306.523 12.32 306.206 11.004 305.571 10.108C304.955 9.212 304.031 8.764 302.799 8.764Z" fill="white"/>
<path d="M274.003 21.336V0.307999L276.635 0V7.84C278.072 7.07467 279.482 6.692 280.863 6.692C282.412 6.692 283.607 7.10267 284.447 7.924C285.306 8.72667 285.735 9.87467 285.735 11.368V21.336H283.103V11.76C283.103 9.76267 282.114 8.764 280.135 8.764C279.612 8.764 279.024 8.85733 278.371 9.044C277.736 9.212 277.158 9.44533 276.635 9.744V21.336H274.003Z" fill="white"/>
<path d="M260.281 18.732C261.775 19.3854 263.268 19.712 264.761 19.712C265.844 19.712 266.665 19.5067 267.225 19.096C267.804 18.6854 268.093 18.0974 268.093 17.332C268.093 16.828 267.935 16.4173 267.617 16.1C267.3 15.7827 266.777 15.512 266.049 15.288L264.145 14.7C262.876 14.308 261.952 13.804 261.373 13.188C260.795 12.572 260.505 11.788 260.505 10.836C260.505 9.56668 261 8.55868 261.989 7.81202C262.979 7.06535 264.313 6.69202 265.993 6.69202C267.412 6.69202 268.765 6.97202 270.053 7.53202V9.54802C268.635 9.00668 267.337 8.73602 266.161 8.73602C265.209 8.73602 264.463 8.92268 263.921 9.29602C263.399 9.65068 263.137 10.136 263.137 10.752C263.137 11.2 263.277 11.5547 263.557 11.816C263.837 12.0587 264.36 12.3014 265.125 12.544L267.253 13.188C269.568 13.8787 270.725 15.2507 270.725 17.304C270.725 18.7414 270.231 19.8427 269.241 20.608C268.252 21.3733 266.824 21.756 264.957 21.756C263.221 21.756 261.765 21.4667 260.589 20.888L260.281 18.732Z" fill="white"/>
<path d="M255.041 21.392L254.873 20.412C253.305 21.308 251.783 21.756 250.309 21.756C248.834 21.756 247.658 21.364 246.781 20.58C245.922 19.7773 245.493 18.704 245.493 17.36C245.493 15.96 245.978 14.8773 246.949 14.112C247.919 13.328 249.282 12.936 251.037 12.936C252.063 12.936 253.249 13.0573 254.593 13.3V11.816C254.593 10.7893 254.294 10.024 253.697 9.51999C253.118 9.01599 252.222 8.76399 251.009 8.76399C249.59 8.76399 248.041 9.09065 246.361 9.74399V7.69999C247.145 7.38265 247.994 7.13999 248.909 6.97199C249.823 6.78532 250.691 6.69199 251.513 6.69199C253.361 6.69199 254.761 7.12132 255.713 7.97999C256.683 8.83865 257.169 10.0987 257.169 11.76V21.168L255.041 21.392ZM250.981 19.712C251.522 19.712 252.129 19.6187 252.801 19.432C253.473 19.2453 254.07 19.0027 254.593 18.704V15.12C253.715 14.896 252.679 14.784 251.485 14.784C250.365 14.784 249.534 14.9987 248.993 15.428C248.47 15.8387 248.209 16.464 248.209 17.304C248.209 18.9093 249.133 19.712 250.981 19.712Z" fill="white"/>
<path d="M243.036 20.832C241.748 21.448 240.32 21.756 238.752 21.756C236.698 21.756 235.112 21.1027 233.992 19.796C232.872 18.4893 232.312 16.6413 232.312 14.252C232.312 11.844 232.872 9.98665 233.992 8.67999C235.13 7.35465 236.726 6.69199 238.78 6.69199C240.217 6.69199 241.608 6.99999 242.952 7.61599V9.63199C241.664 9.07199 240.432 8.79199 239.256 8.79199C237.874 8.79199 236.829 9.24932 236.12 10.164C235.41 11.0787 235.056 12.432 235.056 14.224C235.056 15.9973 235.41 17.3507 236.12 18.284C236.829 19.1987 237.874 19.656 239.256 19.656C240.432 19.656 241.692 19.376 243.036 18.816V20.832Z" fill="white"/>
<path d="M204.931 21.336L214.983 2.15601H217.307L207.255 21.336H204.931ZM203.811 12.656C204.633 12.656 205.23 12.3013 205.603 11.592C205.977 10.864 206.163 9.69734 206.163 8.09201C206.163 6.48667 205.977 5.32934 205.603 4.62001C205.23 3.89201 204.633 3.52801 203.811 3.52801C202.99 3.52801 202.393 3.89201 202.019 4.62001C201.646 5.32934 201.459 6.48667 201.459 8.09201C201.459 9.69734 201.646 10.864 202.019 11.592C202.393 12.3013 202.99 12.656 203.811 12.656ZM203.811 14.308C202.299 14.308 201.142 13.776 200.339 12.712C199.537 11.6293 199.135 10.0893 199.135 8.09201C199.135 6.09467 199.537 4.56401 200.339 3.50001C201.142 2.41734 202.299 1.87601 203.811 1.87601C205.323 1.87601 206.481 2.41734 207.283 3.50001C208.086 4.56401 208.487 6.09467 208.487 8.09201C208.487 10.0893 208.086 11.6293 207.283 12.712C206.481 13.776 205.323 14.308 203.811 14.308ZM218.427 19.964C219.249 19.964 219.846 19.6093 220.219 18.9C220.593 18.172 220.779 17.0053 220.779 15.4C220.779 13.7947 220.593 12.6373 220.219 11.928C219.846 11.2 219.249 10.836 218.427 10.836C217.606 10.836 217.009 11.2 216.635 11.928C216.262 12.6373 216.075 13.7947 216.075 15.4C216.075 17.0053 216.262 18.172 216.635 18.9C217.009 19.6093 217.606 19.964 218.427 19.964ZM218.427 21.616C216.915 21.616 215.758 21.084 214.955 20.02C214.153 18.9373 213.751 17.3973 213.751 15.4C213.751 13.4027 214.153 11.872 214.955 10.808C215.758 9.72534 216.915 9.18401 218.427 9.18401C219.939 9.18401 221.097 9.72534 221.899 10.808C222.702 11.872 223.103 13.4027 223.103 15.4C223.103 17.3973 222.702 18.9373 221.899 20.02C221.097 21.084 219.939 21.616 218.427 21.616Z" fill="white"/>
<path d="M184.854 21.336C184.892 19.656 185.228 18.2 185.862 16.968C186.516 15.736 187.608 14.476 189.138 13.188L191.49 11.2C192.442 10.3973 193.124 9.67866 193.535 9.04399C193.945 8.40933 194.15 7.75599 194.15 7.08399C194.15 6.09466 193.787 5.31066 193.059 4.73199C192.349 4.15333 191.378 3.86399 190.146 3.86399C188.541 3.86399 186.973 4.42399 185.442 5.54399V3.38799C186.954 2.28666 188.737 1.73599 190.79 1.73599C192.004 1.73599 193.068 1.96933 193.982 2.43599C194.916 2.88399 195.634 3.50933 196.138 4.31199C196.642 5.09599 196.895 5.97333 196.895 6.94399C196.895 7.91466 196.633 8.82933 196.11 9.68799C195.606 10.528 194.738 11.4707 193.507 12.516L191.266 14.42C190.221 15.316 189.428 16.1373 188.886 16.884C188.345 17.6307 188 18.3773 187.85 19.124H194.346C195.429 19.124 196.362 19.096 197.146 19.04V21.336H184.854Z" fill="white"/>
<path d="M175.099 0V21.168L172.971 21.392L172.803 20.412C171.328 21.308 169.9 21.756 168.519 21.756C166.69 21.756 165.252 21.112 164.207 19.824C163.18 18.5173 162.667 16.7253 162.667 14.448C162.667 11.984 163.274 10.08 164.487 8.736C165.7 7.37333 167.408 6.692 169.611 6.692C170.675 6.692 171.627 6.82267 172.467 7.084V0.307999L175.099 0ZM169.135 19.684C169.639 19.684 170.19 19.6 170.787 19.432C171.403 19.2453 171.963 19.0027 172.467 18.704V9.072C171.683 8.848 170.852 8.736 169.975 8.736C168.444 8.736 167.296 9.20267 166.531 10.136C165.784 11.0693 165.411 12.488 165.411 14.392C165.411 16.128 165.719 17.444 166.335 18.34C166.97 19.236 167.903 19.684 169.135 19.684Z" fill="white"/>
<path d="M159.435 20.804C158.147 21.4387 156.709 21.756 155.123 21.756C152.808 21.756 151.044 21.112 149.831 19.824C148.617 18.536 148.011 16.6507 148.011 14.168C148.011 12.6373 148.281 11.312 148.823 10.192C149.364 9.05332 150.12 8.18532 151.091 7.58799C152.061 6.99065 153.172 6.69199 154.423 6.69199C156.177 6.69199 157.559 7.21465 158.567 8.25999C159.575 9.30532 160.079 10.752 160.079 12.6C160.079 13.328 160.013 14.0467 159.883 14.756H150.615C150.671 18.06 152.276 19.712 155.431 19.712C156.793 19.712 158.128 19.4133 159.435 18.816V20.804ZM154.423 8.62399C153.34 8.62399 152.453 9.00665 151.763 9.77199C151.091 10.5373 150.708 11.5733 150.615 12.88H157.643C157.661 12.7867 157.671 12.6933 157.671 12.6C157.671 12.5067 157.671 12.4133 157.671 12.32C157.671 11.1627 157.381 10.2573 156.803 9.60399C156.243 8.95065 155.449 8.62399 154.423 8.62399Z" fill="white"/>
<path d="M141.926 9.016V17.192C141.926 18.032 142.113 18.6573 142.486 19.068C142.86 19.46 143.429 19.656 144.194 19.656C144.773 19.656 145.389 19.5533 146.042 19.348V21.224C145.258 21.5227 144.446 21.672 143.606 21.672C142.188 21.672 141.114 21.2987 140.386 20.552C139.658 19.8053 139.294 18.7133 139.294 17.276V9.016H137.166V7.224L139.406 7.14L139.602 3.584L141.926 3.332V7.112H145.902V9.016H141.926Z" fill="white"/>
<path d="M131.816 21.336V7.336L134.448 7.028V21.336H131.816ZM133.132 4.2C132.59 4.2 132.161 4.06 131.844 3.78C131.545 3.48133 131.396 3.08 131.396 2.576C131.396 2.072 131.545 1.68 131.844 1.4C132.161 1.10133 132.59 0.951996 133.132 0.951996C133.673 0.951996 134.093 1.10133 134.392 1.4C134.709 1.68 134.868 2.072 134.868 2.576C134.868 3.08 134.709 3.48133 134.392 3.78C134.093 4.06 133.673 4.2 133.132 4.2Z" fill="white"/>
<path d="M125.1 21.336V11.452C125.1 9.65999 124.232 8.76399 122.496 8.76399C121.451 8.76399 120.349 9.10932 119.192 9.79998C119.285 10.2107 119.332 10.6213 119.332 11.032V21.336H116.7V11.452C116.7 9.65999 115.832 8.76399 114.096 8.76399C113.069 8.76399 112.015 9.09065 110.932 9.74399V21.336H108.3V7.27999L110.428 7.05598L110.596 8.03598C112.033 7.13999 113.443 6.69199 114.824 6.69199C116.429 6.69199 117.643 7.20532 118.464 8.23199C120.144 7.20532 121.731 6.69199 123.224 6.69199C124.624 6.69199 125.725 7.07465 126.528 7.83999C127.331 8.60532 127.732 9.66932 127.732 11.032V21.336H125.1Z" fill="white"/>
<path d="M101.41 21.336V7.336L104.042 7.028V21.336H101.41ZM102.726 4.2C102.184 4.2 101.755 4.06 101.438 3.78C101.139 3.48133 100.99 3.08 100.99 2.576C100.99 2.072 101.139 1.68 101.438 1.4C101.755 1.10133 102.184 0.951996 102.726 0.951996C103.267 0.951996 103.687 1.10133 103.986 1.4C104.303 1.68 104.462 2.072 104.462 2.576C104.462 3.08 104.303 3.48133 103.986 3.78C103.687 4.06 103.267 4.2 102.726 4.2Z" fill="white"/>
<path d="M94.5188 21.336V0.307999L97.1508 0V21.336H94.5188Z" fill="white"/>
<path d="M87.7868 21.336V11.76C87.7868 9.76265 86.7974 8.76399 84.8188 8.76399C84.2961 8.76399 83.7081 8.85732 83.0548 9.04399C82.4201 9.21199 81.8414 9.44532 81.3188 9.74399V21.336H78.6868V7.27999L80.8148 7.05598L80.9828 8.03598C82.5134 7.13999 84.0348 6.69199 85.5468 6.69199C87.0961 6.69199 88.2908 7.10265 89.1308 7.92399C89.9894 8.72665 90.4188 9.87465 90.4188 11.368V21.336H87.7868Z" fill="white"/>
<path d="M72.3161 21.392L72.1481 20.412C70.6175 21.308 69.0961 21.756 67.5841 21.756C66.0721 21.756 64.8961 21.3453 64.0561 20.524C63.2161 19.7027 62.7961 18.5547 62.7961 17.08V7.112H65.4281V16.688C65.4281 18.6853 66.3895 19.684 68.3121 19.684C68.8535 19.684 69.4415 19.6 70.0761 19.432C70.7108 19.2453 71.2895 19.0027 71.8121 18.704V7.112H74.4441V21.168L72.3161 21.392Z" fill="white"/>
<path d="M49.2321 21.336V11.76C49.2321 9.76265 48.2428 8.76399 46.2641 8.76399C45.7414 8.76399 45.1534 8.85732 44.5001 9.04399C43.8654 9.21199 43.2867 9.44532 42.7641 9.74399V21.336H40.1321V7.27999L42.2601 7.05598L42.4281 8.03598C43.9587 7.13999 45.4801 6.69199 46.9921 6.69199C48.5414 6.69199 49.7361 7.10265 50.5761 7.92399C51.4348 8.72665 51.8641 9.87465 51.8641 11.368V21.336H49.2321Z" fill="white"/>
<path d="M29.9055 21.336V7.28L32.0335 7.056L32.2575 8.344C33.4895 7.29867 34.8055 6.776 36.2055 6.776C36.6349 6.776 37.0642 6.84133 37.4935 6.972V9.128C37.0455 9.016 36.5882 8.96 36.1215 8.96C34.7775 8.96 33.5829 9.38 32.5375 10.22V21.336H29.9055Z" fill="white"/>
<path d="M23.6852 21.392L23.5172 20.412C21.9492 21.308 20.4279 21.756 18.9532 21.756C17.4785 21.756 16.3025 21.364 15.4252 20.58C14.5665 19.7773 14.1372 18.704 14.1372 17.36C14.1372 15.96 14.6225 14.8773 15.5932 14.112C16.5639 13.328 17.9265 12.936 19.6812 12.936C20.7079 12.936 21.8932 13.0573 23.2372 13.3V11.816C23.2372 10.7893 22.9385 10.024 22.3412 9.51999C21.7625 9.01599 20.8665 8.76399 19.6532 8.76399C18.2345 8.76399 16.6852 9.09065 15.0052 9.74399V7.69999C15.7892 7.38265 16.6385 7.13999 17.5532 6.97199C18.4679 6.78532 19.3359 6.69199 20.1572 6.69199C22.0052 6.69199 23.4052 7.12132 24.3572 7.97999C25.3279 8.83865 25.8132 10.0987 25.8132 11.76V21.168L23.6852 21.392ZM19.6252 19.712C20.1665 19.712 20.7732 19.6187 21.4452 19.432C22.1172 19.2453 22.7145 19.0027 23.2372 18.704V15.12C22.3599 14.896 21.3239 14.784 20.1292 14.784C19.0092 14.784 18.1785 14.9987 17.6372 15.428C17.1145 15.8387 16.8532 16.464 16.8532 17.304C16.8532 18.9093 17.7772 19.712 19.6252 19.712Z" fill="white"/>
<path d="M2.716 12.516V19.096H11.956V21.336H0V1.73599H11.9V3.97599H2.716V10.276H10.724V12.516H2.716Z" fill="white"/>
</svg>
