<svg width="314" height="17" viewBox="0 0 314 17" fill="none" xmlns="http://www.w3.org/2000/svg">
<path d="M305.024 16.291V0.235172L307.034 0V5.98621C308.132 5.40184 309.208 5.10966 310.262 5.10966C311.445 5.10966 312.358 5.42322 312.999 6.05034C313.655 6.66322 313.982 7.53977 313.982 8.68V16.291H311.973V8.97931C311.973 7.45425 311.217 6.69172 309.706 6.69172C309.307 6.69172 308.858 6.76299 308.36 6.90552C307.875 7.03379 307.433 7.21195 307.034 7.44V16.291H305.024Z" fill="white"/>
<path d="M299.737 6.88414V13.1269C299.737 13.7683 299.88 14.2458 300.165 14.5593C300.45 14.8586 300.885 15.0083 301.469 15.0083C301.911 15.0083 302.381 14.9299 302.88 14.7731V16.2055C302.281 16.4336 301.661 16.5476 301.02 16.5476C299.937 16.5476 299.117 16.2625 298.561 15.6924C298.006 15.1223 297.728 14.2885 297.728 13.191V6.88414H296.103V5.51587L297.813 5.45173L297.963 2.73656L299.737 2.54414V5.43035H302.773V6.88414H299.737Z" fill="white"/>
<path d="M292.017 16.291V5.60138L294.027 5.36621V16.291H292.017ZM293.022 3.2069C292.609 3.2069 292.281 3.1 292.039 2.88621C291.811 2.65816 291.697 2.35173 291.697 1.9669C291.697 1.58207 291.811 1.28276 292.039 1.06897C292.281 0.840921 292.609 0.726898 293.022 0.726898C293.436 0.726898 293.756 0.840921 293.984 1.06897C294.227 1.28276 294.348 1.58207 294.348 1.9669C294.348 2.35173 294.227 2.65816 293.984 2.88621C293.756 3.1 293.436 3.2069 293.022 3.2069Z" fill="white"/>
<path d="M285.021 16.291L282.477 7.5469L280.018 16.291H278.179L274.78 5.43035H276.811L279.141 13.8538L281.45 5.43035H283.567L285.919 13.8538L288.228 5.43035H290.195L286.859 16.291H285.021Z" fill="white"/>
<path d="M260.22 16.291V0.235172L262.229 0V10.091L266.698 5.43035H269.007L264.154 10.4759L269.242 16.291H266.805L262.229 10.9676V16.291H260.22Z" fill="white"/>
<path d="M257.745 15.9062C256.762 16.3766 255.671 16.6117 254.474 16.6117C252.906 16.6117 251.695 16.1129 250.84 15.1152C249.984 14.1175 249.557 12.7064 249.557 10.8821C249.557 9.04345 249.984 7.62529 250.84 6.62759C251.709 5.61563 252.928 5.10966 254.495 5.10966C255.593 5.10966 256.655 5.34483 257.681 5.81517V7.35448C256.698 6.9269 255.757 6.71311 254.859 6.71311C253.804 6.71311 253.006 7.0623 252.464 7.76069C251.923 8.45908 251.652 9.49241 251.652 10.8607C251.652 12.2147 251.923 13.248 252.464 13.9607C253.006 14.6591 253.804 15.0083 254.859 15.0083C255.757 15.0083 256.719 14.7945 257.745 14.3669V15.9062Z" fill="white"/>
<path d="M245.449 16.3338L245.321 15.5855C244.123 16.2697 242.962 16.6117 241.836 16.6117C240.71 16.6117 239.812 16.3124 239.142 15.7138C238.486 15.1009 238.158 14.2814 238.158 13.2552C238.158 12.1862 238.529 11.3595 239.27 10.7752C240.011 10.1766 241.052 9.87724 242.392 9.87724C243.175 9.87724 244.081 9.96989 245.107 10.1552V9.02207C245.107 8.23816 244.879 7.65379 244.423 7.26897C243.981 6.88414 243.297 6.69173 242.37 6.69173C241.287 6.69173 240.104 6.94115 238.821 7.44V5.87931C239.42 5.63701 240.068 5.45173 240.767 5.32345C241.465 5.18092 242.128 5.10966 242.755 5.10966C244.166 5.10966 245.235 5.43747 245.962 6.09311C246.703 6.74874 247.074 7.71081 247.074 8.97931V16.1628L245.449 16.3338ZM242.349 15.051C242.762 15.051 243.225 14.9798 243.738 14.8372C244.252 14.6947 244.708 14.5094 245.107 14.2814V11.5448C244.437 11.3738 243.646 11.2883 242.734 11.2883C241.878 11.2883 241.244 11.4522 240.831 11.78C240.432 12.0936 240.232 12.571 240.232 13.2124C240.232 14.4382 240.938 15.051 242.349 15.051Z" fill="white"/>
<path d="M228.657 5.96483C229.726 5.39471 230.731 5.10966 231.672 5.10966C233.069 5.10966 234.159 5.60851 234.943 6.60621C235.741 7.58966 236.14 8.9508 236.14 10.6897C236.14 12.5995 235.656 14.0676 234.686 15.0938C233.717 16.1057 232.335 16.6117 230.539 16.6117C229.256 16.6117 227.959 16.4264 226.648 16.0559V0.235172L228.657 0V5.96483ZM231.201 6.69172C230.817 6.69172 230.389 6.76299 229.919 6.90552C229.463 7.03379 229.042 7.21195 228.657 7.44V14.7945C229.256 14.9655 229.89 15.051 230.56 15.051C231.729 15.051 232.598 14.6947 233.168 13.9821C233.753 13.2694 234.045 12.1862 234.045 10.7324C234.045 9.4069 233.803 8.40207 233.318 7.71793C232.848 7.03379 232.142 6.69172 231.201 6.69172Z" fill="white"/>
<path d="M209.214 16.291V0.235172L211.224 0V5.98621C212.321 5.40184 213.398 5.10966 214.452 5.10966C215.635 5.10966 216.547 5.42322 217.189 6.05034C217.844 6.66322 218.172 7.53977 218.172 8.68V16.291H216.163V8.97931C216.163 7.45425 215.407 6.69172 213.896 6.69172C213.497 6.69172 213.048 6.76299 212.55 6.90552C212.065 7.03379 211.623 7.21195 211.224 7.44V16.291H209.214Z" fill="white"/>
<path d="M198.737 14.3028C199.877 14.8016 201.017 15.051 202.158 15.051C202.984 15.051 203.611 14.8943 204.039 14.5807C204.481 14.2671 204.702 13.8182 204.702 13.2338C204.702 12.849 204.58 12.5354 204.338 12.2931C204.096 12.0508 203.697 11.8441 203.141 11.6731L201.687 11.2241C200.718 10.9248 200.012 10.54 199.571 10.0697C199.129 9.59931 198.908 9.00069 198.908 8.27379C198.908 7.3046 199.286 6.53494 200.041 5.96483C200.796 5.39471 201.815 5.10966 203.098 5.10966C204.181 5.10966 205.215 5.32345 206.198 5.75104V7.29035C205.115 6.87701 204.124 6.67035 203.226 6.67035C202.5 6.67035 201.929 6.81288 201.516 7.09793C201.117 7.36874 200.917 7.73931 200.917 8.20966C200.917 8.55173 201.024 8.82253 201.238 9.02207C201.452 9.20736 201.851 9.39265 202.435 9.57793L204.06 10.0697C205.828 10.597 206.711 11.6446 206.711 13.2124C206.711 14.3099 206.334 15.1508 205.578 15.7352C204.823 16.3195 203.732 16.6117 202.307 16.6117C200.982 16.6117 199.87 16.3908 198.972 15.949L198.737 14.3028Z" fill="white"/>
<path d="M194.735 16.3338L194.607 15.5855C193.41 16.2697 192.248 16.6117 191.122 16.6117C189.996 16.6117 189.098 16.3124 188.429 15.7138C187.773 15.1009 187.445 14.2814 187.445 13.2552C187.445 12.1862 187.816 11.3595 188.557 10.7752C189.298 10.1766 190.338 9.87724 191.678 9.87724C192.462 9.87724 193.367 9.96989 194.393 10.1552V9.02207C194.393 8.23816 194.165 7.65379 193.709 7.26897C193.267 6.88414 192.583 6.69173 191.657 6.69173C190.574 6.69173 189.391 6.94115 188.108 7.44V5.87931C188.706 5.63701 189.355 5.45173 190.053 5.32345C190.752 5.18092 191.414 5.10966 192.042 5.10966C193.453 5.10966 194.522 5.43747 195.249 6.09311C195.99 6.74874 196.36 7.71081 196.36 8.97931V16.1628L194.735 16.3338ZM191.635 15.051C192.049 15.051 192.512 14.9798 193.025 14.8372C193.538 14.6947 193.994 14.5094 194.393 14.2814V11.5448C193.723 11.3738 192.932 11.2883 192.02 11.2883C191.165 11.2883 190.531 11.4522 190.117 11.78C189.718 12.0936 189.519 12.571 189.519 13.2124C189.519 14.4382 190.224 15.051 191.635 15.051Z" fill="white"/>
<path d="M185.569 15.9062C184.586 16.3766 183.495 16.6117 182.298 16.6117C180.73 16.6117 179.519 16.1129 178.664 15.1152C177.808 14.1175 177.381 12.7064 177.381 10.8821C177.381 9.04345 177.808 7.62529 178.664 6.62759C179.533 5.61563 180.752 5.10966 182.319 5.10966C183.417 5.10966 184.479 5.34483 185.505 5.81517V7.35448C184.522 6.9269 183.581 6.71311 182.683 6.71311C181.628 6.71311 180.83 7.0623 180.288 7.76069C179.747 8.45908 179.476 9.49241 179.476 10.8607C179.476 12.2147 179.747 13.248 180.288 13.9607C180.83 14.6591 181.628 15.0083 182.683 15.0083C183.581 15.0083 184.543 14.7945 185.569 14.3669V15.9062Z" fill="white"/>
<path d="M156.475 16.291L164.15 1.64621H165.924L158.249 16.291H156.475ZM155.619 9.66345C156.247 9.66345 156.703 9.39265 156.988 8.85104C157.273 8.29518 157.415 7.40437 157.415 6.17863C157.415 4.95288 157.273 4.0692 156.988 3.52759C156.703 2.97173 156.247 2.6938 155.619 2.6938C154.992 2.6938 154.536 2.97173 154.251 3.52759C153.966 4.0692 153.824 4.95288 153.824 6.17863C153.824 7.40437 153.966 8.29518 154.251 8.85104C154.536 9.39265 154.992 9.66345 155.619 9.66345ZM155.619 10.9248C154.465 10.9248 153.581 10.5186 152.968 9.70621C152.356 8.87955 152.049 7.70368 152.049 6.17863C152.049 4.65357 152.356 3.48483 152.968 2.67242C153.581 1.84575 154.465 1.43242 155.619 1.43242C156.774 1.43242 157.658 1.84575 158.27 2.67242C158.883 3.48483 159.19 4.65357 159.19 6.17863C159.19 7.70368 158.883 8.87955 158.27 9.70621C157.658 10.5186 156.774 10.9248 155.619 10.9248ZM166.779 15.2435C167.407 15.2435 167.863 14.9726 168.148 14.431C168.433 13.8752 168.575 12.9844 168.575 11.7586C168.575 10.5329 168.433 9.6492 168.148 9.10759C167.863 8.55173 167.407 8.2738 166.779 8.2738C166.152 8.2738 165.696 8.55173 165.411 9.10759C165.126 9.6492 164.984 10.5329 164.984 11.7586C164.984 12.9844 165.126 13.8752 165.411 14.431C165.696 14.9726 166.152 15.2435 166.779 15.2435ZM166.779 16.5048C165.625 16.5048 164.741 16.0986 164.128 15.2862C163.516 14.4595 163.209 13.2837 163.209 11.7586C163.209 10.2336 163.516 9.06483 164.128 8.25242C164.741 7.42575 165.625 7.01242 166.779 7.01242C167.934 7.01242 168.818 7.42575 169.43 8.25242C170.043 9.06483 170.35 10.2336 170.35 11.7586C170.35 13.2837 170.043 14.4595 169.43 15.2862C168.818 16.0986 167.934 16.5048 166.779 16.5048Z" fill="white"/>
<path d="M141.145 16.291C141.174 15.0083 141.43 13.8966 141.915 12.9559C142.414 12.0152 143.247 11.0531 144.416 10.0697L146.212 8.55173C146.939 7.93886 147.459 7.39012 147.773 6.90552C148.086 6.42093 148.243 5.92208 148.243 5.40897C148.243 4.65357 147.965 4.05495 147.409 3.61311C146.868 3.17127 146.126 2.95035 145.186 2.95035C143.96 2.95035 142.763 3.37794 141.594 4.23311V2.5869C142.748 1.74598 144.11 1.32552 145.677 1.32552C146.604 1.32552 147.416 1.50368 148.115 1.86001C148.827 2.20208 149.376 2.67955 149.761 3.29242C150.146 3.89104 150.338 4.56093 150.338 5.30208C150.338 6.04323 150.139 6.74162 149.74 7.39725C149.355 8.03863 148.692 8.7584 147.751 9.55656L146.041 11.0104C145.243 11.6945 144.637 12.3216 144.224 12.8917C143.81 13.4618 143.547 14.032 143.433 14.6021H148.393C149.219 14.6021 149.932 14.5807 150.531 14.5379V16.291H141.145Z" fill="white"/>
<path d="M133.696 0V16.1628L132.071 16.3338L131.943 15.5855C130.817 16.2697 129.727 16.6117 128.672 16.6117C127.275 16.6117 126.178 16.12 125.38 15.1366C124.596 14.1389 124.204 12.7706 124.204 11.0317C124.204 9.15035 124.667 7.69655 125.594 6.67034C126.52 5.62989 127.824 5.10966 129.506 5.10966C130.318 5.10966 131.045 5.20943 131.687 5.40897V0.235172L133.696 0ZM129.142 15.0297C129.527 15.0297 129.948 14.9655 130.404 14.8372C130.874 14.6947 131.302 14.5094 131.687 14.2814V6.9269C131.088 6.75586 130.454 6.67034 129.784 6.67034C128.615 6.67034 127.739 7.02667 127.154 7.73931C126.584 8.45195 126.299 9.53517 126.299 10.989C126.299 12.3145 126.534 13.3193 127.005 14.0034C127.489 14.6876 128.202 15.0297 129.142 15.0297Z" fill="white"/>
<path d="M121.736 15.8848C120.752 16.3694 119.655 16.6117 118.444 16.6117C116.676 16.6117 115.329 16.12 114.403 15.1366C113.476 14.1531 113.013 12.7136 113.013 10.8179C113.013 9.6492 113.22 8.63724 113.633 7.78207C114.047 6.91264 114.624 6.24989 115.365 5.79379C116.106 5.3377 116.954 5.10966 117.909 5.10966C119.249 5.10966 120.304 5.50874 121.073 6.3069C121.843 7.10506 122.228 8.20966 122.228 9.62069C122.228 10.1766 122.178 10.7253 122.078 11.2669H115.001C115.044 13.7897 116.27 15.051 118.679 15.051C119.719 15.051 120.738 14.823 121.736 14.3669V15.8848ZM117.909 6.58483C117.082 6.58483 116.405 6.87701 115.878 7.46138C115.365 8.04575 115.073 8.83678 115.001 9.83448H120.368C120.382 9.76322 120.389 9.69196 120.389 9.62069C120.389 9.54943 120.389 9.47816 120.389 9.4069C120.389 8.52322 120.168 7.83196 119.726 7.33311C119.299 6.83425 118.693 6.58483 117.909 6.58483Z" fill="white"/>
<path d="M108.367 6.88414V13.1269C108.367 13.7683 108.51 14.2458 108.795 14.5593C109.08 14.8586 109.515 15.0083 110.099 15.0083C110.541 15.0083 111.011 14.9299 111.51 14.7731V16.2055C110.912 16.4336 110.292 16.5476 109.65 16.5476C108.567 16.5476 107.747 16.2625 107.192 15.6924C106.636 15.1223 106.358 14.2885 106.358 13.191V6.88414H104.733V5.51587L106.443 5.45173L106.593 2.73656L108.367 2.54414V5.43035H111.403V6.88414H108.367Z" fill="white"/>
<path d="M100.647 16.291V5.60138L102.657 5.36621V16.291H100.647ZM101.652 3.2069C101.239 3.2069 100.911 3.1 100.669 2.88621C100.441 2.65816 100.327 2.35173 100.327 1.9669C100.327 1.58207 100.441 1.28276 100.669 1.06897C100.911 0.840921 101.239 0.726898 101.652 0.726898C102.066 0.726898 102.386 0.840921 102.614 1.06897C102.857 1.28276 102.978 1.58207 102.978 1.9669C102.978 2.35173 102.857 2.65816 102.614 2.88621C102.386 3.1 102.066 3.2069 101.652 3.2069Z" fill="white"/>
<path d="M95.5197 16.291V8.74414C95.5197 7.37586 94.857 6.69173 93.5315 6.69173C92.7333 6.69173 91.8924 6.9554 91.0087 7.48276C91.08 7.79632 91.1156 8.10989 91.1156 8.42345V16.291H89.1059V8.74414C89.1059 7.37586 88.4432 6.69173 87.1177 6.69173C86.3338 6.69173 85.5285 6.94115 84.7018 7.44V16.291H82.6921V5.55862L84.317 5.38759L84.4452 6.13586C85.5427 5.45173 86.6188 5.10966 87.6735 5.10966C88.8993 5.10966 89.8257 5.50161 90.4528 6.28552C91.7356 5.50161 92.9471 5.10966 94.0873 5.10966C95.1563 5.10966 95.9972 5.40184 96.6101 5.98621C97.2229 6.57058 97.5294 7.38299 97.5294 8.42345V16.291H95.5197Z" fill="white"/>
<path d="M77.4308 16.291V5.60138L79.4405 5.36621V16.291H77.4308ZM78.4356 3.2069C78.0223 3.2069 77.6945 3.1 77.4522 2.88621C77.2241 2.65816 77.1101 2.35173 77.1101 1.9669C77.1101 1.58207 77.2241 1.28276 77.4522 1.06897C77.6945 0.840921 78.0223 0.726898 78.4356 0.726898C78.849 0.726898 79.1697 0.840921 79.3977 1.06897C79.64 1.28276 79.7611 1.58207 79.7611 1.9669C79.7611 2.35173 79.64 2.65816 79.3977 2.88621C79.1697 3.1 78.849 3.2069 78.4356 3.2069Z" fill="white"/>
<path d="M72.1694 16.291V0.235172L74.1791 0V16.291H72.1694Z" fill="white"/>
<path d="M67.0293 16.291V8.97931C67.0293 7.45425 66.2739 6.69173 64.7631 6.69173C64.364 6.69173 63.9151 6.76299 63.4162 6.90552C62.9316 7.0338 62.4898 7.21196 62.0907 7.44V16.291H60.0811V5.55862L61.7059 5.38759L61.8342 6.13586C63.0029 5.45173 64.1645 5.10966 65.319 5.10966C66.502 5.10966 67.4142 5.42322 68.0555 6.05035C68.7112 6.66322 69.039 7.53977 69.039 8.68V16.291H67.0293Z" fill="white"/>
<path d="M55.2167 16.3338L55.0884 15.5855C53.9197 16.2697 52.7581 16.6117 51.6036 16.6117C50.4491 16.6117 49.5512 16.2982 48.9098 15.671C48.2684 15.0439 47.9478 14.1674 47.9478 13.0414V5.43035H49.9574V12.7421C49.9574 14.2671 50.6914 15.0297 52.1595 15.0297C52.5728 15.0297 53.0218 14.9655 53.5064 14.8372C53.991 14.6947 54.4328 14.5094 54.8319 14.2814V5.43035H56.8415V16.1628L55.2167 16.3338Z" fill="white"/>
<path d="M37.5911 16.291V8.97931C37.5911 7.45425 36.8357 6.69173 35.3249 6.69173C34.9258 6.69173 34.4768 6.76299 33.978 6.90552C33.4934 7.0338 33.0516 7.21196 32.6525 7.44V16.291H30.6428V5.55862L32.2677 5.38759L32.3959 6.13586C33.5647 5.45173 34.7263 5.10966 35.8808 5.10966C37.0637 5.10966 37.9759 5.42322 38.6173 6.05035C39.2729 6.66322 39.6008 7.53977 39.6008 8.68V16.291H37.5911Z" fill="white"/>
<path d="M22.8342 16.291V5.55863L24.4591 5.38759L24.6301 6.37104C25.5708 5.57288 26.5756 5.1738 27.6446 5.1738C27.9724 5.1738 28.3002 5.22368 28.628 5.32345V6.96966C28.286 6.88414 27.9368 6.84138 27.5804 6.84138C26.5542 6.84138 25.642 7.16207 24.8439 7.80345V16.291H22.8342Z" fill="white"/>
<path d="M18.0848 16.3338L17.9565 15.5855C16.7593 16.2697 15.5977 16.6117 14.4717 16.6117C13.3457 16.6117 12.4478 16.3124 11.7779 15.7138C11.1222 15.1009 10.7944 14.2814 10.7944 13.2552C10.7944 12.1862 11.165 11.3595 11.9062 10.7752C12.6473 10.1766 13.6878 9.87724 15.0275 9.87724C15.8114 9.87724 16.7165 9.96989 17.7427 10.1552V9.02207C17.7427 8.23816 17.5147 7.65379 17.0586 7.26897C16.6167 6.88414 15.9326 6.69173 15.0062 6.69173C13.9229 6.69173 12.74 6.94115 11.4572 7.44V5.87931C12.0558 5.63701 12.7043 5.45173 13.4027 5.32345C14.1011 5.18092 14.7639 5.10966 15.391 5.10966C16.802 5.10966 17.871 5.43747 18.5979 6.09311C19.339 6.74874 19.7096 7.71081 19.7096 8.97931V16.1628L18.0848 16.3338ZM14.9848 15.051C15.3981 15.051 15.8613 14.9798 16.3744 14.8372C16.8875 14.6947 17.3436 14.5094 17.7427 14.2814V11.5448C17.0728 11.3738 16.2818 11.2883 15.3696 11.2883C14.5144 11.2883 13.8802 11.4522 13.4668 11.78C13.0678 12.0936 12.8682 12.571 12.8682 13.2124C12.8682 14.4382 13.5737 15.051 14.9848 15.051Z" fill="white"/>
<path d="M2.07379 9.55656V14.5807H9.12897V16.291H0V1.32552H9.08621V3.03587H2.07379V7.84621H8.18828V9.55656H2.07379Z" fill="white"/>
</svg>
