<svg width="153" height="22" viewBox="0 0 153 22" fill="none" xmlns="http://www.w3.org/2000/svg">
<path d="M151.488 16.3979C151.103 16.3979 150.79 16.2768 150.548 16.0345C150.305 15.7922 150.184 15.4786 150.184 15.0938C150.184 14.709 150.305 14.3954 150.548 14.1531C150.79 13.9108 151.103 13.7897 151.488 13.7897C151.873 13.7897 152.187 13.9108 152.429 14.1531C152.671 14.3954 152.792 14.709 152.792 15.0938C152.792 15.4786 152.671 15.7922 152.429 16.0345C152.187 16.2768 151.873 16.3979 151.488 16.3979Z" fill="white"/>
<path d="M140.22 14.3028C141.36 14.8016 142.5 15.051 143.64 15.051C144.467 15.051 145.094 14.8942 145.522 14.5807C145.964 14.2671 146.185 13.8182 146.185 13.2338C146.185 12.849 146.063 12.5354 145.821 12.2931C145.579 12.0508 145.18 11.8441 144.624 11.6731L143.17 11.2241C142.201 10.9248 141.495 10.54 141.054 10.0697C140.612 9.59931 140.391 9.00069 140.391 8.27379C140.391 7.30459 140.768 6.53494 141.524 5.96482C142.279 5.39471 143.298 5.10965 144.581 5.10965C145.664 5.10965 146.698 5.32344 147.681 5.75103V7.29034C146.598 6.87701 145.607 6.67034 144.709 6.67034C143.982 6.67034 143.412 6.81287 142.999 7.09793C142.6 7.36873 142.4 7.73931 142.4 8.20965C142.4 8.55172 142.507 8.82252 142.721 9.02206C142.935 9.20735 143.334 9.39264 143.918 9.57793L145.543 10.0697C147.311 10.597 148.194 11.6446 148.194 13.2124C148.194 14.3099 147.816 15.1508 147.061 15.7352C146.306 16.3195 145.215 16.6117 143.79 16.6117C142.465 16.6117 141.353 16.3908 140.455 15.949L140.22 14.3028Z" fill="white"/>
<path d="M136.104 16.3338L135.975 15.5855C134.807 16.2697 133.645 16.6117 132.491 16.6117C131.336 16.6117 130.438 16.2982 129.797 15.671C129.155 15.0439 128.835 14.1674 128.835 13.0414V5.43034H130.844V12.7421C130.844 14.2671 131.578 15.0297 133.046 15.0297C133.46 15.0297 133.909 14.9655 134.393 14.8372C134.878 14.6947 135.32 14.5094 135.719 14.2814V5.43034H137.729V16.1628L136.104 16.3338Z" fill="white"/>
<path d="M123.702 16.291V0.235172L125.711 0V16.291H123.702Z" fill="white"/>
<path d="M111.244 16.291V1.64622C111.914 1.50369 112.662 1.38967 113.489 1.30415C114.33 1.21863 115.049 1.17587 115.648 1.17587C117.415 1.17587 118.791 1.5892 119.774 2.41587C120.772 3.24254 121.271 4.38989 121.271 5.85794C121.271 7.32599 120.751 8.4876 119.71 9.34277C118.684 10.1837 117.273 10.6041 115.477 10.6041H113.296V16.291H111.244ZM115.52 2.77932C114.864 2.77932 114.123 2.85059 113.296 2.99311V9.0007H115.456C116.624 9.0007 117.522 8.72989 118.149 8.18829C118.791 7.64668 119.111 6.87702 119.111 5.87932C119.111 4.86737 118.805 4.09771 118.192 3.57035C117.594 3.043 116.703 2.77932 115.52 2.77932Z" fill="white"/>
<path d="M93.5327 16.291V0.235172L95.5424 0V5.98621C96.6398 5.40184 97.7159 5.10965 98.7707 5.10965C99.9536 5.10965 100.866 5.42322 101.507 6.05034C102.163 6.66322 102.491 7.53977 102.491 8.68V16.291H100.481V8.97931C100.481 7.45425 99.7256 6.69172 98.2148 6.69172C97.8157 6.69172 97.3667 6.76299 96.8679 6.90552C96.3833 7.03379 95.9415 7.21195 95.5424 7.44V16.291H93.5327Z" fill="white"/>
<path d="M83.0552 14.3028C84.1954 14.8016 85.3356 15.051 86.4759 15.051C87.3025 15.051 87.9297 14.8942 88.3572 14.5807C88.7991 14.2671 89.02 13.8182 89.02 13.2338C89.02 12.849 88.8989 12.5354 88.6566 12.2931C88.4143 12.0508 88.0152 11.8441 87.4593 11.6731L86.0055 11.2241C85.0363 10.9248 84.3308 10.54 83.889 10.0697C83.4471 9.59931 83.2262 9.00069 83.2262 8.27379C83.2262 7.30459 83.6039 6.53494 84.3593 5.96482C85.1147 5.39471 86.1338 5.10965 87.4166 5.10965C88.4998 5.10965 89.5331 5.32344 90.5166 5.75103V7.29034C89.4333 6.87701 88.4428 6.67034 87.5448 6.67034C86.8179 6.67034 86.2478 6.81287 85.8345 7.09793C85.4354 7.36873 85.2359 7.73931 85.2359 8.20965C85.2359 8.55172 85.3428 8.82252 85.5566 9.02206C85.7703 9.20735 86.1694 9.39264 86.7538 9.57793L88.3786 10.0697C90.146 10.597 91.0297 11.6446 91.0297 13.2124C91.0297 14.3099 90.652 15.1508 89.8966 15.7352C89.1412 16.3195 88.0508 16.6117 86.6255 16.6117C85.3 16.6117 84.1883 16.3908 83.2904 15.949L83.0552 14.3028Z" fill="white"/>
<path d="M79.0538 16.3338L78.9255 15.5855C77.7283 16.2697 76.5666 16.6117 75.4407 16.6117C74.3147 16.6117 73.4168 16.3124 72.7469 15.7138C72.0912 15.1009 71.7634 14.2814 71.7634 13.2552C71.7634 12.1862 72.134 11.3595 72.8752 10.7752C73.6163 10.1765 74.6568 9.87724 75.9965 9.87724C76.7804 9.87724 77.6855 9.96988 78.7117 10.1552V9.02206C78.7117 8.23816 78.4837 7.65379 78.0276 7.26896C77.5857 6.88414 76.9016 6.69172 75.9752 6.69172C74.8919 6.69172 73.7089 6.94114 72.4262 7.43999V5.87931C73.0248 5.63701 73.6733 5.45172 74.3717 5.32344C75.0701 5.18092 75.7329 5.10965 76.36 5.10965C77.771 5.10965 78.84 5.43747 79.5669 6.0931C80.308 6.74873 80.6786 7.7108 80.6786 8.97931V16.1628L79.0538 16.3338ZM75.9538 15.051C76.3671 15.051 76.8303 14.9798 77.3434 14.8372C77.8565 14.6947 78.3126 14.5094 78.7117 14.2814V11.5448C78.0418 11.3738 77.2508 11.2883 76.3386 11.2883C75.4834 11.2883 74.8492 11.4522 74.4358 11.78C74.0368 12.0936 73.8372 12.571 73.8372 13.2124C73.8372 14.4382 74.5427 15.051 75.9538 15.051Z" fill="white"/>
<path d="M69.7119 15.671C68.5004 16.2982 67.1678 16.6117 65.714 16.6117C63.7186 16.6117 62.1721 15.9276 61.0747 14.5593C59.9772 13.191 59.4285 11.274 59.4285 8.80827C59.4285 6.35678 59.9772 4.44689 61.0747 3.07862C62.1864 1.69609 63.7328 1.00482 65.714 1.00482C67.0965 1.00482 68.4078 1.31839 69.6478 1.94551V3.63448C68.9921 3.30666 68.3864 3.07862 67.8305 2.95034C67.2747 2.80781 66.6832 2.73655 66.056 2.73655C63.12 2.73655 61.6519 4.76046 61.6519 8.80827C61.6519 12.8561 63.12 14.88 66.056 14.88C66.6974 14.88 67.3032 14.8087 67.8733 14.6662C68.4577 14.5237 69.0705 14.2956 69.7119 13.9821V15.671Z" fill="white"/>
<path d="M43.8633 16.291V0.235172L45.8729 0V10.091L50.3412 5.43034H52.6502L47.7971 10.4759L52.8853 16.291H50.4481L45.8729 10.9676V16.291H43.8633Z" fill="white"/>
<path d="M36.0549 16.291V5.55862L37.6798 5.38759L37.8508 6.37104C38.7915 5.57288 39.7963 5.1738 40.8653 5.1738C41.1931 5.1738 41.5209 5.22368 41.8487 5.32345V6.96966C41.5067 6.88414 41.1575 6.84138 40.8011 6.84138C39.7749 6.84138 38.8627 7.16207 38.0646 7.80345V16.291H36.0549Z" fill="white"/>
<path d="M31.3052 16.3338L31.177 15.5855C29.9797 16.2697 28.8181 16.6117 27.6921 16.6117C26.5662 16.6117 25.6682 16.3124 24.9983 15.7138C24.3427 15.1009 24.0149 14.2814 24.0149 13.2552C24.0149 12.1862 24.3855 11.3595 25.1266 10.7752C25.8678 10.1765 26.9082 9.87724 28.248 9.87724C29.0319 9.87724 29.937 9.96988 30.9632 10.1552V9.02206C30.9632 8.23816 30.7351 7.65379 30.279 7.26896C29.8372 6.88414 29.1531 6.69172 28.2266 6.69172C27.1434 6.69172 25.9604 6.94114 24.6777 7.43999V5.87931C25.2763 5.63701 25.9248 5.45172 26.6232 5.32344C27.3216 5.18092 27.9843 5.10965 28.6114 5.10965C30.0225 5.10965 31.0914 5.43747 31.8183 6.0931C32.5595 6.74873 32.9301 7.7108 32.9301 8.97931V16.1628L31.3052 16.3338ZM28.2052 15.051C28.6186 15.051 29.0818 14.9798 29.5949 14.8372C30.108 14.6947 30.5641 14.5094 30.9632 14.2814V11.5448C30.2933 11.3738 29.5022 11.2883 28.5901 11.2883C27.7349 11.2883 27.1006 11.4522 26.6873 11.78C26.2882 12.0936 26.0887 12.571 26.0887 13.2124C26.0887 14.4382 26.7942 15.051 28.2052 15.051Z" fill="white"/>
<path d="M12.5042 21.1228V5.55862L14.129 5.38758L14.2573 6.13586C15.3832 5.45172 16.4736 5.10965 17.5283 5.10965C18.9251 5.10965 20.0154 5.6085 20.7993 6.6062C21.5975 7.58965 21.9966 8.9508 21.9966 10.6897C21.9966 12.571 21.5333 14.032 20.6069 15.0724C19.6805 16.0986 18.3763 16.6117 16.6945 16.6117C15.8821 16.6117 15.1552 16.5119 14.5138 16.3124V20.8876L12.5042 21.1228ZM17.0579 6.69172C16.6731 6.69172 16.2455 6.76298 15.7752 6.90551C15.3191 7.03379 14.8986 7.21195 14.5138 7.43999V14.7945C15.1124 14.9655 15.7467 15.051 16.4166 15.051C17.5853 15.051 18.4547 14.6947 19.0248 13.9821C19.6092 13.2694 19.9014 12.1862 19.9014 10.7324C19.9014 9.40689 19.6591 8.40206 19.1745 7.71793C18.7042 7.03379 17.9986 6.69172 17.0579 6.69172Z" fill="white"/>
<path d="M0 13.8965C1.45379 14.5949 2.89333 14.9441 4.31862 14.9441C5.45885 14.9441 6.34253 14.7018 6.96966 14.2172C7.59678 13.7326 7.91035 13.0414 7.91035 12.1434C7.91035 11.4878 7.71081 10.9533 7.31173 10.54C6.91264 10.1267 6.24276 9.77034 5.30207 9.47103L3.89103 9.02206C2.62253 8.62298 1.70322 8.12413 1.1331 7.52551C0.577241 6.91264 0.29931 6.14299 0.29931 5.21655C0.29931 3.93379 0.776781 2.91471 1.73172 2.15931C2.68667 1.38965 3.96943 1.00482 5.58 1.00482C6.91977 1.00482 8.20966 1.28275 9.44966 1.83862V3.48482C8.13839 2.94321 6.91264 2.67241 5.77241 2.67241C4.74621 2.67241 3.93379 2.89333 3.33517 3.33517C2.7508 3.76275 2.45862 4.35425 2.45862 5.10965C2.45862 5.66551 2.62253 6.10735 2.95035 6.43517C3.29241 6.76299 3.87678 7.06229 4.70345 7.3331L6.11448 7.78207C7.52552 8.23816 8.53747 8.80827 9.15034 9.49241C9.76322 10.1623 10.0697 11.0388 10.0697 12.1221C10.0697 13.5331 9.57793 14.6377 8.59448 15.4359C7.61103 16.2198 6.24989 16.6117 4.51103 16.6117C2.92897 16.6117 1.52506 16.3124 0.29931 15.7138L0 13.8965Z" fill="white"/>
</svg>
