<svg width="331" height="22" viewBox="0 0 331 22" fill="none" xmlns="http://www.w3.org/2000/svg">
<path d="M328.74 11.9724L328.483 1.53931L330.579 1.32552L330.322 11.9724H328.74ZM329.531 16.6117C329.146 16.6117 328.833 16.4906 328.59 16.2483C328.348 16.006 328.227 15.6924 328.227 15.3076C328.227 14.9228 328.348 14.6092 328.59 14.3669C328.833 14.1246 329.146 14.0034 329.531 14.0034C329.916 14.0034 330.229 14.1246 330.472 14.3669C330.714 14.6092 330.835 14.9228 330.835 15.3076C330.835 15.6924 330.714 16.006 330.472 16.2483C330.229 16.4906 329.916 16.6117 329.531 16.6117Z" fill="white"/>
<path d="M317.471 14.5166C318.611 15.0154 319.752 15.2648 320.892 15.2648C321.719 15.2648 322.346 15.1081 322.773 14.7945C323.215 14.4809 323.436 14.032 323.436 13.4476C323.436 13.0628 323.315 12.7492 323.073 12.5069C322.83 12.2646 322.431 12.0579 321.875 11.8869L320.422 11.4379C319.452 11.1386 318.747 10.7538 318.305 10.2835C317.863 9.81311 317.642 9.21449 317.642 8.48759C317.642 7.5184 318.02 6.74874 318.775 6.17863C319.531 5.60851 320.55 5.32346 321.833 5.32346C322.916 5.32346 323.949 5.53725 324.933 5.96484V7.50414C323.849 7.09081 322.859 6.88415 321.961 6.88415C321.234 6.88415 320.664 7.02668 320.25 7.31174C319.851 7.58254 319.652 7.95311 319.652 8.42345C319.652 8.76552 319.759 9.03633 319.973 9.23587C320.186 9.42116 320.585 9.60645 321.17 9.79173L322.795 10.2835C324.562 10.8108 325.446 11.8584 325.446 13.4262C325.446 14.5237 325.068 15.3646 324.313 15.949C323.557 16.5333 322.467 16.8255 321.042 16.8255C319.716 16.8255 318.604 16.6046 317.706 16.1628L317.471 14.5166Z" fill="white"/>
<path d="M307.742 14.5166C308.882 15.0154 310.022 15.2648 311.163 15.2648C311.989 15.2648 312.616 15.1081 313.044 14.7945C313.486 14.4809 313.707 14.032 313.707 13.4476C313.707 13.0628 313.586 12.7492 313.343 12.5069C313.101 12.2646 312.702 12.0579 312.146 11.8869L310.692 11.4379C309.723 11.1386 309.018 10.7538 308.576 10.2835C308.134 9.81311 307.913 9.21449 307.913 8.48759C307.913 7.5184 308.291 6.74874 309.046 6.17863C309.801 5.60851 310.821 5.32346 312.103 5.32346C313.187 5.32346 314.22 5.53725 315.203 5.96484V7.50414C314.12 7.09081 313.13 6.88415 312.232 6.88415C311.505 6.88415 310.935 7.02668 310.521 7.31174C310.122 7.58254 309.923 7.95311 309.923 8.42345C309.923 8.76552 310.03 9.03633 310.243 9.23587C310.457 9.42116 310.856 9.60645 311.441 9.79173L313.065 10.2835C314.833 10.8108 315.716 11.8584 315.716 13.4262C315.716 14.5237 315.339 15.3646 314.583 15.949C313.828 16.5333 312.738 16.8255 311.312 16.8255C309.987 16.8255 308.875 16.6046 307.977 16.1628L307.742 14.5166Z" fill="white"/>
<path d="M305.381 16.0986C304.398 16.5832 303.3 16.8255 302.089 16.8255C300.321 16.8255 298.974 16.3338 298.048 15.3504C297.121 14.3669 296.658 12.9274 296.658 11.0317C296.658 9.86299 296.865 8.85104 297.278 7.99587C297.692 7.12645 298.269 6.46368 299.01 6.00759C299.751 5.5515 300.599 5.32346 301.554 5.32346C302.894 5.32346 303.949 5.72254 304.718 6.5207C305.488 7.31886 305.873 8.42346 305.873 9.8345C305.873 10.3904 305.823 10.9391 305.723 11.4807H298.646C298.689 14.0035 299.915 15.2648 302.324 15.2648C303.364 15.2648 304.383 15.0368 305.381 14.5807V16.0986ZM301.554 6.79863C300.727 6.79863 300.05 7.09081 299.523 7.67518C299.01 8.25955 298.718 9.05059 298.646 10.0483H304.013C304.027 9.97702 304.034 9.90576 304.034 9.8345C304.034 9.76323 304.034 9.69196 304.034 9.6207C304.034 8.73702 303.813 8.04576 303.371 7.54691C302.944 7.04805 302.338 6.79863 301.554 6.79863Z" fill="white"/>
<path d="M292.159 16.5048V9.19312C292.159 7.66806 291.404 6.90553 289.893 6.90553C289.494 6.90553 289.045 6.97679 288.546 7.11932C288.062 7.24759 287.62 7.42576 287.221 7.6538V16.5048H285.211V5.77242L286.836 5.60139L286.964 6.34966C288.133 5.66553 289.294 5.32346 290.449 5.32346C291.632 5.32346 292.544 5.63702 293.185 6.26414C293.841 6.87702 294.169 7.75357 294.169 8.8938V16.5048H292.159Z" fill="white"/>
<path d="M279.95 16.5048V5.81518L281.959 5.58V16.5048H279.95ZM280.954 3.42069C280.541 3.42069 280.213 3.31379 279.971 3.1C279.743 2.87195 279.629 2.56552 279.629 2.18069C279.629 1.79587 279.743 1.49655 279.971 1.28276C280.213 1.05471 280.541 0.940689 280.954 0.940689C281.368 0.940689 281.688 1.05471 281.917 1.28276C282.159 1.49655 282.28 1.79587 282.28 2.18069C282.28 2.56552 282.159 2.87195 281.917 3.1C281.688 3.31379 281.368 3.42069 280.954 3.42069Z" fill="white"/>
<path d="M269.472 14.5166C270.612 15.0154 271.753 15.2648 272.893 15.2648C273.72 15.2648 274.347 15.1081 274.774 14.7945C275.216 14.4809 275.437 14.032 275.437 13.4476C275.437 13.0628 275.316 12.7492 275.074 12.5069C274.831 12.2646 274.432 12.0579 273.876 11.8869L272.423 11.4379C271.453 11.1386 270.748 10.7538 270.306 10.2835C269.864 9.81311 269.643 9.21449 269.643 8.48759C269.643 7.5184 270.021 6.74874 270.776 6.17863C271.532 5.60851 272.551 5.32346 273.834 5.32346C274.917 5.32346 275.95 5.53725 276.934 5.96484V7.50414C275.85 7.09081 274.86 6.88415 273.962 6.88415C273.235 6.88415 272.665 7.02668 272.251 7.31174C271.852 7.58254 271.653 7.95311 271.653 8.42345C271.653 8.76552 271.76 9.03633 271.974 9.23587C272.187 9.42116 272.586 9.60645 273.171 9.79173L274.796 10.2835C276.563 10.8108 277.447 11.8584 277.447 13.4262C277.447 14.5237 277.069 15.3646 276.314 15.949C275.558 16.5333 274.468 16.8255 273.043 16.8255C271.717 16.8255 270.605 16.6046 269.707 16.1628L269.472 14.5166Z" fill="white"/>
<path d="M265.356 16.5476L265.228 15.7993C264.059 16.4834 262.897 16.8255 261.743 16.8255C260.589 16.8255 259.691 16.5119 259.049 15.8848C258.408 15.2577 258.087 14.3811 258.087 13.2552V5.64413H260.097V12.9559C260.097 14.4809 260.831 15.2434 262.299 15.2434C262.712 15.2434 263.161 15.1793 263.646 15.051C264.13 14.9085 264.572 14.7232 264.971 14.4952V5.64413H266.981V16.3765L265.356 16.5476Z" fill="white"/>
<path d="M248.116 6.17862C249.185 5.6085 250.19 5.32345 251.13 5.32345C252.527 5.32345 253.617 5.8223 254.401 6.82C255.2 7.80345 255.599 9.1646 255.599 10.9035C255.599 12.8133 255.114 14.2814 254.145 15.3076C253.176 16.3195 251.793 16.8255 249.997 16.8255C248.714 16.8255 247.417 16.6402 246.106 16.2697V0.448967L248.116 0.213791V6.17862ZM250.66 6.90552C250.275 6.90552 249.848 6.97678 249.377 7.11931C248.921 7.24758 248.501 7.42575 248.116 7.65379V15.0083C248.714 15.1793 249.349 15.2648 250.019 15.2648C251.187 15.2648 252.057 14.9085 252.627 14.1959C253.211 13.4832 253.503 12.4 253.503 10.9462C253.503 9.62069 253.261 8.61586 252.777 7.93172C252.306 7.24759 251.601 6.90552 250.66 6.90552Z" fill="white"/>
<path d="M232.953 16.5048V5.77242L234.578 5.60138L234.749 6.58483C235.689 5.78667 236.694 5.38759 237.763 5.38759C238.091 5.38759 238.419 5.43747 238.747 5.53724V7.18345C238.405 7.09793 238.055 7.05518 237.699 7.05518C236.673 7.05518 235.761 7.37586 234.963 8.01724V16.5048H232.953Z" fill="white"/>
<path d="M228.089 16.5476L227.96 15.7993C226.792 16.4834 225.63 16.8255 224.475 16.8255C223.321 16.8255 222.423 16.5119 221.782 15.8848C221.14 15.2577 220.82 14.3811 220.82 13.2552V5.64413H222.829V12.9559C222.829 14.4809 223.563 15.2434 225.031 15.2434C225.445 15.2434 225.894 15.1793 226.378 15.051C226.863 14.9085 227.305 14.7232 227.704 14.4952V5.64413H229.713V16.3765L228.089 16.5476Z" fill="white"/>
<path d="M213.407 15.2435C214.405 15.2435 215.125 14.9156 215.566 14.26C216.023 13.6044 216.251 12.5425 216.251 11.0745C216.251 9.60645 216.023 8.54461 215.566 7.88898C215.125 7.23334 214.405 6.90553 213.407 6.90553C212.409 6.90553 211.683 7.23334 211.226 7.88898C210.785 8.54461 210.564 9.60645 210.564 11.0745C210.564 12.5425 210.785 13.6044 211.226 14.26C211.683 14.9156 212.409 15.2435 213.407 15.2435ZM213.407 16.8255C211.782 16.8255 210.549 16.3409 209.709 15.3717C208.882 14.3883 208.469 12.9559 208.469 11.0745C208.469 9.19311 208.882 7.76783 209.709 6.79863C210.549 5.81518 211.782 5.32346 213.407 5.32346C215.032 5.32346 216.258 5.81518 217.084 6.79863C217.925 7.76783 218.346 9.19311 218.346 11.0745C218.346 12.9559 217.925 14.3883 217.084 15.3717C216.258 16.3409 215.032 16.8255 213.407 16.8255Z" fill="white"/>
<path d="M197.722 19.6262C198.406 19.5122 198.969 19.3483 199.411 19.1345C199.867 18.9207 200.266 18.6142 200.608 18.2152C200.95 17.8161 201.278 17.2816 201.592 16.6117L197.508 5.64413H199.646L202.575 14.3455L205.504 5.64413H207.557L203.623 16.0986C203.195 17.2388 202.753 18.151 202.297 18.8352C201.841 19.5336 201.3 20.0752 200.672 20.46C200.045 20.8591 199.219 21.1655 198.192 21.3793L197.722 19.6262Z" fill="white"/>
<path d="M185.852 16.5048V5.77242L187.476 5.60138L187.647 6.58483C188.588 5.78667 189.593 5.38759 190.662 5.38759C190.99 5.38759 191.318 5.43747 191.645 5.53724V7.18345C191.303 7.09793 190.954 7.05518 190.598 7.05518C189.572 7.05518 188.659 7.37586 187.861 8.01724V16.5048H185.852Z" fill="white"/>
<path d="M178.311 15.2435C179.308 15.2435 180.028 14.9156 180.47 14.26C180.926 13.6044 181.154 12.5425 181.154 11.0745C181.154 9.60645 180.926 8.54461 180.47 7.88898C180.028 7.23334 179.308 6.90553 178.311 6.90553C177.313 6.90553 176.586 7.23334 176.13 7.88898C175.688 8.54461 175.467 9.60645 175.467 11.0745C175.467 12.5425 175.688 13.6044 176.13 14.26C176.586 14.9156 177.313 15.2435 178.311 15.2435ZM178.311 16.8255C176.686 16.8255 175.453 16.3409 174.612 15.3717C173.785 14.3883 173.372 12.9559 173.372 11.0745C173.372 9.19311 173.785 7.76783 174.612 6.79863C175.453 5.81518 176.686 5.32346 178.311 5.32346C179.936 5.32346 181.161 5.81518 181.988 6.79863C182.829 7.76783 183.249 9.19311 183.249 11.0745C183.249 12.9559 182.829 14.3883 181.988 15.3717C181.161 16.3409 179.936 16.8255 178.311 16.8255Z" fill="white"/>
<path d="M167.218 16.5048V7.09793H165.593V5.72966L167.218 5.66552V3.54897C167.218 2.42299 167.51 1.55356 168.094 0.940689C168.679 0.313563 169.513 0 170.596 0C171.223 0 171.864 0.114026 172.52 0.342072V1.77448C171.936 1.6177 171.437 1.53931 171.023 1.53931C169.826 1.53931 169.228 2.17356 169.228 3.44207V5.64414H171.985V7.09793H169.228V16.5048H167.218Z" fill="white"/>
<path d="M149.827 19.6262C150.511 19.5122 151.074 19.3483 151.516 19.1345C151.972 18.9207 152.371 18.6142 152.714 18.2152C153.056 17.8161 153.383 17.2816 153.697 16.6117L149.614 5.64413H151.751L154.68 14.3455L157.609 5.64413H159.662L155.728 16.0986C155.3 17.2388 154.859 18.151 154.402 18.8352C153.946 19.5336 153.405 20.0752 152.778 20.46C152.151 20.8591 151.324 21.1655 150.298 21.3793L149.827 19.6262Z" fill="white"/>
<path d="M146.361 16.5476L146.232 15.7993C145.035 16.4835 143.874 16.8255 142.748 16.8255C141.622 16.8255 140.724 16.5262 140.054 15.9276C139.398 15.3147 139.07 14.4952 139.07 13.469C139.07 12.4 139.441 11.5733 140.182 10.989C140.923 10.3904 141.964 10.091 143.303 10.091C144.087 10.091 144.992 10.1837 146.019 10.369V9.23587C146.019 8.45196 145.791 7.86759 145.334 7.48277C144.893 7.09794 144.208 6.90553 143.282 6.90553C142.199 6.90553 141.016 7.15495 139.733 7.6538V6.09311C140.332 5.85081 140.98 5.66552 141.679 5.53725C142.377 5.39472 143.04 5.32346 143.667 5.32346C145.078 5.32346 146.147 5.65128 146.874 6.30691C147.615 6.96254 147.985 7.92461 147.985 9.19312V16.3766L146.361 16.5476ZM143.261 15.2648C143.674 15.2648 144.137 15.1936 144.65 15.051C145.163 14.9085 145.62 14.7232 146.019 14.4952V11.7586C145.349 11.5876 144.558 11.5021 143.645 11.5021C142.79 11.5021 142.156 11.666 141.743 11.9938C141.344 12.3074 141.144 12.7848 141.144 13.4262C141.144 14.652 141.85 15.2648 143.261 15.2648Z" fill="white"/>
<path d="M134.407 16.5048V0.448967L136.417 0.213791V16.5048H134.407Z" fill="white"/>
<path d="M122.298 21.3366V5.77242L123.923 5.60139L124.051 6.34966C125.177 5.66553 126.268 5.32346 127.322 5.32346C128.719 5.32346 129.809 5.82231 130.593 6.82001C131.391 7.80346 131.791 9.16461 131.791 10.9035C131.791 12.7848 131.327 14.2458 130.401 15.2862C129.474 16.3124 128.17 16.8255 126.488 16.8255C125.676 16.8255 124.949 16.7258 124.308 16.5262V21.1014L122.298 21.3366ZM126.852 6.90553C126.467 6.90553 126.039 6.97679 125.569 7.11932C125.113 7.24759 124.693 7.42576 124.308 7.6538V15.0083C124.906 15.1793 125.541 15.2648 126.211 15.2648C127.379 15.2648 128.249 14.9085 128.819 14.1959C129.403 13.4832 129.695 12.4 129.695 10.9462C129.695 9.6207 129.453 8.61587 128.968 7.93173C128.498 7.24759 127.793 6.90553 126.852 6.90553Z" fill="white"/>
<path d="M106.476 14.5166C107.616 15.0154 108.756 15.2648 109.897 15.2648C110.723 15.2648 111.35 15.1081 111.778 14.7945C112.22 14.4809 112.441 14.032 112.441 13.4476C112.441 13.0628 112.32 12.7492 112.077 12.5069C111.835 12.2646 111.436 12.0579 110.88 11.8869L109.426 11.4379C108.457 11.1386 107.751 10.7538 107.31 10.2835C106.868 9.81311 106.647 9.21449 106.647 8.48759C106.647 7.5184 107.025 6.74874 107.78 6.17863C108.535 5.60851 109.554 5.32346 110.837 5.32346C111.92 5.32346 112.954 5.53725 113.937 5.96484V7.50414C112.854 7.09081 111.863 6.88415 110.965 6.88415C110.239 6.88415 109.668 7.02668 109.255 7.31174C108.856 7.58254 108.657 7.95311 108.657 8.42345C108.657 8.76552 108.763 9.03633 108.977 9.23587C109.191 9.42116 109.59 9.60645 110.174 9.79173L111.799 10.2835C113.567 10.8108 114.45 11.8584 114.45 13.4262C114.45 14.5237 114.073 15.3646 113.317 15.949C112.562 16.5333 111.471 16.8255 110.046 16.8255C108.721 16.8255 107.609 16.6046 106.711 16.1628L106.476 14.5166Z" fill="white"/>
<path d="M102.36 16.5476L102.232 15.7993C101.063 16.4834 99.9012 16.8255 98.7467 16.8255C97.5922 16.8255 96.6943 16.5119 96.0529 15.8848C95.4115 15.2577 95.0908 14.3811 95.0908 13.2552V5.64413H97.1005V12.9559C97.1005 14.4809 97.8345 15.2434 99.3025 15.2434C99.7159 15.2434 100.165 15.1793 100.649 15.051C101.134 14.9085 101.576 14.7232 101.975 14.4952V5.64413H103.985V16.3765L102.36 16.5476Z" fill="white"/>
<path d="M87.6784 15.2435C88.6761 15.2435 89.3958 14.9156 89.8377 14.26C90.2938 13.6044 90.5218 12.5425 90.5218 11.0745C90.5218 9.60645 90.2938 8.54461 89.8377 7.88898C89.3958 7.23334 88.6761 6.90553 87.6784 6.90553C86.6807 6.90553 85.9538 7.23334 85.4977 7.88898C85.0558 8.54461 84.8349 9.60645 84.8349 11.0745C84.8349 12.5425 85.0558 13.6044 85.4977 14.26C85.9538 14.9156 86.6807 15.2435 87.6784 15.2435ZM87.6784 16.8255C86.0535 16.8255 84.8207 16.3409 83.9797 15.3717C83.1531 14.3883 82.7397 12.9559 82.7397 11.0745C82.7397 9.19311 83.1531 7.76783 83.9797 6.79863C84.8207 5.81518 86.0535 5.32346 87.6784 5.32346C89.3032 5.32346 90.5289 5.81518 91.3556 6.79863C92.1965 7.76783 92.617 9.19311 92.617 11.0745C92.617 12.9559 92.1965 14.3883 91.3556 15.3717C90.5289 16.3409 89.3032 16.8255 87.6784 16.8255Z" fill="white"/>
<path d="M78.1198 16.5048V5.81518L80.1294 5.58V16.5048H78.1198ZM79.1246 3.42069C78.7113 3.42069 78.3834 3.31379 78.1411 3.1C77.9131 2.87195 77.7991 2.56552 77.7991 2.18069C77.7991 1.79587 77.9131 1.49655 78.1411 1.28276C78.3834 1.05471 78.7113 0.940689 79.1246 0.940689C79.5379 0.940689 79.8586 1.05471 80.0867 1.28276C80.329 1.49655 80.4501 1.79587 80.4501 2.18069C80.4501 2.56552 80.329 2.87195 80.0867 3.1C79.8586 3.31379 79.5379 3.42069 79.1246 3.42069Z" fill="white"/>
<path d="M70.3113 16.5048V5.77242L71.9361 5.60138L72.1071 6.58483C73.0478 5.78667 74.0527 5.38759 75.1216 5.38759C75.4494 5.38759 75.7773 5.43747 76.1051 5.53724V7.18345C75.763 7.09793 75.4138 7.05518 75.0575 7.05518C74.0313 7.05518 73.1191 7.37586 72.3209 8.01724V16.5048H70.3113Z" fill="white"/>
<path d="M67.202 16.0986C66.2186 16.5832 65.1211 16.8255 63.9096 16.8255C62.1422 16.8255 60.7953 16.3338 59.8689 15.3504C58.9425 14.3669 58.4792 12.9274 58.4792 11.0317C58.4792 9.86299 58.6859 8.85104 59.0992 7.99587C59.5126 7.12645 60.0898 6.46368 60.831 6.00759C61.5721 5.5515 62.4202 5.32346 63.3751 5.32346C64.7149 5.32346 65.7696 5.72254 66.5392 6.5207C67.3089 7.31886 67.6937 8.42346 67.6937 9.8345C67.6937 10.3904 67.6438 10.9391 67.5441 11.4807H60.4675C60.5103 14.0035 61.736 15.2648 64.1448 15.2648C65.1852 15.2648 66.2043 15.0368 67.202 14.5807V16.0986ZM63.3751 6.79863C62.5484 6.79863 61.8714 7.09081 61.3441 7.67518C60.831 8.25955 60.5388 9.05059 60.4675 10.0483H65.8337C65.848 9.97702 65.8551 9.90576 65.8551 9.8345C65.8551 9.76323 65.8551 9.69196 65.8551 9.6207C65.8551 8.73702 65.6342 8.04576 65.1923 7.54691C64.7648 7.04805 64.159 6.79863 63.3751 6.79863Z" fill="white"/>
<path d="M48.6431 14.5166C49.7833 15.0154 50.9235 15.2648 52.0638 15.2648C52.8904 15.2648 53.5175 15.1081 53.9451 14.7945C54.387 14.4809 54.6079 14.032 54.6079 13.4476C54.6079 13.0628 54.4867 12.7492 54.2444 12.5069C54.0021 12.2646 53.6031 12.0579 53.0472 11.8869L51.5934 11.4379C50.6242 11.1386 49.9187 10.7538 49.4769 10.2835C49.035 9.81311 48.8141 9.21449 48.8141 8.48759C48.8141 7.5184 49.1918 6.74874 49.9472 6.17863C50.7026 5.60851 51.7217 5.32346 53.0044 5.32346C54.0877 5.32346 55.121 5.53725 56.1044 5.96484V7.50414C55.0212 7.09081 54.0307 6.88415 53.1327 6.88415C52.4058 6.88415 51.8357 7.02668 51.4224 7.31174C51.0233 7.58254 50.8238 7.95311 50.8238 8.42345C50.8238 8.76552 50.9307 9.03633 51.1444 9.23587C51.3582 9.42116 51.7573 9.60645 52.3417 9.79173L53.9665 10.2835C55.7339 10.8108 56.6175 11.8584 56.6175 13.4262C56.6175 14.5237 56.2399 15.3646 55.4844 15.949C54.729 16.5333 53.6387 16.8255 52.2134 16.8255C50.8879 16.8255 49.7762 16.6046 48.8782 16.1628L48.6431 14.5166Z" fill="white"/>
<path d="M39.2969 16.5476L39.1687 15.7993C37.9714 16.4835 36.8098 16.8255 35.6838 16.8255C34.5579 16.8255 33.6599 16.5262 32.99 15.9276C32.3344 15.3147 32.0066 14.4952 32.0066 13.469C32.0066 12.4 32.3772 11.5733 33.1183 10.989C33.8595 10.3904 34.8999 10.091 36.2397 10.091C37.0236 10.091 37.9287 10.1837 38.9549 10.369V9.23587C38.9549 8.45196 38.7268 7.86759 38.2707 7.48277C37.8289 7.09794 37.1448 6.90553 36.2183 6.90553C35.1351 6.90553 33.9521 7.15495 32.6693 7.6538V6.09311C33.268 5.85081 33.9165 5.66552 34.6149 5.53725C35.3133 5.39472 35.976 5.32346 36.6031 5.32346C38.0142 5.32346 39.0831 5.65128 39.81 6.30691C40.5512 6.96254 40.9218 7.92461 40.9218 9.19312V16.3766L39.2969 16.5476ZM36.1969 15.2648C36.6103 15.2648 37.0735 15.1936 37.5866 15.051C38.0997 14.9085 38.5558 14.7232 38.9549 14.4952V11.7586C38.285 11.5876 37.4939 11.5021 36.5818 11.5021C35.7266 11.5021 35.0923 11.666 34.679 11.9938C34.2799 12.3074 34.0804 12.7848 34.0804 13.4262C34.0804 14.652 34.7859 15.2648 36.1969 15.2648Z" fill="white"/>
<path d="M16.783 14.5166C17.9232 15.0154 19.0634 15.2648 20.2036 15.2648C21.0303 15.2648 21.6574 15.1081 22.085 14.7945C22.5269 14.4809 22.7478 14.032 22.7478 13.4476C22.7478 13.0628 22.6266 12.7492 22.3843 12.5069C22.142 12.2646 21.743 12.0579 21.1871 11.8869L19.7333 11.4379C18.7641 11.1386 18.0586 10.7538 17.6168 10.2835C17.1749 9.81311 16.954 9.21449 16.954 8.48759C16.954 7.5184 17.3317 6.74874 18.0871 6.17863C18.8425 5.60851 19.8616 5.32346 21.1443 5.32346C22.2276 5.32346 23.2609 5.53725 24.2443 5.96484V7.50414C23.1611 7.09081 22.1705 6.88415 21.2726 6.88415C20.5457 6.88415 19.9756 7.02668 19.5623 7.31174C19.1632 7.58254 18.9636 7.95311 18.9636 8.42345C18.9636 8.76552 19.0705 9.03633 19.2843 9.23587C19.4981 9.42116 19.8972 9.60645 20.4816 9.79173L22.1064 10.2835C23.8738 10.8108 24.7574 11.8584 24.7574 13.4262C24.7574 14.5237 24.3797 15.3646 23.6243 15.949C22.8689 16.5333 21.7786 16.8255 20.3533 16.8255C19.0278 16.8255 17.9161 16.6046 17.0181 16.1628L16.783 14.5166Z" fill="white"/>
<path d="M12.2866 6.84138C12.7285 6.34253 13.0848 5.80093 13.3556 5.21656C13.6264 4.61794 13.7689 4.05495 13.7832 3.5276C13.4981 3.45633 13.2701 3.3138 13.099 3.10001C12.9423 2.87196 12.8639 2.60829 12.8639 2.30898C12.8639 1.9384 12.985 1.63196 13.2273 1.38966C13.4839 1.14736 13.7974 1.02621 14.168 1.02621C14.5528 1.02621 14.8593 1.16875 15.0873 1.4538C15.3296 1.73886 15.4508 2.13081 15.4508 2.62966C15.4508 3.14277 15.3296 3.69863 15.0873 4.29725C14.845 4.88162 14.5243 5.43036 14.1252 5.94346C13.7404 6.45656 13.32 6.88415 12.8639 7.22622L12.2866 6.84138Z" fill="white"/>
<path d="M8.06832 7.09793V13.3407C8.06832 13.9821 8.21085 14.4595 8.49591 14.7731C8.78096 15.0724 9.21568 15.2221 9.80005 15.2221C10.2419 15.2221 10.7122 15.1437 11.2111 14.9869V16.4193C10.6125 16.6474 9.99246 16.7614 9.35108 16.7614C8.26786 16.7614 7.44832 16.4763 6.89246 15.9062C6.3366 15.3361 6.05867 14.5023 6.05867 13.4048V7.09793H4.43384V5.72966L6.14418 5.66552L6.29384 2.95035L8.06832 2.75793V5.64414H11.1042V7.09793H8.06832Z" fill="white"/>
<path d="M0 16.5048V1.53931H2.07379V16.5048H0Z" fill="white"/>
</svg>
