<svg width="595" height="20" viewBox="0 0 595 20" fill="none" xmlns="http://www.w3.org/2000/svg">
<path d="M-1.94591e-05 19.0484C0.730981 18.8614 1.24098 18.5469 1.52998 18.1049C1.83598 17.6629 1.98898 16.9914 1.98898 16.0904V5.07445C1.98898 4.17345 1.83598 3.50195 1.52998 3.05995C1.24098 2.61795 0.730981 2.30345 -1.94591e-05 2.11645V1.65745H8.89948C9.64748 1.65745 10.319 1.64045 10.914 1.60645C11.526 1.55545 12.1635 1.48745 12.8265 1.40245L13.413 6.45145L12.954 6.52795C12.563 5.52495 12.1635 4.74295 11.7555 4.18195C11.3645 3.62095 10.9055 3.22145 10.3785 2.98345C9.86848 2.74545 9.22248 2.62644 8.44048 2.62644H4.53898V9.84295H7.11448C8.16848 9.84295 8.92498 9.68995 9.38398 9.38395C9.85998 9.06095 10.217 8.46595 10.455 7.59895H10.812V13.0559H10.455C10.234 12.1889 9.88548 11.6024 9.40948 11.2964C8.93348 10.9734 8.16848 10.8119 7.11448 10.8119H4.53898V15.9884C4.53898 16.8724 4.69198 17.5184 4.99798 17.9264C5.30398 18.3344 5.79698 18.5384 6.47698 18.5384H8.23648C9.01848 18.5384 9.69848 18.4024 10.2765 18.1304C10.8545 17.8414 11.39 17.3314 11.883 16.6004C12.376 15.8524 12.886 14.7984 13.413 13.4384L13.872 13.5404L13.209 19.5074H-1.94591e-05V19.0484ZM16.3206 16.5494C16.3206 15.7164 16.5841 14.9854 17.1111 14.3564C17.6381 13.7274 18.3776 13.2429 19.3296 12.9029C20.2816 12.5459 21.3866 12.3674 22.6446 12.3674C23.2736 12.3674 23.9111 12.4099 24.5571 12.4949V10.8629C24.5571 9.74095 24.3021 8.86545 23.7921 8.23645C23.2991 7.59045 22.6106 7.26745 21.7266 7.26745C20.0436 7.26745 18.6241 8.48295 17.4681 10.9139L17.0346 10.7864L17.4426 7.26745C18.9726 6.65545 20.4601 6.34945 21.9051 6.34945C23.5201 6.34945 24.7611 6.75745 25.6281 7.57345C26.5121 8.37245 26.9541 9.52845 26.9541 11.0414V17.2634C26.9541 18.1474 27.3026 18.5894 27.9996 18.5894C28.2546 18.5894 28.4841 18.4959 28.6881 18.3089L29.0196 18.5639C28.4926 19.3629 27.7701 19.7624 26.8521 19.7624C25.7981 19.7624 25.1096 19.2694 24.7866 18.2834C23.7666 19.3714 22.4491 19.9154 20.8341 19.9154C19.4401 19.9154 18.3351 19.6179 17.5191 19.0229C16.7201 18.4109 16.3206 17.5864 16.3206 16.5494ZM18.8196 16.2434C18.8196 17.0764 19.0746 17.7309 19.5846 18.2069C20.1116 18.6829 20.7916 18.9209 21.6246 18.9209C22.4576 18.9209 23.1546 18.5809 23.7156 17.9009C24.2766 17.2209 24.5571 16.2009 24.5571 14.8409V13.3874C24.2851 13.3534 24.0216 13.3279 23.7666 13.3109C23.5286 13.2939 23.2906 13.2854 23.0526 13.2854C21.7096 13.2854 20.6641 13.5489 19.9161 14.0759C19.1851 14.5859 18.8196 15.3084 18.8196 16.2434ZM30.1537 19.0994C30.8507 18.9124 31.3352 18.6149 31.6072 18.2069C31.8962 17.7819 32.0407 17.1444 32.0407 16.2944V10.4294C32.0407 9.56245 31.8962 8.91645 31.6072 8.49145C31.3352 8.06645 30.8507 7.76895 30.1537 7.59895V7.19095L33.8512 6.60445C34.0042 6.89345 34.1147 7.15695 34.1827 7.39495C34.2507 7.63295 34.2932 7.92195 34.3102 8.26195C34.7012 7.66695 35.1772 7.19945 35.7382 6.85945C36.3162 6.51945 36.9452 6.34945 37.6252 6.34945C38.5772 6.34945 39.4187 6.65545 40.1497 7.26745L40.3027 10.8119L39.8692 10.9139C39.3422 9.70695 38.8407 8.84845 38.3647 8.33845C37.8887 7.82845 37.3532 7.57345 36.7582 7.57345C36.0272 7.57345 35.4577 7.91345 35.0497 8.59345C34.6417 9.27345 34.4377 10.2339 34.4377 11.4749V16.2944C34.4377 17.2124 34.6077 17.8669 34.9477 18.2579C35.2877 18.6489 35.9167 18.9124 36.8347 19.0484V19.5074H30.1537V19.0994ZM41.6835 19.0994C42.3805 18.9124 42.865 18.6149 43.137 18.2069C43.426 17.7819 43.5705 17.1359 43.5705 16.2689V10.4804C43.5705 9.57945 43.426 8.91645 43.137 8.49145C42.865 8.06645 42.3805 7.76895 41.6835 7.59895V7.19095L45.381 6.60445C45.636 7.08045 45.7805 7.53095 45.8145 7.95595C46.9025 6.88495 48.288 6.34945 49.971 6.34945C51.535 6.34945 52.7335 6.76595 53.5665 7.59895C54.3995 8.43195 54.816 9.63045 54.816 11.1944V16.2689C54.816 17.1359 54.952 17.7819 55.224 18.2069C55.513 18.6149 56.006 18.9124 56.703 19.0994V19.5074H50.532V19.0994C51.229 18.9124 51.7135 18.6149 51.9855 18.2069C52.2745 17.7819 52.419 17.1359 52.419 16.2689V11.0414C52.419 9.88545 52.1555 8.98445 51.6285 8.33845C51.1015 7.69245 50.362 7.36945 49.41 7.36945C48.356 7.36945 47.5145 7.75195 46.8855 8.51695C46.2735 9.26495 45.9675 10.2764 45.9675 11.5514V16.2689C45.9675 17.1359 46.1035 17.7819 46.3755 18.2069C46.6645 18.6149 47.1575 18.9124 47.8545 19.0994V19.5074H41.6835V19.0994ZM65.9737 15.0704V10.5314C65.9737 9.63045 65.8292 8.96745 65.5402 8.54245C65.2682 8.11745 64.7837 7.81995 64.0867 7.64995V7.24195L68.1922 6.60445L68.4727 6.88495C68.4047 7.36095 68.3707 7.88795 68.3707 8.46595V15.2234C68.3707 16.3794 68.6172 17.2804 69.1102 17.9264C69.6032 18.5724 70.2917 18.8954 71.1757 18.8954C71.7877 18.8954 72.3572 18.7424 72.8842 18.4364C73.4112 18.1304 73.8277 17.6884 74.1337 17.1104C74.4567 16.5324 74.6182 15.8439 74.6182 15.0449V9.43495C74.6182 8.82295 74.5162 8.38945 74.3122 8.13445C74.1252 7.87945 73.6917 7.69245 73.0117 7.57345V7.19095L76.8877 6.60445L77.1172 6.83395C77.0492 7.39495 77.0152 7.96445 77.0152 8.54245V16.2689C77.0152 17.1359 77.1512 17.7819 77.4232 18.2069C77.7122 18.6149 78.2052 18.9124 78.9022 19.0994V19.5074L75.2047 19.7624C74.9157 19.2184 74.7627 18.6744 74.7457 18.1304C73.6747 19.3204 72.2977 19.9154 70.6147 19.9154C69.1187 19.9154 67.9712 19.4989 67.1722 18.6659C66.3732 17.8159 65.9737 16.6174 65.9737 15.0704ZM80.3071 19.0994C81.0041 18.9124 81.4886 18.6149 81.7606 18.2069C82.0496 17.7819 82.1941 17.1359 82.1941 16.2689V10.4804C82.1941 9.57945 82.0496 8.91645 81.7606 8.49145C81.4886 8.06645 81.0041 7.76895 80.3071 7.59895V7.19095L84.0046 6.60445C84.2596 7.08045 84.4041 7.53095 84.4381 7.95595C85.5261 6.88495 86.9116 6.34945 88.5946 6.34945C90.1586 6.34945 91.3571 6.76595 92.1901 7.59895C93.0231 8.43195 93.4396 9.63045 93.4396 11.1944V16.2689C93.4396 17.1359 93.5756 17.7819 93.8476 18.2069C94.1366 18.6149 94.6296 18.9124 95.3266 19.0994V19.5074H89.1556V19.0994C89.8526 18.9124 90.3371 18.6149 90.6091 18.2069C90.8981 17.7819 91.0426 17.1359 91.0426 16.2689V11.0414C91.0426 9.88545 90.7791 8.98445 90.2521 8.33845C89.7251 7.69245 88.9856 7.36945 88.0336 7.36945C86.9796 7.36945 86.1381 7.75195 85.5091 8.51695C84.8971 9.26495 84.5911 10.2764 84.5911 11.5514V16.2689C84.5911 17.1359 84.7271 17.7819 84.9991 18.2069C85.2881 18.6149 85.7811 18.9124 86.4781 19.0994V19.5074H80.3071V19.0994ZM96.5902 19.0994C97.2872 18.9124 97.7717 18.6149 98.0437 18.2069C98.3327 17.7819 98.4772 17.1444 98.4772 16.2944V3.92695C98.4772 3.02595 98.3327 2.36295 98.0437 1.93795C97.7717 1.51295 97.2872 1.21545 96.5902 1.04545V0.637446L100.696 -5.48661e-05L100.976 0.280446C100.908 0.756446 100.874 1.29195 100.874 1.88695V16.2944C100.874 17.1444 101.01 17.7819 101.282 18.2069C101.571 18.6149 102.064 18.9124 102.761 19.0994V19.5074H96.5902V19.0994ZM104.163 19.0994C104.86 18.9124 105.345 18.6149 105.617 18.2069C105.906 17.7819 106.05 17.1359 106.05 16.2689V10.4804C106.05 9.57945 105.906 8.91645 105.617 8.49145C105.345 8.06645 104.86 7.76895 104.163 7.59895V7.19095L108.269 6.60445L108.549 6.88495C108.515 7.15695 108.49 7.42045 108.473 7.67545C108.456 7.91345 108.447 8.17695 108.447 8.46595V16.2689C108.447 17.1359 108.583 17.7819 108.855 18.2069C109.144 18.6149 109.637 18.9124 110.334 19.0994V19.5074H104.163V19.0994ZM105.413 2.44795C105.413 1.95495 105.566 1.55545 105.872 1.24945C106.195 0.943446 106.594 0.790446 107.07 0.790446C107.563 0.790446 107.963 0.943446 108.269 1.24945C108.575 1.55545 108.728 1.95495 108.728 2.44795C108.728 2.92395 108.575 3.32345 108.269 3.64645C107.963 3.95245 107.563 4.10545 107.07 4.10545C106.594 4.10545 106.195 3.95245 105.872 3.64645C105.566 3.32345 105.413 2.92395 105.413 2.44795ZM111.734 19.0994C112.431 18.9124 112.915 18.6149 113.187 18.2069C113.476 17.7819 113.621 17.1359 113.621 16.2689V10.4804C113.621 9.57945 113.476 8.91645 113.187 8.49145C112.915 8.06645 112.431 7.76895 111.734 7.59895V7.19095L115.431 6.60445C115.669 7.06345 115.814 7.49695 115.865 7.90495C116.902 6.86795 118.211 6.34945 119.792 6.34945C121.781 6.34945 123.141 7.08045 123.872 8.54245C125.028 7.08045 126.532 6.34945 128.385 6.34945C129.881 6.34945 131.029 6.76595 131.828 7.59895C132.644 8.43195 133.052 9.63045 133.052 11.1944V16.2689C133.052 17.1359 133.188 17.7819 133.46 18.2069C133.749 18.6149 134.242 18.9124 134.939 19.0994V19.5074H128.768V19.0994C129.465 18.9124 129.949 18.6149 130.221 18.2069C130.51 17.7819 130.655 17.1359 130.655 16.2689V11.0414C130.655 9.88545 130.4 8.98445 129.89 8.33845C129.38 7.69245 128.674 7.36945 127.773 7.36945C126.787 7.36945 125.997 7.75195 125.402 8.51695C124.824 9.26495 124.535 10.2764 124.535 11.5514V16.2689C124.535 17.1359 124.671 17.7819 124.943 18.2069C125.232 18.6149 125.725 18.9124 126.422 19.0994V19.5074H120.251V19.0994C120.948 18.9124 121.432 18.6149 121.704 18.2069C121.993 17.7819 122.138 17.1359 122.138 16.2689V11.0414C122.138 9.88545 121.883 8.98445 121.373 8.33845C120.863 7.69245 120.157 7.36945 119.256 7.36945C118.27 7.36945 117.48 7.75195 116.885 8.51695C116.307 9.26495 116.018 10.2764 116.018 11.5514V16.2689C116.018 17.1359 116.154 17.7819 116.426 18.2069C116.715 18.6149 117.208 18.9124 117.905 19.0994V19.5074H111.734V19.0994ZM136.337 19.0994C137.034 18.9124 137.519 18.6149 137.791 18.2069C138.08 17.7819 138.224 17.1359 138.224 16.2689V10.4804C138.224 9.57945 138.08 8.91645 137.791 8.49145C137.519 8.06645 137.034 7.76895 136.337 7.59895V7.19095L140.443 6.60445L140.723 6.88495C140.689 7.15695 140.664 7.42045 140.647 7.67545C140.63 7.91345 140.621 8.17695 140.621 8.46595V16.2689C140.621 17.1359 140.757 17.7819 141.029 18.2069C141.318 18.6149 141.811 18.9124 142.508 19.0994V19.5074H136.337V19.0994ZM137.587 2.44795C137.587 1.95495 137.74 1.55545 138.046 1.24945C138.369 0.943446 138.768 0.790446 139.244 0.790446C139.737 0.790446 140.137 0.943446 140.443 1.24945C140.749 1.55545 140.902 1.95495 140.902 2.44795C140.902 2.92395 140.749 3.32345 140.443 3.64645C140.137 3.95245 139.737 4.10545 139.244 4.10545C138.768 4.10545 138.369 3.95245 138.046 3.64645C137.74 3.32345 137.587 2.92395 137.587 2.44795ZM143.551 6.75745H145.438V4.20745L147.656 3.85045L147.937 4.13095C147.869 4.60695 147.835 5.13395 147.835 5.71195V6.75745H151.889V7.67545H147.835V16.0649C147.835 17.6119 148.481 18.3854 149.773 18.3854C150.538 18.3854 151.192 18.0284 151.736 17.3144L152.144 17.5439C151.464 19.1249 150.334 19.9154 148.753 19.9154C146.543 19.9154 145.438 18.6149 145.438 16.0139V7.67545H143.551V6.75745ZM153.969 13.2344C153.969 11.8574 154.224 10.6589 154.734 9.63895C155.244 8.60195 155.958 7.79445 156.876 7.21645C157.794 6.63845 158.856 6.34945 160.063 6.34945C161.627 6.34945 162.877 6.85945 163.812 7.87945C164.747 8.88245 165.299 10.3274 165.469 12.2144H156.264C156.264 14.0674 156.697 15.5124 157.564 16.5494C158.431 17.5694 159.647 18.0794 161.211 18.0794C162.741 18.0794 163.914 17.5354 164.73 16.4474L165.138 16.6769C164.169 18.8359 162.477 19.9154 160.063 19.9154C158.839 19.9154 157.768 19.6434 156.85 19.0994C155.932 18.5384 155.218 17.7564 154.708 16.7534C154.215 15.7504 153.969 14.5774 153.969 13.2344ZM162.843 11.2964C162.758 10.0384 162.426 9.05245 161.848 8.33845C161.287 7.62445 160.539 7.26745 159.604 7.26745C158.669 7.26745 157.913 7.62445 157.335 8.33845C156.757 9.05245 156.417 10.0384 156.315 11.2964H162.843ZM167.316 13.4639C167.316 12.0699 167.58 10.8374 168.107 9.76645C168.634 8.69545 169.365 7.86245 170.3 7.26745C171.235 6.65545 172.306 6.34945 173.513 6.34945C174.873 6.34945 176.08 6.70645 177.134 7.42045V3.90145C177.134 3.00045 176.989 2.33745 176.7 1.91244C176.428 1.47045 175.944 1.16445 175.247 0.994446V0.586445L179.352 -5.48661e-05L179.633 0.280446C179.565 0.756446 179.531 1.28345 179.531 1.86145V16.2689C179.531 17.1359 179.667 17.7819 179.939 18.2069C180.228 18.6149 180.721 18.9124 181.418 19.0994V19.5074L177.72 19.7624C177.465 19.2694 177.321 18.7849 177.287 18.3089C176.199 19.3799 174.847 19.9154 173.232 19.9154C171.43 19.9154 169.994 19.3374 168.923 18.1814C167.852 17.0254 167.316 15.4529 167.316 13.4639ZM169.815 12.6734C169.815 13.9144 169.977 15.0024 170.3 15.9374C170.64 16.8724 171.107 17.6034 171.702 18.1304C172.314 18.6404 173.011 18.8954 173.793 18.8954C174.762 18.8954 175.561 18.5214 176.19 17.7734C176.819 17.0084 177.134 16.0394 177.134 14.8664V11.2709C177.134 10.5229 176.964 9.85145 176.624 9.25645C176.301 8.64445 175.859 8.15995 175.298 7.80295C174.737 7.44595 174.108 7.26745 173.411 7.26745C172.289 7.26745 171.405 7.74345 170.759 8.69545C170.13 9.64745 169.815 10.9734 169.815 12.6734ZM197.569 5.53345C197.569 4.51345 197.306 3.75695 196.779 3.26395C196.269 2.77095 195.665 2.52445 194.968 2.52445C193.931 2.52445 193.064 2.89845 192.367 3.64645C191.67 4.39445 191.033 5.58445 190.455 7.21645L189.995 7.13995L190.506 2.62644C191.458 2.26945 192.316 2.02295 193.081 1.88695C193.846 1.73395 194.569 1.65745 195.249 1.65745C196.813 1.65745 198.045 2.00595 198.946 2.70295C199.864 3.38295 200.323 4.36895 200.323 5.66095C200.323 6.30695 200.111 7.03795 199.686 7.85395C199.261 8.65295 198.538 9.64745 197.518 10.8374C196.515 12.0104 195.147 13.4809 193.413 15.2489L191.449 17.2634H198.079C198.827 17.2634 199.397 17.0764 199.788 16.7024C200.196 16.3284 200.587 15.6484 200.961 14.6624L201.419 14.7389L200.859 19.5074H189.001L188.823 19.0994L192.597 14.5094C193.532 13.3704 194.314 12.3759 194.943 11.5259C195.589 10.6759 196.099 9.91945 196.473 9.25645C196.864 8.59345 197.144 7.96445 197.314 7.36945C197.484 6.77445 197.569 6.16245 197.569 5.53345ZM212.941 19.0994C213.638 18.8784 214.038 18.5384 214.14 18.0794C214.259 17.6204 214.072 17.0084 213.579 16.2434L210.57 11.4749L207.433 16.2434C206.43 17.7564 206.558 18.7084 207.816 19.0994V19.5074H202.843V19.0994C204.016 18.7254 205.045 17.9009 205.929 16.6259L210.009 10.5824L206.056 4.33495C205.665 3.70595 205.257 3.20445 204.832 2.83045C204.424 2.45644 203.914 2.20145 203.302 2.06545V1.65745H210.034V2.06545C209.184 2.25245 208.725 2.57545 208.657 3.03445C208.606 3.47645 208.844 4.10545 209.371 4.92145L211.947 8.97595L214.624 4.92145C215.219 4.03745 215.483 3.36595 215.415 2.90695C215.364 2.44795 214.888 2.16745 213.987 2.06545V1.65745H219.24V2.06545C218.832 2.15045 218.475 2.26945 218.169 2.42245C217.863 2.57545 217.557 2.81345 217.251 3.13645C216.945 3.45945 216.579 3.92695 216.154 4.53895L212.508 9.86845L216.945 16.8299C217.336 17.4589 217.735 17.9434 218.143 18.2834C218.568 18.6064 219.087 18.8784 219.699 19.0994V19.5074H212.941V19.0994ZM227.505 19.0994C228.202 18.9124 228.686 18.6149 228.958 18.2069C229.247 17.7819 229.392 17.1359 229.392 16.2689V10.4804C229.392 9.57945 229.247 8.91645 228.958 8.49145C228.686 8.06645 228.202 7.76895 227.505 7.59895V7.19095L231.202 6.60445C231.44 7.06345 231.585 7.49695 231.636 7.90495C232.673 6.86795 233.982 6.34945 235.563 6.34945C237.552 6.34945 238.912 7.08045 239.643 8.54245C240.799 7.08045 242.303 6.34945 244.156 6.34945C245.652 6.34945 246.8 6.76595 247.599 7.59895C248.415 8.43195 248.823 9.63045 248.823 11.1944V16.2689C248.823 17.1359 248.959 17.7819 249.231 18.2069C249.52 18.6149 250.013 18.9124 250.71 19.0994V19.5074H244.539V19.0994C245.236 18.9124 245.72 18.6149 245.992 18.2069C246.281 17.7819 246.426 17.1359 246.426 16.2689V11.0414C246.426 9.88545 246.171 8.98445 245.661 8.33845C245.151 7.69245 244.445 7.36945 243.544 7.36945C242.558 7.36945 241.768 7.75195 241.173 8.51695C240.595 9.26495 240.306 10.2764 240.306 11.5514V16.2689C240.306 17.1359 240.442 17.7819 240.714 18.2069C241.003 18.6149 241.496 18.9124 242.193 19.0994V19.5074H236.022V19.0994C236.719 18.9124 237.203 18.6149 237.475 18.2069C237.764 17.7819 237.909 17.1359 237.909 16.2689V11.0414C237.909 9.88545 237.654 8.98445 237.144 8.33845C236.634 7.69245 235.928 7.36945 235.027 7.36945C234.041 7.36945 233.251 7.75195 232.656 8.51695C232.078 9.26495 231.789 10.2764 231.789 11.5514V16.2689C231.789 17.1359 231.925 17.7819 232.197 18.2069C232.486 18.6149 232.979 18.9124 233.676 19.0994V19.5074H227.505V19.0994ZM252.108 19.0994C252.805 18.9124 253.29 18.6149 253.562 18.2069C253.851 17.7819 253.995 17.1359 253.995 16.2689V10.4804C253.995 9.57945 253.851 8.91645 253.562 8.49145C253.29 8.06645 252.805 7.76895 252.108 7.59895V7.19095L256.214 6.60445L256.494 6.88495C256.46 7.15695 256.435 7.42045 256.418 7.67545C256.401 7.91345 256.392 8.17695 256.392 8.46595V16.2689C256.392 17.1359 256.528 17.7819 256.8 18.2069C257.089 18.6149 257.582 18.9124 258.279 19.0994V19.5074H252.108V19.0994ZM253.358 2.44795C253.358 1.95495 253.511 1.55545 253.817 1.24945C254.14 0.943446 254.539 0.790446 255.015 0.790446C255.508 0.790446 255.908 0.943446 256.214 1.24945C256.52 1.55545 256.673 1.95495 256.673 2.44795C256.673 2.92395 256.52 3.32345 256.214 3.64645C255.908 3.95245 255.508 4.10545 255.015 4.10545C254.539 4.10545 254.14 3.95245 253.817 3.64645C253.511 3.32345 253.358 2.92395 253.358 2.44795ZM259.551 19.0994C260.248 18.9124 260.733 18.6149 261.005 18.2069C261.294 17.7819 261.438 17.1444 261.438 16.2944V3.92695C261.438 3.02595 261.294 2.36295 261.005 1.93795C260.733 1.51295 260.248 1.21545 259.551 1.04545V0.637446L263.657 -5.48661e-05L263.937 0.280446C263.869 0.756446 263.835 1.29195 263.835 1.88695V16.2944C263.835 17.1444 263.971 17.7819 264.243 18.2069C264.532 18.6149 265.025 18.9124 265.722 19.0994V19.5074H259.551V19.0994ZM267.15 13.2344C267.15 11.8574 267.405 10.6589 267.915 9.63895C268.425 8.60195 269.139 7.79445 270.057 7.21645C270.975 6.63845 272.037 6.34945 273.244 6.34945C274.808 6.34945 276.058 6.85945 276.993 7.87945C277.928 8.88245 278.48 10.3274 278.65 12.2144H269.445C269.445 14.0674 269.878 15.5124 270.745 16.5494C271.612 17.5694 272.828 18.0794 274.392 18.0794C275.922 18.0794 277.095 17.5354 277.911 16.4474L278.319 16.6769C277.35 18.8359 275.658 19.9154 273.244 19.9154C272.02 19.9154 270.949 19.6434 270.031 19.0994C269.113 18.5384 268.399 17.7564 267.889 16.7534C267.396 15.7504 267.15 14.5774 267.15 13.2344ZM276.024 11.2964C275.939 10.0384 275.607 9.05245 275.029 8.33845C274.468 7.62445 273.72 7.26745 272.785 7.26745C271.85 7.26745 271.094 7.62445 270.516 8.33845C269.938 9.05245 269.598 10.0384 269.496 11.2964H276.024ZM288.275 16.9319C288.275 16.3029 288.037 15.7759 287.561 15.3509C287.085 14.9259 286.269 14.4839 285.113 14.0249C283.566 13.3959 282.47 12.7669 281.824 12.1379C281.178 11.4919 280.855 10.7524 280.855 9.91945C280.855 8.83145 281.28 7.96445 282.13 7.31845C282.997 6.67245 284.153 6.34945 285.598 6.34945C286.295 6.34945 287.017 6.43445 287.765 6.60445C288.513 6.75745 289.21 6.97845 289.856 7.26745L290.264 10.6589L289.831 10.7864C289.253 9.64745 288.573 8.78045 287.791 8.18545C287.009 7.57345 286.176 7.26745 285.292 7.26745C284.612 7.26745 284.076 7.43745 283.685 7.77745C283.311 8.10045 283.124 8.53395 283.124 9.07795C283.124 9.63895 283.362 10.1234 283.838 10.5314C284.314 10.9224 285.147 11.3559 286.337 11.8319C287.901 12.4609 288.989 13.0729 289.601 13.6679C290.23 14.2629 290.545 14.9939 290.545 15.8609C290.545 16.6429 290.332 17.3399 289.907 17.9519C289.499 18.5639 288.921 19.0484 288.173 19.4054C287.442 19.7454 286.584 19.9154 285.598 19.9154C284.918 19.9154 284.195 19.8219 283.43 19.6349C282.665 19.4649 281.9 19.2099 281.135 18.8699L280.727 15.4784L281.161 15.3509C281.739 16.5069 282.444 17.4079 283.277 18.0539C284.127 18.6829 285.02 18.9974 285.955 18.9974C286.686 18.9974 287.255 18.8104 287.663 18.4364C288.071 18.0624 288.275 17.5609 288.275 16.9319ZM298.363 6.75745H304.687V7.16545C303.99 7.23345 303.54 7.49695 303.336 7.95595C303.132 8.41495 303.191 9.02695 303.514 9.79195L306.345 16.2689L309.15 9.86845L308.691 8.84845C308.47 8.35545 308.215 7.98995 307.926 7.75195C307.654 7.51395 307.229 7.31845 306.651 7.16545V6.75745H312.975V7.16545C312.278 7.23345 311.827 7.49695 311.623 7.95595C311.419 8.41495 311.479 9.02695 311.802 9.79195L314.632 16.2689L317.463 9.79195C317.803 9.02695 317.862 8.41495 317.641 7.95595C317.437 7.49695 316.987 7.23345 316.29 7.16545V6.75745H320.931V7.16545C320.353 7.31845 319.928 7.51395 319.656 7.75195C319.384 7.98995 319.129 8.35545 318.891 8.84845L314.02 19.7624H313.561L309.66 10.9904L305.733 19.7624H305.274L300.403 8.84845C300.182 8.35545 299.927 7.98995 299.638 7.75195C299.366 7.51395 298.941 7.31845 298.363 7.16545V6.75745ZM322.134 19.0994C322.831 18.9124 323.315 18.6149 323.587 18.2069C323.876 17.7819 324.021 17.1359 324.021 16.2689V10.4804C324.021 9.57945 323.876 8.91645 323.587 8.49145C323.315 8.06645 322.831 7.76895 322.134 7.59895V7.19095L326.239 6.60445L326.52 6.88495C326.486 7.15695 326.46 7.42045 326.443 7.67545C326.426 7.91345 326.418 8.17695 326.418 8.46595V16.2689C326.418 17.1359 326.554 17.7819 326.826 18.2069C327.115 18.6149 327.608 18.9124 328.305 19.0994V19.5074H322.134V19.0994ZM323.383 2.44795C323.383 1.95495 323.536 1.55545 323.842 1.24945C324.165 0.943446 324.565 0.790446 325.041 0.790446C325.534 0.790446 325.933 0.943446 326.239 1.24945C326.545 1.55545 326.698 1.95495 326.698 2.44795C326.698 2.92395 326.545 3.32345 326.239 3.64645C325.933 3.95245 325.534 4.10545 325.041 4.10545C324.565 4.10545 324.165 3.95245 323.842 3.64645C323.536 3.32345 323.383 2.92395 323.383 2.44795ZM329.347 6.75745H331.234V4.20745L333.453 3.85045L333.733 4.13095C333.665 4.60695 333.631 5.13395 333.631 5.71195V6.75745H337.686V7.67545H333.631V16.0649C333.631 17.6119 334.277 18.3854 335.569 18.3854C336.334 18.3854 336.989 18.0284 337.533 17.3144L337.941 17.5439C337.261 19.1249 336.13 19.9154 334.549 19.9154C332.339 19.9154 331.234 18.6149 331.234 16.0139V7.67545H329.347V6.75745ZM339.861 19.0994C340.558 18.9124 341.043 18.6064 341.315 18.1814C341.604 17.7564 341.748 17.1019 341.748 16.2179V3.92695C341.748 3.02595 341.604 2.36295 341.315 1.93795C341.043 1.51295 340.558 1.21545 339.861 1.04545V0.637446L343.967 -5.48661e-05L344.247 0.280446C344.179 0.756446 344.145 1.27495 344.145 1.83595V7.80295C345.199 6.83395 346.534 6.34945 348.149 6.34945C349.713 6.34945 350.911 6.76595 351.744 7.59895C352.577 8.43195 352.994 9.63045 352.994 11.1944V16.2689C352.994 17.1359 353.13 17.7819 353.402 18.2069C353.691 18.6149 354.184 18.9124 354.881 19.0994V19.5074H348.71V19.0994C349.407 18.9124 349.891 18.6149 350.163 18.2069C350.452 17.7819 350.597 17.1359 350.597 16.2689V11.0414C350.597 9.88545 350.333 8.98445 349.806 8.33845C349.279 7.69245 348.54 7.36945 347.588 7.36945C346.534 7.36945 345.692 7.75195 345.063 8.51695C344.451 9.26495 344.145 10.2764 344.145 11.5514V16.3454C344.145 17.1954 344.281 17.8244 344.553 18.2324C344.842 18.6404 345.335 18.9294 346.032 19.0994V19.5074H339.861V19.0994ZM362.293 1.65745H369.025V2.06545C368.175 2.25245 367.648 2.59245 367.444 3.08544C367.257 3.57845 367.308 4.19045 367.597 4.92145L372.034 15.7334L376.445 4.94695C376.751 4.19895 376.76 3.56145 376.471 3.03445C376.182 2.49045 375.587 2.16745 374.686 2.06545V1.65745H379.939V2.06545C379.31 2.20145 378.851 2.49044 378.562 2.93245C378.273 3.37445 377.941 4.04595 377.567 4.94695L371.345 19.7624H370.886L364.664 4.94695C364.29 4.04595 363.95 3.37445 363.644 2.93245C363.355 2.49044 362.905 2.20145 362.293 2.06545V1.65745ZM379.061 13.2344C379.061 11.8574 379.316 10.6589 379.826 9.63895C380.336 8.60195 381.05 7.79445 381.968 7.21645C382.886 6.63845 383.949 6.34945 385.156 6.34945C386.72 6.34945 387.969 6.85945 388.904 7.87945C389.839 8.88245 390.392 10.3274 390.562 12.2144H381.356C381.356 14.0674 381.79 15.5124 382.657 16.5494C383.524 17.5694 384.739 18.0794 386.303 18.0794C387.833 18.0794 389.006 17.5354 389.822 16.4474L390.23 16.6769C389.261 18.8359 387.57 19.9154 385.156 19.9154C383.932 19.9154 382.861 19.6434 381.943 19.0994C381.025 18.5384 380.311 17.7564 379.801 16.7534C379.308 15.7504 379.061 14.5774 379.061 13.2344ZM387.935 11.2964C387.85 10.0384 387.519 9.05245 386.941 8.33845C386.38 7.62445 385.632 7.26745 384.697 7.26745C383.762 7.26745 383.005 7.62445 382.427 8.33845C381.849 9.05245 381.509 10.0384 381.407 11.2964H387.935ZM392.383 19.0994C393.08 18.9124 393.565 18.6149 393.837 18.2069C394.126 17.7819 394.27 17.1359 394.27 16.2689V10.4804C394.27 9.57945 394.126 8.91645 393.837 8.49145C393.565 8.06645 393.08 7.76895 392.383 7.59895V7.19095L396.081 6.60445C396.336 7.08045 396.48 7.53095 396.514 7.95595C397.602 6.88495 398.988 6.34945 400.671 6.34945C402.235 6.34945 403.433 6.76595 404.266 7.59895C405.099 8.43195 405.516 9.63045 405.516 11.1944V16.2689C405.516 17.1359 405.652 17.7819 405.924 18.2069C406.213 18.6149 406.706 18.9124 407.403 19.0994V19.5074H401.232V19.0994C401.929 18.9124 402.413 18.6149 402.685 18.2069C402.974 17.7819 403.119 17.1359 403.119 16.2689V11.0414C403.119 9.88545 402.855 8.98445 402.328 8.33845C401.801 7.69245 401.062 7.36945 400.11 7.36945C399.056 7.36945 398.214 7.75195 397.585 8.51695C396.973 9.26495 396.667 10.2764 396.667 11.5514V16.2689C396.667 17.1359 396.803 17.7819 397.075 18.2069C397.364 18.6149 397.857 18.9124 398.554 19.0994V19.5074H392.383V19.0994ZM408.437 6.75745H410.324V4.20745L412.542 3.85045L412.823 4.13095C412.755 4.60695 412.721 5.13395 412.721 5.71195V6.75745H416.775V7.67545H412.721V16.0649C412.721 17.6119 413.367 18.3854 414.659 18.3854C415.424 18.3854 416.078 18.0284 416.622 17.3144L417.03 17.5439C416.35 19.1249 415.22 19.9154 413.639 19.9154C411.429 19.9154 410.324 18.6149 410.324 16.0139V7.67545H408.437V6.75745ZM420.583 15.0704V10.5314C420.583 9.63045 420.439 8.96745 420.15 8.54245C419.878 8.11745 419.393 7.81995 418.696 7.64995V7.24195L422.802 6.60445L423.082 6.88495C423.014 7.36095 422.98 7.88795 422.98 8.46595V15.2234C422.98 16.3794 423.227 17.2804 423.72 17.9264C424.213 18.5724 424.901 18.8954 425.785 18.8954C426.397 18.8954 426.967 18.7424 427.494 18.4364C428.021 18.1304 428.437 17.6884 428.743 17.1104C429.066 16.5324 429.228 15.8439 429.228 15.0449V9.43495C429.228 8.82295 429.126 8.38945 428.922 8.13445C428.735 7.87945 428.301 7.69245 427.621 7.57345V7.19095L431.497 6.60445L431.727 6.83395C431.659 7.39495 431.625 7.96445 431.625 8.54245V16.2689C431.625 17.1359 431.761 17.7819 432.033 18.2069C432.322 18.6149 432.815 18.9124 433.512 19.0994V19.5074L429.814 19.7624C429.525 19.2184 429.372 18.6744 429.355 18.1304C428.284 19.3204 426.907 19.9154 425.224 19.9154C423.728 19.9154 422.581 19.4989 421.782 18.6659C420.983 17.8159 420.583 16.6174 420.583 15.0704ZM434.916 19.0994C435.613 18.9124 436.098 18.6149 436.37 18.2069C436.659 17.7819 436.803 17.1444 436.803 16.2944V10.4294C436.803 9.56245 436.659 8.91645 436.37 8.49145C436.098 8.06645 435.613 7.76895 434.916 7.59895V7.19095L438.614 6.60445C438.767 6.89345 438.877 7.15695 438.945 7.39495C439.013 7.63295 439.056 7.92195 439.073 8.26195C439.464 7.66695 439.94 7.19945 440.501 6.85945C441.079 6.51945 441.708 6.34945 442.388 6.34945C443.34 6.34945 444.181 6.65545 444.912 7.26745L445.065 10.8119L444.632 10.9139C444.105 9.70695 443.603 8.84845 443.127 8.33845C442.651 7.82845 442.116 7.57345 441.521 7.57345C440.79 7.57345 440.22 7.91345 439.812 8.59345C439.404 9.27345 439.2 10.2339 439.2 11.4749V16.2944C439.2 17.2124 439.37 17.8669 439.71 18.2579C440.05 18.6489 440.679 18.9124 441.597 19.0484V19.5074H434.916V19.0994ZM446.472 13.2344C446.472 11.8574 446.727 10.6589 447.237 9.63895C447.747 8.60195 448.461 7.79445 449.379 7.21645C450.297 6.63845 451.359 6.34945 452.566 6.34945C454.13 6.34945 455.38 6.85945 456.315 7.87945C457.25 8.88245 457.802 10.3274 457.972 12.2144H448.767C448.767 14.0674 449.2 15.5124 450.067 16.5494C450.934 17.5694 452.15 18.0794 453.714 18.0794C455.244 18.0794 456.417 17.5354 457.233 16.4474L457.641 16.6769C456.672 18.8359 454.98 19.9154 452.566 19.9154C451.342 19.9154 450.271 19.6434 449.353 19.0994C448.435 18.5384 447.721 17.7564 447.211 16.7534C446.718 15.7504 446.472 14.5774 446.472 13.2344ZM455.346 11.2964C455.261 10.0384 454.929 9.05245 454.351 8.33845C453.79 7.62445 453.042 7.26745 452.107 7.26745C451.172 7.26745 450.416 7.62445 449.838 8.33845C449.26 9.05245 448.92 10.0384 448.818 11.2964H455.346ZM475.91 19.0994C476.607 18.8784 477.006 18.5384 477.108 18.0794C477.227 17.6204 477.04 17.0084 476.547 16.2434L473.538 11.4749L470.402 16.2434C469.399 17.7564 469.526 18.7084 470.784 19.0994V19.5074H465.812V19.0994C466.985 18.7254 468.013 17.9009 468.897 16.6259L472.977 10.5824L469.025 4.33495C468.634 3.70595 468.226 3.20445 467.801 2.83045C467.393 2.45644 466.883 2.20145 466.271 2.06545V1.65745H473.003V2.06545C472.153 2.25245 471.694 2.57545 471.626 3.03445C471.575 3.47645 471.813 4.10545 472.34 4.92145L474.915 8.97595L477.593 4.92145C478.188 4.03745 478.451 3.36595 478.383 2.90695C478.332 2.44795 477.856 2.16745 476.955 2.06545V1.65745H482.208V2.06545C481.8 2.15045 481.443 2.26945 481.137 2.42245C480.831 2.57545 480.525 2.81345 480.219 3.13645C479.913 3.45945 479.548 3.92695 479.123 4.53895L475.476 9.86845L479.913 16.8299C480.304 17.4589 480.704 17.9434 481.112 18.2834C481.537 18.6064 482.055 18.8784 482.667 19.0994V19.5074H475.91V19.0994ZM490.601 19.0484C491.332 18.8614 491.842 18.5469 492.131 18.1049C492.437 17.6629 492.59 16.9914 492.59 16.0904V5.07445C492.59 4.17345 492.437 3.50195 492.131 3.05995C491.842 2.61795 491.332 2.30345 490.601 2.11645V1.65745H497.002C499.28 1.65745 501.048 2.03995 502.306 2.80495C503.564 3.56995 504.193 4.64095 504.193 6.01795C504.193 7.00395 503.861 7.83695 503.198 8.51695C502.535 9.19695 501.583 9.69845 500.342 10.0214C501.923 10.2764 503.147 10.8034 504.014 11.6024C504.881 12.3844 505.315 13.3874 505.315 14.6114C505.315 16.1584 504.626 17.3654 503.249 18.2324C501.872 19.0824 499.943 19.5074 497.461 19.5074H490.601V19.0484ZM495.14 15.9884C495.14 16.8724 495.293 17.5184 495.599 17.9264C495.905 18.3344 496.398 18.5384 497.078 18.5384H497.843C499.305 18.5384 500.461 18.2324 501.311 17.6204C502.178 17.0084 502.612 16.1074 502.612 14.9174C502.612 13.6594 502.144 12.6564 501.209 11.9084C500.274 11.1434 499.025 10.7609 497.461 10.7609H495.14V15.9884ZM501.566 6.45145C501.566 5.29545 501.099 4.36895 500.164 3.67194C499.229 2.97494 497.979 2.62644 496.415 2.62644H495.14V9.79195H496.313C498.03 9.79195 499.331 9.51145 500.215 8.95045C501.116 8.37245 501.566 7.53945 501.566 6.45145ZM508.09 15.0704V10.5314C508.09 9.63045 507.945 8.96745 507.656 8.54245C507.384 8.11745 506.9 7.81995 506.203 7.64995V7.24195L510.308 6.60445L510.589 6.88495C510.521 7.36095 510.487 7.88795 510.487 8.46595V15.2234C510.487 16.3794 510.733 17.2804 511.226 17.9264C511.719 18.5724 512.408 18.8954 513.292 18.8954C513.904 18.8954 514.473 18.7424 515 18.4364C515.527 18.1304 515.944 17.6884 516.25 17.1104C516.573 16.5324 516.734 15.8439 516.734 15.0449V9.43495C516.734 8.82295 516.632 8.38945 516.428 8.13445C516.241 7.87945 515.808 7.69245 515.128 7.57345V7.19095L519.004 6.60445L519.233 6.83395C519.165 7.39495 519.131 7.96445 519.131 8.54245V16.2689C519.131 17.1359 519.267 17.7819 519.539 18.2069C519.828 18.6149 520.321 18.9124 521.018 19.0994V19.5074L517.321 19.7624C517.032 19.2184 516.879 18.6744 516.862 18.1304C515.791 19.3204 514.414 19.9154 512.731 19.9154C511.235 19.9154 510.087 19.4989 509.288 18.6659C508.489 17.8159 508.09 16.6174 508.09 15.0704ZM530.226 16.9319C530.226 16.3029 529.988 15.7759 529.512 15.3509C529.036 14.9259 528.22 14.4839 527.064 14.0249C525.517 13.3959 524.421 12.7669 523.775 12.1379C523.129 11.4919 522.806 10.7524 522.806 9.91945C522.806 8.83145 523.231 7.96445 524.081 7.31845C524.948 6.67245 526.104 6.34945 527.549 6.34945C528.246 6.34945 528.968 6.43445 529.716 6.60445C530.464 6.75745 531.161 6.97845 531.807 7.26745L532.215 10.6589L531.782 10.7864C531.204 9.64745 530.524 8.78045 529.742 8.18545C528.96 7.57345 528.127 7.26745 527.243 7.26745C526.563 7.26745 526.027 7.43745 525.636 7.77745C525.262 8.10045 525.075 8.53395 525.075 9.07795C525.075 9.63895 525.313 10.1234 525.789 10.5314C526.265 10.9224 527.098 11.3559 528.288 11.8319C529.852 12.4609 530.94 13.0729 531.552 13.6679C532.181 14.2629 532.496 14.9939 532.496 15.8609C532.496 16.6429 532.283 17.3399 531.858 17.9519C531.45 18.5639 530.872 19.0484 530.124 19.4054C529.393 19.7454 528.535 19.9154 527.549 19.9154C526.869 19.9154 526.146 19.8219 525.381 19.6349C524.616 19.4649 523.851 19.2099 523.086 18.8699L522.678 15.4784L523.112 15.3509C523.69 16.5069 524.395 17.4079 525.228 18.0539C526.078 18.6829 526.971 18.9974 527.906 18.9974C528.637 18.9974 529.206 18.8104 529.614 18.4364C530.022 18.0624 530.226 17.5609 530.226 16.9319ZM534.526 19.0994C535.223 18.9124 535.707 18.6149 535.979 18.2069C536.268 17.7819 536.413 17.1359 536.413 16.2689V10.4804C536.413 9.57945 536.268 8.91645 535.979 8.49145C535.707 8.06645 535.223 7.76895 534.526 7.59895V7.19095L538.631 6.60445L538.912 6.88495C538.878 7.15695 538.852 7.42045 538.835 7.67545C538.818 7.91345 538.81 8.17695 538.81 8.46595V16.2689C538.81 17.1359 538.946 17.7819 539.218 18.2069C539.507 18.6149 540 18.9124 540.697 19.0994V19.5074H534.526V19.0994ZM535.775 2.44795C535.775 1.95495 535.928 1.55545 536.234 1.24945C536.557 0.943446 536.957 0.790446 537.433 0.790446C537.926 0.790446 538.325 0.943446 538.631 1.24945C538.937 1.55545 539.09 1.95495 539.09 2.44795C539.09 2.92395 538.937 3.32345 538.631 3.64645C538.325 3.95245 537.926 4.10545 537.433 4.10545C536.957 4.10545 536.557 3.95245 536.234 3.64645C535.928 3.32345 535.775 2.92395 535.775 2.44795ZM542.096 19.0994C542.793 18.9124 543.278 18.6149 543.55 18.2069C543.839 17.7819 543.983 17.1359 543.983 16.2689V10.4804C543.983 9.57945 543.839 8.91645 543.55 8.49145C543.278 8.06645 542.793 7.76895 542.096 7.59895V7.19095L545.794 6.60445C546.049 7.08045 546.193 7.53095 546.227 7.95595C547.315 6.88495 548.701 6.34945 550.384 6.34945C551.948 6.34945 553.146 6.76595 553.979 7.59895C554.812 8.43195 555.229 9.63045 555.229 11.1944V16.2689C555.229 17.1359 555.365 17.7819 555.637 18.2069C555.926 18.6149 556.419 18.9124 557.116 19.0994V19.5074H550.945V19.0994C551.642 18.9124 552.126 18.6149 552.398 18.2069C552.687 17.7819 552.832 17.1359 552.832 16.2689V11.0414C552.832 9.88545 552.568 8.98445 552.041 8.33845C551.514 7.69245 550.775 7.36945 549.823 7.36945C548.769 7.36945 547.927 7.75195 547.298 8.51695C546.686 9.26495 546.38 10.2764 546.38 11.5514V16.2689C546.38 17.1359 546.516 17.7819 546.788 18.2069C547.077 18.6149 547.57 18.9124 548.267 19.0994V19.5074H542.096V19.0994ZM558.532 13.2344C558.532 11.8574 558.787 10.6589 559.297 9.63895C559.807 8.60195 560.521 7.79445 561.439 7.21645C562.357 6.63845 563.42 6.34945 564.627 6.34945C566.191 6.34945 567.44 6.85945 568.375 7.87945C569.31 8.88245 569.863 10.3274 570.033 12.2144H560.827C560.827 14.0674 561.261 15.5124 562.128 16.5494C562.995 17.5694 564.21 18.0794 565.774 18.0794C567.304 18.0794 568.477 17.5354 569.293 16.4474L569.701 16.6769C568.732 18.8359 567.041 19.9154 564.627 19.9154C563.403 19.9154 562.332 19.6434 561.414 19.0994C560.496 18.5384 559.782 17.7564 559.272 16.7534C558.779 15.7504 558.532 14.5774 558.532 13.2344ZM567.406 11.2964C567.321 10.0384 566.99 9.05245 566.412 8.33845C565.851 7.62445 565.103 7.26745 564.168 7.26745C563.233 7.26745 562.476 7.62445 561.898 8.33845C561.32 9.05245 560.98 10.0384 560.878 11.2964H567.406ZM579.657 16.9319C579.657 16.3029 579.419 15.7759 578.943 15.3509C578.467 14.9259 577.651 14.4839 576.495 14.0249C574.948 13.3959 573.852 12.7669 573.206 12.1379C572.56 11.4919 572.237 10.7524 572.237 9.91945C572.237 8.83145 572.662 7.96445 573.512 7.31845C574.379 6.67245 575.535 6.34945 576.98 6.34945C577.677 6.34945 578.399 6.43445 579.147 6.60445C579.895 6.75745 580.592 6.97845 581.238 7.26745L581.646 10.6589L581.213 10.7864C580.635 9.64745 579.955 8.78045 579.173 8.18545C578.391 7.57345 577.558 7.26745 576.674 7.26745C575.994 7.26745 575.458 7.43745 575.067 7.77745C574.693 8.10045 574.506 8.53395 574.506 9.07795C574.506 9.63895 574.744 10.1234 575.22 10.5314C575.696 10.9224 576.529 11.3559 577.719 11.8319C579.283 12.4609 580.371 13.0729 580.983 13.6679C581.612 14.2629 581.927 14.9939 581.927 15.8609C581.927 16.6429 581.714 17.3399 581.289 17.9519C580.881 18.5639 580.303 19.0484 579.555 19.4054C578.824 19.7454 577.966 19.9154 576.98 19.9154C576.3 19.9154 575.577 19.8219 574.812 19.6349C574.047 19.4649 573.282 19.2099 572.517 18.8699L572.109 15.4784L572.543 15.3509C573.121 16.5069 573.826 17.4079 574.659 18.0539C575.509 18.6829 576.402 18.9974 577.337 18.9974C578.068 18.9974 578.637 18.8104 579.045 18.4364C579.453 18.0624 579.657 17.5609 579.657 16.9319ZM591.76 16.9319C591.76 16.3029 591.522 15.7759 591.046 15.3509C590.57 14.9259 589.754 14.4839 588.598 14.0249C587.051 13.3959 585.954 12.7669 585.308 12.1379C584.662 11.4919 584.339 10.7524 584.339 9.91945C584.339 8.83145 584.764 7.96445 585.614 7.31845C586.481 6.67245 587.637 6.34945 589.082 6.34945C589.779 6.34945 590.502 6.43445 591.25 6.60445C591.998 6.75745 592.695 6.97845 593.341 7.26745L593.749 10.6589L593.315 10.7864C592.737 9.64745 592.057 8.78045 591.275 8.18545C590.493 7.57345 589.66 7.26745 588.776 7.26745C588.096 7.26745 587.561 7.43745 587.17 7.77745C586.796 8.10045 586.609 8.53395 586.609 9.07795C586.609 9.63895 586.847 10.1234 587.323 10.5314C587.799 10.9224 588.632 11.3559 589.822 11.8319C591.386 12.4609 592.474 13.0729 593.086 13.6679C593.715 14.2629 594.029 14.9939 594.029 15.8609C594.029 16.6429 593.817 17.3399 593.392 17.9519C592.984 18.5639 592.406 19.0484 591.658 19.4054C590.927 19.7454 590.068 19.9154 589.082 19.9154C588.402 19.9154 587.68 19.8219 586.915 19.6349C586.15 19.4649 585.385 19.2099 584.62 18.8699L584.212 15.4784L584.645 15.3509C585.223 16.5069 585.929 17.4079 586.762 18.0539C587.612 18.6829 588.504 18.9974 589.439 18.9974C590.17 18.9974 590.74 18.8104 591.148 18.4364C591.556 18.0624 591.76 17.5609 591.76 16.9319Z" fill="white"/>
</svg>
