<svg width="209" height="14" viewBox="0 0 209 14" fill="none" xmlns="http://www.w3.org/2000/svg">
<path d="M204.543 10.4679C204.925 10.3468 205.144 10.1605 205.2 9.9089C205.265 9.65733 205.162 9.32191 204.892 8.90264L203.243 6.28915L201.524 8.90264C200.974 9.73187 201.044 10.2536 201.734 10.4679V10.6915H199.008V10.4679C199.651 10.263 200.215 9.81107 200.699 9.11227L202.936 5.79999L200.769 2.3759C200.555 2.03116 200.331 1.7563 200.098 1.55132C199.875 1.34634 199.595 1.20659 199.26 1.13205V0.908432H202.95V1.13205C202.484 1.23454 202.232 1.41156 202.195 1.66313C202.167 1.90538 202.297 2.25012 202.586 2.69735L203.998 4.91951L205.465 2.69735C205.791 2.21285 205.936 1.84482 205.898 1.59325C205.87 1.34168 205.61 1.18795 205.116 1.13205V0.908432H207.995V1.13205C207.771 1.17863 207.576 1.24385 207.408 1.32771C207.24 1.41156 207.072 1.54201 206.905 1.71903C206.737 1.89606 206.537 2.15229 206.304 2.48771L204.305 5.40867L206.737 9.22408C206.951 9.56882 207.17 9.83436 207.394 10.0207C207.627 10.1977 207.911 10.3468 208.246 10.4679V10.6915H204.543V10.4679Z" fill="white"/>
<path d="M188.408 7.25347C188.408 6.49877 188.548 5.8419 188.828 5.28287C189.107 4.71452 189.499 4.27195 190.002 3.95516C190.505 3.63838 191.087 3.47998 191.749 3.47998C192.606 3.47998 193.291 3.7595 193.803 4.31853C194.316 4.86825 194.618 5.66022 194.712 6.69443H189.666C189.666 7.71001 189.904 8.50198 190.379 9.07033C190.854 9.62937 191.52 9.90889 192.378 9.90889C193.216 9.90889 193.859 9.61074 194.306 9.01443L194.53 9.14021C193.999 10.3235 193.072 10.9151 191.749 10.9151C191.078 10.9151 190.491 10.7661 189.988 10.4679C189.485 10.1605 189.093 9.73186 188.814 9.18214C188.544 8.63242 188.408 7.98953 188.408 7.25347ZM193.272 6.1913C193.225 5.50182 193.044 4.96143 192.727 4.5701C192.42 4.17878 192.01 3.98311 191.497 3.98311C190.985 3.98311 190.57 4.17878 190.253 4.5701C189.936 4.96143 189.75 5.50182 189.694 6.1913H193.272Z" fill="white"/>
<path d="M182.075 10.4679C182.457 10.3654 182.723 10.2024 182.872 9.97877C183.03 9.74583 183.11 9.39644 183.11 8.93057V5.71612C183.11 5.24094 183.03 4.88689 182.872 4.65396C182.723 4.42102 182.457 4.25797 182.075 4.1648V3.94118L184.102 3.61974C184.186 3.77813 184.246 3.92255 184.284 4.05299C184.321 4.18343 184.344 4.34183 184.354 4.52817C184.568 4.20207 184.829 3.94584 185.136 3.7595C185.453 3.57315 185.798 3.47998 186.17 3.47998C186.692 3.47998 187.153 3.64769 187.554 3.98311L187.638 5.92576L187.4 5.98166C187.111 5.32014 186.837 4.84962 186.576 4.5701C186.315 4.29058 186.021 4.15082 185.695 4.15082C185.295 4.15082 184.982 4.33717 184.759 4.70986C184.535 5.08255 184.423 5.60897 184.423 6.28913V8.93057C184.423 9.43371 184.517 9.79242 184.703 10.0067C184.889 10.221 185.234 10.3654 185.737 10.44V10.6915H182.075V10.4679Z" fill="white"/>
<path d="M174.22 8.25974V5.77204C174.22 5.27822 174.14 4.91485 173.982 4.68192C173.833 4.44899 173.567 4.28594 173.185 4.19276V3.96915L175.435 3.61975L175.589 3.77349C175.552 4.03437 175.533 4.3232 175.533 4.63999V8.3436C175.533 8.97717 175.668 9.47099 175.939 9.82504C176.209 10.1791 176.586 10.3561 177.071 10.3561C177.406 10.3561 177.718 10.2723 178.007 10.1046C178.296 9.93685 178.524 9.6946 178.692 9.37782C178.869 9.06103 178.957 8.68368 178.957 8.24577V5.17107C178.957 4.83565 178.901 4.59806 178.79 4.45831C178.687 4.31855 178.45 4.21606 178.077 4.15084V3.9412L180.201 3.61975L180.327 3.74553C180.29 4.053 180.271 4.36513 180.271 4.68192V8.91661C180.271 9.39179 180.346 9.74585 180.495 9.97878C180.653 10.2024 180.923 10.3654 181.305 10.4679V10.6915L179.279 10.8313C179.12 10.5332 179.037 10.235 179.027 9.93685C178.44 10.5891 177.686 10.9152 176.763 10.9152C175.943 10.9152 175.314 10.6869 174.876 10.2303C174.438 9.76448 174.22 9.10761 174.22 8.25974Z" fill="white"/>
<path d="M167.562 3.7036H168.597V2.30601L169.813 2.11035L169.966 2.26409C169.929 2.52497 169.91 2.8138 169.91 3.13059V3.7036H172.133V4.20673H169.91V8.8048C169.91 9.65267 170.265 10.0766 170.973 10.0766C171.392 10.0766 171.751 9.88094 172.049 9.48962L172.272 9.6154C171.9 10.4819 171.28 10.9152 170.414 10.9152C169.202 10.9152 168.597 10.2024 168.597 8.77685V4.20673H167.562V3.7036Z" fill="white"/>
<path d="M158.764 10.4679C159.146 10.3654 159.411 10.2024 159.561 9.97877C159.719 9.74583 159.798 9.39178 159.798 8.9166V5.74407C159.798 5.25026 159.719 4.88689 159.561 4.65396C159.411 4.42102 159.146 4.25797 158.764 4.1648V3.94118L160.79 3.61974C160.93 3.88062 161.009 4.12753 161.028 4.36046C161.624 3.77347 162.384 3.47998 163.306 3.47998C164.163 3.47998 164.82 3.70825 165.277 4.1648C165.733 4.62134 165.962 5.27821 165.962 6.1354V8.9166C165.962 9.39178 166.036 9.74583 166.185 9.97877C166.344 10.2024 166.614 10.3654 166.996 10.4679V10.6915H163.614V10.4679C163.996 10.3654 164.261 10.2024 164.41 9.97877C164.569 9.74583 164.648 9.39178 164.648 8.9166V6.05154C164.648 5.41797 164.503 4.92416 164.215 4.5701C163.926 4.21605 163.52 4.03902 162.999 4.03902C162.421 4.03902 161.96 4.24865 161.615 4.66793C161.28 5.07789 161.112 5.63227 161.112 6.33106V8.9166C161.112 9.39178 161.186 9.74583 161.335 9.97877C161.494 10.2024 161.764 10.3654 162.146 10.4679V10.6915H158.764V10.4679Z" fill="white"/>
<path d="M151.462 7.25347C151.462 6.49877 151.602 5.8419 151.882 5.28287C152.161 4.71452 152.553 4.27195 153.056 3.95516C153.559 3.63838 154.141 3.47998 154.803 3.47998C155.66 3.47998 156.345 3.7595 156.857 4.31853C157.37 4.86825 157.672 5.66022 157.766 6.69443H152.72C152.72 7.71001 152.958 8.50198 153.433 9.07033C153.908 9.62937 154.574 9.90889 155.432 9.90889C156.27 9.90889 156.913 9.61074 157.36 9.01443L157.584 9.14021C157.053 10.3235 156.126 10.9151 154.803 10.9151C154.132 10.9151 153.545 10.7661 153.042 10.4679C152.539 10.1605 152.147 9.73186 151.868 9.18214C151.598 8.63242 151.462 7.98953 151.462 7.25347ZM156.326 6.1913C156.279 5.50182 156.098 4.96143 155.781 4.5701C155.473 4.17878 155.064 3.98311 154.551 3.98311C154.039 3.98311 153.624 4.17878 153.307 4.5701C152.99 4.96143 152.804 5.50182 152.748 6.1913H156.326Z" fill="white"/>
<path d="M142.272 0.908432H145.962V1.13205C145.496 1.23454 145.207 1.42088 145.095 1.69108C144.993 1.96128 145.021 2.2967 145.179 2.69735L147.611 8.62312L150.029 2.71132C150.197 2.30136 150.201 1.95196 150.043 1.66313C149.884 1.36498 149.558 1.18795 149.064 1.13205V0.908432H151.944V1.13205C151.599 1.20659 151.347 1.36498 151.189 1.60723C151.03 1.84948 150.849 2.21751 150.644 2.71132L147.234 10.8313H146.982L143.572 2.71132C143.367 2.21751 143.181 1.84948 143.013 1.60723C142.855 1.36498 142.608 1.20659 142.272 1.13205V0.908432Z" fill="white"/>
<path d="M129.978 10.4679C130.36 10.3654 130.626 10.1977 130.775 9.9648C130.933 9.73187 131.012 9.37316 131.012 8.88866V2.15229C131.012 1.65847 130.933 1.2951 130.775 1.06217C130.626 0.829236 130.36 0.666184 129.978 0.573011V0.349398L132.228 0L132.382 0.153736C132.345 0.414619 132.326 0.698794 132.326 1.00626V4.27662C132.904 3.74554 133.635 3.47999 134.52 3.47999C135.377 3.47999 136.034 3.70827 136.491 4.16481C136.947 4.62136 137.176 5.27822 137.176 6.13541V8.91661C137.176 9.39179 137.25 9.74585 137.399 9.97878C137.558 10.2024 137.828 10.3654 138.21 10.4679V10.6915H134.828V10.4679C135.21 10.3654 135.475 10.2024 135.624 9.97878C135.783 9.74585 135.862 9.39179 135.862 8.91661V6.05156C135.862 5.41798 135.717 4.92417 135.429 4.57011C135.14 4.21606 134.734 4.03903 134.213 4.03903C133.635 4.03903 133.174 4.24867 132.829 4.66794C132.494 5.0779 132.326 5.63228 132.326 6.33107V8.95854C132.326 9.4244 132.401 9.76914 132.55 9.99276C132.708 10.2164 132.978 10.3748 133.36 10.4679V10.6915H129.978V10.4679Z" fill="white"/>
<path d="M124.216 3.7036H125.25V2.30601L126.466 2.11035L126.619 2.26409C126.582 2.52497 126.564 2.8138 126.564 3.13059V3.7036H128.786V4.20673H126.564V8.8048C126.564 9.65267 126.918 10.0766 127.626 10.0766C128.045 10.0766 128.404 9.88094 128.702 9.48962L128.925 9.6154C128.553 10.4819 127.933 10.9152 127.067 10.9152C125.855 10.9152 125.25 10.2024 125.25 8.77685V4.20673H124.216V3.7036Z" fill="white"/>
<path d="M120.262 10.4679C120.644 10.3654 120.91 10.2024 121.059 9.97877C121.217 9.74584 121.296 9.39178 121.296 8.9166V5.74408C121.296 5.25026 121.217 4.88689 121.059 4.65396C120.91 4.42103 120.644 4.25798 120.262 4.1648V3.94119L122.512 3.61974L122.666 3.77348C122.647 3.92255 122.633 4.06697 122.624 4.20673C122.615 4.33717 122.61 4.48159 122.61 4.63998V8.9166C122.61 9.39178 122.685 9.74584 122.834 9.97877C122.992 10.2024 123.262 10.3654 123.644 10.4679V10.6915H120.262V10.4679ZM120.947 1.34167C120.947 1.07147 121.031 0.852519 121.199 0.684809C121.376 0.517098 121.595 0.433243 121.855 0.433243C122.126 0.433243 122.345 0.517098 122.512 0.684809C122.68 0.852519 122.764 1.07147 122.764 1.34167C122.764 1.60256 122.68 1.82151 122.512 1.99854C122.345 2.16625 122.126 2.25011 121.855 2.25011C121.595 2.25011 121.376 2.16625 121.199 1.99854C121.031 1.82151 120.947 1.60256 120.947 1.34167Z" fill="white"/>
<path d="M107.234 3.7036H110.7V3.92721C110.318 3.96448 110.071 4.1089 109.959 4.36046C109.848 4.61203 109.88 4.94745 110.057 5.36673L111.609 8.9166L113.146 5.40866L112.894 4.84962C112.773 4.57942 112.633 4.3791 112.475 4.24866C112.326 4.11822 112.093 4.01107 111.776 3.92721V3.7036H115.242V3.92721C114.86 3.96448 114.613 4.1089 114.502 4.36046C114.39 4.61203 114.422 4.94745 114.599 5.36673L116.151 8.9166L117.702 5.36673C117.888 4.94745 117.921 4.61203 117.8 4.36046C117.688 4.1089 117.441 3.96448 117.059 3.92721V3.7036H119.603V3.92721C119.286 4.01107 119.053 4.11822 118.904 4.24866C118.755 4.3791 118.615 4.57942 118.485 4.84962L115.815 10.8313H115.564L113.425 6.02359L111.273 10.8313H111.022L108.352 4.84962C108.231 4.57942 108.091 4.3791 107.933 4.24866C107.784 4.11822 107.551 4.01107 107.234 3.92721V3.7036Z" fill="white"/>
<path d="M98.2292 3.7036H99.2635V2.30601L100.479 2.11035L100.633 2.26409C100.596 2.52497 100.577 2.8138 100.577 3.13059V3.7036H102.799V4.20673H100.577V8.8048C100.577 9.65267 100.931 10.0766 101.639 10.0766C102.059 10.0766 102.417 9.88094 102.716 9.48962L102.939 9.6154C102.566 10.4819 101.947 10.9152 101.08 10.9152C99.8691 10.9152 99.2635 10.2024 99.2635 8.77685V4.20673H98.2292V3.7036Z" fill="white"/>
<path d="M94.2756 10.4679C94.6576 10.3654 94.9232 10.2024 95.0723 9.97877C95.2307 9.74584 95.3098 9.39178 95.3098 8.9166V5.74408C95.3098 5.25026 95.2307 4.88689 95.0723 4.65396C94.9232 4.42103 94.6576 4.25798 94.2756 4.1648V3.94119L96.5257 3.61974L96.6795 3.77348C96.6608 3.92255 96.6469 4.06697 96.6376 4.20673C96.6282 4.33717 96.6236 4.48159 96.6236 4.63998V8.9166C96.6236 9.39178 96.6981 9.74584 96.8472 9.97877C97.0056 10.2024 97.2758 10.3654 97.6578 10.4679V10.6915H94.2756V10.4679ZM94.9604 1.34167C94.9604 1.07147 95.0443 0.852519 95.212 0.684809C95.389 0.517098 95.608 0.433243 95.8689 0.433243C96.1391 0.433243 96.358 0.517098 96.5257 0.684809C96.6935 0.852519 96.7773 1.07147 96.7773 1.34167C96.7773 1.60256 96.6935 1.82151 96.5257 1.99854C96.358 2.16625 96.1391 2.25011 95.8689 2.25011C95.608 2.25011 95.389 2.16625 95.212 1.99854C95.0443 1.82151 94.9604 1.60256 94.9604 1.34167Z" fill="white"/>
<path d="M85.2798 10.4679C85.6618 10.3654 85.9273 10.1977 86.0764 9.9648C86.2348 9.73187 86.314 9.37316 86.314 8.88866V2.15229C86.314 1.65847 86.2348 1.2951 86.0764 1.06217C85.9273 0.829236 85.6618 0.666184 85.2798 0.573011V0.349398L87.5299 0L87.6836 0.153736C87.6464 0.414619 87.6277 0.698794 87.6277 1.00626V4.27662C88.2054 3.74554 88.9368 3.47999 89.822 3.47999C90.6791 3.47999 91.336 3.70827 91.7925 4.16481C92.2491 4.62136 92.4774 5.27822 92.4774 6.13541V8.91661C92.4774 9.39179 92.5519 9.74585 92.701 9.97878C92.8594 10.2024 93.1296 10.3654 93.5116 10.4679V10.6915H90.1294V10.4679C90.5114 10.3654 90.777 10.2024 90.926 9.97878C91.0844 9.74585 91.1636 9.39179 91.1636 8.91661V6.05156C91.1636 5.41798 91.0192 4.92417 90.7304 4.57011C90.4416 4.21606 90.0362 4.03903 89.5145 4.03903C88.9368 4.03903 88.4756 4.24867 88.1309 4.66794C87.7954 5.0779 87.6277 5.63228 87.6277 6.33107V8.95854C87.6277 9.4244 87.7023 9.76914 87.8513 9.99276C88.0097 10.2164 88.2799 10.3748 88.6619 10.4679V10.6915H85.2798V10.4679Z" fill="white"/>
<path d="M74.2256 12.173C74.2256 11.4742 74.6588 10.9338 75.5253 10.5518C75.2831 10.4586 75.1014 10.3235 74.9803 10.1465C74.8685 9.96945 74.8126 9.76913 74.8126 9.54551C74.8126 9.35917 74.8638 9.16816 74.9663 8.9725C75.0688 8.77684 75.2039 8.58584 75.3716 8.39949L75.6232 8.11997C75.2598 7.89636 74.9756 7.60753 74.7706 7.25347C74.5657 6.8901 74.4632 6.48014 74.4632 6.02359C74.4632 5.52046 74.589 5.07789 74.8405 4.69588C75.0921 4.31388 75.4415 4.01572 75.8887 3.80143C76.3359 3.58713 76.8531 3.47998 77.44 3.47998C77.9245 3.47998 78.3671 3.55452 78.7677 3.7036H80.948V4.20673H79.6203C79.8718 4.43034 80.0675 4.70054 80.2073 5.01733C80.347 5.3248 80.4169 5.66488 80.4169 6.03757C80.4169 6.5407 80.2911 6.98327 80.0396 7.36528C79.788 7.74728 79.4386 8.04544 78.9914 8.25973C78.5535 8.47403 78.0363 8.58118 77.44 8.58118C76.9462 8.58118 76.4943 8.50198 76.0844 8.34359L75.8328 8.63708C75.6837 8.79547 75.6092 8.93523 75.6092 9.05636C75.6092 9.27066 75.8235 9.4011 76.2521 9.44768L78.7538 9.6713C79.5085 9.73652 80.0815 9.93218 80.4728 10.2583C80.8641 10.5751 81.0598 11.0037 81.0598 11.5441C81.0598 12.0379 80.9014 12.4665 80.5846 12.8298C80.2771 13.2025 79.8392 13.4867 79.2709 13.6824C78.7118 13.878 78.055 13.9759 77.3003 13.9759C76.3406 13.9759 75.5859 13.8128 75.0362 13.4867C74.4958 13.1699 74.2256 12.732 74.2256 12.173ZM75.7629 5.88383C75.7629 6.53604 75.9306 7.06712 76.2661 7.47708C76.6015 7.87773 77.0347 8.07805 77.5658 8.07805C78.041 8.07805 78.4184 7.90568 78.6979 7.56094C78.9774 7.2162 79.1171 6.755 79.1171 6.17733C79.1171 5.52512 78.9494 4.99869 78.614 4.59805C78.2786 4.18809 77.8453 3.98311 77.3143 3.98311C76.8391 3.98311 76.4617 4.15548 76.1822 4.50022C75.9027 4.84496 75.7629 5.30616 75.7629 5.88383ZM75.2039 11.9074C75.2039 12.4199 75.4089 12.8066 75.8188 13.0674C76.2381 13.3376 76.8111 13.4727 77.5379 13.4727C78.2833 13.4727 78.8656 13.3376 79.2849 13.0674C79.7134 12.7972 79.9277 12.4292 79.9277 11.9633C79.9277 11.6093 79.788 11.3484 79.5085 11.1807C79.229 11.013 78.7351 10.8965 78.027 10.8313L76.1123 10.6636C75.5067 10.9524 75.2039 11.367 75.2039 11.9074Z" fill="white"/>
<path d="M70.1045 10.4679C70.4865 10.3654 70.752 10.2024 70.9011 9.97877C71.0595 9.74584 71.1387 9.39178 71.1387 8.9166V5.74408C71.1387 5.25026 71.0595 4.88689 70.9011 4.65396C70.752 4.42103 70.4865 4.25798 70.1045 4.1648V3.94119L72.3546 3.61974L72.5083 3.77348C72.4897 3.92255 72.4757 4.06697 72.4664 4.20673C72.4571 4.33717 72.4524 4.48159 72.4524 4.63998V8.9166C72.4524 9.39178 72.527 9.74584 72.676 9.97877C72.8344 10.2024 73.1046 10.3654 73.4867 10.4679V10.6915H70.1045V10.4679ZM70.7893 1.34167C70.7893 1.07147 70.8732 0.852519 71.0409 0.684809C71.2179 0.517098 71.4369 0.433243 71.6977 0.433243C71.9679 0.433243 72.1869 0.517098 72.3546 0.684809C72.5223 0.852519 72.6062 1.07147 72.6062 1.34167C72.6062 1.60256 72.5223 1.82151 72.3546 1.99854C72.1869 2.16625 71.9679 2.25011 71.6977 2.25011C71.4369 2.25011 71.2179 2.16625 71.0409 1.99854C70.8732 1.82151 70.7893 1.60256 70.7893 1.34167Z" fill="white"/>
<path d="M62.4141 2.15229C62.4141 1.65847 62.3349 1.2951 62.1765 1.06217C62.0274 0.829236 61.7619 0.666184 61.3799 0.573011V0.349398L63.63 0L63.7837 0.153736C63.7465 0.414619 63.7278 0.708112 63.7278 1.03422V4.26264C64.2869 3.74088 64.995 3.47999 65.8522 3.47999C66.8491 3.47999 67.6411 3.80144 68.2281 4.44433C68.8151 5.0779 69.1085 5.94907 69.1085 7.05782C69.1085 7.84047 68.9548 8.52063 68.6473 9.0983C68.3492 9.67597 67.9206 10.1232 67.3616 10.44C66.8025 10.7568 66.127 10.9152 65.3351 10.9152C64.8226 10.9152 64.3008 10.8453 63.7698 10.7055C63.248 10.5658 62.7961 10.3654 62.4141 10.1046V2.15229ZM67.7389 7.44914C67.7389 6.76898 67.6457 6.17268 67.4594 5.66023C67.2824 5.14778 67.0308 4.7518 66.7047 4.47228C66.3786 4.18345 65.9966 4.03903 65.5587 4.03903C65.0276 4.03903 64.5897 4.24867 64.2449 4.66794C63.9002 5.0779 63.7278 5.60433 63.7278 6.24722V8.21782C63.7278 8.62778 63.8163 9.00047 63.9934 9.33589C64.1797 9.66199 64.4266 9.92288 64.7341 10.1185C65.0416 10.3142 65.3863 10.412 65.7683 10.412C66.3833 10.412 66.8631 10.1511 67.2078 9.62938C67.5619 9.10762 67.7389 8.38087 67.7389 7.44914Z" fill="white"/>
<path d="M50.4441 9.07033C50.4441 8.61379 50.5885 8.21315 50.8773 7.86841C51.1662 7.52367 51.5715 7.25813 52.0932 7.07178C52.615 6.87612 53.2206 6.77829 53.9101 6.77829C54.2548 6.77829 54.6042 6.80158 54.9583 6.84817V5.95371C54.9583 5.33877 54.8185 4.85893 54.539 4.5142C54.2688 4.16014 53.8915 3.98311 53.407 3.98311C52.4846 3.98311 51.7066 4.6493 51.073 5.98166L50.8354 5.91179L51.059 3.98311C51.8976 3.64769 52.7128 3.47998 53.5048 3.47998C54.3899 3.47998 55.0701 3.7036 55.5453 4.15082C56.0298 4.58873 56.272 5.22231 56.272 6.05154V9.46166C56.272 9.94616 56.463 10.1884 56.845 10.1884C56.9848 10.1884 57.1106 10.1372 57.2224 10.0347L57.4041 10.1744C57.1152 10.6123 56.7193 10.8313 56.2161 10.8313C55.6385 10.8313 55.2611 10.5611 55.0841 10.0207C54.525 10.617 53.803 10.9151 52.9178 10.9151C52.1538 10.9151 51.5482 10.7521 51.101 10.426C50.663 10.0906 50.4441 9.63869 50.4441 9.07033ZM51.8137 8.90262C51.8137 9.35917 51.9535 9.71788 52.233 9.97877C52.5218 10.2396 52.8945 10.3701 53.3511 10.3701C53.8076 10.3701 54.1896 10.1837 54.4971 9.81106C54.8046 9.43837 54.9583 8.87933 54.9583 8.13395V7.33732C54.8092 7.31869 54.6648 7.30471 54.525 7.2954C54.3946 7.28608 54.2642 7.28142 54.1337 7.28142C53.3977 7.28142 52.8247 7.42584 52.4147 7.71467C52.0141 7.99419 51.8137 8.39017 51.8137 8.90262Z" fill="white"/>
<path d="M44.3002 9.27997C44.3002 8.93523 44.1698 8.6464 43.9089 8.41347C43.648 8.18054 43.2008 7.93829 42.5672 7.68672C41.7193 7.34198 41.1183 6.99724 40.7643 6.65251C40.4102 6.29845 40.2332 5.89315 40.2332 5.43661C40.2332 4.8403 40.4661 4.36512 40.932 4.01106C41.4072 3.65701 42.0408 3.47998 42.8327 3.47998C43.2147 3.47998 43.6107 3.52657 44.0207 3.61974C44.4306 3.7036 44.8126 3.82472 45.1667 3.98311L45.3903 5.84191L45.1527 5.91179C44.8359 5.28753 44.4632 4.81235 44.0346 4.48624C43.6061 4.15082 43.1495 3.98311 42.665 3.98311C42.2923 3.98311 41.9988 4.07629 41.7845 4.26263C41.5796 4.43966 41.4771 4.67725 41.4771 4.9754C41.4771 5.28287 41.6075 5.54841 41.8684 5.77203C42.1293 5.98632 42.5858 6.22391 43.238 6.48479C44.0952 6.82953 44.6915 7.16495 45.0269 7.49106C45.3717 7.81716 45.544 8.21781 45.544 8.69299C45.544 9.12158 45.4276 9.50359 45.1946 9.83901C44.971 10.1744 44.6542 10.44 44.2443 10.6356C43.8436 10.822 43.3731 10.9151 42.8327 10.9151C42.46 10.9151 42.0641 10.8639 41.6448 10.7614C41.2255 10.6682 40.8062 10.5285 40.3869 10.3421L40.1633 8.48335L40.4009 8.41347C40.7177 9.04704 41.1044 9.54085 41.5609 9.89491C42.0268 10.2396 42.5159 10.412 43.0284 10.412C43.429 10.412 43.7412 10.3095 43.9648 10.1045C44.1884 9.89957 44.3002 9.62471 44.3002 9.27997Z" fill="white"/>
<path d="M31.213 3.7036H34.7209V3.92721C34.3483 3.96448 34.0967 4.1089 33.9662 4.36046C33.8451 4.61203 33.8824 4.94745 34.0781 5.36673L35.825 9.07034L37.614 5.36673C37.8189 4.94745 37.8562 4.61203 37.7258 4.36046C37.5953 4.1089 37.3438 3.96448 36.9711 3.92721V3.7036H39.5566V3.92721C39.2398 4.01107 39.0069 4.12287 38.8578 4.26263C38.7087 4.39307 38.569 4.58874 38.4385 4.84962L35.3499 11.0829C34.9865 11.8189 34.665 12.3966 34.3855 12.8159C34.106 13.2445 33.8358 13.5426 33.5749 13.7103C33.314 13.8874 33.0299 13.9759 32.7224 13.9759C32.3497 13.9759 32.0329 13.8594 31.772 13.6265C31.5112 13.4029 31.2782 13.0348 31.0732 12.5224L31.2689 12.3966C31.623 12.7507 32.0702 12.9277 32.6106 12.9277C33.0765 12.9277 33.4911 12.7693 33.8544 12.4525C34.2178 12.145 34.5719 11.6372 34.9166 10.9291L35.0983 10.5658L32.3311 4.84962C32.2099 4.58874 32.0748 4.39307 31.9258 4.26263C31.7767 4.12287 31.5391 4.01107 31.213 3.92721V3.7036Z" fill="white"/>
<path d="M24.335 9.07033C24.335 8.61379 24.4794 8.21315 24.7682 7.86841C25.057 7.52367 25.4623 7.25813 25.9841 7.07178C26.5059 6.87612 27.1115 6.77829 27.801 6.77829C28.1457 6.77829 28.4951 6.80158 28.8492 6.84817V5.95371C28.8492 5.33877 28.7094 4.85893 28.4299 4.5142C28.1597 4.16014 27.7823 3.98311 27.2978 3.98311C26.3754 3.98311 25.5974 4.6493 24.9639 5.98166L24.7263 5.91179L24.9499 3.98311C25.7885 3.64769 26.6037 3.47998 27.3957 3.47998C28.2808 3.47998 28.961 3.7036 29.4362 4.15082C29.9207 4.58873 30.1629 5.22231 30.1629 6.05154V9.46166C30.1629 9.94616 30.3539 10.1884 30.7359 10.1884C30.8757 10.1884 31.0015 10.1372 31.1133 10.0347L31.2949 10.1744C31.0061 10.6123 30.6101 10.8313 30.107 10.8313C29.5293 10.8313 29.152 10.5611 28.975 10.0207C28.4159 10.617 27.6938 10.9151 26.8087 10.9151C26.0447 10.9151 25.4391 10.7521 24.9918 10.426C24.5539 10.0906 24.335 9.63869 24.335 9.07033ZM25.7046 8.90262C25.7046 9.35917 25.8444 9.71788 26.1239 9.97877C26.4127 10.2396 26.7854 10.3701 27.2419 10.3701C27.6985 10.3701 28.0805 10.1837 28.388 9.81106C28.6954 9.43837 28.8492 8.87933 28.8492 8.13395V7.33732C28.7001 7.31869 28.5557 7.30471 28.4159 7.2954C28.2855 7.28608 28.155 7.28142 28.0246 7.28142C27.2885 7.28142 26.7155 7.42584 26.3056 7.71467C25.9049 7.99419 25.7046 8.39017 25.7046 8.90262Z" fill="white"/>
<path d="M11.3411 3.7036H14.8071V3.92721C14.4251 3.96448 14.1782 4.1089 14.0664 4.36046C13.9546 4.61203 13.9872 4.94745 14.1642 5.36673L15.7155 8.9166L17.2529 5.40866L17.0013 4.84962C16.8802 4.57942 16.7404 4.3791 16.582 4.24866C16.4329 4.11822 16.2 4.01107 15.8832 3.92721V3.7036H19.3492V3.92721C18.9672 3.96448 18.7203 4.1089 18.6085 4.36046C18.4967 4.61203 18.5293 4.94745 18.7064 5.36673L20.2577 8.9166L21.809 5.36673C21.9953 4.94745 22.028 4.61203 21.9068 4.36046C21.795 4.1089 21.5481 3.96448 21.1661 3.92721V3.7036H23.7097V3.92721C23.3929 4.01107 23.16 4.11822 23.0109 4.24866C22.8618 4.3791 22.7221 4.57942 22.5916 4.84962L19.9223 10.8313H19.6707L17.5324 6.02359L15.3801 10.8313H15.1285L12.4591 4.84962C12.338 4.57942 12.1983 4.3791 12.0399 4.24866C11.8908 4.11822 11.6579 4.01107 11.3411 3.92721V3.7036Z" fill="white"/>
<path d="M7.51172 10.4679C7.89373 10.3654 8.15927 10.2024 8.30834 9.97878C8.46674 9.74585 8.54593 9.39645 8.54593 8.93059V2.15229C8.54593 1.65847 8.46674 1.2951 8.30834 1.06217C8.15927 0.829236 7.89373 0.666184 7.51172 0.573011V0.349398L9.76184 0L9.91557 0.153736C9.8783 0.414619 9.85967 0.708112 9.85967 1.03422V8.93059C9.85967 9.39645 9.93421 9.74585 10.0833 9.97878C10.2417 10.2024 10.5119 10.3654 10.8939 10.4679V10.6915H7.51172V10.4679Z" fill="white"/>
<path d="M0 9.07033C0 8.61379 0.144417 8.21315 0.433252 7.86841C0.722087 7.52367 1.12739 7.25813 1.64915 7.07178C2.17092 6.87612 2.77654 6.77829 3.46602 6.77829C3.81076 6.77829 4.16015 6.80158 4.51421 6.84817V5.95371C4.51421 5.33877 4.37445 4.85893 4.09493 4.5142C3.82473 4.16014 3.44738 3.98311 2.96289 3.98311C2.04048 3.98311 1.26249 4.6493 0.628915 5.98166L0.391325 5.91179L0.614939 3.98311C1.45349 3.64769 2.26875 3.47998 3.06072 3.47998C3.94586 3.47998 4.62602 3.7036 5.1012 4.15082C5.58569 4.58873 5.82794 5.22231 5.82794 6.05154V9.46166C5.82794 9.94616 6.01895 10.1884 6.40095 10.1884C6.54071 10.1884 6.6665 10.1372 6.7783 10.0347L6.95999 10.1744C6.67115 10.6123 6.27517 10.8313 5.77204 10.8313C5.19437 10.8313 4.81702 10.5611 4.63999 10.0207C4.08096 10.617 3.35887 10.9151 2.47373 10.9151C1.70972 10.9151 1.10409 10.7521 0.656866 10.426C0.218956 10.0906 0 9.63869 0 9.07033ZM1.36964 8.90262C1.36964 9.35917 1.5094 9.71788 1.78891 9.97877C2.07775 10.2396 2.45044 10.3701 2.90698 10.3701C3.36353 10.3701 3.74554 10.1837 4.05301 9.81106C4.36047 9.43837 4.51421 8.87933 4.51421 8.13395V7.33732C4.36513 7.31869 4.22072 7.30471 4.08096 7.2954C3.95052 7.28608 3.82007 7.28142 3.68963 7.28142C2.95357 7.28142 2.38056 7.42584 1.9706 7.71467C1.56996 7.99419 1.36964 8.39017 1.36964 8.90262Z" fill="white"/>
</svg>
