<svg width="327" height="56" viewBox="0 0 327 56" fill="none" xmlns="http://www.w3.org/2000/svg">
<path d="M7.45752 17.1039C7.45752 15.5282 7.80758 14.3322 8.51583 13.516C9.22408 12.6918 10.2498 12.2877 11.5931 12.2877C12.9363 12.2877 13.9621 12.6998 14.6703 13.516C15.3786 14.3403 15.7286 15.5362 15.7286 17.1039C15.7286 18.6716 15.3786 19.8757 14.6703 20.6918C13.9621 21.5161 12.9363 21.9201 11.5931 21.9201C10.2498 21.9201 9.22408 21.508 8.51583 20.6918C7.80758 19.8676 7.45752 18.6716 7.45752 17.1039ZM9.46017 17.1039C9.46017 18.2514 9.63113 19.0999 9.98118 19.6332C10.3231 20.1666 10.8685 20.4332 11.6012 20.4332C12.3339 20.4332 12.8712 20.1666 13.2212 19.6332C13.5713 19.0999 13.7423 18.2514 13.7423 17.1039C13.7423 15.9564 13.5713 15.1079 13.2212 14.5746C12.8793 14.0413 12.3339 13.7746 11.6012 13.7746C10.8685 13.7746 10.3231 14.0413 9.98118 14.5746C9.63927 15.1079 9.46017 15.9564 9.46017 17.1039Z" fill="white"/>
<path d="M22.3228 21.7102V16.2071H19.4572V21.7102H17.6662V16.2071H16.6567V15.0192L17.6662 14.9788V13.896C17.6662 13.1526 17.8697 12.5626 18.2849 12.1344C18.7001 11.7061 19.2618 11.496 19.9863 11.496C20.4585 11.496 20.89 11.5687 21.2889 11.7222V12.9344C20.9714 12.8536 20.6946 12.8132 20.4504 12.8132C20.1329 12.8132 19.8887 12.902 19.7177 13.0717C19.5467 13.2414 19.4572 13.4919 19.4572 13.8313V14.9465H22.3228V13.896C22.3228 13.1526 22.5263 12.5626 22.9415 12.1344C23.3485 11.7061 23.9184 11.496 24.6429 11.496C25.0255 11.496 25.4163 11.5606 25.8071 11.698V12.9101C25.5628 12.8455 25.3267 12.8212 25.1069 12.8212C24.7895 12.8212 24.5452 12.9101 24.3661 13.0798C24.187 13.2495 24.1056 13.5 24.1056 13.8394V14.9546H25.7257V16.2071H24.1056V21.7102H22.3146H22.3228ZM27.8667 13.8879C27.5329 13.8879 27.2724 13.799 27.0852 13.6212C26.8979 13.4435 26.8084 13.201 26.8084 12.894C26.8084 12.5869 26.8979 12.3445 27.0852 12.1667C27.2724 11.9889 27.5329 11.9 27.8667 11.9C28.2005 11.9 28.4691 11.9889 28.6564 12.1667C28.8436 12.3445 28.9413 12.5869 28.9413 12.894C28.9413 13.201 28.8436 13.4435 28.6564 13.6212C28.4691 13.799 28.2005 13.8879 27.8667 13.8879ZM26.9793 21.7102V15.0839L28.7703 14.9142V21.7102H26.9793Z" fill="white"/>
<path d="M35.5186 21.4596C34.8429 21.7667 34.1428 21.9202 33.4102 21.9202C32.3681 21.9202 31.5622 21.6132 31.0005 20.999C30.4387 20.3849 30.1538 19.504 30.1538 18.3485C30.1538 17.1929 30.4306 16.2959 31.0005 15.6737C31.5622 15.0515 32.3681 14.7363 33.4183 14.7363C34.1021 14.7363 34.786 14.8899 35.4779 15.1969V16.498C34.8429 16.2394 34.2731 16.1182 33.7765 16.1182C32.6123 16.1182 32.0262 16.8535 32.0262 18.3162C32.0262 19.0434 32.1727 19.5929 32.474 19.9727C32.7752 20.3525 33.2066 20.5303 33.7846 20.5303C34.2812 20.5303 34.8592 20.401 35.5268 20.1505V21.4515L35.5186 21.4596Z" fill="white"/>
<path d="M37.7419 13.8879C37.4081 13.8879 37.1476 13.799 36.9604 13.6213C36.7731 13.4435 36.6836 13.201 36.6836 12.894C36.6836 12.5869 36.7731 12.3445 36.9604 12.1667C37.1476 11.9889 37.4081 11.9 37.7419 11.9C38.0757 11.9 38.3443 11.9889 38.5316 12.1667C38.7188 12.3445 38.8165 12.5869 38.8165 12.894C38.8165 13.201 38.7188 13.4435 38.5316 13.6213C38.3443 13.799 38.0757 13.8879 37.7419 13.8879ZM36.8546 21.7102V15.0839L38.6455 14.9142V21.7102H36.8546Z" fill="white"/>
<path d="M44.5147 21.7505L44.4089 21.3142C43.7169 21.7182 43.025 21.9202 42.3411 21.9202C41.6573 21.9202 41.0712 21.7263 40.6478 21.3384C40.2245 20.9505 40.021 20.4333 40.021 19.7707C40.021 19.1081 40.2571 18.5667 40.7211 18.1869C41.1851 17.8071 41.8364 17.6212 42.6749 17.6212C43.1715 17.6212 43.6762 17.6697 44.1891 17.7667V17.2414C44.1891 16.8374 44.067 16.5384 43.8309 16.3525C43.5948 16.1666 43.2204 16.0697 42.7156 16.0697C42.0399 16.0697 41.2991 16.2232 40.485 16.5141V15.2212C40.8676 15.0757 41.2828 14.9545 41.7469 14.8656C42.2027 14.7767 42.6424 14.7363 43.0494 14.7363C43.9856 14.7363 44.702 14.9464 45.2067 15.3666C45.7033 15.7868 45.9557 16.3929 45.9557 17.1848V21.597L44.5229 21.7425L44.5147 21.7505ZM42.8866 20.6435C43.082 20.6435 43.2936 20.6111 43.5297 20.5546C43.7658 20.4899 43.9856 20.4172 44.1891 20.3202V18.8818C43.7821 18.7849 43.4157 18.7364 43.0901 18.7364C42.2434 18.7364 41.812 19.0596 41.812 19.7142C41.812 20.0212 41.9015 20.2556 42.0806 20.4091C42.2597 20.5707 42.5284 20.6435 42.8866 20.6435Z" fill="white"/>
<path d="M47.6084 21.7102V11.803L49.3994 11.6333V21.7102H47.6084Z" fill="white"/>
<path d="M54.6011 21.7105V12.676C55.0325 12.5872 55.5454 12.5144 56.1316 12.4659C56.7177 12.4175 57.2387 12.3851 57.6946 12.3851C58.8018 12.3851 59.6403 12.5872 60.2183 13.0074C60.7963 13.4195 61.0812 14.0175 61.0812 14.8094C61.0812 15.7872 60.5602 16.466 59.5182 16.8619C60.1613 17.0236 60.6579 17.2983 60.9916 17.6943C61.3254 18.0902 61.4964 18.5832 61.4964 19.1731C61.4964 19.9892 61.2033 20.6195 60.6172 21.0559C60.031 21.4923 59.2007 21.7185 58.1098 21.7185H54.6092L54.6011 21.7105ZM57.6132 13.767C57.0678 13.767 56.6526 13.7993 56.3676 13.8559V16.3286H57.8249C58.2889 16.3286 58.6471 16.2155 58.9157 15.9892C59.1844 15.7629 59.3146 15.4478 59.3146 15.0437C59.3146 14.6155 59.1762 14.2922 58.8994 14.0821C58.6227 13.872 58.1912 13.767 57.6213 13.767H57.6132ZM58.0365 20.3286C59.0948 20.3286 59.6321 19.8923 59.6321 19.0115C59.6321 18.5832 59.4937 18.2518 59.2169 18.0175C58.9402 17.7832 58.5412 17.67 58.0284 17.67H56.3676V20.3286H58.0365Z" fill="white"/>
<path d="M66.9835 21.7505L66.8777 21.3142C66.1857 21.7182 65.4937 21.9202 64.8099 21.9202C64.1261 21.9202 63.5399 21.7263 63.1166 21.3384C62.6933 20.9505 62.4897 20.4333 62.4897 19.7707C62.4897 19.1081 62.7258 18.5667 63.1899 18.1869C63.6539 17.8071 64.3052 17.6212 65.1437 17.6212C65.6403 17.6212 66.145 17.6697 66.6579 17.7667V17.2414C66.6579 16.8374 66.5357 16.5384 66.2997 16.3525C66.0636 16.1666 65.6891 16.0697 65.1844 16.0697C64.5087 16.0697 63.7679 16.2232 62.9538 16.5141V15.2212C63.3364 15.0757 63.7516 14.9545 64.2156 14.8656C64.6715 14.7767 65.1111 14.7363 65.5181 14.7363C66.4543 14.7363 67.1707 14.9464 67.6755 15.3666C68.1721 15.7868 68.4244 16.3929 68.4244 17.1848V21.597L66.9916 21.7425L66.9835 21.7505ZM65.3553 20.6435C65.5507 20.6435 65.7624 20.6111 65.9985 20.5546C66.2345 20.4899 66.4543 20.4172 66.6579 20.3202V18.8818C66.2508 18.7849 65.8845 18.7364 65.5589 18.7364C64.7122 18.7364 64.2807 19.0596 64.2807 19.7142C64.2807 20.0212 64.3703 20.2556 64.5494 20.4091C64.7285 20.5707 64.9971 20.6435 65.3553 20.6435Z" fill="white"/>
<path d="M74.2446 21.7101V17.2737C74.2446 16.8777 74.1551 16.5868 73.976 16.4009C73.7969 16.2151 73.5201 16.1181 73.1375 16.1181C72.9258 16.1181 72.706 16.1504 72.4699 16.2151C72.242 16.2797 72.0384 16.3686 71.8593 16.4737V21.7182H70.0684V15.0676L71.5011 14.9221L71.607 15.3585C72.299 14.9545 72.9746 14.7524 73.6503 14.7524C74.4074 14.7524 74.9936 14.9545 75.4088 15.3504C75.8239 15.7464 76.0275 16.3121 76.0275 17.0393V21.7182H74.2365L74.2446 21.7101Z" fill="white"/>
<path d="M77.7051 21.7102V11.803L79.4961 11.6333V17.7424L81.8488 14.9465H83.8677L81.2626 17.9768L84.0631 21.7021H81.8976L79.4961 18.4778V21.7021H77.7051V21.7102Z" fill="white"/>
<path d="M92.3912 21.7505L92.2854 21.3142C91.5934 21.7182 90.9014 21.9202 90.2176 21.9202C89.5338 21.9202 88.9476 21.7263 88.5243 21.3384C88.101 20.9505 87.8975 20.4333 87.8975 19.7707C87.8975 19.1081 88.1335 18.5667 88.5976 18.1869C89.0616 17.8071 89.7129 17.6212 90.5514 17.6212C91.048 17.6212 91.5527 17.6697 92.0656 17.7667V17.2414C92.0656 16.8374 91.9435 16.5384 91.7074 16.3525C91.4713 16.1666 91.0968 16.0697 90.5921 16.0697C89.9164 16.0697 89.1756 16.2232 88.3615 16.5141V15.2212C88.7441 15.0757 89.1593 14.9545 89.6233 14.8656C90.0792 14.7767 90.5188 14.7363 90.9259 14.7363C91.8621 14.7363 92.5785 14.9464 93.0832 15.3666C93.5798 15.7868 93.8321 16.3929 93.8321 17.1848V21.597L92.3994 21.7425L92.3912 21.7505ZM90.763 20.6435C90.9584 20.6435 91.1701 20.6111 91.4062 20.5546C91.6423 20.4899 91.8621 20.4172 92.0656 20.3202V18.8818C91.6585 18.7849 91.2922 18.7364 90.9666 18.7364C90.1199 18.7364 89.6885 19.0596 89.6885 19.7142C89.6885 20.0212 89.778 20.2556 89.9571 20.4091C90.1362 20.5707 90.4048 20.6435 90.763 20.6435Z" fill="white"/>
<path d="M99.6528 21.7101V17.2737C99.6528 16.8777 99.5633 16.5868 99.3842 16.4009C99.2051 16.2151 98.9283 16.1181 98.5457 16.1181C98.334 16.1181 98.1142 16.1504 97.8781 16.2151C97.6502 16.2797 97.4466 16.3686 97.2675 16.4737V21.7182H95.4766V15.0676L96.9093 14.9221L97.0152 15.3585C97.7072 14.9545 98.3828 14.7524 99.0585 14.7524C99.8156 14.7524 100.402 14.9545 100.817 15.3504C101.232 15.7464 101.436 16.3121 101.436 17.0393V21.7182H99.6447L99.6528 21.7101Z" fill="white"/>
<path d="M109.071 11.6333V21.6051L107.639 21.7506L107.533 21.3142C107.215 21.5001 106.881 21.6455 106.523 21.7586C106.165 21.8718 105.848 21.9203 105.555 21.9203C104.683 21.9203 104.008 21.6132 103.519 20.999C103.031 20.3849 102.787 19.5283 102.787 18.4455C102.787 17.2657 103.08 16.3606 103.658 15.7141C104.236 15.0677 105.05 14.7444 106.108 14.7444C106.491 14.7444 106.881 14.7929 107.289 14.8899V11.8111L109.08 11.6414L109.071 11.6333ZM106.059 20.5546C106.246 20.5546 106.45 20.5223 106.678 20.4576C106.906 20.393 107.101 20.3041 107.28 20.199V16.1586C107.004 16.0939 106.711 16.0697 106.401 16.0697C105.807 16.0697 105.367 16.2636 105.082 16.6434C104.797 17.0232 104.651 17.6132 104.651 18.4132C104.651 19.8435 105.123 20.5627 106.059 20.5627V20.5546Z" fill="white"/>
<path d="M120.583 21.3141C119.785 21.7181 118.922 21.9202 117.978 21.9202C116.675 21.9202 115.674 21.4999 114.958 20.6676C114.241 19.8353 113.891 18.6474 113.891 17.0959C113.891 15.5443 114.249 14.3969 114.966 13.5484C115.682 12.6999 116.683 12.2797 117.978 12.2797C118.89 12.2797 119.736 12.4817 120.526 12.8857V14.3484C120.103 14.1463 119.728 14.0009 119.394 13.9201C119.069 13.8393 118.702 13.7989 118.303 13.7989C117.514 13.7989 116.92 14.0736 116.521 14.6312C116.122 15.1888 115.918 16.013 115.918 17.1039C115.918 19.31 116.716 20.409 118.303 20.409C118.686 20.409 119.052 20.3686 119.394 20.2797C119.744 20.1908 120.135 20.0535 120.567 19.8595V21.3222L120.583 21.3141Z" fill="white"/>
<path d="M122 21.7102V15.0597L123.433 14.9142L123.579 15.5364C124.133 15.0354 124.752 14.7849 125.427 14.7849C125.639 14.7849 125.859 14.8172 126.095 14.8738V16.3364C125.826 16.2718 125.598 16.2476 125.395 16.2476C124.784 16.2476 124.255 16.4172 123.799 16.7486V21.7183H122.008L122 21.7102Z" fill="white"/>
<path d="M132.599 21.4435C131.956 21.7586 131.239 21.9202 130.45 21.9202C129.286 21.9202 128.39 21.6132 127.771 20.999C127.153 20.3849 126.843 19.4879 126.843 18.3081C126.843 17.5889 126.982 16.9586 127.258 16.4172C127.535 15.8757 127.918 15.4636 128.406 15.1727C128.895 14.8818 129.448 14.7363 130.075 14.7363C130.963 14.7363 131.655 14.9868 132.159 15.4959C132.664 16.005 132.916 16.6919 132.916 17.5727C132.916 17.9848 132.876 18.3889 132.794 18.7848H128.602C128.634 19.399 128.83 19.8515 129.172 20.1505C129.513 20.4495 130.018 20.595 130.669 20.595C131.321 20.595 131.98 20.4495 132.591 20.1586V21.4515L132.599 21.4435ZM130.075 15.9808C129.66 15.9808 129.318 16.1262 129.058 16.4091C128.797 16.6919 128.634 17.0798 128.594 17.5727H131.272V17.3788C131.272 16.9182 131.166 16.5707 130.963 16.3363C130.759 16.102 130.466 15.9808 130.075 15.9808Z" fill="white"/>
<path d="M140.268 11.6333V21.6051L138.835 21.7506L138.729 21.3142C138.412 21.5001 138.078 21.6455 137.72 21.7586C137.361 21.8718 137.044 21.9203 136.751 21.9203C135.88 21.9203 135.204 21.6132 134.716 20.999C134.227 20.3849 133.983 19.5283 133.983 18.4455C133.983 17.2657 134.276 16.3606 134.854 15.7141C135.432 15.0677 136.246 14.7444 137.304 14.7444C137.687 14.7444 138.078 14.7929 138.485 14.8899V11.8111L140.276 11.6414L140.268 11.6333ZM137.256 20.5546C137.443 20.5546 137.646 20.5223 137.874 20.4576C138.102 20.393 138.298 20.3041 138.477 20.199V16.1586C138.2 16.0939 137.907 16.0697 137.597 16.0697C137.003 16.0697 136.564 16.2636 136.279 16.6434C135.994 17.0232 135.847 17.6132 135.847 18.4132C135.847 19.8435 136.319 20.5627 137.256 20.5627V20.5546Z" fill="white"/>
<path d="M142.881 13.8879C142.547 13.8879 142.286 13.799 142.099 13.6213C141.912 13.4435 141.822 13.201 141.822 12.894C141.822 12.5869 141.912 12.3445 142.099 12.1667C142.286 11.9889 142.547 11.9 142.881 11.9C143.214 11.9 143.483 11.9889 143.67 12.1667C143.857 12.3445 143.955 12.5869 143.955 12.894C143.955 13.201 143.857 13.4435 143.67 13.6213C143.483 13.799 143.214 13.8879 142.881 13.8879ZM141.993 21.7102V15.0839L143.784 14.9142V21.7102H141.993Z" fill="white"/>
<path d="M147.724 16.207V19.5929C147.724 20.2475 148.042 20.5788 148.669 20.5788C148.897 20.5788 149.181 20.5303 149.515 20.4333V21.6293C149.125 21.8071 148.677 21.896 148.172 21.896C147.439 21.896 146.878 21.7101 146.503 21.3303C146.121 20.9505 145.933 20.401 145.933 19.6818V16.207H144.924V15.0191L146.023 14.9787L146.145 13.2818L147.724 13.1121V14.9545H149.475V16.207H147.724Z" fill="white"/>
<path d="M160.506 21.3141C159.708 21.7181 158.845 21.9202 157.901 21.9202C156.598 21.9202 155.597 21.4999 154.88 20.6676C154.164 19.8353 153.814 18.6474 153.814 17.0959C153.814 15.5443 154.172 14.3969 154.889 13.5484C155.605 12.6999 156.606 12.2797 157.901 12.2797C158.812 12.2797 159.659 12.4817 160.449 12.8857V14.3484C160.025 14.1463 159.651 14.0009 159.317 13.9201C158.992 13.8393 158.625 13.7989 158.226 13.7989C157.437 13.7989 156.842 14.0736 156.443 14.6312C156.045 15.1888 155.841 16.013 155.841 17.1039C155.841 19.31 156.639 20.409 158.226 20.409C158.609 20.409 158.975 20.3686 159.317 20.2797C159.667 20.1908 160.058 20.0535 160.489 19.8595V21.3222L160.506 21.3141Z" fill="white"/>
<path d="M166.082 21.7505L165.976 21.3142C165.284 21.7182 164.592 21.9202 163.909 21.9202C163.225 21.9202 162.639 21.7263 162.215 21.3384C161.792 20.9505 161.588 20.4333 161.588 19.7707C161.588 19.1081 161.824 18.5667 162.288 18.1869C162.753 17.8071 163.404 17.6212 164.242 17.6212C164.739 17.6212 165.244 17.6697 165.756 17.7667V17.2414C165.756 16.8374 165.634 16.5384 165.398 16.3525C165.162 16.1666 164.788 16.0697 164.283 16.0697C163.607 16.0697 162.866 16.2232 162.052 16.5141V15.2212C162.435 15.0757 162.85 14.9545 163.314 14.8656C163.77 14.7767 164.21 14.7363 164.617 14.7363C165.553 14.7363 166.269 14.9464 166.774 15.3666C167.271 15.7868 167.523 16.3929 167.523 17.1848V21.597L166.09 21.7425L166.082 21.7505ZM164.454 20.6435C164.649 20.6435 164.861 20.6111 165.097 20.5546C165.333 20.4899 165.553 20.4172 165.756 20.3202V18.8818C165.349 18.7849 164.983 18.7364 164.657 18.7364C163.811 18.7364 163.379 19.0596 163.379 19.7142C163.379 20.0212 163.469 20.2556 163.648 20.4091C163.827 20.5707 164.096 20.6435 164.454 20.6435Z" fill="white"/>
<path d="M169.167 21.7102V15.0597L170.6 14.9142L170.747 15.5364C171.3 15.0354 171.919 14.7849 172.595 14.7849C172.806 14.7849 173.026 14.8172 173.262 14.8738V16.3364C172.994 16.2718 172.766 16.2476 172.562 16.2476C171.952 16.2476 171.423 16.4172 170.967 16.7486V21.7183H169.176L169.167 21.7102Z" fill="white"/>
<path d="M180.304 11.6333V21.6051L178.871 21.7506L178.765 21.3142C178.448 21.5001 178.114 21.6455 177.756 21.7586C177.397 21.8718 177.08 21.9203 176.787 21.9203C175.916 21.9203 175.24 21.6132 174.752 20.999C174.263 20.3849 174.019 19.5283 174.019 18.4455C174.019 17.2657 174.312 16.3606 174.89 15.7141C175.468 15.0677 176.282 14.7444 177.341 14.7444C177.723 14.7444 178.114 14.7929 178.521 14.8899V11.8111L180.312 11.6414L180.304 11.6333ZM177.292 20.5546C177.479 20.5546 177.682 20.5223 177.91 20.4576C178.138 20.393 178.334 20.3041 178.513 20.199V16.1586C178.236 16.0939 177.943 16.0697 177.634 16.0697C177.039 16.0697 176.6 16.2636 176.315 16.6434C176.03 17.0232 175.883 17.6132 175.883 18.4132C175.883 19.8435 176.355 20.5627 177.292 20.5627V20.5546Z" fill="white"/>
<path d="M185.506 21.7105V12.676C185.97 12.5872 186.483 12.5144 187.045 12.4659C187.607 12.4175 188.103 12.3851 188.518 12.3851C189.707 12.3851 190.619 12.6437 191.254 13.1609C191.889 13.6781 192.206 14.4134 192.206 15.3751C192.206 16.3367 191.872 17.064 191.205 17.5973C190.537 18.1306 189.617 18.4054 188.453 18.4054H187.362V21.7105H185.506ZM188.453 13.7912C188.046 13.7912 187.68 13.8154 187.362 13.872V16.9912H188.453C189.048 16.9912 189.503 16.8539 189.821 16.5791C190.138 16.3044 190.301 15.9084 190.301 15.3831C190.301 14.3245 189.683 13.7912 188.453 13.7912Z" fill="white"/>
<path d="M197.408 21.7505L197.302 21.3142C196.61 21.7182 195.919 21.9202 195.235 21.9202C194.551 21.9202 193.965 21.7263 193.541 21.3384C193.118 20.9505 192.915 20.4333 192.915 19.7707C192.915 19.1081 193.151 18.5667 193.615 18.1869C194.079 17.8071 194.73 17.6212 195.568 17.6212C196.065 17.6212 196.57 17.6697 197.083 17.7667V17.2414C197.083 16.8374 196.961 16.5384 196.724 16.3525C196.488 16.1666 196.114 16.0697 195.609 16.0697C194.933 16.0697 194.193 16.2232 193.379 16.5141V15.2212C193.761 15.0757 194.176 14.9545 194.64 14.8656C195.096 14.7767 195.536 14.7363 195.943 14.7363C196.879 14.7363 197.596 14.9464 198.1 15.3666C198.597 15.7868 198.849 16.3929 198.849 17.1848V21.597L197.416 21.7425L197.408 21.7505ZM195.78 20.6435C195.976 20.6435 196.187 20.6111 196.423 20.5546C196.659 20.4899 196.879 20.4172 197.083 20.3202V18.8818C196.676 18.7849 196.309 18.7364 195.984 18.7364C195.137 18.7364 194.706 19.0596 194.706 19.7142C194.706 20.0212 194.795 20.2556 194.974 20.4091C195.153 20.5707 195.422 20.6435 195.78 20.6435Z" fill="white"/>
<path d="M200.501 21.7102V15.0597L201.934 14.9142L202.081 15.5364C202.634 15.0354 203.253 14.7849 203.929 14.7849C204.14 14.7849 204.36 14.8172 204.596 14.8738V16.3364C204.328 16.2718 204.1 16.2476 203.896 16.2476C203.286 16.2476 202.756 16.4172 202.301 16.7486V21.7183H200.51L200.501 21.7102Z" fill="white"/>
<path d="M207.894 16.207V19.5929C207.894 20.2475 208.211 20.5788 208.838 20.5788C209.066 20.5788 209.351 20.5303 209.685 20.4333V21.6293C209.294 21.8071 208.846 21.896 208.341 21.896C207.609 21.896 207.047 21.7101 206.673 21.3303C206.29 20.9505 206.103 20.401 206.103 19.6818V16.207H205.093V15.0191L206.192 14.9787L206.314 13.2818L207.894 13.1121V14.9545H209.644V16.207H207.894Z" fill="white"/>
<path d="M215.058 21.7101V17.2737C215.058 16.8777 214.968 16.5868 214.789 16.4009C214.61 16.2151 214.333 16.1181 213.95 16.1181C213.739 16.1181 213.519 16.1504 213.283 16.2151C213.055 16.2797 212.851 16.3686 212.672 16.4737V21.7182H210.881V15.0676L212.314 14.9221L212.42 15.3585C213.112 14.9545 213.788 14.7524 214.463 14.7524C215.22 14.7524 215.807 14.9545 216.222 15.3504C216.637 15.7464 216.84 16.3121 216.84 17.0393V21.7182H215.049L215.058 21.7101Z" fill="white"/>
<path d="M223.947 21.4435C223.304 21.7586 222.587 21.9202 221.798 21.9202C220.634 21.9202 219.738 21.6132 219.119 20.999C218.501 20.3849 218.191 19.4879 218.191 18.3081C218.191 17.5889 218.33 16.9586 218.607 16.4172C218.883 15.8757 219.266 15.4636 219.754 15.1727C220.243 14.8818 220.796 14.7363 221.423 14.7363C222.311 14.7363 223.003 14.9868 223.507 15.4959C224.012 16.005 224.265 16.6919 224.265 17.5727C224.265 17.9848 224.224 18.3889 224.142 18.7848H219.95C219.982 19.399 220.178 19.8515 220.52 20.1505C220.862 20.4495 221.366 20.595 222.018 20.595C222.669 20.595 223.328 20.4495 223.939 20.1586V21.4515L223.947 21.4435ZM221.423 15.9808C221.008 15.9808 220.666 16.1262 220.406 16.4091C220.145 16.6919 219.982 17.0798 219.942 17.5727H222.62V17.3788C222.62 16.9182 222.514 16.5707 222.311 16.3363C222.107 16.102 221.814 15.9808 221.423 15.9808Z" fill="white"/>
<path d="M225.657 21.7102V15.0597L227.09 14.9142L227.236 15.5364C227.79 15.0354 228.408 14.7849 229.084 14.7849C229.296 14.7849 229.516 14.8172 229.752 14.8738V16.3364C229.483 16.2718 229.255 16.2476 229.051 16.2476C228.441 16.2476 227.912 16.4172 227.456 16.7486V21.7183H225.665L225.657 21.7102Z" fill="white"/>
<path d="M237.054 21.9202C236.004 21.9202 235.198 21.6131 234.644 21.0071C234.091 20.401 233.814 19.504 233.814 18.3242C233.814 17.1444 234.091 16.2717 234.636 15.6575C235.182 15.0515 235.988 14.7444 237.054 14.7444C238.12 14.7444 238.918 15.0515 239.472 15.6575C240.017 16.2717 240.294 17.1606 240.294 18.3242C240.294 19.4879 240.017 20.3929 239.464 21.0071C238.91 21.6212 238.104 21.9202 237.054 21.9202ZM237.054 20.5465C237.542 20.5465 237.893 20.3768 238.104 20.0293C238.316 19.6818 238.422 19.1161 238.422 18.3161C238.422 17.5161 238.316 16.9585 238.104 16.6191C237.893 16.2798 237.542 16.102 237.054 16.102C236.566 16.102 236.216 16.2717 236.004 16.6191C235.792 16.9666 235.686 17.5242 235.686 18.3161C235.686 19.1081 235.792 19.6899 236.004 20.0293C236.216 20.3687 236.566 20.5465 237.054 20.5465Z" fill="white"/>
<path d="M242.11 21.7102V16.2071H241.1V15.0192L242.11 14.9788V13.896C242.11 13.1526 242.313 12.5626 242.728 12.1344C243.143 11.7061 243.705 11.496 244.43 11.496C244.902 11.496 245.374 11.5849 245.846 11.7626V12.9748C245.447 12.8697 245.13 12.8132 244.894 12.8132C244.576 12.8132 244.332 12.902 244.161 13.0717C243.99 13.2414 243.901 13.4919 243.901 13.8313V14.9465H245.521V16.199H243.901V21.7021H242.11V21.7102Z" fill="white"/>
<path d="M325.714 35.1116C326.243 35.1116 326.666 35.4833 326.666 35.9924C326.666 36.5015 326.243 36.8813 325.714 36.8813C325.185 36.8813 324.761 36.5015 324.761 35.9924C324.761 35.4833 325.185 35.1116 325.714 35.1116ZM325.714 37.1237C326.398 37.1237 326.935 36.6227 326.935 35.9924C326.935 35.3621 326.398 34.8611 325.714 34.8611C325.03 34.8611 324.493 35.3621 324.493 35.9924C324.493 36.6227 325.03 37.1237 325.714 37.1237ZM325.966 36.1055C326.194 36.0894 326.308 35.9762 326.308 35.7581C326.308 35.451 326.113 35.4025 325.811 35.4025H325.193V36.5823H325.461V36.1136H325.689L325.982 36.5823H326.276L325.966 36.1136V36.1055ZM325.461 35.8954V35.6126H325.754C325.877 35.6126 326.048 35.6126 326.048 35.7419C326.048 35.8712 325.958 35.8954 325.82 35.8954H325.461Z" fill="white"/>
<path d="M260.107 0H318.241C321.367 0 323.915 2.52123 323.915 5.63237V31.4346C323.915 34.5377 321.375 37.067 318.241 37.067H260.107C256.981 37.067 254.433 34.5458 254.433 31.4346V5.63237C254.433 2.52123 256.973 0 260.107 0Z" fill="white"/>
<path d="M320.911 2.97376C320.194 2.26264 319.25 1.87476 318.241 1.87476H301.983L311.337 17.3577L312.192 17.4628L312.689 18.1658V18.8365L313.291 18.9416L313.828 19.685V20.3234L314.431 20.4285C314.431 20.4285 315.033 21.0668 315.033 21.0992C315.033 21.0668 315.033 22.5456 315.033 22.5456C315.033 22.5456 316.352 23.7497 317.524 24.2022C318.347 24.5174 318.452 25.8265 318.916 26.5376C319.559 27.5235 320.414 27.9518 320.235 28.5174C319.812 30.0366 318.241 32.5821 316.783 32.7276C316.783 32.7276 313.153 32.7276 311.012 32.7276V35.1761H318.224C320.308 35.1761 322.002 33.4872 322.002 31.4184V5.63236C322.002 4.63034 321.611 3.68487 320.895 2.98184L320.911 2.97376Z" fill="#BC0022"/>
<path d="M296.448 1.8749H260.107C259.097 1.8749 258.145 2.26278 257.437 2.9739C256.72 3.68502 256.33 4.6224 256.33 5.62443V31.4267C256.33 32.4287 256.72 33.3742 257.437 34.0772C258.153 34.7883 259.097 35.1762 260.107 35.1762H283.715C283.121 34.1984 282.462 33.0833 282.25 32.7439H279.433C279.433 25.8185 281.81 21.964 284.627 21.2205C285.018 21.1478 284.839 19.2407 284.342 18.6751C284.342 18.6751 282.991 18.7074 282.706 18.6427C282.348 18.5377 282.6 18.1821 282.6 18.1821L283.919 15.3538L283.74 14.578H278.863C278.79 14.578 282.885 11.7821 282.885 11.7821C283.097 4.42846 290.684 3.8628 295.275 6.90121C297.986 8.70325 298.198 12.2346 297.986 14.7154C297.954 14.8528 297.278 14.7477 297.278 14.7477C297.278 14.7477 296.814 17.4306 298.027 17.4306H303.367C305.541 17.3579 307.641 18.8043 307.641 18.8043L308.171 16.9619L296.448 1.86682V1.8749ZM264.145 29.8751C262.712 29.8751 261.548 28.7196 261.548 27.2973C261.548 25.8751 262.712 24.7195 264.145 24.7195C265.578 24.7195 266.742 25.8751 266.742 27.2973C266.742 28.7196 265.586 29.8751 264.145 29.8751Z" fill="#041E42"/>
<path d="M11.6407 34.2693L12.5562 36.5937L13.4796 34.2693H14.1562L14.4508 37.7241H13.8378L13.6547 35.2404L12.8109 37.3898H12.2935L11.4338 35.2006L11.2507 37.7241H10.6457L10.9402 34.2693H11.6407ZM8.63967 37.7241V34.7947H7.61278V34.2693H10.3193V34.7947H9.29242V37.7241H8.63967ZM15.1181 39.8416L17.1241 33.8633H17.8803L15.8743 39.8416H15.1181ZM21.3162 39.961C20.7643 39.961 20.2654 39.8283 19.8197 39.5629C19.3792 39.2923 19.0369 38.9367 18.7928 38.4962C18.5487 38.0558 18.4266 37.5755 18.4266 37.0554C18.4266 36.4982 18.5593 35.9967 18.8246 35.5509C19.0953 35.1051 19.4482 34.7602 19.8833 34.5161C20.3238 34.2719 20.8014 34.1499 21.3162 34.1499C21.8681 34.1499 22.3643 34.2852 22.8048 34.5559C23.2506 34.8212 23.5955 35.1741 23.8397 35.6146C24.0838 36.0551 24.2058 36.5353 24.2058 37.0554C24.2058 37.6126 24.0705 38.1141 23.7999 38.5599C23.5345 39.0057 23.1816 39.3507 22.7411 39.5948C22.306 39.8389 21.831 39.961 21.3162 39.961ZM21.3162 39.5072C21.7832 39.5072 22.1972 39.3984 22.558 39.1808C22.9242 38.9579 23.2055 38.6608 23.4018 38.2893C23.6035 37.9178 23.7043 37.5065 23.7043 37.0554C23.7043 36.5725 23.5955 36.1453 23.378 35.7738C23.1657 35.397 22.8791 35.1078 22.5182 34.9061C22.1574 34.7044 21.7567 34.6036 21.3162 34.6036C20.8492 34.6036 20.4326 34.7151 20.0664 34.938C19.7056 35.1555 19.4243 35.4501 19.2226 35.8216C19.0263 36.193 18.9281 36.6043 18.9281 37.0554C18.9281 37.5383 19.0342 37.9682 19.2465 38.345C19.4641 38.7165 19.7533 39.0031 20.1142 39.2047C20.4751 39.4064 20.8757 39.5072 21.3162 39.5072ZM22.3431 38.5997C22.0671 38.7483 21.7567 38.8226 21.4117 38.8226C20.9182 38.8226 20.5308 38.6661 20.2495 38.353C19.9683 38.0399 19.8276 37.6073 19.8276 37.0554C19.8276 36.5035 19.9683 36.071 20.2495 35.7579C20.5361 35.4448 20.9235 35.2882 21.4117 35.2882C21.7461 35.2882 22.0512 35.3625 22.3272 35.5111V36.0126C22.1892 35.9383 22.0565 35.8852 21.9292 35.8534C21.8071 35.8162 21.6718 35.7977 21.5232 35.7977C21.2101 35.7977 20.9633 35.9118 20.7829 36.14C20.6077 36.3629 20.5202 36.668 20.5202 37.0554C20.5202 37.4481 20.6077 37.7559 20.7829 37.9788C20.9633 38.2017 21.2101 38.3132 21.5232 38.3132C21.7832 38.3132 22.0565 38.2415 22.3431 38.0982V38.5997ZM26.9066 39.8416C26.9172 39.3639 27.0127 38.95 27.1932 38.5997C27.3789 38.2495 27.6894 37.8913 28.1245 37.5251L28.7932 36.9599C29.0639 36.7317 29.2576 36.5274 29.3743 36.3469C29.4911 36.1665 29.5494 35.9808 29.5494 35.7897C29.5494 35.5084 29.446 35.2856 29.239 35.121C29.0373 34.9565 28.7614 34.8743 28.4111 34.8743C27.9547 34.8743 27.5089 35.0335 27.0738 35.3519V34.7389C27.5036 34.4258 28.0104 34.2693 28.5942 34.2693C28.9391 34.2693 29.2416 34.3356 29.5017 34.4683C29.767 34.5957 29.9713 34.7734 30.1146 35.0016C30.2579 35.2245 30.3296 35.474 30.3296 35.7499C30.3296 36.0259 30.2553 36.2859 30.1067 36.53C29.9634 36.7688 29.7166 37.0368 29.3663 37.334L28.7295 37.8753C28.4323 38.1301 28.2068 38.3636 28.0529 38.5759C27.899 38.7881 27.8008 39.0004 27.7583 39.2127H29.6052C29.913 39.2127 30.1783 39.2047 30.4012 39.1888V39.8416H26.9066ZM33.283 39.3719C33.697 39.3719 33.9995 39.1915 34.1905 38.8306C34.3816 38.4644 34.4771 37.8913 34.4771 37.1111C34.4771 36.331 34.3789 35.7605 34.1826 35.3997C33.9915 35.0388 33.6917 34.8583 33.283 34.8583C32.8744 34.8583 32.5719 35.0388 32.3756 35.3997C32.1845 35.7605 32.089 36.331 32.089 37.1111C32.089 37.8913 32.1845 38.4644 32.3756 38.8306C32.5666 39.1915 32.8691 39.3719 33.283 39.3719ZM33.283 39.961C31.9669 39.961 31.3089 39.011 31.3089 37.1111C31.3089 36.1718 31.4734 35.4633 31.8024 34.9857C32.1314 34.5081 32.625 34.2693 33.283 34.2693C33.9411 34.2693 34.4346 34.5081 34.7637 34.9857C35.0927 35.4633 35.2572 36.1718 35.2572 37.1111C35.2572 39.011 34.5992 39.961 33.283 39.961ZM36.0405 39.8416C36.0511 39.3639 36.1467 38.95 36.3271 38.5997C36.5128 38.2495 36.8233 37.8913 37.2585 37.5251L37.9271 36.9599C38.1978 36.7317 38.3915 36.5274 38.5082 36.3469C38.625 36.1665 38.6834 35.9808 38.6834 35.7897C38.6834 35.5084 38.5799 35.2856 38.3729 35.121C38.1712 34.9565 37.8953 34.8743 37.545 34.8743C37.0886 34.8743 36.6428 35.0335 36.2077 35.3519V34.7389C36.6375 34.4258 37.1444 34.2693 37.7281 34.2693C38.0731 34.2693 38.3756 34.3356 38.6356 34.4683C38.9009 34.5957 39.1053 34.7734 39.2485 35.0016C39.3918 35.2245 39.4635 35.474 39.4635 35.7499C39.4635 36.0259 39.3892 36.2859 39.2406 36.53C39.0973 36.7688 38.8505 37.0368 38.5003 37.334L37.8634 37.8753C37.5663 38.1301 37.3407 38.3636 37.1868 38.5759C37.0329 38.7881 36.9347 39.0004 36.8923 39.2127H38.7391C39.0469 39.2127 39.3122 39.2047 39.5351 39.1888V39.8416H36.0405ZM43.818 34.8902C43.2661 34.9167 42.7938 35.0202 42.4011 35.2006C42.0083 35.3758 41.7005 35.6225 41.4776 35.941C41.2601 36.2541 41.1327 36.6309 41.0955 37.0713C41.2494 36.8803 41.4538 36.729 41.7085 36.6176C41.9632 36.5061 42.2286 36.4504 42.5045 36.4504C42.8283 36.4504 43.1175 36.53 43.3722 36.6892C43.627 36.8431 43.8233 37.0528 43.9613 37.3181C44.0993 37.5781 44.1683 37.8647 44.1683 38.1778C44.1683 38.5387 44.086 38.8545 43.9215 39.1251C43.7623 39.3905 43.542 39.5974 43.2608 39.746C42.9795 39.8893 42.6611 39.961 42.3055 39.961C41.8916 39.961 41.536 39.8654 41.2388 39.6744C40.947 39.478 40.7241 39.1994 40.5702 38.8385C40.4216 38.4777 40.3473 38.0531 40.3473 37.5649C40.3473 36.8962 40.4826 36.3204 40.7533 35.8375C41.0239 35.3492 41.4113 34.9724 41.9155 34.7071C42.4196 34.4418 43.0193 34.2958 43.7145 34.2693L43.818 34.8902ZM42.3692 37.0315C42.1251 37.0315 41.8863 37.0979 41.6528 37.2305C41.4193 37.3632 41.2309 37.541 41.0876 37.7639C41.1088 38.284 41.2229 38.682 41.4299 38.9579C41.6422 39.2339 41.934 39.3719 42.3055 39.3719C42.6399 39.3719 42.9079 39.2658 43.1095 39.0535C43.3112 38.8359 43.412 38.552 43.412 38.2017C43.412 37.8515 43.3165 37.5702 43.1254 37.3579C42.9344 37.1403 42.6823 37.0315 42.3692 37.0315ZM49.8882 39.356L48.3359 35.3599L48.0334 39.8416H47.301L47.7389 34.2693H48.6066L50.2066 38.3928L51.8066 34.2693H52.6743L53.1121 39.8416H52.3718L52.0614 35.3599L50.517 39.356H49.8882ZM54.5152 39.8416V34.2693H55.2874V39.2047H57.8506V39.8416H54.5152ZM58.8256 39.8416V34.3887C59.1069 34.3356 59.4041 34.2932 59.7172 34.2613C60.0303 34.2295 60.3036 34.2136 60.5371 34.2136C61.158 34.2136 61.633 34.3383 61.962 34.5877C62.2964 34.8318 62.4635 35.1847 62.4635 35.6464C62.4635 35.9542 62.3786 36.2169 62.2088 36.4345C62.0443 36.6521 61.8002 36.8166 61.4764 36.928C61.8692 37.013 62.1717 37.1775 62.3839 37.4216C62.6015 37.6604 62.7103 37.9629 62.7103 38.3291C62.7103 38.8173 62.5405 39.1915 62.2008 39.4515C61.8612 39.7115 61.3756 39.8416 60.7441 39.8416H58.8256ZM60.7202 39.2525C61.1129 39.2525 61.4101 39.1702 61.6118 39.0057C61.8187 38.8359 61.9222 38.5891 61.9222 38.2654C61.9222 37.947 61.8134 37.7029 61.5959 37.533C61.3836 37.3579 61.0837 37.2703 60.6963 37.2703H59.5739V39.2525H60.7202ZM60.4814 34.8026C60.232 34.8026 59.9295 34.8292 59.5739 34.8822V36.6972H60.6247C60.959 36.6972 61.2217 36.6123 61.4128 36.4425C61.6091 36.2673 61.7073 36.0338 61.7073 35.742C61.7073 35.1157 61.2987 34.8026 60.4814 34.8026ZM64.0734 39.8814C63.9301 39.8814 63.8134 39.8362 63.7231 39.746C63.6329 39.6558 63.5878 39.5391 63.5878 39.3958C63.5878 39.2525 63.6329 39.1357 63.7231 39.0455C63.8134 38.9553 63.9301 38.9102 64.0734 38.9102C64.2167 38.9102 64.3334 38.9553 64.4237 39.0455C64.5139 39.1357 64.559 39.2525 64.559 39.3958C64.559 39.5391 64.5139 39.6558 64.4237 39.746C64.3334 39.8362 64.2167 39.8814 64.0734 39.8814Z" fill="white"/>
</svg>
