<svg width="359" height="23" viewBox="0 0 359 23" fill="none" xmlns="http://www.w3.org/2000/svg">
<path d="M346.928 21.7194V0.313534L349.608 0V13.4535L355.565 7.23981H358.643L352.173 13.9666L358.957 21.7194H355.707L349.608 14.6221V21.7194H346.928Z" fill="white"/>
<path d="M343.629 21.2064C342.318 21.8334 340.864 22.147 339.268 22.147C337.178 22.147 335.563 21.4819 334.423 20.1517C333.282 18.8216 332.712 16.9404 332.712 14.5081C332.712 12.0568 333.282 10.1661 334.423 8.83598C335.582 7.48683 337.206 6.81226 339.297 6.81226C340.76 6.81226 342.175 7.12579 343.544 7.75286V9.80509C342.232 9.23503 340.978 8.94999 339.781 8.94999C338.375 8.94999 337.311 9.41555 336.589 10.3467C335.867 11.2778 335.506 12.6554 335.506 14.4796C335.506 16.2848 335.867 17.6625 336.589 18.6126C337.311 19.5437 338.375 20.0092 339.781 20.0092C340.978 20.0092 342.261 19.7242 343.629 19.1541V21.2064Z" fill="white"/>
<path d="M327.236 21.7764L327.065 20.7788C325.468 21.6909 323.92 22.147 322.419 22.147C320.917 22.147 319.72 21.7479 318.827 20.9498C317.953 20.1327 317.516 19.0401 317.516 17.672C317.516 16.2468 318.01 15.1447 318.998 14.3656C319.986 13.5675 321.374 13.1685 323.16 13.1685C324.205 13.1685 325.411 13.292 326.78 13.539V12.0283C326.78 10.9832 326.476 10.2041 325.868 9.69108C325.278 9.17802 324.366 8.92149 323.131 8.92149C321.687 8.92149 320.11 9.25403 318.4 9.9191V7.83837C319.198 7.51533 320.062 7.26831 320.993 7.09729C321.925 6.90727 322.808 6.81226 323.644 6.81226C325.525 6.81226 326.951 7.2493 327.92 8.1234C328.908 8.9975 329.402 10.2801 329.402 11.9713V21.5484L327.236 21.7764ZM323.103 20.0662C323.654 20.0662 324.271 19.9712 324.955 19.7812C325.64 19.5912 326.248 19.3442 326.78 19.0401V15.3917C325.887 15.1637 324.832 15.0497 323.616 15.0497C322.476 15.0497 321.63 15.2682 321.079 15.7052C320.547 16.1233 320.281 16.7599 320.281 17.615C320.281 19.2491 321.222 20.0662 323.103 20.0662Z" fill="white"/>
<path d="M304.849 7.95239C306.274 7.1923 307.614 6.81226 308.868 6.81226C310.73 6.81226 312.184 7.47733 313.229 8.80748C314.293 10.1186 314.825 11.9333 314.825 14.2516C314.825 16.7979 314.179 18.7551 312.887 20.1232C311.594 21.4724 309.751 22.147 307.357 22.147C305.647 22.147 303.918 21.8999 302.169 21.4059V0.313534L304.849 0V7.95239ZM308.241 8.9215C307.728 8.9215 307.157 9.01651 306.53 9.20653C305.922 9.37755 305.362 9.61507 304.849 9.91911V19.7242C305.647 19.9522 306.492 20.0662 307.386 20.0662C308.944 20.0662 310.103 19.5912 310.863 18.6411C311.642 17.691 312.032 16.2468 312.032 14.3086C312.032 12.5414 311.709 11.2017 311.062 10.2896C310.435 9.37755 309.495 8.9215 308.241 8.9215Z" fill="white"/>
<path d="M278.927 21.7194V0.313534L281.607 0V7.98089C283.07 7.2018 284.504 6.81226 285.911 6.81226C287.488 6.81226 288.704 7.23031 289.559 8.0664C290.433 8.88349 290.87 10.0521 290.87 11.5723V21.7194H288.191V11.9713C288.191 9.93811 287.184 8.9215 285.169 8.9215C284.637 8.9215 284.039 9.01651 283.374 9.20653C282.728 9.37755 282.139 9.61507 281.607 9.91911V21.7194H278.927Z" fill="white"/>
<path d="M264.958 19.0686C266.479 19.7337 267.999 20.0662 269.519 20.0662C270.621 20.0662 271.457 19.8572 272.027 19.4392C272.616 19.0211 272.911 18.4226 272.911 17.6435C272.911 17.1304 272.749 16.7124 272.426 16.3893C272.103 16.0663 271.571 15.7908 270.83 15.5627L268.892 14.9642C267.6 14.5651 266.659 14.0521 266.07 13.425C265.481 12.7979 265.187 11.9998 265.187 11.0307C265.187 9.73858 265.69 8.71247 266.697 7.95238C267.704 7.1923 269.063 6.81226 270.773 6.81226C272.217 6.81226 273.595 7.09729 274.906 7.66735V9.71958C273.462 9.16852 272.141 8.89299 270.944 8.89299C269.975 8.89299 269.215 9.08301 268.664 9.46305C268.132 9.82409 267.866 10.3181 267.866 10.9452C267.866 11.4013 268.008 11.7623 268.293 12.0283C268.578 12.2754 269.11 12.5224 269.89 12.7694L272.056 13.425C274.412 14.1281 275.59 15.5247 275.59 17.615C275.59 19.0781 275.087 20.1992 274.079 20.9783C273.072 21.7574 271.619 22.147 269.719 22.147C267.951 22.147 266.469 21.8524 265.272 21.2634L264.958 19.0686Z" fill="white"/>
<path d="M259.624 21.7764L259.453 20.7788C257.857 21.6909 256.308 22.147 254.807 22.147C253.306 22.147 252.109 21.7479 251.215 20.9498C250.341 20.1327 249.904 19.0401 249.904 17.672C249.904 16.2468 250.398 15.1447 251.386 14.3656C252.375 13.5675 253.762 13.1685 255.548 13.1685C256.593 13.1685 257.8 13.292 259.168 13.539V12.0283C259.168 10.9832 258.864 10.2041 258.256 9.69108C257.667 9.17802 256.755 8.92149 255.519 8.92149C254.075 8.92149 252.498 9.25403 250.788 9.9191V7.83837C251.586 7.51533 252.451 7.26831 253.382 7.09729C254.313 6.90727 255.196 6.81226 256.032 6.81226C257.914 6.81226 259.339 7.2493 260.308 8.1234C261.296 8.9975 261.79 10.2801 261.79 11.9713V21.5484L259.624 21.7764ZM255.491 20.0662C256.042 20.0662 256.66 19.9712 257.344 19.7812C258.028 19.5912 258.636 19.3442 259.168 19.0401V15.3917C258.275 15.1637 257.22 15.0497 256.004 15.0497C254.864 15.0497 254.018 15.2682 253.467 15.7052C252.935 16.1233 252.669 16.7599 252.669 17.615C252.669 19.2491 253.61 20.0662 255.491 20.0662Z" fill="white"/>
<path d="M247.403 21.2064C246.092 21.8334 244.638 22.147 243.042 22.147C240.952 22.147 239.337 21.4819 238.197 20.1517C237.056 18.8216 236.486 16.9404 236.486 14.5081C236.486 12.0568 237.056 10.1661 238.197 8.83598C239.356 7.48683 240.98 6.81226 243.071 6.81226C244.534 6.81226 245.949 7.12579 247.318 7.75286V9.80509C246.006 9.23503 244.752 8.94999 243.555 8.94999C242.149 8.94999 241.085 9.41555 240.363 10.3467C239.641 11.2778 239.28 12.6554 239.28 14.4796C239.28 16.2848 239.641 17.6625 240.363 18.6126C241.085 19.5437 242.149 20.0092 243.555 20.0092C244.752 20.0092 246.035 19.7242 247.403 19.1541V21.2064Z" fill="white"/>
<path d="M208.614 21.7194L218.847 2.19475H221.212L210.98 21.7194H208.614ZM207.474 12.8834C208.31 12.8834 208.918 12.5224 209.298 11.8003C209.678 11.0592 209.868 9.8716 209.868 8.23742C209.868 6.60324 209.678 5.42511 209.298 4.70303C208.918 3.96194 208.31 3.5914 207.474 3.5914C206.638 3.5914 206.03 3.96194 205.65 4.70303C205.27 5.42511 205.08 6.60324 205.08 8.23742C205.08 9.8716 205.27 11.0592 205.65 11.8003C206.03 12.5224 206.638 12.8834 207.474 12.8834ZM207.474 14.5651C205.935 14.5651 204.757 14.0236 203.94 12.9404C203.122 11.8383 202.714 10.2706 202.714 8.23742C202.714 6.20419 203.122 4.64602 203.94 3.5629C204.757 2.46078 205.935 1.90971 207.474 1.90971C209.013 1.90971 210.191 2.46078 211.008 3.5629C211.825 4.64602 212.234 6.20419 212.234 8.23742C212.234 10.2706 211.825 11.8383 211.008 12.9404C210.191 14.0236 209.013 14.5651 207.474 14.5651ZM222.353 20.3228C223.189 20.3228 223.797 19.9617 224.177 19.2396C224.557 18.4986 224.747 17.3109 224.747 15.6768C224.747 14.0426 224.557 12.8644 224.177 12.1424C223.797 11.4013 223.189 11.0307 222.353 11.0307C221.516 11.0307 220.908 11.4013 220.528 12.1424C220.148 12.8644 219.958 14.0426 219.958 15.6768C219.958 17.3109 220.148 18.4986 220.528 19.2396C220.908 19.9617 221.516 20.3228 222.353 20.3228ZM222.353 22.0045C220.813 22.0045 219.635 21.4629 218.818 20.3798C218.001 19.2777 217.593 17.71 217.593 15.6768C217.593 13.6435 218.001 12.0854 218.818 11.0022C219.635 9.90011 220.813 9.34904 222.353 9.34904C223.892 9.34904 225.07 9.90011 225.887 11.0022C226.704 12.0854 227.113 13.6435 227.113 15.6768C227.113 17.71 226.704 19.2777 225.887 20.3798C225.07 21.4629 223.892 22.0045 222.353 22.0045Z" fill="white"/>
<path d="M188.176 21.7194C188.214 20.0092 188.556 18.5271 189.202 17.2729C189.867 16.0188 190.979 14.7361 192.537 13.425L194.932 11.4013C195.901 10.5842 196.594 9.8526 197.012 9.20653C197.43 8.56046 197.639 7.89538 197.639 7.2113C197.639 6.20419 197.269 5.4061 196.528 4.81704C195.806 4.22797 194.818 3.93344 193.563 3.93344C191.929 3.93344 190.333 4.5035 188.775 5.64363V3.44888C190.314 2.32776 192.129 1.7672 194.219 1.7672C195.454 1.7672 196.537 2.00472 197.468 2.47978C198.418 2.93583 199.15 3.5724 199.663 4.38949C200.176 5.18758 200.433 6.08068 200.433 7.06879C200.433 8.0569 200.167 8.988 199.635 9.8621C199.121 10.7172 198.238 11.6768 196.984 12.7409L194.703 14.6791C193.639 15.5912 192.832 16.4273 192.281 17.1874C191.73 17.9475 191.378 18.7076 191.226 19.4677H197.839C198.941 19.4677 199.891 19.4392 200.689 19.3822V21.7194H188.176Z" fill="white"/>
<path d="M178.246 0V21.5484L176.08 21.7764L175.908 20.7788C174.407 21.6909 172.954 22.147 171.548 22.147C169.685 22.147 168.222 21.4914 167.158 20.1803C166.113 18.8501 165.59 17.0259 165.59 14.7076C165.59 12.1994 166.208 10.2611 167.443 8.89299C168.678 7.50584 170.417 6.81226 172.659 6.81226C173.742 6.81226 174.711 6.94527 175.566 7.2113V0.313534L178.246 0ZM172.175 20.0377C172.688 20.0377 173.248 19.9522 173.856 19.7812C174.483 19.5912 175.053 19.3442 175.566 19.0401V9.23503C174.768 9.007 173.923 8.89299 173.03 8.89299C171.471 8.89299 170.303 9.36804 169.524 10.3182C168.764 11.2683 168.384 12.7124 168.384 14.6506C168.384 16.4178 168.697 17.7575 169.324 18.6696C169.97 19.5817 170.92 20.0377 172.175 20.0377Z" fill="white"/>
<path d="M162.3 21.1779C160.989 21.8239 159.526 22.147 157.911 22.147C155.554 22.147 153.759 21.4914 152.524 20.1802C151.288 18.8691 150.671 16.9499 150.671 14.4226C150.671 12.8644 150.946 11.5153 151.497 10.3752C152.049 9.21602 152.818 8.33242 153.806 7.72436C154.794 7.11629 155.925 6.81226 157.198 6.81226C158.984 6.81226 160.39 7.34432 161.417 8.40843C162.443 9.47255 162.956 10.9452 162.956 12.8264C162.956 13.5675 162.889 14.2991 162.756 15.0212H153.322C153.379 18.3845 155.013 20.0662 158.224 20.0662C159.611 20.0662 160.97 19.7622 162.3 19.1541V21.1779ZM157.198 8.77897C156.096 8.77897 155.193 9.16852 154.49 9.9476C153.806 10.7267 153.417 11.7813 153.322 13.1115H160.476C160.495 13.0164 160.505 12.9214 160.505 12.8264C160.505 12.7314 160.505 12.6364 160.505 12.5414C160.505 11.3633 160.21 10.4417 159.621 9.77659C159.051 9.11151 158.243 8.77897 157.198 8.77897Z" fill="white"/>
<path d="M144.477 9.17802V17.5009C144.477 18.356 144.667 18.9926 145.047 19.4107C145.427 19.8097 146.007 20.0092 146.786 20.0092C147.375 20.0092 148.002 19.9047 148.667 19.6957V21.6054C147.869 21.9094 147.042 22.0615 146.187 22.0615C144.743 22.0615 143.65 21.6814 142.909 20.9213C142.168 20.1612 141.798 19.0496 141.798 17.5865V9.17802H139.631V7.35382L141.912 7.26831L142.111 3.6484L144.477 3.39188V7.23981H148.524V9.17802H144.477Z" fill="white"/>
<path d="M134.184 21.7194V7.46783L136.864 7.15429V21.7194H134.184ZM135.524 4.27547C134.973 4.27547 134.536 4.13295 134.213 3.84792C133.909 3.54389 133.757 3.13534 133.757 2.62229C133.757 2.10923 133.909 1.71018 134.213 1.42515C134.536 1.12112 134.973 0.969101 135.524 0.969101C136.075 0.969101 136.503 1.12112 136.807 1.42515C137.13 1.71018 137.291 2.10923 137.291 2.62229C137.291 3.13534 137.13 3.54389 136.807 3.84792C136.503 4.13295 136.075 4.27547 135.524 4.27547Z" fill="white"/>
<path d="M127.348 21.7194V11.6578C127.348 9.83359 126.464 8.92149 124.697 8.92149C123.633 8.92149 122.512 9.27303 121.334 9.97611C121.429 10.3942 121.476 10.8122 121.476 11.2302V21.7194H118.797V11.6578C118.797 9.83359 117.913 8.92149 116.146 8.92149C115.101 8.92149 114.028 9.25403 112.925 9.9191V21.7194H110.246V7.41082L112.412 7.1828L112.583 8.18041C114.047 7.26831 115.481 6.81226 116.887 6.81226C118.522 6.81226 119.757 7.33481 120.593 8.37993C122.303 7.33481 123.918 6.81226 125.438 6.81226C126.863 6.81226 127.985 7.2018 128.802 7.98089C129.619 8.75997 130.027 9.84309 130.027 11.2302V21.7194H127.348Z" fill="white"/>
<path d="M103.232 21.7194V7.46783L105.911 7.15429V21.7194H103.232ZM104.571 4.27547C104.02 4.27547 103.583 4.13295 103.26 3.84792C102.956 3.54389 102.804 3.13534 102.804 2.62229C102.804 2.10923 102.956 1.71018 103.26 1.42515C103.583 1.12112 104.02 0.969101 104.571 0.969101C105.122 0.969101 105.55 1.12112 105.854 1.42515C106.177 1.71018 106.339 2.10923 106.339 2.62229C106.339 3.13534 106.177 3.54389 105.854 3.84792C105.55 4.13295 105.122 4.27547 104.571 4.27547Z" fill="white"/>
<path d="M96.2173 21.7194V0.313534L98.8966 0V21.7194H96.2173Z" fill="white"/>
<path d="M89.3646 21.7194V11.9713C89.3646 9.9381 88.3575 8.92149 86.3433 8.92149C85.8112 8.92149 85.2126 9.0165 84.5476 9.20652C83.9015 9.37754 83.3124 9.61507 82.7804 9.9191V21.7194H80.1011V7.41082L82.2673 7.1828L82.4383 8.18041C83.9965 7.26831 85.5452 6.81226 87.0844 6.81226C88.6615 6.81226 89.8777 7.2303 90.7328 8.06639C91.6069 8.88349 92.0439 10.0521 92.0439 11.5723V21.7194H89.3646Z" fill="white"/>
<path d="M73.6159 21.7764L73.4449 20.7788C71.8867 21.6909 70.338 22.147 68.7989 22.147C67.2597 22.147 66.0625 21.7289 65.2074 20.8928C64.3523 20.0567 63.9248 18.8881 63.9248 17.3869V7.23981H66.6041V16.9879C66.6041 19.0211 67.5827 20.0377 69.5399 20.0377C70.091 20.0377 70.6896 19.9522 71.3356 19.7812C71.9817 19.5912 72.5708 19.3442 73.1028 19.0401V7.23981H75.7821V21.5484L73.6159 21.7764Z" fill="white"/>
<path d="M50.1171 21.7194V11.9713C50.1171 9.9381 49.1099 8.92149 47.0957 8.92149C46.5637 8.92149 45.9651 9.0165 45.3 9.20652C44.6539 9.37754 44.0649 9.61507 43.5328 9.9191V21.7194H40.8535V7.41082L43.0198 7.1828L43.1908 8.18041C44.749 7.26831 46.2976 6.81226 47.8368 6.81226C49.414 6.81226 50.6301 7.2303 51.4852 8.06639C52.3593 8.88349 52.7963 10.0521 52.7963 11.5723V21.7194H50.1171Z" fill="white"/>
<path d="M30.4429 21.7194V7.41082L32.6091 7.1828L32.8371 8.49395C34.0913 7.42983 35.4309 6.89777 36.8561 6.89777C37.2931 6.89777 37.7302 6.96427 38.1672 7.09729V9.29203C37.7112 9.17802 37.2456 9.12101 36.7706 9.12101C35.4024 9.12101 34.1863 9.54856 33.1222 10.4037V21.7194H30.4429Z" fill="white"/>
<path d="M24.1107 21.7764L23.9397 20.7788C22.3435 21.6909 20.7948 22.147 19.2937 22.147C17.7925 22.147 16.5954 21.7479 15.7023 20.9498C14.8282 20.1327 14.3911 19.0401 14.3911 17.672C14.3911 16.2468 14.8852 15.1447 15.8733 14.3656C16.8614 13.5675 18.2485 13.1685 20.0347 13.1685C21.0799 13.1685 22.2865 13.292 23.6546 13.539V12.0283C23.6546 10.9832 23.3506 10.2041 22.7425 9.69108C22.1535 9.17802 21.2414 8.92149 20.0062 8.92149C18.5621 8.92149 16.9849 9.25403 15.2747 9.9191V7.83837C16.0728 7.51533 16.9374 7.26831 17.8685 7.09729C18.7996 6.90727 19.6832 6.81226 20.5193 6.81226C22.4005 6.81226 23.8257 7.2493 24.7948 8.1234C25.7829 8.9975 26.2769 10.2801 26.2769 11.9713V21.5484L24.1107 21.7764ZM19.9777 20.0662C20.5288 20.0662 21.1464 19.9712 21.8304 19.7812C22.5145 19.5912 23.1226 19.3442 23.6546 19.0401V15.3917C22.7615 15.1637 21.7069 15.0497 20.4908 15.0497C19.3507 15.0497 18.5051 15.2682 17.954 15.7052C17.422 16.1233 17.1559 16.7599 17.1559 17.615C17.1559 19.2491 18.0965 20.0662 19.9777 20.0662Z" fill="white"/>
<path d="M2.76481 12.7409V19.4392H12.1709V21.7194H0V1.7672H12.1139V4.04745H2.76481V10.4607H10.9167V12.7409H2.76481Z" fill="white"/>
</svg>
