<svg width="250" height="43" viewBox="0 0 250 43" fill="none" xmlns="http://www.w3.org/2000/svg">
<path d="M5.68091 13.0288C5.68091 11.8285 5.94756 10.9175 6.48707 10.2957C7.02658 9.66788 7.80793 9.36011 8.83113 9.36011C9.85434 9.36011 10.6357 9.67404 11.1752 10.2957C11.7147 10.9236 11.9814 11.8346 11.9814 13.0288C11.9814 14.223 11.7147 15.1402 11.1752 15.7619C10.6357 16.3897 9.85434 16.6975 8.83113 16.6975C7.80793 16.6975 7.02658 16.3836 6.48707 15.7619C5.94756 15.134 5.68091 14.223 5.68091 13.0288ZM7.20641 13.0288C7.20641 13.9029 7.33664 14.5492 7.60329 14.9555C7.86374 15.3618 8.27922 15.5649 8.83733 15.5649C9.39545 15.5649 9.80473 15.3618 10.0714 14.9555C10.338 14.5492 10.4683 13.9029 10.4683 13.0288C10.4683 12.1547 10.338 11.5084 10.0714 11.1021C9.81093 10.6959 9.39545 10.4927 8.83733 10.4927C8.27922 10.4927 7.86374 10.6959 7.60329 11.1021C7.34284 11.5084 7.20641 12.1547 7.20641 13.0288Z" fill="white"/>
<path d="M17.0045 16.5374V12.3455H14.8217V16.5374H13.4574V12.3455H12.6885V11.4407L13.4574 11.4099V10.585C13.4574 10.0187 13.6125 9.56937 13.9287 9.24312C14.245 8.91688 14.6729 8.75684 15.2248 8.75684C15.5845 8.75684 15.9131 8.81224 16.217 8.92919V9.85252C15.9751 9.79097 15.7643 9.76019 15.5783 9.76019C15.3364 9.76019 15.1504 9.8279 15.0201 9.95717C14.8899 10.0864 14.8217 10.2773 14.8217 10.5358V11.3853H17.0045V10.585C17.0045 10.0187 17.1596 9.56937 17.4758 9.24312C17.7859 8.91688 18.22 8.75684 18.7719 8.75684C19.0633 8.75684 19.361 8.80608 19.6587 8.91072V9.83406C19.4726 9.78481 19.2928 9.76635 19.1254 9.76635C18.8835 9.76635 18.6975 9.83406 18.561 9.96332C18.4246 10.0926 18.3626 10.2834 18.3626 10.5419V11.3914H19.5966V12.3455H18.3626V16.5374H16.9983H17.0045ZM21.2276 10.5789C20.9733 10.5789 20.7749 10.5112 20.6323 10.3757C20.4896 10.2403 20.4214 10.0557 20.4214 9.82175C20.4214 9.58784 20.4896 9.40317 20.6323 9.26775C20.7749 9.13232 20.9733 9.06461 21.2276 9.06461C21.4818 9.06461 21.6865 9.13232 21.8291 9.26775C21.9717 9.40317 22.0461 9.58784 22.0461 9.82175C22.0461 10.0557 21.9717 10.2403 21.8291 10.3757C21.6865 10.5112 21.4818 10.5789 21.2276 10.5789ZM20.5516 16.5374V11.4899L21.9159 11.3606V16.5374H20.5516Z" fill="white"/>
<path d="M27.0563 16.3466C26.5416 16.5805 26.0083 16.6975 25.4502 16.6975C24.6565 16.6975 24.0425 16.4636 23.6147 15.9958C23.1868 15.5279 22.9697 14.857 22.9697 13.9767C22.9697 13.0965 23.1806 12.4132 23.6147 11.9393C24.0425 11.4653 24.6565 11.2252 25.4564 11.2252C25.9773 11.2252 26.4982 11.3422 27.0253 11.5761V12.5671C26.5416 12.3702 26.1076 12.2778 25.7293 12.2778C24.8425 12.2778 24.396 12.838 24.396 13.9521C24.396 14.5061 24.5076 14.9247 24.7371 15.214C24.9665 15.5033 25.2952 15.6387 25.7355 15.6387C26.1138 15.6387 26.554 15.5403 27.0625 15.3494V16.3405L27.0563 16.3466Z" fill="white"/>
<path d="M28.7498 10.579C28.4955 10.579 28.2971 10.5113 28.1544 10.3758C28.0118 10.2404 27.9436 10.0557 27.9436 9.82183C27.9436 9.58792 28.0118 9.40325 28.1544 9.26783C28.2971 9.13241 28.4955 9.0647 28.7498 9.0647C29.004 9.0647 29.2087 9.13241 29.3513 9.26783C29.4939 9.40325 29.5683 9.58792 29.5683 9.82183C29.5683 10.0557 29.4939 10.2404 29.3513 10.3758C29.2087 10.5113 29.004 10.579 28.7498 10.579ZM28.0738 16.5375V11.49L29.4381 11.3607V16.5375H28.0738Z" fill="white"/>
<path d="M33.9089 16.5682L33.8283 16.2358C33.3012 16.5436 32.7741 16.6975 32.2532 16.6975C31.7323 16.6975 31.2858 16.5498 30.9633 16.2543C30.6409 15.9588 30.4858 15.5649 30.4858 15.0601C30.4858 14.5554 30.6657 14.1429 31.0191 13.8536C31.3726 13.5643 31.8687 13.4227 32.5074 13.4227C32.8857 13.4227 33.2702 13.4597 33.6609 13.5335V13.1334C33.6609 12.8257 33.5679 12.5979 33.388 12.4563C33.2082 12.3148 32.9229 12.2409 32.5384 12.2409C32.0237 12.2409 31.4594 12.3578 30.8393 12.5794V11.5946C31.1308 11.4838 31.447 11.3914 31.8005 11.3237C32.1478 11.256 32.4826 11.2252 32.7927 11.2252C33.5058 11.2252 34.0515 11.3853 34.436 11.7054C34.8143 12.0254 35.0065 12.4871 35.0065 13.0904V16.4513L33.9151 16.5621L33.9089 16.5682ZM32.6687 15.7249C32.8175 15.7249 32.9787 15.7003 33.1586 15.6572C33.3384 15.608 33.5058 15.5526 33.6609 15.4787V14.383C33.3508 14.3091 33.0718 14.2722 32.8237 14.2722C32.1788 14.2722 31.8501 14.5184 31.8501 15.017C31.8501 15.2509 31.9183 15.4295 32.0548 15.5464C32.1912 15.6695 32.3958 15.7249 32.6687 15.7249Z" fill="white"/>
<path d="M36.2656 16.5375V8.99084L37.6299 8.86157V16.5375H36.2656Z" fill="white"/>
<path d="M41.592 16.5377V9.6558C41.9207 9.58809 42.3114 9.53269 42.7579 9.49576C43.2044 9.45883 43.6012 9.4342 43.9485 9.4342C44.7919 9.4342 45.4306 9.58809 45.8709 9.90818C46.3112 10.2221 46.5282 10.6776 46.5282 11.2809C46.5282 12.0257 46.1313 12.5428 45.3376 12.8444C45.8275 12.9675 46.2058 13.1768 46.46 13.4784C46.7143 13.78 46.8445 14.1555 46.8445 14.6049C46.8445 15.2266 46.6212 15.7067 46.1748 16.0391C45.7283 16.3715 45.0957 16.5439 44.2648 16.5439H41.5982L41.592 16.5377ZM43.8865 10.4868C43.471 10.4868 43.1548 10.5114 42.9377 10.5545V12.4381H44.0477C44.4012 12.4381 44.6741 12.3519 44.8787 12.1796C45.0833 12.0072 45.1826 11.7672 45.1826 11.4594C45.1826 11.1331 45.0771 10.8869 44.8663 10.7269C44.6554 10.5668 44.3268 10.4868 43.8927 10.4868H43.8865ZM44.209 15.4851C45.0151 15.4851 45.4244 15.1527 45.4244 14.4818C45.4244 14.1555 45.319 13.9031 45.1081 13.7246C44.8973 13.5461 44.5934 13.4599 44.2028 13.4599H42.9377V15.4851H44.209Z" fill="white"/>
<path d="M51.0244 16.5682L50.9438 16.2358C50.4167 16.5436 49.8896 16.6975 49.3687 16.6975C48.8478 16.6975 48.4013 16.5498 48.0788 16.2543C47.7564 15.9588 47.6013 15.5649 47.6013 15.0601C47.6013 14.5554 47.7812 14.1429 48.1346 13.8536C48.4881 13.5643 48.9842 13.4227 49.6229 13.4227C50.0012 13.4227 50.3857 13.4597 50.7763 13.5335V13.1334C50.7763 12.8257 50.6833 12.5979 50.5035 12.4563C50.3237 12.3148 50.0384 12.2409 49.6539 12.2409C49.1392 12.2409 48.5749 12.3578 47.9548 12.5794V11.5946C48.2462 11.4838 48.5625 11.3914 48.916 11.3237C49.2632 11.256 49.5981 11.2252 49.9082 11.2252C50.6213 11.2252 51.167 11.3853 51.5515 11.7054C51.9298 12.0254 52.122 12.4871 52.122 13.0904V16.4513L51.0306 16.5621L51.0244 16.5682ZM49.7842 15.7249C49.933 15.7249 50.0942 15.7003 50.2741 15.6572C50.4539 15.608 50.6213 15.5526 50.7763 15.4787V14.383C50.4663 14.3091 50.1872 14.2722 49.9392 14.2722C49.2943 14.2722 48.9656 14.5184 48.9656 15.017C48.9656 15.2509 49.0338 15.4295 49.1702 15.5464C49.3067 15.6695 49.5113 15.7249 49.7842 15.7249Z" fill="white"/>
<path d="M56.5555 16.5375V13.1581C56.5555 12.8565 56.4873 12.6349 56.3509 12.4933C56.2144 12.3517 56.0036 12.2778 55.7121 12.2778C55.5509 12.2778 55.3835 12.3025 55.2036 12.3517C55.03 12.4009 54.875 12.4687 54.7385 12.5487V16.5436H53.3743V11.4776L54.4657 11.3668L54.5463 11.6992C55.0734 11.3914 55.5881 11.2375 56.1028 11.2375C56.6795 11.2375 57.126 11.3914 57.4423 11.6931C57.7585 11.9947 57.9136 12.4256 57.9136 12.9796V16.5436H56.5493L56.5555 16.5375Z" fill="white"/>
<path d="M59.1914 16.5375V8.99084L60.5557 8.86157V13.5152L62.3478 11.3853H63.8857L61.9013 13.6937L64.0346 16.5314H62.385L60.5557 14.0753V16.5314H59.1914V16.5375Z" fill="white"/>
<path d="M70.3784 16.5682L70.2978 16.2358C69.7707 16.5436 69.2436 16.6975 68.7227 16.6975C68.2018 16.6975 67.7553 16.5498 67.4328 16.2543C67.1104 15.9588 66.9553 15.5649 66.9553 15.0601C66.9553 14.5554 67.1352 14.1429 67.4886 13.8536C67.8421 13.5643 68.3382 13.4227 68.9769 13.4227C69.3552 13.4227 69.7397 13.4597 70.1304 13.5335V13.1334C70.1304 12.8257 70.0373 12.5979 69.8575 12.4563C69.6777 12.3148 69.3924 12.2409 69.0079 12.2409C68.4932 12.2409 67.9289 12.3578 67.3088 12.5794V11.5946C67.6002 11.4838 67.9165 11.3914 68.27 11.3237C68.6173 11.256 68.9521 11.2252 69.2622 11.2252C69.9753 11.2252 70.521 11.3853 70.9055 11.7054C71.2838 12.0254 71.476 12.4871 71.476 13.0904V16.4513L70.3846 16.5621L70.3784 16.5682ZM69.1382 15.7249C69.287 15.7249 69.4482 15.7003 69.6281 15.6572C69.8079 15.608 69.9753 15.5526 70.1304 15.4787V14.383C69.8203 14.3091 69.5412 14.2722 69.2932 14.2722C68.6483 14.2722 68.3196 14.5184 68.3196 15.017C68.3196 15.2509 68.3878 15.4295 68.5242 15.5464C68.6607 15.6695 68.8653 15.7249 69.1382 15.7249Z" fill="white"/>
<path d="M75.91 16.5375V13.1581C75.91 12.8565 75.8418 12.6349 75.7053 12.4933C75.5689 12.3517 75.3581 12.2778 75.0666 12.2778C74.9054 12.2778 74.738 12.3025 74.5581 12.3517C74.3845 12.4009 74.2295 12.4687 74.093 12.5487V16.5436H72.7288V11.4776L73.8202 11.3668L73.9008 11.6992C74.4279 11.3914 74.9426 11.2375 75.4573 11.2375C76.034 11.2375 76.4805 11.3914 76.7968 11.6931C77.113 11.9947 77.2681 12.4256 77.2681 12.9796V16.5436H75.9038L75.91 16.5375Z" fill="white"/>
<path d="M83.0845 8.86157V16.4575L81.9931 16.5683L81.9124 16.2359C81.6706 16.3775 81.4163 16.4883 81.1435 16.5745C80.8706 16.6606 80.6288 16.6976 80.4055 16.6976C79.742 16.6976 79.2273 16.4637 78.8552 15.9958C78.4832 15.528 78.2971 14.8755 78.2971 14.0507C78.2971 13.152 78.5204 12.4626 78.9607 11.9701C79.4009 11.4777 80.0211 11.2315 80.8272 11.2315C81.1187 11.2315 81.4163 11.2684 81.7264 11.3423V8.997L83.0907 8.86773L83.0845 8.86157ZM80.79 15.6573C80.9326 15.6573 81.0877 15.6327 81.2613 15.5834C81.4349 15.5342 81.5838 15.4665 81.7202 15.3865V12.3087C81.5094 12.2594 81.2861 12.241 81.0505 12.241C80.5978 12.241 80.2629 12.3887 80.0459 12.678C79.8288 12.9673 79.7172 13.4167 79.7172 14.0261C79.7172 15.1156 80.0769 15.6635 80.79 15.6635V15.6573Z" fill="white"/>
<path d="M91.8533 16.2358C91.2456 16.5436 90.5882 16.6974 89.8689 16.6974C88.8767 16.6974 88.1139 16.3774 87.5682 15.7433C87.0225 15.1093 86.7559 14.2045 86.7559 13.0226C86.7559 11.8407 87.0287 10.9666 87.5744 10.3203C88.1201 9.67397 88.8829 9.35388 89.8689 9.35388C90.5634 9.35388 91.2083 9.50777 91.8099 9.81555V10.9297C91.4874 10.7758 91.2021 10.665 90.9479 10.6035C90.6998 10.5419 90.4208 10.5111 90.1169 10.5111C89.5154 10.5111 89.0627 10.7204 88.7589 11.1451C88.455 11.5699 88.3 12.1977 88.3 13.0287C88.3 14.7092 88.9077 15.5464 90.1169 15.5464C90.4084 15.5464 90.6874 15.5156 90.9479 15.4479C91.2145 15.3802 91.5122 15.2755 91.8409 15.1278V16.2419L91.8533 16.2358Z" fill="white"/>
<path d="M92.9326 16.5376V11.4716L94.024 11.3608L94.1357 11.8348C94.5573 11.4532 95.0286 11.2623 95.5433 11.2623C95.7046 11.2623 95.872 11.287 96.0518 11.33V12.4442C95.8472 12.3949 95.6736 12.3765 95.5185 12.3765C95.0534 12.3765 94.6504 12.5057 94.3031 12.7581V16.5438H92.9388L92.9326 16.5376Z" fill="white"/>
<path d="M101.006 16.3343C100.516 16.5744 99.9705 16.6975 99.369 16.6975C98.4822 16.6975 97.8001 16.4636 97.3288 15.9958C96.8575 15.5279 96.6218 14.8447 96.6218 13.946C96.6218 13.3981 96.7273 12.918 96.9381 12.5056C97.1489 12.0932 97.4404 11.7792 97.8125 11.5576C98.1845 11.336 98.6062 11.2252 99.0837 11.2252C99.7596 11.2252 100.287 11.416 100.671 11.8038C101.056 12.1916 101.248 12.7149 101.248 13.3858C101.248 13.6997 101.217 14.0075 101.155 14.3091H97.9613C97.9861 14.777 98.1349 15.1217 98.3954 15.3494C98.6558 15.5772 99.0403 15.688 99.5364 15.688C100.033 15.688 100.535 15.5772 101 15.3556V16.3405L101.006 16.3343ZM99.0837 12.1732C98.7675 12.1732 98.507 12.284 98.3086 12.4994C98.1101 12.7149 97.9861 13.0103 97.9551 13.3858H99.9953V13.2381C99.9953 12.8872 99.9147 12.6225 99.7597 12.444C99.6046 12.2655 99.3814 12.1732 99.0837 12.1732Z" fill="white"/>
<path d="M106.848 8.86157V16.4575L105.756 16.5683L105.676 16.2359C105.434 16.3775 105.18 16.4883 104.907 16.5745C104.634 16.6606 104.392 16.6976 104.169 16.6976C103.505 16.6976 102.991 16.4637 102.619 15.9958C102.247 15.528 102.061 14.8755 102.061 14.0507C102.061 13.152 102.284 12.4626 102.724 11.9701C103.164 11.4777 103.784 11.2315 104.591 11.2315C104.882 11.2315 105.18 11.2684 105.49 11.3423V8.997L106.854 8.86773L106.848 8.86157ZM104.553 15.6573C104.696 15.6573 104.851 15.6327 105.025 15.5834C105.198 15.5342 105.347 15.4665 105.484 15.3865V12.3087C105.273 12.2594 105.05 12.241 104.814 12.241C104.361 12.241 104.026 12.3887 103.809 12.678C103.592 12.9673 103.481 13.4167 103.481 14.0261C103.481 15.1156 103.84 15.6635 104.553 15.6635V15.6573Z" fill="white"/>
<path d="M108.838 10.579C108.584 10.579 108.386 10.5113 108.243 10.3758C108.1 10.2404 108.032 10.0557 108.032 9.82183C108.032 9.58792 108.1 9.40325 108.243 9.26783C108.386 9.13241 108.584 9.0647 108.838 9.0647C109.093 9.0647 109.297 9.13241 109.44 9.26783C109.583 9.40325 109.657 9.58792 109.657 9.82183C109.657 10.0557 109.583 10.2404 109.44 10.3758C109.297 10.5113 109.093 10.579 108.838 10.579ZM108.162 16.5375V11.49L109.527 11.3607V16.5375H108.162Z" fill="white"/>
<path d="M112.528 12.3455V14.9247C112.528 15.4233 112.77 15.6756 113.247 15.6756C113.421 15.6756 113.638 15.6387 113.892 15.5648V16.4759C113.595 16.6113 113.254 16.679 112.869 16.679C112.311 16.679 111.883 16.5374 111.598 16.2481C111.306 15.9588 111.164 15.5402 111.164 14.9924V12.3455H110.395V11.4406L111.232 11.4098L111.325 10.1172L112.528 9.98792V11.3914H113.861V12.3455H112.528Z" fill="white"/>
<path d="M122.264 16.2358C121.657 16.5436 120.999 16.6974 120.28 16.6974C119.288 16.6974 118.525 16.3774 117.979 15.7433C117.434 15.1093 117.167 14.2045 117.167 13.0226C117.167 11.8407 117.44 10.9666 117.986 10.3203C118.531 9.67397 119.294 9.35388 120.28 9.35388C120.975 9.35388 121.619 9.50777 122.221 9.81555V10.9297C121.899 10.7758 121.613 10.665 121.359 10.6035C121.111 10.5419 120.832 10.5111 120.528 10.5111C119.927 10.5111 119.474 10.7204 119.17 11.1451C118.866 11.5699 118.711 12.1977 118.711 13.0287C118.711 14.7092 119.319 15.5464 120.528 15.5464C120.82 15.5464 121.099 15.5156 121.359 15.4479C121.626 15.3802 121.923 15.2755 122.252 15.1278V16.2419L122.264 16.2358Z" fill="white"/>
<path d="M126.512 16.5682L126.431 16.2358C125.904 16.5436 125.377 16.6975 124.856 16.6975C124.335 16.6975 123.889 16.5498 123.566 16.2543C123.244 15.9588 123.089 15.5649 123.089 15.0601C123.089 14.5554 123.269 14.1429 123.622 13.8536C123.976 13.5643 124.472 13.4227 125.11 13.4227C125.489 13.4227 125.873 13.4597 126.264 13.5335V13.1334C126.264 12.8257 126.171 12.5979 125.991 12.4563C125.811 12.3148 125.526 12.2409 125.141 12.2409C124.627 12.2409 124.062 12.3578 123.442 12.5794V11.5946C123.734 11.4838 124.05 11.3914 124.404 11.3237C124.751 11.256 125.086 11.2252 125.396 11.2252C126.109 11.2252 126.655 11.3853 127.039 11.7054C127.417 12.0254 127.61 12.4871 127.61 13.0904V16.4513L126.518 16.5621L126.512 16.5682ZM125.272 15.7249C125.421 15.7249 125.582 15.7003 125.762 15.6572C125.941 15.608 126.109 15.5526 126.264 15.4787V14.383C125.954 14.3091 125.675 14.2722 125.427 14.2722C124.782 14.2722 124.453 14.5184 124.453 15.017C124.453 15.2509 124.521 15.4295 124.658 15.5464C124.794 15.6695 124.999 15.7249 125.272 15.7249Z" fill="white"/>
<path d="M128.862 16.5376V11.4716L129.953 11.3608L130.065 11.8348C130.487 11.4532 130.958 11.2623 131.473 11.2623C131.634 11.2623 131.801 11.287 131.981 11.33V12.4442C131.777 12.3949 131.603 12.3765 131.448 12.3765C130.983 12.3765 130.58 12.5057 130.233 12.7581V16.5438H128.868L128.862 16.5376Z" fill="white"/>
<path d="M137.345 8.86157V16.4575L136.254 16.5683L136.173 16.2359C135.931 16.3775 135.677 16.4883 135.404 16.5745C135.131 16.6606 134.89 16.6976 134.666 16.6976C134.003 16.6976 133.488 16.4637 133.116 15.9958C132.744 15.528 132.558 14.8755 132.558 14.0507C132.558 13.152 132.781 12.4626 133.221 11.9701C133.662 11.4777 134.282 11.2315 135.088 11.2315C135.379 11.2315 135.677 11.2684 135.987 11.3423V8.997L137.351 8.86773L137.345 8.86157ZM135.051 15.6573C135.193 15.6573 135.348 15.6327 135.522 15.5834C135.696 15.5342 135.845 15.4665 135.981 15.3865V12.3087C135.77 12.2594 135.547 12.241 135.311 12.241C134.859 12.241 134.524 12.3887 134.307 12.678C134.09 12.9673 133.978 13.4167 133.978 14.0261C133.978 15.1156 134.338 15.6635 135.051 15.6635V15.6573Z" fill="white"/>
<path d="M141.308 16.5377V9.6558C141.662 9.58809 142.052 9.53269 142.48 9.49576C142.908 9.45883 143.286 9.4342 143.603 9.4342C144.508 9.4342 145.202 9.63118 145.686 10.0251C146.17 10.4191 146.412 10.9792 146.412 11.7118C146.412 12.4443 146.157 12.9983 145.649 13.4045C145.14 13.8108 144.44 14.0201 143.553 14.0201H142.722V16.5377H141.308ZM143.553 10.5053C143.243 10.5053 142.964 10.5237 142.722 10.5668V12.9429H143.553C144.006 12.9429 144.353 12.8382 144.595 12.6289C144.837 12.4196 144.961 12.118 144.961 11.7179C144.961 10.9115 144.489 10.5053 143.553 10.5053Z" fill="white"/>
<path d="M150.374 16.5682L150.294 16.2358C149.767 16.5436 149.239 16.6975 148.719 16.6975C148.198 16.6975 147.751 16.5498 147.429 16.2543C147.106 15.9588 146.951 15.5649 146.951 15.0601C146.951 14.5554 147.131 14.1429 147.484 13.8536C147.838 13.5643 148.334 13.4227 148.973 13.4227C149.351 13.4227 149.736 13.4597 150.126 13.5335V13.1334C150.126 12.8257 150.033 12.5979 149.853 12.4563C149.674 12.3148 149.388 12.2409 149.004 12.2409C148.489 12.2409 147.925 12.3578 147.305 12.5794V11.5946C147.596 11.4838 147.912 11.3914 148.266 11.3237C148.613 11.256 148.948 11.2252 149.258 11.2252C149.971 11.2252 150.517 11.3853 150.901 11.7054C151.28 12.0254 151.472 12.4871 151.472 13.0904V16.4513L150.38 16.5621L150.374 16.5682ZM149.134 15.7249C149.283 15.7249 149.444 15.7003 149.624 15.6572C149.804 15.608 149.971 15.5526 150.126 15.4787V14.383C149.816 14.3091 149.537 14.2722 149.289 14.2722C148.644 14.2722 148.315 14.5184 148.315 15.017C148.315 15.2509 148.384 15.4295 148.52 15.5464C148.657 15.6695 148.861 15.7249 149.134 15.7249Z" fill="white"/>
<path d="M152.73 16.5376V11.4716L153.822 11.3608L153.934 11.8348C154.355 11.4532 154.826 11.2623 155.341 11.2623C155.502 11.2623 155.67 11.287 155.85 11.33V12.4442C155.645 12.3949 155.471 12.3765 155.316 12.3765C154.851 12.3765 154.448 12.5057 154.101 12.7581V16.5438H152.737L152.73 16.5376Z" fill="white"/>
<path d="M158.362 12.3455V14.9247C158.362 15.4233 158.604 15.6756 159.081 15.6756C159.255 15.6756 159.472 15.6387 159.726 15.5648V16.4759C159.428 16.6113 159.087 16.679 158.703 16.679C158.145 16.679 157.717 16.5374 157.432 16.2481C157.14 15.9588 156.997 15.5402 156.997 14.9924V12.3455H156.229V11.4406L157.066 11.4098L157.159 10.1172L158.362 9.98792V11.3914H159.695V12.3455H158.362Z" fill="white"/>
<path d="M163.818 16.5375V13.1581C163.818 12.8565 163.75 12.6349 163.614 12.4933C163.477 12.3517 163.267 12.2778 162.975 12.2778C162.814 12.2778 162.646 12.3025 162.467 12.3517C162.293 12.4009 162.138 12.4687 162.001 12.5487V16.5436H160.637V11.4776L161.729 11.3668L161.809 11.6992C162.336 11.3914 162.851 11.2375 163.366 11.2375C163.942 11.2375 164.389 11.3914 164.705 11.6931C165.021 11.9947 165.177 12.4256 165.177 12.9796V16.5436H163.812L163.818 16.5375Z" fill="white"/>
<path d="M170.59 16.3343C170.1 16.5744 169.555 16.6975 168.953 16.6975C168.066 16.6975 167.384 16.4636 166.913 15.9958C166.442 15.5279 166.206 14.8447 166.206 13.946C166.206 13.3981 166.311 12.918 166.522 12.5056C166.733 12.0932 167.025 11.7792 167.397 11.5576C167.769 11.336 168.19 11.2252 168.668 11.2252C169.344 11.2252 169.871 11.416 170.255 11.8038C170.64 12.1916 170.832 12.7149 170.832 13.3858C170.832 13.6997 170.801 14.0075 170.739 14.3091H167.546C167.57 14.777 167.719 15.1217 167.98 15.3494C168.24 15.5772 168.625 15.688 169.121 15.688C169.617 15.688 170.119 15.5772 170.584 15.3556V16.3405L170.59 16.3343ZM168.668 12.1732C168.352 12.1732 168.091 12.284 167.893 12.4994C167.694 12.7149 167.57 13.0103 167.539 13.3858H169.58V13.2381C169.58 12.8872 169.499 12.6225 169.344 12.444C169.189 12.2655 168.966 12.1732 168.668 12.1732Z" fill="white"/>
<path d="M171.892 16.5376V11.4716L172.984 11.3608L173.095 11.8348C173.517 11.4532 173.988 11.2623 174.503 11.2623C174.664 11.2623 174.832 11.287 175.012 11.33V12.4442C174.807 12.3949 174.633 12.3765 174.478 12.3765C174.013 12.3765 173.61 12.5057 173.263 12.7581V16.5438H171.899L171.892 16.5376Z" fill="white"/>
<path d="M180.574 16.6976C179.774 16.6976 179.16 16.4637 178.739 16.002C178.317 15.5403 178.106 14.8571 178.106 13.9584C178.106 13.0596 178.317 12.3948 178.733 11.927C179.148 11.4654 179.762 11.2314 180.574 11.2314C181.387 11.2314 181.994 11.4654 182.416 11.927C182.832 12.3948 183.042 13.072 183.042 13.9584C183.042 14.8448 182.832 15.5342 182.41 16.002C181.988 16.4698 181.374 16.6976 180.574 16.6976ZM180.574 15.6511C180.946 15.6511 181.213 15.5219 181.374 15.2572C181.535 14.9925 181.616 14.5616 181.616 13.9522C181.616 13.3428 181.535 12.9181 181.374 12.6595C181.213 12.401 180.946 12.2656 180.574 12.2656C180.202 12.2656 179.936 12.3948 179.774 12.6595C179.613 12.9242 179.532 13.349 179.532 13.9522C179.532 14.5554 179.613 14.9986 179.774 15.2572C179.936 15.5157 180.202 15.6511 180.574 15.6511Z" fill="white"/>
<path d="M184.425 16.5374V12.3455H183.656V11.4407L184.425 11.4099V10.585C184.425 10.0187 184.58 9.56937 184.896 9.24312C185.213 8.91688 185.641 8.75684 186.193 8.75684C186.552 8.75684 186.912 8.82455 187.272 8.95997V9.8833C186.968 9.80328 186.726 9.76019 186.546 9.76019C186.304 9.76019 186.118 9.8279 185.988 9.95717C185.858 10.0864 185.789 10.2773 185.789 10.5358V11.3853H187.024V12.3394H185.789V16.5313H184.425V16.5374Z" fill="white"/>
<path d="M248.11 26.746C248.513 26.746 248.835 27.0292 248.835 27.417C248.835 27.8048 248.513 28.0941 248.11 28.0941C247.707 28.0941 247.384 27.8048 247.384 27.417C247.384 27.0292 247.707 26.746 248.11 26.746ZM248.11 28.2787C248.631 28.2787 249.04 27.8971 249.04 27.417C249.04 26.9368 248.631 26.5552 248.11 26.5552C247.589 26.5552 247.179 26.9368 247.179 27.417C247.179 27.8971 247.589 28.2787 248.11 28.2787ZM248.302 27.5031C248.475 27.4908 248.562 27.4046 248.562 27.2384C248.562 27.0045 248.413 26.9676 248.184 26.9676H247.713V27.8663H247.917V27.5093H248.091L248.314 27.8663H248.538L248.302 27.5093V27.5031ZM247.917 27.3431V27.1276H248.141C248.234 27.1276 248.364 27.1276 248.364 27.2261C248.364 27.3246 248.296 27.3431 248.19 27.3431H247.917Z" fill="white"/>
<path d="M198.134 0H242.417C244.798 0 246.739 1.92053 246.739 4.29041V23.9451C246.739 26.3088 244.805 28.2355 242.417 28.2355H198.134C195.753 28.2355 193.812 26.315 193.812 23.9451V4.29041C193.812 1.92053 195.747 0 198.134 0Z" fill="white"/>
<path d="M244.451 2.26525C243.905 1.72357 243.186 1.4281 242.417 1.4281H230.033L237.158 13.2221L237.809 13.3021L238.188 13.8377V14.3486L238.646 14.4286L239.056 14.9949V15.4812L239.515 15.5612C239.515 15.5612 239.974 16.0475 239.974 16.0721C239.974 16.0475 239.974 17.174 239.974 17.174C239.974 17.174 240.978 18.0912 241.871 18.4359C242.497 18.6759 242.578 19.6731 242.932 20.2148C243.421 20.9658 244.073 21.292 243.936 21.7229C243.614 22.8802 242.417 24.8192 241.307 24.93C241.307 24.93 238.541 24.93 236.91 24.93V26.7951H242.404C243.992 26.7951 245.282 25.5086 245.282 23.9328V4.29043C245.282 3.52714 244.984 2.80694 244.438 2.27141L244.451 2.26525Z" fill="#BC0022"/>
<path d="M225.816 1.42827H198.134C197.365 1.42827 196.639 1.72374 196.1 2.26543C195.554 2.80712 195.257 3.52116 195.257 4.28445V23.9391C195.257 24.7024 195.554 25.4226 196.1 25.9581C196.646 26.4998 197.365 26.7953 198.134 26.7953H216.118C215.665 26.0505 215.163 25.201 215.001 24.9425H212.856C212.856 19.6672 214.666 16.731 216.812 16.1647C217.11 16.1093 216.973 14.6565 216.595 14.2257C216.595 14.2257 215.566 14.2503 215.349 14.201C215.076 14.121 215.268 13.8502 215.268 13.8502L216.273 11.6957L216.136 11.1048H212.422C212.366 11.1048 215.485 8.97497 215.485 8.97497C215.646 3.37343 221.426 2.94254 224.923 5.25702C226.988 6.62971 227.15 9.31968 226.988 11.2094C226.963 11.3141 226.449 11.2341 226.449 11.2341C226.449 11.2341 226.095 13.2777 227.019 13.2777H231.087C232.743 13.2223 234.343 14.3241 234.343 14.3241L234.746 12.9207L225.816 1.42212V1.42827ZM201.21 22.7572C200.118 22.7572 199.232 21.877 199.232 20.7936C199.232 19.7102 200.118 18.83 201.21 18.83C202.301 18.83 203.188 19.7102 203.188 20.7936C203.188 21.877 202.307 22.7572 201.21 22.7572Z" fill="#041E42"/>
<path d="M8.86716 26.0104L9.56449 27.781L10.2679 26.0104H10.7833L11.0077 28.642H10.5408L10.4013 26.7501L9.75853 28.3874H9.36438L8.7095 26.7198L8.57003 28.642H8.10918L8.33354 26.0104H8.86716ZM6.58112 28.642V26.4106H5.79889V26.0104H7.86057V26.4106H7.07834V28.642H6.58112ZM11.516 30.255L13.044 25.7011H13.6201L12.092 30.255H11.516ZM16.2374 30.346C15.817 30.346 15.437 30.2449 15.0974 30.0428C14.7619 29.8366 14.5011 29.5658 14.3152 29.2302C14.1292 28.8947 14.0362 28.5289 14.0362 28.1327C14.0362 27.7082 14.1373 27.3262 14.3394 26.9866C14.5456 26.6471 14.8144 26.3843 15.1459 26.1983C15.4814 26.0124 15.8453 25.9194 16.2374 25.9194C16.6578 25.9194 17.0358 26.0225 17.3713 26.2287C17.7109 26.4308 17.9736 26.6996 18.1596 27.0351C18.3455 27.3707 18.4385 27.7365 18.4385 28.1327C18.4385 28.5572 18.3354 28.9392 18.1293 29.2787C17.9271 29.6183 17.6583 29.8811 17.3228 30.067C16.9913 30.253 16.6295 30.346 16.2374 30.346ZM16.2374 30.0003C16.5931 30.0003 16.9084 29.9175 17.1833 29.7517C17.4623 29.5819 17.6765 29.3555 17.8261 29.0726C17.9797 28.7896 18.0565 28.4763 18.0565 28.1327C18.0565 27.7648 17.9736 27.4394 17.8079 27.1564C17.6462 26.8694 17.4279 26.6491 17.153 26.4955C16.8781 26.3419 16.5729 26.265 16.2374 26.265C15.8816 26.265 15.5643 26.3499 15.2854 26.5197C15.0105 26.6855 14.7962 26.9098 14.6426 27.1928C14.493 27.4758 14.4182 27.7891 14.4182 28.1327C14.4182 28.5006 14.4991 28.828 14.6608 29.115C14.8265 29.398 15.0469 29.6163 15.3217 29.7699C15.5966 29.9235 15.9018 30.0003 16.2374 30.0003ZM17.0196 29.3091C16.8094 29.4222 16.5729 29.4788 16.3101 29.4788C15.9342 29.4788 15.6391 29.3596 15.4248 29.1211C15.2106 28.8826 15.1035 28.5531 15.1035 28.1327C15.1035 27.7123 15.2106 27.3828 15.4248 27.1443C15.6431 26.9058 15.9382 26.7865 16.3101 26.7865C16.5648 26.7865 16.7973 26.8431 17.0075 26.9563V27.3383C16.9024 27.2817 16.8013 27.2413 16.7043 27.2171C16.6113 27.1888 16.5082 27.1746 16.395 27.1746C16.1565 27.1746 15.9685 27.2615 15.8311 27.4354C15.6977 27.6051 15.631 27.8376 15.631 28.1327C15.631 28.4318 15.6977 28.6663 15.8311 28.8361C15.9685 29.0059 16.1565 29.0908 16.395 29.0908C16.5931 29.0908 16.8013 29.0362 17.0196 28.927V29.3091ZM20.4958 30.255C20.5039 29.8912 20.5766 29.5759 20.7141 29.3091C20.8556 29.0423 21.0921 28.7694 21.4236 28.4904L21.9329 28.0599C22.1391 27.8861 22.2866 27.7305 22.3756 27.593C22.4645 27.4556 22.509 27.3141 22.509 27.1685C22.509 26.9543 22.4301 26.7845 22.2725 26.6592C22.1189 26.5339 21.9087 26.4712 21.6418 26.4712C21.2942 26.4712 20.9546 26.5925 20.6231 26.835V26.3681C20.9506 26.1296 21.3366 26.0104 21.7813 26.0104C22.0441 26.0104 22.2745 26.0609 22.4726 26.162C22.6747 26.259 22.8303 26.3944 22.9395 26.5682C23.0486 26.738 23.1032 26.928 23.1032 27.1382C23.1032 27.3484 23.0466 27.5465 22.9334 27.7325C22.8243 27.9144 22.6363 28.1185 22.3695 28.3449L21.8844 28.7573C21.658 28.9513 21.4862 29.1292 21.369 29.2909C21.2517 29.4526 21.177 29.6143 21.1446 29.776H22.5514C22.7859 29.776 22.988 29.7699 23.1578 29.7578V30.255H20.4958ZM25.353 29.8972C25.6683 29.8972 25.8988 29.7598 26.0443 29.4849C26.1898 29.206 26.2626 28.7694 26.2626 28.1751C26.2626 27.5809 26.1878 27.1463 26.0382 26.8714C25.8927 26.5965 25.6643 26.4591 25.353 26.4591C25.0417 26.4591 24.8113 26.5965 24.6617 26.8714C24.5162 27.1463 24.4434 27.5809 24.4434 28.1751C24.4434 28.7694 24.5162 29.206 24.6617 29.4849C24.8073 29.7598 25.0377 29.8972 25.353 29.8972ZM25.353 30.346C24.3505 30.346 23.8492 29.6224 23.8492 28.1751C23.8492 27.4596 23.9745 26.9199 24.2252 26.5561C24.4758 26.1923 24.8517 26.0104 25.353 26.0104C25.8543 26.0104 26.2302 26.1923 26.4809 26.5561C26.7315 26.9199 26.8568 27.4596 26.8568 28.1751C26.8568 29.6224 26.3556 30.346 25.353 30.346ZM27.4535 30.255C27.4616 29.8912 27.5343 29.5759 27.6718 29.3091C27.8133 29.0423 28.0498 28.7694 28.3812 28.4904L28.8906 28.0599C29.0968 27.8861 29.2443 27.7305 29.3333 27.593C29.4222 27.4556 29.4667 27.3141 29.4667 27.1685C29.4667 26.9543 29.3878 26.7845 29.2302 26.6592C29.0766 26.5339 28.8663 26.4712 28.5995 26.4712C28.2519 26.4712 27.9123 26.5925 27.5808 26.835V26.3681C27.9083 26.1296 28.2943 26.0104 28.739 26.0104C29.0018 26.0104 29.2322 26.0609 29.4303 26.162C29.6324 26.259 29.788 26.3944 29.8972 26.5682C30.0063 26.738 30.0609 26.928 30.0609 27.1382C30.0609 27.3484 30.0043 27.5465 29.8911 27.7325C29.782 27.9144 29.594 28.1185 29.3272 28.3449L28.8421 28.7573C28.6157 28.9513 28.4439 29.1292 28.3267 29.2909C28.2094 29.4526 28.1347 29.6143 28.1023 29.776H29.5091C29.7436 29.776 29.9457 29.7699 30.1155 29.7578V30.255H27.4535ZM33.3779 26.4833C32.9575 26.5036 32.5977 26.5824 32.2986 26.7198C31.9994 26.8532 31.765 27.0412 31.5952 27.2838C31.4294 27.5223 31.3324 27.8093 31.3041 28.1448C31.4214 27.9993 31.577 27.8841 31.771 27.7992C31.9651 27.7143 32.1672 27.6718 32.3774 27.6718C32.624 27.6718 32.8443 27.7325 33.0384 27.8538C33.2324 27.971 33.382 28.1307 33.4871 28.3328C33.5922 28.5309 33.6447 28.7492 33.6447 28.9877C33.6447 29.2626 33.5821 29.5031 33.4568 29.7093C33.3355 29.9114 33.1677 30.069 32.9535 30.1822C32.7392 30.2914 32.4967 30.346 32.2258 30.346C31.9105 30.346 31.6397 30.2732 31.4133 30.1277C31.1909 29.9781 31.0211 29.7659 30.9039 29.491C30.7907 29.2161 30.7341 28.8927 30.7341 28.5208C30.7341 28.0114 30.8372 27.5728 31.0434 27.2049C31.2496 26.833 31.5447 26.546 31.9287 26.3439C32.3127 26.1418 32.7695 26.0306 33.2991 26.0104L33.3779 26.4833ZM32.2743 28.1145C32.0884 28.1145 31.9065 28.165 31.7286 28.2661C31.5507 28.3672 31.4072 28.5026 31.2981 28.6724C31.3142 29.0685 31.4011 29.3717 31.5588 29.5819C31.7205 29.7921 31.9428 29.8972 32.2258 29.8972C32.4805 29.8972 32.6846 29.8164 32.8383 29.6547C32.9919 29.4889 33.0687 29.2727 33.0687 29.0059C33.0687 28.7391 32.9959 28.5248 32.8504 28.3631C32.7049 28.1974 32.5128 28.1145 32.2743 28.1145ZM38.0018 29.8851L36.8194 26.8411L36.589 30.255H36.0311L36.3646 26.0104H37.0256L38.2444 29.1514L39.4632 26.0104H40.1242L40.4577 30.255H39.8937L39.6572 26.8411L38.4809 29.8851H38.0018ZM41.5264 30.255V26.0104H42.1146V29.7699H44.0672V30.255H41.5264ZM44.8099 30.255V26.1013C45.0241 26.0609 45.2505 26.0286 45.489 26.0043C45.7275 25.9801 45.9357 25.9679 46.1136 25.9679C46.5866 25.9679 46.9484 26.0629 47.199 26.2529C47.4537 26.4389 47.581 26.7077 47.581 27.0594C47.581 27.2939 47.5163 27.494 47.387 27.6597C47.2617 27.8255 47.0757 27.9508 46.8291 28.0357C47.1283 28.1003 47.3587 28.2257 47.5204 28.4116C47.6861 28.5935 47.769 28.824 47.769 29.1029C47.769 29.4748 47.6396 29.7598 47.3809 29.9579C47.1222 30.156 46.7523 30.255 46.2712 30.255H44.8099ZM46.2531 29.8063C46.5522 29.8063 46.7786 29.7436 46.9322 29.6183C47.0899 29.4889 47.1687 29.301 47.1687 29.0544C47.1687 28.8118 47.0858 28.6259 46.9201 28.4965C46.7584 28.3631 46.53 28.2964 46.2349 28.2964H45.3799V29.8063H46.2531ZM46.0711 26.4166C45.8811 26.4166 45.6507 26.4369 45.3799 26.4773V27.8598H46.1803C46.435 27.8598 46.6351 27.7951 46.7806 27.6658C46.9302 27.5324 47.005 27.3545 47.005 27.1322C47.005 26.6552 46.6937 26.4166 46.0711 26.4166ZM48.8073 30.2853C48.6982 30.2853 48.6092 30.251 48.5405 30.1822C48.4718 30.1135 48.4374 30.0246 48.4374 29.9154C48.4374 29.8063 48.4718 29.7174 48.5405 29.6486C48.6092 29.5799 48.6982 29.5455 48.8073 29.5455C48.9165 29.5455 49.0054 29.5799 49.0741 29.6486C49.1428 29.7174 49.1772 29.8063 49.1772 29.9154C49.1772 30.0246 49.1428 30.1135 49.0741 30.1822C49.0054 30.251 48.9165 30.2853 48.8073 30.2853Z" fill="white"/>
</svg>
