<svg width="572" height="25" viewBox="0 0 572 25" fill="none" xmlns="http://www.w3.org/2000/svg">
<path d="M564.202 21.336V7.28L566.33 7.056L566.554 8.344C567.786 7.29867 569.102 6.776 570.502 6.776C570.931 6.776 571.361 6.84133 571.79 6.972V9.128C571.342 9.016 570.885 8.96 570.418 8.96C569.074 8.96 567.88 9.38 566.834 10.22V21.336H564.202Z" fill="white"/>
<path d="M560.13 20.804C558.842 21.4387 557.405 21.756 555.818 21.756C553.503 21.756 551.739 21.112 550.526 19.824C549.313 18.536 548.706 16.6507 548.706 14.168C548.706 12.6373 548.977 11.312 549.518 10.192C550.059 9.05332 550.815 8.18532 551.786 7.58799C552.757 6.99065 553.867 6.69199 555.118 6.69199C556.873 6.69199 558.254 7.21465 559.262 8.25999C560.27 9.30532 560.774 10.752 560.774 12.6C560.774 13.328 560.709 14.0467 560.578 14.756H551.31C551.366 18.06 552.971 19.712 556.126 19.712C557.489 19.712 558.823 19.4133 560.13 18.816V20.804ZM555.118 8.62399C554.035 8.62399 553.149 9.00665 552.458 9.77199C551.786 10.5373 551.403 11.5733 551.31 12.88H558.338C558.357 12.7867 558.366 12.6933 558.366 12.6C558.366 12.5067 558.366 12.4133 558.366 12.32C558.366 11.1627 558.077 10.2573 557.498 9.60399C556.938 8.95065 556.145 8.62399 555.118 8.62399Z" fill="white"/>
<path d="M539.644 21.336L534.352 7.112H537.152L540.96 18.452L544.824 7.112H547.512L542.164 21.336H539.644Z" fill="white"/>
<path d="M529.421 21.336V0.307999L532.053 0V21.336H529.421Z" fill="white"/>
<path d="M522.53 21.336V7.336L525.162 7.028V21.336H522.53ZM523.846 4.2C523.305 4.2 522.876 4.06 522.558 3.78C522.26 3.48133 522.11 3.08 522.11 2.576C522.11 2.072 522.26 1.68 522.558 1.4C522.876 1.10133 523.305 0.951996 523.846 0.951996C524.388 0.951996 524.808 1.10133 525.106 1.4C525.424 1.68 525.582 2.072 525.582 2.576C525.582 3.08 525.424 3.48133 525.106 3.78C524.808 4.06 524.388 4.2 523.846 4.2Z" fill="white"/>
<path d="M508.809 18.732C510.302 19.3854 511.795 19.712 513.289 19.712C514.371 19.712 515.193 19.5067 515.753 19.096C516.331 18.6854 516.621 18.0974 516.621 17.332C516.621 16.828 516.462 16.4173 516.145 16.1C515.827 15.7827 515.305 15.512 514.577 15.288L512.673 14.7C511.403 14.308 510.479 13.804 509.901 13.188C509.322 12.572 509.033 11.788 509.033 10.836C509.033 9.56668 509.527 8.55868 510.517 7.81202C511.506 7.06535 512.841 6.69202 514.521 6.69202C515.939 6.69202 517.293 6.97202 518.581 7.53202V9.54802C517.162 9.00668 515.865 8.73602 514.689 8.73602C513.737 8.73602 512.99 8.92268 512.449 9.29602C511.926 9.65068 511.665 10.136 511.665 10.752C511.665 11.2 511.805 11.5547 512.085 11.816C512.365 12.0587 512.887 12.3014 513.653 12.544L515.781 13.188C518.095 13.8787 519.253 15.2507 519.253 17.304C519.253 18.7414 518.758 19.8427 517.769 20.608C516.779 21.3733 515.351 21.756 513.485 21.756C511.749 21.756 510.293 21.4667 509.117 20.888L508.809 18.732Z" fill="white"/>
<path d="M495.843 21.336V0.307999L498.475 0V13.216L504.327 7.112H507.351L500.995 13.72L507.659 21.336H504.467L498.475 14.364V21.336H495.843Z" fill="white"/>
<path d="M492.602 20.832C491.314 21.448 489.886 21.756 488.318 21.756C486.265 21.756 484.678 21.1027 483.558 19.796C482.438 18.4893 481.878 16.6413 481.878 14.252C481.878 11.844 482.438 9.98665 483.558 8.67999C484.697 7.35465 486.293 6.69199 488.346 6.69199C489.783 6.69199 491.174 6.99999 492.518 7.61599V9.63199C491.23 9.07199 489.998 8.79199 488.822 8.79199C487.441 8.79199 486.395 9.24932 485.686 10.164C484.977 11.0787 484.622 12.432 484.622 14.224C484.622 15.9973 484.977 17.3507 485.686 18.284C486.395 19.1987 487.441 19.656 488.822 19.656C489.998 19.656 491.258 19.376 492.602 18.816V20.832Z" fill="white"/>
<path d="M475.827 21.336V7.336L478.459 7.028V21.336H475.827ZM477.143 4.2C476.602 4.2 476.173 4.06 475.855 3.78C475.557 3.48133 475.407 3.08 475.407 2.576C475.407 2.072 475.557 1.68 475.855 1.4C476.173 1.10133 476.602 0.951996 477.143 0.951996C477.685 0.951996 478.105 1.10133 478.403 1.4C478.721 1.68 478.879 2.072 478.879 2.576C478.879 3.08 478.721 3.48133 478.403 3.78C478.105 4.06 477.685 4.2 477.143 4.2Z" fill="white"/>
<path d="M469.457 21.392L469.289 20.412C467.758 21.308 466.237 21.756 464.725 21.756C463.213 21.756 462.037 21.3453 461.197 20.524C460.357 19.7027 459.937 18.5547 459.937 17.08V7.112H462.569V16.688C462.569 18.6853 463.53 19.684 465.453 19.684C465.994 19.684 466.582 19.6 467.217 19.432C467.851 19.2453 468.43 19.0027 468.953 18.704V7.112H471.585V21.168L469.457 21.392Z" fill="white"/>
<path d="M446.159 21.672C443.994 21.0187 442.389 19.8613 441.343 18.2C440.298 16.5387 439.775 14.3173 439.775 11.536C439.775 8.23201 440.485 5.70268 441.903 3.94801C443.341 2.19334 445.403 1.31601 448.091 1.31601C450.779 1.31601 452.833 2.19334 454.251 3.94801C455.689 5.70268 456.407 8.23201 456.407 11.536C456.407 14.1307 455.941 16.2587 455.007 17.92C454.093 19.5627 452.749 20.664 450.975 21.224L456.771 22.204L455.819 24.612L446.159 21.672ZM448.091 19.572C449.939 19.572 451.302 18.9187 452.179 17.612C453.075 16.2867 453.523 14.2613 453.523 11.536C453.523 8.84801 453.075 6.85068 452.179 5.54401C451.302 4.21868 449.939 3.55601 448.091 3.55601C446.243 3.55601 444.871 4.21868 443.975 5.54401C443.098 6.85068 442.659 8.84801 442.659 11.536C442.659 14.2613 443.098 16.2867 443.975 17.612C444.871 18.9187 446.243 19.572 448.091 19.572Z" fill="white"/>
<path d="M417.503 21.336V0.307999L420.135 0V7.84C421.572 7.07467 422.982 6.692 424.363 6.692C425.912 6.692 427.107 7.10267 427.947 7.924C428.806 8.72667 429.235 9.87467 429.235 11.368V21.336H426.603V11.76C426.603 9.76267 425.614 8.764 423.635 8.764C423.112 8.764 422.524 8.85733 421.871 9.044C421.236 9.212 420.658 9.44533 420.135 9.744V21.336H417.503Z" fill="white"/>
<path d="M410.579 9.016V17.192C410.579 18.032 410.765 18.6573 411.139 19.068C411.512 19.46 412.081 19.656 412.847 19.656C413.425 19.656 414.041 19.5533 414.695 19.348V21.224C413.911 21.5227 413.099 21.672 412.259 21.672C410.84 21.672 409.767 21.2987 409.039 20.552C408.311 19.8053 407.947 18.7133 407.947 17.276V9.016H405.819V7.224L408.059 7.14L408.255 3.584L410.579 3.332V7.112H414.555V9.016H410.579Z" fill="white"/>
<path d="M400.468 21.336V7.336L403.1 7.028V21.336H400.468ZM401.784 4.2C401.243 4.2 400.813 4.06 400.496 3.78C400.197 3.48133 400.048 3.08 400.048 2.576C400.048 2.072 400.197 1.68 400.496 1.4C400.813 1.10133 401.243 0.951996 401.784 0.951996C402.325 0.951996 402.745 1.10133 403.044 1.4C403.361 1.68 403.52 2.072 403.52 2.576C403.52 3.08 403.361 3.48133 403.044 3.78C402.745 4.06 402.325 4.2 401.784 4.2Z" fill="white"/>
<path d="M391.305 21.336L387.973 9.884L384.753 21.336H382.345L377.893 7.112H380.553L383.605 18.144L386.629 7.112H389.401L392.481 18.144L395.505 7.112H398.081L393.713 21.336H391.305Z" fill="white"/>
<path d="M358.823 21.336V0.307999L361.455 0V13.216L367.307 7.112H370.331L363.975 13.72L370.639 21.336H367.447L361.455 14.364V21.336H358.823Z" fill="white"/>
<path d="M355.582 20.832C354.294 21.448 352.866 21.756 351.298 21.756C349.245 21.756 347.658 21.1027 346.538 19.796C345.418 18.4893 344.858 16.6413 344.858 14.252C344.858 11.844 345.418 9.98665 346.538 8.67999C347.677 7.35465 349.273 6.69199 351.326 6.69199C352.764 6.69199 354.154 6.99999 355.498 7.61599V9.63199C354.21 9.07199 352.978 8.79199 351.802 8.79199C350.421 8.79199 349.376 9.24932 348.666 10.164C347.957 11.0787 347.602 12.432 347.602 14.224C347.602 15.9973 347.957 17.3507 348.666 18.284C349.376 19.1987 350.421 19.656 351.802 19.656C352.978 19.656 354.238 19.376 355.582 18.816V20.832Z" fill="white"/>
<path d="M339.478 21.392L339.31 20.412C337.742 21.308 336.221 21.756 334.746 21.756C333.272 21.756 332.096 21.364 331.218 20.58C330.36 19.7773 329.93 18.704 329.93 17.36C329.93 15.96 330.416 14.8773 331.386 14.112C332.357 13.328 333.72 12.936 335.474 12.936C336.501 12.936 337.686 13.0573 339.03 13.3V11.816C339.03 10.7893 338.732 10.024 338.134 9.51999C337.556 9.01599 336.66 8.76399 335.446 8.76399C334.028 8.76399 332.478 9.09065 330.798 9.74399V7.69999C331.582 7.38265 332.432 7.13999 333.346 6.97199C334.261 6.78532 335.129 6.69199 335.95 6.69199C337.798 6.69199 339.198 7.12132 340.15 7.97999C341.121 8.83865 341.606 10.0987 341.606 11.76V21.168L339.478 21.392ZM335.418 19.712C335.96 19.712 336.566 19.6187 337.238 19.432C337.91 19.2453 338.508 19.0027 339.03 18.704V15.12C338.153 14.896 337.117 14.784 335.922 14.784C334.802 14.784 333.972 14.9987 333.43 15.428C332.908 15.8387 332.646 16.464 332.646 17.304C332.646 18.9093 333.57 19.712 335.418 19.712Z" fill="white"/>
<path d="M317.487 7.812C318.887 7.06533 320.203 6.692 321.435 6.692C323.264 6.692 324.692 7.34533 325.719 8.652C326.764 9.94 327.286 11.7227 327.286 14C327.286 16.5013 326.652 18.424 325.383 19.768C324.113 21.0933 322.303 21.756 319.951 21.756C318.271 21.756 316.572 21.5133 314.854 21.028V0.307999L317.487 0V7.812ZM320.819 8.764C320.315 8.764 319.754 8.85733 319.138 9.044C318.541 9.212 317.991 9.44533 317.487 9.744V19.376C318.271 19.6 319.101 19.712 319.979 19.712C321.509 19.712 322.648 19.2453 323.395 18.312C324.16 17.3787 324.543 15.96 324.543 14.056C324.543 12.32 324.225 11.004 323.591 10.108C322.975 9.212 322.051 8.764 320.819 8.764Z" fill="white"/>
<path d="M292.022 21.336V0.307999L294.654 0V7.84C296.092 7.07467 297.501 6.692 298.882 6.692C300.432 6.692 301.626 7.10267 302.466 7.924C303.325 8.72667 303.754 9.87467 303.754 11.368V21.336H301.122V11.76C301.122 9.76267 300.133 8.764 298.154 8.764C297.632 8.764 297.044 8.85733 296.39 9.044C295.756 9.212 295.177 9.44533 294.654 9.744V21.336H292.022Z" fill="white"/>
<path d="M278.301 18.732C279.794 19.3854 281.287 19.712 282.781 19.712C283.863 19.712 284.685 19.5067 285.245 19.096C285.823 18.6854 286.113 18.0974 286.113 17.332C286.113 16.828 285.954 16.4173 285.637 16.1C285.319 15.7827 284.797 15.512 284.069 15.288L282.165 14.7C280.895 14.308 279.971 13.804 279.393 13.188C278.814 12.572 278.525 11.788 278.525 10.836C278.525 9.56668 279.019 8.55868 280.009 7.81202C280.998 7.06535 282.333 6.69202 284.013 6.69202C285.431 6.69202 286.785 6.97202 288.073 7.53202V9.54802C286.654 9.00668 285.357 8.73602 284.181 8.73602C283.229 8.73602 282.482 8.92268 281.941 9.29602C281.418 9.65068 281.157 10.136 281.157 10.752C281.157 11.2 281.297 11.5547 281.577 11.816C281.857 12.0587 282.379 12.3014 283.145 12.544L285.273 13.188C287.587 13.8787 288.745 15.2507 288.745 17.304C288.745 18.7414 288.25 19.8427 287.261 20.608C286.271 21.3733 284.843 21.756 282.977 21.756C281.241 21.756 279.785 21.4667 278.609 20.888L278.301 18.732Z" fill="white"/>
<path d="M273.06 21.392L272.892 20.412C271.324 21.308 269.803 21.756 268.328 21.756C266.854 21.756 265.678 21.364 264.8 20.58C263.942 19.7773 263.512 18.704 263.512 17.36C263.512 15.96 263.998 14.8773 264.968 14.112C265.939 13.328 267.302 12.936 269.056 12.936C270.083 12.936 271.268 13.0573 272.612 13.3V11.816C272.612 10.7893 272.314 10.024 271.716 9.51999C271.138 9.01599 270.242 8.76399 269.028 8.76399C267.61 8.76399 266.06 9.09065 264.38 9.74399V7.69999C265.164 7.38265 266.014 7.13999 266.928 6.97199C267.843 6.78532 268.711 6.69199 269.532 6.69199C271.38 6.69199 272.78 7.12132 273.732 7.97999C274.703 8.83865 275.188 10.0987 275.188 11.76V21.168L273.06 21.392ZM269 19.712C269.542 19.712 270.148 19.6187 270.82 19.432C271.492 19.2453 272.09 19.0027 272.612 18.704V15.12C271.735 14.896 270.699 14.784 269.504 14.784C268.384 14.784 267.554 14.9987 267.012 15.428C266.49 15.8387 266.228 16.464 266.228 17.304C266.228 18.9093 267.152 19.712 269 19.712Z" fill="white"/>
<path d="M261.055 20.832C259.767 21.448 258.339 21.756 256.771 21.756C254.718 21.756 253.131 21.1027 252.011 19.796C250.891 18.4893 250.331 16.6413 250.331 14.252C250.331 11.844 250.891 9.98665 252.011 8.67999C253.15 7.35465 254.746 6.69199 256.799 6.69199C258.236 6.69199 259.627 6.99999 260.971 7.61599V9.63199C259.683 9.07199 258.451 8.79199 257.275 8.79199C255.894 8.79199 254.848 9.24932 254.139 10.164C253.43 11.0787 253.075 12.432 253.075 14.224C253.075 15.9973 253.43 17.3507 254.139 18.284C254.848 19.1987 255.894 19.656 257.275 19.656C258.451 19.656 259.711 19.376 261.055 18.816V20.832Z" fill="white"/>
<path d="M222.951 21.336L233.003 2.15601H235.327L225.275 21.336H222.951ZM221.831 12.656C222.652 12.656 223.249 12.3013 223.623 11.592C223.996 10.864 224.183 9.69734 224.183 8.09201C224.183 6.48667 223.996 5.32934 223.623 4.62001C223.249 3.89201 222.652 3.52801 221.831 3.52801C221.009 3.52801 220.412 3.89201 220.039 4.62001C219.665 5.32934 219.479 6.48667 219.479 8.09201C219.479 9.69734 219.665 10.864 220.039 11.592C220.412 12.3013 221.009 12.656 221.831 12.656ZM221.831 14.308C220.319 14.308 219.161 13.776 218.359 12.712C217.556 11.6293 217.155 10.0893 217.155 8.09201C217.155 6.09467 217.556 4.56401 218.359 3.50001C219.161 2.41734 220.319 1.87601 221.831 1.87601C223.343 1.87601 224.5 2.41734 225.303 3.50001C226.105 4.56401 226.507 6.09467 226.507 8.09201C226.507 10.0893 226.105 11.6293 225.303 12.712C224.5 13.776 223.343 14.308 221.831 14.308ZM236.447 19.964C237.268 19.964 237.865 19.6093 238.239 18.9C238.612 18.172 238.799 17.0053 238.799 15.4C238.799 13.7947 238.612 12.6373 238.239 11.928C237.865 11.2 237.268 10.836 236.447 10.836C235.625 10.836 235.028 11.2 234.655 11.928C234.281 12.6373 234.095 13.7947 234.095 15.4C234.095 17.0053 234.281 18.172 234.655 18.9C235.028 19.6093 235.625 19.964 236.447 19.964ZM236.447 21.616C234.935 21.616 233.777 21.084 232.975 20.02C232.172 18.9373 231.771 17.3973 231.771 15.4C231.771 13.4027 232.172 11.872 232.975 10.808C233.777 9.72534 234.935 9.18401 236.447 9.18401C237.959 9.18401 239.116 9.72534 239.919 10.808C240.721 11.872 241.123 13.4027 241.123 15.4C241.123 17.3973 240.721 18.9373 239.919 20.02C239.116 21.084 237.959 21.616 236.447 21.616Z" fill="white"/>
<path d="M202.366 18.452C204.065 19.2547 205.736 19.656 207.378 19.656C208.928 19.656 210.122 19.2827 210.962 18.536C211.802 17.7707 212.222 16.6973 212.222 15.316C212.222 14.0653 211.868 13.0947 211.158 12.404C210.468 11.7133 209.478 11.368 208.19 11.368C207.518 11.368 206.837 11.4613 206.146 11.648C205.474 11.816 204.886 12.0587 204.382 12.376L203.094 11.508L203.99 2.156H211.186C212.194 2.156 213.118 2.11867 213.958 2.04401V4.36801H206.146L205.614 10.108C206.081 9.90267 206.613 9.73467 207.21 9.60401C207.808 9.47334 208.386 9.408 208.946 9.408C210.776 9.408 212.232 9.94934 213.314 11.032C214.416 12.1147 214.966 13.552 214.966 15.344C214.966 16.6693 214.658 17.8173 214.042 18.788C213.445 19.74 212.596 20.4773 211.494 21C210.412 21.504 209.161 21.756 207.742 21.756C206.828 21.756 205.922 21.6627 205.026 21.476C204.13 21.2893 203.356 21.0373 202.702 20.72L202.366 18.452Z" fill="white"/>
<path d="M198.094 21.476C197.59 21.476 197.179 21.3173 196.862 21C196.544 20.6827 196.386 20.272 196.386 19.768C196.386 19.264 196.544 18.8533 196.862 18.536C197.179 18.2187 197.59 18.06 198.094 18.06C198.598 18.06 199.008 18.2187 199.326 18.536C199.643 18.8533 199.802 19.264 199.802 19.768C199.802 20.272 199.643 20.6827 199.326 21C199.008 21.3173 198.598 21.476 198.094 21.476Z" fill="white"/>
<path d="M189.811 21.336V4.95601L185.135 8.00801L184.603 5.82401L190.231 2.15601H192.443V21.336H189.811Z" fill="white"/>
<path d="M175.099 0V21.168L172.971 21.392L172.803 20.412C171.328 21.308 169.9 21.756 168.519 21.756C166.69 21.756 165.252 21.112 164.207 19.824C163.18 18.5173 162.667 16.7253 162.667 14.448C162.667 11.984 163.274 10.08 164.487 8.736C165.7 7.37333 167.408 6.692 169.611 6.692C170.675 6.692 171.627 6.82267 172.467 7.084V0.307999L175.099 0ZM169.135 19.684C169.639 19.684 170.19 19.6 170.787 19.432C171.403 19.2453 171.963 19.0027 172.467 18.704V9.072C171.683 8.848 170.852 8.736 169.975 8.736C168.444 8.736 167.296 9.20267 166.531 10.136C165.784 11.0693 165.411 12.488 165.411 14.392C165.411 16.128 165.719 17.444 166.335 18.34C166.97 19.236 167.903 19.684 169.135 19.684Z" fill="white"/>
<path d="M159.435 20.804C158.147 21.4387 156.709 21.756 155.123 21.756C152.808 21.756 151.044 21.112 149.831 19.824C148.617 18.536 148.011 16.6507 148.011 14.168C148.011 12.6373 148.281 11.312 148.823 10.192C149.364 9.05332 150.12 8.18532 151.091 7.58799C152.061 6.99065 153.172 6.69199 154.423 6.69199C156.177 6.69199 157.559 7.21465 158.567 8.25999C159.575 9.30532 160.079 10.752 160.079 12.6C160.079 13.328 160.013 14.0467 159.883 14.756H150.615C150.671 18.06 152.276 19.712 155.431 19.712C156.793 19.712 158.128 19.4133 159.435 18.816V20.804ZM154.423 8.62399C153.34 8.62399 152.453 9.00665 151.763 9.77199C151.091 10.5373 150.708 11.5733 150.615 12.88H157.643C157.661 12.7867 157.671 12.6933 157.671 12.6C157.671 12.5067 157.671 12.4133 157.671 12.32C157.671 11.1627 157.381 10.2573 156.803 9.60399C156.243 8.95065 155.449 8.62399 154.423 8.62399Z" fill="white"/>
<path d="M141.927 9.016V17.192C141.927 18.032 142.113 18.6573 142.487 19.068C142.86 19.46 143.429 19.656 144.195 19.656C144.773 19.656 145.389 19.5533 146.043 19.348V21.224C145.259 21.5227 144.447 21.672 143.607 21.672C142.188 21.672 141.115 21.2987 140.387 20.552C139.659 19.8053 139.295 18.7133 139.295 17.276V9.016H137.167V7.224L139.407 7.14L139.603 3.584L141.927 3.332V7.112H145.903V9.016H141.927Z" fill="white"/>
<path d="M131.816 21.336V7.336L134.448 7.028V21.336H131.816ZM133.132 4.2C132.59 4.2 132.161 4.06 131.844 3.78C131.545 3.48133 131.396 3.08 131.396 2.576C131.396 2.072 131.545 1.68 131.844 1.4C132.161 1.10133 132.59 0.951996 133.132 0.951996C133.673 0.951996 134.093 1.10133 134.392 1.4C134.709 1.68 134.868 2.072 134.868 2.576C134.868 3.08 134.709 3.48133 134.392 3.78C134.093 4.06 133.673 4.2 133.132 4.2Z" fill="white"/>
<path d="M125.1 21.336V11.452C125.1 9.65999 124.232 8.76399 122.496 8.76399C121.451 8.76399 120.349 9.10932 119.192 9.79998C119.285 10.2107 119.332 10.6213 119.332 11.032V21.336H116.7V11.452C116.7 9.65999 115.832 8.76399 114.096 8.76399C113.069 8.76399 112.015 9.09065 110.932 9.74399V21.336H108.3V7.27999L110.428 7.05598L110.596 8.03598C112.033 7.13999 113.443 6.69199 114.824 6.69199C116.429 6.69199 117.643 7.20532 118.464 8.23199C120.144 7.20532 121.731 6.69199 123.224 6.69199C124.624 6.69199 125.725 7.07465 126.528 7.83999C127.331 8.60532 127.732 9.66932 127.732 11.032V21.336H125.1Z" fill="white"/>
<path d="M101.41 21.336V7.336L104.042 7.028V21.336H101.41ZM102.726 4.2C102.184 4.2 101.755 4.06 101.438 3.78C101.139 3.48133 100.99 3.08 100.99 2.576C100.99 2.072 101.139 1.68 101.438 1.4C101.755 1.10133 102.184 0.951996 102.726 0.951996C103.267 0.951996 103.687 1.10133 103.986 1.4C104.303 1.68 104.462 2.072 104.462 2.576C104.462 3.08 104.303 3.48133 103.986 3.78C103.687 4.06 103.267 4.2 102.726 4.2Z" fill="white"/>
<path d="M94.5188 21.336V0.307999L97.1508 0V21.336H94.5188Z" fill="white"/>
<path d="M87.7868 21.336V11.76C87.7868 9.76265 86.7974 8.76399 84.8188 8.76399C84.2961 8.76399 83.7081 8.85732 83.0548 9.04399C82.4201 9.21199 81.8414 9.44532 81.3188 9.74399V21.336H78.6868V7.27999L80.8148 7.05598L80.9828 8.03598C82.5134 7.13999 84.0348 6.69199 85.5468 6.69199C87.0961 6.69199 88.2908 7.10265 89.1308 7.92399C89.9894 8.72665 90.4188 9.87465 90.4188 11.368V21.336H87.7868Z" fill="white"/>
<path d="M72.3161 21.392L72.1481 20.412C70.6175 21.308 69.0961 21.756 67.5841 21.756C66.0721 21.756 64.8961 21.3453 64.0561 20.524C63.2161 19.7027 62.7961 18.5547 62.7961 17.08V7.112H65.4281V16.688C65.4281 18.6853 66.3895 19.684 68.3121 19.684C68.8535 19.684 69.4415 19.6 70.0761 19.432C70.7108 19.2453 71.2895 19.0027 71.8121 18.704V7.112H74.4441V21.168L72.3161 21.392Z" fill="white"/>
<path d="M49.2321 21.336V11.76C49.2321 9.76265 48.2428 8.76399 46.2641 8.76399C45.7414 8.76399 45.1534 8.85732 44.5001 9.04399C43.8654 9.21199 43.2867 9.44532 42.7641 9.74399V21.336H40.1321V7.27999L42.2601 7.05598L42.4281 8.03598C43.9587 7.13999 45.4801 6.69199 46.9921 6.69199C48.5414 6.69199 49.7361 7.10265 50.5761 7.92399C51.4348 8.72665 51.8641 9.87465 51.8641 11.368V21.336H49.2321Z" fill="white"/>
<path d="M29.9055 21.336V7.28L32.0335 7.056L32.2575 8.344C33.4895 7.29867 34.8055 6.776 36.2055 6.776C36.6349 6.776 37.0642 6.84133 37.4935 6.972V9.128C37.0455 9.016 36.5882 8.96 36.1215 8.96C34.7775 8.96 33.5829 9.38 32.5375 10.22V21.336H29.9055Z" fill="white"/>
<path d="M23.6852 21.392L23.5172 20.412C21.9492 21.308 20.4279 21.756 18.9532 21.756C17.4785 21.756 16.3025 21.364 15.4252 20.58C14.5665 19.7773 14.1372 18.704 14.1372 17.36C14.1372 15.96 14.6225 14.8773 15.5932 14.112C16.5639 13.328 17.9265 12.936 19.6812 12.936C20.7079 12.936 21.8932 13.0573 23.2372 13.3V11.816C23.2372 10.7893 22.9385 10.024 22.3412 9.51999C21.7625 9.01599 20.8665 8.76399 19.6532 8.76399C18.2345 8.76399 16.6852 9.09065 15.0052 9.74399V7.69999C15.7892 7.38265 16.6385 7.13999 17.5532 6.97199C18.4679 6.78532 19.3359 6.69199 20.1572 6.69199C22.0052 6.69199 23.4052 7.12132 24.3572 7.97999C25.3279 8.83865 25.8132 10.0987 25.8132 11.76V21.168L23.6852 21.392ZM19.6252 19.712C20.1665 19.712 20.7732 19.6187 21.4452 19.432C22.1172 19.2453 22.7145 19.0027 23.2372 18.704V15.12C22.3599 14.896 21.3239 14.784 20.1292 14.784C19.0092 14.784 18.1785 14.9987 17.6372 15.428C17.1145 15.8387 16.8532 16.464 16.8532 17.304C16.8532 18.9093 17.7772 19.712 19.6252 19.712Z" fill="white"/>
<path d="M2.716 12.516V19.096H11.956V21.336H0V1.73599H11.9V3.97599H2.716V10.276H10.724V12.516H2.716Z" fill="white"/>
</svg>
