<svg width="214" height="18" viewBox="0 0 214 18" fill="none" xmlns="http://www.w3.org/2000/svg">
<g clip-path="url(#clip0_4922_4974)">
<path d="M2.78796 -9.72154V-6.19912H7.73433V-5H1.33402V-15.4923H7.70435V-14.2932H2.78796V-10.9207H7.07481V-9.72154H2.78796ZM14.0132 -4.97002L13.9233 -5.49464C13.0839 -5.01499 12.2695 -4.77516 11.4801 -4.77516C10.6906 -4.77516 10.0611 -4.98501 9.59144 -5.4047C9.13178 -5.83439 8.90195 -6.40897 8.90195 -7.12844C8.90195 -7.87789 9.16176 -8.45746 9.68138 -8.86716C10.201 -9.28686 10.9305 -9.4967 11.8698 -9.4967C12.4194 -9.4967 13.0539 -9.43175 13.7734 -9.30185V-10.0963C13.7734 -10.6459 13.6135 -11.0556 13.2937 -11.3254C12.984 -11.5952 12.5043 -11.7301 11.8548 -11.7301C11.0953 -11.7301 10.2659 -11.5552 9.36661 -11.2054V-12.2996C9.7863 -12.4695 10.241 -12.5994 10.7306 -12.6894C11.2202 -12.7893 11.6849 -12.8393 12.1246 -12.8393C13.1139 -12.8393 13.8633 -12.6094 14.3729 -12.1498C14.8926 -11.6901 15.1524 -11.0156 15.1524 -10.1262V-5.08993L14.0132 -4.97002ZM11.8398 -5.86936C12.1296 -5.86936 12.4543 -5.91933 12.8141 -6.01925C13.1738 -6.11918 13.4936 -6.24908 13.7734 -6.40897V-8.32756C13.3037 -8.44747 12.7491 -8.50743 12.1096 -8.50743C11.51 -8.50743 11.0654 -8.39251 10.7756 -8.16268C10.4958 -7.94284 10.3559 -7.60809 10.3559 -7.15842C10.3559 -6.29905 10.8505 -5.86936 11.8398 -5.86936ZM17.3431 -5V-12.5245L18.4823 -12.6444L18.6022 -11.9549C19.2617 -12.5145 19.9662 -12.7943 20.7156 -12.7943C20.9455 -12.7943 21.1753 -12.7593 21.4051 -12.6894V-11.5352C21.1653 -11.5952 20.9205 -11.6251 20.6707 -11.6251C19.9512 -11.6251 19.3117 -11.4003 18.7521 -10.9506V-5H17.3431ZM27.689 -5V-10.1262C27.689 -11.1955 27.1594 -11.7301 26.1002 -11.7301C25.8204 -11.7301 25.5056 -11.6801 25.1559 -11.5802C24.8161 -11.4902 24.5064 -11.3653 24.2266 -11.2054V-5H22.8176V-12.5245L23.9568 -12.6444L24.0467 -12.1198C24.8661 -12.5994 25.6805 -12.8393 26.4899 -12.8393C27.3193 -12.8393 27.9588 -12.6194 28.4085 -12.1797C28.8682 -11.7501 29.098 -11.1355 29.098 -10.3361V-5H27.689ZM40.0464 -4.97002L39.9565 -5.49464C39.1371 -5.01499 38.3227 -4.77516 37.5133 -4.77516C36.7039 -4.77516 36.0743 -4.995 35.6247 -5.43468C35.175 -5.87436 34.9502 -6.48891 34.9502 -7.27833V-12.6144H36.3591V-7.48818C36.3591 -6.41896 36.8737 -5.88435 37.903 -5.88435C38.1928 -5.88435 38.5075 -5.92932 38.8473 -6.01925C39.187 -6.11918 39.4968 -6.24908 39.7766 -6.40897V-12.6144H41.1856V-5.08993L40.0464 -4.97002ZM48.3282 -5V-10.1262C48.3282 -11.1955 47.7986 -11.7301 46.7394 -11.7301C46.4596 -11.7301 46.1448 -11.6801 45.7951 -11.5802C45.4553 -11.4902 45.1455 -11.3653 44.8657 -11.2054V-5H43.4568V-12.5245L44.5959 -12.6444L44.6859 -12.1198C45.5053 -12.5994 46.3197 -12.8393 47.1291 -12.8393C47.9585 -12.8393 48.598 -12.6194 49.0477 -12.1797C49.5073 -11.7501 49.7372 -11.1355 49.7372 -10.3361V-5H48.3282ZM51.932 -5V-16.2567L53.341 -16.4216V-5H51.932ZM55.6207 -5V-12.4945L57.0297 -12.6594V-5H55.6207ZM56.3252 -14.1733C56.0354 -14.1733 55.8056 -14.2482 55.6357 -14.3981C55.4758 -14.558 55.3959 -14.7728 55.3959 -15.0426C55.3959 -15.3124 55.4758 -15.5223 55.6357 -15.6722C55.8056 -15.8321 56.0354 -15.912 56.3252 -15.912C56.615 -15.912 56.8398 -15.8321 56.9997 -15.6722C57.1696 -15.5223 57.2545 -15.3124 57.2545 -15.0426C57.2545 -14.7728 57.1696 -14.558 56.9997 -14.3981C56.8398 -14.2482 56.615 -14.1733 56.3252 -14.1733ZM68.3028 -5V-10.2911C68.3028 -11.2504 67.8381 -11.7301 66.9088 -11.7301C66.3492 -11.7301 65.7597 -11.5452 65.1401 -11.1755C65.1901 -10.9556 65.2151 -10.7358 65.2151 -10.516V-5H63.8061V-10.2911C63.8061 -11.2504 63.3414 -11.7301 62.4121 -11.7301C61.8625 -11.7301 61.2979 -11.5552 60.7184 -11.2054V-5H59.3094V-12.5245L60.4486 -12.6444L60.5385 -12.1198C61.3079 -12.5994 62.0624 -12.8393 62.8018 -12.8393C63.6612 -12.8393 64.3107 -12.5645 64.7504 -12.0149C65.6498 -12.5645 66.4991 -12.8393 67.2985 -12.8393C68.048 -12.8393 68.6376 -12.6344 69.0672 -12.2247C69.4969 -11.815 69.7118 -11.2454 69.7118 -10.516V-5H68.3028ZM71.8978 -5V-12.4945L73.3068 -12.6594V-5H71.8978ZM72.6023 -14.1733C72.3125 -14.1733 72.0827 -14.2482 71.9128 -14.3981C71.7529 -14.558 71.673 -14.7728 71.673 -15.0426C71.673 -15.3124 71.7529 -15.5223 71.9128 -15.6722C72.0827 -15.8321 72.3125 -15.912 72.6023 -15.912C72.8921 -15.912 73.1169 -15.8321 73.2768 -15.6722C73.4467 -15.5223 73.5316 -15.3124 73.5316 -15.0426C73.5316 -14.7728 73.4467 -14.558 73.2768 -14.3981C73.1169 -14.2482 72.8921 -14.1733 72.6023 -14.1733ZM77.3103 -11.5952V-7.21837C77.3103 -6.7687 77.4102 -6.43395 77.61 -6.21411C77.8099 -6.00426 78.1147 -5.89934 78.5244 -5.89934C78.8341 -5.89934 79.1639 -5.9543 79.5136 -6.06422V-5.05996C79.0939 -4.90007 78.6593 -4.82013 78.2096 -4.82013C77.4502 -4.82013 76.8756 -5.01999 76.4859 -5.41969C76.0961 -5.8194 75.9013 -6.40397 75.9013 -7.17341V-11.5952H74.7621V-12.5545L75.9612 -12.5994L76.0662 -14.503L77.3103 -14.6379V-12.6144H79.4387V-11.5952H77.3103ZM86.683 -5.28479C85.9935 -4.94504 85.224 -4.77516 84.3746 -4.77516C83.1356 -4.77516 82.1912 -5.11991 81.5417 -5.80941C80.8922 -6.4989 80.5674 -7.50816 80.5674 -8.83719C80.5674 -9.65659 80.7123 -10.3661 81.0021 -10.9656C81.2919 -11.5752 81.6966 -12.0398 82.2162 -12.3596C82.7358 -12.6794 83.3304 -12.8393 83.9999 -12.8393C84.9392 -12.8393 85.6787 -12.5595 86.2183 -11.9999C86.7579 -11.4403 87.0277 -10.6658 87.0277 -9.67657C87.0277 -9.28686 86.9927 -8.90214 86.9228 -8.52242H81.9614C81.9914 -6.75371 82.8508 -5.86936 84.5395 -5.86936C85.269 -5.86936 85.9835 -6.02925 86.683 -6.34901V-5.28479ZM83.9999 -11.805C83.4203 -11.805 82.9457 -11.6002 82.576 -11.1905C82.2162 -10.7808 82.0114 -10.2262 81.9614 -9.52668H85.7237C85.7337 -9.57664 85.7386 -9.62661 85.7386 -9.67657C85.7386 -9.72653 85.7386 -9.7765 85.7386 -9.82646C85.7386 -10.446 85.5838 -10.9307 85.274 -11.2804C84.9742 -11.6301 84.5495 -11.805 83.9999 -11.805ZM95.0684 -16.4216V-5.08993L93.9292 -4.97002L93.8393 -5.49464C93.0498 -5.01499 92.2854 -4.77516 91.546 -4.77516C90.5667 -4.77516 89.7972 -5.11991 89.2376 -5.80941C88.688 -6.50889 88.4132 -7.46819 88.4132 -8.6873C88.4132 -10.0063 88.738 -11.0256 89.3875 -11.7451C90.0371 -12.4745 90.9514 -12.8393 92.1305 -12.8393C92.7001 -12.8393 93.2097 -12.7693 93.6594 -12.6294V-16.2567L95.0684 -16.4216ZM91.8757 -5.88435C92.1455 -5.88435 92.4403 -5.92932 92.7601 -6.01925C93.0898 -6.11918 93.3896 -6.24908 93.6594 -6.40897V-11.5652C93.2397 -11.6851 92.795 -11.7451 92.3254 -11.7451C91.506 -11.7451 90.8914 -11.4952 90.4817 -10.9956C90.082 -10.496 89.8822 -9.73653 89.8822 -8.71727C89.8822 -7.78796 90.0471 -7.08347 90.3768 -6.60382C90.7166 -6.12418 91.2162 -5.88435 91.8757 -5.88435ZM102.944 -5V-13.7686L100.441 -12.1348L100.156 -13.3039L103.169 -15.2675H104.353V-5H102.944ZM107.378 -4.92505C107.108 -4.92505 106.888 -5.00999 106.718 -5.17987C106.549 -5.34974 106.464 -5.56958 106.464 -5.83938C106.464 -6.10919 106.549 -6.32903 106.718 -6.4989C106.888 -6.66878 107.108 -6.75371 107.378 -6.75371C107.648 -6.75371 107.868 -6.66878 108.037 -6.4989C108.207 -6.32903 108.292 -6.10919 108.292 -5.83938C108.292 -5.56958 108.207 -5.34974 108.037 -5.17987C107.868 -5.00999 107.648 -4.92505 107.378 -4.92505ZM109.665 -6.54387C110.574 -6.11418 111.469 -5.89934 112.348 -5.89934C113.178 -5.89934 113.817 -6.09919 114.267 -6.4989C114.716 -6.9086 114.941 -7.48318 114.941 -8.22264C114.941 -8.89215 114.751 -9.41176 114.372 -9.78149C114.002 -10.1512 113.472 -10.3361 112.783 -10.3361C112.423 -10.3361 112.058 -10.2861 111.689 -10.1862C111.329 -10.0963 111.014 -9.96636 110.744 -9.79648L110.055 -10.2611L110.534 -15.2675H114.387C114.926 -15.2675 115.421 -15.2875 115.871 -15.3274V-14.0833H111.689L111.404 -11.0106C111.654 -11.1205 111.938 -11.2104 112.258 -11.2804C112.578 -11.3503 112.888 -11.3853 113.188 -11.3853C114.167 -11.3853 114.946 -11.0955 115.526 -10.516C116.115 -9.93638 116.41 -9.16694 116.41 -8.20765C116.41 -7.49817 116.245 -6.88362 115.916 -6.364C115.596 -5.85437 115.141 -5.45966 114.552 -5.17987C113.972 -4.91007 113.302 -4.77516 112.543 -4.77516C112.053 -4.77516 111.569 -4.82513 111.089 -4.92505C110.609 -5.02498 110.195 -5.15988 109.845 -5.32976L109.665 -6.54387ZM120.684 -5L126.065 -15.2675H127.309L121.928 -5H120.684ZM120.085 -9.64659C120.524 -9.64659 120.844 -9.83645 121.044 -10.2162C121.244 -10.6059 121.344 -11.2304 121.344 -12.0898C121.344 -12.9492 121.244 -13.5687 121.044 -13.9484C120.844 -14.3382 120.524 -14.533 120.085 -14.533C119.645 -14.533 119.325 -14.3382 119.125 -13.9484C118.926 -13.5687 118.826 -12.9492 118.826 -12.0898C118.826 -11.2304 118.926 -10.6059 119.125 -10.2162C119.325 -9.83645 119.645 -9.64659 120.085 -9.64659ZM120.085 -8.76224C119.275 -8.76224 118.656 -9.04703 118.226 -9.61661C117.796 -10.1962 117.582 -11.0206 117.582 -12.0898C117.582 -13.159 117.796 -13.9784 118.226 -14.548C118.656 -15.1276 119.275 -15.4174 120.085 -15.4174C120.894 -15.4174 121.514 -15.1276 121.943 -14.548C122.373 -13.9784 122.588 -13.159 122.588 -12.0898C122.588 -11.0206 122.373 -10.1962 121.943 -9.61661C121.514 -9.04703 120.894 -8.76224 120.085 -8.76224ZM127.909 -5.73446C128.349 -5.73446 128.668 -5.92432 128.868 -6.30404C129.068 -6.69376 129.168 -7.3183 129.168 -8.17767C129.168 -9.03704 129.068 -9.65659 128.868 -10.0363C128.668 -10.426 128.349 -10.6209 127.909 -10.6209C127.469 -10.6209 127.15 -10.426 126.95 -10.0363C126.75 -9.65659 126.65 -9.03704 126.65 -8.17767C126.65 -7.3183 126.75 -6.69376 126.95 -6.30404C127.15 -5.92432 127.469 -5.73446 127.909 -5.73446ZM127.909 -4.85011C127.1 -4.85011 126.48 -5.1349 126.05 -5.70448C125.621 -6.28406 125.406 -7.10845 125.406 -8.17767C125.406 -9.24689 125.621 -10.0663 126.05 -10.6359C126.48 -11.2154 127.1 -11.5052 127.909 -11.5052C128.718 -11.5052 129.338 -11.2154 129.768 -10.6359C130.197 -10.0663 130.412 -9.24689 130.412 -8.17767C130.412 -7.10845 130.197 -6.28406 129.768 -5.70448C129.338 -5.1349 128.718 -4.85011 127.909 -4.85011ZM141.083 -5.2698C140.393 -4.94004 139.629 -4.77516 138.789 -4.77516C137.69 -4.77516 136.841 -5.12491 136.241 -5.8244C135.642 -6.52388 135.342 -7.51316 135.342 -8.79222C135.342 -10.0813 135.642 -11.0755 136.241 -11.775C136.851 -12.4845 137.705 -12.8393 138.804 -12.8393C139.574 -12.8393 140.318 -12.6744 141.038 -12.3446V-11.2654C140.348 -11.5652 139.689 -11.7151 139.059 -11.7151C138.32 -11.7151 137.76 -11.4703 137.38 -10.9806C137.001 -10.491 136.811 -9.7665 136.811 -8.80721C136.811 -7.8579 137.001 -7.13344 137.38 -6.6338C137.76 -6.14416 138.32 -5.89934 139.059 -5.89934C139.689 -5.89934 140.363 -6.04923 141.083 -6.34901V-5.2698ZM147.509 -4.97002L147.419 -5.49464C146.58 -5.01499 145.765 -4.77516 144.976 -4.77516C144.186 -4.77516 143.557 -4.98501 143.087 -5.4047C142.628 -5.83439 142.398 -6.40897 142.398 -7.12844C142.398 -7.87789 142.658 -8.45746 143.177 -8.86716C143.697 -9.28686 144.426 -9.4967 145.366 -9.4967C145.915 -9.4967 146.55 -9.43175 147.269 -9.30185V-10.0963C147.269 -10.6459 147.109 -11.0556 146.79 -11.3254C146.48 -11.5952 146 -11.7301 145.351 -11.7301C144.591 -11.7301 143.762 -11.5552 142.862 -11.2054V-12.2996C143.282 -12.4695 143.737 -12.5994 144.226 -12.6894C144.716 -12.7893 145.181 -12.8393 145.62 -12.8393C146.61 -12.8393 147.359 -12.6094 147.869 -12.1498C148.388 -11.6901 148.648 -11.0156 148.648 -10.1262V-5.08993L147.509 -4.97002ZM145.336 -5.86936C145.625 -5.86936 145.95 -5.91933 146.31 -6.01925C146.67 -6.11918 146.989 -6.24908 147.269 -6.40897V-8.32756C146.8 -8.44747 146.245 -8.50743 145.605 -8.50743C145.006 -8.50743 144.561 -8.39251 144.271 -8.16268C143.992 -7.94284 143.852 -7.60809 143.852 -7.15842C143.852 -6.29905 144.346 -5.86936 145.336 -5.86936ZM150.314 -6.39398C151.114 -6.04423 151.913 -5.86936 152.713 -5.86936C153.292 -5.86936 153.732 -5.97928 154.032 -6.19912C154.341 -6.41896 154.496 -6.73373 154.496 -7.14343C154.496 -7.41323 154.411 -7.63307 154.241 -7.80294C154.072 -7.97282 153.792 -8.11771 153.402 -8.23763L152.383 -8.5524C151.703 -8.76224 151.209 -9.03204 150.899 -9.3618C150.589 -9.69156 150.434 -10.1113 150.434 -10.6209C150.434 -11.3004 150.699 -11.84 151.229 -12.2397C151.758 -12.6394 152.473 -12.8393 153.372 -12.8393C154.132 -12.8393 154.856 -12.6894 155.545 -12.3896V-11.3104C154.786 -11.6002 154.092 -11.7451 153.462 -11.7451C152.952 -11.7451 152.553 -11.6451 152.263 -11.4453C151.983 -11.2554 151.843 -10.9956 151.843 -10.6658C151.843 -10.426 151.918 -10.2362 152.068 -10.0963C152.218 -9.96636 152.498 -9.83645 152.907 -9.70655L154.047 -9.3618C155.286 -8.99207 155.905 -8.25761 155.905 -7.15842C155.905 -6.38898 155.64 -5.79941 155.111 -5.38971C154.581 -4.98001 153.817 -4.77516 152.817 -4.77516C151.888 -4.77516 151.109 -4.93005 150.479 -5.23982L150.314 -6.39398ZM157.66 -5V-16.2567L159.069 -16.4216V-12.2247C159.839 -12.6344 160.593 -12.8393 161.332 -12.8393C162.162 -12.8393 162.801 -12.6194 163.251 -12.1797C163.711 -11.7501 163.941 -11.1355 163.941 -10.3361V-5H162.532V-10.1262C162.532 -11.1955 162.002 -11.7301 160.943 -11.7301C160.663 -11.7301 160.348 -11.6801 159.998 -11.5802C159.659 -11.4902 159.349 -11.3653 159.069 -11.2054V-5H157.66ZM171.292 -12.2397C172.041 -12.6394 172.746 -12.8393 173.405 -12.8393C174.384 -12.8393 175.149 -12.4895 175.698 -11.79C176.258 -11.1005 176.538 -10.1462 176.538 -8.92712C176.538 -7.5881 176.198 -6.55886 175.518 -5.83938C174.839 -5.1299 173.87 -4.77516 172.611 -4.77516C171.711 -4.77516 170.802 -4.90507 169.883 -5.16488V-16.2567L171.292 -16.4216V-12.2397ZM173.075 -11.7301C172.805 -11.7301 172.506 -11.6801 172.176 -11.5802C171.856 -11.4902 171.561 -11.3653 171.292 -11.2054V-6.04923C171.711 -5.92932 172.156 -5.86936 172.626 -5.86936C173.445 -5.86936 174.055 -6.11918 174.454 -6.61881C174.864 -7.11845 175.069 -7.87789 175.069 -8.89714C175.069 -9.82646 174.899 -10.5309 174.559 -11.0106C174.229 -11.4902 173.735 -11.7301 173.075 -11.7301ZM183.064 -4.97002L182.974 -5.49464C182.135 -5.01499 181.32 -4.77516 180.531 -4.77516C179.741 -4.77516 179.112 -4.98501 178.642 -5.4047C178.183 -5.83439 177.953 -6.40897 177.953 -7.12844C177.953 -7.87789 178.213 -8.45746 178.732 -8.86716C179.252 -9.28686 179.981 -9.4967 180.921 -9.4967C181.47 -9.4967 182.105 -9.43175 182.824 -9.30185V-10.0963C182.824 -10.6459 182.664 -11.0556 182.345 -11.3254C182.035 -11.5952 181.555 -11.7301 180.906 -11.7301C180.146 -11.7301 179.317 -11.5552 178.417 -11.2054V-12.2996C178.837 -12.4695 179.292 -12.5994 179.781 -12.6894C180.271 -12.7893 180.736 -12.8393 181.175 -12.8393C182.165 -12.8393 182.914 -12.6094 183.424 -12.1498C183.943 -11.6901 184.203 -11.0156 184.203 -10.1262V-5.08993L183.064 -4.97002ZM180.891 -5.86936C181.18 -5.86936 181.505 -5.91933 181.865 -6.01925C182.225 -6.11918 182.544 -6.24908 182.824 -6.40897V-8.32756C182.355 -8.44747 181.8 -8.50743 181.16 -8.50743C180.561 -8.50743 180.116 -8.39251 179.826 -8.16268C179.547 -7.94284 179.407 -7.60809 179.407 -7.15842C179.407 -6.29905 179.901 -5.86936 180.891 -5.86936ZM191.685 -5.2698C190.996 -4.94004 190.231 -4.77516 189.392 -4.77516C188.293 -4.77516 187.443 -5.12491 186.844 -5.8244C186.244 -6.52388 185.944 -7.51316 185.944 -8.79222C185.944 -10.0813 186.244 -11.0755 186.844 -11.775C187.453 -12.4845 188.308 -12.8393 189.407 -12.8393C190.176 -12.8393 190.921 -12.6744 191.64 -12.3446V-11.2654C190.951 -11.5652 190.291 -11.7151 189.662 -11.7151C188.922 -11.7151 188.362 -11.4703 187.983 -10.9806C187.603 -10.491 187.413 -9.7665 187.413 -8.80721C187.413 -7.8579 187.603 -7.13344 187.983 -6.6338C188.362 -6.14416 188.922 -5.89934 189.662 -5.89934C190.291 -5.89934 190.966 -6.04923 191.685 -6.34901V-5.2698ZM193.42 -5V-16.2567L194.829 -16.4216V-9.34681L197.962 -12.6144H199.581L196.178 -9.07701L199.745 -5H198.037L194.829 -8.73226V-5H193.42ZM7.31464 14L5.53094 7.8695L3.80721 14H2.51815L0.134901 6.38558H1.55886L3.19266 12.2913L4.81147 6.38558H6.29538L7.94417 12.2913L9.56299 6.38558H10.942L8.60369 14H7.31464ZM12.2199 14V6.5055L13.6289 6.34062V14H12.2199ZM12.9244 4.82673C12.6346 4.82673 12.4048 4.75178 12.2349 4.60189C12.075 4.44201 11.9951 4.22717 11.9951 3.95736C11.9951 3.68756 12.075 3.47772 12.2349 3.32783C12.4048 3.16794 12.6346 3.088 12.9244 3.088C13.2142 3.088 13.439 3.16794 13.5989 3.32783C13.7688 3.47772 13.8537 3.68756 13.8537 3.95736C13.8537 4.22717 13.7688 4.44201 13.5989 4.60189C13.439 4.75178 13.2142 4.82673 12.9244 4.82673ZM17.6323 7.40484V11.7816C17.6323 12.2313 17.7323 12.5661 17.9321 12.7859C18.132 12.9957 18.4368 13.1007 18.8465 13.1007C19.1562 13.1007 19.486 13.0457 19.8357 12.9358V13.94C19.416 14.0999 18.9814 14.1799 18.5317 14.1799C17.7722 14.1799 17.1977 13.98 16.8079 13.5803C16.4182 13.1806 16.2234 12.596 16.2234 11.8266V7.40484H15.0842V6.44554L16.2833 6.40057L16.3883 4.49697L17.6323 4.36207V6.38558H19.7608V7.40484H17.6323ZM21.3392 14V2.74325L22.7482 2.57838V6.7753C23.5176 6.3656 24.272 6.16075 25.0115 6.16075C25.8409 6.16075 26.4804 6.38059 26.9301 6.82026C27.3898 7.24995 27.6196 7.8645 27.6196 8.66391V14H26.2106V8.87376C26.2106 7.80454 25.681 7.26993 24.6218 7.26993C24.342 7.26993 24.0272 7.3199 23.6775 7.41983C23.3377 7.50976 23.028 7.63467 22.7482 7.79455V14H21.3392ZM36.6794 14.1799C35.5202 13.8301 34.6609 13.2106 34.1013 12.3212C33.5417 11.4319 33.2619 10.2428 33.2619 8.75385C33.2619 6.98514 33.6416 5.63114 34.4011 4.69183C35.1705 3.75251 36.2747 3.28286 37.7136 3.28286C39.1526 3.28286 40.2518 3.75251 41.0112 4.69183C41.7806 5.63114 42.1654 6.98514 42.1654 8.75385C42.1654 10.1428 41.9156 11.282 41.4159 12.1713C40.9263 13.0507 40.2068 13.6403 39.2575 13.94L42.3602 14.4647L41.8506 15.7537L36.6794 14.1799ZM37.7136 13.0557C38.7029 13.0557 39.4324 12.7059 39.902 12.0065C40.3817 11.297 40.6215 10.2128 40.6215 8.75385C40.6215 7.3149 40.3817 6.24569 39.902 5.5462C39.4324 4.83672 38.7029 4.48198 37.7136 4.48198C36.7244 4.48198 35.9899 4.83672 35.5102 5.5462C35.0406 6.24569 34.8058 7.3149 34.8058 8.75385C34.8058 10.2128 35.0406 11.297 35.5102 12.0065C35.9899 12.7059 36.7244 13.0557 37.7136 13.0557ZM49.1511 14.03L49.0611 13.5054C48.2417 13.985 47.4273 14.2248 46.6179 14.2248C45.8085 14.2248 45.179 14.005 44.7293 13.5653C44.2796 13.1256 44.0548 12.5111 44.0548 11.7217V6.38558H45.4638V11.5118C45.4638 12.581 45.9784 13.1156 47.0076 13.1156C47.2974 13.1156 47.6122 13.0707 47.9519 12.9807C48.2917 12.8808 48.6015 12.7509 48.8813 12.591V6.38558H50.2902V13.9101L49.1511 14.03ZM52.5614 14V6.5055L53.9704 6.34062V14H52.5614ZM53.2659 4.82673C52.9761 4.82673 52.7463 4.75178 52.5764 4.60189C52.4165 4.44201 52.3366 4.22717 52.3366 3.95736C52.3366 3.68756 52.4165 3.47772 52.5764 3.32783C52.7463 3.16794 52.9761 3.088 53.2659 3.088C53.5557 3.088 53.7805 3.16794 53.9404 3.32783C54.1103 3.47772 54.1952 3.68756 54.1952 3.95736C54.1952 4.22717 54.1103 4.44201 53.9404 4.60189C53.7805 4.75178 53.5557 4.82673 53.2659 4.82673ZM61.5412 13.7302C60.8517 14.06 60.0873 14.2248 59.2479 14.2248C58.1487 14.2248 57.2993 13.8751 56.6998 13.1756C56.1002 12.4761 55.8004 11.4868 55.8004 10.2078C55.8004 8.91873 56.1002 7.92446 56.6998 7.22497C57.3093 6.51549 58.1637 6.16075 59.2629 6.16075C60.0323 6.16075 60.7768 6.32563 61.4963 6.65539V7.73459C60.8068 7.43481 60.1473 7.28492 59.5177 7.28492C58.7783 7.28492 58.2187 7.52974 57.839 8.01939C57.4592 8.50903 57.2694 9.2335 57.2694 10.1928C57.2694 11.1421 57.4592 11.8666 57.839 12.3662C58.2187 12.8558 58.7783 13.1007 59.5177 13.1007C60.1473 13.1007 60.8218 12.9508 61.5412 12.651V13.7302ZM63.2762 14V2.74325L64.6852 2.57838V9.65319L67.8179 6.38558H69.4367L66.0342 9.92299L69.6016 14H67.8928L64.6852 10.2677V14H63.2762ZM70.2168 12.606C71.0162 12.9558 71.8157 13.1306 72.6151 13.1306C73.1946 13.1306 73.6343 13.0207 73.9341 12.8009C74.2439 12.581 74.3988 12.2663 74.3988 11.8566C74.3988 11.5868 74.3138 11.3669 74.1439 11.1971C73.9741 11.0272 73.6943 10.8823 73.3046 10.7624L72.2853 10.4476C71.6058 10.2378 71.1112 9.96796 70.8014 9.6382C70.4916 9.30844 70.3367 8.88875 70.3367 8.37912C70.3367 7.69962 70.6015 7.16002 71.1312 6.76031C71.6608 6.3606 72.3752 6.16075 73.2746 6.16075C74.034 6.16075 74.7585 6.31064 75.448 6.61042V7.68963C74.6885 7.39984 73.9941 7.25495 73.3645 7.25495C72.8549 7.25495 72.4552 7.35487 72.1654 7.55473C71.8856 7.74459 71.7457 8.0044 71.7457 8.33415C71.7457 8.57398 71.8207 8.76384 71.9705 8.90374C72.1204 9.03364 72.4002 9.16355 72.8099 9.29345L73.9491 9.6382C75.1882 10.0079 75.8077 10.7424 75.8077 11.8416C75.8077 12.611 75.5429 13.2006 75.0133 13.6103C74.4837 14.02 73.7193 14.2248 72.72 14.2248C71.7907 14.2248 71.0112 14.0699 70.3817 13.7602L70.2168 12.606ZM77.5626 14V6.5055L78.9716 6.34062V14H77.5626ZM78.2671 4.82673C77.9773 4.82673 77.7475 4.75178 77.5776 4.60189C77.4177 4.44201 77.3378 4.22717 77.3378 3.95736C77.3378 3.68756 77.4177 3.47772 77.5776 3.32783C77.7475 3.16794 77.9773 3.088 78.2671 3.088C78.5569 3.088 78.7817 3.16794 78.9416 3.32783C79.1115 3.47772 79.1964 3.68756 79.1964 3.95736C79.1964 4.22717 79.1115 4.44201 78.9416 4.60189C78.7817 4.75178 78.5569 4.82673 78.2671 4.82673ZM81.2513 14V2.74325L82.6603 2.57838V14H81.2513ZM86.7237 14L83.8908 6.38558H85.3897L87.4282 12.4561L89.4967 6.38558H90.9356L88.0727 14H86.7237ZM97.6905 13.7152C97.001 14.055 96.2316 14.2248 95.3822 14.2248C94.1431 14.2248 93.1988 13.8801 92.5493 13.1906C91.8998 12.5011 91.575 11.4918 91.575 10.1628C91.575 9.34341 91.7199 8.63393 92.0097 8.03437C92.2995 7.42482 92.7042 6.96016 93.2238 6.6404C93.7434 6.32063 94.338 6.16075 95.0075 6.16075C95.9468 6.16075 96.6862 6.44054 97.2258 7.00013C97.7655 7.55972 98.0353 8.33415 98.0353 9.32343C98.0353 9.71314 98.0003 10.0979 97.9303 10.4776H92.969C92.9989 12.2463 93.8583 13.1306 95.5471 13.1306C96.2765 13.1306 96.991 12.9708 97.6905 12.651V13.7152ZM95.0075 7.19499C94.4279 7.19499 93.9532 7.39984 93.5835 7.80954C93.2238 8.21924 93.0189 8.77383 92.969 9.47332H96.7312C96.7412 9.42336 96.7462 9.37339 96.7462 9.32343C96.7462 9.27347 96.7462 9.2235 96.7462 9.17354C96.7462 8.55399 96.5913 8.06935 96.2815 7.71961C95.9818 7.36986 95.5571 7.19499 95.0075 7.19499ZM99.8705 14V6.47552L101.01 6.35561L101.13 7.0451C101.789 6.48551 102.494 6.20572 103.243 6.20572C103.473 6.20572 103.703 6.24069 103.932 6.31064V7.46479C103.693 7.40484 103.448 7.37486 103.198 7.37486C102.479 7.37486 101.839 7.59969 101.279 8.04936V14H99.8705ZM112.105 13.1156C112.805 13.1156 113.309 12.8858 113.619 12.4262C113.939 11.9665 114.099 11.222 114.099 10.1928C114.099 9.16355 113.939 8.41909 113.619 7.95943C113.309 7.49977 112.805 7.26993 112.105 7.26993C111.406 7.26993 110.896 7.49977 110.576 7.95943C110.266 8.41909 110.111 9.16355 110.111 10.1928C110.111 11.222 110.266 11.9665 110.576 12.4262C110.896 12.8858 111.406 13.1156 112.105 13.1156ZM112.105 14.2248C110.966 14.2248 110.101 13.8851 109.512 13.2056C108.932 12.5161 108.643 11.5118 108.643 10.1928C108.643 8.87376 108.932 7.87449 109.512 7.19499C110.101 6.5055 110.966 6.16075 112.105 6.16075C113.244 6.16075 114.104 6.5055 114.683 7.19499C115.273 7.87449 115.567 8.87376 115.567 10.1928C115.567 11.5118 115.273 12.5161 114.683 13.2056C114.104 13.8851 113.244 14.2248 112.105 14.2248ZM122.263 14V8.87376C122.263 7.80454 121.734 7.26993 120.674 7.26993C120.395 7.26993 120.08 7.3199 119.73 7.41983C119.39 7.50976 119.081 7.63467 118.801 7.79455V14H117.392V6.47552L118.531 6.35561L118.621 6.88022C119.44 6.40057 120.255 6.16075 121.064 6.16075C121.894 6.16075 122.533 6.38059 122.983 6.82026C123.442 7.24995 123.672 7.8645 123.672 8.66391V14H122.263ZM135.28 13.7152C134.591 14.055 133.821 14.2248 132.972 14.2248C131.733 14.2248 130.788 13.8801 130.139 13.1906C129.489 12.5011 129.165 11.4918 129.165 10.1628C129.165 9.34341 129.31 8.63393 129.599 8.03437C129.889 7.42482 130.294 6.96016 130.813 6.6404C131.333 6.32063 131.928 6.16075 132.597 6.16075C133.536 6.16075 134.276 6.44054 134.815 7.00013C135.355 7.55972 135.625 8.33415 135.625 9.32343C135.625 9.71314 135.59 10.0979 135.52 10.4776H130.559C130.589 12.2463 131.448 13.1306 133.137 13.1306C133.866 13.1306 134.581 12.9708 135.28 12.651V13.7152ZM132.597 7.19499C132.018 7.19499 131.543 7.39984 131.173 7.80954C130.813 8.21924 130.609 8.77383 130.559 9.47332H134.321C134.331 9.42336 134.336 9.37339 134.336 9.32343C134.336 9.27347 134.336 9.2235 134.336 9.17354C134.336 8.55399 134.181 8.06935 133.871 7.71961C133.571 7.36986 133.147 7.19499 132.597 7.19499ZM139.244 14L136.411 6.38558H137.91L139.948 12.4561L142.017 6.38558H143.456L140.593 14H139.244ZM150.211 13.7152C149.521 14.055 148.752 14.2248 147.902 14.2248C146.663 14.2248 145.719 13.8801 145.069 13.1906C144.42 12.5011 144.095 11.4918 144.095 10.1628C144.095 9.34341 144.24 8.63393 144.53 8.03437C144.82 7.42482 145.224 6.96016 145.744 6.6404C146.263 6.32063 146.858 6.16075 147.528 6.16075C148.467 6.16075 149.206 6.44054 149.746 7.00013C150.286 7.55972 150.555 8.33415 150.555 9.32343C150.555 9.71314 150.52 10.0979 150.45 10.4776H145.489C145.519 12.2463 146.378 13.1306 148.067 13.1306C148.797 13.1306 149.511 12.9708 150.211 12.651V13.7152ZM147.528 7.19499C146.948 7.19499 146.473 7.39984 146.104 7.80954C145.744 8.21924 145.539 8.77383 145.489 9.47332H149.251C149.261 9.42336 149.266 9.37339 149.266 9.32343C149.266 9.27347 149.266 9.2235 149.266 9.17354C149.266 8.55399 149.111 8.06935 148.802 7.71961C148.502 7.36986 148.077 7.19499 147.528 7.19499ZM152.391 14V6.47552L153.53 6.35561L153.65 7.0451C154.309 6.48551 155.014 6.20572 155.763 6.20572C155.993 6.20572 156.223 6.24069 156.453 6.31064V7.46479C156.213 7.40484 155.968 7.37486 155.718 7.37486C154.999 7.37486 154.359 7.59969 153.8 8.04936V14H152.391ZM157.346 16.1884C157.826 16.1085 158.221 15.9935 158.53 15.8436C158.85 15.6938 159.13 15.4789 159.37 15.1991C159.61 14.9193 159.839 14.5446 160.059 14.0749L157.196 6.38558H158.695L160.749 12.4861L162.802 6.38558H164.241L161.483 13.7152C161.183 14.5146 160.874 15.1542 160.554 15.6338C160.234 16.1234 159.854 16.5032 159.415 16.773C158.975 17.0528 158.396 17.2676 157.676 17.4175L157.346 16.1884ZM173.915 14.03L173.826 13.5054C172.986 13.985 172.172 14.2248 171.382 14.2248C170.593 14.2248 169.963 14.015 169.494 13.5953C169.034 13.1656 168.804 12.591 168.804 11.8716C168.804 11.1221 169.064 10.5425 169.584 10.1328C170.103 9.71314 170.833 9.5033 171.772 9.5033C172.322 9.5033 172.956 9.56825 173.676 9.69815V8.90374C173.676 8.35414 173.516 7.94444 173.196 7.67464C172.886 7.40484 172.407 7.26993 171.757 7.26993C170.998 7.26993 170.168 7.44481 169.269 7.79455V6.70035C169.689 6.53048 170.143 6.40057 170.633 6.31064C171.123 6.21071 171.587 6.16075 172.027 6.16075C173.016 6.16075 173.766 6.39058 174.275 6.85024C174.795 7.30991 175.055 7.98441 175.055 8.87376V13.9101L173.915 14.03ZM171.742 13.1306C172.032 13.1306 172.357 13.0807 172.716 12.9807C173.076 12.8808 173.396 12.7509 173.676 12.591V10.6724C173.206 10.5525 172.651 10.4926 172.012 10.4926C171.412 10.4926 170.968 10.6075 170.678 10.8373C170.398 11.0572 170.258 11.3919 170.258 11.8416C170.258 12.701 170.753 13.1306 171.742 13.1306ZM178.969 7.40484V11.7816C178.969 12.2313 179.069 12.5661 179.269 12.7859C179.469 12.9957 179.774 13.1007 180.183 13.1007C180.493 13.1007 180.823 13.0457 181.172 12.9358V13.94C180.753 14.0999 180.318 14.1799 179.868 14.1799C179.109 14.1799 178.534 13.98 178.145 13.5803C177.755 13.1806 177.56 12.596 177.56 11.8266V7.40484H176.421V6.44554L177.62 6.40057L177.725 4.49697L178.969 4.36207V6.38558H181.098V7.40484H178.969ZM182.008 10.7924V9.59323H186.026V10.7924H182.008ZM189.34 6.76031C190.089 6.3606 190.794 6.16075 191.453 6.16075C192.433 6.16075 193.197 6.51049 193.747 7.20998C194.306 7.89947 194.586 8.85377 194.586 10.0729C194.586 11.4119 194.246 12.4411 193.567 13.1606C192.887 13.8701 191.918 14.2248 190.659 14.2248C189.76 14.2248 188.85 14.0949 187.931 13.8351V2.74325L189.34 2.57838V6.76031ZM191.124 7.26993C190.854 7.26993 190.554 7.3199 190.224 7.41983C189.904 7.50976 189.61 7.63467 189.34 7.79455V12.9508C189.76 13.0707 190.204 13.1306 190.674 13.1306C191.493 13.1306 192.103 12.8808 192.503 12.3812C192.912 11.8816 193.117 11.1221 193.117 10.1029C193.117 9.17354 192.947 8.46906 192.607 7.98941C192.278 7.50976 191.783 7.26993 191.124 7.26993ZM201.112 14.03L201.022 13.5054C200.183 13.985 199.369 14.2248 198.579 14.2248C197.79 14.2248 197.16 14.015 196.691 13.5953C196.231 13.1656 196.001 12.591 196.001 11.8716C196.001 11.1221 196.261 10.5425 196.781 10.1328C197.3 9.71314 198.03 9.5033 198.969 9.5033C199.518 9.5033 200.153 9.56825 200.873 9.69815V8.90374C200.873 8.35414 200.713 7.94444 200.393 7.67464C200.083 7.40484 199.603 7.26993 198.954 7.26993C198.194 7.26993 197.365 7.44481 196.466 7.79455V6.70035C196.885 6.53048 197.34 6.40057 197.83 6.31064C198.319 6.21071 198.784 6.16075 199.224 6.16075C200.213 6.16075 200.962 6.39058 201.472 6.85024C201.992 7.30991 202.251 7.98441 202.251 8.87376V13.9101L201.112 14.03ZM198.939 13.1306C199.229 13.1306 199.553 13.0807 199.913 12.9807C200.273 12.8808 200.593 12.7509 200.873 12.591V10.6724C200.403 10.5525 199.848 10.4926 199.209 10.4926C198.609 10.4926 198.164 10.6075 197.875 10.8373C197.595 11.0572 197.455 11.3919 197.455 11.8416C197.455 12.701 197.95 13.1306 198.939 13.1306ZM206.166 7.40484V11.7816C206.166 12.2313 206.266 12.5661 206.466 12.7859C206.666 12.9957 206.97 13.1007 207.38 13.1007C207.69 13.1007 208.02 13.0457 208.369 12.9358V13.94C207.95 14.0999 207.515 14.1799 207.065 14.1799C206.306 14.1799 205.731 13.98 205.342 13.5803C204.952 13.1806 204.757 12.596 204.757 11.8266V7.40484H203.618V6.44554L204.817 6.40057L204.922 4.49697L206.166 4.36207V6.38558H208.294V7.40484H206.166Z" fill="white"/>
</g>
<defs>
<clipPath id="clip0_4922_4974">
<rect width="214" height="18" fill="white"/>
</clipPath>
</defs>
</svg>
