<svg width="212" height="36" viewBox="0 0 212 36" fill="none" xmlns="http://www.w3.org/2000/svg">
<path d="M4.83594 11.0911C4.83594 10.0693 5.06293 9.29374 5.5222 8.7645C5.98146 8.23002 6.64661 7.96802 7.51763 7.96802C8.38865 7.96802 9.05379 8.23526 9.51306 8.7645C9.97232 9.29898 10.1993 10.0745 10.1993 11.0911C10.1993 12.1076 9.97232 12.8884 9.51306 13.4176C9.05379 13.9521 8.38865 14.2141 7.51763 14.2141C6.64661 14.2141 5.98146 13.9469 5.5222 13.4176C5.06293 12.8832 4.83594 12.1076 4.83594 11.0911ZM6.13455 11.0911C6.13455 11.8352 6.24541 12.3854 6.4724 12.7312C6.69412 13.077 7.0478 13.25 7.5229 13.25C7.99801 13.25 8.34642 13.077 8.57341 12.7312C8.8004 12.3854 8.91126 11.8352 8.91126 11.0911C8.91126 10.347 8.8004 9.79679 8.57341 9.45094C8.35169 9.1051 7.99801 8.93218 7.5229 8.93218C7.0478 8.93218 6.69412 9.1051 6.4724 9.45094C6.25069 9.79679 6.13455 10.347 6.13455 11.0911Z" fill="white"/>
<path d="M14.4754 14.0779V10.5094H12.6172V14.0779H11.4559V10.5094H10.8013V9.73912L11.4559 9.71292V9.01076C11.4559 8.52867 11.5878 8.14615 11.8571 7.86843C12.1263 7.59071 12.4905 7.45447 12.9603 7.45447C13.2665 7.45447 13.5463 7.50163 13.805 7.60119V8.38719C13.5991 8.33479 13.4196 8.30859 13.2612 8.30859C13.0554 8.30859 12.897 8.36623 12.7861 8.47627C12.6753 8.58631 12.6172 8.74875 12.6172 8.96884V9.69196H14.4754V9.01076C14.4754 8.52867 14.6074 8.14615 14.8766 7.86843C15.1405 7.59071 15.5101 7.45447 15.9799 7.45447C16.228 7.45447 16.4814 7.49639 16.7348 7.58547V8.37147C16.5764 8.32955 16.4233 8.31383 16.2808 8.31383C16.0749 8.31383 15.9165 8.37147 15.8004 8.48151C15.6843 8.59155 15.6315 8.75399 15.6315 8.97408V9.6972H16.682V10.5094H15.6315V14.0779H14.4701H14.4754ZM18.0703 9.00552C17.8539 9.00552 17.685 8.94787 17.5636 8.83259C17.4421 8.71731 17.3841 8.56011 17.3841 8.36099C17.3841 8.16187 17.4421 8.00467 17.5636 7.88939C17.685 7.77411 17.8539 7.71647 18.0703 7.71647C18.2868 7.71647 18.461 7.77411 18.5824 7.88939C18.7038 8.00467 18.7672 8.16187 18.7672 8.36099C18.7672 8.56011 18.7038 8.71731 18.5824 8.83259C18.461 8.94787 18.2868 9.00552 18.0703 9.00552ZM17.4949 14.0779V9.78104L18.6563 9.671V14.0779H17.4949Z" fill="white"/>
<path d="M23.0323 13.9155C22.5941 14.1146 22.1401 14.2142 21.665 14.2142C20.9893 14.2142 20.4667 14.015 20.1025 13.6168C19.7382 13.2186 19.5535 12.6474 19.5535 11.8981C19.5535 11.1488 19.733 10.5671 20.1025 10.1636C20.4667 9.76015 20.9893 9.55579 21.6703 9.55579C22.1137 9.55579 22.5572 9.65535 23.0059 9.85447V10.6981C22.5941 10.5304 22.2246 10.4518 21.9026 10.4518C21.1477 10.4518 20.7676 10.9287 20.7676 11.8771C20.7676 12.3487 20.8626 12.705 21.058 12.9513C21.2533 13.1976 21.5331 13.3129 21.9079 13.3129C22.2299 13.3129 22.6047 13.229 23.0376 13.0666V13.9102L23.0323 13.9155Z" fill="white"/>
<path d="M24.4736 9.0056C24.2572 9.0056 24.0883 8.94796 23.9668 8.83268C23.8454 8.7174 23.7874 8.5602 23.7874 8.36108C23.7874 8.16196 23.8454 8.00475 23.9668 7.88947C24.0883 7.77419 24.2572 7.71655 24.4736 7.71655C24.69 7.71655 24.8643 7.77419 24.9857 7.88947C25.1071 8.00475 25.1704 8.16196 25.1704 8.36108C25.1704 8.5602 25.1071 8.7174 24.9857 8.83268C24.8643 8.94796 24.69 9.0056 24.4736 9.0056ZM23.8982 14.0779V9.78112L25.0596 9.67108V14.0779H23.8982Z" fill="white"/>
<path d="M28.8656 14.1041L28.797 13.8212C28.3483 14.0832 27.8996 14.2142 27.4561 14.2142C27.0127 14.2142 26.6326 14.0884 26.3581 13.8369C26.0836 13.5854 25.9517 13.25 25.9517 12.8203C25.9517 12.3906 26.1047 12.0396 26.4056 11.7933C26.7065 11.547 27.1289 11.4265 27.6726 11.4265C27.9946 11.4265 28.3219 11.4579 28.6545 11.5208V11.1802C28.6545 10.9182 28.5753 10.7243 28.4222 10.6038C28.2691 10.4833 28.0263 10.4204 27.699 10.4204C27.2608 10.4204 26.7804 10.52 26.2526 10.7086V9.87019C26.5007 9.77587 26.7699 9.69727 27.0708 9.63963C27.3664 9.58199 27.6515 9.55579 27.9154 9.55579C28.5225 9.55579 28.987 9.69203 29.3143 9.96451C29.6363 10.237 29.8 10.63 29.8 11.1435V14.0046L28.8709 14.0989L28.8656 14.1041ZM27.8098 13.3862C27.9365 13.3862 28.0738 13.3653 28.2269 13.3286C28.38 13.2867 28.5225 13.2395 28.6545 13.1766V12.2439C28.3905 12.181 28.153 12.1496 27.9418 12.1496C27.3928 12.1496 27.113 12.3592 27.113 12.7836C27.113 12.9828 27.1711 13.1347 27.2872 13.2343C27.4034 13.3391 27.5776 13.3862 27.8098 13.3862Z" fill="white"/>
<path d="M30.8718 14.0779V7.65362L32.0332 7.54358V14.0779H30.8718Z" fill="white"/>
<path d="M35.406 14.0781V8.21977C35.6858 8.16213 36.0184 8.11497 36.3984 8.08353C36.7785 8.05209 37.1164 8.03113 37.412 8.03113C38.1299 8.03113 38.6737 8.16213 39.0485 8.43461C39.4233 8.70185 39.608 9.08961 39.608 9.60314C39.608 10.2372 39.2702 10.6773 38.5945 10.9341C39.0115 11.0389 39.3335 11.2171 39.55 11.4738C39.7664 11.7306 39.8772 12.0502 39.8772 12.4327C39.8772 12.962 39.6872 13.3707 39.3071 13.6537C38.927 13.9366 38.3886 14.0834 37.6812 14.0834H35.4113L35.406 14.0781ZM37.3592 8.92717C37.0055 8.92717 36.7363 8.94813 36.5515 8.98481V10.5883H37.4965C37.7974 10.5883 38.0296 10.5149 38.2038 10.3682C38.378 10.2215 38.4625 10.0171 38.4625 9.7551C38.4625 9.47738 38.3728 9.26777 38.1933 9.13153C38.0138 8.99529 37.734 8.92717 37.3645 8.92717H37.3592ZM37.6337 13.1821C38.32 13.1821 38.6684 12.8991 38.6684 12.3279C38.6684 12.0502 38.5786 11.8354 38.3992 11.6834C38.2197 11.5315 37.961 11.4581 37.6284 11.4581H36.5515V13.1821H37.6337Z" fill="white"/>
<path d="M43.4354 14.1041L43.3668 13.8212C42.9181 14.0832 42.4694 14.2142 42.026 14.2142C41.5825 14.2142 41.2025 14.0884 40.928 13.8369C40.6535 13.5854 40.5215 13.25 40.5215 12.8203C40.5215 12.3906 40.6746 12.0396 40.9755 11.7933C41.2764 11.547 41.6987 11.4265 42.2424 11.4265C42.5644 11.4265 42.8917 11.4579 43.2243 11.5208V11.1802C43.2243 10.9182 43.1451 10.7243 42.992 10.6038C42.8389 10.4833 42.5961 10.4204 42.2688 10.4204C41.8307 10.4204 41.3503 10.52 40.8224 10.7086V9.87019C41.0705 9.77587 41.3397 9.69727 41.6406 9.63963C41.9362 9.58199 42.2213 9.55579 42.4852 9.55579C43.0923 9.55579 43.5569 9.69203 43.8842 9.96451C44.2062 10.237 44.3698 10.63 44.3698 11.1435V14.0046L43.4407 14.0989L43.4354 14.1041ZM42.3797 13.3862C42.5064 13.3862 42.6436 13.3653 42.7967 13.3286C42.9498 13.2867 43.0923 13.2395 43.2243 13.1766V12.2439C42.9603 12.181 42.7228 12.1496 42.5116 12.1496C41.9626 12.1496 41.6828 12.3592 41.6828 12.7836C41.6828 12.9828 41.7409 13.1347 41.857 13.2343C41.9732 13.3391 42.1474 13.3862 42.3797 13.3862Z" fill="white"/>
<path d="M48.1439 14.0779V11.2012C48.1439 10.9444 48.0858 10.7558 47.9697 10.6352C47.8535 10.5147 47.674 10.4518 47.4259 10.4518C47.2887 10.4518 47.1462 10.4728 46.9931 10.5147C46.8453 10.5566 46.7133 10.6143 46.5972 10.6824V14.0832H45.4358V9.77064L46.3649 9.67632L46.4335 9.95929C46.8822 9.69728 47.3204 9.56628 47.7585 9.56628C48.2494 9.56628 48.6295 9.69728 48.8988 9.95405C49.168 10.2108 49.3 10.5776 49.3 11.0492V14.0832H48.1386L48.1439 14.0779Z" fill="white"/>
<path d="M50.3877 14.0779V7.65362L51.5491 7.54358V11.505L53.0747 9.69199H54.3838L52.6946 11.657L54.5105 14.0726H53.1063L51.5491 11.9819V14.0726H50.3877V14.0779Z" fill="white"/>
<path d="M59.911 14.1041L59.8424 13.8212C59.3937 14.0832 58.945 14.2142 58.5016 14.2142C58.0581 14.2142 57.6781 14.0884 57.4035 13.8369C57.129 13.5854 56.9971 13.25 56.9971 12.8203C56.9971 12.3906 57.1502 12.0396 57.4511 11.7933C57.752 11.547 58.1743 11.4265 58.718 11.4265C59.04 11.4265 59.3673 11.4579 59.6999 11.5208V11.1802C59.6999 10.9182 59.6207 10.7243 59.4676 10.6038C59.3145 10.4833 59.0717 10.4204 58.7444 10.4204C58.3062 10.4204 57.8259 10.52 57.298 10.7086V9.87019C57.5461 9.77587 57.8153 9.69727 58.1162 9.63963C58.4118 9.58199 58.6969 9.55579 58.9608 9.55579C59.5679 9.55579 60.0324 9.69203 60.3597 9.96451C60.6818 10.237 60.8454 10.63 60.8454 11.1435V14.0046L59.9163 14.0989L59.911 14.1041ZM58.8553 13.3862C58.9819 13.3862 59.1192 13.3653 59.2723 13.3286C59.4254 13.2867 59.5679 13.2395 59.6999 13.1766V12.2439C59.4359 12.181 59.1984 12.1496 58.9872 12.1496C58.4382 12.1496 58.1584 12.3592 58.1584 12.7836C58.1584 12.9828 58.2165 13.1347 58.3326 13.2343C58.4488 13.3391 58.623 13.3862 58.8553 13.3862Z" fill="white"/>
<path d="M64.6197 14.0779V11.2012C64.6197 10.9444 64.5616 10.7558 64.4455 10.6352C64.3294 10.5147 64.1499 10.4518 63.9018 10.4518C63.7645 10.4518 63.622 10.4728 63.4689 10.5147C63.3211 10.5566 63.1891 10.6143 63.073 10.6824V14.0832H61.9116V9.77064L62.8407 9.67632L62.9093 9.95929C63.358 9.69728 63.7962 9.56628 64.2343 9.56628C64.7253 9.56628 65.1054 9.69728 65.3746 9.95405C65.6438 10.2108 65.7758 10.5776 65.7758 11.0492V14.0832H64.6144L64.6197 14.0779Z" fill="white"/>
<path d="M70.7272 7.54358V14.0098L69.7981 14.1041L69.7295 13.8211C69.5236 13.9416 69.3072 14.036 69.0749 14.1093C68.8426 14.1827 68.6367 14.2141 68.4467 14.2141C67.8818 14.2141 67.4437 14.015 67.127 13.6168C66.8102 13.2185 66.6519 12.6631 66.6519 11.9609C66.6519 11.1959 66.8419 10.609 67.2167 10.1898C67.5915 9.77059 68.1194 9.56099 68.8057 9.56099C69.0538 9.56099 69.3071 9.59243 69.5711 9.65531V7.65886L70.7325 7.54882L70.7272 7.54358ZM68.774 13.3286C68.8954 13.3286 69.0274 13.3076 69.1752 13.2657C69.323 13.2238 69.4497 13.1661 69.5658 13.098V10.478C69.3863 10.4361 69.1963 10.4204 68.9957 10.4204C68.6103 10.4204 68.3253 10.5461 68.1405 10.7924C67.9557 11.0387 67.8607 11.4212 67.8607 11.94C67.8607 12.8674 68.1669 13.3338 68.774 13.3338V13.3286Z" fill="white"/>
<path d="M78.1918 13.8211C77.6745 14.0831 77.1149 14.2141 76.5025 14.2141C75.6579 14.2141 75.0086 13.9416 74.5441 13.4019C74.0795 12.8622 73.8525 12.0919 73.8525 11.0858C73.8525 10.0797 74.0848 9.33565 74.5494 8.78545C75.0139 8.23525 75.6632 7.96277 76.5025 7.96277C77.0938 7.96277 77.6428 8.09377 78.1549 8.35577V9.30421C77.8803 9.17321 77.6375 9.07889 77.4211 9.02649C77.2099 8.97409 76.9724 8.94789 76.7137 8.94789C76.2017 8.94789 75.8163 9.12605 75.5576 9.48762C75.299 9.84918 75.167 10.3837 75.167 11.0911C75.167 12.5216 75.6843 13.2342 76.7137 13.2342C76.9618 13.2342 77.1994 13.208 77.4211 13.1504C77.6481 13.0928 77.9015 13.0037 78.1812 12.8779V13.8264L78.1918 13.8211Z" fill="white"/>
<path d="M79.1106 14.078V9.76544L80.0397 9.67112L80.1347 10.0746C80.4937 9.74972 80.8949 9.58728 81.333 9.58728C81.4703 9.58728 81.6128 9.60824 81.7659 9.64492V10.5934C81.5917 10.5514 81.4439 10.5357 81.3119 10.5357C80.916 10.5357 80.5729 10.6458 80.2772 10.8606V14.0832H79.1159L79.1106 14.078Z" fill="white"/>
<path d="M85.9834 13.905C85.5664 14.1094 85.1018 14.2142 84.5898 14.2142C83.8349 14.2142 83.2542 14.015 82.853 13.6168C82.4518 13.2186 82.2512 12.6369 82.2512 11.8719C82.2512 11.4055 82.341 10.9968 82.5205 10.6457C82.6999 10.2946 82.948 10.0274 83.2648 9.83875C83.5815 9.65011 83.9405 9.55579 84.347 9.55579C84.9224 9.55579 85.3711 9.71823 85.6984 10.0483C86.0256 10.3785 86.1893 10.8239 86.1893 11.395C86.1893 11.6623 86.1629 11.9243 86.1101 12.181H83.3915C83.4126 12.5793 83.5393 12.8727 83.761 13.0666C83.9827 13.2605 84.31 13.3548 84.7323 13.3548C85.1546 13.3548 85.5822 13.2605 85.9781 13.0718V13.9102L85.9834 13.905ZM84.347 10.3628C84.0777 10.3628 83.856 10.4571 83.6871 10.6405C83.5182 10.8239 83.4126 11.0754 83.3862 11.395H85.123V11.2693C85.123 10.9706 85.0543 10.7453 84.9224 10.5933C84.7904 10.4413 84.6003 10.3628 84.347 10.3628Z" fill="white"/>
<path d="M90.9562 7.54358V14.0098L90.0271 14.1041L89.9585 13.8211C89.7526 13.9416 89.5362 14.036 89.3039 14.1093C89.0716 14.1827 88.8657 14.2141 88.6757 14.2141C88.1109 14.2141 87.6727 14.015 87.356 13.6168C87.0392 13.2185 86.8809 12.6631 86.8809 11.9609C86.8809 11.1959 87.0709 10.609 87.4457 10.1898C87.8205 9.77059 88.3484 9.56099 89.0347 9.56099C89.2828 9.56099 89.5362 9.59243 89.8001 9.65531V7.65886L90.9615 7.54882L90.9562 7.54358ZM89.003 13.3286C89.1244 13.3286 89.2564 13.3076 89.4042 13.2657C89.552 13.2238 89.6787 13.1661 89.7948 13.098V10.478C89.6153 10.4361 89.4253 10.4204 89.2247 10.4204C88.8393 10.4204 88.5543 10.5461 88.3695 10.7924C88.1848 11.0387 88.0897 11.4212 88.0897 11.94C88.0897 12.8674 88.3959 13.3338 89.003 13.3338V13.3286Z" fill="white"/>
<path d="M92.6506 9.0056C92.4342 9.0056 92.2653 8.94796 92.1438 8.83268C92.0224 8.7174 91.9644 8.5602 91.9644 8.36108C91.9644 8.16196 92.0224 8.00475 92.1438 7.88947C92.2653 7.77419 92.4342 7.71655 92.6506 7.71655C92.8671 7.71655 93.0413 7.77419 93.1627 7.88947C93.2841 8.00475 93.3474 8.16196 93.3474 8.36108C93.3474 8.5602 93.2841 8.7174 93.1627 8.83268C93.0413 8.94796 92.8671 9.0056 92.6506 9.0056ZM92.0752 14.0779V9.78112L93.2366 9.67108V14.0779H92.0752Z" fill="white"/>
<path d="M95.7915 10.5094V12.7049C95.7915 13.1294 95.9974 13.3442 96.4039 13.3442C96.5517 13.3442 96.7365 13.3128 96.9529 13.2499V14.0254C96.6995 14.1407 96.4092 14.1983 96.0819 14.1983C95.6068 14.1983 95.2425 14.0778 94.9997 13.8315C94.7516 13.5853 94.6302 13.2289 94.6302 12.7626V10.5094H93.9756V9.73909L94.6882 9.71289L94.7674 8.61248L95.7915 8.50244V9.69717H96.9265V10.5094H95.7915Z" fill="white"/>
<path d="M104.08 13.8211C103.562 14.0831 103.003 14.2141 102.39 14.2141C101.546 14.2141 100.897 13.9416 100.432 13.4019C99.9675 12.8622 99.7405 12.0919 99.7405 11.0858C99.7405 10.0797 99.9728 9.33565 100.437 8.78545C100.902 8.23525 101.551 7.96277 102.39 7.96277C102.982 7.96277 103.531 8.09377 104.043 8.35577V9.30421C103.768 9.17321 103.525 9.07889 103.309 9.02649C103.098 8.97409 102.86 8.94789 102.602 8.94789C102.09 8.94789 101.704 9.12605 101.446 9.48762C101.187 9.84918 101.055 10.3837 101.055 11.0911C101.055 12.5216 101.572 13.2342 102.602 13.2342C102.85 13.2342 103.087 13.208 103.309 13.1504C103.536 13.0928 103.789 13.0037 104.069 12.8779V13.8264L104.08 13.8211Z" fill="white"/>
<path d="M107.696 14.1041L107.627 13.8212C107.178 14.0832 106.73 14.2142 106.286 14.2142C105.843 14.2142 105.463 14.0884 105.188 13.8369C104.914 13.5854 104.782 13.25 104.782 12.8203C104.782 12.3906 104.935 12.0396 105.236 11.7933C105.537 11.547 105.959 11.4265 106.503 11.4265C106.825 11.4265 107.152 11.4579 107.485 11.5208V11.1802C107.485 10.9182 107.405 10.7243 107.252 10.6038C107.099 10.4833 106.856 10.4204 106.529 10.4204C106.091 10.4204 105.611 10.52 105.083 10.7086V9.87019C105.331 9.77587 105.6 9.69727 105.901 9.63963C106.196 9.58199 106.482 9.55579 106.745 9.55579C107.353 9.55579 107.817 9.69203 108.144 9.96451C108.466 10.237 108.63 10.63 108.63 11.1435V14.0046L107.701 14.0989L107.696 14.1041ZM106.64 13.3862C106.767 13.3862 106.904 13.3653 107.057 13.3286C107.21 13.2867 107.353 13.2395 107.485 13.1766V12.2439C107.221 12.181 106.983 12.1496 106.772 12.1496C106.223 12.1496 105.943 12.3592 105.943 12.7836C105.943 12.9828 106.001 13.1347 106.117 13.2343C106.233 13.3391 106.408 13.3862 106.64 13.3862Z" fill="white"/>
<path d="M109.696 14.078V9.76544L110.625 9.67112L110.72 10.0746C111.079 9.74972 111.481 9.58728 111.919 9.58728C112.056 9.58728 112.198 9.60824 112.352 9.64492V10.5934C112.177 10.5514 112.03 10.5357 111.898 10.5357C111.502 10.5357 111.159 10.6458 110.863 10.8606V14.0832H109.702L109.696 14.078Z" fill="white"/>
<path d="M116.918 7.54358V14.0098L115.989 14.1041L115.92 13.8211C115.714 13.9416 115.498 14.036 115.265 14.1093C115.033 14.1827 114.827 14.2141 114.637 14.2141C114.072 14.2141 113.634 14.015 113.317 13.6168C113.001 13.2185 112.842 12.6631 112.842 11.9609C112.842 11.1959 113.032 10.609 113.407 10.1898C113.782 9.77059 114.31 9.56099 114.996 9.56099C115.244 9.56099 115.498 9.59243 115.762 9.65531V7.65886L116.923 7.54882L116.918 7.54358ZM114.964 13.3286C115.086 13.3286 115.218 13.3076 115.366 13.2657C115.513 13.2238 115.64 13.1661 115.756 13.098V10.478C115.577 10.4361 115.387 10.4204 115.186 10.4204C114.801 10.4204 114.516 10.5461 114.331 10.7924C114.146 11.0387 114.051 11.4212 114.051 11.94C114.051 12.8674 114.357 13.3338 114.964 13.3338V13.3286Z" fill="white"/>
<path d="M120.291 14.0781V8.21977C120.592 8.16213 120.924 8.11497 121.289 8.08353C121.653 8.05209 121.975 8.03113 122.244 8.03113C123.015 8.03113 123.606 8.19881 124.018 8.53417C124.43 8.86953 124.636 9.34637 124.636 9.96994C124.636 10.5935 124.419 11.0651 123.986 11.4109C123.553 11.7568 122.957 11.9349 122.202 11.9349H121.495V14.0781H120.291ZM122.202 8.94289C121.938 8.94289 121.7 8.95861 121.495 8.99529V11.0179H122.202C122.587 11.0179 122.883 10.9289 123.089 10.7507C123.295 10.5725 123.4 10.3158 123.4 9.97518C123.4 9.28873 122.999 8.94289 122.202 8.94289Z" fill="white"/>
<path d="M128.009 14.1041L127.94 13.8212C127.492 14.0832 127.043 14.2142 126.599 14.2142C126.156 14.2142 125.776 14.0884 125.501 13.8369C125.227 13.5854 125.095 13.25 125.095 12.8203C125.095 12.3906 125.248 12.0396 125.549 11.7933C125.85 11.547 126.272 11.4265 126.816 11.4265C127.138 11.4265 127.465 11.4579 127.798 11.5208V11.1802C127.798 10.9182 127.719 10.7243 127.566 10.6038C127.412 10.4833 127.17 10.4204 126.842 10.4204C126.404 10.4204 125.924 10.52 125.396 10.7086V9.87019C125.644 9.77587 125.913 9.69727 126.214 9.63963C126.51 9.58199 126.795 9.55579 127.059 9.55579C127.666 9.55579 128.13 9.69203 128.458 9.96451C128.78 10.237 128.943 10.63 128.943 11.1435V14.0046L128.014 14.0989L128.009 14.1041ZM126.953 13.3862C127.08 13.3862 127.217 13.3653 127.37 13.3286C127.523 13.2867 127.666 13.2395 127.798 13.1766V12.2439C127.534 12.181 127.296 12.1496 127.085 12.1496C126.536 12.1496 126.256 12.3592 126.256 12.7836C126.256 12.9828 126.314 13.1347 126.431 13.2343C126.547 13.3391 126.721 13.3862 126.953 13.3862Z" fill="white"/>
<path d="M130.015 14.078V9.76544L130.944 9.67112L131.039 10.0746C131.398 9.74972 131.799 9.58728 132.237 9.58728C132.374 9.58728 132.517 9.60824 132.67 9.64492V10.5934C132.496 10.5514 132.348 10.5357 132.216 10.5357C131.82 10.5357 131.477 10.6458 131.181 10.8606V14.0832H130.02L130.015 14.078Z" fill="white"/>
<path d="M134.808 10.5094V12.7049C134.808 13.1294 135.014 13.3442 135.421 13.3442C135.569 13.3442 135.753 13.3128 135.97 13.2499V14.0254C135.716 14.1407 135.426 14.1983 135.099 14.1983C134.624 14.1983 134.259 14.0778 134.017 13.8315C133.768 13.5853 133.647 13.2289 133.647 12.7626V10.5094H132.992V9.73909L133.705 9.71289L133.784 8.61248L134.808 8.50244V9.69717H135.943V10.5094H134.808Z" fill="white"/>
<path d="M139.453 14.0779V11.2012C139.453 10.9444 139.395 10.7558 139.279 10.6352C139.163 10.5147 138.984 10.4518 138.736 10.4518C138.598 10.4518 138.456 10.4728 138.303 10.5147C138.155 10.5566 138.023 10.6143 137.907 10.6824V14.0832H136.745V9.77064L137.674 9.67632L137.743 9.95929C138.192 9.69728 138.63 9.56628 139.068 9.56628C139.559 9.56628 139.939 9.69728 140.208 9.95405C140.478 10.2108 140.61 10.5776 140.61 11.0492V14.0832H139.448L139.453 14.0779Z" fill="white"/>
<path d="M145.218 13.905C144.801 14.1094 144.336 14.2142 143.824 14.2142C143.07 14.2142 142.489 14.015 142.088 13.6168C141.686 13.2186 141.486 12.6369 141.486 11.8719C141.486 11.4055 141.576 10.9968 141.755 10.6457C141.935 10.2946 142.183 10.0274 142.499 9.83875C142.816 9.65011 143.175 9.55579 143.582 9.55579C144.157 9.55579 144.606 9.71823 144.933 10.0483C145.26 10.3785 145.424 10.8239 145.424 11.395C145.424 11.6623 145.398 11.9243 145.345 12.181H142.626C142.647 12.5793 142.774 12.8727 142.996 13.0666C143.217 13.2605 143.545 13.3548 143.967 13.3548C144.389 13.3548 144.817 13.2605 145.213 13.0718V13.9102L145.218 13.905ZM143.582 10.3628C143.312 10.3628 143.091 10.4571 142.922 10.6405C142.753 10.8239 142.647 11.0754 142.621 11.395H144.358V11.2693C144.358 10.9706 144.289 10.7453 144.157 10.5933C144.025 10.4413 143.835 10.3628 143.582 10.3628Z" fill="white"/>
<path d="M146.327 14.078V9.76544L147.256 9.67112L147.351 10.0746C147.71 9.74972 148.111 9.58728 148.549 9.58728C148.686 9.58728 148.829 9.60824 148.982 9.64492V10.5934C148.808 10.5514 148.66 10.5357 148.528 10.5357C148.132 10.5357 147.789 10.6458 147.493 10.8606V14.0832H146.332L146.327 14.078Z" fill="white"/>
<path d="M153.717 14.2142C153.036 14.2142 152.514 14.0151 152.155 13.6221C151.796 13.2291 151.616 12.6474 151.616 11.8824C151.616 11.1173 151.796 10.5514 152.149 10.1532C152.503 9.76016 153.026 9.56104 153.717 9.56104C154.409 9.56104 154.926 9.76016 155.285 10.1532C155.639 10.5514 155.818 11.1278 155.818 11.8824C155.818 12.6369 155.639 13.2238 155.28 13.6221C154.921 14.0203 154.398 14.2142 153.717 14.2142ZM153.717 13.3234C154.034 13.3234 154.261 13.2133 154.398 12.988C154.535 12.7627 154.604 12.3959 154.604 11.8771C154.604 11.3584 154.535 10.9968 154.398 10.7767C154.261 10.5566 154.034 10.4414 153.717 10.4414C153.4 10.4414 153.173 10.5514 153.036 10.7767C152.899 11.002 152.83 11.3636 152.83 11.8771C152.83 12.3906 152.899 12.7679 153.036 12.988C153.173 13.2081 153.4 13.3234 153.717 13.3234Z" fill="white"/>
<path d="M156.995 14.0779V10.5094H156.341V9.73912L156.995 9.71292V9.01076C156.995 8.52867 157.127 8.14615 157.397 7.86843C157.666 7.59071 158.03 7.45447 158.5 7.45447C158.806 7.45447 159.112 7.51211 159.418 7.62739V8.41339C159.16 8.34527 158.954 8.30859 158.801 8.30859C158.595 8.30859 158.437 8.36623 158.326 8.47627C158.215 8.58631 158.157 8.74875 158.157 8.96884V9.69196H159.207V10.5042H158.157V14.0726H156.995V14.0779Z" fill="white"/>
<path d="M211.208 22.768C211.551 22.768 211.826 23.0091 211.826 23.3392C211.826 23.6693 211.551 23.9156 211.208 23.9156C210.865 23.9156 210.591 23.6693 210.591 23.3392C210.591 23.0091 210.865 22.768 211.208 22.768ZM211.208 24.0728C211.652 24.0728 212 23.7479 212 23.3392C212 22.9305 211.652 22.6056 211.208 22.6056C210.765 22.6056 210.417 22.9305 210.417 23.3392C210.417 23.7479 210.765 24.0728 211.208 24.0728ZM211.372 23.4126C211.52 23.4021 211.594 23.3287 211.594 23.1872C211.594 22.9881 211.467 22.9567 211.272 22.9567H210.87V23.7217H211.045V23.4178H211.193L211.383 23.7217H211.573L211.372 23.4178V23.4126ZM211.045 23.2763V23.0929H211.235C211.314 23.0929 211.425 23.0929 211.425 23.1768C211.425 23.2606 211.367 23.2763 211.277 23.2763H211.045Z" fill="white"/>
<path d="M168.665 0H206.362C208.389 0 210.042 1.63489 210.042 3.6523V20.3837C210.042 22.3959 208.395 24.036 206.362 24.036H168.665C166.638 24.036 164.986 22.4011 164.986 20.3837V3.6523C164.986 1.63489 166.633 0 168.665 0Z" fill="white"/>
<path d="M208.094 1.92834C207.629 1.46722 207.017 1.2157 206.362 1.2157H195.82L201.886 11.2556L202.44 11.3237L202.762 11.7796V12.2145L203.152 12.2826L203.501 12.7647V13.1787L203.892 13.2468C203.892 13.2468 204.282 13.6608 204.282 13.6817C204.282 13.6608 204.282 14.6197 204.282 14.6197C204.282 14.6197 205.137 15.4004 205.898 15.6939C206.431 15.8982 206.499 16.7471 206.8 17.2082C207.217 17.8475 207.772 18.1253 207.655 18.4921C207.381 19.4772 206.362 21.1278 205.417 21.2221C205.417 21.2221 203.063 21.2221 201.674 21.2221V22.8098H206.351C207.703 22.8098 208.801 21.7147 208.801 20.3732V3.65231C208.801 3.00255 208.548 2.38946 208.083 1.93358L208.094 1.92834Z" fill="#BC0022"/>
<path d="M192.231 1.21581H168.665C168.011 1.21581 167.393 1.46733 166.934 1.92845C166.469 2.38958 166.216 2.99742 166.216 3.64718V20.3786C166.216 21.0283 166.469 21.6414 166.934 22.0973C167.399 22.5584 168.011 22.8099 168.665 22.8099H183.974C183.589 22.1759 183.161 21.4528 183.024 21.2327H181.198C181.198 16.742 182.739 14.2425 184.566 13.7604C184.819 13.7133 184.703 12.4766 184.381 12.1098C184.381 12.1098 183.505 12.1308 183.32 12.0889C183.087 12.0207 183.251 11.7902 183.251 11.7902L184.106 9.95617L183.99 9.45313H180.828C180.781 9.45313 183.436 7.64008 183.436 7.64008C183.573 2.87166 188.493 2.50486 191.47 4.47511C193.228 5.64363 193.366 7.93352 193.228 9.54221C193.207 9.63129 192.769 9.56317 192.769 9.56317C192.769 9.56317 192.468 11.3029 193.255 11.3029H196.718C198.127 11.2557 199.489 12.1937 199.489 12.1937L199.832 10.9989L192.231 1.21057V1.21581ZM171.284 19.3725C170.355 19.3725 169.6 18.6232 169.6 17.7009C169.6 16.7787 170.355 16.0294 171.284 16.0294C172.213 16.0294 172.968 16.7787 172.968 17.7009C172.968 18.6232 172.218 19.3725 171.284 19.3725Z" fill="#041E42"/>
<path d="M7.54851 22.0343L8.14213 23.5415L8.74091 22.0343H9.17967L9.37066 24.2745H8.9732L8.85447 22.664L8.30731 24.0577H7.97179L7.4143 22.6382L7.29558 24.2745H6.90328L7.09427 22.0343H7.54851ZM5.60248 24.2745V22.3749H4.93659V22.0343H6.69164V22.3749H6.02575V24.2745H5.60248ZM9.80337 25.6476L11.1042 21.771H11.5945L10.2938 25.6476H9.80337ZM13.8226 25.725C13.4647 25.725 13.1412 25.639 12.8521 25.4669C12.5665 25.2914 12.3445 25.0608 12.1862 24.7752C12.0279 24.4896 11.9488 24.1782 11.9488 23.8409C11.9488 23.4796 12.0348 23.1544 12.2069 22.8653C12.3824 22.5763 12.6112 22.3526 12.8934 22.1943C13.179 22.036 13.4887 21.9568 13.8226 21.9568C14.1804 21.9568 14.5022 22.0446 14.7878 22.2201C15.0769 22.3921 15.3006 22.621 15.4589 22.9066C15.6172 23.1922 15.6963 23.5037 15.6963 23.8409C15.6963 24.2023 15.6086 24.5275 15.4331 24.8165C15.261 25.1056 15.0322 25.3293 14.7465 25.4876C14.4643 25.6459 14.1564 25.725 13.8226 25.725ZM13.8226 25.4308C14.1254 25.4308 14.3938 25.3602 14.6278 25.2191C14.8653 25.0746 15.0476 24.8819 15.175 24.641C15.3057 24.4001 15.3711 24.1334 15.3711 23.8409C15.3711 23.5278 15.3006 23.2507 15.1595 23.0099C15.0218 22.7655 14.836 22.578 14.602 22.4472C14.368 22.3164 14.1082 22.2511 13.8226 22.2511C13.5197 22.2511 13.2496 22.3233 13.0121 22.4679C12.7781 22.6089 12.5957 22.7999 12.465 23.0408C12.3376 23.2817 12.274 23.5484 12.274 23.8409C12.274 24.1541 12.3428 24.4328 12.4805 24.6771C12.6216 24.918 12.8091 25.1039 13.0431 25.2346C13.2771 25.3654 13.5369 25.4308 13.8226 25.4308ZM14.4884 24.8423C14.3095 24.9387 14.1082 24.9869 13.8845 24.9869C13.5645 24.9869 13.3132 24.8853 13.1309 24.6823C12.9485 24.4793 12.8573 24.1988 12.8573 23.8409C12.8573 23.483 12.9485 23.2026 13.1309 22.9995C13.3167 22.7965 13.5679 22.695 13.8845 22.695C14.1013 22.695 14.2992 22.7432 14.4781 22.8395V23.1647C14.3886 23.1165 14.3026 23.0821 14.22 23.0615C14.1409 23.0374 14.0531 23.0253 13.9568 23.0253C13.7537 23.0253 13.5937 23.0993 13.4767 23.2473C13.3631 23.3918 13.3064 23.5897 13.3064 23.8409C13.3064 24.0956 13.3631 24.2952 13.4767 24.4397C13.5937 24.5842 13.7537 24.6565 13.9568 24.6565C14.1254 24.6565 14.3026 24.61 14.4884 24.5171V24.8423ZM17.4476 25.6476C17.4545 25.3379 17.5164 25.0695 17.6334 24.8423C17.7539 24.6152 17.9552 24.3829 18.2374 24.1455L18.671 23.779C18.8465 23.631 18.9721 23.4985 19.0478 23.3815C19.1235 23.2645 19.1614 23.1441 19.1614 23.0202C19.1614 22.8378 19.0943 22.6933 18.96 22.5866C18.8293 22.4799 18.6503 22.4266 18.4232 22.4266C18.1273 22.4266 17.8382 22.5298 17.556 22.7363V22.3388C17.8348 22.1358 18.1634 22.0343 18.5419 22.0343C18.7656 22.0343 18.9618 22.0773 19.1304 22.1633C19.3025 22.2459 19.4349 22.3612 19.5279 22.5092C19.6208 22.6537 19.6672 22.8154 19.6672 22.9944C19.6672 23.1733 19.619 23.3419 19.5227 23.5002C19.4298 23.6551 19.2698 23.8289 19.0426 24.0216L18.6297 24.3726C18.437 24.5378 18.2907 24.6892 18.1909 24.8268C18.0911 24.9645 18.0275 25.1021 17.9999 25.2398H19.1975C19.3971 25.2398 19.5691 25.2346 19.7137 25.2243V25.6476H17.4476ZM21.5824 25.343C21.8508 25.343 22.047 25.226 22.1709 24.992C22.2947 24.7546 22.3567 24.3829 22.3567 23.8771C22.3567 23.3712 22.293 23.0013 22.1657 22.7672C22.0418 22.5332 21.8474 22.4162 21.5824 22.4162C21.3174 22.4162 21.1213 22.5332 20.994 22.7672C20.8701 23.0013 20.8081 23.3712 20.8081 23.8771C20.8081 24.3829 20.8701 24.7546 20.994 24.992C21.1178 25.226 21.314 25.343 21.5824 25.343ZM21.5824 25.725C20.729 25.725 20.3023 25.109 20.3023 23.8771C20.3023 23.268 20.4089 22.8085 20.6223 22.4988C20.8357 22.1891 21.1557 22.0343 21.5824 22.0343C22.0091 22.0343 22.3292 22.1891 22.5425 22.4988C22.7559 22.8085 22.8626 23.268 22.8626 23.8771C22.8626 25.109 22.4358 25.725 21.5824 25.725ZM23.3705 25.6476C23.3774 25.3379 23.4393 25.0695 23.5563 24.8423C23.6768 24.6152 23.8781 24.3829 24.1603 24.1455L24.5939 23.779C24.7694 23.631 24.895 23.4985 24.9707 23.3815C25.0464 23.2645 25.0842 23.1441 25.0842 23.0202C25.0842 22.8378 25.0171 22.6933 24.8829 22.5866C24.7521 22.4799 24.5732 22.4266 24.3461 22.4266C24.0501 22.4266 23.7611 22.5298 23.4789 22.7363V22.3388C23.7576 22.1358 24.0863 22.0343 24.4648 22.0343C24.6885 22.0343 24.8846 22.0773 25.0533 22.1633C25.2253 22.2459 25.3578 22.3612 25.4507 22.5092C25.5436 22.6537 25.5901 22.8154 25.5901 22.9944C25.5901 23.1733 25.5419 23.3419 25.4456 23.5002C25.3526 23.6551 25.1926 23.8289 24.9655 24.0216L24.5526 24.3726C24.3598 24.5378 24.2136 24.6892 24.1138 24.8268C24.014 24.9645 23.9503 25.1021 23.9228 25.2398H25.1204C25.32 25.2398 25.492 25.2346 25.6366 25.2243V25.6476H23.3705ZM28.4138 22.4369C28.0559 22.4541 27.7496 22.5212 27.495 22.6382C27.2403 22.7518 27.0407 22.9118 26.8962 23.1183C26.7551 23.3213 26.6725 23.5656 26.6484 23.8512C26.7482 23.7274 26.8807 23.6293 27.0459 23.557C27.211 23.4847 27.3831 23.4486 27.5621 23.4486C27.772 23.4486 27.9595 23.5002 28.1247 23.6035C28.2899 23.7033 28.4172 23.8392 28.5067 24.0113C28.5962 24.1799 28.6409 24.3657 28.6409 24.5687C28.6409 24.8028 28.5876 25.0075 28.4809 25.183C28.3776 25.3551 28.2348 25.4893 28.0524 25.5856C27.8701 25.6786 27.6636 25.725 27.433 25.725C27.1646 25.725 26.934 25.6631 26.7413 25.5392C26.552 25.4119 26.4075 25.2312 26.3077 24.9972C26.2114 24.7632 26.1632 24.4879 26.1632 24.1713C26.1632 23.7377 26.2509 23.3643 26.4264 23.0512C26.6019 22.7346 26.8532 22.4902 27.1801 22.3182C27.507 22.1461 27.8959 22.0515 28.3467 22.0343L28.4138 22.4369ZM27.4743 23.8254C27.316 23.8254 27.1612 23.8685 27.0097 23.9545C26.8583 24.0405 26.7362 24.1558 26.6432 24.3003C26.657 24.6376 26.731 24.8957 26.8652 25.0746C27.0029 25.2536 27.1921 25.343 27.433 25.343C27.6498 25.343 27.8236 25.2742 27.9544 25.1366C28.0851 24.9955 28.1505 24.8114 28.1505 24.5842C28.1505 24.3571 28.0886 24.1747 27.9647 24.0371C27.8408 23.896 27.6773 23.8254 27.4743 23.8254ZM32.35 25.3327L31.3434 22.7414L31.1472 25.6476H30.6723L30.9562 22.0343H31.5189L32.5564 24.7081L33.594 22.0343H34.1566L34.4405 25.6476H33.9605L33.7592 22.7414L32.7577 25.3327H32.35ZM35.3503 25.6476V22.0343H35.851V25.2346H37.5132V25.6476H35.3503ZM38.1454 25.6476V22.1117C38.3278 22.0773 38.5205 22.0497 38.7236 22.0291C38.9266 22.0084 39.1038 21.9981 39.2552 21.9981C39.6579 21.9981 39.9659 22.079 40.1792 22.2407C40.396 22.399 40.5044 22.6279 40.5044 22.9273C40.5044 23.1269 40.4494 23.2972 40.3392 23.4383C40.2326 23.5794 40.0743 23.6861 39.8643 23.7583C40.119 23.8134 40.3151 23.9201 40.4528 24.0784C40.5939 24.2332 40.6644 24.4294 40.6644 24.6668C40.6644 24.9834 40.5543 25.226 40.3341 25.3947C40.1138 25.5633 39.799 25.6476 39.3894 25.6476H38.1454ZM39.374 25.2656C39.6286 25.2656 39.8213 25.2123 39.9521 25.1056C40.0863 24.9955 40.1534 24.8354 40.1534 24.6255C40.1534 24.4191 40.0829 24.2608 39.9418 24.1506C39.8041 24.0371 39.6097 23.9803 39.3585 23.9803H38.6307V25.2656H39.374ZM39.2191 22.3801C39.0574 22.3801 38.8612 22.3973 38.6307 22.4317V23.6086H39.312C39.5288 23.6086 39.6992 23.5536 39.823 23.4435C39.9504 23.3299 40.014 23.1785 40.014 22.9892C40.014 22.5831 39.7491 22.3801 39.2191 22.3801ZM41.5483 25.6734C41.4554 25.6734 41.3797 25.6441 41.3212 25.5856C41.2627 25.5271 41.2335 25.4514 41.2335 25.3585C41.2335 25.2656 41.2627 25.1899 41.3212 25.1314C41.3797 25.0729 41.4554 25.0436 41.5483 25.0436C41.6412 25.0436 41.717 25.0729 41.7755 25.1314C41.834 25.1899 41.8632 25.2656 41.8632 25.3585C41.8632 25.4514 41.834 25.5271 41.7755 25.5856C41.717 25.6441 41.6412 25.6734 41.5483 25.6734Z" fill="white"/>
</svg>
