<svg width="349" height="89" viewBox="0 0 349 89" fill="none" xmlns="http://www.w3.org/2000/svg">
<path d="M0.588047 15.6869C1.19005 15.5329 1.61005 15.2739 1.84805 14.9099C2.10005 14.5459 2.22605 13.9929 2.22605 13.2509V4.17894C2.22605 3.43694 2.10005 2.88394 1.84805 2.51994C1.61005 2.15594 1.19005 1.89694 0.588047 1.74294V1.36494H7.91705C8.53305 1.36494 9.08605 1.35094 9.57605 1.32294C10.08 1.28094 10.605 1.22494 11.151 1.15494L11.634 5.31294L11.256 5.37594C10.934 4.54994 10.605 3.90594 10.269 3.44394C9.94705 2.98194 9.56905 2.65294 9.13505 2.45694C8.71505 2.26094 8.18305 2.16294 7.53905 2.16294H4.32605V8.10594H6.44705C7.31505 8.10594 7.93805 7.97994 8.31605 7.72794C8.70805 7.46194 9.00205 6.97194 9.19805 6.25794H9.49205V10.7519H9.19805C9.01605 10.0379 8.72905 9.55494 8.33705 9.30294C7.94505 9.03694 7.31505 8.90394 6.44705 8.90394H4.32605V13.1669C4.32605 13.8949 4.45205 14.4269 4.70405 14.7629C4.95605 15.0989 5.36205 15.2669 5.92205 15.2669H7.37105C8.01505 15.2669 8.57505 15.1549 9.05105 14.9309C9.52705 14.6929 9.96805 14.2729 10.374 13.6709C10.78 13.0549 11.2 12.1869 11.634 11.0669L12.012 11.1509L11.466 16.0649H0.588047V15.6869ZM14.0285 13.6289C14.0285 12.9429 14.2455 12.3409 14.6795 11.8229C15.1135 11.3049 15.7225 10.9059 16.5065 10.6259C17.2905 10.3319 18.2005 10.1849 19.2365 10.1849C19.7545 10.1849 20.2795 10.2199 20.8115 10.2899V8.94594C20.8115 8.02194 20.6015 7.30094 20.1815 6.78294C19.7755 6.25094 19.2085 5.98494 18.4805 5.98494C17.0945 5.98494 15.9255 6.98594 14.9735 8.98794L14.6165 8.88294L14.9525 5.98494C16.2125 5.48094 17.4375 5.22894 18.6275 5.22894C19.9575 5.22894 20.9795 5.56494 21.6935 6.23694C22.4215 6.89494 22.7855 7.84694 22.7855 9.09294V14.2169C22.7855 14.9449 23.0725 15.3089 23.6465 15.3089C23.8565 15.3089 24.0455 15.2319 24.2135 15.0779L24.4865 15.2879C24.0525 15.9459 23.4575 16.2749 22.7015 16.2749C21.8335 16.2749 21.2665 15.8689 21.0005 15.0569C20.1605 15.9529 19.0755 16.4009 17.7455 16.4009C16.5975 16.4009 15.6875 16.1559 15.0155 15.6659C14.3575 15.1619 14.0285 14.4829 14.0285 13.6289ZM16.0865 13.3769C16.0865 14.0629 16.2965 14.6019 16.7165 14.9939C17.1505 15.3859 17.7105 15.5819 18.3965 15.5819C19.0825 15.5819 19.6565 15.3019 20.1185 14.7419C20.5805 14.1819 20.8115 13.3419 20.8115 12.2219V11.0249C20.5875 10.9969 20.3705 10.9759 20.1605 10.9619C19.9645 10.9479 19.7685 10.9409 19.5725 10.9409C18.4665 10.9409 17.6055 11.1579 16.9895 11.5919C16.3875 12.0119 16.0865 12.6069 16.0865 13.3769ZM25.4205 15.7289C25.9945 15.5749 26.3935 15.3299 26.6175 14.9939C26.8555 14.6439 26.9745 14.1189 26.9745 13.4189V8.58894C26.9745 7.87494 26.8555 7.34294 26.6175 6.99294C26.3935 6.64294 25.9945 6.39794 25.4205 6.25794V5.92194L28.4655 5.43894C28.5915 5.67694 28.6825 5.89394 28.7385 6.08994C28.7945 6.28594 28.8295 6.52394 28.8435 6.80394C29.1655 6.31394 29.5575 5.92894 30.0195 5.64894C30.4955 5.36894 31.0135 5.22894 31.5735 5.22894C32.3575 5.22894 33.0505 5.48094 33.6525 5.98494L33.7785 8.90394L33.4215 8.98794C32.9875 7.99394 32.5745 7.28694 32.1825 6.86694C31.7905 6.44694 31.3495 6.23694 30.8595 6.23694C30.2575 6.23694 29.7885 6.51694 29.4525 7.07694C29.1165 7.63694 28.9485 8.42794 28.9485 9.44994V13.4189C28.9485 14.1749 29.0885 14.7139 29.3685 15.0359C29.6485 15.3579 30.1665 15.5749 30.9225 15.6869V16.0649H25.4205V15.7289ZM34.9157 15.7289C35.4897 15.5749 35.8887 15.3299 36.1127 14.9939C36.3507 14.6439 36.4697 14.1119 36.4697 13.3979V8.63094C36.4697 7.88894 36.3507 7.34294 36.1127 6.99294C35.8887 6.64294 35.4897 6.39794 34.9157 6.25794V5.92194L37.9607 5.43894C38.1707 5.83094 38.2897 6.20194 38.3177 6.55194C39.2137 5.66994 40.3547 5.22894 41.7407 5.22894C43.0287 5.22894 44.0157 5.57194 44.7017 6.25794C45.3877 6.94394 45.7307 7.93094 45.7307 9.21894V13.3979C45.7307 14.1119 45.8427 14.6439 46.0667 14.9939C46.3047 15.3299 46.7107 15.5749 47.2847 15.7289V16.0649H42.2027V15.7289C42.7767 15.5749 43.1757 15.3299 43.3997 14.9939C43.6377 14.6439 43.7567 14.1119 43.7567 13.3979V9.09294C43.7567 8.14094 43.5397 7.39894 43.1057 6.86694C42.6717 6.33494 42.0627 6.06894 41.2787 6.06894C40.4107 6.06894 39.7177 6.38394 39.1997 7.01394C38.6957 7.62994 38.4437 8.46294 38.4437 9.51294V13.3979C38.4437 14.1119 38.5557 14.6439 38.7797 14.9939C39.0177 15.3299 39.4237 15.5749 39.9977 15.7289V16.0649H34.9157V15.7289ZM54.9193 12.4109V8.67294C54.9193 7.93094 54.8003 7.38494 54.5623 7.03494C54.3383 6.68494 53.9393 6.43994 53.3653 6.29994V5.96394L56.7463 5.43894L56.9773 5.66994C56.9213 6.06194 56.8933 6.49594 56.8933 6.97194V12.5369C56.8933 13.4889 57.0963 14.2309 57.5023 14.7629C57.9083 15.2949 58.4753 15.5609 59.2033 15.5609C59.7073 15.5609 60.1763 15.4349 60.6103 15.1829C61.0443 14.9309 61.3873 14.5669 61.6393 14.0909C61.9053 13.6149 62.0383 13.0479 62.0383 12.3899V7.76994C62.0383 7.26594 61.9543 6.90894 61.7863 6.69894C61.6323 6.48894 61.2753 6.33494 60.7153 6.23694V5.92194L63.9073 5.43894L64.0963 5.62794C64.0403 6.08994 64.0123 6.55894 64.0123 7.03494V13.3979C64.0123 14.1119 64.1243 14.6439 64.3483 14.9939C64.5863 15.3299 64.9923 15.5749 65.5663 15.7289V16.0649L62.5213 16.2749C62.2833 15.8269 62.1573 15.3789 62.1433 14.9309C61.2613 15.9109 60.1273 16.4009 58.7413 16.4009C57.5093 16.4009 56.5643 16.0579 55.9063 15.3719C55.2483 14.6719 54.9193 13.6849 54.9193 12.4109ZM66.7233 15.7289C67.2973 15.5749 67.6963 15.3299 67.9203 14.9939C68.1583 14.6439 68.2773 14.1119 68.2773 13.3979V8.63094C68.2773 7.88894 68.1583 7.34294 67.9203 6.99294C67.6963 6.64294 67.2973 6.39794 66.7233 6.25794V5.92194L69.7683 5.43894C69.9783 5.83094 70.0973 6.20194 70.1253 6.55194C71.0213 5.66994 72.1623 5.22894 73.5483 5.22894C74.8363 5.22894 75.8233 5.57194 76.5093 6.25794C77.1953 6.94394 77.5383 7.93094 77.5383 9.21894V13.3979C77.5383 14.1119 77.6503 14.6439 77.8743 14.9939C78.1123 15.3299 78.5183 15.5749 79.0923 15.7289V16.0649H74.0103V15.7289C74.5843 15.5749 74.9833 15.3299 75.2073 14.9939C75.4453 14.6439 75.5643 14.1119 75.5643 13.3979V9.09294C75.5643 8.14094 75.3473 7.39894 74.9133 6.86694C74.4793 6.33494 73.8703 6.06894 73.0863 6.06894C72.2183 6.06894 71.5253 6.38394 71.0073 7.01394C70.5033 7.62994 70.2513 8.46294 70.2513 9.51294V13.3979C70.2513 14.1119 70.3633 14.6439 70.5873 14.9939C70.8253 15.3299 71.2313 15.5749 71.8053 15.7289V16.0649H66.7233V15.7289ZM80.1329 15.7289C80.7069 15.5749 81.1059 15.3299 81.3299 14.9939C81.5679 14.6439 81.6869 14.1189 81.6869 13.4189V3.23394C81.6869 2.49194 81.5679 1.94594 81.3299 1.59594C81.1059 1.24594 80.7069 1.00094 80.1329 0.860941V0.524941L83.5139 -5.9545e-05L83.7449 0.230941C83.6889 0.622941 83.6609 1.06394 83.6609 1.55394V13.4189C83.6609 14.1189 83.7729 14.6439 83.9969 14.9939C84.2349 15.3299 84.6409 15.5749 85.2149 15.7289V16.0649H80.1329V15.7289ZM86.3698 15.7289C86.9438 15.5749 87.3428 15.3299 87.5668 14.9939C87.8048 14.6439 87.9238 14.1119 87.9238 13.3979V8.63094C87.9238 7.88894 87.8048 7.34294 87.5668 6.99294C87.3428 6.64294 86.9438 6.39794 86.3698 6.25794V5.92194L89.7508 5.43894L89.9818 5.66994C89.9538 5.89394 89.9328 6.11094 89.9188 6.32094C89.9048 6.51694 89.8978 6.73394 89.8978 6.97194V13.3979C89.8978 14.1119 90.0098 14.6439 90.2338 14.9939C90.4718 15.3299 90.8778 15.5749 91.4518 15.7289V16.0649H86.3698V15.7289ZM87.3988 2.01594C87.3988 1.60994 87.5248 1.28094 87.7768 1.02894C88.0428 0.776941 88.3718 0.650941 88.7638 0.650941C89.1698 0.650941 89.4988 0.776941 89.7508 1.02894C90.0028 1.28094 90.1288 1.60994 90.1288 2.01594C90.1288 2.40794 90.0028 2.73694 89.7508 3.00294C89.4988 3.25494 89.1698 3.38094 88.7638 3.38094C88.3718 3.38094 88.0428 3.25494 87.7768 3.00294C87.5248 2.73694 87.3988 2.40794 87.3988 2.01594ZM92.6041 15.7289C93.1781 15.5749 93.5771 15.3299 93.8011 14.9939C94.0391 14.6439 94.1581 14.1119 94.1581 13.3979V8.63094C94.1581 7.88894 94.0391 7.34294 93.8011 6.99294C93.5771 6.64294 93.1781 6.39794 92.6041 6.25794V5.92194L95.6491 5.43894C95.8451 5.81694 95.9641 6.17394 96.0061 6.50994C96.8601 5.65594 97.9381 5.22894 99.2401 5.22894C100.878 5.22894 101.998 5.83094 102.6 7.03494C103.552 5.83094 104.791 5.22894 106.317 5.22894C107.549 5.22894 108.494 5.57194 109.152 6.25794C109.824 6.94394 110.16 7.93094 110.16 9.21894V13.3979C110.16 14.1119 110.272 14.6439 110.496 14.9939C110.734 15.3299 111.14 15.5749 111.714 15.7289V16.0649H106.632V15.7289C107.206 15.5749 107.605 15.3299 107.829 14.9939C108.067 14.6439 108.186 14.1119 108.186 13.3979V9.09294C108.186 8.14094 107.976 7.39894 107.556 6.86694C107.136 6.33494 106.555 6.06894 105.813 6.06894C105.001 6.06894 104.35 6.38394 103.86 7.01394C103.384 7.62994 103.146 8.46294 103.146 9.51294V13.3979C103.146 14.1119 103.258 14.6439 103.482 14.9939C103.72 15.3299 104.126 15.5749 104.7 15.7289V16.0649H99.6181V15.7289C100.192 15.5749 100.591 15.3299 100.815 14.9939C101.053 14.6439 101.172 14.1119 101.172 13.3979V9.09294C101.172 8.14094 100.962 7.39894 100.542 6.86694C100.122 6.33494 99.5411 6.06894 98.7991 6.06894C97.9871 6.06894 97.3361 6.38394 96.8461 7.01394C96.3701 7.62994 96.1321 8.46294 96.1321 9.51294V13.3979C96.1321 14.1119 96.2441 14.6439 96.4681 14.9939C96.7061 15.3299 97.1121 15.5749 97.6861 15.7289V16.0649H92.6041V15.7289ZM112.866 15.7289C113.44 15.5749 113.839 15.3299 114.063 14.9939C114.301 14.6439 114.42 14.1119 114.42 13.3979V8.63094C114.42 7.88894 114.301 7.34294 114.063 6.99294C113.839 6.64294 113.44 6.39794 112.866 6.25794V5.92194L116.247 5.43894L116.478 5.66994C116.45 5.89394 116.429 6.11094 116.415 6.32094C116.401 6.51694 116.394 6.73394 116.394 6.97194V13.3979C116.394 14.1119 116.506 14.6439 116.73 14.9939C116.968 15.3299 117.374 15.5749 117.948 15.7289V16.0649H112.866V15.7289ZM113.895 2.01594C113.895 1.60994 114.021 1.28094 114.273 1.02894C114.539 0.776941 114.868 0.650941 115.26 0.650941C115.666 0.650941 115.995 0.776941 116.247 1.02894C116.499 1.28094 116.625 1.60994 116.625 2.01594C116.625 2.40794 116.499 2.73694 116.247 3.00294C115.995 3.25494 115.666 3.38094 115.26 3.38094C114.868 3.38094 114.539 3.25494 114.273 3.00294C114.021 2.73694 113.895 2.40794 113.895 2.01594ZM118.806 5.56494H120.36V3.46494L122.187 3.17094L122.418 3.40194C122.362 3.79394 122.334 4.22794 122.334 4.70394V5.56494H125.673V6.32094H122.334V13.2299C122.334 14.5039 122.866 15.1409 123.93 15.1409C124.56 15.1409 125.099 14.8469 125.547 14.2589L125.883 14.4479C125.323 15.7499 124.392 16.4009 123.09 16.4009C121.27 16.4009 120.36 15.3299 120.36 13.1879V6.32094H118.806V5.56494ZM127.386 10.8989C127.386 9.76494 127.596 8.77794 128.016 7.93794C128.436 7.08394 129.024 6.41894 129.78 5.94294C130.536 5.46694 131.411 5.22894 132.405 5.22894C133.693 5.22894 134.722 5.64894 135.492 6.48894C136.262 7.31494 136.717 8.50494 136.857 10.0589H129.276C129.276 11.5849 129.633 12.7749 130.347 13.6289C131.061 14.4689 132.062 14.8889 133.35 14.8889C134.61 14.8889 135.576 14.4409 136.248 13.5449L136.584 13.7339C135.786 15.5119 134.393 16.4009 132.405 16.4009C131.397 16.4009 130.515 16.1769 129.759 15.7289C129.003 15.2669 128.415 14.6229 127.995 13.7969C127.589 12.9709 127.386 12.0049 127.386 10.8989ZM134.694 9.30294C134.624 8.26694 134.351 7.45494 133.875 6.86694C133.413 6.27894 132.797 5.98494 132.027 5.98494C131.257 5.98494 130.634 6.27894 130.158 6.86694C129.682 7.45494 129.402 8.26694 129.318 9.30294H134.694ZM138.378 11.0879C138.378 9.93994 138.595 8.92494 139.029 8.04294C139.463 7.16094 140.065 6.47494 140.835 5.98494C141.605 5.48094 142.487 5.22894 143.481 5.22894C144.601 5.22894 145.595 5.52294 146.463 6.11094V3.21294C146.463 2.47094 146.344 1.92494 146.106 1.57494C145.882 1.21094 145.483 0.958941 144.909 0.818941V0.48294L148.29 -5.9545e-05L148.521 0.230941C148.465 0.622941 148.437 1.05694 148.437 1.53294V13.3979C148.437 14.1119 148.549 14.6439 148.773 14.9939C149.011 15.3299 149.417 15.5749 149.991 15.7289V16.0649L146.946 16.2749C146.736 15.8689 146.617 15.4699 146.589 15.0779C145.693 15.9599 144.58 16.4009 143.25 16.4009C141.766 16.4009 140.583 15.9249 139.701 14.9729C138.819 14.0209 138.378 12.7259 138.378 11.0879ZM140.436 10.4369C140.436 11.4589 140.569 12.3549 140.835 13.1249C141.115 13.8949 141.5 14.4969 141.99 14.9309C142.494 15.3509 143.068 15.5609 143.712 15.5609C144.51 15.5609 145.168 15.2529 145.686 14.6369C146.204 14.0069 146.463 13.2089 146.463 12.2429V9.28194C146.463 8.66594 146.323 8.11294 146.043 7.62294C145.777 7.11894 145.413 6.71994 144.951 6.42594C144.489 6.13194 143.971 5.98494 143.397 5.98494C142.473 5.98494 141.745 6.37694 141.213 7.16094C140.695 7.94494 140.436 9.03694 140.436 10.4369ZM163.292 4.55694C163.292 3.71694 163.075 3.09394 162.641 2.68794C162.221 2.28194 161.724 2.07894 161.15 2.07894C160.296 2.07894 159.582 2.38694 159.008 3.00294C158.434 3.61894 157.909 4.59894 157.433 5.94294L157.055 5.87994L157.475 2.16294C158.259 1.86894 158.966 1.66594 159.596 1.55394C160.226 1.42794 160.821 1.36494 161.381 1.36494C162.669 1.36494 163.684 1.65194 164.426 2.22594C165.182 2.78594 165.56 3.59794 165.56 4.66194C165.56 5.19394 165.385 5.79594 165.035 6.46794C164.685 7.12594 164.09 7.94494 163.25 8.92494C162.424 9.89094 161.297 11.1019 159.869 12.5579L158.252 14.2169H163.712C164.328 14.2169 164.797 14.0629 165.119 13.7549C165.455 13.4469 165.777 12.8869 166.085 12.0749L166.463 12.1379L166.001 16.0649H156.236L156.089 15.7289L159.197 11.9489C159.967 11.0109 160.611 10.1919 161.129 9.49194C161.661 8.79194 162.081 8.16894 162.389 7.62294C162.711 7.07694 162.942 6.55894 163.082 6.06894C163.222 5.57894 163.292 5.07494 163.292 4.55694ZM175.951 15.7289C176.525 15.5469 176.854 15.2669 176.938 14.8889C177.036 14.5109 176.882 14.0069 176.476 13.3769L173.998 9.44994L171.415 13.3769C170.589 14.6229 170.694 15.4069 171.73 15.7289V16.0649H167.635V15.7289C168.601 15.4209 169.448 14.7419 170.176 13.6919L173.536 8.71494L170.281 3.56994C169.959 3.05194 169.623 2.63894 169.273 2.33094C168.937 2.02294 168.517 1.81294 168.013 1.70094V1.36494H173.557V1.70094C172.857 1.85494 172.479 2.12094 172.423 2.49894C172.381 2.86294 172.577 3.38094 173.011 4.05294L175.132 7.39194L177.337 4.05294C177.827 3.32494 178.044 2.77194 177.988 2.39394C177.946 2.01594 177.554 1.78494 176.812 1.70094V1.36494H181.138V1.70094C180.802 1.77094 180.508 1.86894 180.256 1.99494C180.004 2.12094 179.752 2.31694 179.5 2.58294C179.248 2.84894 178.947 3.23394 178.597 3.73794L175.594 8.12694L179.248 13.8599C179.57 14.3779 179.899 14.7769 180.235 15.0569C180.585 15.3229 181.012 15.5469 181.516 15.7289V16.0649H175.951V15.7289ZM187.945 15.7289C188.519 15.5749 188.918 15.3299 189.142 14.9939C189.38 14.6439 189.499 14.1119 189.499 13.3979V8.63094C189.499 7.88894 189.38 7.34294 189.142 6.99294C188.918 6.64294 188.519 6.39794 187.945 6.25794V5.92194L190.99 5.43894C191.186 5.81694 191.305 6.17394 191.347 6.50994C192.201 5.65594 193.279 5.22894 194.581 5.22894C196.219 5.22894 197.339 5.83094 197.941 7.03494C198.893 5.83094 200.132 5.22894 201.658 5.22894C202.89 5.22894 203.835 5.57194 204.493 6.25794C205.165 6.94394 205.501 7.93094 205.501 9.21894V13.3979C205.501 14.1119 205.613 14.6439 205.837 14.9939C206.075 15.3299 206.481 15.5749 207.055 15.7289V16.0649H201.973V15.7289C202.547 15.5749 202.946 15.3299 203.17 14.9939C203.408 14.6439 203.527 14.1119 203.527 13.3979V9.09294C203.527 8.14094 203.317 7.39894 202.897 6.86694C202.477 6.33494 201.896 6.06894 201.154 6.06894C200.342 6.06894 199.691 6.38394 199.201 7.01394C198.725 7.62994 198.487 8.46294 198.487 9.51294V13.3979C198.487 14.1119 198.599 14.6439 198.823 14.9939C199.061 15.3299 199.467 15.5749 200.041 15.7289V16.0649H194.959V15.7289C195.533 15.5749 195.932 15.3299 196.156 14.9939C196.394 14.6439 196.513 14.1119 196.513 13.3979V9.09294C196.513 8.14094 196.303 7.39894 195.883 6.86694C195.463 6.33494 194.882 6.06894 194.14 6.06894C193.328 6.06894 192.677 6.38394 192.187 7.01394C191.711 7.62994 191.473 8.46294 191.473 9.51294V13.3979C191.473 14.1119 191.585 14.6439 191.809 14.9939C192.047 15.3299 192.453 15.5749 193.027 15.7289V16.0649H187.945V15.7289ZM208.207 15.7289C208.781 15.5749 209.18 15.3299 209.404 14.9939C209.642 14.6439 209.761 14.1119 209.761 13.3979V8.63094C209.761 7.88894 209.642 7.34294 209.404 6.99294C209.18 6.64294 208.781 6.39794 208.207 6.25794V5.92194L211.588 5.43894L211.819 5.66994C211.791 5.89394 211.77 6.11094 211.756 6.32094C211.742 6.51694 211.735 6.73394 211.735 6.97194V13.3979C211.735 14.1119 211.847 14.6439 212.071 14.9939C212.309 15.3299 212.715 15.5749 213.289 15.7289V16.0649H208.207V15.7289ZM209.236 2.01594C209.236 1.60994 209.362 1.28094 209.614 1.02894C209.88 0.776941 210.209 0.650941 210.601 0.650941C211.007 0.650941 211.336 0.776941 211.588 1.02894C211.84 1.28094 211.966 1.60994 211.966 2.01594C211.966 2.40794 211.84 2.73694 211.588 3.00294C211.336 3.25494 211.007 3.38094 210.601 3.38094C210.209 3.38094 209.88 3.25494 209.614 3.00294C209.362 2.73694 209.236 2.40794 209.236 2.01594ZM214.336 15.7289C214.91 15.5749 215.309 15.3299 215.533 14.9939C215.771 14.6439 215.89 14.1189 215.89 13.4189V3.23394C215.89 2.49194 215.771 1.94594 215.533 1.59594C215.309 1.24594 214.91 1.00094 214.336 0.860941V0.524941L217.717 -5.9545e-05L217.948 0.230941C217.892 0.622941 217.864 1.06394 217.864 1.55394V13.4189C217.864 14.1189 217.976 14.6439 218.2 14.9939C218.438 15.3299 218.844 15.5749 219.418 15.7289V16.0649H214.336V15.7289ZM220.594 10.8989C220.594 9.76494 220.804 8.77794 221.224 7.93794C221.644 7.08394 222.232 6.41894 222.988 5.94294C223.744 5.46694 224.619 5.22894 225.613 5.22894C226.901 5.22894 227.93 5.64894 228.7 6.48894C229.47 7.31494 229.925 8.50494 230.065 10.0589H222.484C222.484 11.5849 222.841 12.7749 223.555 13.6289C224.269 14.4689 225.27 14.8889 226.558 14.8889C227.818 14.8889 228.784 14.4409 229.456 13.5449L229.792 13.7339C228.994 15.5119 227.601 16.4009 225.613 16.4009C224.605 16.4009 223.723 16.1769 222.967 15.7289C222.211 15.2669 221.623 14.6229 221.203 13.7969C220.797 12.9709 220.594 12.0049 220.594 10.8989ZM227.902 9.30294C227.832 8.26694 227.559 7.45494 227.083 6.86694C226.621 6.27894 226.005 5.98494 225.235 5.98494C224.465 5.98494 223.842 6.27894 223.366 6.86694C222.89 7.45494 222.61 8.26694 222.526 9.30294H227.902ZM237.991 13.9439C237.991 13.4259 237.795 12.9919 237.403 12.6419C237.011 12.2919 236.339 11.9279 235.387 11.5499C234.113 11.0319 233.21 10.5139 232.678 9.99594C232.146 9.46394 231.88 8.85494 231.88 8.16894C231.88 7.27294 232.23 6.55894 232.93 6.02694C233.644 5.49494 234.596 5.22894 235.786 5.22894C236.36 5.22894 236.955 5.29894 237.571 5.43894C238.187 5.56494 238.761 5.74694 239.293 5.98494L239.629 8.77794L239.272 8.88294C238.796 7.94494 238.236 7.23094 237.592 6.74094C236.948 6.23694 236.262 5.98494 235.534 5.98494C234.974 5.98494 234.533 6.12494 234.211 6.40494C233.903 6.67094 233.749 7.02794 233.749 7.47594C233.749 7.93794 233.945 8.33694 234.337 8.67294C234.729 8.99494 235.415 9.35194 236.395 9.74394C237.683 10.2619 238.579 10.7659 239.083 11.2559C239.601 11.7459 239.86 12.3479 239.86 13.0619C239.86 13.7059 239.685 14.2799 239.335 14.7839C238.999 15.2879 238.523 15.6869 237.907 15.9809C237.305 16.2609 236.598 16.4009 235.786 16.4009C235.226 16.4009 234.631 16.3239 234.001 16.1699C233.371 16.0299 232.741 15.8199 232.111 15.5399L231.775 12.7469L232.132 12.6419C232.608 13.5939 233.189 14.3359 233.875 14.8679C234.575 15.3859 235.31 15.6449 236.08 15.6449C236.682 15.6449 237.151 15.4909 237.487 15.1829C237.823 14.8749 237.991 14.4619 237.991 13.9439ZM4.68772e-05 32.5649H5.20805V32.9009C4.63405 32.9569 4.26305 33.1739 4.09505 33.5519C3.92705 33.9299 3.97605 34.4339 4.24205 35.0639L6.57305 40.3979L8.88305 35.1269L8.50505 34.2869C8.32305 33.8809 8.11305 33.5799 7.87505 33.3839C7.65105 33.1879 7.30105 33.0269 6.82505 32.9009V32.5649H12.033V32.9009C11.459 32.9569 11.088 33.1739 10.92 33.5519C10.752 33.9299 10.801 34.4339 11.067 35.0639L13.398 40.3979L15.729 35.0639C16.009 34.4339 16.058 33.9299 15.876 33.5519C15.708 33.1739 15.337 32.9569 14.763 32.9009V32.5649H18.585V32.9009C18.109 33.0269 17.759 33.1879 17.535 33.3839C17.311 33.5799 17.101 33.8809 16.905 34.2869L12.894 43.2749H12.516L9.30305 36.0509L6.06905 43.2749H5.69105L1.68005 34.2869C1.49805 33.8809 1.28805 33.5799 1.05005 33.3839C0.826047 33.1879 0.476047 33.0269 4.68772e-05 32.9009V32.5649ZM19.5758 42.7289C20.1498 42.5749 20.5488 42.3299 20.7728 41.9939C21.0108 41.6439 21.1298 41.1119 21.1298 40.3979V35.6309C21.1298 34.8889 21.0108 34.3429 20.7728 33.9929C20.5488 33.6429 20.1498 33.3979 19.5758 33.2579V32.9219L22.9568 32.4389L23.1878 32.6699C23.1598 32.8939 23.1388 33.1109 23.1248 33.3209C23.1108 33.5169 23.1038 33.7339 23.1038 33.9719V40.3979C23.1038 41.1119 23.2158 41.6439 23.4398 41.9939C23.6778 42.3299 24.0838 42.5749 24.6578 42.7289V43.0649H19.5758V42.7289ZM20.6048 29.0159C20.6048 28.6099 20.7308 28.2809 20.9828 28.0289C21.2488 27.7769 21.5778 27.6509 21.9698 27.6509C22.3758 27.6509 22.7048 27.7769 22.9568 28.0289C23.2088 28.2809 23.3348 28.6099 23.3348 29.0159C23.3348 29.4079 23.2088 29.7369 22.9568 30.0029C22.7048 30.2549 22.3758 30.3809 21.9698 30.3809C21.5778 30.3809 21.2488 30.2549 20.9828 30.0029C20.7308 29.7369 20.6048 29.4079 20.6048 29.0159ZM25.5162 32.5649H27.0702V30.4649L28.8972 30.1709L29.1282 30.4019C29.0722 30.7939 29.0442 31.2279 29.0442 31.7039V32.5649H32.3832V33.3209H29.0442V40.2299C29.0442 41.5039 29.5762 42.1409 30.6402 42.1409C31.2702 42.1409 31.8092 41.8469 32.2572 41.2589L32.5932 41.4479C32.0332 42.7499 31.1022 43.4009 29.8002 43.4009C27.9802 43.4009 27.0702 42.3299 27.0702 40.1879V33.3209H25.5162V32.5649ZM34.1749 42.7289C34.7489 42.5749 35.1479 42.3229 35.3719 41.9729C35.6099 41.6229 35.7289 41.0839 35.7289 40.3559V30.2339C35.7289 29.4919 35.6099 28.9459 35.3719 28.5959C35.1479 28.2459 34.7489 28.0009 34.1749 27.8609V27.5249L37.5559 26.9999L37.7869 27.2309C37.7309 27.6229 37.7029 28.0499 37.7029 28.5119V33.4259C38.5709 32.6279 39.6699 32.2289 40.9999 32.2289C42.2879 32.2289 43.2749 32.5719 43.9609 33.2579C44.6469 33.9439 44.9899 34.9309 44.9899 36.2189V40.3979C44.9899 41.1119 45.1019 41.6439 45.3259 41.9939C45.5639 42.3299 45.9699 42.5749 46.5439 42.7289V43.0649H41.4619V42.7289C42.0359 42.5749 42.4349 42.3299 42.6589 41.9939C42.8969 41.6439 43.0159 41.1119 43.0159 40.3979V36.0929C43.0159 35.1409 42.7989 34.3989 42.3649 33.8669C41.9309 33.3349 41.3219 33.0689 40.5379 33.0689C39.6699 33.0689 38.9769 33.3839 38.4589 34.0139C37.9549 34.6299 37.7029 35.4629 37.7029 36.5129V40.4609C37.7029 41.1609 37.8149 41.6789 38.0389 42.0149C38.2769 42.3509 38.6829 42.5889 39.2569 42.7289V43.0649H34.1749V42.7289ZM52.648 28.3649H58.192V28.7009C57.492 28.8549 57.058 29.1349 56.89 29.5409C56.736 29.9469 56.778 30.4509 57.016 31.0529L60.67 39.9569L64.303 31.0739C64.555 30.4579 64.562 29.9329 64.324 29.4989C64.086 29.0509 63.596 28.7849 62.854 28.7009V28.3649H67.18V28.7009C66.662 28.8129 66.284 29.0509 66.046 29.4149C65.808 29.7789 65.535 30.3319 65.227 31.0739L60.103 43.2749H59.725L54.601 31.0739C54.293 30.3319 54.013 29.7789 53.761 29.4149C53.523 29.0509 53.152 28.8129 52.648 28.7009V28.3649ZM66.4572 37.8989C66.4572 36.7649 66.6672 35.7779 67.0872 34.9379C67.5072 34.0839 68.0952 33.4189 68.8512 32.9429C69.6072 32.4669 70.4822 32.2289 71.4762 32.2289C72.7642 32.2289 73.7932 32.6489 74.5632 33.4889C75.3332 34.3149 75.7882 35.5049 75.9282 37.0589H68.3472C68.3472 38.5849 68.7042 39.7749 69.4182 40.6289C70.1322 41.4689 71.1332 41.8889 72.4212 41.8889C73.6812 41.8889 74.6472 41.4409 75.3192 40.5449L75.6552 40.7339C74.8572 42.5119 73.4642 43.4009 71.4762 43.4009C70.4682 43.4009 69.5862 43.1769 68.8302 42.7289C68.0742 42.2669 67.4862 41.6229 67.0662 40.7969C66.6602 39.9709 66.4572 39.0049 66.4572 37.8989ZM73.7652 36.3029C73.6952 35.2669 73.4222 34.4549 72.9462 33.8669C72.4842 33.2789 71.8682 32.9849 71.0982 32.9849C70.3282 32.9849 69.7052 33.2789 69.2292 33.8669C68.7532 34.4549 68.4732 35.2669 68.3892 36.3029H73.7652ZM77.4284 42.7289C78.0024 42.5749 78.4014 42.3299 78.6254 41.9939C78.8634 41.6439 78.9824 41.1119 78.9824 40.3979V35.6309C78.9824 34.8889 78.8634 34.3429 78.6254 33.9929C78.4014 33.6429 78.0024 33.3979 77.4284 33.2579V32.9219L80.4734 32.4389C80.6834 32.8309 80.8024 33.2019 80.8304 33.5519C81.7264 32.6699 82.8674 32.2289 84.2534 32.2289C85.5414 32.2289 86.5284 32.5719 87.2144 33.2579C87.9004 33.9439 88.2434 34.9309 88.2434 36.2189V40.3979C88.2434 41.1119 88.3554 41.6439 88.5794 41.9939C88.8174 42.3299 89.2234 42.5749 89.7974 42.7289V43.0649H84.7154V42.7289C85.2894 42.5749 85.6884 42.3299 85.9124 41.9939C86.1504 41.6439 86.2694 41.1119 86.2694 40.3979V36.0929C86.2694 35.1409 86.0524 34.3989 85.6184 33.8669C85.1844 33.3349 84.5754 33.0689 83.7914 33.0689C82.9234 33.0689 82.2304 33.3839 81.7124 34.0139C81.2084 34.6299 80.9564 35.4629 80.9564 36.5129V40.3979C80.9564 41.1119 81.0684 41.6439 81.2924 41.9939C81.5304 42.3299 81.9364 42.5749 82.5104 42.7289V43.0649H77.4284V42.7289ZM90.649 32.5649H92.203V30.4649L94.03 30.1709L94.261 30.4019C94.205 30.7939 94.177 31.2279 94.177 31.7039V32.5649H97.516V33.3209H94.177V40.2299C94.177 41.5039 94.709 42.1409 95.773 42.1409C96.403 42.1409 96.942 41.8469 97.39 41.2589L97.726 41.4479C97.166 42.7499 96.235 43.4009 94.933 43.4009C93.113 43.4009 92.203 42.3299 92.203 40.1879V33.3209H90.649V32.5649ZM100.652 39.4109V35.6729C100.652 34.9309 100.533 34.3849 100.295 34.0349C100.071 33.6849 99.6717 33.4399 99.0977 33.2999V32.9639L102.479 32.4389L102.71 32.6699C102.654 33.0619 102.626 33.4959 102.626 33.9719V39.5369C102.626 40.4889 102.829 41.2309 103.235 41.7629C103.641 42.2949 104.208 42.5609 104.936 42.5609C105.44 42.5609 105.909 42.4349 106.343 42.1829C106.777 41.9309 107.12 41.5669 107.372 41.0909C107.638 40.6149 107.771 40.0479 107.771 39.3899V34.7699C107.771 34.2659 107.687 33.9089 107.519 33.6989C107.365 33.4889 107.008 33.3349 106.448 33.2369V32.9219L109.64 32.4389L109.829 32.6279C109.773 33.0899 109.745 33.5589 109.745 34.0349V40.3979C109.745 41.1119 109.857 41.6439 110.081 41.9939C110.319 42.3299 110.725 42.5749 111.299 42.7289V43.0649L108.254 43.2749C108.016 42.8269 107.89 42.3789 107.876 41.9309C106.994 42.9109 105.86 43.4009 104.474 43.4009C103.242 43.4009 102.297 43.0579 101.639 42.3719C100.981 41.6719 100.652 40.6849 100.652 39.4109ZM112.456 42.7289C113.03 42.5749 113.429 42.3299 113.653 41.9939C113.891 41.6439 114.01 41.1189 114.01 40.4189V35.5889C114.01 34.8749 113.891 34.3429 113.653 33.9929C113.429 33.6429 113.03 33.3979 112.456 33.2579V32.9219L115.501 32.4389C115.627 32.6769 115.718 32.8939 115.774 33.0899C115.83 33.2859 115.865 33.5239 115.879 33.8039C116.201 33.3139 116.593 32.9289 117.055 32.6489C117.531 32.3689 118.049 32.2289 118.609 32.2289C119.393 32.2289 120.086 32.4809 120.688 32.9849L120.814 35.9039L120.457 35.9879C120.023 34.9939 119.61 34.2869 119.218 33.8669C118.826 33.4469 118.385 33.2369 117.895 33.2369C117.293 33.2369 116.824 33.5169 116.488 34.0769C116.152 34.6369 115.984 35.4279 115.984 36.4499V40.4189C115.984 41.1749 116.124 41.7139 116.404 42.0359C116.684 42.3579 117.202 42.5749 117.958 42.6869V43.0649H112.456V42.7289ZM121.972 37.8989C121.972 36.7649 122.182 35.7779 122.602 34.9379C123.022 34.0839 123.61 33.4189 124.366 32.9429C125.122 32.4669 125.997 32.2289 126.991 32.2289C128.279 32.2289 129.308 32.6489 130.078 33.4889C130.848 34.3149 131.303 35.5049 131.443 37.0589H123.862C123.862 38.5849 124.219 39.7749 124.933 40.6289C125.647 41.4689 126.648 41.8889 127.936 41.8889C129.196 41.8889 130.162 41.4409 130.834 40.5449L131.17 40.7339C130.372 42.5119 128.979 43.4009 126.991 43.4009C125.983 43.4009 125.101 43.1769 124.345 42.7289C123.589 42.2669 123.001 41.6229 122.581 40.7969C122.175 39.9709 121.972 39.0049 121.972 37.8989ZM129.28 36.3029C129.21 35.2669 128.937 34.4549 128.461 33.8669C127.999 33.2789 127.383 32.9849 126.613 32.9849C125.843 32.9849 125.22 33.2789 124.744 33.8669C124.268 34.4549 123.988 35.2669 123.904 36.3029H129.28ZM146.215 42.7289C146.789 42.5469 147.118 42.2669 147.202 41.8889C147.3 41.5109 147.146 41.0069 146.74 40.3769L144.262 36.4499L141.679 40.3769C140.853 41.6229 140.958 42.4069 141.994 42.7289V43.0649H137.899V42.7289C138.865 42.4209 139.712 41.7419 140.44 40.6919L143.8 35.7149L140.545 30.5699C140.223 30.0519 139.887 29.6389 139.537 29.3309C139.201 29.0229 138.781 28.8129 138.277 28.7009V28.3649H143.821V28.7009C143.121 28.8549 142.743 29.1209 142.687 29.4989C142.645 29.8629 142.841 30.3809 143.275 31.0529L145.396 34.3919L147.601 31.0529C148.091 30.3249 148.308 29.7719 148.252 29.3939C148.21 29.0159 147.818 28.7849 147.076 28.7009V28.3649H151.402V28.7009C151.066 28.7709 150.772 28.8689 150.52 28.9949C150.268 29.1209 150.016 29.3169 149.764 29.5829C149.512 29.8489 149.211 30.2339 148.861 30.7379L145.858 35.1269L149.512 40.8599C149.834 41.3779 150.163 41.7769 150.499 42.0569C150.849 42.3229 151.276 42.5469 151.78 42.7289V43.0649H146.215V42.7289ZM158.314 42.6869C158.916 42.5329 159.336 42.2739 159.574 41.9099C159.826 41.5459 159.952 40.9929 159.952 40.2509V31.1789C159.952 30.4369 159.826 29.8839 159.574 29.5199C159.336 29.1559 158.916 28.8969 158.314 28.7429V28.3649H163.585C165.461 28.3649 166.917 28.6799 167.953 29.3099C168.989 29.9399 169.507 30.8219 169.507 31.9559C169.507 32.7679 169.234 33.4539 168.688 34.0139C168.142 34.5739 167.358 34.9869 166.336 35.2529C167.638 35.4629 168.646 35.8969 169.36 36.5549C170.074 37.1989 170.431 38.0249 170.431 39.0329C170.431 40.3069 169.864 41.3009 168.73 42.0149C167.596 42.7149 166.007 43.0649 163.963 43.0649H158.314V42.6869ZM162.052 40.1669C162.052 40.8949 162.178 41.4269 162.43 41.7629C162.682 42.0989 163.088 42.2669 163.648 42.2669H164.278C165.482 42.2669 166.434 42.0149 167.134 41.5109C167.848 41.0069 168.205 40.2649 168.205 39.2849C168.205 38.2489 167.82 37.4229 167.05 36.8069C166.28 36.1769 165.251 35.8619 163.963 35.8619H162.052V40.1669ZM167.344 32.3129C167.344 31.3609 166.959 30.5979 166.189 30.0239C165.419 29.4499 164.39 29.1629 163.102 29.1629H162.052V35.0639H163.018C164.432 35.0639 165.503 34.8329 166.231 34.3709C166.973 33.8949 167.344 33.2089 167.344 32.3129ZM172.716 39.4109V35.6729C172.716 34.9309 172.597 34.3849 172.359 34.0349C172.135 33.6849 171.736 33.4399 171.162 33.2999V32.9639L174.543 32.4389L174.774 32.6699C174.718 33.0619 174.69 33.4959 174.69 33.9719V39.5369C174.69 40.4889 174.893 41.2309 175.299 41.7629C175.705 42.2949 176.272 42.5609 177 42.5609C177.504 42.5609 177.973 42.4349 178.407 42.1829C178.841 41.9309 179.184 41.5669 179.436 41.0909C179.702 40.6149 179.835 40.0479 179.835 39.3899V34.7699C179.835 34.2659 179.751 33.9089 179.583 33.6989C179.429 33.4889 179.072 33.3349 178.512 33.2369V32.9219L181.704 32.4389L181.893 32.6279C181.837 33.0899 181.809 33.5589 181.809 34.0349V40.3979C181.809 41.1119 181.921 41.6439 182.145 41.9939C182.383 42.3299 182.789 42.5749 183.363 42.7289V43.0649L180.318 43.2749C180.08 42.8269 179.954 42.3789 179.94 41.9309C179.058 42.9109 177.924 43.4009 176.538 43.4009C175.306 43.4009 174.361 43.0579 173.703 42.3719C173.045 41.6719 172.716 40.6849 172.716 39.4109ZM190.946 40.9439C190.946 40.4259 190.75 39.9919 190.358 39.6419C189.966 39.2919 189.294 38.9279 188.342 38.5499C187.068 38.0319 186.165 37.5139 185.633 36.9959C185.101 36.4639 184.835 35.8549 184.835 35.1689C184.835 34.2729 185.185 33.5589 185.885 33.0269C186.599 32.4949 187.551 32.2289 188.741 32.2289C189.315 32.2289 189.91 32.2989 190.526 32.4389C191.142 32.5649 191.716 32.7469 192.248 32.9849L192.584 35.7779L192.227 35.8829C191.751 34.9449 191.191 34.2309 190.547 33.7409C189.903 33.2369 189.217 32.9849 188.489 32.9849C187.929 32.9849 187.488 33.1249 187.166 33.4049C186.858 33.6709 186.704 34.0279 186.704 34.4759C186.704 34.9379 186.9 35.3369 187.292 35.6729C187.684 35.9949 188.37 36.3519 189.35 36.7439C190.638 37.2619 191.534 37.7659 192.038 38.2559C192.556 38.7459 192.815 39.3479 192.815 40.0619C192.815 40.7059 192.64 41.2799 192.29 41.7839C191.954 42.2879 191.478 42.6869 190.862 42.9809C190.26 43.2609 189.553 43.4009 188.741 43.4009C188.181 43.4009 187.586 43.3239 186.956 43.1699C186.326 43.0299 185.696 42.8199 185.066 42.5399L184.73 39.7469L185.087 39.6419C185.563 40.5939 186.144 41.3359 186.83 41.8679C187.53 42.3859 188.265 42.6449 189.035 42.6449C189.637 42.6449 190.106 42.4909 190.442 42.1829C190.778 41.8749 190.946 41.4619 190.946 40.9439ZM194.487 42.7289C195.061 42.5749 195.46 42.3299 195.684 41.9939C195.922 41.6439 196.041 41.1119 196.041 40.3979V35.6309C196.041 34.8889 195.922 34.3429 195.684 33.9929C195.46 33.6429 195.061 33.3979 194.487 33.2579V32.9219L197.868 32.4389L198.099 32.6699C198.071 32.8939 198.05 33.1109 198.036 33.3209C198.022 33.5169 198.015 33.7339 198.015 33.9719V40.3979C198.015 41.1119 198.127 41.6439 198.351 41.9939C198.589 42.3299 198.995 42.5749 199.569 42.7289V43.0649H194.487V42.7289ZM195.516 29.0159C195.516 28.6099 195.642 28.2809 195.894 28.0289C196.16 27.7769 196.489 27.6509 196.881 27.6509C197.287 27.6509 197.616 27.7769 197.868 28.0289C198.12 28.2809 198.246 28.6099 198.246 29.0159C198.246 29.4079 198.12 29.7369 197.868 30.0029C197.616 30.2549 197.287 30.3809 196.881 30.3809C196.489 30.3809 196.16 30.2549 195.894 30.0029C195.642 29.7369 195.516 29.4079 195.516 29.0159ZM200.721 42.7289C201.295 42.5749 201.694 42.3299 201.918 41.9939C202.156 41.6439 202.275 41.1119 202.275 40.3979V35.6309C202.275 34.8889 202.156 34.3429 201.918 33.9929C201.694 33.6429 201.295 33.3979 200.721 33.2579V32.9219L203.766 32.4389C203.976 32.8309 204.095 33.2019 204.123 33.5519C205.019 32.6699 206.16 32.2289 207.546 32.2289C208.834 32.2289 209.821 32.5719 210.507 33.2579C211.193 33.9439 211.536 34.9309 211.536 36.2189V40.3979C211.536 41.1119 211.648 41.6439 211.872 41.9939C212.11 42.3299 212.516 42.5749 213.09 42.7289V43.0649H208.008V42.7289C208.582 42.5749 208.981 42.3299 209.205 41.9939C209.443 41.6439 209.562 41.1119 209.562 40.3979V36.0929C209.562 35.1409 209.345 34.3989 208.911 33.8669C208.477 33.3349 207.868 33.0689 207.084 33.0689C206.216 33.0689 205.523 33.3839 205.005 34.0139C204.501 34.6299 204.249 35.4629 204.249 36.5129V40.3979C204.249 41.1119 204.361 41.6439 204.585 41.9939C204.823 42.3299 205.229 42.5749 205.803 42.7289V43.0649H200.721V42.7289ZM214.257 37.8989C214.257 36.7649 214.467 35.7779 214.887 34.9379C215.307 34.0839 215.895 33.4189 216.651 32.9429C217.407 32.4669 218.282 32.2289 219.276 32.2289C220.564 32.2289 221.593 32.6489 222.363 33.4889C223.133 34.3149 223.588 35.5049 223.728 37.0589H216.147C216.147 38.5849 216.504 39.7749 217.218 40.6289C217.932 41.4689 218.933 41.8889 220.221 41.8889C221.481 41.8889 222.447 41.4409 223.119 40.5449L223.455 40.7339C222.657 42.5119 221.264 43.4009 219.276 43.4009C218.268 43.4009 217.386 43.1769 216.63 42.7289C215.874 42.2669 215.286 41.6229 214.866 40.7969C214.46 39.9709 214.257 39.0049 214.257 37.8989ZM221.565 36.3029C221.495 35.2669 221.222 34.4549 220.746 33.8669C220.284 33.2789 219.668 32.9849 218.898 32.9849C218.128 32.9849 217.505 33.2789 217.029 33.8669C216.553 34.4549 216.273 35.2669 216.189 36.3029H221.565ZM231.654 40.9439C231.654 40.4259 231.458 39.9919 231.066 39.6419C230.674 39.2919 230.002 38.9279 229.05 38.5499C227.776 38.0319 226.873 37.5139 226.341 36.9959C225.809 36.4639 225.543 35.8549 225.543 35.1689C225.543 34.2729 225.893 33.5589 226.593 33.0269C227.307 32.4949 228.259 32.2289 229.449 32.2289C230.023 32.2289 230.618 32.2989 231.234 32.4389C231.85 32.5649 232.424 32.7469 232.956 32.9849L233.292 35.7779L232.935 35.8829C232.459 34.9449 231.899 34.2309 231.255 33.7409C230.611 33.2369 229.925 32.9849 229.197 32.9849C228.637 32.9849 228.196 33.1249 227.874 33.4049C227.566 33.6709 227.412 34.0279 227.412 34.4759C227.412 34.9379 227.608 35.3369 228 35.6729C228.392 35.9949 229.078 36.3519 230.058 36.7439C231.346 37.2619 232.242 37.7659 232.746 38.2559C233.264 38.7459 233.523 39.3479 233.523 40.0619C233.523 40.7059 233.348 41.2799 232.998 41.7839C232.662 42.2879 232.186 42.6869 231.57 42.9809C230.968 43.2609 230.261 43.4009 229.449 43.4009C228.889 43.4009 228.294 43.3239 227.664 43.1699C227.034 43.0299 226.404 42.8199 225.774 42.5399L225.438 39.7469L225.795 39.6419C226.271 40.5939 226.852 41.3359 227.538 41.8679C228.238 42.3859 228.973 42.6449 229.743 42.6449C230.345 42.6449 230.814 42.4909 231.15 42.1829C231.486 41.8749 231.654 41.4619 231.654 40.9439ZM241.621 40.9439C241.621 40.4259 241.425 39.9919 241.033 39.6419C240.641 39.2919 239.969 38.9279 239.017 38.5499C237.743 38.0319 236.84 37.5139 236.308 36.9959C235.776 36.4639 235.51 35.8549 235.51 35.1689C235.51 34.2729 235.86 33.5589 236.56 33.0269C237.274 32.4949 238.226 32.2289 239.416 32.2289C239.99 32.2289 240.585 32.2989 241.201 32.4389C241.817 32.5649 242.391 32.7469 242.923 32.9849L243.259 35.7779L242.902 35.8829C242.426 34.9449 241.866 34.2309 241.222 33.7409C240.578 33.2369 239.892 32.9849 239.164 32.9849C238.604 32.9849 238.163 33.1249 237.841 33.4049C237.533 33.6709 237.379 34.0279 237.379 34.4759C237.379 34.9379 237.575 35.3369 237.967 35.6729C238.359 35.9949 239.045 36.3519 240.025 36.7439C241.313 37.2619 242.209 37.7659 242.713 38.2559C243.231 38.7459 243.49 39.3479 243.49 40.0619C243.49 40.7059 243.315 41.2799 242.965 41.7839C242.629 42.2879 242.153 42.6869 241.537 42.9809C240.935 43.2609 240.228 43.4009 239.416 43.4009C238.856 43.4009 238.261 43.3239 237.631 43.1699C237.001 43.0299 236.371 42.8199 235.741 42.5399L235.405 39.7469L235.762 39.6419C236.238 40.5939 236.819 41.3359 237.505 41.8679C238.205 42.3859 238.94 42.6449 239.71 42.6449C240.312 42.6449 240.781 42.4909 241.117 42.1829C241.453 41.8749 241.621 41.4619 241.621 40.9439ZM245.603 41.8259C245.603 41.4059 245.736 41.0629 246.002 40.7969C246.282 40.5169 246.632 40.3769 247.052 40.3769C247.472 40.3769 247.815 40.5169 248.081 40.7969C248.361 41.0629 248.501 41.4059 248.501 41.8259C248.501 42.2459 248.361 42.5959 248.081 42.8759C247.815 43.1419 247.472 43.2749 247.052 43.2749C246.632 43.2749 246.282 43.1419 246.002 42.8759C245.736 42.5959 245.603 42.2459 245.603 41.8259ZM0.588047 83.6869C1.19005 83.5329 1.61005 83.2739 1.84805 82.9099C2.10005 82.5459 2.22605 81.9929 2.22605 81.2509V72.1789C2.22605 71.4369 2.10005 70.8839 1.84805 70.5199C1.61005 70.1559 1.19005 69.8969 0.588047 69.7429V69.3649H6.00605V69.7429C5.40405 69.8969 4.97705 70.1559 4.72505 70.5199C4.48705 70.8839 4.36805 71.4369 4.36805 72.1789V81.2509C4.36805 81.9929 4.48705 82.5459 4.72505 82.9099C4.97705 83.2739 5.40405 83.5329 6.00605 83.6869V84.0649H0.588047V83.6869ZM7.28475 73.5649H8.83875V71.4649L10.6658 71.1709L10.8968 71.4019C10.8408 71.7939 10.8128 72.2279 10.8128 72.7039V73.5649H14.1518V74.3209H10.8128V81.2299C10.8128 82.5039 11.3448 83.1409 12.4088 83.1409C13.0388 83.1409 13.5778 82.8469 14.0258 82.2589L14.3618 82.4479C13.8018 83.7499 12.8708 84.4009 11.5688 84.4009C9.74875 84.4009 8.83875 83.3299 8.83875 81.1879V74.3209H7.28475V73.5649ZM18.2115 72.5989C18.2115 72.0809 18.0645 71.6819 17.7705 71.4019C17.4765 71.1219 17.0565 70.9819 16.5105 70.9819C16.4125 70.4639 16.4965 70.0299 16.7625 69.6799C17.0425 69.3299 17.4415 69.1549 17.9595 69.1549C18.5195 69.1549 18.9605 69.3579 19.2825 69.7639C19.6185 70.1699 19.7865 70.7159 19.7865 71.4019C19.7865 72.2279 19.5275 72.9979 19.0095 73.7119C18.5055 74.4259 17.7985 75.0209 16.8885 75.4969L16.6995 75.1189C17.1895 74.7829 17.5605 74.4049 17.8125 73.9849C18.0785 73.5509 18.2115 73.0889 18.2115 72.5989ZM27.7245 81.9439C27.7245 81.4259 27.5285 80.9919 27.1365 80.6419C26.7445 80.2919 26.0725 79.9279 25.1205 79.5499C23.8465 79.0319 22.9435 78.5139 22.4115 77.9959C21.8795 77.4639 21.6135 76.8549 21.6135 76.1689C21.6135 75.2729 21.9635 74.5589 22.6635 74.0269C23.3775 73.4949 24.3295 73.2289 25.5195 73.2289C26.0935 73.2289 26.6885 73.2989 27.3045 73.4389C27.9205 73.5649 28.4945 73.7469 29.0265 73.9849L29.3625 76.7779L29.0055 76.8829C28.5295 75.9449 27.9695 75.2309 27.3255 74.7409C26.6815 74.2369 25.9955 73.9849 25.2675 73.9849C24.7075 73.9849 24.2665 74.1249 23.9445 74.4049C23.6365 74.6709 23.4825 75.0279 23.4825 75.4759C23.4825 75.9379 23.6785 76.3369 24.0705 76.6729C24.4625 76.9949 25.1485 77.3519 26.1285 77.7439C27.4165 78.2619 28.3125 78.7659 28.8165 79.2559C29.3345 79.7459 29.5935 80.3479 29.5935 81.0619C29.5935 81.7059 29.4185 82.2799 29.0685 82.7839C28.7325 83.2879 28.2565 83.6869 27.6405 83.9809C27.0385 84.2609 26.3315 84.4009 25.5195 84.4009C24.9595 84.4009 24.3645 84.3239 23.7345 84.1699C23.1045 84.0299 22.4745 83.8199 21.8445 83.5399L21.5085 80.7469L21.8655 80.6419C22.3415 81.5939 22.9225 82.3359 23.6085 82.8679C24.3085 83.3859 25.0435 83.6449 25.8135 83.6449C26.4155 83.6449 26.8845 83.4909 27.2205 83.1829C27.5565 82.8749 27.7245 82.4619 27.7245 81.9439ZM36.9563 81.6289C36.9563 80.9429 37.1733 80.3409 37.6073 79.8229C38.0413 79.3049 38.6503 78.9059 39.4343 78.6259C40.2183 78.3319 41.1283 78.1849 42.1643 78.1849C42.6823 78.1849 43.2073 78.2199 43.7393 78.2899V76.9459C43.7393 76.0219 43.5293 75.3009 43.1093 74.7829C42.7033 74.2509 42.1363 73.9849 41.4083 73.9849C40.0223 73.9849 38.8533 74.9859 37.9013 76.9879L37.5443 76.8829L37.8803 73.9849C39.1403 73.4809 40.3653 73.2289 41.5553 73.2289C42.8853 73.2289 43.9073 73.5649 44.6213 74.2369C45.3493 74.8949 45.7133 75.8469 45.7133 77.0929V82.2169C45.7133 82.9449 46.0003 83.3089 46.5743 83.3089C46.7843 83.3089 46.9733 83.2319 47.1413 83.0779L47.4143 83.2879C46.9803 83.9459 46.3853 84.2749 45.6293 84.2749C44.7613 84.2749 44.1943 83.8689 43.9283 83.0569C43.0883 83.9529 42.0033 84.4009 40.6733 84.4009C39.5253 84.4009 38.6153 84.1559 37.9433 83.6659C37.2853 83.1619 36.9563 82.4829 36.9563 81.6289ZM39.0143 81.3769C39.0143 82.0629 39.2243 82.6019 39.6443 82.9939C40.0783 83.3859 40.6383 83.5819 41.3243 83.5819C42.0103 83.5819 42.5843 83.3019 43.0463 82.7419C43.5083 82.1819 43.7393 81.3419 43.7393 80.2219V79.0249C43.5153 78.9969 43.2983 78.9759 43.0883 78.9619C42.8923 78.9479 42.6963 78.9409 42.5003 78.9409C41.3943 78.9409 40.5333 79.1579 39.9173 79.5919C39.3153 80.0119 39.0143 80.6069 39.0143 81.3769ZM53.5563 86.2909C53.5563 85.2409 54.2073 84.4289 55.5093 83.8549C55.1453 83.7149 54.8723 83.5119 54.6903 83.2459C54.5223 82.9799 54.4383 82.6789 54.4383 82.3429C54.4383 82.0629 54.5153 81.7759 54.6693 81.4819C54.8233 81.1879 55.0263 80.9009 55.2783 80.6209L55.6563 80.2009C55.1103 79.8649 54.6833 79.4309 54.3753 78.8989C54.0673 78.3529 53.9133 77.7369 53.9133 77.0509C53.9133 76.2949 54.1023 75.6299 54.4803 75.0559C54.8583 74.4819 55.3833 74.0339 56.0553 73.7119C56.7273 73.3899 57.5043 73.2289 58.3863 73.2289C59.1143 73.2289 59.7793 73.3409 60.3813 73.5649H63.6573V74.3209H61.6623C62.0403 74.6569 62.3343 75.0629 62.5443 75.5389C62.7543 76.0009 62.8593 76.5119 62.8593 77.0719C62.8593 77.8279 62.6703 78.4929 62.2923 79.0669C61.9143 79.6409 61.3893 80.0889 60.7173 80.4109C60.0593 80.7329 59.2823 80.8939 58.3863 80.8939C57.6443 80.8939 56.9653 80.7749 56.3493 80.5369L55.9713 80.9779C55.7473 81.2159 55.6353 81.4259 55.6353 81.6079C55.6353 81.9299 55.9573 82.1259 56.6013 82.1959L60.3603 82.5319C61.4943 82.6299 62.3553 82.9239 62.9433 83.4139C63.5313 83.8899 63.8253 84.5339 63.8253 85.3459C63.8253 86.0879 63.5873 86.7319 63.1113 87.2779C62.6493 87.8379 61.9913 88.2649 61.1373 88.5589C60.2973 88.8529 59.3103 88.9999 58.1763 88.9999C56.7343 88.9999 55.6003 88.7549 54.7743 88.2649C53.9623 87.7889 53.5563 87.1309 53.5563 86.2909ZM55.8663 76.8409C55.8663 77.8209 56.1183 78.6189 56.6223 79.2349C57.1263 79.8369 57.7773 80.1379 58.5753 80.1379C59.2893 80.1379 59.8563 79.8789 60.2763 79.3609C60.6963 78.8429 60.9063 78.1499 60.9063 77.2819C60.9063 76.3019 60.6543 75.5109 60.1503 74.9089C59.6463 74.2929 58.9953 73.9849 58.1973 73.9849C57.4833 73.9849 56.9163 74.2439 56.4963 74.7619C56.0763 75.2799 55.8663 75.9729 55.8663 76.8409ZM55.0263 85.8919C55.0263 86.6619 55.3343 87.2429 55.9503 87.6349C56.5803 88.0409 57.4413 88.2439 58.5333 88.2439C59.6533 88.2439 60.5283 88.0409 61.1583 87.6349C61.8023 87.2289 62.1243 86.6759 62.1243 85.9759C62.1243 85.4439 61.9143 85.0519 61.4943 84.7999C61.0743 84.5479 60.3323 84.3729 59.2683 84.2749L56.3913 84.0229C55.4813 84.4569 55.0263 85.0799 55.0263 85.8919ZM65.0211 83.7289C65.5951 83.5749 65.9941 83.3299 66.2181 82.9939C66.4561 82.6439 66.5751 82.1189 66.5751 81.4189V76.5889C66.5751 75.8749 66.4561 75.3429 66.2181 74.9929C65.9941 74.6429 65.5951 74.3979 65.0211 74.2579V73.9219L68.0661 73.4389C68.1921 73.6769 68.2831 73.8939 68.3391 74.0899C68.3951 74.2859 68.4301 74.5239 68.4441 74.8039C68.7661 74.3139 69.1581 73.9289 69.6201 73.6489C70.0961 73.3689 70.6141 73.2289 71.1741 73.2289C71.9581 73.2289 72.6511 73.4809 73.2531 73.9849L73.3791 76.9039L73.0221 76.9879C72.5881 75.9939 72.1751 75.2869 71.7831 74.8669C71.3911 74.4469 70.9501 74.2369 70.4601 74.2369C69.8581 74.2369 69.3891 74.5169 69.0531 75.0769C68.7171 75.6369 68.5491 76.4279 68.5491 77.4499V81.4189C68.5491 82.1749 68.6891 82.7139 68.9691 83.0359C69.2491 83.3579 69.7671 83.5749 70.5231 83.6869V84.0649H65.0211V83.7289ZM74.5373 78.8989C74.5373 77.7649 74.7473 76.7779 75.1672 75.9379C75.5873 75.0839 76.1753 74.4189 76.9313 73.9429C77.6873 73.4669 78.5623 73.2289 79.5563 73.2289C80.8443 73.2289 81.8733 73.6489 82.6433 74.4889C83.4133 75.3149 83.8683 76.5049 84.0083 78.0589H76.4273C76.4273 79.5849 76.7843 80.7749 77.4983 81.6289C78.2123 82.4689 79.2133 82.8889 80.5013 82.8889C81.7613 82.8889 82.7273 82.4409 83.3993 81.5449L83.7353 81.7339C82.9373 83.5119 81.5443 84.4009 79.5563 84.4009C78.5483 84.4009 77.6663 84.1769 76.9103 83.7289C76.1543 83.2669 75.5663 82.6229 75.1463 81.7969C74.7403 80.9709 74.5373 80.0049 74.5373 78.8989ZM81.8453 77.3029C81.7753 76.2669 81.5023 75.4549 81.0263 74.8669C80.5643 74.2789 79.9483 73.9849 79.1782 73.9849C78.4083 73.9849 77.7853 74.2789 77.3093 74.8669C76.8333 75.4549 76.5533 76.2669 76.4693 77.3029H81.8453ZM85.9494 81.6289C85.9494 80.9429 86.1664 80.3409 86.6004 79.8229C87.0344 79.3049 87.6434 78.9059 88.4274 78.6259C89.2114 78.3319 90.1214 78.1849 91.1574 78.1849C91.6754 78.1849 92.2004 78.2199 92.7324 78.2899V76.9459C92.7324 76.0219 92.5224 75.3009 92.1024 74.7829C91.6964 74.2509 91.1294 73.9849 90.4014 73.9849C89.0154 73.9849 87.8464 74.9859 86.8944 76.9879L86.5374 76.8829L86.8734 73.9849C88.1334 73.4809 89.3584 73.2289 90.5484 73.2289C91.8784 73.2289 92.9004 73.5649 93.6144 74.2369C94.3424 74.8949 94.7064 75.8469 94.7064 77.0929V82.2169C94.7064 82.9449 94.9934 83.3089 95.5674 83.3089C95.7774 83.3089 95.9664 83.2319 96.1344 83.0779L96.4074 83.2879C95.9734 83.9459 95.3784 84.2749 94.6224 84.2749C93.7544 84.2749 93.1874 83.8689 92.9214 83.0569C92.0814 83.9529 90.9964 84.4009 89.6664 84.4009C88.5184 84.4009 87.6084 84.1559 86.9364 83.6659C86.2784 83.1619 85.9494 82.4829 85.9494 81.6289ZM88.0074 81.3769C88.0074 82.0629 88.2174 82.6019 88.6374 82.9939C89.0714 83.3859 89.6314 83.5819 90.3174 83.5819C91.0034 83.5819 91.5774 83.3019 92.0394 82.7419C92.5014 82.1819 92.7324 81.3419 92.7324 80.2219V79.0249C92.5084 78.9969 92.2914 78.9759 92.0814 78.9619C91.8854 78.9479 91.6894 78.9409 91.4934 78.9409C90.3874 78.9409 89.5264 79.1579 88.9104 79.5919C88.3084 80.0119 88.0074 80.6069 88.0074 81.3769ZM97.0474 73.5649H98.6014V71.4649L100.428 71.1709L100.659 71.4019C100.603 71.7939 100.575 72.2279 100.575 72.7039V73.5649H103.914V74.3209H100.575V81.2299C100.575 82.5039 101.107 83.1409 102.171 83.1409C102.801 83.1409 103.34 82.8469 103.788 82.2589L104.124 82.4479C103.564 83.7499 102.633 84.4009 101.331 84.4009C99.5114 84.4009 98.6014 83.3299 98.6014 81.1879V74.3209H97.0474V73.5649ZM111.082 78.8779C111.082 77.7299 111.299 76.7359 111.733 75.8959C112.181 75.0419 112.804 74.3839 113.602 73.9219C114.414 73.4599 115.366 73.2289 116.458 73.2289C117.466 73.2289 118.558 73.4389 119.734 73.8589L120.049 76.9249L119.692 77.0089C118.88 74.9789 117.725 73.9639 116.227 73.9639C115.247 73.9639 114.456 74.3489 113.854 75.1189C113.266 75.8889 112.972 76.9179 112.972 78.2059C112.972 79.6339 113.35 80.7749 114.106 81.6289C114.862 82.4689 115.87 82.8889 117.13 82.8889C118.32 82.8889 119.258 82.4409 119.944 81.5449L120.28 81.7339C119.482 83.5119 118.089 84.4009 116.101 84.4009C115.093 84.4009 114.211 84.1769 113.455 83.7289C112.699 83.2669 112.111 82.6229 111.691 81.7969C111.285 80.9569 111.082 79.9839 111.082 78.8779ZM122.371 81.6289C122.371 80.9429 122.588 80.3409 123.022 79.8229C123.456 79.3049 124.065 78.9059 124.849 78.6259C125.633 78.3319 126.543 78.1849 127.579 78.1849C128.097 78.1849 128.622 78.2199 129.154 78.2899V76.9459C129.154 76.0219 128.944 75.3009 128.524 74.7829C128.118 74.2509 127.551 73.9849 126.823 73.9849C125.437 73.9849 124.268 74.9859 123.316 76.9879L122.959 76.8829L123.295 73.9849C124.555 73.4809 125.78 73.2289 126.97 73.2289C128.3 73.2289 129.322 73.5649 130.036 74.2369C130.764 74.8949 131.128 75.8469 131.128 77.0929V82.2169C131.128 82.9449 131.415 83.3089 131.989 83.3089C132.199 83.3089 132.388 83.2319 132.556 83.0779L132.829 83.2879C132.395 83.9459 131.8 84.2749 131.044 84.2749C130.176 84.2749 129.609 83.8689 129.343 83.0569C128.503 83.9529 127.418 84.4009 126.088 84.4009C124.94 84.4009 124.03 84.1559 123.358 83.6659C122.7 83.1619 122.371 82.4829 122.371 81.6289ZM124.429 81.3769C124.429 82.0629 124.639 82.6019 125.059 82.9939C125.493 83.3859 126.053 83.5819 126.739 83.5819C127.425 83.5819 127.999 83.3019 128.461 82.7419C128.923 82.1819 129.154 81.3419 129.154 80.2219V79.0249C128.93 78.9969 128.713 78.9759 128.503 78.9619C128.307 78.9479 128.111 78.9409 127.915 78.9409C126.809 78.9409 125.948 79.1579 125.332 79.5919C124.73 80.0119 124.429 80.6069 124.429 81.3769ZM133.469 73.5649H135.023V71.4649L136.85 71.1709L137.081 71.4019C137.025 71.7939 136.997 72.2279 136.997 72.7039V73.5649H140.336V74.3209H136.997V81.2299C136.997 82.5039 137.529 83.1409 138.593 83.1409C139.223 83.1409 139.762 82.8469 140.21 82.2589L140.546 82.4479C139.986 83.7499 139.055 84.4009 137.753 84.4009C135.933 84.4009 135.023 83.3299 135.023 81.1879V74.3209H133.469V73.5649ZM142.049 78.8779C142.049 77.7299 142.266 76.7359 142.7 75.8959C143.148 75.0419 143.771 74.3839 144.569 73.9219C145.381 73.4599 146.333 73.2289 147.425 73.2289C148.433 73.2289 149.525 73.4389 150.701 73.8589L151.016 76.9249L150.659 77.0089C149.847 74.9789 148.692 73.9639 147.194 73.9639C146.214 73.9639 145.423 74.3489 144.821 75.1189C144.233 75.8889 143.939 76.9179 143.939 78.2059C143.939 79.6339 144.317 80.7749 145.073 81.6289C145.829 82.4689 146.837 82.8889 148.097 82.8889C149.287 82.8889 150.225 82.4409 150.911 81.5449L151.247 81.7339C150.449 83.5119 149.056 84.4009 147.068 84.4009C146.06 84.4009 145.178 84.1769 144.422 83.7289C143.666 83.2669 143.078 82.6229 142.658 81.7969C142.252 80.9569 142.049 79.9839 142.049 78.8779ZM152.792 83.7289C153.366 83.5749 153.765 83.3229 153.989 82.9729C154.227 82.6229 154.346 82.0839 154.346 81.3559V71.2339C154.346 70.4919 154.227 69.9459 153.989 69.5959C153.765 69.2459 153.366 69.0009 152.792 68.8609V68.5249L156.173 67.9999L156.404 68.2309C156.348 68.6229 156.32 69.0499 156.32 69.5119V74.4259C157.188 73.6279 158.287 73.2289 159.617 73.2289C160.905 73.2289 161.892 73.5719 162.578 74.2579C163.264 74.9439 163.607 75.9309 163.607 77.2189V81.3979C163.607 82.1119 163.719 82.6439 163.943 82.9939C164.181 83.3299 164.587 83.5749 165.161 83.7289V84.0649H160.079V83.7289C160.653 83.5749 161.052 83.3299 161.276 82.9939C161.514 82.6439 161.633 82.1119 161.633 81.3979V77.0929C161.633 76.1409 161.416 75.3989 160.982 74.8669C160.548 74.3349 159.939 74.0689 159.155 74.0689C158.287 74.0689 157.594 74.3839 157.076 75.0139C156.572 75.6299 156.32 76.4629 156.32 77.5129V81.4609C156.32 82.1609 156.432 82.6789 156.656 83.0149C156.894 83.3509 157.3 83.5889 157.874 83.7289V84.0649H152.792V83.7289ZM171.559 73.5649H173.113V71.7169C173.113 70.4709 173.442 69.5189 174.1 68.8609C174.758 68.1889 175.703 67.8529 176.935 67.8529C177.383 67.8529 177.817 67.8949 178.237 67.9789C178.657 68.0629 179.084 68.1679 179.518 68.2939L179.854 71.2549L179.497 71.3599C179.119 70.6459 178.79 70.0929 178.51 69.7009C178.23 69.2949 177.957 69.0149 177.691 68.8609C177.425 68.6929 177.124 68.6089 176.788 68.6089C175.654 68.6089 175.087 69.3859 175.087 70.9399V73.5649H177.901V74.3209H175.087V81.4189C175.087 82.1749 175.227 82.7139 175.507 83.0359C175.787 83.3579 176.305 83.5749 177.061 83.6869V84.0649H171.559V83.7289C172.133 83.5749 172.532 83.3299 172.756 82.9939C172.994 82.6439 173.113 82.1189 173.113 81.4189V74.3209H171.559V73.5649ZM179.496 78.8149C179.496 77.7089 179.713 76.7359 180.147 75.8959C180.581 75.0559 181.183 74.4049 181.953 73.9429C182.723 73.4669 183.619 73.2289 184.641 73.2289C185.663 73.2289 186.552 73.4669 187.308 73.9429C188.078 74.4049 188.68 75.0559 189.114 75.8959C189.548 76.7359 189.765 77.7089 189.765 78.8149C189.765 79.9209 189.548 80.8939 189.114 81.7339C188.68 82.5739 188.078 83.2319 187.308 83.7079C186.552 84.1699 185.663 84.4009 184.641 84.4009C183.619 84.4009 182.723 84.1699 181.953 83.7079C181.183 83.2319 180.581 82.5739 180.147 81.7339C179.713 80.8939 179.496 79.9209 179.496 78.8149ZM181.554 78.2899C181.554 79.3119 181.701 80.2289 181.995 81.0409C182.289 81.8389 182.695 82.4759 183.213 82.9519C183.731 83.4139 184.319 83.6449 184.977 83.6449C185.803 83.6449 186.461 83.2599 186.951 82.4899C187.455 81.7059 187.707 80.6559 187.707 79.3399C187.707 78.3179 187.56 77.4079 187.266 76.6099C186.972 75.7979 186.566 75.1609 186.048 74.6989C185.53 74.2229 184.942 73.9849 184.284 73.9849C183.458 73.9849 182.793 74.3769 182.289 75.1609C181.799 75.9309 181.554 76.9739 181.554 78.2899ZM191.247 83.7289C191.821 83.5749 192.22 83.3299 192.444 82.9939C192.682 82.6439 192.801 82.1189 192.801 81.4189V76.5889C192.801 75.8749 192.682 75.3429 192.444 74.9929C192.22 74.6429 191.821 74.3979 191.247 74.2579V73.9219L194.292 73.4389C194.418 73.6769 194.509 73.8939 194.565 74.0899C194.621 74.2859 194.656 74.5239 194.67 74.8039C194.992 74.3139 195.384 73.9289 195.846 73.6489C196.322 73.3689 196.84 73.2289 197.4 73.2289C198.184 73.2289 198.877 73.4809 199.479 73.9849L199.605 76.9039L199.248 76.9879C198.814 75.9939 198.401 75.2869 198.009 74.8669C197.617 74.4469 197.176 74.2369 196.686 74.2369C196.084 74.2369 195.615 74.5169 195.279 75.0769C194.943 75.6369 194.775 76.4279 194.775 77.4499V81.4189C194.775 82.1749 194.915 82.7139 195.195 83.0359C195.475 83.3579 195.993 83.5749 196.749 83.6869V84.0649H191.247V83.7289ZM205.509 73.5649H210.78V73.9009C210.22 73.9569 209.842 74.1739 209.646 74.5519C209.464 74.9299 209.52 75.4339 209.814 76.0639L212.439 81.6289L215.127 76.0639C215.435 75.4339 215.491 74.9299 215.295 74.5519C215.099 74.1739 214.721 73.9569 214.161 73.9009V73.5649H218.046V73.9009C217.57 74.0269 217.22 74.1949 216.996 74.4049C216.772 74.6009 216.562 74.8949 216.366 75.2869L211.725 84.6529C211.179 85.7589 210.696 86.6269 210.276 87.2569C209.856 87.9009 209.45 88.3489 209.058 88.6009C208.666 88.8669 208.239 88.9999 207.777 88.9999C207.217 88.9999 206.741 88.8249 206.349 88.4749C205.957 88.1389 205.607 87.5859 205.299 86.8159L205.593 86.6269C206.125 87.1589 206.797 87.4249 207.609 87.4249C208.309 87.4249 208.932 87.1869 209.478 86.7109C210.024 86.2489 210.556 85.4859 211.074 84.4219L211.347 83.8759L207.189 75.2869C207.007 74.8949 206.804 74.6009 206.58 74.4049C206.356 74.1949 205.999 74.0269 205.509 73.9009V73.5649ZM218.502 78.8149C218.502 77.7089 218.719 76.7359 219.153 75.8959C219.587 75.0559 220.189 74.4049 220.959 73.9429C221.729 73.4669 222.625 73.2289 223.647 73.2289C224.669 73.2289 225.558 73.4669 226.314 73.9429C227.084 74.4049 227.686 75.0559 228.12 75.8959C228.554 76.7359 228.771 77.7089 228.771 78.8149C228.771 79.9209 228.554 80.8939 228.12 81.7339C227.686 82.5739 227.084 83.2319 226.314 83.7079C225.558 84.1699 224.669 84.4009 223.647 84.4009C222.625 84.4009 221.729 84.1699 220.959 83.7079C220.189 83.2319 219.587 82.5739 219.153 81.7339C218.719 80.8939 218.502 79.9209 218.502 78.8149ZM220.56 78.2899C220.56 79.3119 220.707 80.2289 221.001 81.0409C221.295 81.8389 221.701 82.4759 222.219 82.9519C222.737 83.4139 223.325 83.6449 223.983 83.6449C224.809 83.6449 225.467 83.2599 225.957 82.4899C226.461 81.7059 226.713 80.6559 226.713 79.3399C226.713 78.3179 226.566 77.4079 226.272 76.6099C225.978 75.7979 225.572 75.1609 225.054 74.6989C224.536 74.2229 223.948 73.9849 223.29 73.9849C222.464 73.9849 221.799 74.3769 221.295 75.1609C220.805 75.9309 220.56 76.9739 220.56 78.2899ZM231.492 80.4109V76.6729C231.492 75.9309 231.373 75.3849 231.135 75.0349C230.911 74.6849 230.512 74.4399 229.938 74.2999V73.9639L233.319 73.4389L233.55 73.6699C233.494 74.0619 233.466 74.4959 233.466 74.9719V80.5369C233.466 81.4889 233.669 82.2309 234.075 82.7629C234.481 83.2949 235.048 83.5609 235.776 83.5609C236.28 83.5609 236.749 83.4349 237.183 83.1829C237.617 82.9309 237.96 82.5669 238.212 82.0909C238.478 81.6149 238.611 81.0479 238.611 80.3899V75.7699C238.611 75.2659 238.527 74.9089 238.359 74.6989C238.205 74.4889 237.848 74.3349 237.288 74.2369V73.9219L240.48 73.4389L240.669 73.6279C240.613 74.0899 240.585 74.5589 240.585 75.0349V81.3979C240.585 82.1119 240.697 82.6439 240.921 82.9939C241.159 83.3299 241.565 83.5749 242.139 83.7289V84.0649L239.094 84.2749C238.856 83.8269 238.73 83.3789 238.716 82.9309C237.834 83.9109 236.7 84.4009 235.314 84.4009C234.082 84.4009 233.137 84.0579 232.479 83.3719C231.821 82.6719 231.492 81.6849 231.492 80.4109ZM243.296 83.7289C243.87 83.5749 244.269 83.3299 244.493 82.9939C244.731 82.6439 244.85 82.1189 244.85 81.4189V76.5889C244.85 75.8749 244.731 75.3429 244.493 74.9929C244.269 74.6429 243.87 74.3979 243.296 74.2579V73.9219L246.341 73.4389C246.467 73.6769 246.558 73.8939 246.614 74.0899C246.67 74.2859 246.705 74.5239 246.719 74.8039C247.041 74.3139 247.433 73.9289 247.895 73.6489C248.371 73.3689 248.889 73.2289 249.449 73.2289C250.233 73.2289 250.926 73.4809 251.528 73.9849L251.654 76.9039L251.297 76.9879C250.863 75.9939 250.45 75.2869 250.058 74.8669C249.666 74.4469 249.225 74.2369 248.735 74.2369C248.133 74.2369 247.664 74.5169 247.328 75.0769C246.992 75.6369 246.824 76.4279 246.824 77.4499V81.4189C246.824 82.1749 246.964 82.7139 247.244 83.0359C247.524 83.3579 248.042 83.5749 248.798 83.6869V84.0649H243.296V83.7289ZM259.385 71.2339C259.385 70.4919 259.266 69.9459 259.028 69.5959C258.804 69.2459 258.405 69.0009 257.831 68.8609V68.5249L261.212 67.9999L261.443 68.2309C261.387 68.6229 261.359 69.0639 261.359 69.5539V74.4049C262.199 73.6209 263.263 73.2289 264.551 73.2289C266.049 73.2289 267.239 73.7119 268.121 74.6779C269.003 75.6299 269.444 76.9389 269.444 78.6049C269.444 79.7809 269.213 80.8029 268.751 81.6709C268.303 82.5389 267.659 83.2109 266.819 83.6869C265.979 84.1629 264.964 84.4009 263.774 84.4009C263.004 84.4009 262.22 84.2959 261.422 84.0859C260.638 83.8759 259.959 83.5749 259.385 83.1829V71.2339ZM267.386 79.1929C267.386 78.1709 267.246 77.2749 266.966 76.5049C266.7 75.7349 266.322 75.1399 265.832 74.7199C265.342 74.2859 264.768 74.0689 264.11 74.0689C263.312 74.0689 262.654 74.3839 262.136 75.0139C261.618 75.6299 261.359 76.4209 261.359 77.3869V80.3479C261.359 80.9639 261.492 81.5239 261.758 82.0279C262.038 82.5179 262.409 82.9099 262.871 83.2039C263.333 83.4979 263.851 83.6449 264.425 83.6449C265.349 83.6449 266.07 83.2529 266.588 82.4689C267.12 81.6849 267.386 80.5929 267.386 79.1929ZM272.179 80.4109V76.6729C272.179 75.9309 272.06 75.3849 271.822 75.0349C271.598 74.6849 271.199 74.4399 270.625 74.2999V73.9639L274.006 73.4389L274.237 73.6699C274.181 74.0619 274.153 74.4959 274.153 74.9719V80.5369C274.153 81.4889 274.356 82.2309 274.762 82.7629C275.168 83.2949 275.735 83.5609 276.463 83.5609C276.967 83.5609 277.436 83.4349 277.87 83.1829C278.304 82.9309 278.647 82.5669 278.899 82.0909C279.165 81.6149 279.298 81.0479 279.298 80.3899V75.7699C279.298 75.2659 279.214 74.9089 279.046 74.6989C278.892 74.4889 278.535 74.3349 277.975 74.2369V73.9219L281.167 73.4389L281.356 73.6279C281.3 74.0899 281.272 74.5589 281.272 75.0349V81.3979C281.272 82.1119 281.384 82.6439 281.608 82.9939C281.846 83.3299 282.252 83.5749 282.826 83.7289V84.0649L279.781 84.2749C279.543 83.8269 279.417 83.3789 279.403 82.9309C278.521 83.9109 277.387 84.4009 276.001 84.4009C274.769 84.4009 273.824 84.0579 273.166 83.3719C272.508 82.6719 272.179 81.6849 272.179 80.4109ZM290.409 81.9439C290.409 81.4259 290.213 80.9919 289.821 80.6419C289.429 80.2919 288.757 79.9279 287.805 79.5499C286.531 79.0319 285.628 78.5139 285.096 77.9959C284.564 77.4639 284.298 76.8549 284.298 76.1689C284.298 75.2729 284.648 74.5589 285.348 74.0269C286.062 73.4949 287.014 73.2289 288.204 73.2289C288.778 73.2289 289.373 73.2989 289.989 73.4389C290.605 73.5649 291.179 73.7469 291.711 73.9849L292.047 76.7779L291.69 76.8829C291.214 75.9449 290.654 75.2309 290.01 74.7409C289.366 74.2369 288.68 73.9849 287.952 73.9849C287.392 73.9849 286.951 74.1249 286.629 74.4049C286.321 74.6709 286.167 75.0279 286.167 75.4759C286.167 75.9379 286.363 76.3369 286.755 76.6729C287.147 76.9949 287.833 77.3519 288.813 77.7439C290.101 78.2619 290.997 78.7659 291.501 79.2559C292.019 79.7459 292.278 80.3479 292.278 81.0619C292.278 81.7059 292.103 82.2799 291.753 82.7839C291.417 83.2879 290.941 83.6869 290.325 83.9809C289.723 84.2609 289.016 84.4009 288.204 84.4009C287.644 84.4009 287.049 84.3239 286.419 84.1699C285.789 84.0299 285.159 83.8199 284.529 83.5399L284.193 80.7469L284.55 80.6419C285.026 81.5939 285.607 82.3359 286.293 82.8679C286.993 83.3859 287.728 83.6449 288.498 83.6449C289.1 83.6449 289.569 83.4909 289.905 83.1829C290.241 82.8749 290.409 82.4619 290.409 81.9439ZM293.95 83.7289C294.524 83.5749 294.923 83.3299 295.147 82.9939C295.385 82.6439 295.504 82.1119 295.504 81.3979V76.6309C295.504 75.8889 295.385 75.3429 295.147 74.9929C294.923 74.6429 294.524 74.3979 293.95 74.2579V73.9219L297.331 73.4389L297.562 73.6699C297.534 73.8939 297.513 74.1109 297.499 74.3209C297.485 74.5169 297.478 74.7339 297.478 74.9719V81.3979C297.478 82.1119 297.59 82.6439 297.814 82.9939C298.052 83.3299 298.458 83.5749 299.032 83.7289V84.0649H293.95V83.7289ZM294.979 70.0159C294.979 69.6099 295.105 69.2809 295.357 69.0289C295.623 68.7769 295.952 68.6509 296.344 68.6509C296.75 68.6509 297.079 68.7769 297.331 69.0289C297.583 69.2809 297.709 69.6099 297.709 70.0159C297.709 70.4079 297.583 70.7369 297.331 71.0029C297.079 71.2549 296.75 71.3809 296.344 71.3809C295.952 71.3809 295.623 71.2549 295.357 71.0029C295.105 70.7369 294.979 70.4079 294.979 70.0159ZM300.184 83.7289C300.758 83.5749 301.157 83.3299 301.381 82.9939C301.619 82.6439 301.738 82.1119 301.738 81.3979V76.6309C301.738 75.8889 301.619 75.3429 301.381 74.9929C301.157 74.6429 300.758 74.3979 300.184 74.2579V73.9219L303.229 73.4389C303.439 73.8309 303.558 74.2019 303.586 74.5519C304.482 73.6699 305.623 73.2289 307.009 73.2289C308.297 73.2289 309.284 73.5719 309.97 74.2579C310.656 74.9439 310.999 75.9309 310.999 77.2189V81.3979C310.999 82.1119 311.111 82.6439 311.335 82.9939C311.573 83.3299 311.979 83.5749 312.553 83.7289V84.0649H307.471V83.7289C308.045 83.5749 308.444 83.3299 308.668 82.9939C308.906 82.6439 309.025 82.1119 309.025 81.3979V77.0929C309.025 76.1409 308.808 75.3989 308.374 74.8669C307.94 74.3349 307.331 74.0689 306.547 74.0689C305.679 74.0689 304.986 74.3839 304.468 75.0139C303.964 75.6299 303.712 76.4629 303.712 77.5129V81.3979C303.712 82.1119 303.824 82.6439 304.048 82.9939C304.286 83.3299 304.692 83.5749 305.266 83.7289V84.0649H300.184V83.7289ZM313.72 78.8989C313.72 77.7649 313.93 76.7779 314.35 75.9379C314.77 75.0839 315.358 74.4189 316.114 73.9429C316.87 73.4669 317.745 73.2289 318.739 73.2289C320.027 73.2289 321.056 73.6489 321.826 74.4889C322.596 75.3149 323.051 76.5049 323.191 78.0589H315.61C315.61 79.5849 315.967 80.7749 316.681 81.6289C317.395 82.4689 318.396 82.8889 319.684 82.8889C320.944 82.8889 321.91 82.4409 322.582 81.5449L322.918 81.7339C322.12 83.5119 320.727 84.4009 318.739 84.4009C317.731 84.4009 316.849 84.1769 316.093 83.7289C315.337 83.2669 314.749 82.6229 314.329 81.7969C313.923 80.9709 313.72 80.0049 313.72 78.8989ZM321.028 77.3029C320.958 76.2669 320.685 75.4549 320.209 74.8669C319.747 74.2789 319.131 73.9849 318.361 73.9849C317.591 73.9849 316.968 74.2789 316.492 74.8669C316.016 75.4549 315.736 76.2669 315.652 77.3029H321.028ZM331.117 81.9439C331.117 81.4259 330.921 80.9919 330.529 80.6419C330.137 80.2919 329.465 79.9279 328.513 79.5499C327.239 79.0319 326.336 78.5139 325.804 77.9959C325.272 77.4639 325.006 76.8549 325.006 76.1689C325.006 75.2729 325.356 74.5589 326.056 74.0269C326.77 73.4949 327.722 73.2289 328.912 73.2289C329.486 73.2289 330.081 73.2989 330.697 73.4389C331.313 73.5649 331.887 73.7469 332.419 73.9849L332.755 76.7779L332.398 76.8829C331.922 75.9449 331.362 75.2309 330.718 74.7409C330.074 74.2369 329.388 73.9849 328.66 73.9849C328.1 73.9849 327.659 74.1249 327.337 74.4049C327.029 74.6709 326.875 75.0279 326.875 75.4759C326.875 75.9379 327.071 76.3369 327.463 76.6729C327.855 76.9949 328.541 77.3519 329.521 77.7439C330.809 78.2619 331.705 78.7659 332.209 79.2559C332.727 79.7459 332.986 80.3479 332.986 81.0619C332.986 81.7059 332.811 82.2799 332.461 82.7839C332.125 83.2879 331.649 83.6869 331.033 83.9809C330.431 84.2609 329.724 84.4009 328.912 84.4009C328.352 84.4009 327.757 84.3239 327.127 84.1699C326.497 84.0299 325.867 83.8199 325.237 83.5399L324.901 80.7469L325.258 80.6419C325.734 81.5939 326.315 82.3359 327.001 82.8679C327.701 83.3859 328.436 83.6449 329.206 83.6449C329.808 83.6449 330.277 83.4909 330.613 83.1829C330.949 82.8749 331.117 82.4619 331.117 81.9439ZM341.084 81.9439C341.084 81.4259 340.888 80.9919 340.496 80.6419C340.104 80.2919 339.432 79.9279 338.48 79.5499C337.206 79.0319 336.303 78.5139 335.771 77.9959C335.239 77.4639 334.973 76.8549 334.973 76.1689C334.973 75.2729 335.323 74.5589 336.023 74.0269C336.737 73.4949 337.689 73.2289 338.879 73.2289C339.453 73.2289 340.048 73.2989 340.664 73.4389C341.28 73.5649 341.854 73.7469 342.386 73.9849L342.722 76.7779L342.365 76.8829C341.889 75.9449 341.329 75.2309 340.685 74.7409C340.041 74.2369 339.355 73.9849 338.627 73.9849C338.067 73.9849 337.626 74.1249 337.304 74.4049C336.996 74.6709 336.842 75.0279 336.842 75.4759C336.842 75.9379 337.038 76.3369 337.43 76.6729C337.822 76.9949 338.508 77.3519 339.488 77.7439C340.776 78.2619 341.672 78.7659 342.176 79.2559C342.694 79.7459 342.953 80.3479 342.953 81.0619C342.953 81.7059 342.778 82.2799 342.428 82.7839C342.092 83.2879 341.616 83.6869 341 83.9809C340.398 84.2609 339.691 84.4009 338.879 84.4009C338.319 84.4009 337.724 84.3239 337.094 84.1699C336.464 84.0299 335.834 83.8199 335.204 83.5399L334.868 80.7469L335.225 80.6419C335.701 81.5939 336.282 82.3359 336.968 82.8679C337.668 83.3859 338.403 83.6449 339.173 83.6449C339.775 83.6449 340.244 83.4909 340.58 83.1829C340.916 82.8749 341.084 82.4619 341.084 81.9439ZM345.57 71.2549C345.472 70.5549 345.549 70.0019 345.801 69.5959C346.053 69.1899 346.459 68.9869 347.019 68.9869C347.579 68.9869 347.985 69.1899 348.237 69.5959C348.503 70.0019 348.58 70.5549 348.468 71.2549L347.229 79.7389H346.809L345.57 71.2549ZM345.591 82.8259C345.591 82.4059 345.724 82.0629 345.99 81.7969C346.27 81.5169 346.62 81.3769 347.04 81.3769C347.46 81.3769 347.803 81.5169 348.069 81.7969C348.349 82.0629 348.489 82.4059 348.489 82.8259C348.489 83.2459 348.349 83.5959 348.069 83.8759C347.803 84.1419 347.46 84.2749 347.04 84.2749C346.62 84.2749 346.27 84.1419 345.99 83.8759C345.724 83.5959 345.591 83.2459 345.591 82.8259Z" fill="white"/>
</svg>
