<svg width="836" height="38" viewBox="0 0 836 38" fill="none" xmlns="http://www.w3.org/2000/svg">
<path d="M821.31 25.466C823.336 26.3527 825.363 26.796 827.39 26.796C828.859 26.796 829.974 26.5173 830.734 25.96C831.519 25.4027 831.912 24.6047 831.912 23.566C831.912 22.882 831.696 22.3247 831.266 21.894C830.835 21.4633 830.126 21.096 829.138 20.792L826.554 19.994C824.831 19.462 823.577 18.778 822.792 17.942C822.006 17.106 821.614 16.042 821.614 14.75C821.614 13.0273 822.285 11.6593 823.628 10.646C824.97 9.63267 826.782 9.12601 829.062 9.12601C830.987 9.12601 832.824 9.50601 834.572 10.266V13.002C832.646 12.2673 830.886 11.9 829.29 11.9C827.998 11.9 826.984 12.1533 826.25 12.66C825.54 13.1413 825.186 13.8 825.186 14.636C825.186 15.244 825.376 15.7253 825.756 16.08C826.136 16.4093 826.845 16.7387 827.884 17.068L830.772 17.942C833.913 18.8793 835.484 20.7413 835.484 23.528C835.484 25.4787 834.812 26.9733 833.47 28.012C832.127 29.0507 830.189 29.57 827.656 29.57C825.3 29.57 823.324 29.1773 821.728 28.392L821.31 25.466Z" fill="white"/>
<path d="M813.994 29.076L813.766 27.746C811.688 28.962 809.624 29.57 807.572 29.57C805.52 29.57 803.924 29.0127 802.784 27.898C801.644 26.7833 801.074 25.2253 801.074 23.224V9.69601H804.646V22.692C804.646 25.4027 805.95 26.758 808.56 26.758C809.294 26.758 810.092 26.644 810.954 26.416C811.815 26.1627 812.6 25.8334 813.31 25.428V9.69601H816.882V28.772L813.994 29.076Z" fill="white"/>
<path d="M791.95 29V0.462006L795.522 0.0440063V29H791.95Z" fill="white"/>
<path d="M769.808 29V2.97C770.998 2.71667 772.328 2.514 773.798 2.362C775.292 2.21 776.572 2.134 777.636 2.134C780.777 2.134 783.222 2.86867 784.97 4.338C786.743 5.80734 787.63 7.84667 787.63 10.456C787.63 13.0653 786.705 15.13 784.856 16.65C783.032 18.1447 780.524 18.892 777.332 18.892H773.456V29H769.808ZM777.408 4.984C776.242 4.984 774.925 5.11067 773.456 5.364V16.042H777.294C779.371 16.042 780.967 15.5607 782.082 14.598C783.222 13.6353 783.792 12.2673 783.792 10.494C783.792 8.69534 783.247 7.32734 782.158 6.39C781.094 5.45267 779.51 4.984 777.408 4.984Z" fill="white"/>
<path d="M738.327 29V0.462006L741.899 0.0440063V10.684C743.85 9.64534 745.762 9.12601 747.637 9.12601C749.74 9.12601 751.361 9.68334 752.501 10.798C753.666 11.8873 754.249 13.4453 754.249 15.472V29H750.677V16.004C750.677 13.2933 749.335 11.938 746.649 11.938C745.94 11.938 745.142 12.0647 744.255 12.318C743.394 12.546 742.609 12.8627 741.899 13.268V29H738.327Z" fill="white"/>
<path d="M719.704 25.466C721.731 26.3527 723.757 26.796 725.784 26.796C727.253 26.796 728.368 26.5173 729.128 25.96C729.913 25.4027 730.306 24.6047 730.306 23.566C730.306 22.882 730.091 22.3247 729.66 21.894C729.229 21.4633 728.52 21.096 727.532 20.792L724.948 19.994C723.225 19.462 721.971 18.778 721.186 17.942C720.401 17.106 720.008 16.042 720.008 14.75C720.008 13.0273 720.679 11.6593 722.022 10.646C723.365 9.63267 725.176 9.12601 727.456 9.12601C729.381 9.12601 731.218 9.50601 732.966 10.266V13.002C731.041 12.2673 729.28 11.9 727.684 11.9C726.392 11.9 725.379 12.1533 724.644 12.66C723.935 13.1413 723.58 13.8 723.58 14.636C723.58 15.244 723.77 15.7253 724.15 16.08C724.53 16.4093 725.239 16.7387 726.278 17.068L729.166 17.942C732.307 18.8793 733.878 20.7413 733.878 23.528C733.878 25.4787 733.207 26.9733 731.864 28.012C730.521 29.0507 728.583 29.57 726.05 29.57C723.694 29.57 721.718 29.1773 720.122 28.392L719.704 25.466Z" fill="white"/>
<path d="M712.592 29.076L712.364 27.746C710.236 28.962 708.172 29.57 706.17 29.57C704.169 29.57 702.573 29.038 701.382 27.974C700.217 26.8847 699.634 25.428 699.634 23.604C699.634 21.704 700.293 20.2347 701.61 19.196C702.928 18.132 704.777 17.6 707.158 17.6C708.552 17.6 710.16 17.7647 711.984 18.094V16.08C711.984 14.6867 711.579 13.648 710.768 12.964C709.983 12.28 708.767 11.938 707.12 11.938C705.195 11.938 703.092 12.3813 700.812 13.268V10.494C701.876 10.0633 703.029 9.73401 704.27 9.50601C705.512 9.25268 706.69 9.12601 707.804 9.12601C710.312 9.12601 712.212 9.70867 713.504 10.874C714.822 12.0393 715.48 13.7493 715.48 16.004V28.772L712.592 29.076ZM707.082 26.796C707.817 26.796 708.64 26.6693 709.552 26.416C710.464 26.1627 711.275 25.8333 711.984 25.428V20.564C710.794 20.26 709.388 20.108 707.766 20.108C706.246 20.108 705.119 20.3993 704.384 20.982C703.675 21.5393 703.32 22.388 703.32 23.528C703.32 25.7067 704.574 26.796 707.082 26.796Z" fill="white"/>
<path d="M695.988 27.898C693.835 29.0127 691.466 29.57 688.882 29.57C685.335 29.57 682.587 28.354 680.636 25.922C678.685 23.49 677.71 20.0827 677.71 15.7C677.71 11.3427 678.685 7.948 680.636 5.516C682.612 3.05867 685.361 1.83 688.882 1.83C691.339 1.83 693.67 2.38734 695.874 3.502V6.504C694.709 5.92134 693.632 5.516 692.644 5.288C691.656 5.03467 690.605 4.908 689.49 4.908C684.271 4.908 681.662 8.50534 681.662 15.7C681.662 22.8947 684.271 26.492 689.49 26.492C690.63 26.492 691.707 26.3653 692.72 26.112C693.759 25.8587 694.848 25.4533 695.988 24.896V27.898Z" fill="white"/>
<path d="M650.044 29V0.462006L653.616 0.0440063V17.98L661.558 9.69601H665.662L657.036 18.664L666.08 29H661.748L653.616 19.538V29H650.044Z" fill="white"/>
<path d="M636.165 29V9.92401L639.053 9.62001L639.357 11.368C641.029 9.94934 642.815 9.24001 644.715 9.24001C645.298 9.24001 645.88 9.32867 646.463 9.50601V12.432C645.855 12.28 645.234 12.204 644.601 12.204C642.777 12.204 641.156 12.774 639.737 13.914V29H636.165Z" fill="white"/>
<path d="M627.723 29.076L627.495 27.746C625.367 28.962 623.302 29.57 621.301 29.57C619.3 29.57 617.704 29.038 616.513 27.974C615.348 26.8847 614.765 25.428 614.765 23.604C614.765 21.704 615.424 20.2347 616.741 19.196C618.058 18.132 619.908 17.6 622.289 17.6C623.683 17.6 625.291 17.7647 627.115 18.094V16.08C627.115 14.6867 626.71 13.648 625.899 12.964C625.114 12.28 623.898 11.938 622.251 11.938C620.326 11.938 618.223 12.3813 615.943 13.268V10.494C617.007 10.0633 618.16 9.73401 619.401 9.50601C620.643 9.25268 621.821 9.12601 622.935 9.12601C625.443 9.12601 627.343 9.70867 628.635 10.874C629.953 12.0393 630.611 13.7493 630.611 16.004V28.772L627.723 29.076ZM622.213 26.796C622.948 26.796 623.771 26.6693 624.683 26.416C625.595 26.1627 626.406 25.8333 627.115 25.428V20.564C625.925 20.26 624.518 20.108 622.897 20.108C621.377 20.108 620.25 20.3993 619.515 20.982C618.806 21.5393 618.451 22.388 618.451 23.528C618.451 25.7067 619.705 26.796 622.213 26.796Z" fill="white"/>
<path d="M594.306 37.588V9.92401L597.194 9.62001L597.422 10.95C599.423 9.73401 601.361 9.12601 603.236 9.12601C605.718 9.12601 607.656 10.0127 609.05 11.786C610.468 13.534 611.178 15.9533 611.178 19.044C611.178 22.388 610.354 24.9847 608.708 26.834C607.061 28.658 604.743 29.57 601.754 29.57C600.31 29.57 599.018 29.3927 597.878 29.038V37.17L594.306 37.588ZM602.4 11.938C601.716 11.938 600.956 12.0647 600.12 12.318C599.309 12.546 598.562 12.8627 597.878 13.268V26.34C598.942 26.644 600.069 26.796 601.26 26.796C603.337 26.796 604.882 26.1627 605.896 24.896C606.934 23.6293 607.454 21.704 607.454 19.12C607.454 16.764 607.023 14.978 606.162 13.762C605.326 12.546 604.072 11.938 602.4 11.938Z" fill="white"/>
<path d="M572.081 24.744C574.665 25.9853 577.223 26.606 579.757 26.606C581.783 26.606 583.354 26.1753 584.469 25.314C585.583 24.4527 586.141 23.224 586.141 21.628C586.141 20.4627 585.786 19.5127 585.077 18.778C584.367 18.0433 583.177 17.41 581.505 16.878L578.997 16.08C576.742 15.3707 575.108 14.484 574.095 13.42C573.107 12.3307 572.613 10.9627 572.613 9.316C572.613 7.036 573.461 5.22467 575.159 3.882C576.856 2.514 579.136 1.83 581.999 1.83C584.38 1.83 586.673 2.324 588.877 3.312V6.238C586.546 5.27534 584.367 4.794 582.341 4.794C580.517 4.794 579.073 5.18667 578.009 5.972C576.97 6.732 576.451 7.78333 576.451 9.126C576.451 10.114 576.742 10.8993 577.325 11.482C577.933 12.0647 578.971 12.5967 580.441 13.078L582.949 13.876C585.457 14.6867 587.255 15.7 588.345 16.916C589.434 18.1067 589.979 19.6647 589.979 21.59C589.979 24.098 589.105 26.0613 587.357 27.48C585.609 28.8733 583.189 29.57 580.099 29.57C577.287 29.57 574.791 29.038 572.613 27.974L572.081 24.744Z" fill="white"/>
<path d="M542.538 29V0.462006L546.11 0.0440063V10.684C548.061 9.64534 549.973 9.12601 551.848 9.12601C553.951 9.12601 555.572 9.68334 556.712 10.798C557.877 11.8873 558.46 13.4453 558.46 15.472V29H554.888V16.004C554.888 13.2933 553.545 11.938 550.86 11.938C550.151 11.938 549.353 12.0647 548.466 12.318C547.605 12.546 546.819 12.8627 546.11 13.268V29H542.538Z" fill="white"/>
<path d="M533.141 12.28V23.376C533.141 24.516 533.394 25.3647 533.901 25.922C534.407 26.454 535.18 26.72 536.219 26.72C537.004 26.72 537.84 26.5807 538.727 26.302V28.848C537.663 29.2533 536.561 29.456 535.421 29.456C533.495 29.456 532.039 28.9493 531.051 27.936C530.063 26.9227 529.569 25.4407 529.569 23.49V12.28H526.681V9.84801L529.721 9.73401L529.987 4.90801L533.141 4.56601V9.69601H538.537V12.28H533.141Z" fill="white"/>
<path d="M519.419 29V10L522.991 9.582V29H519.419ZM521.205 5.744C520.47 5.744 519.888 5.554 519.457 5.174C519.052 4.76867 518.849 4.224 518.849 3.54C518.849 2.856 519.052 2.324 519.457 1.944C519.888 1.53867 520.47 1.336 521.205 1.336C521.94 1.336 522.51 1.53867 522.915 1.944C523.346 2.324 523.561 2.856 523.561 3.54C523.561 4.224 523.346 4.76867 522.915 5.174C522.51 5.554 521.94 5.744 521.205 5.744Z" fill="white"/>
<path d="M506.983 29L502.461 13.458L498.091 29H494.823L488.781 9.69601H492.391L496.533 24.668L500.637 9.69601H504.399L508.579 24.668L512.683 9.69601H516.179L510.251 29H506.983Z" fill="white"/>
<path d="M462.901 29V0.462006L466.473 0.0440063V17.98L474.415 9.69601H478.519L469.893 18.664L478.937 29H474.605L466.473 19.538V29H462.901Z" fill="white"/>
<path d="M458.503 28.316C456.755 29.152 454.817 29.57 452.689 29.57C449.903 29.57 447.749 28.6833 446.229 26.91C444.709 25.1367 443.949 22.6287 443.949 19.386C443.949 16.118 444.709 13.5973 446.229 11.824C447.775 10.0253 449.941 9.12601 452.727 9.12601C454.678 9.12601 456.565 9.54401 458.389 10.38V13.116C456.641 12.356 454.969 11.976 453.373 11.976C451.499 11.976 450.08 12.5967 449.117 13.838C448.155 15.0793 447.673 16.916 447.673 19.348C447.673 21.7547 448.155 23.5913 449.117 24.858C450.08 26.0993 451.499 26.72 453.373 26.72C454.969 26.72 456.679 26.34 458.503 25.58V28.316Z" fill="white"/>
<path d="M436.647 29.076L436.419 27.746C434.291 28.962 432.226 29.57 430.225 29.57C428.224 29.57 426.628 29.038 425.437 27.974C424.272 26.8847 423.689 25.428 423.689 23.604C423.689 21.704 424.348 20.2347 425.665 19.196C426.982 18.132 428.832 17.6 431.213 17.6C432.606 17.6 434.215 17.7647 436.039 18.094V16.08C436.039 14.6867 435.634 13.648 434.823 12.964C434.038 12.28 432.822 11.938 431.175 11.938C429.25 11.938 427.147 12.3813 424.867 13.268V10.494C425.931 10.0633 427.084 9.73401 428.325 9.50601C429.566 9.25268 430.744 9.12601 431.859 9.12601C434.367 9.12601 436.267 9.70867 437.559 10.874C438.876 12.0393 439.535 13.7493 439.535 16.004V28.772L436.647 29.076ZM431.137 26.796C431.872 26.796 432.695 26.6693 433.607 26.416C434.519 26.1627 435.33 25.8333 436.039 25.428V20.564C434.848 20.26 433.442 20.108 431.821 20.108C430.301 20.108 429.174 20.3993 428.439 20.982C427.73 21.5393 427.375 22.388 427.375 23.528C427.375 25.7067 428.629 26.796 431.137 26.796Z" fill="white"/>
<path d="M406.801 10.646C408.701 9.63267 410.487 9.12601 412.159 9.12601C414.642 9.12601 416.58 10.0127 417.973 11.786C419.392 13.534 420.102 15.9533 420.102 19.044C420.102 22.4387 419.24 25.048 417.517 26.872C415.795 28.6707 413.337 29.57 410.145 29.57C407.865 29.57 405.56 29.2407 403.229 28.582V0.462006L406.801 0.0440063V10.646ZM411.323 11.938C410.639 11.938 409.879 12.0647 409.043 12.318C408.233 12.546 407.485 12.8627 406.801 13.268V26.34C407.865 26.644 408.993 26.796 410.184 26.796C412.261 26.796 413.806 26.1627 414.819 24.896C415.858 23.6293 416.378 21.704 416.378 19.12C416.378 16.764 415.947 14.978 415.085 13.762C414.249 12.546 412.995 11.938 411.323 11.938Z" fill="white"/>
<path d="M372.243 29V0.462006L375.815 0.0440063V10.684C377.766 9.64534 379.678 9.12601 381.553 9.12601C383.656 9.12601 385.277 9.68334 386.417 10.798C387.583 11.8873 388.165 13.4453 388.165 15.472V29H384.593V16.004C384.593 13.2933 383.25 11.938 380.565 11.938C379.856 11.938 379.058 12.0647 378.171 12.318C377.31 12.546 376.524 12.8627 375.815 13.268V29H372.243Z" fill="white"/>
<path d="M353.62 25.466C355.647 26.3527 357.673 26.796 359.7 26.796C361.169 26.796 362.284 26.5173 363.044 25.96C363.829 25.4027 364.222 24.6047 364.222 23.566C364.222 22.882 364.007 22.3247 363.576 21.894C363.145 21.4633 362.436 21.096 361.448 20.792L358.864 19.994C357.141 19.462 355.887 18.778 355.102 17.942C354.317 17.106 353.924 16.042 353.924 14.75C353.924 13.0273 354.595 11.6593 355.938 10.646C357.281 9.63267 359.092 9.12601 361.372 9.12601C363.297 9.12601 365.134 9.50601 366.882 10.266V13.002C364.957 12.2673 363.196 11.9 361.6 11.9C360.308 11.9 359.295 12.1533 358.56 12.66C357.851 13.1413 357.496 13.8 357.496 14.636C357.496 15.244 357.686 15.7253 358.066 16.08C358.446 16.4093 359.155 16.7387 360.194 17.068L363.082 17.942C366.223 18.8793 367.794 20.7413 367.794 23.528C367.794 25.4787 367.123 26.9733 365.78 28.012C364.437 29.0507 362.499 29.57 359.966 29.57C357.61 29.57 355.634 29.1773 354.038 28.392L353.62 25.466Z" fill="white"/>
<path d="M346.508 29.076L346.28 27.746C344.152 28.962 342.088 29.57 340.086 29.57C338.085 29.57 336.489 29.038 335.298 27.974C334.133 26.8847 333.55 25.428 333.55 23.604C333.55 21.704 334.209 20.2347 335.526 19.196C336.844 18.132 338.693 17.6 341.074 17.6C342.468 17.6 344.076 17.7647 345.9 18.094V16.08C345.9 14.6867 345.495 13.648 344.684 12.964C343.899 12.28 342.683 11.938 341.036 11.938C339.111 11.938 337.008 12.3813 334.728 13.268V10.494C335.792 10.0633 336.945 9.73401 338.186 9.50601C339.428 9.25268 340.606 9.12601 341.72 9.12601C344.228 9.12601 346.128 9.70867 347.42 10.874C348.738 12.0393 349.396 13.7493 349.396 16.004V28.772L346.508 29.076ZM340.998 26.796C341.733 26.796 342.556 26.6693 343.468 26.416C344.38 26.1627 345.191 25.8333 345.9 25.428V20.564C344.71 20.26 343.304 20.108 341.682 20.108C340.162 20.108 339.035 20.3993 338.3 20.982C337.591 21.5393 337.236 22.388 337.236 23.528C337.236 25.7067 338.49 26.796 340.998 26.796Z" fill="white"/>
<path d="M330.216 28.316C328.468 29.152 326.53 29.57 324.402 29.57C321.615 29.57 319.462 28.6833 317.942 26.91C316.422 25.1367 315.662 22.6287 315.662 19.386C315.662 16.118 316.422 13.5973 317.942 11.824C319.487 10.0253 321.653 9.12601 324.44 9.12601C326.391 9.12601 328.278 9.54401 330.102 10.38V13.116C328.354 12.356 326.682 11.976 325.086 11.976C323.211 11.976 321.793 12.5967 320.83 13.838C319.867 15.0793 319.386 16.916 319.386 19.348C319.386 21.7547 319.867 23.5913 320.83 24.858C321.793 26.0993 323.211 26.72 325.086 26.72C326.682 26.72 328.392 26.34 330.216 25.58V28.316Z" fill="white"/>
<path d="M278.503 29L292.145 2.97H295.299L281.657 29H278.503ZM276.983 17.22C278.097 17.22 278.908 16.7387 279.415 15.776C279.921 14.788 280.175 13.2047 280.175 11.026C280.175 8.84733 279.921 7.27666 279.415 6.314C278.908 5.326 278.097 4.832 276.983 4.832C275.868 4.832 275.057 5.326 274.551 6.314C274.044 7.27666 273.791 8.84733 273.791 11.026C273.791 13.2047 274.044 14.788 274.551 15.776C275.057 16.7387 275.868 17.22 276.983 17.22ZM276.983 19.462C274.931 19.462 273.36 18.74 272.271 17.296C271.181 15.8267 270.637 13.7367 270.637 11.026C270.637 8.31533 271.181 6.238 272.271 4.794C273.36 3.32466 274.931 2.59 276.983 2.59C279.035 2.59 280.605 3.32466 281.695 4.794C282.784 6.238 283.329 8.31533 283.329 11.026C283.329 13.7367 282.784 15.8267 281.695 17.296C280.605 18.74 279.035 19.462 276.983 19.462ZM296.819 27.138C297.933 27.138 298.744 26.6567 299.251 25.694C299.757 24.706 300.011 23.1227 300.011 20.944C300.011 18.7653 299.757 17.1947 299.251 16.232C298.744 15.244 297.933 14.75 296.819 14.75C295.704 14.75 294.893 15.244 294.387 16.232C293.88 17.1947 293.627 18.7653 293.627 20.944C293.627 23.1227 293.88 24.706 294.387 25.694C294.893 26.6567 295.704 27.138 296.819 27.138ZM296.819 29.38C294.767 29.38 293.196 28.658 292.107 27.214C291.017 25.7447 290.473 23.6547 290.473 20.944C290.473 18.2333 291.017 16.156 292.107 14.712C293.196 13.2427 294.767 12.508 296.819 12.508C298.871 12.508 300.441 13.2427 301.531 14.712C302.62 16.156 303.165 18.2333 303.165 20.944C303.165 23.6547 302.62 25.7447 301.531 27.214C300.441 28.658 298.871 29.38 296.819 29.38Z" fill="white"/>
<path d="M251.256 29C251.307 26.72 251.763 24.744 252.624 23.072C253.511 21.4 254.993 19.69 257.07 17.942L260.262 15.244C261.554 14.1547 262.479 13.1793 263.036 12.318C263.593 11.4567 263.872 10.57 263.872 9.65801C263.872 8.31534 263.378 7.25134 262.39 6.46601C261.427 5.68068 260.11 5.28801 258.438 5.28801C256.259 5.28801 254.131 6.04801 252.054 7.56801V4.64201C254.106 3.14734 256.525 2.40001 259.312 2.40001C260.959 2.40001 262.403 2.71668 263.644 3.35001C264.911 3.95801 265.886 4.80668 266.57 5.89601C267.254 6.96001 267.596 8.15068 267.596 9.46801C267.596 10.7853 267.241 12.0267 266.532 13.192C265.848 14.332 264.67 15.6113 262.998 17.03L259.958 19.614C258.539 20.83 257.463 21.9447 256.728 22.958C255.993 23.9713 255.525 24.9847 255.322 25.998H264.138C265.607 25.998 266.874 25.96 267.938 25.884V29H251.256Z" fill="white"/>
<path d="M238.017 0.0440063V28.772L235.129 29.076L234.901 27.746C232.899 28.962 230.961 29.57 229.087 29.57C226.604 29.57 224.653 28.696 223.235 26.948C221.841 25.1747 221.145 22.7427 221.145 19.652C221.145 16.308 221.968 13.724 223.615 11.9C225.261 10.0507 227.579 9.12601 230.569 9.12601C232.013 9.12601 233.305 9.30334 234.445 9.65801V0.462006L238.017 0.0440063ZM229.923 26.758C230.607 26.758 231.354 26.644 232.165 26.416C233.001 26.1627 233.761 25.8333 234.445 25.428V12.356C233.381 12.052 232.253 11.9 231.063 11.9C228.985 11.9 227.427 12.5333 226.389 13.8C225.375 15.0667 224.869 16.992 224.869 19.576C224.869 21.932 225.287 23.718 226.123 24.934C226.984 26.15 228.251 26.758 229.923 26.758Z" fill="white"/>
<path d="M216.758 28.278C215.01 29.1393 213.059 29.57 210.906 29.57C207.765 29.57 205.371 28.696 203.724 26.948C202.077 25.2 201.254 22.6413 201.254 19.272C201.254 17.1947 201.621 15.396 202.356 13.876C203.091 12.3307 204.117 11.1527 205.434 10.342C206.751 9.53134 208.259 9.12601 209.956 9.12601C212.337 9.12601 214.212 9.83534 215.58 11.254C216.948 12.6727 217.632 14.636 217.632 17.144C217.632 18.132 217.543 19.1073 217.366 20.07H204.788C204.864 24.554 207.043 26.796 211.324 26.796C213.173 26.796 214.985 26.3907 216.758 25.58V28.278ZM209.956 11.748C208.487 11.748 207.283 12.2673 206.346 13.306C205.434 14.3447 204.915 15.7507 204.788 17.524H214.326C214.351 17.3973 214.364 17.2707 214.364 17.144C214.364 17.0173 214.364 16.8907 214.364 16.764C214.364 15.1933 213.971 13.9647 213.186 13.078C212.426 12.1913 211.349 11.748 209.956 11.748Z" fill="white"/>
<path d="M192.996 12.28V23.376C192.996 24.516 193.249 25.3647 193.756 25.922C194.263 26.454 195.035 26.72 196.074 26.72C196.859 26.72 197.695 26.5807 198.582 26.302V28.848C197.518 29.2533 196.416 29.456 195.276 29.456C193.351 29.456 191.894 28.9493 190.906 27.936C189.918 26.9227 189.424 25.4407 189.424 23.49V12.28H186.536V9.84801L189.576 9.73401L189.842 4.90801L192.996 4.56601V9.69601H198.392V12.28H192.996Z" fill="white"/>
<path d="M179.275 29V10L182.847 9.582V29H179.275ZM181.061 5.744C180.326 5.744 179.743 5.554 179.313 5.174C178.907 4.76867 178.705 4.224 178.705 3.54C178.705 2.856 178.907 2.324 179.313 1.944C179.743 1.53867 180.326 1.336 181.061 1.336C181.795 1.336 182.365 1.53867 182.771 1.944C183.201 2.324 183.417 2.856 183.417 3.54C183.417 4.224 183.201 4.76867 182.771 5.174C182.365 5.554 181.795 5.744 181.061 5.744Z" fill="white"/>
<path d="M170.16 29V15.586C170.16 13.154 168.982 11.938 166.626 11.938C165.208 11.938 163.713 12.4067 162.142 13.344C162.269 13.9013 162.332 14.4587 162.332 15.016V29H158.76V15.586C158.76 13.154 157.582 11.938 155.226 11.938C153.833 11.938 152.402 12.3813 150.932 13.268V29H147.36V9.92401L150.248 9.62001L150.476 10.95C152.427 9.73401 154.34 9.12601 156.214 9.12601C158.393 9.12601 160.04 9.82267 161.154 11.216C163.434 9.82267 165.588 9.12601 167.614 9.12601C169.514 9.12601 171.009 9.64534 172.098 10.684C173.188 11.7227 173.732 13.1667 173.732 15.016V29H170.16Z" fill="white"/>
<path d="M138.009 29V10L141.581 9.582V29H138.009ZM139.795 5.744C139.06 5.744 138.478 5.554 138.047 5.174C137.642 4.76867 137.439 4.224 137.439 3.54C137.439 2.856 137.642 2.324 138.047 1.944C138.478 1.53867 139.06 1.336 139.795 1.336C140.53 1.336 141.1 1.53867 141.505 1.944C141.936 2.324 142.151 2.856 142.151 3.54C142.151 4.224 141.936 4.76867 141.505 5.174C141.1 5.554 140.53 5.744 139.795 5.744Z" fill="white"/>
<path d="M128.657 29V0.462006L132.229 0.0440063V29H128.657Z" fill="white"/>
<path d="M119.521 29V16.004C119.521 13.2933 118.178 11.938 115.493 11.938C114.784 11.938 113.986 12.0647 113.099 12.318C112.238 12.546 111.452 12.8627 110.743 13.268V29H107.171V9.92401L110.059 9.62001L110.287 10.95C112.364 9.73401 114.429 9.12601 116.481 9.12601C118.584 9.12601 120.205 9.68334 121.345 10.798C122.51 11.8873 123.093 13.4453 123.093 15.472V29H119.521Z" fill="white"/>
<path d="M98.525 29.076L98.297 27.746C96.2196 28.962 94.155 29.57 92.103 29.57C90.051 29.57 88.455 29.0127 87.315 27.898C86.175 26.7833 85.605 25.2253 85.605 23.224V9.69601H89.177V22.692C89.177 25.4027 90.4816 26.758 93.091 26.758C93.8256 26.758 94.6236 26.644 95.485 26.416C96.3463 26.1627 97.1316 25.8334 97.841 25.428V9.69601H101.413V28.772L98.525 29.076Z" fill="white"/>
<path d="M67.1967 29V16.004C67.1967 13.2933 65.854 11.938 63.1687 11.938C62.4593 11.938 61.6613 12.0647 60.7747 12.318C59.9133 12.546 59.128 12.8627 58.4187 13.268V29H54.8467V9.92401L57.7347 9.62001L57.9627 10.95C60.04 9.73401 62.1047 9.12601 64.1567 9.12601C66.2593 9.12601 67.8807 9.68334 69.0207 10.798C70.186 11.8873 70.7687 13.4453 70.7687 15.472V29H67.1967Z" fill="white"/>
<path d="M40.9678 29V9.92401L43.8558 9.62001L44.1598 11.368C45.8318 9.94934 47.6178 9.24001 49.5178 9.24001C50.1004 9.24001 50.6831 9.32867 51.2658 9.50601V12.432C50.6578 12.28 50.0371 12.204 49.4038 12.204C47.5798 12.204 45.9584 12.774 44.5398 13.914V29H40.9678Z" fill="white"/>
<path d="M32.5259 29.076L32.2979 27.746C30.1699 28.962 28.1052 29.57 26.1039 29.57C24.1025 29.57 22.5065 29.038 21.3159 27.974C20.1505 26.8847 19.5679 25.428 19.5679 23.604C19.5679 21.704 20.2265 20.2347 21.5439 19.196C22.8612 18.132 24.7105 17.6 27.0919 17.6C28.4852 17.6 30.0939 17.7647 31.9179 18.094V16.08C31.9179 14.6867 31.5125 13.648 30.7019 12.964C29.9165 12.28 28.7005 11.938 27.0539 11.938C25.1285 11.938 23.0259 12.3813 20.7459 13.268V10.494C21.8099 10.0633 22.9625 9.73401 24.2039 9.50601C25.4452 9.25268 26.6232 9.12601 27.7379 9.12601C30.2459 9.12601 32.1459 9.70867 33.4379 10.874C34.7552 12.0393 35.4139 13.7493 35.4139 16.004V28.772L32.5259 29.076ZM27.0159 26.796C27.7505 26.796 28.5739 26.6693 29.4859 26.416C30.3979 26.1627 31.2085 25.8333 31.9179 25.428V20.564C30.7272 20.26 29.3212 20.108 27.6999 20.108C26.1799 20.108 25.0525 20.3993 24.3179 20.982C23.6085 21.5393 23.2539 22.388 23.2539 23.528C23.2539 25.7067 24.5079 26.796 27.0159 26.796Z" fill="white"/>
<path d="M4.06784 17.03V25.96H16.6078V29H0.381836V2.40001H16.5318V5.44001H4.06784V13.99H14.9358V17.03H4.06784Z" fill="white"/>
</svg>
