<svg width="442" height="29" viewBox="0 0 442 29" fill="none" xmlns="http://www.w3.org/2000/svg">
<path d="M438.28 15.9573L437.938 2.04779L440.732 1.76276L440.39 15.9573H438.28ZM439.335 22.1425C438.822 22.1425 438.404 21.981 438.081 21.658C437.758 21.3349 437.596 20.9169 437.596 20.4038C437.596 19.8908 437.758 19.4727 438.081 19.1497C438.404 18.8267 438.822 18.6651 439.335 18.6651C439.848 18.6651 440.266 18.8267 440.589 19.1497C440.912 19.4727 441.074 19.8908 441.074 20.4038C441.074 20.9169 440.912 21.3349 440.589 21.658C440.266 21.981 439.848 22.1425 439.335 22.1425Z" fill="white"/>
<path d="M423.257 19.3492C424.777 20.0143 426.297 20.3468 427.817 20.3468C428.919 20.3468 429.756 20.1378 430.326 19.7197C430.915 19.3017 431.209 18.7031 431.209 17.924C431.209 17.411 431.048 16.9929 430.725 16.6699C430.402 16.3469 429.87 16.0713 429.128 15.8433L427.19 15.2447C425.898 14.8457 424.958 14.3326 424.368 13.7056C423.779 13.0785 423.485 12.2804 423.485 11.3113C423.485 10.0192 423.988 8.99305 424.996 8.23296C426.003 7.47288 427.361 7.09283 429.071 7.09283C430.516 7.09283 431.893 7.37787 433.204 7.94793V10.0002C431.76 9.4491 430.44 9.17357 429.242 9.17357C428.273 9.17357 427.513 9.36359 426.962 9.74363C426.43 10.1047 426.164 10.5987 426.164 11.2258C426.164 11.6819 426.307 12.0429 426.592 12.3089C426.877 12.5559 427.409 12.803 428.188 13.05L430.354 13.7056C432.71 14.4087 433.889 15.8053 433.889 17.8955C433.889 19.3587 433.385 20.4798 432.378 21.2589C431.371 22.038 429.917 22.4276 428.017 22.4276C426.25 22.4276 424.768 22.133 423.57 21.5439L423.257 19.3492Z" fill="white"/>
<path d="M410.286 19.3492C411.806 20.0143 413.326 20.3468 414.846 20.3468C415.948 20.3468 416.784 20.1378 417.354 19.7197C417.943 19.3017 418.238 18.7031 418.238 17.924C418.238 17.411 418.077 16.9929 417.753 16.6699C417.43 16.3469 416.898 16.0713 416.157 15.8433L414.219 15.2447C412.927 14.8457 411.986 14.3326 411.397 13.7056C410.808 13.0785 410.514 12.2804 410.514 11.3113C410.514 10.0192 411.017 8.99305 412.024 8.23296C413.031 7.47288 414.39 7.09283 416.1 7.09283C417.544 7.09283 418.922 7.37787 420.233 7.94793V10.0002C418.789 9.4491 417.468 9.17357 416.271 9.17357C415.302 9.17357 414.542 9.36359 413.991 9.74363C413.459 10.1047 413.193 10.5987 413.193 11.2258C413.193 11.6819 413.335 12.0429 413.621 12.3089C413.906 12.5559 414.438 12.803 415.217 13.05L417.383 13.7056C419.739 14.4087 420.917 15.8053 420.917 17.8955C420.917 19.3587 420.414 20.4798 419.407 21.2589C418.4 22.038 416.946 22.4276 415.046 22.4276C413.278 22.4276 411.796 22.133 410.599 21.5439L410.286 19.3492Z" fill="white"/>
<path d="M407.138 21.4584C405.827 22.1045 404.364 22.4276 402.749 22.4276C400.392 22.4276 398.597 21.772 397.361 20.4608C396.126 19.1497 395.509 17.2305 395.509 14.7032C395.509 13.145 395.784 11.7959 396.335 10.6557C396.886 9.4966 397.656 8.613 398.644 8.00494C399.632 7.39687 400.763 7.09283 402.036 7.09283C403.822 7.09283 405.228 7.6249 406.254 8.68902C407.281 9.75314 407.794 11.2258 407.794 13.107C407.794 13.8481 407.727 14.5797 407.594 15.3018H398.16C398.217 18.6651 399.851 20.3468 403.062 20.3468C404.449 20.3468 405.808 20.0428 407.138 19.4347V21.4584ZM402.036 9.05956C400.934 9.05956 400.031 9.4491 399.328 10.2282C398.644 11.0073 398.255 12.0619 398.16 13.392H405.314C405.333 13.297 405.342 13.202 405.342 13.107C405.342 13.012 405.342 12.917 405.342 12.822C405.342 11.6438 405.048 10.7222 404.459 10.0572C403.889 9.39209 403.081 9.05956 402.036 9.05956Z" fill="white"/>
<path d="M389.511 22V12.2519C389.511 10.2187 388.504 9.20207 386.489 9.20207C385.957 9.20207 385.359 9.29708 384.694 9.48711C384.048 9.65813 383.458 9.89565 382.926 10.1997V22H380.247V7.69141L382.413 7.46338L382.584 8.46099C384.143 7.54889 385.691 7.09283 387.23 7.09283C388.808 7.09283 390.024 7.51088 390.879 8.34698C391.753 9.16407 392.19 10.3327 392.19 11.8529V22H389.511Z" fill="white"/>
<path d="M373.233 22V7.74842L375.912 7.43488V22H373.233ZM374.572 4.55606C374.021 4.55606 373.584 4.41354 373.261 4.12851C372.957 3.82448 372.805 3.41594 372.805 2.90288C372.805 2.38982 372.957 1.99077 373.261 1.70574C373.584 1.40171 374.021 1.24969 374.572 1.24969C375.123 1.24969 375.551 1.40171 375.855 1.70574C376.178 1.99077 376.34 2.38982 376.34 2.90288C376.34 3.41594 376.178 3.82448 375.855 4.12851C375.551 4.41354 375.123 4.55606 374.572 4.55606Z" fill="white"/>
<path d="M359.264 19.3492C360.784 20.0143 362.304 20.3468 363.824 20.3468C364.926 20.3468 365.762 20.1378 366.332 19.7197C366.922 19.3017 367.216 18.7031 367.216 17.924C367.216 17.411 367.055 16.9929 366.732 16.6699C366.408 16.3469 365.876 16.0713 365.135 15.8433L363.197 15.2447C361.905 14.8457 360.964 14.3326 360.375 13.7056C359.786 13.0785 359.492 12.2804 359.492 11.3113C359.492 10.0192 359.995 8.99305 361.002 8.23296C362.009 7.47288 363.368 7.09283 365.078 7.09283C366.522 7.09283 367.9 7.37787 369.211 7.94793V10.0002C367.767 9.4491 366.446 9.17357 365.249 9.17357C364.28 9.17357 363.52 9.36359 362.969 9.74363C362.437 10.1047 362.171 10.5987 362.171 11.2258C362.171 11.6819 362.314 12.0429 362.599 12.3089C362.884 12.5559 363.416 12.803 364.195 13.05L366.361 13.7056C368.717 14.4087 369.895 15.8053 369.895 17.8955C369.895 19.3587 369.392 20.4798 368.385 21.2589C367.378 22.038 365.924 22.4276 364.024 22.4276C362.256 22.4276 360.774 22.133 359.577 21.5439L359.264 19.3492Z" fill="white"/>
<path d="M353.777 22.057L353.606 21.0594C352.047 21.9715 350.499 22.4276 348.96 22.4276C347.42 22.4276 346.223 22.0095 345.368 21.1734C344.513 20.3373 344.085 19.1687 344.085 17.6675V7.52039H346.765V17.2685C346.765 19.3017 347.743 20.3183 349.701 20.3183C350.252 20.3183 350.85 20.2328 351.496 20.0618C352.142 19.8718 352.731 19.6247 353.263 19.3207V7.52039H355.943V21.829L353.777 22.057Z" fill="white"/>
<path d="M330.791 8.23296C332.216 7.47288 333.556 7.09283 334.81 7.09283C336.672 7.09283 338.126 7.75791 339.171 9.08806C340.235 10.3992 340.767 12.2139 340.767 14.5322C340.767 17.0784 340.121 19.0357 338.829 20.4038C337.537 21.753 335.694 22.4276 333.299 22.4276C331.589 22.4276 329.86 22.1805 328.112 21.6865V0.594109L330.791 0.280579V8.23296ZM334.183 9.20207C333.67 9.20207 333.1 9.29708 332.473 9.48711C331.865 9.65813 331.304 9.89565 330.791 10.1997V20.0048C331.589 20.2328 332.435 20.3468 333.328 20.3468C334.886 20.3468 336.045 19.8718 336.805 18.9217C337.584 17.9715 337.974 16.5274 337.974 14.5892C337.974 12.822 337.651 11.4823 337.005 10.5702C336.378 9.65812 335.437 9.20207 334.183 9.20207Z" fill="white"/>
<path d="M310.576 22V7.69141L312.742 7.46338L312.97 8.77452C314.224 7.7104 315.564 7.17834 316.989 7.17834C317.426 7.17834 317.863 7.24485 318.3 7.37787V9.57262C317.844 9.4586 317.378 9.4016 316.903 9.4016C315.535 9.4016 314.319 9.82914 313.255 10.6842V22H310.576Z" fill="white"/>
<path d="M304.091 22.057L303.919 21.0594C302.361 21.9715 300.813 22.4276 299.273 22.4276C297.734 22.4276 296.537 22.0095 295.682 21.1734C294.827 20.3373 294.399 19.1687 294.399 17.6675V7.52039H297.079V17.2685C297.079 19.3017 298.057 20.3183 300.015 20.3183C300.566 20.3183 301.164 20.2328 301.81 20.0618C302.456 19.8718 303.045 19.6247 303.577 19.3207V7.52039H306.257V21.829L304.091 22.057Z" fill="white"/>
<path d="M284.517 20.3183C285.847 20.3183 286.807 19.8813 287.396 19.0072C288.004 18.1331 288.308 16.7174 288.308 14.7602C288.308 12.803 288.004 11.3873 287.396 10.5132C286.807 9.63912 285.847 9.20207 284.517 9.20207C283.187 9.20207 282.218 9.63912 281.61 10.5132C281.021 11.3873 280.726 12.803 280.726 14.7602C280.726 16.7174 281.021 18.1331 281.61 19.0072C282.218 19.8813 283.187 20.3183 284.517 20.3183ZM284.517 22.4276C282.351 22.4276 280.707 21.7815 279.586 20.4893C278.484 19.1782 277.933 17.2685 277.933 14.7602C277.933 12.2519 278.484 10.3517 279.586 9.05956C280.707 7.74841 282.351 7.09283 284.517 7.09283C286.684 7.09283 288.318 7.74841 289.42 9.05956C290.541 10.3517 291.102 12.2519 291.102 14.7602C291.102 17.2685 290.541 19.1782 289.42 20.4893C288.318 21.7815 286.684 22.4276 284.517 22.4276Z" fill="white"/>
<path d="M263.606 26.1615C264.518 26.0094 265.269 25.7909 265.858 25.5059C266.466 25.2209 266.998 24.8123 267.454 24.2803C267.91 23.7482 268.347 23.0356 268.765 22.1425L263.321 7.52039H266.171L270.076 19.1212L273.981 7.52039H276.717L271.473 21.4584C270.903 22.9786 270.314 24.1947 269.706 25.1068C269.097 26.038 268.375 26.76 267.539 27.2731C266.703 27.8051 265.601 28.2137 264.233 28.4987L263.606 26.1615Z" fill="white"/>
<path d="M247.78 22V7.69141L249.946 7.46338L250.174 8.77452C251.428 7.7104 252.768 7.17834 254.193 7.17834C254.63 7.17834 255.067 7.24485 255.504 7.37787V9.57262C255.048 9.4586 254.583 9.4016 254.107 9.4016C252.739 9.4016 251.523 9.82914 250.459 10.6842V22H247.78Z" fill="white"/>
<path d="M237.726 20.3183C239.056 20.3183 240.016 19.8813 240.605 19.0072C241.213 18.1331 241.517 16.7174 241.517 14.7602C241.517 12.803 241.213 11.3873 240.605 10.5132C240.016 9.63912 239.056 9.20207 237.726 9.20207C236.396 9.20207 235.427 9.63912 234.819 10.5132C234.23 11.3873 233.935 12.803 233.935 14.7602C233.935 16.7174 234.23 18.1331 234.819 19.0072C235.427 19.8813 236.396 20.3183 237.726 20.3183ZM237.726 22.4276C235.56 22.4276 233.916 21.7815 232.795 20.4893C231.693 19.1782 231.142 17.2685 231.142 14.7602C231.142 12.2519 231.693 10.3517 232.795 9.05956C233.916 7.74841 235.56 7.09283 237.726 7.09283C239.893 7.09283 241.527 7.74841 242.629 9.05956C243.75 10.3517 244.311 12.2519 244.311 14.7602C244.311 17.2685 243.75 19.1782 242.629 20.4893C241.527 21.7815 239.893 22.4276 237.726 22.4276Z" fill="white"/>
<path d="M222.937 22V9.4586H220.771V7.6344L222.937 7.54889V4.72707C222.937 3.22591 223.326 2.06678 224.105 1.24969C224.884 0.413594 225.996 -0.00445557 227.44 -0.00445557C228.276 -0.00445557 229.131 0.147558 230.006 0.451591V2.36131C229.226 2.15228 228.561 2.04778 228.01 2.04778C226.414 2.04778 225.616 2.89337 225.616 4.58456V7.52039H229.293V9.4586H225.616V22H222.937Z" fill="white"/>
<path d="M199.752 26.1615C200.664 26.0094 201.415 25.7909 202.004 25.5059C202.612 25.2209 203.144 24.8123 203.6 24.2803C204.056 23.7482 204.493 23.0356 204.911 22.1425L199.467 7.52039H202.317L206.222 19.1212L210.127 7.52039H212.863L207.619 21.4584C207.049 22.9786 206.46 24.1947 205.852 25.1068C205.243 26.038 204.521 26.76 203.685 27.2731C202.849 27.8051 201.747 28.2137 200.379 28.4987L199.752 26.1615Z" fill="white"/>
<path d="M195.13 22.057L194.959 21.0594C193.363 21.9715 191.814 22.4276 190.313 22.4276C188.812 22.4276 187.614 22.0285 186.721 21.2304C185.847 20.4133 185.41 19.3207 185.41 17.9525C185.41 16.5274 185.904 15.4253 186.892 14.6462C187.88 13.8481 189.268 13.449 191.054 13.449C192.099 13.449 193.306 13.5726 194.674 13.8196V12.3089C194.674 11.2638 194.37 10.4847 193.762 9.97166C193.173 9.4586 192.26 9.20207 191.025 9.20207C189.581 9.20207 188.004 9.53461 186.294 10.1997V8.11895C187.092 7.79591 187.956 7.54889 188.888 7.37787C189.819 7.18785 190.702 7.09283 191.538 7.09283C193.42 7.09283 194.845 7.52989 195.814 8.40398C196.802 9.27808 197.296 10.5607 197.296 12.2519V21.829L195.13 22.057ZM190.997 20.3468C191.548 20.3468 192.165 20.2518 192.849 20.0618C193.534 19.8718 194.142 19.6247 194.674 19.3207V15.6723C193.781 15.4443 192.726 15.3303 191.51 15.3303C190.37 15.3303 189.524 15.5488 188.973 15.9858C188.441 16.4039 188.175 17.0404 188.175 17.8955C188.175 19.5297 189.116 20.3468 190.997 20.3468Z" fill="white"/>
<path d="M179.194 22V0.594109L181.873 0.280579V22H179.194Z" fill="white"/>
<path d="M163.049 28.4417V7.69141L165.216 7.46338L165.387 8.46099C166.888 7.54889 168.341 7.09283 169.748 7.09283C171.61 7.09283 173.063 7.75791 174.109 9.08806C175.173 10.3992 175.705 12.2139 175.705 14.5322C175.705 17.0404 175.087 18.9882 173.852 20.3753C172.617 21.7435 170.878 22.4276 168.636 22.4276C167.553 22.4276 166.584 22.2945 165.729 22.0285V28.1282L163.049 28.4417ZM169.12 9.20207C168.607 9.20207 168.037 9.29708 167.41 9.48711C166.802 9.65813 166.242 9.89565 165.729 10.1997V20.0048C166.527 20.2328 167.372 20.3468 168.265 20.3468C169.824 20.3468 170.983 19.8718 171.743 18.9217C172.522 17.9715 172.911 16.5274 172.911 14.5892C172.911 12.822 172.588 11.4823 171.942 10.5702C171.315 9.65812 170.375 9.20207 169.12 9.20207Z" fill="white"/>
<path d="M141.955 19.3492C143.475 20.0143 144.995 20.3468 146.516 20.3468C147.618 20.3468 148.454 20.1378 149.024 19.7197C149.613 19.3017 149.907 18.7031 149.907 17.924C149.907 17.411 149.746 16.9929 149.423 16.6699C149.1 16.3469 148.568 16.0713 147.827 15.8433L145.889 15.2447C144.596 14.8457 143.656 14.3326 143.067 13.7056C142.478 13.0785 142.183 12.2804 142.183 11.3113C142.183 10.0192 142.687 8.99305 143.694 8.23296C144.701 7.47288 146.06 7.09283 147.77 7.09283C149.214 7.09283 150.592 7.37787 151.903 7.94793V10.0002C150.459 9.4491 149.138 9.17357 147.941 9.17357C146.972 9.17357 146.212 9.36359 145.66 9.74363C145.128 10.1047 144.862 10.5987 144.862 11.2258C144.862 11.6819 145.005 12.0429 145.29 12.3089C145.575 12.5559 146.107 12.803 146.886 13.05L149.052 13.7056C151.409 14.4087 152.587 15.8053 152.587 17.8955C152.587 19.3587 152.083 20.4798 151.076 21.2589C150.069 22.038 148.615 22.4276 146.715 22.4276C144.948 22.4276 143.466 22.133 142.269 21.5439L141.955 19.3492Z" fill="white"/>
<path d="M136.467 22.057L136.296 21.0594C134.738 21.9715 133.19 22.4276 131.65 22.4276C130.111 22.4276 128.914 22.0095 128.059 21.1734C127.204 20.3373 126.776 19.1687 126.776 17.6675V7.52039H129.456V17.2685C129.456 19.3017 130.434 20.3183 132.391 20.3183C132.943 20.3183 133.541 20.2328 134.187 20.0618C134.833 19.8718 135.422 19.6247 135.954 19.3207V7.52039H138.634V21.829L136.467 22.057Z" fill="white"/>
<path d="M116.894 20.3183C118.224 20.3183 119.184 19.8813 119.773 19.0072C120.381 18.1331 120.685 16.7174 120.685 14.7602C120.685 12.803 120.381 11.3873 119.773 10.5132C119.184 9.63912 118.224 9.20207 116.894 9.20207C115.564 9.20207 114.595 9.63912 113.986 10.5132C113.397 11.3873 113.103 12.803 113.103 14.7602C113.103 16.7174 113.397 18.1331 113.986 19.0072C114.595 19.8813 115.564 20.3183 116.894 20.3183ZM116.894 22.4276C114.728 22.4276 113.084 21.7815 111.963 20.4893C110.861 19.1782 110.31 17.2685 110.31 14.7602C110.31 12.2519 110.861 10.3517 111.963 9.05956C113.084 7.74841 114.728 7.09283 116.894 7.09283C119.06 7.09283 120.694 7.74841 121.796 9.05956C122.917 10.3517 123.478 12.2519 123.478 14.7602C123.478 17.2685 122.917 19.1782 121.796 20.4893C120.694 21.7815 119.06 22.4276 116.894 22.4276Z" fill="white"/>
<path d="M104.15 22V7.74842L106.83 7.43488V22H104.15ZM105.49 4.55606C104.939 4.55606 104.502 4.41354 104.179 4.12851C103.875 3.82448 103.723 3.41594 103.723 2.90288C103.723 2.38982 103.875 1.99077 104.179 1.70574C104.502 1.40171 104.939 1.24969 105.49 1.24969C106.041 1.24969 106.468 1.40171 106.772 1.70574C107.096 1.99077 107.257 2.38982 107.257 2.90288C107.257 3.41594 107.096 3.82448 106.772 4.12851C106.468 4.41354 106.041 4.55606 105.49 4.55606Z" fill="white"/>
<path d="M93.7402 22V7.69141L95.9065 7.46338L96.1345 8.77452C97.3886 7.7104 98.7283 7.17834 100.153 7.17834C100.59 7.17834 101.028 7.24485 101.465 7.37787V9.57262C101.009 9.4586 100.543 9.4016 100.068 9.4016C98.6998 9.4016 97.4837 9.82914 96.4195 10.6842V22H93.7402Z" fill="white"/>
<path d="M89.5946 21.4584C88.2835 22.1045 86.8203 22.4276 85.2051 22.4276C82.8489 22.4276 81.0532 21.772 79.818 20.4608C78.5829 19.1497 77.9653 17.2305 77.9653 14.7032C77.9653 13.145 78.2409 11.7959 78.7919 10.6557C79.343 9.4966 80.1126 8.613 81.1007 8.00494C82.0888 7.39687 83.2194 7.09283 84.4926 7.09283C86.2788 7.09283 87.6849 7.6249 88.711 8.68902C89.7371 9.75314 90.2502 11.2258 90.2502 13.107C90.2502 13.8481 90.1837 14.5797 90.0507 15.3018H80.6161C80.6731 18.6651 82.3073 20.3468 85.5187 20.3468C86.9058 20.3468 88.2645 20.0428 89.5946 19.4347V21.4584ZM84.4926 9.05956C83.3904 9.05956 82.4878 9.4491 81.7848 10.2282C81.1007 11.0073 80.7111 12.0619 80.6161 13.392H87.7704C87.7894 13.297 87.7989 13.202 87.7989 13.107C87.7989 13.012 87.7989 12.917 87.7989 12.822C87.7989 11.6438 87.5044 10.7222 86.9153 10.0572C86.3453 9.39209 85.5377 9.05956 84.4926 9.05956Z" fill="white"/>
<path d="M64.8516 19.3492C66.3717 20.0143 67.8919 20.3468 69.4121 20.3468C70.5142 20.3468 71.3503 20.1378 71.9203 19.7197C72.5094 19.3017 72.8039 18.7031 72.8039 17.924C72.8039 17.411 72.6424 16.9929 72.3194 16.6699C71.9964 16.3469 71.4643 16.0713 70.7232 15.8433L68.785 15.2447C67.4929 14.8457 66.5523 14.3326 65.9632 13.7056C65.3741 13.0785 65.0796 12.2804 65.0796 11.3113C65.0796 10.0192 65.5831 8.99305 66.5903 8.23296C67.5974 7.47288 68.956 7.09283 70.6662 7.09283C72.1104 7.09283 73.488 7.37787 74.7992 7.94793V10.0002C73.355 9.4491 72.0344 9.17357 70.8372 9.17357C69.8681 9.17357 69.108 9.36359 68.557 9.74363C68.0249 10.1047 67.7589 10.5987 67.7589 11.2258C67.7589 11.6819 67.9014 12.0429 68.1864 12.3089C68.4715 12.5559 69.0035 12.803 69.7826 13.05L71.9489 13.7056C74.3051 14.4087 75.4832 15.8053 75.4832 17.8955C75.4832 19.3587 74.9797 20.4798 73.9726 21.2589C72.9655 22.038 71.5118 22.4276 69.6116 22.4276C67.8444 22.4276 66.3622 22.133 65.1651 21.5439L64.8516 19.3492Z" fill="white"/>
<path d="M52.3915 22.057L52.2204 21.0594C50.6243 21.9715 49.0756 22.4276 47.5744 22.4276C46.0733 22.4276 44.8761 22.0285 43.983 21.2304C43.1089 20.4133 42.6719 19.3207 42.6719 17.9525C42.6719 16.5274 43.1659 15.4253 44.154 14.6462C45.1422 13.8481 46.5293 13.449 48.3155 13.449C49.3606 13.449 50.5673 13.5726 51.9354 13.8196V12.3089C51.9354 11.2638 51.6314 10.4847 51.0233 9.97166C50.4342 9.4586 49.5221 9.20207 48.287 9.20207C46.8428 9.20207 45.2657 9.53461 43.5555 10.1997V8.11895C44.3536 7.79591 45.2182 7.54889 46.1493 7.37787C47.0804 7.18785 47.964 7.09283 48.8001 7.09283C50.6813 7.09283 52.1064 7.52989 53.0755 8.40398C54.0636 9.27808 54.5577 10.5607 54.5577 12.2519V21.829L52.3915 22.057ZM48.2585 20.3468C48.8096 20.3468 49.4271 20.2518 50.1112 20.0618C50.7953 19.8718 51.4033 19.6247 51.9354 19.3207V15.6723C51.0423 15.4443 49.9877 15.3303 48.7716 15.3303C47.6314 15.3303 46.7858 15.5488 46.2348 15.9858C45.7027 16.4039 45.4367 17.0404 45.4367 17.8955C45.4367 19.5297 46.3773 20.3468 48.2585 20.3468Z" fill="white"/>
<path d="M22.375 19.3492C23.8952 20.0143 25.4153 20.3468 26.9355 20.3468C28.0376 20.3468 28.8737 20.1378 29.4438 19.7197C30.0329 19.3017 30.3274 18.7031 30.3274 17.924C30.3274 17.411 30.1659 16.9929 29.8428 16.6699C29.5198 16.3469 28.9877 16.0713 28.2467 15.8433L26.3084 15.2447C25.0163 14.8457 24.0757 14.3326 23.4866 13.7056C22.8976 13.0785 22.603 12.2804 22.603 11.3113C22.603 10.0192 23.1066 8.99305 24.1137 8.23296C25.1208 7.47288 26.4795 7.09283 28.1896 7.09283C29.6338 7.09283 31.0115 7.37787 32.3226 7.94793V10.0002C30.8784 9.4491 29.5578 9.17357 28.3607 9.17357C27.3916 9.17357 26.6315 9.36359 26.0804 9.74363C25.5484 10.1047 25.2823 10.5987 25.2823 11.2258C25.2823 11.6819 25.4248 12.0429 25.7099 12.3089C25.9949 12.5559 26.527 12.803 27.306 13.05L29.4723 13.7056C31.8286 14.4087 33.0067 15.8053 33.0067 17.8955C33.0067 19.3587 32.5031 20.4798 31.496 21.2589C30.4889 22.038 29.0352 22.4276 27.135 22.4276C25.3678 22.4276 23.8857 22.133 22.6885 21.5439L22.375 19.3492Z" fill="white"/>
<path d="M16.3809 9.11658C16.9699 8.4515 17.445 7.72943 17.806 6.95034C18.1671 6.15225 18.3571 5.40166 18.3761 4.69859C17.996 4.60357 17.692 4.41355 17.464 4.12852C17.255 3.82448 17.1504 3.47295 17.1504 3.07391C17.1504 2.57985 17.312 2.1713 17.635 1.84827C17.977 1.52523 18.3951 1.36371 18.8891 1.36371C19.4022 1.36371 19.8107 1.55373 20.1148 1.93378C20.4378 2.31382 20.5993 2.83638 20.5993 3.50145C20.5993 4.18553 20.4378 4.92661 20.1148 5.7247C19.7917 6.50379 19.3642 7.23536 18.8321 7.91944C18.3191 8.60352 17.7585 9.17359 17.1504 9.62964L16.3809 9.11658Z" fill="white"/>
<path d="M10.7567 9.4586V17.7815C10.7567 18.6366 10.9467 19.2732 11.3267 19.6912C11.7068 20.0903 12.2863 20.2898 13.0654 20.2898C13.6545 20.2898 14.2816 20.1853 14.9466 19.9763V21.886C14.1486 22.19 13.322 22.342 12.4669 22.342C11.0227 22.342 9.93008 21.962 9.189 21.2019C8.44792 20.4418 8.07737 19.3302 8.07737 17.867V9.4586H5.91113V7.6344L8.19139 7.54889L8.39091 3.92899L10.7567 3.67245V7.52039H14.8041V9.4586H10.7567Z" fill="white"/>
<path d="M0 22V2.04779H2.76481V22H0Z" fill="white"/>
</svg>
