<svg width="267" height="29" viewBox="0 0 267 29" fill="none" xmlns="http://www.w3.org/2000/svg">
<path d="M264.448 21.8619C263.935 21.8619 263.517 21.7004 263.194 21.3774C262.87 21.0543 262.709 20.6363 262.709 20.1232C262.709 19.6102 262.87 19.1921 263.194 18.8691C263.517 18.5461 263.935 18.3846 264.448 18.3846C264.961 18.3846 265.379 18.5461 265.702 18.8691C266.025 19.1921 266.186 19.6102 266.186 20.1232C266.186 20.6363 266.025 21.0543 265.702 21.3774C265.379 21.7004 264.961 21.8619 264.448 21.8619Z" fill="white"/>
<path d="M249.424 19.0686C250.944 19.7337 252.465 20.0662 253.985 20.0662C255.087 20.0662 255.923 19.8572 256.493 19.4392C257.082 19.0211 257.377 18.4226 257.377 17.6435C257.377 17.1304 257.215 16.7124 256.892 16.3893C256.569 16.0663 256.037 15.7908 255.296 15.5627L253.358 14.9642C252.066 14.5651 251.125 14.0521 250.536 13.425C249.947 12.7979 249.652 11.9998 249.652 11.0307C249.652 9.73858 250.156 8.71247 251.163 7.95238C252.17 7.1923 253.529 6.81226 255.239 6.81226C256.683 6.81226 258.061 7.09729 259.372 7.66735V9.71958C257.928 9.16852 256.607 8.89299 255.41 8.89299C254.441 8.89299 253.681 9.08301 253.13 9.46305C252.598 9.82409 252.332 10.3181 252.332 10.9452C252.332 11.4013 252.474 11.7623 252.759 12.0283C253.044 12.2754 253.576 12.5224 254.355 12.7694L256.522 13.425C258.878 14.1281 260.056 15.5247 260.056 17.615C260.056 19.0781 259.552 20.1992 258.545 20.9783C257.538 21.7574 256.085 22.147 254.184 22.147C252.417 22.147 250.935 21.8524 249.738 21.2634L249.424 19.0686Z" fill="white"/>
<path d="M243.937 21.7764L243.766 20.7788C242.207 21.6909 240.659 22.147 239.12 22.147C237.58 22.147 236.383 21.7289 235.528 20.8928C234.673 20.0567 234.246 18.8881 234.246 17.3869V7.23981H236.925V16.9879C236.925 19.0211 237.904 20.0377 239.861 20.0377C240.412 20.0377 241.01 19.9522 241.656 19.7812C242.303 19.5912 242.892 19.3442 243.424 19.0401V7.23981H246.103V21.5484L243.937 21.7764Z" fill="white"/>
<path d="M227.402 21.7194V0.313538L230.082 0V21.7194H227.402Z" fill="white"/>
<path d="M210.793 21.7194V2.19474C211.687 2.00472 212.684 1.85271 213.786 1.73869C214.907 1.62468 215.867 1.56767 216.665 1.56767C219.021 1.56767 220.855 2.11873 222.166 3.22086C223.496 4.32298 224.161 5.85265 224.161 7.80987C224.161 9.76709 223.468 11.3158 222.081 12.4559C220.713 13.577 218.831 14.1376 216.437 14.1376H213.53V21.7194H210.793ZM216.494 3.70541C215.62 3.70541 214.632 3.80042 213.53 3.99044V11.9998H216.409C217.967 11.9998 219.164 11.6388 220 10.9167C220.855 10.1946 221.283 9.16852 221.283 7.83837C221.283 6.48922 220.874 5.46311 220.057 4.76003C219.259 4.05695 218.071 3.70541 216.494 3.70541Z" fill="white"/>
<path d="M187.18 21.7194V0.313538L189.859 0V7.98089C191.323 7.20181 192.757 6.81226 194.163 6.81226C195.741 6.81226 196.957 7.23031 197.812 8.0664C198.686 8.88349 199.123 10.0521 199.123 11.5723V21.7194H196.444V11.9713C196.444 9.93811 195.437 8.9215 193.422 8.9215C192.89 8.9215 192.292 9.01651 191.627 9.20653C190.981 9.37755 190.392 9.61508 189.859 9.91911V21.7194H187.18Z" fill="white"/>
<path d="M173.211 19.0686C174.732 19.7337 176.252 20.0662 177.772 20.0662C178.874 20.0662 179.71 19.8572 180.28 19.4392C180.869 19.0211 181.164 18.4226 181.164 17.6435C181.164 17.1304 181.002 16.7124 180.679 16.3893C180.356 16.0663 179.824 15.7908 179.083 15.5627L177.145 14.9642C175.853 14.5651 174.912 14.0521 174.323 13.425C173.734 12.7979 173.439 11.9998 173.439 11.0307C173.439 9.73858 173.943 8.71247 174.95 7.95238C175.957 7.1923 177.316 6.81226 179.026 6.81226C180.47 6.81226 181.848 7.09729 183.159 7.66735V9.71958C181.715 9.16852 180.394 8.89299 179.197 8.89299C178.228 8.89299 177.468 9.08301 176.917 9.46305C176.385 9.82409 176.119 10.3181 176.119 10.9452C176.119 11.4013 176.261 11.7623 176.546 12.0283C176.831 12.2754 177.363 12.5224 178.142 12.7694L180.309 13.425C182.665 14.1281 183.843 15.5247 183.843 17.615C183.843 19.0781 183.34 20.1992 182.332 20.9783C181.325 21.7574 179.872 22.147 177.971 22.147C176.204 22.147 174.722 21.8524 173.525 21.2634L173.211 19.0686Z" fill="white"/>
<path d="M167.877 21.7764L167.706 20.7788C166.11 21.6909 164.561 22.147 163.06 22.147C161.559 22.147 160.361 21.7479 159.468 20.9498C158.594 20.1327 158.157 19.0401 158.157 17.672C158.157 16.2468 158.651 15.1447 159.639 14.3656C160.627 13.5675 162.015 13.1685 163.801 13.1685C164.846 13.1685 166.053 13.292 167.421 13.539V12.0283C167.421 10.9832 167.117 10.2041 166.509 9.69107C165.92 9.17802 165.007 8.92149 163.772 8.92149C162.328 8.92149 160.751 9.25403 159.041 9.9191V7.83837C159.839 7.51533 160.704 7.26831 161.635 7.09729C162.566 6.90727 163.449 6.81226 164.285 6.81226C166.167 6.81226 167.592 7.2493 168.561 8.1234C169.549 8.9975 170.043 10.2801 170.043 11.9713V21.5484L167.877 21.7764ZM163.744 20.0662C164.295 20.0662 164.912 19.9712 165.597 19.7812C166.281 19.5912 166.889 19.3442 167.421 19.0401V15.3917C166.528 15.1637 165.473 15.0497 164.257 15.0497C163.117 15.0497 162.271 15.2682 161.72 15.7052C161.188 16.1233 160.922 16.7599 160.922 17.615C160.922 19.2491 161.863 20.0662 163.744 20.0662Z" fill="white"/>
<path d="M155.422 20.8928C153.807 21.7289 152.031 22.147 150.092 22.147C147.432 22.147 145.37 21.2349 143.907 19.4107C142.444 17.5865 141.712 15.0307 141.712 11.7433C141.712 8.47494 142.444 5.92866 143.907 4.10445C145.389 2.26125 147.451 1.33965 150.092 1.33965C151.936 1.33965 153.684 1.75769 155.337 2.59379V4.84554C154.463 4.40849 153.655 4.10446 152.914 3.93344C152.173 3.74342 151.384 3.64841 150.548 3.64841C146.634 3.64841 144.677 6.34671 144.677 11.7433C144.677 17.1399 146.634 19.8382 150.548 19.8382C151.403 19.8382 152.211 19.7432 152.971 19.5532C153.75 19.3632 154.567 19.0591 155.422 18.6411V20.8928Z" fill="white"/>
<path d="M120.96 21.7194V0.313538L123.64 0V13.4535L129.597 7.23981H132.675L126.205 13.9666L132.989 21.7194H129.739L123.64 14.6221V21.7194H120.96Z" fill="white"/>
<path d="M110.55 21.7194V7.41082L112.717 7.1828L112.945 8.49395C114.199 7.42983 115.538 6.89777 116.964 6.89777C117.401 6.89777 117.838 6.96427 118.275 7.09729V9.29203C117.819 9.17802 117.353 9.12101 116.878 9.12101C115.51 9.12101 114.294 9.54856 113.23 10.4037V21.7194H110.55Z" fill="white"/>
<path d="M104.218 21.7764L104.047 20.7788C102.451 21.6909 100.902 22.147 99.4011 22.147C97.8999 22.147 96.7028 21.7479 95.8097 20.9498C94.9356 20.1327 94.4985 19.0401 94.4985 17.672C94.4985 16.2468 94.9926 15.1447 95.9807 14.3656C96.9688 13.5675 98.356 13.1685 100.142 13.1685C101.187 13.1685 102.394 13.292 103.762 13.539V12.0283C103.762 10.9832 103.458 10.2041 102.85 9.69107C102.261 9.17802 101.349 8.92149 100.114 8.92149C98.6695 8.92149 97.0923 9.25403 95.3821 9.9191V7.83837C96.1802 7.51533 97.0448 7.26831 97.9759 7.09729C98.907 6.90727 99.7906 6.81226 100.627 6.81226C102.508 6.81226 103.933 7.2493 104.902 8.1234C105.89 8.9975 106.384 10.2801 106.384 11.9713V21.5484L104.218 21.7764ZM100.085 20.0662C100.636 20.0662 101.254 19.9712 101.938 19.7812C102.622 19.5912 103.23 19.3442 103.762 19.0401V15.3917C102.869 15.1637 101.814 15.0497 100.598 15.0497C99.4581 15.0497 98.6125 15.2682 98.0614 15.7052C97.5294 16.1233 97.2633 16.7599 97.2633 17.615C97.2633 19.2491 98.2039 20.0662 100.085 20.0662Z" fill="white"/>
<path d="M79.1523 28.1611V7.41082L81.3186 7.1828L81.4896 8.18041C82.9908 7.26831 84.4444 6.81226 85.8506 6.81226C87.7128 6.81226 89.1665 7.47733 90.2116 8.80748C91.2757 10.1186 91.8078 11.9333 91.8078 14.2516C91.8078 16.7599 91.1902 18.7076 89.955 20.0947C88.7199 21.4629 86.9812 22.147 84.739 22.147C83.6558 22.147 82.6867 22.014 81.8316 21.7479V27.8476L79.1523 28.1611ZM85.2235 8.92149C84.7105 8.92149 84.1404 9.0165 83.5133 9.20652C82.9053 9.37754 82.3447 9.61507 81.8316 9.9191V19.7242C82.6297 19.9522 83.4753 20.0662 84.3684 20.0662C85.9266 20.0662 87.0857 19.5912 87.8458 18.6411C88.6249 17.691 89.0144 16.2468 89.0144 14.3086C89.0144 12.5414 88.6914 11.2017 88.0453 10.2896C87.4183 9.37754 86.4777 8.92149 85.2235 8.92149Z" fill="white"/>
<path d="M62.4814 18.5271C64.4197 19.4582 66.3389 19.9237 68.2391 19.9237C69.7593 19.9237 70.9374 19.6007 71.7735 18.9546C72.6096 18.3085 73.0276 17.3869 73.0276 16.1898C73.0276 15.3157 72.7616 14.6031 72.2295 14.0521C71.6975 13.501 70.8044 13.026 69.5502 12.6269L67.669 12.0283C65.9778 11.4963 64.7522 10.8312 63.9921 10.0331C63.251 9.21602 62.8805 8.18991 62.8805 6.95477C62.8805 5.24458 63.5171 3.88593 64.7902 2.87882C66.0633 1.8527 67.7735 1.33965 69.9208 1.33965C71.707 1.33965 73.4267 1.71019 75.0799 2.45127V4.64602C73.3317 3.92393 71.6975 3.5629 70.1773 3.5629C68.8092 3.5629 67.726 3.85743 66.9279 4.4465C66.1488 5.01656 65.7593 5.80515 65.7593 6.81226C65.7593 7.55334 65.9778 8.14241 66.4149 8.57946C66.8709 9.01651 67.65 9.41555 68.7521 9.77659L70.6334 10.3752C72.5146 10.9832 73.8637 11.7433 74.6808 12.6554C75.4979 13.5485 75.9064 14.7171 75.9064 16.1613C75.9064 18.0425 75.2509 19.5152 73.9397 20.5793C72.6286 21.6244 70.8139 22.147 68.4956 22.147C66.3864 22.147 64.5147 21.7479 62.8805 20.9498L62.4814 18.5271Z" fill="white"/>
<path d="M40.3223 21.7194V0.313538L43.0016 0V7.98089C44.4647 7.20181 45.8994 6.81226 47.3055 6.81226C48.8827 6.81226 50.0989 7.23031 50.954 8.0664C51.8281 8.88349 52.2651 10.0521 52.2651 11.5723V21.7194H49.5858V11.9713C49.5858 9.93811 48.5787 8.9215 46.5645 8.9215C46.0324 8.9215 45.4338 9.01651 44.7688 9.20653C44.1227 9.37755 43.5336 9.61508 43.0016 9.91911V21.7194H40.3223Z" fill="white"/>
<path d="M33.2733 9.17802V17.5009C33.2733 18.356 33.4633 18.9926 33.8433 19.4107C34.2234 19.8097 34.8029 20.0092 35.582 20.0092C36.1711 20.0092 36.7982 19.9047 37.4632 19.6957V21.6054C36.6652 21.9094 35.8386 22.0615 34.9835 22.0615C33.5393 22.0615 32.4467 21.6814 31.7056 20.9213C30.9645 20.1612 30.594 19.0496 30.594 17.5865V9.17802H28.4277V7.35382L30.708 7.26831L30.9075 3.64841L33.2733 3.39188V7.23981H37.3207V9.17802H33.2733Z" fill="white"/>
<path d="M22.9808 21.7194V7.46783L25.6601 7.15429V21.7194H22.9808ZM24.3204 4.27547C23.7694 4.27547 23.3323 4.13295 23.0093 3.84792C22.7052 3.54389 22.5532 3.13535 22.5532 2.62229C22.5532 2.10923 22.7052 1.71018 23.0093 1.42515C23.3323 1.12112 23.7694 0.969101 24.3204 0.969101C24.8715 0.969101 25.299 1.12112 25.6031 1.42515C25.9261 1.71018 26.0876 2.10923 26.0876 2.62229C26.0876 3.13535 25.9261 3.54389 25.6031 3.84792C25.299 4.13295 24.8715 4.27547 24.3204 4.27547Z" fill="white"/>
<path d="M13.653 21.7194L10.2611 10.0616L6.98328 21.7194H4.53201L0 7.23981H2.7078L5.81465 18.4701L8.89299 7.23981H11.7148L14.8502 18.4701L17.9285 7.23981H20.5508L16.1043 21.7194H13.653Z" fill="white"/>
</svg>
