<svg width="245" height="60" viewBox="0 0 245 60" fill="none" xmlns="http://www.w3.org/2000/svg">
<path d="M234.327 51.394C235.714 52.0007 237.1 52.304 238.487 52.304C239.492 52.304 240.255 52.1133 240.775 51.732C241.312 51.3507 241.581 50.8047 241.581 50.094C241.581 49.626 241.434 49.2447 241.139 48.95C240.844 48.6553 240.359 48.404 239.683 48.196L237.915 47.65C236.736 47.286 235.878 46.818 235.341 46.246C234.804 45.674 234.535 44.946 234.535 44.062C234.535 42.8833 234.994 41.9473 235.913 41.254C236.832 40.5607 238.071 40.214 239.631 40.214C240.948 40.214 242.205 40.474 243.401 40.994V42.866C242.084 42.3633 240.879 42.112 239.787 42.112C238.903 42.112 238.21 42.2853 237.707 42.632C237.222 42.9613 236.979 43.412 236.979 43.984C236.979 44.4 237.109 44.7293 237.369 44.972C237.629 45.1973 238.114 45.4227 238.825 45.648L240.801 46.246C242.95 46.8873 244.025 48.1613 244.025 50.068C244.025 51.4027 243.566 52.4253 242.647 53.136C241.728 53.8467 240.402 54.202 238.669 54.202C237.057 54.202 235.705 53.9333 234.613 53.396L234.327 51.394Z" fill="white"/>
<path d="M228.807 42.372V49.964C228.807 50.744 228.981 51.3247 229.327 51.706C229.674 52.07 230.203 52.252 230.913 52.252C231.451 52.252 232.023 52.1567 232.629 51.966V53.708C231.901 53.9853 231.147 54.124 230.367 54.124C229.05 54.124 228.053 53.7773 227.377 53.084C226.701 52.3907 226.363 51.3767 226.363 50.042V42.372H224.387V40.708L226.467 40.63L226.649 37.328L228.807 37.094V40.604H232.499V42.372H228.807Z" fill="white"/>
<path d="M219.566 53.812V44.92C219.566 43.0653 218.647 42.138 216.81 42.138C216.325 42.138 215.779 42.2247 215.172 42.398C214.583 42.554 214.045 42.7707 213.56 43.048V53.812H211.116V40.76L213.092 40.552L213.248 41.462C214.669 40.63 216.082 40.214 217.486 40.214C218.925 40.214 220.034 40.5953 220.814 41.358C221.611 42.1033 222.01 43.1693 222.01 44.556V53.812H219.566Z" fill="white"/>
<path d="M205.2 53.864L205.044 52.954C203.623 53.786 202.21 54.202 200.806 54.202C199.402 54.202 198.31 53.8207 197.53 53.058C196.75 52.2953 196.36 51.2293 196.36 49.86V40.604H198.804V49.496C198.804 51.3507 199.697 52.278 201.482 52.278C201.985 52.278 202.531 52.2 203.12 52.044C203.71 51.8707 204.247 51.6453 204.732 51.368V40.604H207.176V53.656L205.2 53.864Z" fill="white"/>
<path d="M187.346 52.278C188.559 52.278 189.435 51.8793 189.972 51.082C190.527 50.2847 190.804 48.9933 190.804 47.208C190.804 45.4227 190.527 44.1313 189.972 43.334C189.435 42.5367 188.559 42.138 187.346 42.138C186.133 42.138 185.249 42.5367 184.694 43.334C184.157 44.1313 183.888 45.4227 183.888 47.208C183.888 48.9933 184.157 50.2847 184.694 51.082C185.249 51.8793 186.133 52.278 187.346 52.278ZM187.346 54.202C185.37 54.202 183.871 53.6127 182.848 52.434C181.843 51.238 181.34 49.496 181.34 47.208C181.34 44.92 181.843 43.1867 182.848 42.008C183.871 40.812 185.37 40.214 187.346 40.214C189.322 40.214 190.813 40.812 191.818 42.008C192.841 43.1867 193.352 44.92 193.352 47.208C193.352 49.496 192.841 51.238 191.818 52.434C190.813 53.6127 189.322 54.202 187.346 54.202Z" fill="white"/>
<path d="M179.364 53.344C178.168 53.916 176.842 54.202 175.386 54.202C173.48 54.202 172.006 53.5953 170.966 52.382C169.926 51.1687 169.406 49.4527 169.406 47.234C169.406 44.998 169.926 43.2733 170.966 42.06C172.024 40.8293 173.506 40.214 175.412 40.214C176.747 40.214 178.038 40.5 179.286 41.072V42.944C178.09 42.424 176.946 42.164 175.854 42.164C174.572 42.164 173.601 42.5887 172.942 43.438C172.284 44.2873 171.954 45.544 171.954 47.208C171.954 48.8547 172.284 50.1113 172.942 50.978C173.601 51.8273 174.572 52.252 175.854 52.252C176.946 52.252 178.116 51.992 179.364 51.472V53.344Z" fill="white"/>
<path d="M167.431 53.344C166.235 53.916 164.909 54.202 163.453 54.202C161.546 54.202 160.073 53.5953 159.033 52.382C157.993 51.1687 157.473 49.4527 157.473 47.234C157.473 44.998 157.993 43.2733 159.033 42.06C160.09 40.8293 161.572 40.214 163.479 40.214C164.813 40.214 166.105 40.5 167.353 41.072V42.944C166.157 42.424 165.013 42.164 163.921 42.164C162.638 42.164 161.667 42.5887 161.009 43.438C160.35 44.2873 160.021 45.544 160.021 47.208C160.021 48.8547 160.35 50.1113 161.009 50.978C161.667 51.8273 162.638 52.252 163.921 52.252C165.013 52.252 166.183 51.992 167.431 51.472V53.344Z" fill="white"/>
<path d="M152.477 53.864L152.321 52.954C150.865 53.786 149.452 54.202 148.083 54.202C146.713 54.202 145.621 53.838 144.807 53.11C144.009 52.3647 143.611 51.368 143.611 50.12C143.611 48.82 144.061 47.8147 144.963 47.104C145.864 46.376 147.129 46.012 148.759 46.012C149.712 46.012 150.813 46.1247 152.061 46.35V44.972C152.061 44.0187 151.783 43.308 151.229 42.84C150.691 42.372 149.859 42.138 148.733 42.138C147.415 42.138 145.977 42.4413 144.417 43.048V41.15C145.145 40.8553 145.933 40.63 146.783 40.474C147.632 40.3007 148.438 40.214 149.201 40.214C150.917 40.214 152.217 40.6127 153.101 41.41C154.002 42.2073 154.453 43.3773 154.453 44.92V53.656L152.477 53.864ZM148.707 52.304C149.209 52.304 149.773 52.2173 150.397 52.044C151.021 51.8707 151.575 51.6453 152.061 51.368V48.04C151.246 47.832 150.284 47.728 149.175 47.728C148.135 47.728 147.363 47.9273 146.861 48.326C146.375 48.7073 146.133 49.288 146.133 50.068C146.133 51.5587 146.991 52.304 148.707 52.304Z" fill="white"/>
<path d="M127.662 59.948C126.033 59.948 124.672 59.6707 123.58 59.116L123.294 57.114C124.681 57.7207 126.067 58.024 127.454 58.024C130.106 58.024 131.432 56.828 131.432 54.436V52.928C130.132 53.6213 128.91 53.968 127.766 53.968C126.067 53.968 124.733 53.3873 123.762 52.226C122.809 51.0647 122.332 49.4613 122.332 47.416C122.332 45.0933 122.921 43.3167 124.1 42.086C125.279 40.838 126.96 40.214 129.144 40.214C129.837 40.214 130.6 40.3007 131.432 40.474C132.281 40.63 133.096 40.8467 133.876 41.124V54.124C133.876 55.996 133.339 57.4347 132.264 58.44C131.189 59.4453 129.655 59.948 127.662 59.948ZM128.338 52.044C128.806 52.044 129.317 51.966 129.872 51.81C130.444 51.6367 130.964 51.4113 131.432 51.134V42.424C130.704 42.216 129.933 42.112 129.118 42.112C127.697 42.112 126.631 42.5453 125.92 43.412C125.227 44.2787 124.88 45.596 124.88 47.364C124.88 48.9067 125.166 50.0767 125.738 50.874C126.327 51.654 127.194 52.044 128.338 52.044Z" fill="white"/>
<path d="M116.861 53.812V44.92C116.861 43.0653 115.942 42.138 114.105 42.138C113.62 42.138 113.074 42.2247 112.467 42.398C111.878 42.554 111.34 42.7707 110.855 43.048V53.812H108.411V40.76L110.387 40.552L110.543 41.462C111.964 40.63 113.377 40.214 114.781 40.214C116.22 40.214 117.329 40.5953 118.109 41.358C118.906 42.1033 119.305 43.1693 119.305 44.556V53.812H116.861Z" fill="white"/>
<path d="M102.012 53.812V40.812L104.456 40.526V53.812H102.012ZM103.234 37.9C102.732 37.9 102.333 37.77 102.038 37.51C101.761 37.2327 101.622 36.86 101.622 36.392C101.622 35.924 101.761 35.56 102.038 35.3C102.333 35.0227 102.732 34.884 103.234 34.884C103.737 34.884 104.127 35.0227 104.404 35.3C104.699 35.56 104.846 35.924 104.846 36.392C104.846 36.86 104.699 37.2327 104.404 37.51C104.127 37.77 103.737 37.9 103.234 37.9Z" fill="white"/>
<path d="M89.0632 53.812V34.286L91.5072 34V46.272L96.9412 40.604H99.7492L93.8472 46.74L100.035 53.812H97.0712L91.5072 47.338V53.812H89.0632Z" fill="white"/>
<path d="M86.0537 53.344C84.8577 53.916 83.5317 54.202 82.0757 54.202C80.169 54.202 78.6957 53.5953 77.6557 52.382C76.6157 51.1687 76.0957 49.4527 76.0957 47.234C76.0957 44.998 76.6157 43.2733 77.6557 42.06C78.713 40.8293 80.195 40.214 82.1017 40.214C83.4364 40.214 84.7277 40.5 85.9757 41.072V42.944C84.7797 42.424 83.6357 42.164 82.5437 42.164C81.261 42.164 80.2904 42.5887 79.6317 43.438C78.973 44.2873 78.6437 45.544 78.6437 47.208C78.6437 48.8547 78.973 50.1113 79.6317 50.978C80.2904 51.8273 81.261 52.252 82.5437 52.252C83.6357 52.252 84.8057 51.992 86.0537 51.472V53.344Z" fill="white"/>
<path d="M73.0943 53.318C71.8983 53.9073 70.5637 54.202 69.0903 54.202C66.941 54.202 65.303 53.604 64.1763 52.408C63.0497 51.212 62.4863 49.4613 62.4863 47.156C62.4863 45.7347 62.7377 44.504 63.2403 43.464C63.743 42.4067 64.445 41.6007 65.3463 41.046C66.2477 40.4913 67.279 40.214 68.4403 40.214C70.0697 40.214 71.3523 40.6993 72.2883 41.67C73.2243 42.6407 73.6923 43.984 73.6923 45.7C73.6923 46.376 73.6317 47.0433 73.5103 47.702H64.9043C64.9563 50.77 66.447 52.304 69.3763 52.304C70.6417 52.304 71.881 52.0267 73.0943 51.472V53.318ZM68.4403 42.008C67.435 42.008 66.6117 42.3633 65.9703 43.074C65.3463 43.7847 64.991 44.7467 64.9043 45.96H71.4303C71.4477 45.8733 71.4563 45.7867 71.4563 45.7C71.4563 45.6133 71.4563 45.5267 71.4563 45.44C71.4563 44.3653 71.1877 43.5247 70.6503 42.918C70.1303 42.3113 69.3937 42.008 68.4403 42.008Z" fill="white"/>
<path d="M48.5652 53.812V34.286L51.0092 34V41.28C52.3438 40.5693 53.6525 40.214 54.9352 40.214C56.3739 40.214 57.4832 40.5953 58.2632 41.358C59.0605 42.1033 59.4592 43.1693 59.4592 44.556V53.812H57.0152V44.92C57.0152 43.0653 56.0965 42.138 54.2592 42.138C53.7739 42.138 53.2279 42.2247 52.6212 42.398C52.0319 42.554 51.4945 42.7707 51.0092 43.048V53.812H48.5652Z" fill="white"/>
<path d="M45.5557 53.344C44.3597 53.916 43.0337 54.202 41.5777 54.202C39.671 54.202 38.1977 53.5953 37.1577 52.382C36.1177 51.1687 35.5977 49.4527 35.5977 47.234C35.5977 44.998 36.1177 43.2733 37.1577 42.06C38.215 40.8293 39.697 40.214 41.6037 40.214C42.9383 40.214 44.2297 40.5 45.4777 41.072V42.944C44.2817 42.424 43.1377 42.164 42.0457 42.164C40.763 42.164 39.7923 42.5887 39.1337 43.438C38.475 44.2873 38.1457 45.544 38.1457 47.208C38.1457 48.8547 38.475 50.1113 39.1337 50.978C39.7923 51.8273 40.763 52.252 42.0457 52.252C43.1377 52.252 44.3077 51.992 45.5557 51.472V53.344Z" fill="white"/>
<path d="M23.6265 53.812V44.92C23.6265 43.0653 22.7078 42.138 20.8705 42.138C20.3852 42.138 19.8392 42.2247 19.2325 42.398C18.6432 42.554 18.1058 42.7707 17.6205 43.048V53.812H15.1765V40.76L17.1525 40.552L17.3085 41.462C18.7298 40.63 20.1425 40.214 21.5465 40.214C22.9852 40.214 24.0945 40.5953 24.8745 41.358C25.6718 42.1033 26.0705 43.1693 26.0705 44.556V53.812H23.6265Z" fill="white"/>
<path d="M6.006 52.278C7.21933 52.278 8.09467 51.8793 8.632 51.082C9.18667 50.2847 9.464 48.9933 9.464 47.208C9.464 45.4227 9.18667 44.1313 8.632 43.334C8.09467 42.5367 7.21933 42.138 6.006 42.138C4.79267 42.138 3.90867 42.5367 3.354 43.334C2.81667 44.1313 2.548 45.4227 2.548 47.208C2.548 48.9933 2.81667 50.2847 3.354 51.082C3.90867 51.8793 4.79267 52.278 6.006 52.278ZM6.006 54.202C4.03 54.202 2.53067 53.6127 1.508 52.434C0.502667 51.238 0 49.496 0 47.208C0 44.92 0.502667 43.1867 1.508 42.008C2.53067 40.812 4.03 40.214 6.006 40.214C7.982 40.214 9.47267 40.812 10.478 42.008C11.5007 43.1867 12.012 44.92 12.012 47.208C12.012 49.496 11.5007 51.238 10.478 52.434C9.47267 53.6127 7.982 54.202 6.006 54.202Z" fill="white"/>
<path d="M231.188 17.654C232.574 18.2607 233.961 18.564 235.348 18.564C236.353 18.564 237.116 18.3733 237.636 17.992C238.173 17.6107 238.442 17.0647 238.442 16.354C238.442 15.886 238.294 15.5047 238 15.21C237.705 14.9153 237.22 14.664 236.544 14.456L234.776 13.91C233.597 13.546 232.739 13.078 232.202 12.506C231.664 11.934 231.396 11.206 231.396 10.322C231.396 9.14333 231.855 8.20733 232.773 7.514C233.692 6.82066 234.932 6.474 236.492 6.474C237.809 6.474 239.066 6.734 240.262 7.254V9.126C238.944 8.62333 237.74 8.372 236.648 8.372C235.764 8.372 235.07 8.54533 234.568 8.892C234.082 9.22133 233.84 9.672 233.84 10.244C233.84 10.66 233.97 10.9893 234.23 11.232C234.49 11.4573 234.975 11.6827 235.686 11.908L237.661 12.506C239.811 13.1473 240.886 14.4213 240.886 16.328C240.886 17.6627 240.426 18.6853 239.508 19.396C238.589 20.1067 237.263 20.462 235.53 20.462C233.918 20.462 232.566 20.1933 231.474 19.656L231.188 17.654Z" fill="white"/>
<path d="M225.862 20.072V10.894C225.862 9.23 225.056 8.398 223.444 8.398C222.473 8.398 221.45 8.71867 220.376 9.36C220.462 9.74133 220.506 10.1227 220.506 10.504V20.072H218.062V10.894C218.062 9.23 217.256 8.398 215.644 8.398C214.69 8.398 213.711 8.70133 212.706 9.308V20.072H210.262V7.02L212.238 6.812L212.394 7.722C213.728 6.89 215.037 6.474 216.32 6.474C217.81 6.474 218.937 6.95067 219.7 7.904C221.26 6.95067 222.733 6.474 224.12 6.474C225.42 6.474 226.442 6.82933 227.188 7.54C227.933 8.25066 228.306 9.23866 228.306 10.504V20.072H225.862Z" fill="white"/>
<path d="M204.346 20.124L204.19 19.214C202.769 20.046 201.356 20.462 199.952 20.462C198.548 20.462 197.456 20.0807 196.676 19.318C195.896 18.5553 195.506 17.4893 195.506 16.12V6.86401H197.95V15.756C197.95 17.6107 198.843 18.538 200.628 18.538C201.131 18.538 201.677 18.46 202.266 18.304C202.855 18.1307 203.393 17.9053 203.878 17.628V6.86401H206.322V19.916L204.346 20.124Z" fill="white"/>
<path d="M189.426 20.072V10.894C189.426 9.23 188.62 8.398 187.008 8.398C186.038 8.398 185.015 8.71867 183.94 9.36C184.027 9.74133 184.07 10.1227 184.07 10.504V20.072H181.626V10.894C181.626 9.23 180.82 8.398 179.208 8.398C178.255 8.398 177.276 8.70133 176.27 9.308V20.072H173.826V7.02L175.802 6.812L175.958 7.722C177.293 6.89 178.602 6.474 179.884 6.474C181.375 6.474 182.502 6.95067 183.264 7.904C184.824 6.95067 186.298 6.474 187.684 6.474C188.984 6.474 190.007 6.82933 190.752 7.54C191.498 8.25066 191.87 9.23866 191.87 10.504V20.072H189.426Z" fill="white"/>
<path d="M167.428 20.072V7.07198L169.872 6.78598V20.072H167.428ZM168.65 4.15998C168.147 4.15998 167.748 4.02998 167.454 3.76998C167.176 3.49265 167.038 3.11998 167.038 2.65198C167.038 2.18398 167.176 1.81998 167.454 1.55998C167.748 1.28265 168.147 1.14398 168.65 1.14398C169.152 1.14398 169.542 1.28265 169.82 1.55998C170.114 1.81998 170.262 2.18398 170.262 2.65198C170.262 3.11998 170.114 3.49265 169.82 3.76998C169.542 4.02998 169.152 4.15998 168.65 4.15998Z" fill="white"/>
<path d="M161.177 20.072V11.18C161.177 9.32533 160.258 8.398 158.421 8.398C157.935 8.398 157.389 8.48466 156.783 8.658C156.193 8.814 155.656 9.03067 155.171 9.308V20.072H152.727V7.02L154.703 6.812L154.859 7.722C156.28 6.89 157.693 6.474 159.097 6.474C160.535 6.474 161.645 6.85533 162.425 7.618C163.222 8.36333 163.621 9.42933 163.621 10.816V20.072H161.177Z" fill="white"/>
<path d="M146.328 20.072V7.07198L148.772 6.78598V20.072H146.328ZM147.55 4.15998C147.047 4.15998 146.649 4.02998 146.354 3.76998C146.077 3.49265 145.938 3.11998 145.938 2.65198C145.938 2.18398 146.077 1.81998 146.354 1.55998C146.649 1.28265 147.047 1.14398 147.55 1.14398C148.053 1.14398 148.443 1.28265 148.72 1.55998C149.015 1.81998 149.162 2.18398 149.162 2.65198C149.162 3.11998 149.015 3.49265 148.72 3.76998C148.443 4.02998 148.053 4.15998 147.55 4.15998Z" fill="white"/>
<path d="M140.092 20.072V10.894C140.092 9.23 139.286 8.398 137.674 8.398C136.704 8.398 135.681 8.71867 134.606 9.36C134.693 9.74133 134.736 10.1227 134.736 10.504V20.072H132.292V10.894C132.292 9.23 131.486 8.398 129.874 8.398C128.921 8.398 127.942 8.70133 126.936 9.308V20.072H124.492V7.02L126.468 6.812L126.624 7.722C127.959 6.89 129.268 6.474 130.55 6.474C132.041 6.474 133.168 6.95067 133.93 7.904C135.49 6.95067 136.964 6.474 138.35 6.474C139.65 6.474 140.673 6.82933 141.418 7.54C142.164 8.25066 142.536 9.23866 142.536 10.504V20.072H140.092Z" fill="white"/>
<path d="M108.496 20.072V7.02L110.472 6.812L110.68 8.008C111.824 7.03734 113.046 6.552 114.346 6.552C114.745 6.552 115.143 6.61267 115.542 6.734V8.736C115.126 8.632 114.701 8.58 114.268 8.58C113.02 8.58 111.911 8.97 110.94 9.75V20.072H108.496Z" fill="white"/>
<path d="M99.3256 18.538C100.539 18.538 101.414 18.1393 101.952 17.342C102.506 16.5447 102.784 15.2533 102.784 13.468C102.784 11.6827 102.506 10.3913 101.952 9.594C101.414 8.79666 100.539 8.398 99.3256 8.398C98.1123 8.398 97.2283 8.79666 96.6736 9.594C96.1363 10.3913 95.8676 11.6827 95.8676 13.468C95.8676 15.2533 96.1363 16.5447 96.6736 17.342C97.2283 18.1393 98.1123 18.538 99.3256 18.538ZM99.3256 20.462C97.3496 20.462 95.8503 19.8727 94.8276 18.694C93.8223 17.498 93.3196 15.756 93.3196 13.468C93.3196 11.18 93.8223 9.44666 94.8276 8.268C95.8503 7.072 97.3496 6.474 99.3256 6.474C101.302 6.474 102.792 7.072 103.798 8.268C104.82 9.44666 105.332 11.18 105.332 13.468C105.332 15.756 104.82 17.498 103.798 18.694C102.792 19.8727 101.302 20.462 99.3256 20.462Z" fill="white"/>
<path d="M74.8574 17.654C76.2441 18.2607 77.6308 18.564 79.0174 18.564C80.0228 18.564 80.7854 18.3733 81.3054 17.992C81.8428 17.6107 82.1114 17.0647 82.1114 16.354C82.1114 15.886 81.9641 15.5047 81.6694 15.21C81.3748 14.9153 80.8894 14.664 80.2134 14.456L78.4454 13.91C77.2668 13.546 76.4088 13.078 75.8714 12.506C75.3341 11.934 75.0654 11.206 75.0654 10.322C75.0654 9.14333 75.5248 8.20733 76.4434 7.514C77.3621 6.82066 78.6014 6.474 80.1614 6.474C81.4788 6.474 82.7354 6.734 83.9314 7.254V9.126C82.6141 8.62333 81.4094 8.372 80.3174 8.372C79.4334 8.372 78.7401 8.54533 78.2374 8.892C77.7521 9.22133 77.5094 9.672 77.5094 10.244C77.5094 10.66 77.6394 10.9893 77.8994 11.232C78.1594 11.4573 78.6448 11.6827 79.3554 11.908L81.3314 12.506C83.4808 13.1473 84.5554 14.4213 84.5554 16.328C84.5554 17.6627 84.0961 18.6853 83.1774 19.396C82.2588 20.1067 80.9328 20.462 79.1994 20.462C77.5874 20.462 76.2354 20.1933 75.1434 19.656L74.8574 17.654Z" fill="white"/>
<path d="M71.9862 19.578C70.7902 20.1673 69.4555 20.462 67.9822 20.462C65.8328 20.462 64.1948 19.864 63.0682 18.668C61.9415 17.472 61.3782 15.7213 61.3782 13.416C61.3782 11.9947 61.6295 10.764 62.1322 9.724C62.6348 8.66666 63.3368 7.86066 64.2382 7.306C65.1395 6.75133 66.1708 6.474 67.3322 6.474C68.9615 6.474 70.2442 6.95933 71.1802 7.93C72.1162 8.90067 72.5842 10.244 72.5842 11.96C72.5842 12.636 72.5235 13.3033 72.4022 13.962H63.7962C63.8482 17.03 65.3388 18.564 68.2682 18.564C69.5335 18.564 70.7728 18.2867 71.9862 17.732V19.578ZM67.3322 8.268C66.3268 8.268 65.5035 8.62333 64.8622 9.334C64.2382 10.0447 63.8828 11.0067 63.7962 12.22H70.3222C70.3395 12.1333 70.3482 12.0467 70.3482 11.96C70.3482 11.8733 70.3482 11.7867 70.3482 11.7C70.3482 10.6253 70.0795 9.78466 69.5422 9.178C69.0222 8.57133 68.2855 8.268 67.3322 8.268Z" fill="white"/>
<path d="M58.3768 19.578C57.1808 20.1673 55.8461 20.462 54.3728 20.462C52.2235 20.462 50.5855 19.864 49.4588 18.668C48.3321 17.472 47.7688 15.7213 47.7688 13.416C47.7688 11.9947 48.0201 10.764 48.5228 9.724C49.0255 8.66666 49.7275 7.86066 50.6288 7.306C51.5301 6.75133 52.5615 6.474 53.7228 6.474C55.3521 6.474 56.6348 6.95933 57.5708 7.93C58.5068 8.90067 58.9748 10.244 58.9748 11.96C58.9748 12.636 58.9141 13.3033 58.7928 13.962H50.1868C50.2388 17.03 51.7295 18.564 54.6588 18.564C55.9241 18.564 57.1635 18.2867 58.3768 17.732V19.578ZM53.7228 8.268C52.7175 8.268 51.8941 8.62333 51.2528 9.334C50.6288 10.0447 50.2735 11.0067 50.1868 12.22H56.7128C56.7301 12.1333 56.7388 12.0467 56.7388 11.96C56.7388 11.8733 56.7388 11.7867 56.7388 11.7C56.7388 10.6253 56.4701 9.78466 55.9328 9.178C55.4128 8.57133 54.6761 8.268 53.7228 8.268Z" fill="white"/>
<path d="M40.2841 20.072V8.632H38.3081V6.968L40.2841 6.89V4.316C40.2841 2.94667 40.6394 1.88933 41.3501 1.144C42.0608 0.381333 43.0748 0 44.3921 0C45.1548 0 45.9348 0.138667 46.7321 0.415999V2.158C46.0214 1.96733 45.4148 1.872 44.9121 1.872C43.4561 1.872 42.7281 2.64333 42.7281 4.186V6.864H46.0821V8.632H42.7281V20.072H40.2841Z" fill="white"/>
<path d="M24.0678 18.538C25.2811 18.538 26.1564 18.1393 26.6938 17.342C27.2484 16.5447 27.5258 15.2533 27.5258 13.468C27.5258 11.6827 27.2484 10.3913 26.6938 9.594C26.1564 8.79666 25.2811 8.398 24.0678 8.398C22.8544 8.398 21.9704 8.79666 21.4158 9.594C20.8784 10.3913 20.6098 11.6827 20.6098 13.468C20.6098 15.2533 20.8784 16.5447 21.4158 17.342C21.9704 18.1393 22.8544 18.538 24.0678 18.538ZM24.0678 20.462C22.0918 20.462 20.5924 19.8727 19.5698 18.694C18.5644 17.498 18.0618 15.756 18.0618 13.468C18.0618 11.18 18.5644 9.44666 19.5698 8.268C20.5924 7.072 22.0918 6.474 24.0678 6.474C26.0438 6.474 27.5344 7.072 28.5398 8.268C29.5624 9.44666 30.0738 11.18 30.0738 13.468C30.0738 15.756 29.5624 17.498 28.5398 18.694C27.5344 19.8727 26.0438 20.462 24.0678 20.462Z" fill="white"/>
<path d="M12.232 20.072L3.418 6.05801V20.072H1V1.87201H3.314L12.128 15.886V1.87201H14.546V20.072H12.232Z" fill="white"/>
</svg>
