<svg width="158" height="16" viewBox="0 0 158 16" fill="none" xmlns="http://www.w3.org/2000/svg">
<path d="M155.918 10.7084L155.684 1.20714L157.592 1.01244L157.358 10.7084H155.918ZM156.638 14.9334C156.288 14.9334 156.002 14.8231 155.781 14.6024C155.561 14.3818 155.45 14.0962 155.45 13.7457C155.45 13.3953 155.561 13.1097 155.781 12.8891C156.002 12.6684 156.288 12.5581 156.638 12.5581C156.989 12.5581 157.274 12.6684 157.495 12.8891C157.715 13.1097 157.826 13.3953 157.826 13.7457C157.826 14.0962 157.715 14.3818 157.495 14.6024C157.274 14.8231 156.989 14.9334 156.638 14.9334Z" fill="white"/>
<path d="M150.516 14.8361V8.17735C150.516 6.7885 149.828 6.09408 148.452 6.09408C148.089 6.09408 147.68 6.15897 147.226 6.28877C146.784 6.40559 146.382 6.56784 146.019 6.77552V14.8361H144.188V5.06217L145.668 4.90641L145.785 5.58786C146.849 4.96482 147.907 4.65331 148.959 4.65331C150.036 4.65331 150.867 4.93886 151.451 5.50998C152.048 6.06812 152.346 6.86638 152.346 7.90478V14.8361H150.516Z" fill="white"/>
<path d="M139.759 14.875L139.642 14.1935C138.578 14.8166 137.52 15.1281 136.468 15.1281C135.417 15.1281 134.599 14.8425 134.015 14.2714C133.431 13.7003 133.139 12.902 133.139 11.8766V4.94534H134.969V11.604C134.969 12.9929 135.638 13.6873 136.974 13.6873C137.351 13.6873 137.76 13.6289 138.201 13.5121C138.642 13.3823 139.045 13.2136 139.408 13.0059V4.94534H141.238V14.7192L139.759 14.875Z" fill="white"/>
<path d="M126.145 14.8361V5.06217L127.624 4.90641L127.78 5.80202C128.637 5.07515 129.552 4.71172 130.525 4.71172C130.824 4.71172 131.123 4.75715 131.421 4.84801V6.34718C131.11 6.2693 130.792 6.23036 130.467 6.23036C129.533 6.23036 128.702 6.52241 127.975 7.10651V14.8361H126.145Z" fill="white"/>
<path d="M118.446 14.4661C117.55 14.9074 116.551 15.1281 115.447 15.1281C113.838 15.1281 112.611 14.6803 111.767 13.7847C110.924 12.8891 110.502 11.5781 110.502 9.85176C110.502 8.78741 110.69 7.86583 111.067 7.08704C111.443 6.29526 111.969 5.6917 112.644 5.27634C113.319 4.86099 114.091 4.65331 114.961 4.65331C116.181 4.65331 117.141 5.01675 117.842 5.74362C118.543 6.4705 118.893 7.47644 118.893 8.76145C118.893 9.26767 118.848 9.76739 118.757 10.2606H112.313C112.352 12.5581 113.468 13.7068 115.661 13.7068C116.609 13.7068 117.537 13.4991 118.446 13.0838V14.4661ZM114.961 5.99673C114.208 5.99673 113.591 6.26281 113.111 6.79499C112.644 7.32717 112.378 8.04755 112.313 8.95615H117.2C117.213 8.89125 117.219 8.82635 117.219 8.76145C117.219 8.69655 117.219 8.63165 117.219 8.56675C117.219 7.76199 117.018 7.13247 116.615 6.67817C116.226 6.22387 115.674 5.99673 114.961 5.99673Z" fill="white"/>
<path d="M106.416 14.8361V7.96318C106.416 6.71711 105.813 6.09408 104.606 6.09408C103.879 6.09408 103.113 6.3342 102.308 6.81446C102.373 7.10002 102.406 7.38558 102.406 7.67113V14.8361H100.575V7.96318C100.575 6.71711 99.9718 6.09408 98.7646 6.09408C98.0507 6.09408 97.3174 6.32122 96.5645 6.77552V14.8361H94.7344V5.06217L96.2141 4.90641L96.3309 5.58786C97.3304 4.96482 98.3103 4.65331 99.2709 4.65331C100.387 4.65331 101.231 5.01026 101.802 5.72415C102.97 5.01026 104.073 4.65331 105.112 4.65331C106.085 4.65331 106.851 4.91939 107.409 5.45157C107.967 5.98375 108.246 6.7236 108.246 7.67113V14.8361H106.416Z" fill="white"/>
<path d="M87.8672 13.6873C88.7758 13.6873 89.4312 13.3888 89.8336 12.7917C90.249 12.1946 90.4567 11.2276 90.4567 9.8907C90.4567 8.55377 90.249 7.58677 89.8336 6.98969C89.4312 6.39262 88.7758 6.09408 87.8672 6.09408C86.9586 6.09408 86.2966 6.39262 85.8812 6.98969C85.4789 7.58677 85.2777 8.55377 85.2777 9.8907C85.2777 11.2276 85.4789 12.1946 85.8812 12.7917C86.2966 13.3888 86.9586 13.6873 87.8672 13.6873ZM87.8672 15.1281C86.3875 15.1281 85.2647 14.6868 84.4989 13.8041C83.746 12.9085 83.3696 11.6041 83.3696 9.8907C83.3696 8.17735 83.746 6.87936 84.4989 5.99673C85.2647 5.10111 86.3875 4.65331 87.8672 4.65331C89.3469 4.65331 90.4632 5.10111 91.216 5.99673C91.9818 6.87936 92.3647 8.17735 92.3647 9.8907C92.3647 11.6041 91.9818 12.9085 91.216 13.8041C90.4632 14.6868 89.3469 15.1281 87.8672 15.1281Z" fill="white"/>
<path d="M72.9448 14.8361V0.214172L74.775 0V5.45157C75.7744 4.91939 76.7544 4.65331 77.7149 4.65331C78.7923 4.65331 79.623 4.93886 80.2071 5.50998C80.8042 6.06812 81.1027 6.86638 81.1027 7.90478V14.8361H79.2725V8.17735C79.2725 6.7885 78.5846 6.09408 77.2087 6.09408C76.8453 6.09408 76.4364 6.15897 75.9821 6.28877C75.5408 6.40559 75.1384 6.56784 74.775 6.77552V14.8361H72.9448Z" fill="white"/>
<path d="M63.752 14.875L63.6352 14.1935C62.5449 14.8166 61.487 15.1281 60.4616 15.1281C59.4362 15.1281 58.6185 14.8555 58.0084 14.3104C57.4113 13.7522 57.1128 13.0059 57.1128 12.0713C57.1128 11.0978 57.4503 10.345 58.1252 9.81282C58.8002 9.26766 59.7477 8.99509 60.9678 8.99509C61.6817 8.99509 62.5059 9.07946 63.4405 9.2482V8.21629C63.4405 7.5024 63.2328 6.97022 62.8175 6.61977C62.4151 6.26931 61.7921 6.09408 60.9484 6.09408C59.9619 6.09408 58.8846 6.32122 57.7164 6.77552V5.35422C58.2615 5.13356 58.8521 4.96483 59.4881 4.84801C60.1241 4.71821 60.7277 4.65331 61.2988 4.65331C62.5838 4.65331 63.5573 4.95184 64.2193 5.54892C64.8943 6.146 65.2317 7.02214 65.2317 8.17735V14.7192L63.752 14.875ZM60.9289 13.7068C61.3053 13.7068 61.7272 13.6419 62.1944 13.5121C62.6617 13.3823 63.0771 13.2136 63.4405 13.0059V10.5137C62.8304 10.358 62.1101 10.2801 61.2793 10.2801C60.5006 10.2801 59.9229 10.4294 59.5465 10.7279C59.1831 11.0135 59.0014 11.4483 59.0014 12.0324C59.0014 13.1487 59.6439 13.7068 60.9289 13.7068Z" fill="white"/>
<path d="M43.2488 13.0254C44.2872 13.4796 45.3256 13.7068 46.364 13.7068C47.1168 13.7068 47.6879 13.564 48.0773 13.2785C48.4797 12.9929 48.6809 12.584 48.6809 12.0519C48.6809 11.7014 48.5705 11.4158 48.3499 11.1952C48.1292 10.9745 47.7658 10.7863 47.2596 10.6306L45.9356 10.2217C45.053 9.94911 44.4105 9.59866 44.0081 9.17032C43.6057 8.74198 43.4045 8.19682 43.4045 7.53484C43.4045 6.65221 43.7485 5.9513 44.4364 5.4321C45.1244 4.9129 46.0524 4.65331 47.2206 4.65331C48.2071 4.65331 49.1482 4.84801 50.0438 5.2374V6.63923C49.0573 6.26281 48.1552 6.07461 47.3375 6.07461C46.6755 6.07461 46.1563 6.20441 45.7799 6.464C45.4164 6.71062 45.2347 7.0481 45.2347 7.47644C45.2347 7.78796 45.3321 8.03457 45.5268 8.21629C45.7215 8.38503 46.0849 8.55377 46.6171 8.72251L48.0968 9.17032C49.7063 9.65058 50.511 10.6046 50.511 12.0324C50.511 13.0318 50.1671 13.7977 49.4791 14.3298C48.7912 14.862 47.7982 15.1281 46.5003 15.1281C45.2931 15.1281 44.2807 14.9269 43.4629 14.5245L43.2488 13.0254Z" fill="white"/>
<path d="M39.1538 6.03568C39.5562 5.58138 39.8807 5.08814 40.1273 4.55596C40.3739 4.0108 40.5037 3.4981 40.5167 3.01785C40.2571 2.95295 40.0494 2.82315 39.8937 2.62845C39.7509 2.42077 39.6795 2.18064 39.6795 1.90806C39.6795 1.57058 39.7898 1.29151 40.0105 1.07085C40.2441 0.850195 40.5297 0.739868 40.8672 0.739868C41.2176 0.739868 41.4967 0.869667 41.7044 1.12926C41.925 1.38886 42.0354 1.74581 42.0354 2.2001C42.0354 2.66738 41.925 3.1736 41.7044 3.71876C41.4837 4.25093 41.1917 4.75066 40.8282 5.21794C40.4778 5.68522 40.0949 6.07461 39.6795 6.38613L39.1538 6.03568Z" fill="white"/>
<path d="M35.3123 6.26931V11.9545C35.3123 12.5386 35.4421 12.9734 35.7017 13.259C35.9613 13.5316 36.3572 13.6679 36.8894 13.6679C37.2918 13.6679 37.7201 13.5965 38.1744 13.4537V14.7582C37.6292 14.9659 37.0646 15.0697 36.4805 15.0697C35.494 15.0697 34.7477 14.8101 34.2415 14.2909C33.7353 13.7717 33.4822 13.0124 33.4822 12.0129V6.26931H32.0024V5.02324L33.56 4.96483L33.6963 2.49216L35.3123 2.31693V4.94536H38.077V6.26931H35.3123Z" fill="white"/>
<path d="M28.7481 14.875L28.6313 14.1935C27.541 14.8166 26.4831 15.1281 25.4577 15.1281C24.4323 15.1281 23.6146 14.8555 23.0045 14.3104C22.4074 13.7522 22.1089 13.0059 22.1089 12.0713C22.1089 11.0978 22.4464 10.345 23.1213 9.81282C23.7963 9.26766 24.7438 8.99509 25.9639 8.99509C26.6778 8.99509 27.502 9.07946 28.4366 9.2482V8.21629C28.4366 7.5024 28.2289 6.97022 27.8136 6.61977C27.4112 6.26931 26.7881 6.09408 25.9445 6.09408C24.958 6.09408 23.8806 6.32122 22.7125 6.77552V5.35422C23.2576 5.13356 23.8482 4.96483 24.4842 4.84801C25.1202 4.71821 25.7238 4.65331 26.2949 4.65331C27.5799 4.65331 28.5534 4.95184 29.2154 5.54892C29.8903 6.146 30.2278 7.02214 30.2278 8.17735V14.7192L28.7481 14.875ZM25.925 13.7068C26.3014 13.7068 26.7232 13.6419 27.1905 13.5121C27.6578 13.3823 28.0732 13.2136 28.4366 13.0059V10.5137C27.8265 10.358 27.1062 10.2801 26.2754 10.2801C25.4966 10.2801 24.919 10.4294 24.5426 10.7279C24.1792 11.0135 23.9975 11.4483 23.9975 12.0324C23.9975 13.1487 24.64 13.7068 25.925 13.7068Z" fill="white"/>
<path d="M11.645 14.8361V0.214172L13.4752 0V5.45157C14.4746 4.91939 15.4546 4.65331 16.4151 4.65331C17.4925 4.65331 18.3232 4.93886 18.9073 5.50998C19.5044 6.06812 19.8029 6.86638 19.8029 7.90478V14.8361H17.9727V8.17735C17.9727 6.7885 17.2848 6.09408 15.9089 6.09408C15.5455 6.09408 15.1366 6.15897 14.6823 6.28877C14.241 6.40559 13.8386 6.56784 13.4752 6.77552V14.8361H11.645Z" fill="white"/>
<path d="M3.99133 14.8361V2.76472H0V1.20714H9.87123V2.76472H5.8799V14.8361H3.99133Z" fill="white"/>
</svg>
